<?xml version="1.0" encoding="UTF-8" standalone="no"?>
<!DOCTYPE svg PUBLIC "-//W3C//DTD SVG 1.1//EN"
 "http://www.w3.org/Graphics/SVG/1.1/DTD/svg11.dtd">
<!-- Generated by graphviz version 2.49.3 (0)
 -->
<!-- Title: ListaPodobienstw.ElementListy.PoliczElementy Pages: 1 -->
<svg width="483pt" height="86pt"
 viewBox="0.00 0.00 483.00 86.00" xmlns="http://www.w3.org/2000/svg" xmlns:xlink="http://www.w3.org/1999/xlink">
<g id="graph0" class="graph" transform="scale(1 1) rotate(0) translate(4 82)">
<title>ListaPodobienstw.ElementListy.PoliczElementy</title>
<!-- Node1 -->
<g id="node1" class="node">
<title>Node1</title>
<g id="a_node1"><a xlink:title=" ">
<polygon fill="#999999" stroke="#666666" points="475,-54 343,-54 343,-24 475,-24 475,-54"/>
<text text-anchor="start" x="351" y="-42" font-family="Helvetica,sans-Serif" font-size="10.00">ListaPodobienstw.Element</text>
<text text-anchor="middle" x="409" y="-31" font-family="Helvetica,sans-Serif" font-size="10.00">Listy.PoliczElementy</text>
</a>
</g>
</g>
<!-- Node1&#45;&gt;Node1 -->
<g id="edge5" class="edge">
<title>Node1&#45;&gt;Node1</title>
<path fill="none" stroke="#63b8ff" d="M438.41,-64.6C434.39,-68.97 424.59,-72 409,-72 382.75,-72 372.91,-63.41 379.47,-54.28"/>
<polygon fill="#63b8ff" stroke="#63b8ff" points="441.91,-64.32 438.53,-54.28 434.91,-64.23 441.91,-64.32"/>
</g>
<!-- Node2 -->
<g id="node2" class="node">
<title>Node2</title>
<g id="a_node2"><a xlink:href="classListaPodobienstw_1_1ElementListy.html#af91c4fb44e4e56682e7a55de82d992fb" target="_top" xlink:title=" ">
<polygon fill="white" stroke="#666666" points="307,-78 175,-78 175,-48 307,-48 307,-78"/>
<text text-anchor="start" x="183" y="-66" font-family="Helvetica,sans-Serif" font-size="10.00">ListaPodobienstw.Element</text>
<text text-anchor="middle" x="241" y="-55" font-family="Helvetica,sans-Serif" font-size="10.00">Listy.getTablicę</text>
</a>
</g>
</g>
<!-- Node1&#45;&gt;Node2 -->
<g id="edge1" class="edge">
<title>Node1&#45;&gt;Node2</title>
<path fill="none" stroke="#63b8ff" d="M332.89,-49.86C324.32,-51.1 315.64,-52.35 307.22,-53.57"/>
<polygon fill="#63b8ff" stroke="#63b8ff" points="333.47,-53.31 342.87,-48.42 332.47,-46.38 333.47,-53.31"/>
</g>
<!-- Node4 -->
<g id="node4" class="node">
<title>Node4</title>
<g id="a_node4"><a xlink:href="classListaPodobienstw_1_1ElementListy.html#a91231c7edb543860abbaeaa474f6083e" target="_top" xlink:title=" ">
<polygon fill="white" stroke="#666666" points="307,-30 175,-30 175,0 307,0 307,-30"/>
<text text-anchor="start" x="183" y="-18" font-family="Helvetica,sans-Serif" font-size="10.00">ListaPodobienstw.Element</text>
<text text-anchor="middle" x="241" y="-7" font-family="Helvetica,sans-Serif" font-size="10.00">Listy.IleElementów</text>
</a>
</g>
</g>
<!-- Node1&#45;&gt;Node4 -->
<g id="edge3" class="edge">
<title>Node1&#45;&gt;Node4</title>
<path fill="none" stroke="#63b8ff" d="M332.89,-28.14C324.32,-26.9 315.64,-25.65 307.22,-24.43"/>
<polygon fill="#63b8ff" stroke="#63b8ff" points="332.47,-31.62 342.87,-29.58 333.47,-24.69 332.47,-31.62"/>
</g>
<!-- Node3 -->
<g id="node3" class="node">
<title>Node3</title>
<g id="a_node3"><a xlink:href="classListaPodobienstw_1_1ListaP.html#a33fa4073ea1479d0570bac1eedee0f9f" target="_top" xlink:title=" ">
<polygon fill="white" stroke="#666666" points="139,-78 0,-78 0,-48 139,-48 139,-78"/>
<text text-anchor="start" x="8" y="-66" font-family="Helvetica,sans-Serif" font-size="10.00">ListaPodobienstw.ListaP.get</text>
<text text-anchor="middle" x="69.5" y="-55" font-family="Helvetica,sans-Serif" font-size="10.00">Tablicę</text>
</a>
</g>
</g>
<!-- Node2&#45;&gt;Node3 -->
<g id="edge2" class="edge">
<title>Node2&#45;&gt;Node3</title>
<path fill="none" stroke="#63b8ff" d="M164.92,-63C156.3,-63 147.55,-63 139.03,-63"/>
<polygon fill="#63b8ff" stroke="#63b8ff" points="164.95,-66.5 174.95,-63 164.95,-59.5 164.95,-66.5"/>
</g>
<!-- Node5 -->
<g id="node5" class="node">
<title>Node5</title>
<g id="a_node5"><a xlink:href="classListaPodobienstw_1_1ListaP.html#a7673b122876bbcff315d8b4d5bcd5765" target="_top" xlink:title=" ">
<polygon fill="white" stroke="#666666" points="139,-30 0,-30 0,0 139,0 139,-30"/>
<text text-anchor="start" x="8" y="-18" font-family="Helvetica,sans-Serif" font-size="10.00">ListaPodobienstw.ListaP.get</text>
<text text-anchor="middle" x="69.5" y="-7" font-family="Helvetica,sans-Serif" font-size="10.00">LiczbęElementów</text>
</a>
</g>
</g>
<!-- Node4&#45;&gt;Node5 -->
<g id="edge4" class="edge">
<title>Node4&#45;&gt;Node5</title>
<path fill="none" stroke="#63b8ff" d="M164.92,-15C156.3,-15 147.55,-15 139.03,-15"/>
<polygon fill="#63b8ff" stroke="#63b8ff" points="164.95,-18.5 174.95,-15 164.95,-11.5 164.95,-18.5"/>
</g>
</g>
</svg>
