<?xml version="1.0" encoding="UTF-8" standalone="no"?>
<!DOCTYPE svg PUBLIC "-//W3C//DTD SVG 1.1//EN"
 "http://www.w3.org/Graphics/SVG/1.1/DTD/svg11.dtd">
<!-- Generated by graphviz version 2.49.3 (0)
 -->
<!-- Title: Struktury.PlikCSV.getStanPliku Pages: 1 -->
<svg width="355pt" height="76pt"
 viewBox="0.00 0.00 355.00 75.50" xmlns="http://www.w3.org/2000/svg" xmlns:xlink="http://www.w3.org/1999/xlink">
<g id="graph0" class="graph" transform="scale(1 1) rotate(0) translate(4 71.5)">
<title>Struktury.PlikCSV.getStanPliku</title>
<!-- Node1 -->
<g id="node1" class="node">
<title>Node1</title>
<g id="a_node1"><a xlink:title=" ">
<polygon fill="#999999" stroke="#666666" points="347,-51 215,-51 215,-21 347,-21 347,-51"/>
<text text-anchor="start" x="223" y="-39" font-family="Helvetica,sans-Serif" font-size="10.00">Struktury.PlikCSV.getStan</text>
<text text-anchor="middle" x="281" y="-28" font-family="Helvetica,sans-Serif" font-size="10.00">Pliku</text>
</a>
</g>
</g>
<!-- Node2 -->
<g id="node2" class="node">
<title>Node2</title>
<g id="a_node2"><a xlink:href="classporownania_1_1AnalizaPor_xC3_xB3wnawcza.html#a4fb7b99f4ed968c3c62c6fa132b19938" target="_top" xlink:title=" ">
<polygon fill="white" stroke="#666666" points="179,-67.5 0,-67.5 0,-48.5 179,-48.5 179,-67.5"/>
<text text-anchor="middle" x="89.5" y="-55.5" font-family="Helvetica,sans-Serif" font-size="10.00">porownania.AnalizaPorównawcza.run</text>
</a>
</g>
</g>
<!-- Node1&#45;&gt;Node2 -->
<g id="edge1" class="edge">
<title>Node1&#45;&gt;Node2</title>
<path fill="none" stroke="#63b8ff" d="M204.77,-44.73C194.19,-45.96 183.27,-47.23 172.57,-48.47"/>
<polygon fill="#63b8ff" stroke="#63b8ff" points="205.26,-48.2 214.78,-43.57 204.45,-41.25 205.26,-48.2"/>
</g>
<!-- Node3 -->
<g id="node3" class="node">
<title>Node3</title>
<g id="a_node3"><a xlink:href="classporownania_1_1WalidacjaPlik_xC3_xB3wCSV.html#a06f04fa5de0447a788775285f24793d1" target="_top" xlink:title=" ">
<polygon fill="white" stroke="#666666" points="159.5,-30 19.5,-30 19.5,0 159.5,0 159.5,-30"/>
<text text-anchor="start" x="27.5" y="-18" font-family="Helvetica,sans-Serif" font-size="10.00">porownania.WalidacjaPlików</text>
<text text-anchor="middle" x="89.5" y="-7" font-family="Helvetica,sans-Serif" font-size="10.00">CSV.run</text>
</a>
</g>
</g>
<!-- Node1&#45;&gt;Node3 -->
<g id="edge2" class="edge">
<title>Node1&#45;&gt;Node3</title>
<path fill="none" stroke="#63b8ff" d="M204.64,-27.65C189.82,-26.01 174.33,-24.29 159.71,-22.67"/>
<polygon fill="#63b8ff" stroke="#63b8ff" points="204.46,-31.15 214.78,-28.77 205.23,-24.19 204.46,-31.15"/>
</g>
</g>
</svg>
