<?xml version="1.0" encoding="UTF-8" standalone="no"?>
<!DOCTYPE svg PUBLIC "-//W3C//DTD SVG 1.1//EN"
 "http://www.w3.org/Graphics/SVG/1.1/DTD/svg11.dtd">
<!-- Generated by graphviz version 2.49.3 (0)
 -->
<!-- Title: porownania.Rezultat.Rezultat Pages: 1 -->
<svg width="942pt" height="38pt"
 viewBox="0.00 0.00 942.00 38.00" xmlns="http://www.w3.org/2000/svg" xmlns:xlink="http://www.w3.org/1999/xlink">
<g id="graph0" class="graph" transform="scale(1 1) rotate(0) translate(4 34)">
<title>porownania.Rezultat.Rezultat</title>
<!-- Node1 -->
<g id="node1" class="node">
<title>Node1</title>
<g id="a_node1"><a xlink:title=" ">
<polygon fill="#999999" stroke="#666666" points="144,-24.5 0,-24.5 0,-5.5 144,-5.5 144,-24.5"/>
<text text-anchor="middle" x="72" y="-12.5" font-family="Helvetica,sans-Serif" font-size="10.00">porownania.Rezultat.Rezultat</text>
</a>
</g>
</g>
<!-- Node2 -->
<g id="node2" class="node">
<title>Node2</title>
<g id="a_node2"><a xlink:href="classporownania_1_1Rezultat.html#a6a2d33ef3dc30fc0e471292bc16ae0e3" target="_top" xlink:title=" ">
<polygon fill="white" stroke="#666666" points="320,-30 180,-30 180,0 320,0 320,-30"/>
<text text-anchor="start" x="188" y="-18" font-family="Helvetica,sans-Serif" font-size="10.00">porownania.Rezultat.Utwórz</text>
<text text-anchor="middle" x="250" y="-7" font-family="Helvetica,sans-Serif" font-size="10.00">ListęZerowychRóżnic</text>
</a>
</g>
</g>
<!-- Node1&#45;&gt;Node2 -->
<g id="edge1" class="edge">
<title>Node1&#45;&gt;Node2</title>
<path fill="none" stroke="#63b8ff" d="M144.08,-15C152.58,-15 161.3,-15 169.91,-15"/>
<polygon fill="#63b8ff" stroke="#63b8ff" points="169.94,-18.5 179.94,-15 169.94,-11.5 169.94,-18.5"/>
</g>
<!-- Node3 -->
<g id="node3" class="node">
<title>Node3</title>
<g id="a_node3"><a xlink:href="classMotywy_1_1ParaMotyw_xC3_xB3w.html#ad6a71562154940909746bf6588b6b84e" target="_top" xlink:title=" ">
<polygon fill="white" stroke="#666666" points="523,-24.5 356,-24.5 356,-5.5 523,-5.5 523,-24.5"/>
<text text-anchor="middle" x="439.5" y="-12.5" font-family="Helvetica,sans-Serif" font-size="10.00">Motywy.ParaMotywów.getRóżnicę</text>
</a>
</g>
</g>
<!-- Node2&#45;&gt;Node3 -->
<g id="edge2" class="edge">
<title>Node2&#45;&gt;Node3</title>
<path fill="none" stroke="#63b8ff" d="M320.02,-15C328.42,-15 337.12,-15 345.8,-15"/>
<polygon fill="#63b8ff" stroke="#63b8ff" points="345.96,-18.5 355.96,-15 345.96,-11.5 345.96,-18.5"/>
</g>
<!-- Node4 -->
<g id="node4" class="node">
<title>Node4</title>
<g id="a_node4"><a xlink:href="classMotywy_1_1Motyw.html#a1bf7b0581400d564daa45e9cba7987f2" target="_top" xlink:title=" ">
<polygon fill="white" stroke="#666666" points="747,-24.5 559,-24.5 559,-5.5 747,-5.5 747,-24.5"/>
<text text-anchor="middle" x="653" y="-12.5" font-family="Helvetica,sans-Serif" font-size="10.00">Motywy.Motyw.CzyMożnaPorównywać</text>
</a>
</g>
</g>
<!-- Node3&#45;&gt;Node4 -->
<g id="edge3" class="edge">
<title>Node3&#45;&gt;Node4</title>
<path fill="none" stroke="#63b8ff" d="M523.18,-15C531.59,-15 540.21,-15 548.8,-15"/>
<polygon fill="#63b8ff" stroke="#63b8ff" points="548.86,-18.5 558.86,-15 548.86,-11.5 548.86,-18.5"/>
</g>
<!-- Node5 -->
<g id="node5" class="node">
<title>Node5</title>
<g id="a_node5"><a xlink:href="classStruktury_1_1ArkuszZdarzenie.html#add9f4b9b1ae80d624e5f480cda1574ee" target="_top" xlink:title=" ">
<polygon fill="white" stroke="#666666" points="934,-30 783,-30 783,0 934,0 934,-30"/>
<text text-anchor="start" x="791" y="-18" font-family="Helvetica,sans-Serif" font-size="10.00">Struktury.ArkuszZdarzenie.get</text>
<text text-anchor="middle" x="858.5" y="-7" font-family="Helvetica,sans-Serif" font-size="10.00">NumerGłosu</text>
</a>
</g>
</g>
<!-- Node4&#45;&gt;Node5 -->
<g id="edge4" class="edge">
<title>Node4&#45;&gt;Node5</title>
<path fill="none" stroke="#63b8ff" d="M747.11,-15C755.6,-15 764.16,-15 772.56,-15"/>
<polygon fill="#63b8ff" stroke="#63b8ff" points="772.72,-18.5 782.72,-15 772.72,-11.5 772.72,-18.5"/>
</g>
</g>
</svg>
