<?xml version="1.0" encoding="UTF-8" standalone="no"?>
<!DOCTYPE svg PUBLIC "-//W3C//DTD SVG 1.1//EN"
 "http://www.w3.org/Graphics/SVG/1.1/DTD/svg11.dtd">
<!-- Generated by graphviz version 2.49.3 (0)
 -->
<!-- Title: Struktury.Arkusz.getLiczbęWierszy Pages: 1 -->
<svg width="514pt" height="134pt"
 viewBox="0.00 0.00 514.00 134.00" xmlns="http://www.w3.org/2000/svg" xmlns:xlink="http://www.w3.org/1999/xlink">
<g id="graph0" class="graph" transform="scale(1 1) rotate(0) translate(4 130)">
<title>Struktury.Arkusz.getLiczbęWierszy</title>
<!-- Node1 -->
<g id="node1" class="node">
<title>Node1</title>
<g id="a_node1"><a xlink:title=" ">
<polygon fill="#999999" stroke="#666666" points="506,-78 370,-78 370,-48 506,-48 506,-78"/>
<text text-anchor="start" x="378" y="-66" font-family="Helvetica,sans-Serif" font-size="10.00">Struktury.Arkusz.getLiczbę</text>
<text text-anchor="middle" x="438" y="-55" font-family="Helvetica,sans-Serif" font-size="10.00">Wierszy</text>
</a>
</g>
</g>
<!-- Node2 -->
<g id="node2" class="node">
<title>Node2</title>
<g id="a_node2"><a xlink:href="classStruktury_1_1Interpreter.html#abfa2bbe5356269e3d3218957bd43ad81" target="_top" xlink:title=" ">
<polygon fill="white" stroke="#666666" points="334,-126 188,-126 188,-96 334,-96 334,-126"/>
<text text-anchor="start" x="196" y="-114" font-family="Helvetica,sans-Serif" font-size="10.00">Struktury.Interpreter.Przepisz</text>
<text text-anchor="middle" x="261" y="-103" font-family="Helvetica,sans-Serif" font-size="10.00">Arkusz</text>
</a>
</g>
</g>
<!-- Node1&#45;&gt;Node2 -->
<g id="edge1" class="edge">
<title>Node1&#45;&gt;Node2</title>
<path fill="none" stroke="#63b8ff" d="M372.4,-80.72C354.1,-85.74 334.35,-91.15 316.7,-96"/>
<polygon fill="#63b8ff" stroke="#63b8ff" points="373.39,-84.08 382.11,-78.06 371.54,-77.33 373.39,-84.08"/>
</g>
<!-- Node4 -->
<g id="node4" class="node">
<title>Node4</title>
<g id="a_node4"><a xlink:href="classStruktury_1_1Interpreter.html#a3b1b460c28f4b8e6b25366069755ce0d" target="_top" xlink:title=" ">
<polygon fill="white" stroke="#666666" points="329.5,-78 192.5,-78 192.5,-48 329.5,-48 329.5,-78"/>
<text text-anchor="start" x="200.5" y="-66" font-family="Helvetica,sans-Serif" font-size="10.00">Struktury.Interpreter.Znajdź</text>
<text text-anchor="middle" x="261" y="-55" font-family="Helvetica,sans-Serif" font-size="10.00">AdresySłowaTakt</text>
</a>
</g>
</g>
<!-- Node1&#45;&gt;Node4 -->
<g id="edge3" class="edge">
<title>Node1&#45;&gt;Node4</title>
<path fill="none" stroke="#63b8ff" d="M359.83,-63C349.75,-63 339.47,-63 329.56,-63"/>
<polygon fill="#63b8ff" stroke="#63b8ff" points="359.84,-66.5 369.84,-63 359.84,-59.5 359.84,-66.5"/>
</g>
<!-- Node5 -->
<g id="node5" class="node">
<title>Node5</title>
<g id="a_node5"><a xlink:href="classStruktury_1_1Interpreter.html#a516c744ba909899cdea81e38deeb4526" target="_top" xlink:title=" ">
<polygon fill="white" stroke="#666666" points="329.5,-30 192.5,-30 192.5,0 329.5,0 329.5,-30"/>
<text text-anchor="start" x="200.5" y="-18" font-family="Helvetica,sans-Serif" font-size="10.00">Struktury.Interpreter.Znajdź</text>
<text text-anchor="middle" x="261" y="-7" font-family="Helvetica,sans-Serif" font-size="10.00">Systemy</text>
</a>
</g>
</g>
<!-- Node1&#45;&gt;Node5 -->
<g id="edge5" class="edge">
<title>Node1&#45;&gt;Node5</title>
<path fill="none" stroke="#63b8ff" d="M372.4,-45.28C354.1,-40.26 334.35,-34.85 316.7,-30"/>
<polygon fill="#63b8ff" stroke="#63b8ff" points="371.54,-48.67 382.11,-47.94 373.39,-41.92 371.54,-48.67"/>
</g>
<!-- Node3 -->
<g id="node3" class="node">
<title>Node3</title>
<g id="a_node3"><a xlink:href="classStruktury_1_1Interpreter.html#a4c2426a0220ccfab53ef88b4ef68e5ab" target="_top" xlink:title=" ">
<polygon fill="white" stroke="#666666" points="152,-72.5 0,-72.5 0,-53.5 152,-53.5 152,-72.5"/>
<text text-anchor="middle" x="76" y="-60.5" font-family="Helvetica,sans-Serif" font-size="10.00">Struktury.Interpreter.Interpreter</text>
</a>
</g>
</g>
<!-- Node2&#45;&gt;Node3 -->
<g id="edge2" class="edge">
<title>Node2&#45;&gt;Node3</title>
<path fill="none" stroke="#63b8ff" d="M192.86,-93.39C166.02,-86.35 136.15,-78.51 113.46,-72.56"/>
<polygon fill="#63b8ff" stroke="#63b8ff" points="192.04,-96.79 202.6,-95.94 193.81,-90.02 192.04,-96.79"/>
</g>
<!-- Node4&#45;&gt;Node3 -->
<g id="edge4" class="edge">
<title>Node4&#45;&gt;Node3</title>
<path fill="none" stroke="#63b8ff" d="M182.1,-63C172.14,-63 161.96,-63 152.05,-63"/>
<polygon fill="#63b8ff" stroke="#63b8ff" points="182.38,-66.5 192.38,-63 182.38,-59.5 182.38,-66.5"/>
</g>
<!-- Node5&#45;&gt;Node3 -->
<g id="edge6" class="edge">
<title>Node5&#45;&gt;Node3</title>
<path fill="none" stroke="#63b8ff" d="M192.86,-32.61C166.02,-39.65 136.15,-47.49 113.46,-53.44"/>
<polygon fill="#63b8ff" stroke="#63b8ff" points="193.81,-35.98 202.6,-30.06 192.04,-29.21 193.81,-35.98"/>
</g>
</g>
</svg>
