<?xml version="1.0" encoding="UTF-8" standalone="no"?>
<!DOCTYPE svg PUBLIC "-//W3C//DTD SVG 1.1//EN"
 "http://www.w3.org/Graphics/SVG/1.1/DTD/svg11.dtd">
<!-- Generated by graphviz version 2.49.3 (0)
 -->
<!-- Title: ListaPodobienstw.ListaP.getLiczbęElementów Pages: 1 -->
<svg width="483pt" height="56pt"
 viewBox="0.00 0.00 483.00 56.00" xmlns="http://www.w3.org/2000/svg" xmlns:xlink="http://www.w3.org/1999/xlink">
<g id="graph0" class="graph" transform="scale(1 1) rotate(0) translate(4 52)">
<title>ListaPodobienstw.ListaP.getLiczbęElementów</title>
<!-- Node1 -->
<g id="node1" class="node">
<title>Node1</title>
<g id="a_node1"><a xlink:title=" ">
<polygon fill="#999999" stroke="#666666" points="139,-30 0,-30 0,0 139,0 139,-30"/>
<text text-anchor="start" x="8" y="-18" font-family="Helvetica,sans-Serif" font-size="10.00">ListaPodobienstw.ListaP.get</text>
<text text-anchor="middle" x="69.5" y="-7" font-family="Helvetica,sans-Serif" font-size="10.00">LiczbęElementów</text>
</a>
</g>
</g>
<!-- Node2 -->
<g id="node2" class="node">
<title>Node2</title>
<g id="a_node2"><a xlink:href="classListaPodobienstw_1_1ElementListy.html#a91231c7edb543860abbaeaa474f6083e" target="_top" xlink:title=" ">
<polygon fill="white" stroke="#666666" points="307,-30 175,-30 175,0 307,0 307,-30"/>
<text text-anchor="start" x="183" y="-18" font-family="Helvetica,sans-Serif" font-size="10.00">ListaPodobienstw.Element</text>
<text text-anchor="middle" x="241" y="-7" font-family="Helvetica,sans-Serif" font-size="10.00">Listy.IleElementów</text>
</a>
</g>
</g>
<!-- Node1&#45;&gt;Node2 -->
<g id="edge1" class="edge">
<title>Node1&#45;&gt;Node2</title>
<path fill="none" stroke="#63b8ff" d="M139.44,-15C147.78,-15 156.33,-15 164.76,-15"/>
<polygon fill="#63b8ff" stroke="#63b8ff" points="164.95,-18.5 174.95,-15 164.95,-11.5 164.95,-18.5"/>
</g>
<!-- Node3 -->
<g id="node3" class="node">
<title>Node3</title>
<g id="a_node3"><a xlink:href="classListaPodobienstw_1_1ElementListy.html#a15491dd7e9fd404e017a02adb005f296" target="_top" xlink:title=" ">
<polygon fill="white" stroke="#666666" points="475,-30 343,-30 343,0 475,0 475,-30"/>
<text text-anchor="start" x="351" y="-18" font-family="Helvetica,sans-Serif" font-size="10.00">ListaPodobienstw.Element</text>
<text text-anchor="middle" x="409" y="-7" font-family="Helvetica,sans-Serif" font-size="10.00">Listy.PoliczElementy</text>
</a>
</g>
</g>
<!-- Node2&#45;&gt;Node3 -->
<g id="edge2" class="edge">
<title>Node2&#45;&gt;Node3</title>
<path fill="none" stroke="#63b8ff" d="M307.13,-15C315.46,-15 324.04,-15 332.52,-15"/>
<polygon fill="#63b8ff" stroke="#63b8ff" points="332.78,-18.5 342.78,-15 332.78,-11.5 332.78,-18.5"/>
</g>
<!-- Node3&#45;&gt;Node3 -->
<g id="edge3" class="edge">
<title>Node3&#45;&gt;Node3</title>
<path fill="none" stroke="#63b8ff" d="M379.47,-30.28C372.91,-39.41 382.75,-48 409,-48 424.59,-48 434.39,-44.97 438.41,-40.6"/>
<polygon fill="#63b8ff" stroke="#63b8ff" points="441.91,-40.32 438.53,-30.28 434.91,-40.23 441.91,-40.32"/>
</g>
</g>
</svg>
