<?xml version="1.0" encoding="UTF-8" standalone="no"?>
<!DOCTYPE svg PUBLIC "-//W3C//DTD SVG 1.1//EN"
 "http://www.w3.org/Graphics/SVG/1.1/DTD/svg11.dtd">
<!-- Generated by graphviz version 2.49.3 (0)
 -->
<!-- Title: ListaPodobienstw.ElementListy.getTablicę Pages: 1 -->
<svg width="331pt" height="122pt"
 viewBox="0.00 0.00 331.00 122.00" xmlns="http://www.w3.org/2000/svg" xmlns:xlink="http://www.w3.org/1999/xlink">
<g id="graph0" class="graph" transform="scale(1 1) rotate(0) translate(4 118)">
<title>ListaPodobienstw.ElementListy.getTablicę</title>
<!-- Node1 -->
<g id="node1" class="node">
<title>Node1</title>
<g id="a_node1"><a xlink:title=" ">
<polygon fill="#999999" stroke="#666666" points="132,-63 0,-63 0,-33 132,-33 132,-63"/>
<text text-anchor="start" x="8" y="-51" font-family="Helvetica,sans-Serif" font-size="10.00">ListaPodobienstw.Element</text>
<text text-anchor="middle" x="66" y="-40" font-family="Helvetica,sans-Serif" font-size="10.00">Listy.getTablicę</text>
</a>
</g>
</g>
<!-- Node2 -->
<g id="node2" class="node">
<title>Node2</title>
<g id="a_node2"><a xlink:href="classListaPodobienstw_1_1ElementListy.html#a15491dd7e9fd404e017a02adb005f296" target="_top" xlink:title=" ">
<polygon fill="white" stroke="#666666" points="311.5,-96 179.5,-96 179.5,-66 311.5,-66 311.5,-96"/>
<text text-anchor="start" x="187.5" y="-84" font-family="Helvetica,sans-Serif" font-size="10.00">ListaPodobienstw.Element</text>
<text text-anchor="middle" x="245.5" y="-73" font-family="Helvetica,sans-Serif" font-size="10.00">Listy.PoliczElementy</text>
</a>
</g>
</g>
<!-- Node1&#45;&gt;Node2 -->
<g id="edge1" class="edge">
<title>Node1&#45;&gt;Node2</title>
<path fill="none" stroke="#63b8ff" d="M132.09,-60.1C144.27,-62.36 157.09,-64.75 169.54,-67.06"/>
<polygon fill="#63b8ff" stroke="#63b8ff" points="168.95,-70.51 179.42,-68.9 170.23,-63.63 168.95,-70.51"/>
</g>
<!-- Node3 -->
<g id="node3" class="node">
<title>Node3</title>
<g id="a_node3"><a xlink:href="classListaPodobienstw_1_1ElementListy.html#a84aff532db3f0167eeff2b7822b7888e" target="_top" xlink:title=" ">
<polygon fill="white" stroke="#666666" points="323,-30 168,-30 168,0 323,0 323,-30"/>
<text text-anchor="start" x="176" y="-18" font-family="Helvetica,sans-Serif" font-size="10.00">ListaPodobienstw.Element</text>
<text text-anchor="middle" x="245.5" y="-7" font-family="Helvetica,sans-Serif" font-size="10.00">Listy.PrzepiszObiektyDoTablicy</text>
</a>
</g>
</g>
<!-- Node1&#45;&gt;Node3 -->
<g id="edge3" class="edge">
<title>Node1&#45;&gt;Node3</title>
<path fill="none" stroke="#63b8ff" d="M132.09,-35.9C140.57,-34.32 149.36,-32.69 158.13,-31.06"/>
<polygon fill="#63b8ff" stroke="#63b8ff" points="158.8,-34.49 167.99,-29.22 157.52,-27.61 158.8,-34.49"/>
</g>
<!-- Node2&#45;&gt;Node2 -->
<g id="edge2" class="edge">
<title>Node2&#45;&gt;Node2</title>
<path fill="none" stroke="#63b8ff" d="M214.21,-96.28C207.26,-105.41 217.69,-114 245.5,-114 262.01,-114 272.4,-110.97 276.66,-106.6"/>
<polygon fill="#63b8ff" stroke="#63b8ff" points="280.16,-106.32 276.79,-96.28 273.16,-106.23 280.16,-106.32"/>
</g>
<!-- Node3&#45;&gt;Node3 -->
<g id="edge4" class="edge">
<title>Node3&#45;&gt;Node3</title>
<path fill="none" stroke="#63b8ff" d="M214.21,-30.28C207.26,-39.41 217.69,-48 245.5,-48 262.01,-48 272.4,-44.97 276.66,-40.6"/>
<polygon fill="#63b8ff" stroke="#63b8ff" points="280.16,-40.32 276.79,-30.28 273.16,-40.23 280.16,-40.32"/>
</g>
</g>
</svg>
