<?xml version="1.0" encoding="UTF-8" standalone="no"?>
<!DOCTYPE svg PUBLIC "-//W3C//DTD SVG 1.1//EN"
 "http://www.w3.org/Graphics/SVG/1.1/DTD/svg11.dtd">
<!-- Generated by graphviz version 2.49.3 (0)
 -->
<!-- Title: Struktury.SystemGłos.SystemGłos Pages: 1 -->
<svg width="510pt" height="38pt"
 viewBox="0.00 0.00 510.00 38.00" xmlns="http://www.w3.org/2000/svg" xmlns:xlink="http://www.w3.org/1999/xlink">
<g id="graph0" class="graph" transform="scale(1 1) rotate(0) translate(4 34)">
<title>Struktury.SystemGłos.SystemGłos</title>
<!-- Node1 -->
<g id="node1" class="node">
<title>Node1</title>
<g id="a_node1"><a xlink:title=" ">
<polygon fill="#999999" stroke="#666666" points="150,-30 0,-30 0,0 150,0 150,-30"/>
<text text-anchor="start" x="8" y="-18" font-family="Helvetica,sans-Serif" font-size="10.00">Struktury.SystemGłos.System</text>
<text text-anchor="middle" x="75" y="-7" font-family="Helvetica,sans-Serif" font-size="10.00">Głos</text>
</a>
</g>
</g>
<!-- Node2 -->
<g id="node2" class="node">
<title>Node2</title>
<g id="a_node2"><a xlink:href="classStruktury_1_1SystemG_xC5_x82os.html#a153c509cbfecd926d3698c39d165cb74" target="_top" xlink:title=" ">
<polygon fill="white" stroke="#666666" points="332,-30 186,-30 186,0 332,0 332,-30"/>
<text text-anchor="start" x="194" y="-18" font-family="Helvetica,sans-Serif" font-size="10.00">Struktury.SystemGłos.Wylicz</text>
<text text-anchor="middle" x="259" y="-7" font-family="Helvetica,sans-Serif" font-size="10.00">Numer</text>
</a>
</g>
</g>
<!-- Node1&#45;&gt;Node2 -->
<g id="edge1" class="edge">
<title>Node1&#45;&gt;Node2</title>
<path fill="none" stroke="#63b8ff" d="M150.03,-15C158.51,-15 167.21,-15 175.79,-15"/>
<polygon fill="#63b8ff" stroke="#63b8ff" points="175.81,-18.5 185.81,-15 175.81,-11.5 175.81,-18.5"/>
</g>
<!-- Node3 -->
<g id="node3" class="node">
<title>Node3</title>
<g id="a_node3"><a xlink:href="classStruktury_1_1SystemG_xC5_x82os.html#a60e4f3a5508b5bb8ef95db68dae93add" target="_top" xlink:title=" ">
<polygon fill="white" stroke="#666666" points="502,-30 368,-30 368,0 502,0 502,-30"/>
<text text-anchor="start" x="376" y="-18" font-family="Helvetica,sans-Serif" font-size="10.00">Struktury.SystemGłos.Czy</text>
<text text-anchor="middle" x="435" y="-7" font-family="Helvetica,sans-Serif" font-size="10.00">System</text>
</a>
</g>
</g>
<!-- Node2&#45;&gt;Node3 -->
<g id="edge2" class="edge">
<title>Node2&#45;&gt;Node3</title>
<path fill="none" stroke="#63b8ff" d="M332.03,-15C340.47,-15 349.11,-15 357.6,-15"/>
<polygon fill="#63b8ff" stroke="#63b8ff" points="357.88,-18.5 367.88,-15 357.88,-11.5 357.88,-18.5"/>
</g>
</g>
</svg>
