<?xml version="1.0" encoding="UTF-8" standalone="no"?>
<!DOCTYPE svg PUBLIC "-//W3C//DTD SVG 1.1//EN"
 "http://www.w3.org/Graphics/SVG/1.1/DTD/svg11.dtd">
<!-- Generated by graphviz version 2.49.3 (0)
 -->
<!-- Title: porownania.GłówneOknoProgramu Pages: 1 -->
<svg width="1379pt" height="765pt"
 viewBox="0.00 0.00 1378.50 765.00" xmlns="http://www.w3.org/2000/svg" xmlns:xlink="http://www.w3.org/1999/xlink">
<g id="graph0" class="graph" transform="scale(1 1) rotate(0) translate(4 761)">
<title>porownania.GłówneOknoProgramu</title>
<!-- Node1 -->
<g id="node1" class="node">
<title>Node1</title>
<g id="a_node1"><a xlink:title=" ">
<polygon fill="#999999" stroke="#666666" points="666.5,-470 482.5,-470 482.5,0 666.5,0 666.5,-470"/>
<text text-anchor="middle" x="574.5" y="-458" font-family="Helvetica,sans-Serif" font-size="10.00">{porownania.GłówneOknoProgramu</text>
<text text-anchor="start" x="490.5" y="-447" font-family="Helvetica,sans-Serif" font-size="10.00">|&#45; TablicaPlikówCSV</text>
<text text-anchor="start" x="490.5" y="-436" font-family="Helvetica,sans-Serif" font-size="10.00">&#45; NazwaPlikuWynikowegoDlaWalidacji</text>
<text text-anchor="start" x="490.5" y="-425" font-family="Helvetica,sans-Serif" font-size="10.00">&#45; NazwaBieżącegoKataloguCSV</text>
<text text-anchor="start" x="490.5" y="-414" font-family="Helvetica,sans-Serif" font-size="10.00">&#45; NazwaBieżącegoKatalogu</text>
<text text-anchor="start" x="490.5" y="-403" font-family="Helvetica,sans-Serif" font-size="10.00">Walidacji</text>
<text text-anchor="start" x="490.5" y="-392" font-family="Helvetica,sans-Serif" font-size="10.00">&#45; NazwaPlikuWynikowego</text>
<text text-anchor="start" x="490.5" y="-381" font-family="Helvetica,sans-Serif" font-size="10.00">&#45; NazwaBieżącegoKatalogu</text>
<text text-anchor="start" x="490.5" y="-370" font-family="Helvetica,sans-Serif" font-size="10.00">Wynikowego</text>
<text text-anchor="start" x="490.5" y="-359" font-family="Helvetica,sans-Serif" font-size="10.00">&#45; GłównyPanelOkna</text>
<text text-anchor="start" x="490.5" y="-348" font-family="Helvetica,sans-Serif" font-size="10.00">&#45; KatalogCSVMenu</text>
<text text-anchor="start" x="490.5" y="-337" font-family="Helvetica,sans-Serif" font-size="10.00">&#45; KoniecMenu</text>
<text text-anchor="start" x="490.5" y="-326" font-family="Helvetica,sans-Serif" font-size="10.00">&#45; MenuProgramu</text>
<text text-anchor="start" x="490.5" y="-315" font-family="Helvetica,sans-Serif" font-size="10.00">&#45; NazwaWynikiAnalizyPlikMenu</text>
<text text-anchor="start" x="490.5" y="-304" font-family="Helvetica,sans-Serif" font-size="10.00">&#45; PlikWalidacjaMenu</text>
<text text-anchor="start" x="490.5" y="-293" font-family="Helvetica,sans-Serif" font-size="10.00">&#45; PojedynczyPllkCSVMenu</text>
<text text-anchor="start" x="490.5" y="-282" font-family="Helvetica,sans-Serif" font-size="10.00">&#45; WalidacjaMenu</text>
<text text-anchor="start" x="490.5" y="-271" font-family="Helvetica,sans-Serif" font-size="10.00">&#45; WybórKodowaniaList</text>
<text text-anchor="start" x="490.5" y="-260" font-family="Helvetica,sans-Serif" font-size="10.00">&#45; jMenuItem1</text>
<text text-anchor="start" x="490.5" y="-249" font-family="Helvetica,sans-Serif" font-size="10.00">&#45; jScrollPane1</text>
<text text-anchor="start" x="490.5" y="-238" font-family="Helvetica,sans-Serif" font-size="10.00">&#45; jScrollPane2</text>
<text text-anchor="start" x="490.5" y="-227" font-family="Helvetica,sans-Serif" font-size="10.00">&#45; jSeparator1</text>
<text text-anchor="start" x="490.5" y="-216" font-family="Helvetica,sans-Serif" font-size="10.00">|+ GłówneOknoProgramu()</text>
<text text-anchor="start" x="490.5" y="-205" font-family="Helvetica,sans-Serif" font-size="10.00">&#45; getKodowanieZnakówZMenu()</text>
<text text-anchor="start" x="490.5" y="-194" font-family="Helvetica,sans-Serif" font-size="10.00">&#45; InicjalizacjaWstępnaMenu()</text>
<text text-anchor="start" x="490.5" y="-183" font-family="Helvetica,sans-Serif" font-size="10.00">&#45; InicjalizacjaOkienPlików()</text>
<text text-anchor="start" x="490.5" y="-172" font-family="Helvetica,sans-Serif" font-size="10.00">&#45; WczytajKatalogCSV()</text>
<text text-anchor="start" x="490.5" y="-161" font-family="Helvetica,sans-Serif" font-size="10.00">&#45; WczytajPojedynczyPlikCSV()</text>
<text text-anchor="start" x="490.5" y="-150" font-family="Helvetica,sans-Serif" font-size="10.00">&#45; WczytajPlikDoZapisuWalidacji()</text>
<text text-anchor="start" x="490.5" y="-139" font-family="Helvetica,sans-Serif" font-size="10.00">&#45; PodajPlikWynikowy()</text>
<text text-anchor="start" x="490.5" y="-128" font-family="Helvetica,sans-Serif" font-size="10.00">&#45; SterowanieWalidacją()</text>
<text text-anchor="start" x="490.5" y="-117" font-family="Helvetica,sans-Serif" font-size="10.00">&#45; WalidacjaPlików()</text>
<text text-anchor="start" x="490.5" y="-106" font-family="Helvetica,sans-Serif" font-size="10.00">&#45; PokażTablicęPlików()</text>
<text text-anchor="start" x="490.5" y="-95" font-family="Helvetica,sans-Serif" font-size="10.00">&#45; AnalizaPlików()</text>
<text text-anchor="start" x="490.5" y="-84" font-family="Helvetica,sans-Serif" font-size="10.00">&#45; getLiczbę()</text>
<text text-anchor="start" x="490.5" y="-73" font-family="Helvetica,sans-Serif" font-size="10.00">&#45; initComponents()</text>
<text text-anchor="start" x="490.5" y="-62" font-family="Helvetica,sans-Serif" font-size="10.00">&#45; PojedynczyPllkCSVMenuAction</text>
<text text-anchor="start" x="490.5" y="-51" font-family="Helvetica,sans-Serif" font-size="10.00">Performed()</text>
<text text-anchor="start" x="490.5" y="-40" font-family="Helvetica,sans-Serif" font-size="10.00">&#45; KatalogCSVMenuActionPerformed()</text>
<text text-anchor="start" x="490.5" y="-29" font-family="Helvetica,sans-Serif" font-size="10.00">&#45; PlikWalidacjaMenuActionPerformed()</text>
<text text-anchor="start" x="490.5" y="-18" font-family="Helvetica,sans-Serif" font-size="10.00">i 9 więcej...</text>
<text text-anchor="middle" x="574.5" y="-7" font-family="Helvetica,sans-Serif" font-size="10.00">}</text>
</a>
</g>
</g>
<!-- Node2 -->
<g id="node2" class="node">
<title>Node2</title>
<g id="a_node2"><a xlink:title=" ">
<polygon fill="white" stroke="#666666" points="113,-662.5 0,-662.5 0,-632.5 113,-632.5 113,-662.5"/>
<text text-anchor="middle" x="56.5" y="-650.5" font-family="Helvetica,sans-Serif" font-size="10.00">{javax::swing::JFrame</text>
<text text-anchor="middle" x="56.5" y="-639.5" font-family="Helvetica,sans-Serif" font-size="10.00">||}</text>
</a>
</g>
</g>
<!-- Node2&#45;&gt;Node1 -->
<g id="edge1" class="edge">
<title>Node2&#45;&gt;Node1</title>
<path fill="none" stroke="#63b8ff" d="M66.7,-622.89C81.95,-589.64 113.39,-528.57 154.5,-488 251.35,-392.44 391.2,-317.89 482.47,-275.42"/>
<polygon fill="none" stroke="#63b8ff" points="63.39,-621.7 62.49,-632.26 69.78,-624.57 63.39,-621.7"/>
</g>
<!-- Node3 -->
<g id="node3" class="node">
<title>Node3</title>
<g id="a_node3"><a xlink:title=" ">
<polygon fill="white" stroke="#666666" points="208,-662.5 131,-662.5 131,-632.5 208,-632.5 208,-662.5"/>
<text text-anchor="middle" x="169.5" y="-650.5" font-family="Helvetica,sans-Serif" font-size="10.00">{JFileChooser</text>
<text text-anchor="middle" x="169.5" y="-639.5" font-family="Helvetica,sans-Serif" font-size="10.00">||}</text>
</a>
</g>
</g>
<!-- Node3&#45;&gt;Node1 -->
<g id="edge2" class="edge">
<title>Node3&#45;&gt;Node1</title>
<path fill="none" stroke="#404040" d="M165.89,-632.17C159.35,-602.83 148.56,-534.77 175.5,-488 239.85,-376.29 375.84,-306.7 471.09,-269.66"/>
<polygon fill="none" stroke="#404040" points="471.29,-269.58 475.46,-263.7 482.5,-265.3 478.32,-271.18 471.29,-269.58"/>
<text text-anchor="start" x="175.5" y="-557" font-family="Helvetica,sans-Serif" font-size="10.00"> &#45;WybórKatalogówZPlikami</text>
<text text-anchor="middle" x="251" y="-546" font-family="Helvetica,sans-Serif" font-size="10.00">CSV</text>
<text text-anchor="middle" x="251" y="-535" font-family="Helvetica,sans-Serif" font-size="10.00">&#45;WybórPlikuCSV</text>
<text text-anchor="middle" x="251" y="-524" font-family="Helvetica,sans-Serif" font-size="10.00">&#45;WybórPlikuWynikowegoAnalizy</text>
<text text-anchor="middle" x="251" y="-513" font-family="Helvetica,sans-Serif" font-size="10.00">&#45;WybórPlikuWynikowegoWalidacja</text>
</g>
<!-- Node4 -->
<g id="node4" class="node">
<title>Node4</title>
<g id="a_node4"><a xlink:href="classporownania_1_1FiltrKatalog_xC3_xB3w.html" target="_top" xlink:title=" ">
<polygon fill="white" stroke="#666666" points="360.5,-673.5 226.5,-673.5 226.5,-621.5 360.5,-621.5 360.5,-673.5"/>
<text text-anchor="middle" x="293.5" y="-661.5" font-family="Helvetica,sans-Serif" font-size="10.00">{porownania.FiltrKatalogów</text>
<text text-anchor="start" x="234.5" y="-650.5" font-family="Helvetica,sans-Serif" font-size="10.00">||+ accept()</text>
<text text-anchor="start" x="234.5" y="-639.5" font-family="Helvetica,sans-Serif" font-size="10.00">+ getDescription()</text>
<text text-anchor="middle" x="293.5" y="-628.5" font-family="Helvetica,sans-Serif" font-size="10.00">}</text>
</a>
</g>
</g>
<!-- Node4&#45;&gt;Node1 -->
<g id="edge3" class="edge">
<title>Node4&#45;&gt;Node1</title>
<path fill="none" stroke="#404040" d="M308.43,-621.46C327.38,-589.94 361.36,-534.31 392.5,-488 418.55,-449.25 447.78,-407.91 475.07,-370.16"/>
<polygon fill="none" stroke="#404040" points="475.29,-369.84 475.57,-362.64 482.33,-360.12 482.05,-367.33 475.29,-369.84"/>
<text text-anchor="middle" x="407.5" y="-535" font-family="Helvetica,sans-Serif" font-size="10.00"> &#45;FiltrK</text>
</g>
<!-- Node5 -->
<g id="node5" class="node">
<title>Node5</title>
<g id="a_node5"><a xlink:title=" ">
<polygon fill="white" stroke="#666666" points="393,-757 336,-757 336,-727 393,-727 393,-757"/>
<text text-anchor="middle" x="364.5" y="-745" font-family="Helvetica,sans-Serif" font-size="10.00">{FileFilter</text>
<text text-anchor="middle" x="364.5" y="-734" font-family="Helvetica,sans-Serif" font-size="10.00">||}</text>
</a>
</g>
</g>
<!-- Node5&#45;&gt;Node4 -->
<g id="edge4" class="edge">
<title>Node5&#45;&gt;Node4</title>
<path fill="none" stroke="#63b8ff" d="M347.62,-719.01C337.13,-705.34 323.6,-687.72 312.7,-673.51"/>
<polygon fill="none" stroke="#63b8ff" points="344.85,-721.15 353.72,-726.95 350.4,-716.89 344.85,-721.15"/>
</g>
<!-- Node6 -->
<g id="node6" class="node">
<title>Node6</title>
<g id="a_node6"><a xlink:href="classporownania_1_1FiltrPlik_xC3_xB3w.html" target="_top" xlink:title=" ">
<polygon fill="white" stroke="#666666" points="496,-690 379,-690 379,-605 496,-605 496,-690"/>
<text text-anchor="middle" x="437.5" y="-678" font-family="Helvetica,sans-Serif" font-size="10.00">{porownania.FiltrPlików</text>
<text text-anchor="start" x="387" y="-667" font-family="Helvetica,sans-Serif" font-size="10.00">|&#45; Rozszerzenie</text>
<text text-anchor="start" x="387" y="-656" font-family="Helvetica,sans-Serif" font-size="10.00">&#45; OpisPliku</text>
<text text-anchor="start" x="387" y="-645" font-family="Helvetica,sans-Serif" font-size="10.00">|+ FiltrPlików()</text>
<text text-anchor="start" x="387" y="-634" font-family="Helvetica,sans-Serif" font-size="10.00">+ accept()</text>
<text text-anchor="start" x="387" y="-623" font-family="Helvetica,sans-Serif" font-size="10.00">+ getDescription()</text>
<text text-anchor="middle" x="437.5" y="-612" font-family="Helvetica,sans-Serif" font-size="10.00">}</text>
</a>
</g>
</g>
<!-- Node5&#45;&gt;Node6 -->
<g id="edge6" class="edge">
<title>Node5&#45;&gt;Node6</title>
<path fill="none" stroke="#63b8ff" d="M381.9,-718.95C388.68,-710.36 396.68,-700.22 404.47,-690.35"/>
<polygon fill="none" stroke="#63b8ff" points="379.03,-716.93 375.59,-726.95 384.53,-721.27 379.03,-716.93"/>
</g>
<!-- Node6&#45;&gt;Node1 -->
<g id="edge5" class="edge">
<title>Node6&#45;&gt;Node1</title>
<path fill="none" stroke="#404040" d="M430.65,-604.73C426.78,-572.35 424.49,-526.63 434.5,-488 443.76,-452.26 459.31,-416.2 476.75,-382.96"/>
<polygon fill="none" stroke="#404040" points="476.81,-382.85 476.12,-375.67 482.48,-372.27 483.17,-379.45 476.81,-382.85"/>
<text text-anchor="middle" x="458.5" y="-546" font-family="Helvetica,sans-Serif" font-size="10.00"> &#45;FiltrCSV</text>
<text text-anchor="middle" x="458.5" y="-535" font-family="Helvetica,sans-Serif" font-size="10.00">&#45;FiltrTXT</text>
<text text-anchor="middle" x="458.5" y="-524" font-family="Helvetica,sans-Serif" font-size="10.00">&#45;FiltrWynik</text>
</g>
<!-- Node7 -->
<g id="node7" class="node">
<title>Node7</title>
<g id="a_node7"><a xlink:title=" ">
<polygon fill="white" stroke="#666666" points="585,-662.5 514,-662.5 514,-632.5 585,-632.5 585,-662.5"/>
<text text-anchor="middle" x="549.5" y="-650.5" font-family="Helvetica,sans-Serif" font-size="10.00">{JCheckBox</text>
<text text-anchor="middle" x="549.5" y="-639.5" font-family="Helvetica,sans-Serif" font-size="10.00">||}</text>
</a>
</g>
</g>
<!-- Node7&#45;&gt;Node1 -->
<g id="edge7" class="edge">
<title>Node7&#45;&gt;Node1</title>
<path fill="none" stroke="#404040" d="M534.38,-632.33C519.86,-618.31 499.54,-597.48 495.5,-587 479.65,-545.95 488.84,-531.49 495.5,-488 495.8,-486.07 496.1,-484.13 496.42,-482.18"/>
<polygon fill="none" stroke="#404040" points="496.45,-482.01 493.55,-475.41 498.53,-470.19 501.43,-476.79 496.45,-482.01"/>
<text text-anchor="middle" x="564.5" y="-551.5" font-family="Helvetica,sans-Serif" font-size="10.00"> &#45;CzySzukaćMotywuCheckBox</text>
<text text-anchor="middle" x="564.5" y="-540.5" font-family="Helvetica,sans-Serif" font-size="10.00">&#45;KrabCheckBox</text>
<text text-anchor="middle" x="564.5" y="-529.5" font-family="Helvetica,sans-Serif" font-size="10.00">&#45;PojedynczeCheckBox</text>
<text text-anchor="middle" x="564.5" y="-518.5" font-family="Helvetica,sans-Serif" font-size="10.00">&#45;TylkoJednąDługośćCheckBox</text>
</g>
<!-- Node8 -->
<g id="node8" class="node">
<title>Node8</title>
<g id="a_node8"><a xlink:title=" ">
<polygon fill="white" stroke="#666666" points="695,-662.5 616,-662.5 616,-632.5 695,-632.5 695,-662.5"/>
<text text-anchor="middle" x="655.5" y="-650.5" font-family="Helvetica,sans-Serif" font-size="10.00">{JProgressBar</text>
<text text-anchor="middle" x="655.5" y="-639.5" font-family="Helvetica,sans-Serif" font-size="10.00">||}</text>
</a>
</g>
</g>
<!-- Node8&#45;&gt;Node1 -->
<g id="edge8" class="edge">
<title>Node8&#45;&gt;Node1</title>
<path fill="none" stroke="#404040" d="M653.99,-632.44C650.91,-604.69 643.36,-540.99 633.5,-488 633.14,-486.08 632.78,-484.15 632.41,-482.22"/>
<polygon fill="none" stroke="#404040" points="632.38,-482.04 627.31,-476.91 630.1,-470.26 635.17,-475.39 632.38,-482.04"/>
<text text-anchor="middle" x="708.5" y="-551.5" font-family="Helvetica,sans-Serif" font-size="10.00"> &#45;IteracjeProgressBar</text>
<text text-anchor="start" x="647.5" y="-540.5" font-family="Helvetica,sans-Serif" font-size="10.00">&#45;PostępObliczeńProgress</text>
<text text-anchor="middle" x="708.5" y="-529.5" font-family="Helvetica,sans-Serif" font-size="10.00">Bar</text>
<text text-anchor="middle" x="708.5" y="-518.5" font-family="Helvetica,sans-Serif" font-size="10.00">&#45;ProgresOgólnyProgressBar</text>
</g>
<!-- Node9 -->
<g id="node9" class="node">
<title>Node9</title>
<g id="a_node9"><a xlink:title=" ">
<polygon fill="white" stroke="#666666" points="824.5,-662.5 776.5,-662.5 776.5,-632.5 824.5,-632.5 824.5,-662.5"/>
<text text-anchor="middle" x="800.5" y="-650.5" font-family="Helvetica,sans-Serif" font-size="10.00">{JLabel</text>
<text text-anchor="middle" x="800.5" y="-639.5" font-family="Helvetica,sans-Serif" font-size="10.00">||}</text>
</a>
</g>
</g>
<!-- Node9&#45;&gt;Node1 -->
<g id="edge9" class="edge">
<title>Node9&#45;&gt;Node1</title>
<path fill="none" stroke="#404040" d="M800.4,-632.26C799.71,-603.66 795.62,-537.73 773.5,-488 749.49,-434.02 711.25,-381.55 674.69,-338.59"/>
<polygon fill="none" stroke="#404040" points="674.51,-338.38 667.56,-336.44 666.67,-329.29 673.62,-331.22 674.51,-338.38"/>
<text text-anchor="middle" x="876.5" y="-579" font-family="Helvetica,sans-Serif" font-size="10.00"> &#45;KodowanieZnkakówLabel</text>
<text text-anchor="middle" x="876.5" y="-568" font-family="Helvetica,sans-Serif" font-size="10.00">&#45;MaksymalnaRóżnicaLabel</text>
<text text-anchor="middle" x="876.5" y="-557" font-family="Helvetica,sans-Serif" font-size="10.00">&#45;MinimalnaLiczbaLabel</text>
<text text-anchor="middle" x="876.5" y="-546" font-family="Helvetica,sans-Serif" font-size="10.00">&#45;MotywDoWyszukaniaJLabel</text>
<text text-anchor="middle" x="876.5" y="-535" font-family="Helvetica,sans-Serif" font-size="10.00">&#45;ProcentIteracjaLabel</text>
<text text-anchor="middle" x="876.5" y="-524" font-family="Helvetica,sans-Serif" font-size="10.00">&#45;ProcentPrzetworzonychPlikówLabel</text>
<text text-anchor="middle" x="876.5" y="-513" font-family="Helvetica,sans-Serif" font-size="10.00">&#45;ProcentWaliacjiLabel</text>
<text text-anchor="middle" x="876.5" y="-502" font-family="Helvetica,sans-Serif" font-size="10.00">&#45;WagaInterwałowaLabel</text>
<text text-anchor="middle" x="876.5" y="-491" font-family="Helvetica,sans-Serif" font-size="10.00">&#45;WagaMetrycznaLabel</text>
</g>
<!-- Node10 -->
<g id="node10" class="node">
<title>Node10</title>
<g id="a_node10"><a xlink:title=" ">
<polygon fill="white" stroke="#666666" points="1016,-662.5 951,-662.5 951,-632.5 1016,-632.5 1016,-662.5"/>
<text text-anchor="middle" x="983.5" y="-650.5" font-family="Helvetica,sans-Serif" font-size="10.00">{JTextField</text>
<text text-anchor="middle" x="983.5" y="-639.5" font-family="Helvetica,sans-Serif" font-size="10.00">||}</text>
</a>
</g>
</g>
<!-- Node10&#45;&gt;Node1 -->
<g id="edge10" class="edge">
<title>Node10&#45;&gt;Node1</title>
<path fill="none" stroke="#404040" d="M982.93,-632.5C981.31,-598.36 975.76,-511.9 960.5,-488 894.14,-384.07 767.84,-313.96 677.79,-274.61"/>
<polygon fill="none" stroke="#404040" points="677.74,-274.59 670.64,-275.89 666.71,-269.84 673.81,-268.54 677.74,-274.59"/>
<text text-anchor="middle" x="1051.5" y="-562.5" font-family="Helvetica,sans-Serif" font-size="10.00"> &#45;KomunikatyTextField</text>
<text text-anchor="middle" x="1051.5" y="-551.5" font-family="Helvetica,sans-Serif" font-size="10.00">&#45;MaksymalnaRóżnicaTextField</text>
<text text-anchor="middle" x="1051.5" y="-540.5" font-family="Helvetica,sans-Serif" font-size="10.00">&#45;MiaraInterwałowaWagaTextField</text>
<text text-anchor="middle" x="1051.5" y="-529.5" font-family="Helvetica,sans-Serif" font-size="10.00">&#45;MiaraMetrycznaWagaTextField</text>
<text text-anchor="middle" x="1051.5" y="-518.5" font-family="Helvetica,sans-Serif" font-size="10.00">&#45;MinimalnaLiczbaTextField</text>
<text text-anchor="middle" x="1051.5" y="-507.5" font-family="Helvetica,sans-Serif" font-size="10.00">&#45;MotywDoSzukaniaTextField</text>
</g>
<!-- Node11 -->
<g id="node11" class="node">
<title>Node11</title>
<g id="a_node11"><a xlink:title=" ">
<polygon fill="white" stroke="#666666" points="1182.5,-662.5 1118.5,-662.5 1118.5,-632.5 1182.5,-632.5 1182.5,-662.5"/>
<text text-anchor="middle" x="1150.5" y="-650.5" font-family="Helvetica,sans-Serif" font-size="10.00">{JTextArea</text>
<text text-anchor="middle" x="1150.5" y="-639.5" font-family="Helvetica,sans-Serif" font-size="10.00">||}</text>
</a>
</g>
</g>
<!-- Node11&#45;&gt;Node1 -->
<g id="edge11" class="edge">
<title>Node11&#45;&gt;Node1</title>
<path fill="none" stroke="#404040" d="M1150.15,-632.35C1149.02,-597.87 1144.52,-510.69 1127.5,-488 1018.55,-342.78 806.22,-278.93 678.7,-252.67"/>
<polygon fill="none" stroke="#404040" points="678.4,-252.61 671.73,-255.35 666.64,-250.25 673.31,-247.51 678.4,-252.61"/>
<text text-anchor="middle" x="1196" y="-535" font-family="Helvetica,sans-Serif" font-size="10.00"> &#45;NazwaPlikuTextArea</text>
</g>
<!-- Node12 -->
<g id="node12" class="node">
<title>Node12</title>
<g id="a_node12"><a xlink:title=" ">
<polygon fill="white" stroke="#666666" points="1297,-662.5 1244,-662.5 1244,-632.5 1297,-632.5 1297,-662.5"/>
<text text-anchor="middle" x="1270.5" y="-650.5" font-family="Helvetica,sans-Serif" font-size="10.00">{JButton</text>
<text text-anchor="middle" x="1270.5" y="-639.5" font-family="Helvetica,sans-Serif" font-size="10.00">||}</text>
</a>
</g>
</g>
<!-- Node12&#45;&gt;Node1 -->
<g id="edge12" class="edge">
<title>Node12&#45;&gt;Node1</title>
<path fill="none" stroke="#404040" d="M1272.92,-632.39C1277.25,-602.27 1282.89,-530.93 1248.5,-488 1107.43,-311.92 829.93,-258.86 678.73,-242.88"/>
<polygon fill="none" stroke="#404040" points="678.67,-242.87 672.29,-246.25 666.73,-241.66 673.1,-238.29 678.67,-242.87"/>
<text text-anchor="middle" x="1323" y="-535" font-family="Helvetica,sans-Serif" font-size="10.00"> &#45;StartObliczeńButton</text>
</g>
</g>
</svg>
