<?xml version="1.0" encoding="UTF-8" standalone="no"?>
<!DOCTYPE svg PUBLIC "-//W3C//DTD SVG 1.1//EN"
 "http://www.w3.org/Graphics/SVG/1.1/DTD/svg11.dtd">
<!-- Generated by graphviz version 2.49.3 (0)
 -->
<!-- Title: ListaPodobienstw.ListaP.Dopisz Pages: 1 -->
<svg width="469pt" height="122pt"
 viewBox="0.00 0.00 469.00 122.00" xmlns="http://www.w3.org/2000/svg" xmlns:xlink="http://www.w3.org/1999/xlink">
<g id="graph0" class="graph" transform="scale(1 1) rotate(0) translate(4 118)">
<title>ListaPodobienstw.ListaP.Dopisz</title>
<!-- Node1 -->
<g id="node1" class="node">
<title>Node1</title>
<g id="a_node1"><a xlink:title=" ">
<polygon fill="#999999" stroke="#666666" points="125,-63 0,-63 0,-33 125,-33 125,-63"/>
<text text-anchor="start" x="8" y="-51" font-family="Helvetica,sans-Serif" font-size="10.00">ListaPodobienstw.ListaP.</text>
<text text-anchor="middle" x="62.5" y="-40" font-family="Helvetica,sans-Serif" font-size="10.00">Dopisz</text>
</a>
</g>
</g>
<!-- Node2 -->
<g id="node2" class="node">
<title>Node2</title>
<g id="a_node2"><a xlink:href="classListaPodobienstw_1_1ElementListy.html#aa7df88c3afa23c0fbbfd3f061764dca0" target="_top" xlink:title=" ">
<polygon fill="white" stroke="#666666" points="293,-63 161,-63 161,-33 293,-33 293,-63"/>
<text text-anchor="start" x="169" y="-51" font-family="Helvetica,sans-Serif" font-size="10.00">ListaPodobienstw.Element</text>
<text text-anchor="middle" x="227" y="-40" font-family="Helvetica,sans-Serif" font-size="10.00">Listy.Dopisz</text>
</a>
</g>
</g>
<!-- Node1&#45;&gt;Node2 -->
<g id="edge1" class="edge">
<title>Node1&#45;&gt;Node2</title>
<path fill="none" stroke="#63b8ff" d="M125.4,-48C133.62,-48 142.13,-48 150.55,-48"/>
<polygon fill="#63b8ff" stroke="#63b8ff" points="150.76,-51.5 160.76,-48 150.76,-44.5 150.76,-51.5"/>
</g>
<!-- Node3 -->
<g id="node3" class="node">
<title>Node3</title>
<g id="a_node3"><a xlink:href="classListaPodobienstw_1_1ElementListy.html#ab25ad4be1f8f348de5070ac2bf8f7742" target="_top" xlink:title=" ">
<polygon fill="white" stroke="#666666" points="461,-96 329,-96 329,-66 461,-66 461,-96"/>
<text text-anchor="start" x="337" y="-84" font-family="Helvetica,sans-Serif" font-size="10.00">ListaPodobienstw.Element</text>
<text text-anchor="middle" x="395" y="-73" font-family="Helvetica,sans-Serif" font-size="10.00">Listy.CzyJest</text>
</a>
</g>
</g>
<!-- Node2&#45;&gt;Node3 -->
<g id="edge2" class="edge">
<title>Node2&#45;&gt;Node3</title>
<path fill="none" stroke="#63b8ff" d="M293.13,-60.95C301.55,-62.62 310.23,-64.35 318.8,-66.05"/>
<polygon fill="#63b8ff" stroke="#63b8ff" points="318.29,-69.52 328.78,-68.04 319.66,-62.65 318.29,-69.52"/>
</g>
<!-- Node4 -->
<g id="node4" class="node">
<title>Node4</title>
<g id="a_node4"><a xlink:href="classListaPodobienstw_1_1ElementListy.html#a5e644fc4a4c638eda2ff3985909f0a65" target="_top" xlink:title=" ">
<polygon fill="white" stroke="#666666" points="461,-30 329,-30 329,0 461,0 461,-30"/>
<text text-anchor="start" x="337" y="-18" font-family="Helvetica,sans-Serif" font-size="10.00">ListaPodobienstw.Element</text>
<text text-anchor="middle" x="395" y="-7" font-family="Helvetica,sans-Serif" font-size="10.00">Listy.DopiszDoKońcaListy</text>
</a>
</g>
</g>
<!-- Node2&#45;&gt;Node4 -->
<g id="edge4" class="edge">
<title>Node2&#45;&gt;Node4</title>
<path fill="none" stroke="#63b8ff" d="M293.13,-35.05C301.55,-33.38 310.23,-31.65 318.8,-29.95"/>
<polygon fill="#63b8ff" stroke="#63b8ff" points="319.66,-33.35 328.78,-27.96 318.29,-26.48 319.66,-33.35"/>
</g>
<!-- Node3&#45;&gt;Node3 -->
<g id="edge3" class="edge">
<title>Node3&#45;&gt;Node3</title>
<path fill="none" stroke="#63b8ff" d="M365.47,-96.28C358.91,-105.41 368.75,-114 395,-114 410.59,-114 420.39,-110.97 424.41,-106.6"/>
<polygon fill="#63b8ff" stroke="#63b8ff" points="427.91,-106.32 424.53,-96.28 420.91,-106.23 427.91,-106.32"/>
</g>
<!-- Node4&#45;&gt;Node4 -->
<g id="edge5" class="edge">
<title>Node4&#45;&gt;Node4</title>
<path fill="none" stroke="#63b8ff" d="M365.47,-30.28C358.91,-39.41 368.75,-48 395,-48 410.59,-48 420.39,-44.97 424.41,-40.6"/>
<polygon fill="#63b8ff" stroke="#63b8ff" points="427.91,-40.32 424.53,-30.28 420.91,-40.23 427.91,-40.32"/>
</g>
</g>
</svg>
