<?xml version="1.0" encoding="UTF-8" standalone="no"?>
<!DOCTYPE svg PUBLIC "-//W3C//DTD SVG 1.1//EN"
 "http://www.w3.org/Graphics/SVG/1.1/DTD/svg11.dtd">
<!-- Generated by graphviz version 2.49.3 (0)
 -->
<!-- Title: Struktury.PlikCSV.WczytajCałyPLik Pages: 1 -->
<svg width="935pt" height="81pt"
 viewBox="0.00 0.00 935.00 81.00" xmlns="http://www.w3.org/2000/svg" xmlns:xlink="http://www.w3.org/1999/xlink">
<g id="graph0" class="graph" transform="scale(1 1) rotate(0) translate(4 77)">
<title>Struktury.PlikCSV.WczytajCałyPLik</title>
<!-- Node1 -->
<g id="node1" class="node">
<title>Node1</title>
<g id="a_node1"><a xlink:title=" ">
<polygon fill="#999999" stroke="#666666" points="134,-51 0,-51 0,-21 134,-21 134,-51"/>
<text text-anchor="start" x="8" y="-39" font-family="Helvetica,sans-Serif" font-size="10.00">Struktury.PlikCSV.Wczytaj</text>
<text text-anchor="middle" x="67" y="-28" font-family="Helvetica,sans-Serif" font-size="10.00">CałyPLik</text>
</a>
</g>
</g>
<!-- Node2 -->
<g id="node2" class="node">
<title>Node2</title>
<g id="a_node2"><a xlink:href="classStruktury_1_1PlikCSV.html#a8997e76c5a473f782c5978ad6ffeeeba" target="_top" xlink:title=" ">
<polygon fill="white" stroke="#666666" points="332,-73 192,-73 192,-43 332,-43 332,-73"/>
<text text-anchor="start" x="200" y="-61" font-family="Helvetica,sans-Serif" font-size="10.00">Struktury.PlikCSV.getKod</text>
<text text-anchor="middle" x="262" y="-50" font-family="Helvetica,sans-Serif" font-size="10.00">TekstowyKodowaniaZnaków</text>
</a>
</g>
</g>
<!-- Node1&#45;&gt;Node2 -->
<g id="edge1" class="edge">
<title>Node1&#45;&gt;Node2</title>
<path fill="none" stroke="#63b8ff" d="M134.15,-43.54C149.46,-45.29 165.9,-47.16 181.7,-48.96"/>
<polygon fill="#63b8ff" stroke="#63b8ff" points="181.65,-52.48 191.98,-50.13 182.44,-45.52 181.65,-52.48"/>
</g>
<!-- Node3 -->
<g id="node3" class="node">
<title>Node3</title>
<g id="a_node3"><a xlink:href="classStruktury_1_1UsuwanieBOM.html#a61ea81daa96a505746289e335f32cbc3" target="_top" xlink:title=" ">
<polygon fill="white" stroke="#666666" points="354,-24.5 170,-24.5 170,-5.5 354,-5.5 354,-24.5"/>
<text text-anchor="middle" x="262" y="-12.5" font-family="Helvetica,sans-Serif" font-size="10.00">Struktury.UsuwanieBOM.KorektaBOM</text>
</a>
</g>
</g>
<!-- Node1&#45;&gt;Node3 -->
<g id="edge2" class="edge">
<title>Node1&#45;&gt;Node3</title>
<path fill="none" stroke="#63b8ff" d="M134.15,-28.8C143.54,-27.78 153.37,-26.71 163.21,-25.64"/>
<polygon fill="#63b8ff" stroke="#63b8ff" points="163.89,-29.09 173.45,-24.53 163.13,-22.13 163.89,-29.09"/>
</g>
<!-- Node4 -->
<g id="node4" class="node">
<title>Node4</title>
<g id="a_node4"><a xlink:href="classStruktury_1_1UsuwanieBOM.html#a0770cffdd0857a04a472c6489e890eeb" target="_top" xlink:title=" ">
<polygon fill="white" stroke="#666666" points="563,-24.5 390,-24.5 390,-5.5 563,-5.5 563,-24.5"/>
<text text-anchor="middle" x="476.5" y="-12.5" font-family="Helvetica,sans-Serif" font-size="10.00">Struktury.UsuwanieBOM.UsuńBOM</text>
</a>
</g>
</g>
<!-- Node3&#45;&gt;Node4 -->
<g id="edge3" class="edge">
<title>Node3&#45;&gt;Node4</title>
<path fill="none" stroke="#63b8ff" d="M354.04,-15C362.45,-15 370.99,-15 379.44,-15"/>
<polygon fill="#63b8ff" stroke="#63b8ff" points="379.7,-18.5 389.7,-15 379.7,-11.5 379.7,-18.5"/>
</g>
<!-- Node5 -->
<g id="node5" class="node">
<title>Node5</title>
<g id="a_node5"><a xlink:href="classStruktury_1_1UsuwanieBOM.html#aef47abe35e6f2a6cd7da2b65ee08e993" target="_top" xlink:title=" ">
<polygon fill="white" stroke="#666666" points="745,-30 599,-30 599,0 745,0 745,-30"/>
<text text-anchor="start" x="607" y="-18" font-family="Helvetica,sans-Serif" font-size="10.00">Struktury.UsuwanieBOM.Czy</text>
<text text-anchor="middle" x="672" y="-7" font-family="Helvetica,sans-Serif" font-size="10.00">JestJakikolwiekBOM</text>
</a>
</g>
</g>
<!-- Node4&#45;&gt;Node5 -->
<g id="edge4" class="edge">
<title>Node4&#45;&gt;Node5</title>
<path fill="none" stroke="#63b8ff" d="M563.22,-15C571.7,-15 580.29,-15 588.74,-15"/>
<polygon fill="#63b8ff" stroke="#63b8ff" points="588.94,-18.5 598.94,-15 588.94,-11.5 588.94,-18.5"/>
</g>
<!-- Node6 -->
<g id="node6" class="node">
<title>Node6</title>
<g id="a_node6"><a xlink:href="classStruktury_1_1UsuwanieBOM.html#aef702bd0b80f518125bf384dfad72ad5" target="_top" xlink:title=" ">
<polygon fill="white" stroke="#666666" points="927,-30 781,-30 781,0 927,0 927,-30"/>
<text text-anchor="start" x="789" y="-18" font-family="Helvetica,sans-Serif" font-size="10.00">Struktury.UsuwanieBOM.Czy</text>
<text text-anchor="middle" x="854" y="-7" font-family="Helvetica,sans-Serif" font-size="10.00">JestBOM</text>
</a>
</g>
</g>
<!-- Node5&#45;&gt;Node6 -->
<g id="edge5" class="edge">
<title>Node5&#45;&gt;Node6</title>
<path fill="none" stroke="#63b8ff" d="M745.18,-15C753.52,-15 762.08,-15 770.54,-15"/>
<polygon fill="#63b8ff" stroke="#63b8ff" points="770.81,-18.5 780.81,-15 770.81,-11.5 770.81,-18.5"/>
</g>
</g>
</svg>
