<?xml version="1.0" encoding="UTF-8" standalone="no"?>
<!DOCTYPE svg PUBLIC "-//W3C//DTD SVG 1.1//EN"
 "http://www.w3.org/Graphics/SVG/1.1/DTD/svg11.dtd">
<!-- Generated by graphviz version 2.49.3 (0)
 -->
<!-- Title: Struktury.ArkuszZdarzenie.UtwórzZdarzenie Pages: 1 -->
<svg width="522pt" height="81pt"
 viewBox="0.00 0.00 522.00 81.00" xmlns="http://www.w3.org/2000/svg" xmlns:xlink="http://www.w3.org/1999/xlink">
<g id="graph0" class="graph" transform="scale(1 1) rotate(0) translate(4 77)">
<title>Struktury.ArkuszZdarzenie.UtwórzZdarzenie</title>
<!-- Node1 -->
<g id="node1" class="node">
<title>Node1</title>
<g id="a_node1"><a xlink:title=" ">
<polygon fill="#999999" stroke="#666666" points="137,-51 0,-51 0,-21 137,-21 137,-51"/>
<text text-anchor="start" x="8" y="-39" font-family="Helvetica,sans-Serif" font-size="10.00">Struktury.ArkuszZdarzenie.</text>
<text text-anchor="middle" x="68.5" y="-28" font-family="Helvetica,sans-Serif" font-size="10.00">UtwórzZdarzenie</text>
</a>
</g>
</g>
<!-- Node2 -->
<g id="node2" class="node">
<title>Node2</title>
<g id="a_node2"><a xlink:href="classStruktury_1_1ArkuszZdarzenie.html#a89c238fd4b627a797bc642888144bb92" target="_top" xlink:title=" ">
<polygon fill="white" stroke="#666666" points="318,-73 181,-73 181,-43 318,-43 318,-73"/>
<text text-anchor="start" x="189" y="-61" font-family="Helvetica,sans-Serif" font-size="10.00">Struktury.ArkuszZdarzenie.</text>
<text text-anchor="middle" x="249.5" y="-50" font-family="Helvetica,sans-Serif" font-size="10.00">CzyLiczba</text>
</a>
</g>
</g>
<!-- Node1&#45;&gt;Node2 -->
<g id="edge1" class="edge">
<title>Node1&#45;&gt;Node2</title>
<path fill="none" stroke="#63b8ff" d="M137.17,-44.32C148.09,-45.66 159.46,-47.06 170.6,-48.43"/>
<polygon fill="#63b8ff" stroke="#63b8ff" points="170.38,-51.92 180.73,-49.67 171.23,-44.98 170.38,-51.92"/>
</g>
<!-- Node3 -->
<g id="node3" class="node">
<title>Node3</title>
<g id="a_node3"><a xlink:href="classStruktury_1_1Arkusz.html#a2609006d8beb64d6e213f77f2ebca081" target="_top" xlink:title=" ">
<polygon fill="white" stroke="#666666" points="326,-24.5 173,-24.5 173,-5.5 326,-5.5 326,-24.5"/>
<text text-anchor="middle" x="249.5" y="-12.5" font-family="Helvetica,sans-Serif" font-size="10.00">Struktury.Arkusz.getZawartość</text>
</a>
</g>
</g>
<!-- Node1&#45;&gt;Node3 -->
<g id="edge2" class="edge">
<title>Node1&#45;&gt;Node3</title>
<path fill="none" stroke="#63b8ff" d="M137.17,-28.06C145.57,-27.08 154.24,-26.06 162.86,-25.05"/>
<polygon fill="#63b8ff" stroke="#63b8ff" points="163.42,-28.51 172.94,-23.86 162.6,-21.55 163.42,-28.51"/>
</g>
<!-- Node4 -->
<g id="node4" class="node">
<title>Node4</title>
<g id="a_node4"><a xlink:href="classStruktury_1_1Kom_xC3_xB3rkaArkusza.html#a42c4136f3d8445665c672404a0cf9b58" target="_top" xlink:title=" ">
<polygon fill="white" stroke="#666666" points="514,-30 362,-30 362,0 514,0 514,-30"/>
<text text-anchor="start" x="370" y="-18" font-family="Helvetica,sans-Serif" font-size="10.00">Struktury.KomórkaArkusza.get</text>
<text text-anchor="middle" x="438" y="-7" font-family="Helvetica,sans-Serif" font-size="10.00">Komórkę</text>
</a>
</g>
</g>
<!-- Node3&#45;&gt;Node4 -->
<g id="edge3" class="edge">
<title>Node3&#45;&gt;Node4</title>
<path fill="none" stroke="#63b8ff" d="M326.09,-15C334.58,-15 343.27,-15 351.87,-15"/>
<polygon fill="#63b8ff" stroke="#63b8ff" points="351.91,-18.5 361.91,-15 351.91,-11.5 351.91,-18.5"/>
</g>
</g>
</svg>
