<?xml version="1.0" encoding="UTF-8" standalone="no"?>
<!DOCTYPE svg PUBLIC "-//W3C//DTD SVG 1.1//EN"
 "http://www.w3.org/Graphics/SVG/1.1/DTD/svg11.dtd">
<!-- Generated by graphviz version 2.49.3 (0)
 -->
<!-- Title: Struktury.Zdarzenie.UstawWagi Pages: 1 -->
<svg width="759pt" height="38pt"
 viewBox="0.00 0.00 759.00 38.00" xmlns="http://www.w3.org/2000/svg" xmlns:xlink="http://www.w3.org/1999/xlink">
<g id="graph0" class="graph" transform="scale(1 1) rotate(0) translate(4 34)">
<title>Struktury.Zdarzenie.UstawWagi</title>
<!-- Node1 -->
<g id="node1" class="node">
<title>Node1</title>
<g id="a_node1"><a xlink:title=" ">
<polygon fill="#999999" stroke="#666666" points="751,-24.5 595,-24.5 595,-5.5 751,-5.5 751,-24.5"/>
<text text-anchor="middle" x="673" y="-12.5" font-family="Helvetica,sans-Serif" font-size="10.00">Struktury.Zdarzenie.UstawWagi</text>
</a>
</g>
</g>
<!-- Node2 -->
<g id="node2" class="node">
<title>Node2</title>
<g id="a_node2"><a xlink:href="classMotywy_1_1Por_xC3_xB3wnanieZZadanym.html#af664f821dfb522abb48d94f4db3a3007" target="_top" xlink:title=" ">
<polygon fill="white" stroke="#666666" points="559,-30 405,-30 405,0 559,0 559,-30"/>
<text text-anchor="start" x="413" y="-18" font-family="Helvetica,sans-Serif" font-size="10.00">Motywy.Por贸wnanieZZadanym.</text>
<text text-anchor="middle" x="482" y="-7" font-family="Helvetica,sans-Serif" font-size="10.00">NadajWagi</text>
</a>
</g>
</g>
<!-- Node1&#45;&gt;Node2 -->
<g id="edge1" class="edge">
<title>Node1&#45;&gt;Node2</title>
<path fill="none" stroke="#63b8ff" d="M584.6,-15C576.15,-15 567.62,-15 559.29,-15"/>
<polygon fill="#63b8ff" stroke="#63b8ff" points="584.85,-18.5 594.85,-15 584.85,-11.5 584.85,-18.5"/>
</g>
<!-- Node3 -->
<g id="node3" class="node">
<title>Node3</title>
<g id="a_node3"><a xlink:href="classMotywy_1_1Por_xC3_xB3wnanieZZadanym.html#a11ff4401b316e36ea9263506ab0eeefa" target="_top" xlink:title=" ">
<polygon fill="white" stroke="#666666" points="369,-30 215,-30 215,0 369,0 369,-30"/>
<text text-anchor="start" x="223" y="-18" font-family="Helvetica,sans-Serif" font-size="10.00">Motywy.Por贸wnanieZZadanym.</text>
<text text-anchor="middle" x="292" y="-7" font-family="Helvetica,sans-Serif" font-size="10.00">ZrealizujPor贸wnanie</text>
</a>
</g>
</g>
<!-- Node2&#45;&gt;Node3 -->
<g id="edge2" class="edge">
<title>Node2&#45;&gt;Node3</title>
<path fill="none" stroke="#63b8ff" d="M394.58,-15C386.14,-15 377.63,-15 369.3,-15"/>
<polygon fill="#63b8ff" stroke="#63b8ff" points="394.8,-18.5 404.8,-15 394.8,-11.5 394.8,-18.5"/>
</g>
<!-- Node4 -->
<g id="node4" class="node">
<title>Node4</title>
<g id="a_node4"><a xlink:href="classporownania_1_1AnalizaPor_xC3_xB3wnawcza.html#a4fb7b99f4ed968c3c62c6fa132b19938" target="_top" xlink:title=" ">
<polygon fill="white" stroke="#666666" points="179,-24.5 0,-24.5 0,-5.5 179,-5.5 179,-24.5"/>
<text text-anchor="middle" x="89.5" y="-12.5" font-family="Helvetica,sans-Serif" font-size="10.00">porownania.AnalizaPor贸wnawcza.run</text>
</a>
</g>
</g>
<!-- Node3&#45;&gt;Node4 -->
<g id="edge3" class="edge">
<title>Node3&#45;&gt;Node4</title>
<path fill="none" stroke="#63b8ff" d="M204.73,-15C196.31,-15 187.76,-15 179.31,-15"/>
<polygon fill="#63b8ff" stroke="#63b8ff" points="204.91,-18.5 214.91,-15 204.91,-11.5 204.91,-18.5"/>
</g>
</g>
</svg>
