<?xml version="1.0" encoding="UTF-8" standalone="no"?>
<!DOCTYPE svg PUBLIC "-//W3C//DTD SVG 1.1//EN"
 "http://www.w3.org/Graphics/SVG/1.1/DTD/svg11.dtd">
<!-- Generated by graphviz version 2.49.3 (0)
 -->
<!-- Title: Motywy.ParaMotywów.compareTo Pages: 1 -->
<svg width="788pt" height="167pt"
 viewBox="0.00 0.00 788.00 166.50" xmlns="http://www.w3.org/2000/svg" xmlns:xlink="http://www.w3.org/1999/xlink">
<g id="graph0" class="graph" transform="scale(1 1) rotate(0) translate(4 162.5)">
<title>Motywy.ParaMotywów.compareTo</title>
<!-- Node1 -->
<g id="node1" class="node">
<title>Node1</title>
<g id="a_node1"><a xlink:title=" ">
<polygon fill="#999999" stroke="#666666" points="166,-91.5 0,-91.5 0,-72.5 166,-72.5 166,-91.5"/>
<text text-anchor="middle" x="83" y="-79.5" font-family="Helvetica,sans-Serif" font-size="10.00">Motywy.ParaMotywów.compareTo</text>
</a>
</g>
</g>
<!-- Node2 -->
<g id="node2" class="node">
<title>Node2</title>
<g id="a_node2"><a xlink:href="classMotywy_1_1ParaMotyw_xC3_xB3w.html#ab847e648dd51f9b94baa11ae764d938b" target="_top" xlink:title=" ">
<polygon fill="white" stroke="#666666" points="368.5,-158.5 202.5,-158.5 202.5,-139.5 368.5,-139.5 368.5,-158.5"/>
<text text-anchor="middle" x="285.5" y="-146.5" font-family="Helvetica,sans-Serif" font-size="10.00">Motywy.ParaMotywów.getMotyw1</text>
</a>
</g>
</g>
<!-- Node1&#45;&gt;Node2 -->
<g id="edge1" class="edge">
<title>Node1&#45;&gt;Node2</title>
<path fill="none" stroke="#63b8ff" d="M104.52,-91.52C127.77,-102.03 167,-118.93 202,-130 210.06,-132.55 218.66,-134.91 227.15,-137.04"/>
<polygon fill="#63b8ff" stroke="#63b8ff" points="226.49,-140.48 237.03,-139.43 228.14,-133.68 226.49,-140.48"/>
</g>
<!-- Node3 -->
<g id="node3" class="node">
<title>Node3</title>
<g id="a_node3"><a xlink:href="classStruktury_1_1ArkuszZdarzenie.html#a51ecd5710e9e6d740314661d80e9499f" target="_top" xlink:title=" ">
<polygon fill="white" stroke="#666666" points="361,-121 210,-121 210,-91 361,-91 361,-121"/>
<text text-anchor="start" x="218" y="-109" font-family="Helvetica,sans-Serif" font-size="10.00">Struktury.ArkuszZdarzenie.get</text>
<text text-anchor="middle" x="285.5" y="-98" font-family="Helvetica,sans-Serif" font-size="10.00">NazwęKolumny</text>
</a>
</g>
</g>
<!-- Node1&#45;&gt;Node3 -->
<g id="edge2" class="edge">
<title>Node1&#45;&gt;Node3</title>
<path fill="none" stroke="#63b8ff" d="M163.53,-91.52C175.49,-92.95 187.86,-94.43 199.92,-95.88"/>
<polygon fill="#63b8ff" stroke="#63b8ff" points="199.61,-99.36 209.96,-97.08 200.45,-92.41 199.61,-99.36"/>
</g>
<!-- Node4 -->
<g id="node4" class="node">
<title>Node4</title>
<g id="a_node4"><a xlink:href="classMotywy_1_1Motyw.html#a390f9d1acc3c0862c70b71bc7f13f931" target="_top" xlink:title=" ">
<polygon fill="white" stroke="#666666" points="358,-73 213,-73 213,-43 358,-43 358,-73"/>
<text text-anchor="start" x="221" y="-61" font-family="Helvetica,sans-Serif" font-size="10.00">Motywy.Motyw.getReferencję</text>
<text text-anchor="middle" x="285.5" y="-50" font-family="Helvetica,sans-Serif" font-size="10.00">DoMotywu</text>
</a>
</g>
</g>
<!-- Node1&#45;&gt;Node4 -->
<g id="edge3" class="edge">
<title>Node1&#45;&gt;Node4</title>
<path fill="none" stroke="#63b8ff" d="M163.53,-72.48C176.39,-70.94 189.71,-69.35 202.62,-67.8"/>
<polygon fill="#63b8ff" stroke="#63b8ff" points="203.36,-71.24 212.87,-66.57 202.52,-64.29 203.36,-71.24"/>
</g>
<!-- Node5 -->
<g id="node5" class="node">
<title>Node5</title>
<g id="a_node5"><a xlink:href="classMotywy_1_1ParaMotyw_xC3_xB3w.html#ad6a71562154940909746bf6588b6b84e" target="_top" xlink:title=" ">
<polygon fill="white" stroke="#666666" points="369,-24.5 202,-24.5 202,-5.5 369,-5.5 369,-24.5"/>
<text text-anchor="middle" x="285.5" y="-12.5" font-family="Helvetica,sans-Serif" font-size="10.00">Motywy.ParaMotywów.getRóżnicę</text>
</a>
</g>
</g>
<!-- Node1&#45;&gt;Node5 -->
<g id="edge4" class="edge">
<title>Node1&#45;&gt;Node5</title>
<path fill="none" stroke="#63b8ff" d="M104.52,-72.48C127.77,-61.97 167,-45.07 202,-34 210.06,-31.45 218.66,-29.09 227.15,-26.96"/>
<polygon fill="#63b8ff" stroke="#63b8ff" points="228.14,-30.32 237.03,-24.57 226.49,-23.52 228.14,-30.32"/>
</g>
<!-- Node6 -->
<g id="node6" class="node">
<title>Node6</title>
<g id="a_node6"><a xlink:href="classMotywy_1_1Motyw.html#a1bf7b0581400d564daa45e9cba7987f2" target="_top" xlink:title=" ">
<polygon fill="white" stroke="#666666" points="593,-24.5 405,-24.5 405,-5.5 593,-5.5 593,-24.5"/>
<text text-anchor="middle" x="499" y="-12.5" font-family="Helvetica,sans-Serif" font-size="10.00">Motywy.Motyw.CzyMożnaPorównywać</text>
</a>
</g>
</g>
<!-- Node5&#45;&gt;Node6 -->
<g id="edge5" class="edge">
<title>Node5&#45;&gt;Node6</title>
<path fill="none" stroke="#63b8ff" d="M369.18,-15C377.59,-15 386.21,-15 394.8,-15"/>
<polygon fill="#63b8ff" stroke="#63b8ff" points="394.86,-18.5 404.86,-15 394.86,-11.5 394.86,-18.5"/>
</g>
<!-- Node7 -->
<g id="node7" class="node">
<title>Node7</title>
<g id="a_node7"><a xlink:href="classStruktury_1_1ArkuszZdarzenie.html#add9f4b9b1ae80d624e5f480cda1574ee" target="_top" xlink:title=" ">
<polygon fill="white" stroke="#666666" points="780,-30 629,-30 629,0 780,0 780,-30"/>
<text text-anchor="start" x="637" y="-18" font-family="Helvetica,sans-Serif" font-size="10.00">Struktury.ArkuszZdarzenie.get</text>
<text text-anchor="middle" x="704.5" y="-7" font-family="Helvetica,sans-Serif" font-size="10.00">NumerGłosu</text>
</a>
</g>
</g>
<!-- Node6&#45;&gt;Node7 -->
<g id="edge6" class="edge">
<title>Node6&#45;&gt;Node7</title>
<path fill="none" stroke="#63b8ff" d="M593.11,-15C601.6,-15 610.16,-15 618.56,-15"/>
<polygon fill="#63b8ff" stroke="#63b8ff" points="618.72,-18.5 628.72,-15 618.72,-11.5 618.72,-18.5"/>
</g>
</g>
</svg>
