<?xml version="1.0" encoding="UTF-8" standalone="no"?>
<!DOCTYPE svg PUBLIC "-//W3C//DTD SVG 1.1//EN"
 "http://www.w3.org/Graphics/SVG/1.1/DTD/svg11.dtd">
<!-- Generated by graphviz version 2.49.3 (0)
 -->
<!-- Title: Motywy.Fragmenty.getParyMotywów Pages: 1 -->
<svg width="548pt" height="101pt"
 viewBox="0.00 0.00 548.00 100.64" xmlns="http://www.w3.org/2000/svg" xmlns:xlink="http://www.w3.org/1999/xlink">
<g id="graph0" class="graph" transform="scale(1 1) rotate(0) translate(4 96.64)">
<title>Motywy.Fragmenty.getParyMotywów</title>
<!-- Node1 -->
<g id="node1" class="node">
<title>Node1</title>
<g id="a_node1"><a xlink:title=" ">
<polygon fill="#999999" stroke="#666666" points="540,-78 403,-78 403,-48 540,-48 540,-78"/>
<text text-anchor="start" x="411" y="-66" font-family="Helvetica,sans-Serif" font-size="10.00">Motywy.Fragmenty.getPary</text>
<text text-anchor="middle" x="471.5" y="-55" font-family="Helvetica,sans-Serif" font-size="10.00">Motywów</text>
</a>
</g>
</g>
<!-- Node2 -->
<g id="node2" class="node">
<title>Node2</title>
<g id="a_node2"><a xlink:href="classporownania_1_1AnalizaPor_xC3_xB3wnawcza.html#a4fb7b99f4ed968c3c62c6fa132b19938" target="_top" xlink:title=" ">
<polygon fill="white" stroke="#666666" points="179,-69.5 0,-69.5 0,-50.5 179,-50.5 179,-69.5"/>
<text text-anchor="middle" x="89.5" y="-57.5" font-family="Helvetica,sans-Serif" font-size="10.00">porownania.AnalizaPorównawcza.run</text>
</a>
</g>
</g>
<!-- Node1&#45;&gt;Node2 -->
<g id="edge1" class="edge">
<title>Node1&#45;&gt;Node2</title>
<path fill="none" stroke="#63b8ff" d="M405.99,-80.34C393.16,-83.11 379.73,-85.54 367,-87 299.88,-94.68 282.17,-94.2 215,-87 184.1,-83.69 149.62,-75.88 124.79,-69.51"/>
<polygon fill="#63b8ff" stroke="#63b8ff" points="407.13,-83.67 416.12,-78.06 405.59,-76.84 407.13,-83.67"/>
</g>
<!-- Node3 -->
<g id="node3" class="node">
<title>Node3</title>
<g id="a_node3"><a xlink:href="classMotywy_1_1ZnajdowanieMotyw_xC3_xB3w.html#acf3d94705bc30e2a361821e081fd43dc" target="_top" xlink:title=" ">
<polygon fill="white" stroke="#666666" points="367,-78 215,-78 215,-48 367,-48 367,-78"/>
<text text-anchor="start" x="223" y="-66" font-family="Helvetica,sans-Serif" font-size="10.00">Motywy.ZnajdowanieMotywów.</text>
<text text-anchor="middle" x="291" y="-55" font-family="Helvetica,sans-Serif" font-size="10.00">Szukaj</text>
</a>
</g>
</g>
<!-- Node1&#45;&gt;Node3 -->
<g id="edge2" class="edge">
<title>Node1&#45;&gt;Node3</title>
<path fill="none" stroke="#63b8ff" d="M392.56,-63C384.12,-63 375.55,-63 367.15,-63"/>
<polygon fill="#63b8ff" stroke="#63b8ff" points="392.76,-66.5 402.76,-63 392.76,-59.5 392.76,-66.5"/>
</g>
<!-- Node4 -->
<g id="node4" class="node">
<title>Node4</title>
<g id="a_node4"><a xlink:href="classMotywy_1_1ZnajdowanieMotyw_xC3_xB3wCa_xC5_x82o_xC5_x9B_xC4_x87.html#a1b547741636351220c77f9921caf0275" target="_top" xlink:title=" ">
<polygon fill="white" stroke="#666666" points="365.5,-30 216.5,-30 216.5,0 365.5,0 365.5,-30"/>
<text text-anchor="start" x="224.5" y="-18" font-family="Helvetica,sans-Serif" font-size="10.00">Motywy.ZnajdowanieMotywów</text>
<text text-anchor="middle" x="291" y="-7" font-family="Helvetica,sans-Serif" font-size="10.00">Całość.UruchomPorównanie</text>
</a>
</g>
</g>
<!-- Node1&#45;&gt;Node4 -->
<g id="edge3" class="edge">
<title>Node1&#45;&gt;Node4</title>
<path fill="none" stroke="#63b8ff" d="M404.61,-45.28C385.94,-40.26 365.8,-34.85 347.79,-30"/>
<polygon fill="#63b8ff" stroke="#63b8ff" points="403.95,-48.73 414.51,-47.94 405.76,-41.97 403.95,-48.73"/>
</g>
<!-- Node4&#45;&gt;Node2 -->
<g id="edge4" class="edge">
<title>Node4&#45;&gt;Node2</title>
<path fill="none" stroke="#63b8ff" d="M213.34,-32.29C185.97,-38.47 156.14,-45.19 132.74,-50.47"/>
<polygon fill="#63b8ff" stroke="#63b8ff" points="214.31,-35.66 223.29,-30.05 212.77,-28.83 214.31,-35.66"/>
</g>
</g>
</svg>
