<?xml version="1.0" encoding="UTF-8" standalone="no"?>
<!DOCTYPE svg PUBLIC "-//W3C//DTD SVG 1.1//EN"
 "http://www.w3.org/Graphics/SVG/1.1/DTD/svg11.dtd">
<!-- Generated by graphviz version 2.49.3 (0)
 -->
<!-- Title: Motywy.Fragmenty.MotywInterwały Pages: 1 -->
<svg width="371pt" height="343pt"
 viewBox="0.00 0.00 371.00 343.00" xmlns="http://www.w3.org/2000/svg" xmlns:xlink="http://www.w3.org/1999/xlink">
<g id="graph0" class="graph" transform="scale(1 1) rotate(0) translate(4 339)">
<title>Motywy.Fragmenty.MotywInterwały</title>
<!-- Node1 -->
<g id="node1" class="node">
<title>Node1</title>
<g id="a_node1"><a xlink:title=" ">
<polygon fill="#999999" stroke="#666666" points="171,-181.5 0,-181.5 0,-162.5 171,-162.5 171,-181.5"/>
<text text-anchor="middle" x="85.5" y="-169.5" font-family="Helvetica,sans-Serif" font-size="10.00">Motywy.Fragmenty.MotywInterwały</text>
</a>
</g>
</g>
<!-- Node2 -->
<g id="node2" class="node">
<title>Node2</title>
<g id="a_node2"><a xlink:href="classStruktury_1_1Zdarzenie.html#a66f9cf0ce45f65b56860711d9a5afb13" target="_top" xlink:title=" ">
<polygon fill="white" stroke="#666666" points="353.5,-335 216.5,-335 216.5,-305 353.5,-305 353.5,-335"/>
<text text-anchor="start" x="224.5" y="-323" font-family="Helvetica,sans-Serif" font-size="10.00">Struktury.Zdarzenie.getCzy</text>
<text text-anchor="middle" x="285" y="-312" font-family="Helvetica,sans-Serif" font-size="10.00">InterwałJestPoczątkowy</text>
</a>
</g>
</g>
<!-- Node1&#45;&gt;Node2 -->
<g id="edge1" class="edge">
<title>Node1&#45;&gt;Node2</title>
<path fill="none" stroke="#63b8ff" d="M93.18,-181.64C109.73,-204.82 155.08,-264.1 207,-296 209.66,-297.63 212.44,-299.16 215.3,-300.6"/>
<polygon fill="#63b8ff" stroke="#63b8ff" points="214.09,-303.9 224.64,-304.85 216.99,-297.52 214.09,-303.9"/>
</g>
<!-- Node3 -->
<g id="node3" class="node">
<title>Node3</title>
<g id="a_node3"><a xlink:href="classStruktury_1_1Zdarzenie.html#a2592c833b1455b28718d794f8f1b846f" target="_top" xlink:title=" ">
<polygon fill="white" stroke="#666666" points="363,-286.5 207,-286.5 207,-267.5 363,-267.5 363,-286.5"/>
<text text-anchor="middle" x="285" y="-274.5" font-family="Helvetica,sans-Serif" font-size="10.00">Struktury.Zdarzenie.getDuration</text>
</a>
</g>
</g>
<!-- Node1&#45;&gt;Node3 -->
<g id="edge2" class="edge">
<title>Node1&#45;&gt;Node3</title>
<path fill="none" stroke="#63b8ff" d="M96.92,-181.57C116.8,-199.32 162.16,-237.39 207,-258 212.29,-260.43 217.93,-262.58 223.67,-264.47"/>
<polygon fill="#63b8ff" stroke="#63b8ff" points="222.77,-267.85 233.36,-267.41 224.81,-261.16 222.77,-267.85"/>
</g>
<!-- Node4 -->
<g id="node4" class="node">
<title>Node4</title>
<g id="a_node4"><a xlink:href="classMotywy_1_1Motyw.html#a78e0685f4ff1fb079d1f6230ecff2663" target="_top" xlink:title=" ">
<polygon fill="white" stroke="#666666" points="352,-249 218,-249 218,-219 352,-219 352,-249"/>
<text text-anchor="start" x="226" y="-237" font-family="Helvetica,sans-Serif" font-size="10.00">Motywy.Motyw.getDługość</text>
<text text-anchor="middle" x="285" y="-226" font-family="Helvetica,sans-Serif" font-size="10.00">Motywu</text>
</a>
</g>
</g>
<!-- Node1&#45;&gt;Node4 -->
<g id="edge3" class="edge">
<title>Node1&#45;&gt;Node4</title>
<path fill="none" stroke="#63b8ff" d="M116.7,-181.55C141.07,-189.26 176.23,-200.35 207,-210 213.05,-211.9 219.37,-213.87 225.67,-215.84"/>
<polygon fill="#63b8ff" stroke="#63b8ff" points="224.93,-219.28 235.52,-218.92 227.02,-212.6 224.93,-219.28"/>
</g>
<!-- Node5 -->
<g id="node5" class="node">
<title>Node5</title>
<g id="a_node5"><a xlink:href="classStruktury_1_1Zdarzenie.html#aa2021baa34312354e2f93f48098a9834" target="_top" xlink:title=" ">
<polygon fill="white" stroke="#666666" points="361,-200.5 209,-200.5 209,-181.5 361,-181.5 361,-200.5"/>
<text text-anchor="middle" x="285" y="-188.5" font-family="Helvetica,sans-Serif" font-size="10.00">Struktury.Zdarzenie.getInterval</text>
</a>
</g>
</g>
<!-- Node1&#45;&gt;Node5 -->
<g id="edge4" class="edge">
<title>Node1&#45;&gt;Node5</title>
<path fill="none" stroke="#63b8ff" d="M171.12,-180.14C180.25,-181.02 189.54,-181.91 198.67,-182.79"/>
<polygon fill="#63b8ff" stroke="#63b8ff" points="198.62,-186.3 208.91,-183.78 199.29,-179.33 198.62,-186.3"/>
</g>
<!-- Node6 -->
<g id="node6" class="node">
<title>Node6</title>
<g id="a_node6"><a xlink:href="classStruktury_1_1Zdarzenie.html#a612182e23a5f9790c9c1801c29717314" target="_top" xlink:title=" ">
<polygon fill="white" stroke="#666666" points="358,-163.5 212,-163.5 212,-144.5 358,-144.5 358,-163.5"/>
<text text-anchor="middle" x="285" y="-151.5" font-family="Helvetica,sans-Serif" font-size="10.00">Struktury.Zdarzenie.getOnset</text>
</a>
</g>
</g>
<!-- Node1&#45;&gt;Node6 -->
<g id="edge5" class="edge">
<title>Node1&#45;&gt;Node6</title>
<path fill="none" stroke="#63b8ff" d="M171.12,-164.29C181.33,-163.36 191.74,-162.41 201.91,-161.48"/>
<polygon fill="#63b8ff" stroke="#63b8ff" points="202.34,-164.96 211.98,-160.56 201.71,-157.99 202.34,-164.96"/>
</g>
<!-- Node7 -->
<g id="node7" class="node">
<title>Node7</title>
<g id="a_node7"><a xlink:href="classMotywy_1_1Motyw.html#a390f9d1acc3c0862c70b71bc7f13f931" target="_top" xlink:title=" ">
<polygon fill="white" stroke="#666666" points="357.5,-126 212.5,-126 212.5,-96 357.5,-96 357.5,-126"/>
<text text-anchor="start" x="220.5" y="-114" font-family="Helvetica,sans-Serif" font-size="10.00">Motywy.Motyw.getReferencję</text>
<text text-anchor="middle" x="285" y="-103" font-family="Helvetica,sans-Serif" font-size="10.00">DoMotywu</text>
</a>
</g>
</g>
<!-- Node1&#45;&gt;Node7 -->
<g id="edge6" class="edge">
<title>Node1&#45;&gt;Node7</title>
<path fill="none" stroke="#63b8ff" d="M117.36,-162.47C146.22,-153.56 190.07,-140.01 225.54,-129.06"/>
<polygon fill="#63b8ff" stroke="#63b8ff" points="226.78,-132.33 235.31,-126.04 224.72,-125.65 226.78,-132.33"/>
</g>
<!-- Node8 -->
<g id="node8" class="node">
<title>Node8</title>
<g id="a_node8"><a xlink:href="classStruktury_1_1Zdarzenie.html#a4df3715be17e01949a2b7d1bc104e2d7" target="_top" xlink:title=" ">
<polygon fill="white" stroke="#666666" points="356.5,-78 213.5,-78 213.5,-48 356.5,-48 356.5,-78"/>
<text text-anchor="start" x="221.5" y="-66" font-family="Helvetica,sans-Serif" font-size="10.00">Struktury.Zdarzenie.getStary</text>
<text text-anchor="middle" x="285" y="-55" font-family="Helvetica,sans-Serif" font-size="10.00">Interwał</text>
</a>
</g>
</g>
<!-- Node1&#45;&gt;Node8 -->
<g id="edge7" class="edge">
<title>Node1&#45;&gt;Node8</title>
<path fill="none" stroke="#63b8ff" d="M97.7,-162.25C118.13,-144.92 163.38,-108.52 207,-87 210.74,-85.15 214.66,-83.41 218.66,-81.77"/>
<polygon fill="#63b8ff" stroke="#63b8ff" points="220.01,-85 228.09,-78.15 217.5,-78.47 220.01,-85"/>
</g>
<!-- Node9 -->
<g id="node9" class="node">
<title>Node9</title>
<g id="a_node9"><a xlink:href="classStruktury_1_1ArkuszZdarzenie.html#a3e1eb6a41e16bd31dfb9c7525f58b11b" target="_top" xlink:title=" ">
<polygon fill="white" stroke="#666666" points="360.5,-30 209.5,-30 209.5,0 360.5,0 360.5,-30"/>
<text text-anchor="start" x="217.5" y="-18" font-family="Helvetica,sans-Serif" font-size="10.00">Struktury.ArkuszZdarzenie.get</text>
<text text-anchor="middle" x="285" y="-7" font-family="Helvetica,sans-Serif" font-size="10.00">Zdarzenie</text>
</a>
</g>
</g>
<!-- Node1&#45;&gt;Node9 -->
<g id="edge8" class="edge">
<title>Node1&#45;&gt;Node9</title>
<path fill="none" stroke="#63b8ff" d="M92.53,-162.36C108.28,-137.99 153.17,-73.38 207,-39 209.57,-37.36 212.26,-35.82 215.04,-34.38"/>
<polygon fill="#63b8ff" stroke="#63b8ff" points="216.55,-37.54 224.12,-30.12 213.58,-31.2 216.55,-37.54"/>
</g>
</g>
</svg>
