<?xml version="1.0" encoding="UTF-8" standalone="no"?>
<!DOCTYPE svg PUBLIC "-//W3C//DTD SVG 1.1//EN"
 "http://www.w3.org/Graphics/SVG/1.1/DTD/svg11.dtd">
<!-- Generated by graphviz version 2.49.3 (0)
 -->
<!-- Title: Motywy.Fragmenty.getMiaryMotywów Pages: 1 -->
<svg width="762pt" height="308pt"
 viewBox="0.00 0.00 762.00 308.00" xmlns="http://www.w3.org/2000/svg" xmlns:xlink="http://www.w3.org/1999/xlink">
<g id="graph0" class="graph" transform="scale(1 1) rotate(0) translate(4 304)">
<title>Motywy.Fragmenty.getMiaryMotywów</title>
<!-- Node1 -->
<g id="node1" class="node">
<title>Node1</title>
<g id="a_node1"><a xlink:title=" ">
<polygon fill="#999999" stroke="#666666" points="140,-159 0,-159 0,-129 140,-129 140,-159"/>
<text text-anchor="start" x="8" y="-147" font-family="Helvetica,sans-Serif" font-size="10.00">Motywy.Fragmenty.getMiary</text>
<text text-anchor="middle" x="70" y="-136" font-family="Helvetica,sans-Serif" font-size="10.00">Motywów</text>
</a>
</g>
</g>
<!-- Node2 -->
<g id="node2" class="node">
<title>Node2</title>
<g id="a_node2"><a xlink:href="classMotywy_1_1Motyw.html#a849761056fc3a98537ebb0089584cfdb" target="_top" xlink:title=" ">
<polygon fill="white" stroke="#666666" points="333,-276 186,-276 186,-246 333,-246 333,-276"/>
<text text-anchor="start" x="194" y="-264" font-family="Helvetica,sans-Serif" font-size="10.00">Motywy.Motyw.getLokalizację</text>
<text text-anchor="middle" x="259.5" y="-253" font-family="Helvetica,sans-Serif" font-size="10.00">Początku</text>
</a>
</g>
</g>
<!-- Node1&#45;&gt;Node2 -->
<g id="edge1" class="edge">
<title>Node1&#45;&gt;Node2</title>
<path fill="none" stroke="#63b8ff" d="M84.04,-159.16C102.51,-179.7 138.26,-216.19 176,-237 179.26,-238.8 182.67,-240.47 186.17,-242.04"/>
<polygon fill="#63b8ff" stroke="#63b8ff" points="185.02,-245.34 195.6,-245.9 187.67,-238.87 185.02,-245.34"/>
</g>
<!-- Node5 -->
<g id="node5" class="node">
<title>Node5</title>
<g id="a_node5"><a xlink:href="classMotywy_1_1ParaMotyw_xC3_xB3w.html#ab847e648dd51f9b94baa11ae764d938b" target="_top" xlink:title=" ">
<polygon fill="white" stroke="#666666" points="342.5,-227.5 176.5,-227.5 176.5,-208.5 342.5,-208.5 342.5,-227.5"/>
<text text-anchor="middle" x="259.5" y="-215.5" font-family="Helvetica,sans-Serif" font-size="10.00">Motywy.ParaMotywów.getMotyw1</text>
</a>
</g>
</g>
<!-- Node1&#45;&gt;Node5 -->
<g id="edge4" class="edge">
<title>Node1&#45;&gt;Node5</title>
<path fill="none" stroke="#63b8ff" d="M94.73,-159.1C115.45,-171.68 146.72,-189.23 176,-200 181.96,-202.19 188.26,-204.16 194.63,-205.91"/>
<polygon fill="#63b8ff" stroke="#63b8ff" points="194.07,-209.38 204.63,-208.49 195.82,-202.6 194.07,-209.38"/>
</g>
<!-- Node6 -->
<g id="node6" class="node">
<title>Node6</title>
<g id="a_node6"><a xlink:href="classMotywy_1_1ParaMotyw_xC3_xB3w.html#aa11e402d0f891343148eb7c16fc7a1fc" target="_top" xlink:title=" ">
<polygon fill="white" stroke="#666666" points="342.5,-190.5 176.5,-190.5 176.5,-171.5 342.5,-171.5 342.5,-190.5"/>
<text text-anchor="middle" x="259.5" y="-178.5" font-family="Helvetica,sans-Serif" font-size="10.00">Motywy.ParaMotywów.getMotyw2</text>
</a>
</g>
</g>
<!-- Node1&#45;&gt;Node6 -->
<g id="edge5" class="edge">
<title>Node1&#45;&gt;Node6</title>
<path fill="none" stroke="#63b8ff" d="M140.02,-157.62C159.76,-161.51 181.07,-165.72 200.11,-169.48"/>
<polygon fill="#63b8ff" stroke="#63b8ff" points="199.64,-172.95 210.13,-171.45 200.99,-166.08 199.64,-172.95"/>
</g>
<!-- Node7 -->
<g id="node7" class="node">
<title>Node7</title>
<g id="a_node7"><a xlink:href="classMotywy_1_1ParaMotyw_xC3_xB3w.html#ad6a71562154940909746bf6588b6b84e" target="_top" xlink:title=" ">
<polygon fill="white" stroke="#666666" points="343,-153.5 176,-153.5 176,-134.5 343,-134.5 343,-153.5"/>
<text text-anchor="middle" x="259.5" y="-141.5" font-family="Helvetica,sans-Serif" font-size="10.00">Motywy.ParaMotywów.getRóżnicę</text>
</a>
</g>
</g>
<!-- Node1&#45;&gt;Node7 -->
<g id="edge6" class="edge">
<title>Node1&#45;&gt;Node7</title>
<path fill="none" stroke="#63b8ff" d="M140.02,-144C148.42,-144 157.12,-144 165.8,-144"/>
<polygon fill="#63b8ff" stroke="#63b8ff" points="165.96,-147.5 175.96,-144 165.96,-140.5 165.96,-147.5"/>
</g>
<!-- Node10 -->
<g id="node10" class="node">
<title>Node10</title>
<g id="a_node10"><a xlink:href="classMotywy_1_1Motyw.html#a390f9d1acc3c0862c70b71bc7f13f931" target="_top" xlink:title=" ">
<polygon fill="white" stroke="#666666" points="332,-116 187,-116 187,-86 332,-86 332,-116"/>
<text text-anchor="start" x="195" y="-104" font-family="Helvetica,sans-Serif" font-size="10.00">Motywy.Motyw.getReferencję</text>
<text text-anchor="middle" x="259.5" y="-93" font-family="Helvetica,sans-Serif" font-size="10.00">DoMotywu</text>
</a>
</g>
</g>
<!-- Node1&#45;&gt;Node10 -->
<g id="edge9" class="edge">
<title>Node1&#45;&gt;Node10</title>
<path fill="none" stroke="#63b8ff" d="M136.58,-128.96C151.57,-125.52 167.61,-121.84 182.98,-118.32"/>
<polygon fill="#63b8ff" stroke="#63b8ff" points="183.99,-121.68 192.96,-116.03 182.43,-114.85 183.99,-121.68"/>
</g>
<!-- Node11 -->
<g id="node11" class="node">
<title>Node11</title>
<g id="a_node11"><a xlink:href="classStruktury_1_1Zdarzenie.html#a987607d51dcbf215ee1795c3a0122c6e" target="_top" xlink:title=" ">
<polygon fill="white" stroke="#666666" points="328.5,-67.5 190.5,-67.5 190.5,-48.5 328.5,-48.5 328.5,-67.5"/>
<text text-anchor="middle" x="259.5" y="-55.5" font-family="Helvetica,sans-Serif" font-size="10.00">Struktury.Zdarzenie.getTakt</text>
</a>
</g>
</g>
<!-- Node1&#45;&gt;Node11 -->
<g id="edge10" class="edge">
<title>Node1&#45;&gt;Node11</title>
<path fill="none" stroke="#63b8ff" d="M90.38,-128.73C110.64,-113.49 143.89,-90.47 176,-77 182.1,-74.44 188.61,-72.19 195.19,-70.23"/>
<polygon fill="#63b8ff" stroke="#63b8ff" points="196.14,-73.6 204.84,-67.55 194.27,-66.85 196.14,-73.6"/>
</g>
<!-- Node12 -->
<g id="node12" class="node">
<title>Node12</title>
<g id="a_node12"><a xlink:href="classStruktury_1_1ArkuszZdarzenie.html#a3e1eb6a41e16bd31dfb9c7525f58b11b" target="_top" xlink:title=" ">
<polygon fill="white" stroke="#666666" points="335,-30 184,-30 184,0 335,0 335,-30"/>
<text text-anchor="start" x="192" y="-18" font-family="Helvetica,sans-Serif" font-size="10.00">Struktury.ArkuszZdarzenie.get</text>
<text text-anchor="middle" x="259.5" y="-7" font-family="Helvetica,sans-Serif" font-size="10.00">Zdarzenie</text>
</a>
</g>
</g>
<!-- Node1&#45;&gt;Node12 -->
<g id="edge11" class="edge">
<title>Node1&#45;&gt;Node12</title>
<path fill="none" stroke="#63b8ff" d="M82.13,-128.74C99.58,-105.88 135.62,-62.89 176,-39 178.98,-37.24 182.1,-35.6 185.3,-34.07"/>
<polygon fill="#63b8ff" stroke="#63b8ff" points="186.74,-37.26 194.53,-30.07 183.96,-30.84 186.74,-37.26"/>
</g>
<!-- Node3 -->
<g id="node3" class="node">
<title>Node3</title>
<g id="a_node3"><a xlink:href="classStruktury_1_1ArkuszZdarzenie.html#a51ecd5710e9e6d740314661d80e9499f" target="_top" xlink:title=" ">
<polygon fill="white" stroke="#666666" points="548.5,-300 397.5,-300 397.5,-270 548.5,-270 548.5,-300"/>
<text text-anchor="start" x="405.5" y="-288" font-family="Helvetica,sans-Serif" font-size="10.00">Struktury.ArkuszZdarzenie.get</text>
<text text-anchor="middle" x="473" y="-277" font-family="Helvetica,sans-Serif" font-size="10.00">NazwęKolumny</text>
</a>
</g>
</g>
<!-- Node2&#45;&gt;Node3 -->
<g id="edge2" class="edge">
<title>Node2&#45;&gt;Node3</title>
<path fill="none" stroke="#63b8ff" d="M333.29,-269.26C350.57,-271.22 369.15,-273.33 386.93,-275.35"/>
<polygon fill="#63b8ff" stroke="#63b8ff" points="386.95,-278.87 397.28,-276.52 387.74,-271.92 386.95,-278.87"/>
</g>
<!-- Node4 -->
<g id="node4" class="node">
<title>Node4</title>
<g id="a_node4"><a xlink:href="classStruktury_1_1ArkuszZdarzenie.html#aab8a50eda797bd00b06ec5b4c9217724" target="_top" xlink:title=" ">
<polygon fill="white" stroke="#666666" points="548.5,-252 397.5,-252 397.5,-222 548.5,-222 548.5,-252"/>
<text text-anchor="start" x="405.5" y="-240" font-family="Helvetica,sans-Serif" font-size="10.00">Struktury.ArkuszZdarzenie.get</text>
<text text-anchor="middle" x="473" y="-229" font-family="Helvetica,sans-Serif" font-size="10.00">Wiersz</text>
</a>
</g>
</g>
<!-- Node2&#45;&gt;Node4 -->
<g id="edge3" class="edge">
<title>Node2&#45;&gt;Node4</title>
<path fill="none" stroke="#63b8ff" d="M333.29,-252.74C350.57,-250.78 369.15,-248.67 386.93,-246.65"/>
<polygon fill="#63b8ff" stroke="#63b8ff" points="387.74,-250.08 397.28,-245.48 386.95,-243.13 387.74,-250.08"/>
</g>
<!-- Node8 -->
<g id="node8" class="node">
<title>Node8</title>
<g id="a_node8"><a xlink:href="classMotywy_1_1Motyw.html#a1bf7b0581400d564daa45e9cba7987f2" target="_top" xlink:title=" ">
<polygon fill="white" stroke="#666666" points="567,-153.5 379,-153.5 379,-134.5 567,-134.5 567,-153.5"/>
<text text-anchor="middle" x="473" y="-141.5" font-family="Helvetica,sans-Serif" font-size="10.00">Motywy.Motyw.CzyMożnaPorównywać</text>
</a>
</g>
</g>
<!-- Node7&#45;&gt;Node8 -->
<g id="edge7" class="edge">
<title>Node7&#45;&gt;Node8</title>
<path fill="none" stroke="#63b8ff" d="M343.18,-144C351.59,-144 360.21,-144 368.8,-144"/>
<polygon fill="#63b8ff" stroke="#63b8ff" points="368.86,-147.5 378.86,-144 368.86,-140.5 368.86,-147.5"/>
</g>
<!-- Node9 -->
<g id="node9" class="node">
<title>Node9</title>
<g id="a_node9"><a xlink:href="classStruktury_1_1ArkuszZdarzenie.html#add9f4b9b1ae80d624e5f480cda1574ee" target="_top" xlink:title=" ">
<polygon fill="white" stroke="#666666" points="754,-159 603,-159 603,-129 754,-129 754,-159"/>
<text text-anchor="start" x="611" y="-147" font-family="Helvetica,sans-Serif" font-size="10.00">Struktury.ArkuszZdarzenie.get</text>
<text text-anchor="middle" x="678.5" y="-136" font-family="Helvetica,sans-Serif" font-size="10.00">NumerGłosu</text>
</a>
</g>
</g>
<!-- Node8&#45;&gt;Node9 -->
<g id="edge8" class="edge">
<title>Node8&#45;&gt;Node9</title>
<path fill="none" stroke="#63b8ff" d="M567.11,-144C575.6,-144 584.16,-144 592.56,-144"/>
<polygon fill="#63b8ff" stroke="#63b8ff" points="592.72,-147.5 602.72,-144 592.72,-140.5 592.72,-147.5"/>
</g>
</g>
</svg>
