<?xml version="1.0" encoding="UTF-8" standalone="no"?>
<!DOCTYPE svg PUBLIC "-//W3C//DTD SVG 1.1//EN"
 "http://www.w3.org/Graphics/SVG/1.1/DTD/svg11.dtd">
<!-- Generated by graphviz version 2.49.3 (0)
 -->
<!-- Title: Motywy.LiczeniePrzedziałówWątek.LiczbaRdzeni Pages: 1 -->
<svg width="509pt" height="38pt"
 viewBox="0.00 0.00 509.00 38.00" xmlns="http://www.w3.org/2000/svg" xmlns:xlink="http://www.w3.org/1999/xlink">
<g id="graph0" class="graph" transform="scale(1 1) rotate(0) translate(4 34)">
<title>Motywy.LiczeniePrzedziałówWątek.LiczbaRdzeni</title>
<!-- Node1 -->
<g id="node1" class="node">
<title>Node1</title>
<g id="a_node1"><a xlink:title=" ">
<polygon fill="#999999" stroke="#666666" points="501,-30 358,-30 358,0 501,0 501,-30"/>
<text text-anchor="start" x="366" y="-18" font-family="Helvetica,sans-Serif" font-size="10.00">Motywy.LiczeniePrzedziałów</text>
<text text-anchor="middle" x="429.5" y="-7" font-family="Helvetica,sans-Serif" font-size="10.00">Wątek.LiczbaRdzeni</text>
</a>
</g>
</g>
<!-- Node2 -->
<g id="node2" class="node">
<title>Node2</title>
<g id="a_node2"><a xlink:href="classMotywy_1_1Fragmenty.html#ae37d302041ec467552554a8c838a42c4" target="_top" xlink:title=" ">
<polygon fill="white" stroke="#666666" points="322,-30 188,-30 188,0 322,0 322,-30"/>
<text text-anchor="start" x="196" y="-18" font-family="Helvetica,sans-Serif" font-size="10.00">Motywy.Fragmenty.Utwórz</text>
<text text-anchor="middle" x="255" y="-7" font-family="Helvetica,sans-Serif" font-size="10.00">ListęWątkowo</text>
</a>
</g>
</g>
<!-- Node1&#45;&gt;Node2 -->
<g id="edge1" class="edge">
<title>Node1&#45;&gt;Node2</title>
<path fill="none" stroke="#63b8ff" d="M347.79,-15C339.19,-15 330.51,-15 322.11,-15"/>
<polygon fill="#63b8ff" stroke="#63b8ff" points="347.84,-18.5 357.84,-15 347.84,-11.5 347.84,-18.5"/>
</g>
<!-- Node3 -->
<g id="node3" class="node">
<title>Node3</title>
<g id="a_node3"><a xlink:href="classMotywy_1_1ZnajdowanieMotyw_xC3_xB3w.html#acf3d94705bc30e2a361821e081fd43dc" target="_top" xlink:title=" ">
<polygon fill="white" stroke="#666666" points="152,-30 0,-30 0,0 152,0 152,-30"/>
<text text-anchor="start" x="8" y="-18" font-family="Helvetica,sans-Serif" font-size="10.00">Motywy.ZnajdowanieMotywów.</text>
<text text-anchor="middle" x="76" y="-7" font-family="Helvetica,sans-Serif" font-size="10.00">Szukaj</text>
</a>
</g>
</g>
<!-- Node2&#45;&gt;Node3 -->
<g id="edge2" class="edge">
<title>Node2&#45;&gt;Node3</title>
<path fill="none" stroke="#63b8ff" d="M177.59,-15C169.11,-15 160.47,-15 152.01,-15"/>
<polygon fill="#63b8ff" stroke="#63b8ff" points="177.84,-18.5 187.84,-15 177.84,-11.5 177.84,-18.5"/>
</g>
</g>
</svg>
