<?xml version="1.0" encoding="UTF-8" standalone="no"?>
<!DOCTYPE svg PUBLIC "-//W3C//DTD SVG 1.1//EN"
 "http://www.w3.org/Graphics/SVG/1.1/DTD/svg11.dtd">
<!-- Generated by graphviz version 2.49.3 (0)
 -->
<!-- Title: porownania.GłówneOknoProgramu.WczytajKatalogCSV Pages: 1 -->
<svg width="384pt" height="86pt"
 viewBox="0.00 0.00 384.00 86.00" xmlns="http://www.w3.org/2000/svg" xmlns:xlink="http://www.w3.org/1999/xlink">
<g id="graph0" class="graph" transform="scale(1 1) rotate(0) translate(4 82)">
<title>porownania.GłówneOknoProgramu.WczytajKatalogCSV</title>
<!-- Node1 -->
<g id="node1" class="node">
<title>Node1</title>
<g id="a_node1"><a xlink:title=" ">
<polygon fill="#999999" stroke="#666666" points="170,-54 0,-54 0,-24 170,-24 170,-54"/>
<text text-anchor="start" x="8" y="-42" font-family="Helvetica,sans-Serif" font-size="10.00">porownania.GłówneOknoProgramu.</text>
<text text-anchor="middle" x="85" y="-31" font-family="Helvetica,sans-Serif" font-size="10.00">WczytajKatalogCSV</text>
</a>
</g>
</g>
<!-- Node2 -->
<g id="node2" class="node">
<title>Node2</title>
<g id="a_node2"><a xlink:href="classporownania_1_1ListaPlik_xC3_xB3w.html#a8e0a2b4a6614f880e454d89cfc571938" target="_top" xlink:title=" ">
<polygon fill="white" stroke="#666666" points="351.5,-78 230.5,-78 230.5,-48 351.5,-48 351.5,-78"/>
<text text-anchor="start" x="238.5" y="-66" font-family="Helvetica,sans-Serif" font-size="10.00">porownania.ListaPlików.</text>
<text text-anchor="middle" x="291" y="-55" font-family="Helvetica,sans-Serif" font-size="10.00">PodajTablicęNazw</text>
</a>
</g>
</g>
<!-- Node1&#45;&gt;Node2 -->
<g id="edge1" class="edge">
<title>Node1&#45;&gt;Node2</title>
<path fill="none" stroke="#63b8ff" d="M170.15,-48.9C186.72,-50.85 203.93,-52.87 219.97,-54.76"/>
<polygon fill="#63b8ff" stroke="#63b8ff" points="219.99,-58.29 230.33,-55.98 220.8,-51.34 219.99,-58.29"/>
</g>
<!-- Node3 -->
<g id="node3" class="node">
<title>Node3</title>
<g id="a_node3"><a xlink:href="classporownania_1_1G_xC5_x82_xC3_xB3wneOknoProgramu.html#a7fcb50577ffad54f885abba8634af204" target="_top" xlink:title=" ">
<polygon fill="white" stroke="#666666" points="376,-30 206,-30 206,0 376,0 376,-30"/>
<text text-anchor="start" x="214" y="-18" font-family="Helvetica,sans-Serif" font-size="10.00">porownania.GłówneOknoProgramu.</text>
<text text-anchor="middle" x="291" y="-7" font-family="Helvetica,sans-Serif" font-size="10.00">SterowanieWalidacją</text>
</a>
</g>
</g>
<!-- Node1&#45;&gt;Node3 -->
<g id="edge2" class="edge">
<title>Node1&#45;&gt;Node3</title>
<path fill="none" stroke="#63b8ff" d="M170.15,-29.1C178.59,-28.11 187.2,-27.09 195.74,-26.09"/>
<polygon fill="#63b8ff" stroke="#63b8ff" points="196.19,-29.56 205.71,-24.92 195.37,-22.61 196.19,-29.56"/>
</g>
</g>
</svg>
