<?xml version="1.0" encoding="UTF-8" standalone="no"?>
<!DOCTYPE svg PUBLIC "-//W3C//DTD SVG 1.1//EN"
 "http://www.w3.org/Graphics/SVG/1.1/DTD/svg11.dtd">
<!-- Generated by graphviz version 2.49.3 (0)
 -->
<!-- Title: Struktury.Zdarzenie.getDuration Pages: 1 -->
<svg width="736pt" height="116pt"
 viewBox="0.00 0.00 736.00 115.50" xmlns="http://www.w3.org/2000/svg" xmlns:xlink="http://www.w3.org/1999/xlink">
<g id="graph0" class="graph" transform="scale(1 1) rotate(0) translate(4 111.5)">
<title>Struktury.Zdarzenie.getDuration</title>
<!-- Node1 -->
<g id="node1" class="node">
<title>Node1</title>
<g id="a_node1"><a xlink:title=" ">
<polygon fill="#999999" stroke="#666666" points="728,-70.5 572,-70.5 572,-51.5 728,-51.5 728,-70.5"/>
<text text-anchor="middle" x="650" y="-58.5" font-family="Helvetica,sans-Serif" font-size="10.00">Struktury.Zdarzenie.getDuration</text>
</a>
</g>
</g>
<!-- Node2 -->
<g id="node2" class="node">
<title>Node2</title>
<g id="a_node2"><a xlink:href="classStruktury_1_1Zdarzenie.html#a457c3820ca9a3945dd6050a66de10072" target="_top" xlink:title=" ">
<polygon fill="white" stroke="#666666" points="536,-107.5 357,-107.5 357,-88.5 536,-88.5 536,-107.5"/>
<text text-anchor="middle" x="446.5" y="-95.5" font-family="Helvetica,sans-Serif" font-size="10.00">Struktury.Zdarzenie.CzyPorównywać</text>
</a>
</g>
</g>
<!-- Node1&#45;&gt;Node2 -->
<g id="edge1" class="edge">
<title>Node1&#45;&gt;Node2</title>
<path fill="none" stroke="#63b8ff" d="M587.02,-72.38C559.01,-77.52 526.28,-83.53 499.57,-88.44"/>
<polygon fill="#63b8ff" stroke="#63b8ff" points="587.91,-75.78 597.11,-70.53 586.64,-68.89 587.91,-75.78"/>
</g>
<!-- Node3 -->
<g id="node3" class="node">
<title>Node3</title>
<g id="a_node3"><a xlink:href="classMotywy_1_1Fragmenty.html#a625e43ec2c0a7c705a0235fb23e9abc3" target="_top" xlink:title=" ">
<polygon fill="white" stroke="#666666" points="532,-70.5 361,-70.5 361,-51.5 532,-51.5 532,-70.5"/>
<text text-anchor="middle" x="446.5" y="-58.5" font-family="Helvetica,sans-Serif" font-size="10.00">Motywy.Fragmenty.MotywInterwały</text>
</a>
</g>
</g>
<!-- Node1&#45;&gt;Node3 -->
<g id="edge2" class="edge">
<title>Node1&#45;&gt;Node3</title>
<path fill="none" stroke="#63b8ff" d="M561.81,-61C551.99,-61 542,-61 532.22,-61"/>
<polygon fill="#63b8ff" stroke="#63b8ff" points="561.96,-64.5 571.96,-61 561.96,-57.5 561.96,-64.5"/>
</g>
<!-- Node6 -->
<g id="node6" class="node">
<title>Node6</title>
<g id="a_node6"><a xlink:href="classStruktury_1_1Zdarzenie.html#aabe9ff88a651b399d084a77e860cc349" target="_top" xlink:title=" ">
<polygon fill="white" stroke="#666666" points="517.5,-32 375.5,-32 375.5,-2 517.5,-2 517.5,-32"/>
<text text-anchor="start" x="383.5" y="-20" font-family="Helvetica,sans-Serif" font-size="10.00">Struktury.Zdarzenie.Różnica</text>
<text text-anchor="middle" x="446.5" y="-9" font-family="Helvetica,sans-Serif" font-size="10.00">Metryczna</text>
</a>
</g>
</g>
<!-- Node1&#45;&gt;Node6 -->
<g id="edge5" class="edge">
<title>Node1&#45;&gt;Node6</title>
<path fill="none" stroke="#63b8ff" d="M595.23,-49.26C571.05,-43.98 542.23,-37.69 516.49,-32.07"/>
<polygon fill="#63b8ff" stroke="#63b8ff" points="594.76,-52.74 605.28,-51.45 596.25,-45.9 594.76,-52.74"/>
</g>
<!-- Node4 -->
<g id="node4" class="node">
<title>Node4</title>
<g id="a_node4"><a xlink:href="classMotywy_1_1Fragmenty.html#af142a18268a561dcafe100a07e2b1928" target="_top" xlink:title=" ">
<polygon fill="white" stroke="#666666" points="316.5,-78 182.5,-78 182.5,-48 316.5,-48 316.5,-78"/>
<text text-anchor="start" x="190.5" y="-66" font-family="Helvetica,sans-Serif" font-size="10.00">Motywy.Fragmenty.Utwórz</text>
<text text-anchor="middle" x="249.5" y="-55" font-family="Helvetica,sans-Serif" font-size="10.00">MacierzMotywów</text>
</a>
</g>
</g>
<!-- Node3&#45;&gt;Node4 -->
<g id="edge3" class="edge">
<title>Node3&#45;&gt;Node4</title>
<path fill="none" stroke="#63b8ff" d="M350.72,-61.97C339.18,-62.09 327.6,-62.21 316.61,-62.32"/>
<polygon fill="#63b8ff" stroke="#63b8ff" points="350.86,-65.47 360.82,-61.87 350.79,-58.47 350.86,-65.47"/>
</g>
<!-- Node5 -->
<g id="node5" class="node">
<title>Node5</title>
<g id="a_node5"><a xlink:href="classporownania_1_1Rezultat.html#abfab722f91bb304108e01333fdbf5cf3" target="_top" xlink:title=" ">
<polygon fill="white" stroke="#666666" points="142,-72.5 0,-72.5 0,-53.5 142,-53.5 142,-72.5"/>
<text text-anchor="middle" x="71" y="-60.5" font-family="Helvetica,sans-Serif" font-size="10.00">porownania.Rezultat.toString</text>
</a>
</g>
</g>
<!-- Node4&#45;&gt;Node5 -->
<g id="edge4" class="edge">
<title>Node4&#45;&gt;Node5</title>
<path fill="none" stroke="#63b8ff" d="M172.02,-63C162.09,-63 151.96,-63 142.14,-63"/>
<polygon fill="#63b8ff" stroke="#63b8ff" points="172.28,-66.5 182.28,-63 172.28,-59.5 172.28,-66.5"/>
</g>
<!-- Node7 -->
<g id="node7" class="node">
<title>Node7</title>
<g id="a_node7"><a xlink:href="classStruktury_1_1Zdarzenie.html#aca10ea59105918d18ac2b9b60fc9febe" target="_top" xlink:title=" ">
<polygon fill="white" stroke="#666666" points="321,-30 178,-30 178,0 321,0 321,-30"/>
<text text-anchor="start" x="186" y="-18" font-family="Helvetica,sans-Serif" font-size="10.00">Struktury.Zdarzenie.getMiarę</text>
<text text-anchor="middle" x="249.5" y="-7" font-family="Helvetica,sans-Serif" font-size="10.00">Różnicy</text>
</a>
</g>
</g>
<!-- Node6&#45;&gt;Node7 -->
<g id="edge6" class="edge">
<title>Node6&#45;&gt;Node7</title>
<path fill="none" stroke="#63b8ff" d="M365.37,-16.18C350.76,-16.03 335.62,-15.87 321.31,-15.73"/>
<polygon fill="#63b8ff" stroke="#63b8ff" points="365.34,-19.68 375.38,-16.28 365.41,-12.68 365.34,-19.68"/>
</g>
</g>
</svg>
