<?xml version="1.0" encoding="UTF-8" standalone="no"?>
<!DOCTYPE svg PUBLIC "-//W3C//DTD SVG 1.1//EN"
 "http://www.w3.org/Graphics/SVG/1.1/DTD/svg11.dtd">
<!-- Generated by graphviz version 2.49.3 (0)
 -->
<!-- Title: Motywy.PorównanieZZadanym.NadajWagi Pages: 1 -->
<svg width="354pt" height="124pt"
 viewBox="0.00 0.00 354.00 123.50" xmlns="http://www.w3.org/2000/svg" xmlns:xlink="http://www.w3.org/1999/xlink">
<g id="graph0" class="graph" transform="scale(1 1) rotate(0) translate(4 119.5)">
<title>Motywy.PorównanieZZadanym.NadajWagi</title>
<!-- Node1 -->
<g id="node1" class="node">
<title>Node1</title>
<g id="a_node1"><a xlink:title=" ">
<polygon fill="#999999" stroke="#666666" points="154,-67.5 0,-67.5 0,-37.5 154,-37.5 154,-67.5"/>
<text text-anchor="start" x="8" y="-55.5" font-family="Helvetica,sans-Serif" font-size="10.00">Motywy.PorównanieZZadanym.</text>
<text text-anchor="middle" x="77" y="-44.5" font-family="Helvetica,sans-Serif" font-size="10.00">NadajWagi</text>
</a>
</g>
</g>
<!-- Node2 -->
<g id="node2" class="node">
<title>Node2</title>
<g id="a_node2"><a xlink:href="classMotywy_1_1Motyw.html#a390f9d1acc3c0862c70b71bc7f13f931" target="_top" xlink:title=" ">
<polygon fill="white" stroke="#666666" points="340.5,-115.5 195.5,-115.5 195.5,-85.5 340.5,-85.5 340.5,-115.5"/>
<text text-anchor="start" x="203.5" y="-103.5" font-family="Helvetica,sans-Serif" font-size="10.00">Motywy.Motyw.getReferencję</text>
<text text-anchor="middle" x="268" y="-92.5" font-family="Helvetica,sans-Serif" font-size="10.00">DoMotywu</text>
</a>
</g>
</g>
<!-- Node1&#45;&gt;Node2 -->
<g id="edge1" class="edge">
<title>Node1&#45;&gt;Node2</title>
<path fill="none" stroke="#63b8ff" d="M137.28,-67.56C156.55,-72.45 178.09,-77.92 198,-82.98"/>
<polygon fill="#63b8ff" stroke="#63b8ff" points="197.37,-86.43 207.93,-85.5 199.1,-79.64 197.37,-86.43"/>
</g>
<!-- Node3 -->
<g id="node3" class="node">
<title>Node3</title>
<g id="a_node3"><a xlink:href="classStruktury_1_1ArkuszZdarzenie.html#a3e1eb6a41e16bd31dfb9c7525f58b11b" target="_top" xlink:title=" ">
<polygon fill="white" stroke="#666666" points="343.5,-67.5 192.5,-67.5 192.5,-37.5 343.5,-37.5 343.5,-67.5"/>
<text text-anchor="start" x="200.5" y="-55.5" font-family="Helvetica,sans-Serif" font-size="10.00">Struktury.ArkuszZdarzenie.get</text>
<text text-anchor="middle" x="268" y="-44.5" font-family="Helvetica,sans-Serif" font-size="10.00">Zdarzenie</text>
</a>
</g>
</g>
<!-- Node1&#45;&gt;Node3 -->
<g id="edge2" class="edge">
<title>Node1&#45;&gt;Node3</title>
<path fill="none" stroke="#63b8ff" d="M154.06,-52.5C163.32,-52.5 172.83,-52.5 182.22,-52.5"/>
<polygon fill="#63b8ff" stroke="#63b8ff" points="182.33,-56 192.33,-52.5 182.33,-49 182.33,-56"/>
</g>
<!-- Node4 -->
<g id="node4" class="node">
<title>Node4</title>
<g id="a_node4"><a xlink:href="classStruktury_1_1Zdarzenie.html#abfe72b5a3dc76cd1907abdbd9ea38c0f" target="_top" xlink:title=" ">
<polygon fill="white" stroke="#666666" points="346,-19 190,-19 190,0 346,0 346,-19"/>
<text text-anchor="middle" x="268" y="-7" font-family="Helvetica,sans-Serif" font-size="10.00">Struktury.Zdarzenie.UstawWagi</text>
</a>
</g>
</g>
<!-- Node1&#45;&gt;Node4 -->
<g id="edge3" class="edge">
<title>Node1&#45;&gt;Node4</title>
<path fill="none" stroke="#63b8ff" d="M144.1,-37.46C167.46,-32.15 193.36,-26.25 215.35,-21.25"/>
<polygon fill="#63b8ff" stroke="#63b8ff" points="216.17,-24.65 225.15,-19.02 214.62,-17.83 216.17,-24.65"/>
</g>
</g>
</svg>
