<?xml version="1.0" encoding="UTF-8" standalone="no"?>
<!DOCTYPE svg PUBLIC "-//W3C//DTD SVG 1.1//EN"
 "http://www.w3.org/Graphics/SVG/1.1/DTD/svg11.dtd">
<!-- Generated by graphviz version 2.49.3 (0)
 -->
<!-- Title: Struktury.Arkusz.setKomórkę Pages: 1 -->
<svg width="752pt" height="236pt"
 viewBox="0.00 0.00 752.00 236.00" xmlns="http://www.w3.org/2000/svg" xmlns:xlink="http://www.w3.org/1999/xlink">
<g id="graph0" class="graph" transform="scale(1 1) rotate(0) translate(4 232)">
<title>Struktury.Arkusz.setKomórkę</title>
<!-- Node1 -->
<g id="node1" class="node">
<title>Node1</title>
<g id="a_node1"><a xlink:title=" ">
<polygon fill="#999999" stroke="#666666" points="744,-131.5 597,-131.5 597,-112.5 744,-112.5 744,-131.5"/>
<text text-anchor="middle" x="670.5" y="-119.5" font-family="Helvetica,sans-Serif" font-size="10.00">Struktury.Arkusz.setKomórkę</text>
</a>
</g>
</g>
<!-- Node2 -->
<g id="node2" class="node">
<title>Node2</title>
<g id="a_node2"><a xlink:href="classStruktury_1_1Interpreter.html#abfa2bbe5356269e3d3218957bd43ad81" target="_top" xlink:title=" ">
<polygon fill="white" stroke="#666666" points="555,-228 409,-228 409,-198 555,-198 555,-228"/>
<text text-anchor="start" x="417" y="-216" font-family="Helvetica,sans-Serif" font-size="10.00">Struktury.Interpreter.Przepisz</text>
<text text-anchor="middle" x="482" y="-205" font-family="Helvetica,sans-Serif" font-size="10.00">Arkusz</text>
</a>
</g>
</g>
<!-- Node1&#45;&gt;Node2 -->
<g id="edge1" class="edge">
<title>Node1&#45;&gt;Node2</title>
<path fill="none" stroke="#63b8ff" d="M648.13,-137.48C626.88,-152.31 592.93,-174.52 561,-189 553.77,-192.28 545.98,-195.27 538.21,-197.94"/>
<polygon fill="#63b8ff" stroke="#63b8ff" points="650.27,-140.25 656.42,-131.62 646.23,-134.54 650.27,-140.25"/>
</g>
<!-- Node4 -->
<g id="node4" class="node">
<title>Node4</title>
<g id="a_node4"><a xlink:href="classMotywy_1_1Motyw.html#a55de8318b53ff34ad9e675a6d89dd711" target="_top" xlink:title=" ">
<polygon fill="white" stroke="#666666" points="556.5,-180 407.5,-180 407.5,-150 556.5,-150 556.5,-180"/>
<text text-anchor="start" x="415.5" y="-168" font-family="Helvetica,sans-Serif" font-size="10.00">Motywy.Motyw.UtwórzArkusz</text>
<text text-anchor="middle" x="482" y="-157" font-family="Helvetica,sans-Serif" font-size="10.00">DoMotywu</text>
</a>
</g>
</g>
<!-- Node1&#45;&gt;Node4 -->
<g id="edge3" class="edge">
<title>Node1&#45;&gt;Node4</title>
<path fill="none" stroke="#63b8ff" d="M618.13,-133.84C596.48,-138.84 571.03,-144.7 548.09,-149.99"/>
<polygon fill="#63b8ff" stroke="#63b8ff" points="619.15,-137.2 628.11,-131.54 617.58,-130.38 619.15,-137.2"/>
</g>
<!-- Node6 -->
<g id="node6" class="node">
<title>Node6</title>
<g id="a_node6"><a xlink:href="classStruktury_1_1Interpreter.html#a8d912ec5e4e42eaf2aac5f3f524e0172" target="_top" xlink:title=" ">
<polygon fill="white" stroke="#666666" points="351,-137 204,-137 204,-107 351,-107 351,-137"/>
<text text-anchor="start" x="212" y="-125" font-family="Helvetica,sans-Serif" font-size="10.00">Struktury.Interpreter.Uzupełnij</text>
<text text-anchor="middle" x="277.5" y="-114" font-family="Helvetica,sans-Serif" font-size="10.00">NumeryTaktów</text>
</a>
</g>
</g>
<!-- Node1&#45;&gt;Node6 -->
<g id="edge5" class="edge">
<title>Node1&#45;&gt;Node6</title>
<path fill="none" stroke="#63b8ff" d="M586.79,-122C516.93,-122 417.88,-122 351.07,-122"/>
<polygon fill="#63b8ff" stroke="#63b8ff" points="586.87,-125.5 596.87,-122 586.87,-118.5 586.87,-125.5"/>
</g>
<!-- Node7 -->
<g id="node7" class="node">
<title>Node7</title>
<g id="a_node7"><a xlink:href="classStruktury_1_1Interpreter.html#a25a48e8f946a2b064cbfef8be68e1820" target="_top" xlink:title=" ">
<polygon fill="white" stroke="#666666" points="556.5,-94 407.5,-94 407.5,-64 556.5,-64 556.5,-94"/>
<text text-anchor="start" x="415.5" y="-82" font-family="Helvetica,sans-Serif" font-size="10.00">Struktury.Interpreter.Walidacja</text>
<text text-anchor="middle" x="482" y="-71" font-family="Helvetica,sans-Serif" font-size="10.00">Liczb</text>
</a>
</g>
</g>
<!-- Node1&#45;&gt;Node7 -->
<g id="edge7" class="edge">
<title>Node1&#45;&gt;Node7</title>
<path fill="none" stroke="#63b8ff" d="M618.13,-110.16C596.48,-105.16 571.03,-99.3 548.09,-94.01"/>
<polygon fill="#63b8ff" stroke="#63b8ff" points="617.58,-113.62 628.11,-112.46 619.15,-106.8 617.58,-113.62"/>
</g>
<!-- Node8 -->
<g id="node8" class="node">
<title>Node8</title>
<g id="a_node8"><a xlink:href="classStruktury_1_1PlikCSV.html#af927acf502973c4c1abb99e1d1995ccb" target="_top" xlink:title=" ">
<polygon fill="white" stroke="#666666" points="561,-45.5 403,-45.5 403,-26.5 561,-26.5 561,-45.5"/>
<text text-anchor="middle" x="482" y="-33.5" font-family="Helvetica,sans-Serif" font-size="10.00">Struktury.PlikCSV.WczytajDane</text>
</a>
</g>
</g>
<!-- Node1&#45;&gt;Node8 -->
<g id="edge9" class="edge">
<title>Node1&#45;&gt;Node8</title>
<path fill="none" stroke="#63b8ff" d="M648.66,-106.35C627.57,-91.21 593.53,-68.6 561,-55 552,-51.24 542.09,-48.11 532.44,-45.55"/>
<polygon fill="#63b8ff" stroke="#63b8ff" points="646.72,-109.27 656.86,-112.34 650.85,-103.62 646.72,-109.27"/>
</g>
<!-- Node3 -->
<g id="node3" class="node">
<title>Node3</title>
<g id="a_node3"><a xlink:href="classStruktury_1_1Interpreter.html#a4c2426a0220ccfab53ef88b4ef68e5ab" target="_top" xlink:title=" ">
<polygon fill="white" stroke="#666666" points="152,-174.5 0,-174.5 0,-155.5 152,-155.5 152,-174.5"/>
<text text-anchor="middle" x="76" y="-162.5" font-family="Helvetica,sans-Serif" font-size="10.00">Struktury.Interpreter.Interpreter</text>
</a>
</g>
</g>
<!-- Node2&#45;&gt;Node3 -->
<g id="edge2" class="edge">
<title>Node2&#45;&gt;Node3</title>
<path fill="none" stroke="#63b8ff" d="M398.91,-206.44C340.07,-201.36 258.99,-193.58 188,-184 168.33,-181.35 146.81,-177.81 128,-174.51"/>
<polygon fill="#63b8ff" stroke="#63b8ff" points="398.63,-209.93 408.89,-207.3 399.22,-202.96 398.63,-209.93"/>
</g>
<!-- Node5 -->
<g id="node5" class="node">
<title>Node5</title>
<g id="a_node5"><a xlink:href="classMotywy_1_1Motyw.html#a4aa102f003e3374eb1e38784d2d7666d" target="_top" xlink:title=" ">
<polygon fill="white" stroke="#666666" points="334.5,-174.5 220.5,-174.5 220.5,-155.5 334.5,-155.5 334.5,-174.5"/>
<text text-anchor="middle" x="277.5" y="-162.5" font-family="Helvetica,sans-Serif" font-size="10.00">Motywy.Motyw.Motyw</text>
</a>
</g>
</g>
<!-- Node4&#45;&gt;Node5 -->
<g id="edge4" class="edge">
<title>Node4&#45;&gt;Node5</title>
<path fill="none" stroke="#63b8ff" d="M397.09,-165C376.05,-165 353.98,-165 334.66,-165"/>
<polygon fill="#63b8ff" stroke="#63b8ff" points="397.32,-168.5 407.32,-165 397.32,-161.5 397.32,-168.5"/>
</g>
<!-- Node6&#45;&gt;Node3 -->
<g id="edge6" class="edge">
<title>Node6&#45;&gt;Node3</title>
<path fill="none" stroke="#63b8ff" d="M196.94,-139.15C171.13,-144.71 143.44,-150.68 121.18,-155.48"/>
<polygon fill="#63b8ff" stroke="#63b8ff" points="197.69,-142.57 206.72,-137.04 196.21,-135.72 197.69,-142.57"/>
</g>
<!-- Node7&#45;&gt;Node6 -->
<g id="edge8" class="edge">
<title>Node7&#45;&gt;Node6</title>
<path fill="none" stroke="#63b8ff" d="M400.34,-96.13C383.46,-99.71 365.78,-103.47 349.28,-106.97"/>
<polygon fill="#63b8ff" stroke="#63b8ff" points="401.12,-99.54 410.18,-94.04 399.67,-92.69 401.12,-99.54"/>
</g>
<!-- Node9 -->
<g id="node9" class="node">
<title>Node9</title>
<g id="a_node9"><a xlink:href="classporownania_1_1AnalizaPor_xC3_xB3wnawcza.html#a4fb7b99f4ed968c3c62c6fa132b19938" target="_top" xlink:title=" ">
<polygon fill="white" stroke="#666666" points="367,-67.5 188,-67.5 188,-48.5 367,-48.5 367,-67.5"/>
<text text-anchor="middle" x="277.5" y="-55.5" font-family="Helvetica,sans-Serif" font-size="10.00">porownania.AnalizaPorównawcza.run</text>
</a>
</g>
</g>
<!-- Node8&#45;&gt;Node9 -->
<g id="edge10" class="edge">
<title>Node8&#45;&gt;Node9</title>
<path fill="none" stroke="#63b8ff" d="M393.04,-45.56C384.15,-46.52 375.13,-47.5 366.24,-48.47"/>
<polygon fill="#63b8ff" stroke="#63b8ff" points="393.43,-49.03 403,-44.47 392.68,-42.07 393.43,-49.03"/>
</g>
<!-- Node10 -->
<g id="node10" class="node">
<title>Node10</title>
<g id="a_node10"><a xlink:href="classporownania_1_1WalidacjaPlik_xC3_xB3wCSV.html#a06f04fa5de0447a788775285f24793d1" target="_top" xlink:title=" ">
<polygon fill="white" stroke="#666666" points="347.5,-30 207.5,-30 207.5,0 347.5,0 347.5,-30"/>
<text text-anchor="start" x="215.5" y="-18" font-family="Helvetica,sans-Serif" font-size="10.00">porownania.WalidacjaPlików</text>
<text text-anchor="middle" x="277.5" y="-7" font-family="Helvetica,sans-Serif" font-size="10.00">CSV.run</text>
</a>
</g>
</g>
<!-- Node8&#45;&gt;Node10 -->
<g id="edge11" class="edge">
<title>Node8&#45;&gt;Node10</title>
<path fill="none" stroke="#63b8ff" d="M392.62,-26.84C377.53,-25.27 362.04,-23.66 347.54,-22.16"/>
<polygon fill="#63b8ff" stroke="#63b8ff" points="392.69,-30.36 403,-27.91 393.41,-23.4 392.69,-30.36"/>
</g>
</g>
</svg>
