<?xml version="1.0" encoding="UTF-8" standalone="no"?>
<!DOCTYPE svg PUBLIC "-//W3C//DTD SVG 1.1//EN"
 "http://www.w3.org/Graphics/SVG/1.1/DTD/svg11.dtd">
<!-- Generated by graphviz version 2.49.3 (0)
 -->
<!-- Title: porownania.ZapisywanieTekstuDoPliku Pages: 1 -->
<svg width="282pt" height="313pt"
 viewBox="0.00 0.00 281.50 313.00" xmlns="http://www.w3.org/2000/svg" xmlns:xlink="http://www.w3.org/1999/xlink">
<g id="graph0" class="graph" transform="scale(1 1) rotate(0) translate(4 309)">
<title>porownania.ZapisywanieTekstuDoPliku</title>
<!-- Node1 -->
<g id="node1" class="node">
<title>Node1</title>
<g id="a_node1"><a xlink:title=" ">
<polygon fill="#999999" stroke="#666666" points="179,-228 24,-228 24,0 179,0 179,-228"/>
<text text-anchor="start" x="32" y="-216" font-family="Helvetica,sans-Serif" font-size="10.00">{porownania.ZapisywanieTekstu</text>
<text text-anchor="middle" x="101.5" y="-205" font-family="Helvetica,sans-Serif" font-size="10.00">DoPliku</text>
<text text-anchor="start" x="32" y="-194" font-family="Helvetica,sans-Serif" font-size="10.00">|+ PRZED_OTWARCIEM</text>
<text text-anchor="start" x="32" y="-183" font-family="Helvetica,sans-Serif" font-size="10.00">+ PLIK_OTWARTY</text>
<text text-anchor="start" x="32" y="-172" font-family="Helvetica,sans-Serif" font-size="10.00">+ PLIKU_NIE_UDAŁO_SIĘ</text>
<text text-anchor="start" x="32" y="-161" font-family="Helvetica,sans-Serif" font-size="10.00">_OTWORZYĆ</text>
<text text-anchor="start" x="32" y="-150" font-family="Helvetica,sans-Serif" font-size="10.00">+ ZAPIS_UDANY</text>
<text text-anchor="start" x="32" y="-139" font-family="Helvetica,sans-Serif" font-size="10.00">+ ZAPIS_NIEUDANY</text>
<text text-anchor="start" x="32" y="-128" font-family="Helvetica,sans-Serif" font-size="10.00">+ PLIK_JUŻ_ISTNIEJE</text>
<text text-anchor="start" x="32" y="-117" font-family="Helvetica,sans-Serif" font-size="10.00">+ PLIK_ZAMKNIĘTY</text>
<text text-anchor="start" x="32" y="-106" font-family="Helvetica,sans-Serif" font-size="10.00">+ BŁĄD_ZAMKNIĘCIA</text>
<text text-anchor="start" x="32" y="-95" font-family="Helvetica,sans-Serif" font-size="10.00">&#45; StatusPliku</text>
<text text-anchor="start" x="32" y="-84" font-family="Helvetica,sans-Serif" font-size="10.00">&#45; NazwaPliku</text>
<text text-anchor="start" x="32" y="-73" font-family="Helvetica,sans-Serif" font-size="10.00">|+ ZapisywanieTekstuDoPliku()</text>
<text text-anchor="start" x="32" y="-62" font-family="Helvetica,sans-Serif" font-size="10.00">+ getStatusPliku()</text>
<text text-anchor="start" x="32" y="-51" font-family="Helvetica,sans-Serif" font-size="10.00">+ OtwórzPlik()</text>
<text text-anchor="start" x="32" y="-40" font-family="Helvetica,sans-Serif" font-size="10.00">+ ZapiszTekst()</text>
<text text-anchor="start" x="32" y="-29" font-family="Helvetica,sans-Serif" font-size="10.00">+ ZamknijPlik()</text>
<text text-anchor="start" x="32" y="-18" font-family="Helvetica,sans-Serif" font-size="10.00">&#45; UtwórzStrumieńDoZapisu()</text>
<text text-anchor="middle" x="101.5" y="-7" font-family="Helvetica,sans-Serif" font-size="10.00">}</text>
</a>
</g>
</g>
<!-- Node2 -->
<g id="node2" class="node">
<title>Node2</title>
<g id="a_node2"><a xlink:title=" ">
<polygon fill="white" stroke="#666666" points="35,-305 0,-305 0,-275 35,-275 35,-305"/>
<text text-anchor="middle" x="17.5" y="-293" font-family="Helvetica,sans-Serif" font-size="10.00">{File</text>
<text text-anchor="middle" x="17.5" y="-282" font-family="Helvetica,sans-Serif" font-size="10.00">||}</text>
</a>
</g>
</g>
<!-- Node2&#45;&gt;Node1 -->
<g id="edge1" class="edge">
<title>Node2&#45;&gt;Node1</title>
<path fill="none" stroke="#404040" d="M24.37,-274.76C28.68,-265.84 34.7,-253.37 41.49,-239.31"/>
<polygon fill="none" stroke="#404040" points="41.6,-239.08 40.61,-231.93 46.82,-228.27 47.81,-235.41 41.6,-239.08"/>
<text text-anchor="middle" x="50" y="-249" font-family="Helvetica,sans-Serif" font-size="10.00"> &#45;Plik</text>
</g>
<!-- Node3 -->
<g id="node3" class="node">
<title>Node3</title>
<g id="a_node3"><a xlink:title=" ">
<polygon fill="white" stroke="#666666" points="149.5,-305 53.5,-305 53.5,-275 149.5,-275 149.5,-305"/>
<text text-anchor="middle" x="101.5" y="-293" font-family="Helvetica,sans-Serif" font-size="10.00">{FileOutputStream</text>
<text text-anchor="middle" x="101.5" y="-282" font-family="Helvetica,sans-Serif" font-size="10.00">||}</text>
</a>
</g>
</g>
<!-- Node3&#45;&gt;Node1 -->
<g id="edge2" class="edge">
<title>Node3&#45;&gt;Node1</title>
<path fill="none" stroke="#404040" d="M101.5,-274.76C101.5,-266.1 101.5,-254.1 101.5,-240.54"/>
<polygon fill="none" stroke="#404040" points="101.5,-240.27 97.5,-234.27 101.5,-228.27 105.5,-234.27 101.5,-240.27"/>
<text text-anchor="middle" x="142.5" y="-249" font-family="Helvetica,sans-Serif" font-size="10.00"> ~StrumieńPlikowy</text>
</g>
<!-- Node4 -->
<g id="node4" class="node">
<title>Node4</title>
<g id="a_node4"><a xlink:title=" ">
<polygon fill="white" stroke="#666666" points="273.5,-305 167.5,-305 167.5,-275 273.5,-275 273.5,-305"/>
<text text-anchor="middle" x="220.5" y="-293" font-family="Helvetica,sans-Serif" font-size="10.00">{OutputStreamWriter</text>
<text text-anchor="middle" x="220.5" y="-282" font-family="Helvetica,sans-Serif" font-size="10.00">||}</text>
</a>
</g>
</g>
<!-- Node4&#45;&gt;Node1 -->
<g id="edge3" class="edge">
<title>Node4&#45;&gt;Node1</title>
<path fill="none" stroke="#404040" d="M210.76,-274.76C204.54,-265.66 195.8,-252.88 185.95,-238.48"/>
<polygon fill="none" stroke="#404040" points="185.74,-238.17 179.05,-235.48 178.97,-228.27 185.65,-230.96 185.74,-238.17"/>
<text text-anchor="middle" x="228" y="-249" font-family="Helvetica,sans-Serif" font-size="10.00"> ~Zapisywacz</text>
</g>
</g>
</svg>
