<?xml version="1.0" encoding="UTF-8" standalone="no"?>
<!DOCTYPE svg PUBLIC "-//W3C//DTD SVG 1.1//EN"
 "http://www.w3.org/Graphics/SVG/1.1/DTD/svg11.dtd">
<!-- Generated by graphviz version 2.49.3 (0)
 -->
<!-- Title: porownania.GłówneOknoProgramu.SterowanieWalidacją Pages: 1 -->
<svg width="590pt" height="230pt"
 viewBox="0.00 0.00 590.00 230.00" xmlns="http://www.w3.org/2000/svg" xmlns:xlink="http://www.w3.org/1999/xlink">
<g id="graph0" class="graph" transform="scale(1 1) rotate(0) translate(4 226)">
<title>porownania.GłówneOknoProgramu.SterowanieWalidacją</title>
<!-- Node1 -->
<g id="node1" class="node">
<title>Node1</title>
<g id="a_node1"><a xlink:title=" ">
<polygon fill="#999999" stroke="#666666" points="582,-126 412,-126 412,-96 582,-96 582,-126"/>
<text text-anchor="start" x="420" y="-114" font-family="Helvetica,sans-Serif" font-size="10.00">porownania.GłówneOknoProgramu.</text>
<text text-anchor="middle" x="497" y="-103" font-family="Helvetica,sans-Serif" font-size="10.00">SterowanieWalidacją</text>
</a>
</g>
</g>
<!-- Node2 -->
<g id="node2" class="node">
<title>Node2</title>
<g id="a_node2"><a xlink:href="classporownania_1_1G_xC5_x82_xC3_xB3wneOknoProgramu.html#ac3ba41ea74f3bd870c628b9d4fd131a8" target="_top" xlink:title=" ">
<polygon fill="white" stroke="#666666" points="376,-222 206,-222 206,-192 376,-192 376,-222"/>
<text text-anchor="start" x="214" y="-210" font-family="Helvetica,sans-Serif" font-size="10.00">porownania.GłówneOknoProgramu.</text>
<text text-anchor="middle" x="291" y="-199" font-family="Helvetica,sans-Serif" font-size="10.00">InicjalizacjaWstępnaMenu</text>
</a>
</g>
</g>
<!-- Node1&#45;&gt;Node2 -->
<g id="edge1" class="edge">
<title>Node1&#45;&gt;Node2</title>
<path fill="none" stroke="#63b8ff" d="M466.32,-131.82C442.72,-147.62 408.41,-168.94 376,-183 368.35,-186.32 360.11,-189.32 351.88,-191.99"/>
<polygon fill="#63b8ff" stroke="#63b8ff" points="468.49,-134.58 474.81,-126.07 464.57,-128.78 468.49,-134.58"/>
</g>
<!-- Node4 -->
<g id="node4" class="node">
<title>Node4</title>
<g id="a_node4"><a xlink:href="classporownania_1_1G_xC5_x82_xC3_xB3wneOknoProgramu.html#ae7bb602356fcb5d8dd498cca74c07622" target="_top" xlink:title=" ">
<polygon fill="white" stroke="#666666" points="376,-174 206,-174 206,-144 376,-144 376,-174"/>
<text text-anchor="start" x="214" y="-162" font-family="Helvetica,sans-Serif" font-size="10.00">porownania.GłówneOknoProgramu.</text>
<text text-anchor="middle" x="291" y="-151" font-family="Helvetica,sans-Serif" font-size="10.00">PodajPlikWynikowy</text>
</a>
</g>
</g>
<!-- Node1&#45;&gt;Node4 -->
<g id="edge3" class="edge">
<title>Node1&#45;&gt;Node4</title>
<path fill="none" stroke="#63b8ff" d="M422.17,-128.37C400.42,-133.49 376.82,-139.04 355.76,-144"/>
<polygon fill="#63b8ff" stroke="#63b8ff" points="423.08,-131.75 432.01,-126.06 421.48,-124.94 423.08,-131.75"/>
</g>
<!-- Node5 -->
<g id="node5" class="node">
<title>Node5</title>
<g id="a_node5"><a xlink:href="classporownania_1_1G_xC5_x82_xC3_xB3wneOknoProgramu.html#afa4bb7b926964c68d8e876f5564fce36" target="_top" xlink:title=" ">
<polygon fill="white" stroke="#666666" points="376,-126 206,-126 206,-96 376,-96 376,-126"/>
<text text-anchor="start" x="214" y="-114" font-family="Helvetica,sans-Serif" font-size="10.00">porownania.GłówneOknoProgramu.</text>
<text text-anchor="middle" x="291" y="-103" font-family="Helvetica,sans-Serif" font-size="10.00">WczytajKatalogCSV</text>
</a>
</g>
</g>
<!-- Node1&#45;&gt;Node5 -->
<g id="edge4" class="edge">
<title>Node1&#45;&gt;Node5</title>
<path fill="none" stroke="#63b8ff" d="M401.6,-111C393.15,-111 384.64,-111 376.29,-111"/>
<polygon fill="#63b8ff" stroke="#63b8ff" points="401.85,-114.5 411.85,-111 401.85,-107.5 401.85,-114.5"/>
</g>
<!-- Node6 -->
<g id="node6" class="node">
<title>Node6</title>
<g id="a_node6"><a xlink:href="classporownania_1_1G_xC5_x82_xC3_xB3wneOknoProgramu.html#a9894b94e953226b8107ba38b9e841c0d" target="_top" xlink:title=" ">
<polygon fill="white" stroke="#666666" points="376,-78 206,-78 206,-48 376,-48 376,-78"/>
<text text-anchor="start" x="214" y="-66" font-family="Helvetica,sans-Serif" font-size="10.00">porownania.GłówneOknoProgramu.</text>
<text text-anchor="middle" x="291" y="-55" font-family="Helvetica,sans-Serif" font-size="10.00">WczytajPlikDoZapisuWalidacji</text>
</a>
</g>
</g>
<!-- Node1&#45;&gt;Node6 -->
<g id="edge5" class="edge">
<title>Node1&#45;&gt;Node6</title>
<path fill="none" stroke="#63b8ff" d="M422.17,-93.63C400.42,-88.51 376.82,-82.96 355.76,-78"/>
<polygon fill="#63b8ff" stroke="#63b8ff" points="421.48,-97.06 432.01,-95.94 423.08,-90.25 421.48,-97.06"/>
</g>
<!-- Node7 -->
<g id="node7" class="node">
<title>Node7</title>
<g id="a_node7"><a xlink:href="classporownania_1_1G_xC5_x82_xC3_xB3wneOknoProgramu.html#a3762b771d85c371f427a6f4724b1eb64" target="_top" xlink:title=" ">
<polygon fill="white" stroke="#666666" points="376,-30 206,-30 206,0 376,0 376,-30"/>
<text text-anchor="start" x="214" y="-18" font-family="Helvetica,sans-Serif" font-size="10.00">porownania.GłówneOknoProgramu.</text>
<text text-anchor="middle" x="291" y="-7" font-family="Helvetica,sans-Serif" font-size="10.00">WczytajPojedynczyPlikCSV</text>
</a>
</g>
</g>
<!-- Node1&#45;&gt;Node7 -->
<g id="edge6" class="edge">
<title>Node1&#45;&gt;Node7</title>
<path fill="none" stroke="#63b8ff" d="M466.32,-90.18C442.72,-74.38 408.41,-53.06 376,-39 368.35,-35.68 360.11,-32.68 351.88,-30.01"/>
<polygon fill="#63b8ff" stroke="#63b8ff" points="464.57,-93.22 474.81,-95.93 468.49,-87.42 464.57,-93.22"/>
</g>
<!-- Node3 -->
<g id="node3" class="node">
<title>Node3</title>
<g id="a_node3"><a xlink:href="classporownania_1_1G_xC5_x82_xC3_xB3wneOknoProgramu.html#acbfa8ab2a2eda8388d49dcaba2d5d01f" target="_top" xlink:title=" ">
<polygon fill="white" stroke="#666666" points="170,-222 0,-222 0,-192 170,-192 170,-222"/>
<text text-anchor="start" x="8" y="-210" font-family="Helvetica,sans-Serif" font-size="10.00">porownania.GłówneOknoProgramu.</text>
<text text-anchor="middle" x="85" y="-199" font-family="Helvetica,sans-Serif" font-size="10.00">GłówneOknoProgramu</text>
</a>
</g>
</g>
<!-- Node2&#45;&gt;Node3 -->
<g id="edge2" class="edge">
<title>Node2&#45;&gt;Node3</title>
<path fill="none" stroke="#63b8ff" d="M195.6,-207C187.15,-207 178.64,-207 170.29,-207"/>
<polygon fill="#63b8ff" stroke="#63b8ff" points="195.85,-210.5 205.85,-207 195.85,-203.5 195.85,-210.5"/>
</g>
</g>
</svg>
