<?xml version="1.0" encoding="UTF-8" standalone="no"?>
<!DOCTYPE svg PUBLIC "-//W3C//DTD SVG 1.1//EN"
 "http://www.w3.org/Graphics/SVG/1.1/DTD/svg11.dtd">
<!-- Generated by graphviz version 2.49.3 (0)
 -->
<!-- Title: Motywy.Motyw.getLokalizacjęPoczątku Pages: 1 -->
<svg width="343pt" height="124pt"
 viewBox="0.00 0.00 343.00 123.50" xmlns="http://www.w3.org/2000/svg" xmlns:xlink="http://www.w3.org/1999/xlink">
<g id="graph0" class="graph" transform="scale(1 1) rotate(0) translate(4 119.5)">
<title>Motywy.Motyw.getLokalizacjęPoczątku</title>
<!-- Node1 -->
<g id="node1" class="node">
<title>Node1</title>
<g id="a_node1"><a xlink:title=" ">
<polygon fill="#999999" stroke="#666666" points="335,-67.5 188,-67.5 188,-37.5 335,-37.5 335,-67.5"/>
<text text-anchor="start" x="196" y="-55.5" font-family="Helvetica,sans-Serif" font-size="10.00">Motywy.Motyw.getLokalizację</text>
<text text-anchor="middle" x="261.5" y="-44.5" font-family="Helvetica,sans-Serif" font-size="10.00">Początku</text>
</a>
</g>
</g>
<!-- Node2 -->
<g id="node2" class="node">
<title>Node2</title>
<g id="a_node2"><a xlink:href="classMotywy_1_1Fragmenty.html#afd7562817c9b351e1f74c5a4d0531900" target="_top" xlink:title=" ">
<polygon fill="white" stroke="#666666" points="144,-115.5 8,-115.5 8,-85.5 144,-85.5 144,-115.5"/>
<text text-anchor="start" x="16" y="-103.5" font-family="Helvetica,sans-Serif" font-size="10.00">Motywy.Fragmenty.Generuj</text>
<text text-anchor="middle" x="76" y="-92.5" font-family="Helvetica,sans-Serif" font-size="10.00">TablicęOpisu</text>
</a>
</g>
</g>
<!-- Node1&#45;&gt;Node2 -->
<g id="edge1" class="edge">
<title>Node1&#45;&gt;Node2</title>
<path fill="none" stroke="#63b8ff" d="M193.03,-70.15C173.76,-75.19 152.95,-80.63 134.35,-85.5"/>
<polygon fill="#63b8ff" stroke="#63b8ff" points="194.15,-73.47 202.94,-67.56 192.38,-66.7 194.15,-73.47"/>
</g>
<!-- Node3 -->
<g id="node3" class="node">
<title>Node3</title>
<g id="a_node3"><a xlink:href="classMotywy_1_1Fragmenty.html#acfa236e2c16528208cbbb131c87212c1" target="_top" xlink:title=" ">
<polygon fill="white" stroke="#666666" points="146,-67.5 6,-67.5 6,-37.5 146,-37.5 146,-67.5"/>
<text text-anchor="start" x="14" y="-55.5" font-family="Helvetica,sans-Serif" font-size="10.00">Motywy.Fragmenty.getMiary</text>
<text text-anchor="middle" x="76" y="-44.5" font-family="Helvetica,sans-Serif" font-size="10.00">Motywów</text>
</a>
</g>
</g>
<!-- Node1&#45;&gt;Node3 -->
<g id="edge2" class="edge">
<title>Node1&#45;&gt;Node3</title>
<path fill="none" stroke="#63b8ff" d="M177.84,-52.5C167.2,-52.5 156.4,-52.5 146.01,-52.5"/>
<polygon fill="#63b8ff" stroke="#63b8ff" points="177.98,-56 187.98,-52.5 177.98,-49 177.98,-56"/>
</g>
<!-- Node4 -->
<g id="node4" class="node">
<title>Node4</title>
<g id="a_node4"><a xlink:href="classMotywy_1_1ParaMotyw_xC3_xB3w.html#a550c047510c9b973f12086d4f599f13d" target="_top" xlink:title=" ">
<polygon fill="white" stroke="#666666" points="152,-19 0,-19 0,0 152,0 152,-19"/>
<text text-anchor="middle" x="76" y="-7" font-family="Helvetica,sans-Serif" font-size="10.00">Motywy.ParaMotywów.toString</text>
</a>
</g>
</g>
<!-- Node1&#45;&gt;Node4 -->
<g id="edge3" class="edge">
<title>Node1&#45;&gt;Node4</title>
<path fill="none" stroke="#63b8ff" d="M186.38,-35.13C162.91,-29.63 137.84,-23.76 117.64,-19.02"/>
<polygon fill="#63b8ff" stroke="#63b8ff" points="185.79,-38.59 196.32,-37.46 187.38,-31.77 185.79,-38.59"/>
</g>
</g>
</svg>
