<?xml version="1.0" encoding="UTF-8" standalone="no"?>
<!DOCTYPE svg PUBLIC "-//W3C//DTD SVG 1.1//EN"
 "http://www.w3.org/Graphics/SVG/1.1/DTD/svg11.dtd">
<!-- Generated by graphviz version 2.49.3 (0)
 -->
<!-- Title: Struktury.Zdarzenie.getInterval Pages: 1 -->
<svg width="724pt" height="86pt"
 viewBox="0.00 0.00 724.00 86.00" xmlns="http://www.w3.org/2000/svg" xmlns:xlink="http://www.w3.org/1999/xlink">
<g id="graph0" class="graph" transform="scale(1 1) rotate(0) translate(4 82)">
<title>Struktury.Zdarzenie.getInterval</title>
<!-- Node1 -->
<g id="node1" class="node">
<title>Node1</title>
<g id="a_node1"><a xlink:title=" ">
<polygon fill="#999999" stroke="#666666" points="716,-47.5 564,-47.5 564,-28.5 716,-28.5 716,-47.5"/>
<text text-anchor="middle" x="640" y="-35.5" font-family="Helvetica,sans-Serif" font-size="10.00">Struktury.Zdarzenie.getInterval</text>
</a>
</g>
</g>
<!-- Node2 -->
<g id="node2" class="node">
<title>Node2</title>
<g id="a_node2"><a xlink:href="classMotywy_1_1Fragmenty.html#a625e43ec2c0a7c705a0235fb23e9abc3" target="_top" xlink:title=" ">
<polygon fill="white" stroke="#666666" points="528,-70.5 357,-70.5 357,-51.5 528,-51.5 528,-70.5"/>
<text text-anchor="middle" x="442.5" y="-58.5" font-family="Helvetica,sans-Serif" font-size="10.00">Motywy.Fragmenty.MotywInterwały</text>
</a>
</g>
</g>
<!-- Node1&#45;&gt;Node2 -->
<g id="edge1" class="edge">
<title>Node1&#45;&gt;Node2</title>
<path fill="none" stroke="#63b8ff" d="M553.88,-48.01C544.13,-49.16 534.2,-50.33 524.5,-51.47"/>
<polygon fill="#63b8ff" stroke="#63b8ff" points="554.45,-51.47 563.97,-46.83 553.63,-44.52 554.45,-51.47"/>
</g>
<!-- Node5 -->
<g id="node5" class="node">
<title>Node5</title>
<g id="a_node5"><a xlink:href="classStruktury_1_1Zdarzenie.html#a77bd681c4a6433cf34baf04b3bbc0c56" target="_top" xlink:title=" ">
<polygon fill="white" stroke="#666666" points="513.5,-32 371.5,-32 371.5,-2 513.5,-2 513.5,-32"/>
<text text-anchor="start" x="379.5" y="-20" font-family="Helvetica,sans-Serif" font-size="10.00">Struktury.Zdarzenie.Różnica</text>
<text text-anchor="middle" x="442.5" y="-9" font-family="Helvetica,sans-Serif" font-size="10.00">Interwał</text>
</a>
</g>
</g>
<!-- Node1&#45;&gt;Node5 -->
<g id="edge4" class="edge">
<title>Node1&#45;&gt;Node5</title>
<path fill="none" stroke="#63b8ff" d="M553.77,-28.85C540.33,-27.4 526.56,-25.92 513.51,-24.52"/>
<polygon fill="#63b8ff" stroke="#63b8ff" points="553.66,-32.35 563.97,-29.94 554.4,-25.39 553.66,-32.35"/>
</g>
<!-- Node3 -->
<g id="node3" class="node">
<title>Node3</title>
<g id="a_node3"><a xlink:href="classMotywy_1_1Fragmenty.html#af142a18268a561dcafe100a07e2b1928" target="_top" xlink:title=" ">
<polygon fill="white" stroke="#666666" points="316.5,-78 182.5,-78 182.5,-48 316.5,-48 316.5,-78"/>
<text text-anchor="start" x="190.5" y="-66" font-family="Helvetica,sans-Serif" font-size="10.00">Motywy.Fragmenty.Utwórz</text>
<text text-anchor="middle" x="249.5" y="-55" font-family="Helvetica,sans-Serif" font-size="10.00">MacierzMotywów</text>
</a>
</g>
</g>
<!-- Node2&#45;&gt;Node3 -->
<g id="edge2" class="edge">
<title>Node2&#45;&gt;Node3</title>
<path fill="none" stroke="#63b8ff" d="M346.75,-61.99C336.59,-62.1 326.41,-62.21 316.69,-62.31"/>
<polygon fill="#63b8ff" stroke="#63b8ff" points="346.93,-65.49 356.89,-61.89 346.85,-58.49 346.93,-65.49"/>
</g>
<!-- Node4 -->
<g id="node4" class="node">
<title>Node4</title>
<g id="a_node4"><a xlink:href="classporownania_1_1Rezultat.html#abfab722f91bb304108e01333fdbf5cf3" target="_top" xlink:title=" ">
<polygon fill="white" stroke="#666666" points="142,-72.5 0,-72.5 0,-53.5 142,-53.5 142,-72.5"/>
<text text-anchor="middle" x="71" y="-60.5" font-family="Helvetica,sans-Serif" font-size="10.00">porownania.Rezultat.toString</text>
</a>
</g>
</g>
<!-- Node3&#45;&gt;Node4 -->
<g id="edge3" class="edge">
<title>Node3&#45;&gt;Node4</title>
<path fill="none" stroke="#63b8ff" d="M172.02,-63C162.09,-63 151.96,-63 142.14,-63"/>
<polygon fill="#63b8ff" stroke="#63b8ff" points="172.28,-66.5 182.28,-63 172.28,-59.5 172.28,-66.5"/>
</g>
<!-- Node6 -->
<g id="node6" class="node">
<title>Node6</title>
<g id="a_node6"><a xlink:href="classStruktury_1_1Zdarzenie.html#aca10ea59105918d18ac2b9b60fc9febe" target="_top" xlink:title=" ">
<polygon fill="white" stroke="#666666" points="321,-30 178,-30 178,0 321,0 321,-30"/>
<text text-anchor="start" x="186" y="-18" font-family="Helvetica,sans-Serif" font-size="10.00">Struktury.Zdarzenie.getMiarę</text>
<text text-anchor="middle" x="249.5" y="-7" font-family="Helvetica,sans-Serif" font-size="10.00">Różnicy</text>
</a>
</g>
</g>
<!-- Node5&#45;&gt;Node6 -->
<g id="edge5" class="edge">
<title>Node5&#45;&gt;Node6</title>
<path fill="none" stroke="#63b8ff" d="M361.36,-16.16C348.01,-16.02 334.25,-15.88 321.17,-15.74"/>
<polygon fill="#63b8ff" stroke="#63b8ff" points="361.43,-19.66 371.46,-16.27 361.5,-12.66 361.43,-19.66"/>
</g>
</g>
</svg>
