<?xml version="1.0" encoding="UTF-8" standalone="no"?>
<!DOCTYPE svg PUBLIC "-//W3C//DTD SVG 1.1//EN"
 "http://www.w3.org/Graphics/SVG/1.1/DTD/svg11.dtd">
<!-- Generated by graphviz version 2.49.3 (0)
 -->
<!-- Title: porownania.ZapisywanieTekstuDoPliku.getStatusPliku Pages: 1 -->
<svg width="581pt" height="76pt"
 viewBox="0.00 0.00 581.00 75.50" xmlns="http://www.w3.org/2000/svg" xmlns:xlink="http://www.w3.org/1999/xlink">
<g id="graph0" class="graph" transform="scale(1 1) rotate(0) translate(4 71.5)">
<title>porownania.ZapisywanieTekstuDoPliku.getStatusPliku</title>
<!-- Node1 -->
<g id="node1" class="node">
<title>Node1</title>
<g id="a_node1"><a xlink:title=" ">
<polygon fill="#999999" stroke="#666666" points="573,-45.5 421,-45.5 421,-15.5 573,-15.5 573,-45.5"/>
<text text-anchor="start" x="429" y="-33.5" font-family="Helvetica,sans-Serif" font-size="10.00">porownania.ZapisywanieTekstu</text>
<text text-anchor="middle" x="497" y="-22.5" font-family="Helvetica,sans-Serif" font-size="10.00">DoPliku.getStatusPliku</text>
</a>
</g>
</g>
<!-- Node2 -->
<g id="node2" class="node">
<title>Node2</title>
<g id="a_node2"><a xlink:href="classporownania_1_1AnalizaPor_xC3_xB3wnawcza.html#ab052496ad6bbfee6626bab9a4259372b" target="_top" xlink:title=" ">
<polygon fill="white" stroke="#666666" points="385,-67.5 206,-67.5 206,-37.5 385,-37.5 385,-67.5"/>
<text text-anchor="start" x="214" y="-55.5" font-family="Helvetica,sans-Serif" font-size="10.00">porownania.AnalizaPorównawcza.get</text>
<text text-anchor="middle" x="295.5" y="-44.5" font-family="Helvetica,sans-Serif" font-size="10.00">StatusZapisywaczaDoPliku</text>
</a>
</g>
</g>
<!-- Node1&#45;&gt;Node2 -->
<g id="edge1" class="edge">
<title>Node1&#45;&gt;Node2</title>
<path fill="none" stroke="#63b8ff" d="M410.7,-39.91C402.3,-40.83 393.76,-41.77 385.33,-42.7"/>
<polygon fill="#63b8ff" stroke="#63b8ff" points="411.31,-43.36 420.86,-38.79 410.54,-36.4 411.31,-43.36"/>
</g>
<!-- Node4 -->
<g id="node4" class="node">
<title>Node4</title>
<g id="a_node4"><a xlink:href="classporownania_1_1AnalizaPor_xC3_xB3wnawcza.html#a4fb7b99f4ed968c3c62c6fa132b19938" target="_top" xlink:title=" ">
<polygon fill="white" stroke="#666666" points="385,-19 206,-19 206,0 385,0 385,-19"/>
<text text-anchor="middle" x="295.5" y="-7" font-family="Helvetica,sans-Serif" font-size="10.00">porownania.AnalizaPorównawcza.run</text>
</a>
</g>
</g>
<!-- Node1&#45;&gt;Node4 -->
<g id="edge3" class="edge">
<title>Node1&#45;&gt;Node4</title>
<path fill="none" stroke="#63b8ff" d="M410.7,-21.52C402.3,-20.64 393.76,-19.74 385.33,-18.85"/>
<polygon fill="#63b8ff" stroke="#63b8ff" points="410.55,-25.02 420.86,-22.59 411.28,-18.06 410.55,-25.02"/>
</g>
<!-- Node3 -->
<g id="node3" class="node">
<title>Node3</title>
<g id="a_node3"><a xlink:href="classporownania_1_1G_xC5_x82_xC3_xB3wneOknoProgramu.html#a16ad3a5b2b9df99d2a8894a937b1a071" target="_top" xlink:title=" ">
<polygon fill="white" stroke="#666666" points="170,-67.5 0,-67.5 0,-37.5 170,-37.5 170,-67.5"/>
<text text-anchor="start" x="8" y="-55.5" font-family="Helvetica,sans-Serif" font-size="10.00">porownania.GłówneOknoProgramu.</text>
<text text-anchor="middle" x="85" y="-44.5" font-family="Helvetica,sans-Serif" font-size="10.00">AnalizaPlików</text>
</a>
</g>
</g>
<!-- Node2&#45;&gt;Node3 -->
<g id="edge2" class="edge">
<title>Node2&#45;&gt;Node3</title>
<path fill="none" stroke="#63b8ff" d="M195.72,-52.5C187.12,-52.5 178.47,-52.5 170.01,-52.5"/>
<polygon fill="#63b8ff" stroke="#63b8ff" points="195.77,-56 205.77,-52.5 195.77,-49 195.77,-56"/>
</g>
</g>
</svg>
