<?xml version="1.0" encoding="UTF-8" standalone="no"?>
<!DOCTYPE svg PUBLIC "-//W3C//DTD SVG 1.1//EN"
 "http://www.w3.org/Graphics/SVG/1.1/DTD/svg11.dtd">
<!-- Generated by graphviz version 2.49.3 (0)
 -->
<!-- Title: Struktury.Arkusz.getNazwęKolumny Pages: 1 -->
<svg width="706pt" height="127pt"
 viewBox="0.00 0.00 706.00 127.00" xmlns="http://www.w3.org/2000/svg" xmlns:xlink="http://www.w3.org/1999/xlink">
<g id="graph0" class="graph" transform="scale(1 1) rotate(0) translate(4 123)">
<title>Struktury.Arkusz.getNazwęKolumny</title>
<!-- Node1 -->
<g id="node1" class="node">
<title>Node1</title>
<g id="a_node1"><a xlink:title=" ">
<polygon fill="#999999" stroke="#666666" points="698,-76 560,-76 560,-46 698,-46 698,-76"/>
<text text-anchor="start" x="568" y="-64" font-family="Helvetica,sans-Serif" font-size="10.00">Struktury.Arkusz.getNazwę</text>
<text text-anchor="middle" x="629" y="-53" font-family="Helvetica,sans-Serif" font-size="10.00">Kolumny</text>
</a>
</g>
</g>
<!-- Node1&#45;&gt;Node1 -->
<g id="edge2" class="edge">
<title>Node1&#45;&gt;Node1</title>
<path fill="none" stroke="#63b8ff" d="M660.51,-86.6C656.2,-90.97 645.7,-94 629,-94 600.88,-94 590.33,-85.41 597.36,-76.28"/>
<polygon fill="#63b8ff" stroke="#63b8ff" points="664.01,-86.32 660.64,-76.28 657.01,-86.23 664.01,-86.32"/>
</g>
<!-- Node2 -->
<g id="node2" class="node">
<title>Node2</title>
<g id="a_node2"><a xlink:href="classStruktury_1_1ArkuszZdarzenie.html#acb24856511328e4920ee673ffbe0cc06" target="_top" xlink:title=" ">
<polygon fill="white" stroke="#666666" points="516,-119 379,-119 379,-89 516,-89 516,-119"/>
<text text-anchor="start" x="387" y="-107" font-family="Helvetica,sans-Serif" font-size="10.00">Struktury.ArkuszZdarzenie.</text>
<text text-anchor="middle" x="447.5" y="-96" font-family="Helvetica,sans-Serif" font-size="10.00">ArkuszZdarzenie</text>
</a>
</g>
</g>
<!-- Node1&#45;&gt;Node2 -->
<g id="edge1" class="edge">
<title>Node1&#45;&gt;Node2</title>
<path fill="none" stroke="#63b8ff" d="M555.24,-78.43C540.66,-81.92 525.45,-85.57 511.24,-88.97"/>
<polygon fill="#63b8ff" stroke="#63b8ff" points="556.31,-81.77 565.22,-76.04 554.68,-74.97 556.31,-81.77"/>
</g>
<!-- Node3 -->
<g id="node3" class="node">
<title>Node3</title>
<g id="a_node3"><a xlink:href="classStruktury_1_1Arkusz.html#a0b4436f9d13f720d8265b005d6db312b" target="_top" xlink:title=" ">
<polygon fill="white" stroke="#666666" points="524,-70.5 371,-70.5 371,-51.5 524,-51.5 524,-70.5"/>
<text text-anchor="middle" x="447.5" y="-58.5" font-family="Helvetica,sans-Serif" font-size="10.00">Struktury.Arkusz.PokażArkusz</text>
</a>
</g>
</g>
<!-- Node1&#45;&gt;Node3 -->
<g id="edge3" class="edge">
<title>Node1&#45;&gt;Node3</title>
<path fill="none" stroke="#63b8ff" d="M549.62,-61C541.14,-61 532.52,-61 524.07,-61"/>
<polygon fill="#63b8ff" stroke="#63b8ff" points="549.88,-64.5 559.88,-61 549.88,-57.5 549.88,-64.5"/>
</g>
<!-- Node5 -->
<g id="node5" class="node">
<title>Node5</title>
<g id="a_node5"><a xlink:href="classStruktury_1_1Interpreter.html#a25a48e8f946a2b064cbfef8be68e1820" target="_top" xlink:title=" ">
<polygon fill="white" stroke="#666666" points="522,-32 373,-32 373,-2 522,-2 522,-32"/>
<text text-anchor="start" x="381" y="-20" font-family="Helvetica,sans-Serif" font-size="10.00">Struktury.Interpreter.Walidacja</text>
<text text-anchor="middle" x="447.5" y="-9" font-family="Helvetica,sans-Serif" font-size="10.00">Liczb</text>
</a>
</g>
</g>
<!-- Node1&#45;&gt;Node5 -->
<g id="edge5" class="edge">
<title>Node1&#45;&gt;Node5</title>
<path fill="none" stroke="#63b8ff" d="M556.67,-43.51C541.16,-39.71 524.88,-35.72 509.8,-32.03"/>
<polygon fill="#63b8ff" stroke="#63b8ff" points="556.18,-47 566.73,-45.98 557.85,-40.2 556.18,-47"/>
</g>
<!-- Node4 -->
<g id="node4" class="node">
<title>Node4</title>
<g id="a_node4"><a xlink:href="classStruktury_1_1Interpreter.html#a719add782a69663daa71ad217855f72e" target="_top" xlink:title=" ">
<polygon fill="white" stroke="#666666" points="329,-78 194,-78 194,-48 329,-48 329,-78"/>
<text text-anchor="start" x="202" y="-66" font-family="Helvetica,sans-Serif" font-size="10.00">Struktury.Interpreter.Pokaż</text>
<text text-anchor="middle" x="261.5" y="-55" font-family="Helvetica,sans-Serif" font-size="10.00">Arkusz</text>
</a>
</g>
</g>
<!-- Node3&#45;&gt;Node4 -->
<g id="edge4" class="edge">
<title>Node3&#45;&gt;Node4</title>
<path fill="none" stroke="#63b8ff" d="M360.71,-61.93C350.06,-62.05 339.31,-62.17 329.01,-62.28"/>
<polygon fill="#63b8ff" stroke="#63b8ff" points="360.9,-65.43 370.86,-61.82 360.83,-58.43 360.9,-65.43"/>
</g>
<!-- Node6 -->
<g id="node6" class="node">
<title>Node6</title>
<g id="a_node6"><a xlink:href="classStruktury_1_1Interpreter.html#a8d912ec5e4e42eaf2aac5f3f524e0172" target="_top" xlink:title=" ">
<polygon fill="white" stroke="#666666" points="335,-30 188,-30 188,0 335,0 335,-30"/>
<text text-anchor="start" x="196" y="-18" font-family="Helvetica,sans-Serif" font-size="10.00">Struktury.Interpreter.Uzupełnij</text>
<text text-anchor="middle" x="261.5" y="-7" font-family="Helvetica,sans-Serif" font-size="10.00">NumeryTaktów</text>
</a>
</g>
</g>
<!-- Node5&#45;&gt;Node6 -->
<g id="edge6" class="edge">
<title>Node5&#45;&gt;Node6</title>
<path fill="none" stroke="#63b8ff" d="M362.72,-16.09C353.56,-15.99 344.3,-15.89 335.3,-15.79"/>
<polygon fill="#63b8ff" stroke="#63b8ff" points="362.95,-19.59 372.99,-16.2 363.02,-12.59 362.95,-19.59"/>
</g>
<!-- Node7 -->
<g id="node7" class="node">
<title>Node7</title>
<g id="a_node7"><a xlink:href="classStruktury_1_1Interpreter.html#a4c2426a0220ccfab53ef88b4ef68e5ab" target="_top" xlink:title=" ">
<polygon fill="white" stroke="#666666" points="152,-24.5 0,-24.5 0,-5.5 152,-5.5 152,-24.5"/>
<text text-anchor="middle" x="76" y="-12.5" font-family="Helvetica,sans-Serif" font-size="10.00">Struktury.Interpreter.Interpreter</text>
</a>
</g>
</g>
<!-- Node6&#45;&gt;Node7 -->
<g id="edge7" class="edge">
<title>Node6&#45;&gt;Node7</title>
<path fill="none" stroke="#63b8ff" d="M177.91,-15C169.29,-15 160.55,-15 152.01,-15"/>
<polygon fill="#63b8ff" stroke="#63b8ff" points="177.98,-18.5 187.98,-15 177.98,-11.5 177.98,-18.5"/>
</g>
</g>
</svg>
