<?xml version="1.0" encoding="UTF-8" standalone="no"?>
<!DOCTYPE svg PUBLIC "-//W3C//DTD SVG 1.1//EN"
 "http://www.w3.org/Graphics/SVG/1.1/DTD/svg11.dtd">
<!-- Generated by graphviz version 2.49.3 (0)
 -->
<!-- Title: Motywy.ZnajdowanieMotywów.Szukaj Pages: 1 -->
<svg width="962pt" height="177pt"
 viewBox="0.00 0.00 962.00 177.00" xmlns="http://www.w3.org/2000/svg" xmlns:xlink="http://www.w3.org/1999/xlink">
<g id="graph0" class="graph" transform="scale(1 1) rotate(0) translate(4 173)">
<title>Motywy.ZnajdowanieMotywów.Szukaj</title>
<!-- Node1 -->
<g id="node1" class="node">
<title>Node1</title>
<g id="a_node1"><a xlink:title=" ">
<polygon fill="#999999" stroke="#666666" points="152,-121 0,-121 0,-91 152,-91 152,-121"/>
<text text-anchor="start" x="8" y="-109" font-family="Helvetica,sans-Serif" font-size="10.00">Motywy.ZnajdowanieMotywów.</text>
<text text-anchor="middle" x="76" y="-98" font-family="Helvetica,sans-Serif" font-size="10.00">Szukaj</text>
</a>
</g>
</g>
<!-- Node2 -->
<g id="node2" class="node">
<title>Node2</title>
<g id="a_node2"><a xlink:href="classMotywy_1_1ZnajdowanieMotyw_xC3_xB3w.html#a24f96b3a4e870a42b142b07476044571" target="_top" xlink:title=" ">
<polygon fill="white" stroke="#666666" points="340,-169 188,-169 188,-139 340,-139 340,-169"/>
<text text-anchor="start" x="196" y="-157" font-family="Helvetica,sans-Serif" font-size="10.00">Motywy.ZnajdowanieMotywów.</text>
<text text-anchor="middle" x="264" y="-146" font-family="Helvetica,sans-Serif" font-size="10.00">CzyJestZero</text>
</a>
</g>
</g>
<!-- Node1&#45;&gt;Node2 -->
<g id="edge1" class="edge">
<title>Node1&#45;&gt;Node2</title>
<path fill="none" stroke="#63b8ff" d="M135.34,-121.06C154.3,-125.95 175.5,-131.42 195.09,-136.48"/>
<polygon fill="#63b8ff" stroke="#63b8ff" points="194.31,-139.89 204.87,-139 196.06,-133.11 194.31,-139.89"/>
</g>
<!-- Node6 -->
<g id="node6" class="node">
<title>Node6</title>
<g id="a_node6"><a xlink:href="classMotywy_1_1Fragmenty.html#aa880822eb5893336364e80fb3485e953" target="_top" xlink:title=" ">
<polygon fill="white" stroke="#666666" points="332.5,-121 195.5,-121 195.5,-91 332.5,-91 332.5,-121"/>
<text text-anchor="start" x="203.5" y="-109" font-family="Helvetica,sans-Serif" font-size="10.00">Motywy.Fragmenty.getPary</text>
<text text-anchor="middle" x="264" y="-98" font-family="Helvetica,sans-Serif" font-size="10.00">Motywów</text>
</a>
</g>
</g>
<!-- Node1&#45;&gt;Node6 -->
<g id="edge5" class="edge">
<title>Node1&#45;&gt;Node6</title>
<path fill="none" stroke="#63b8ff" d="M152.12,-106C163.08,-106 174.38,-106 185.39,-106"/>
<polygon fill="#63b8ff" stroke="#63b8ff" points="185.4,-109.5 195.4,-106 185.4,-102.5 185.4,-109.5"/>
</g>
<!-- Node7 -->
<g id="node7" class="node">
<title>Node7</title>
<g id="a_node7"><a xlink:href="classMotywy_1_1Fragmenty.html#ae37d302041ec467552554a8c838a42c4" target="_top" xlink:title=" ">
<polygon fill="white" stroke="#666666" points="331,-73 197,-73 197,-43 331,-43 331,-73"/>
<text text-anchor="start" x="205" y="-61" font-family="Helvetica,sans-Serif" font-size="10.00">Motywy.Fragmenty.Utwórz</text>
<text text-anchor="middle" x="264" y="-50" font-family="Helvetica,sans-Serif" font-size="10.00">ListęWątkowo</text>
</a>
</g>
</g>
<!-- Node1&#45;&gt;Node7 -->
<g id="edge6" class="edge">
<title>Node1&#45;&gt;Node7</title>
<path fill="none" stroke="#63b8ff" d="M135.34,-90.94C154.3,-86.05 175.5,-80.58 195.09,-75.52"/>
<polygon fill="#63b8ff" stroke="#63b8ff" points="196.06,-78.89 204.87,-73 194.31,-72.11 196.06,-78.89"/>
</g>
<!-- Node3 -->
<g id="node3" class="node">
<title>Node3</title>
<g id="a_node3"><a xlink:href="classMotywy_1_1ParaMotyw_xC3_xB3w.html#ad6a71562154940909746bf6588b6b84e" target="_top" xlink:title=" ">
<polygon fill="white" stroke="#666666" points="543,-163.5 376,-163.5 376,-144.5 543,-144.5 543,-163.5"/>
<text text-anchor="middle" x="459.5" y="-151.5" font-family="Helvetica,sans-Serif" font-size="10.00">Motywy.ParaMotywów.getRóżnicę</text>
</a>
</g>
</g>
<!-- Node2&#45;&gt;Node3 -->
<g id="edge2" class="edge">
<title>Node2&#45;&gt;Node3</title>
<path fill="none" stroke="#63b8ff" d="M340.09,-154C348.49,-154 357.12,-154 365.7,-154"/>
<polygon fill="#63b8ff" stroke="#63b8ff" points="365.75,-157.5 375.75,-154 365.75,-150.5 365.75,-157.5"/>
</g>
<!-- Node4 -->
<g id="node4" class="node">
<title>Node4</title>
<g id="a_node4"><a xlink:href="classMotywy_1_1Motyw.html#a1bf7b0581400d564daa45e9cba7987f2" target="_top" xlink:title=" ">
<polygon fill="white" stroke="#666666" points="767,-163.5 579,-163.5 579,-144.5 767,-144.5 767,-163.5"/>
<text text-anchor="middle" x="673" y="-151.5" font-family="Helvetica,sans-Serif" font-size="10.00">Motywy.Motyw.CzyMożnaPorównywać</text>
</a>
</g>
</g>
<!-- Node3&#45;&gt;Node4 -->
<g id="edge3" class="edge">
<title>Node3&#45;&gt;Node4</title>
<path fill="none" stroke="#63b8ff" d="M543.18,-154C551.59,-154 560.21,-154 568.8,-154"/>
<polygon fill="#63b8ff" stroke="#63b8ff" points="568.86,-157.5 578.86,-154 568.86,-150.5 568.86,-157.5"/>
</g>
<!-- Node5 -->
<g id="node5" class="node">
<title>Node5</title>
<g id="a_node5"><a xlink:href="classStruktury_1_1ArkuszZdarzenie.html#add9f4b9b1ae80d624e5f480cda1574ee" target="_top" xlink:title=" ">
<polygon fill="white" stroke="#666666" points="954,-169 803,-169 803,-139 954,-139 954,-169"/>
<text text-anchor="start" x="811" y="-157" font-family="Helvetica,sans-Serif" font-size="10.00">Struktury.ArkuszZdarzenie.get</text>
<text text-anchor="middle" x="878.5" y="-146" font-family="Helvetica,sans-Serif" font-size="10.00">NumerGłosu</text>
</a>
</g>
</g>
<!-- Node4&#45;&gt;Node5 -->
<g id="edge4" class="edge">
<title>Node4&#45;&gt;Node5</title>
<path fill="none" stroke="#63b8ff" d="M767.11,-154C775.6,-154 784.16,-154 792.56,-154"/>
<polygon fill="#63b8ff" stroke="#63b8ff" points="792.72,-157.5 802.72,-154 792.72,-150.5 792.72,-157.5"/>
</g>
<!-- Node8 -->
<g id="node8" class="node">
<title>Node8</title>
<g id="a_node8"><a xlink:href="classMotywy_1_1LiczeniePrzedzia_xC5_x82_xC3_xB3wW_xC4_x85tek.html#a9e4d30fe869f96fd4d4e355e758e731d" target="_top" xlink:title=" ">
<polygon fill="white" stroke="#666666" points="531,-116 388,-116 388,-86 531,-86 531,-116"/>
<text text-anchor="start" x="396" y="-104" font-family="Helvetica,sans-Serif" font-size="10.00">Motywy.LiczeniePrzedziałów</text>
<text text-anchor="middle" x="459.5" y="-93" font-family="Helvetica,sans-Serif" font-size="10.00">Wątek.getIndeksKońcowy</text>
</a>
</g>
</g>
<!-- Node7&#45;&gt;Node8 -->
<g id="edge7" class="edge">
<title>Node7&#45;&gt;Node8</title>
<path fill="none" stroke="#63b8ff" d="M331.05,-72.68C347.01,-76.22 364.21,-80.05 380.65,-83.7"/>
<polygon fill="#63b8ff" stroke="#63b8ff" points="380.25,-87.2 390.77,-85.95 381.77,-80.36 380.25,-87.2"/>
</g>
<!-- Node9 -->
<g id="node9" class="node">
<title>Node9</title>
<g id="a_node9"><a xlink:href="classMotywy_1_1LiczeniePrzedzia_xC5_x82_xC3_xB3wW_xC4_x85tek.html#ab90a669aef0c40a05bcbb6b446dd8bf5" target="_top" xlink:title=" ">
<polygon fill="white" stroke="#666666" points="745,-95 601,-95 601,-65 745,-65 745,-95"/>
<text text-anchor="start" x="609" y="-83" font-family="Helvetica,sans-Serif" font-size="10.00">Motywy.LiczeniePrzedziałów</text>
<text text-anchor="middle" x="673" y="-72" font-family="Helvetica,sans-Serif" font-size="10.00">Wątek.getIndeksPoczątkowy</text>
</a>
</g>
</g>
<!-- Node7&#45;&gt;Node9 -->
<g id="edge9" class="edge">
<title>Node7&#45;&gt;Node9</title>
<path fill="none" stroke="#63b8ff" d="M331.3,-61.58C402.22,-65.42 514.76,-71.5 590.91,-75.62"/>
<polygon fill="#63b8ff" stroke="#63b8ff" points="590.77,-79.11 600.94,-76.16 591.14,-72.12 590.77,-79.11"/>
</g>
<!-- Node10 -->
<g id="node10" class="node">
<title>Node10</title>
<g id="a_node10"><a xlink:href="classMotywy_1_1LiczeniePrzedzia_xC5_x82_xC3_xB3wW_xC4_x85tek.html#a256b18e7fbdef9a1665344b200e2ab33" target="_top" xlink:title=" ">
<polygon fill="white" stroke="#666666" points="531,-30 388,-30 388,0 531,0 531,-30"/>
<text text-anchor="start" x="396" y="-18" font-family="Helvetica,sans-Serif" font-size="10.00">Motywy.LiczeniePrzedziałów</text>
<text text-anchor="middle" x="459.5" y="-7" font-family="Helvetica,sans-Serif" font-size="10.00">Wątek.LiczbaRdzeni</text>
</a>
</g>
</g>
<!-- Node7&#45;&gt;Node10 -->
<g id="edge10" class="edge">
<title>Node7&#45;&gt;Node10</title>
<path fill="none" stroke="#63b8ff" d="M331.05,-43.32C347.01,-39.78 364.21,-35.95 380.65,-32.3"/>
<polygon fill="#63b8ff" stroke="#63b8ff" points="381.77,-35.64 390.77,-30.05 380.25,-28.8 381.77,-35.64"/>
</g>
<!-- Node8&#45;&gt;Node9 -->
<g id="edge8" class="edge">
<title>Node8&#45;&gt;Node9</title>
<path fill="none" stroke="#63b8ff" d="M531.22,-93.98C550.34,-92.08 571.19,-90.01 590.84,-88.06"/>
<polygon fill="#63b8ff" stroke="#63b8ff" points="591.38,-91.52 600.99,-87.05 590.69,-84.56 591.38,-91.52"/>
</g>
</g>
</svg>
