<?xml version="1.0" encoding="UTF-8" standalone="no"?>
<!DOCTYPE svg PUBLIC "-//W3C//DTD SVG 1.1//EN"
 "http://www.w3.org/Graphics/SVG/1.1/DTD/svg11.dtd">
<!-- Generated by graphviz version 2.49.3 (0)
 -->
<!-- Title: Struktury.Zdarzenie.getMiaręRóżnicy Pages: 1 -->
<svg width="521pt" height="112pt"
 viewBox="0.00 0.00 521.00 111.50" xmlns="http://www.w3.org/2000/svg" xmlns:xlink="http://www.w3.org/1999/xlink">
<g id="graph0" class="graph" transform="scale(1 1) rotate(0) translate(4 107.5)">
<title>Struktury.Zdarzenie.getMiaręRóżnicy</title>
<!-- Node1 -->
<g id="node1" class="node">
<title>Node1</title>
<g id="a_node1"><a xlink:title=" ">
<polygon fill="#999999" stroke="#666666" points="143,-79.5 0,-79.5 0,-49.5 143,-49.5 143,-79.5"/>
<text text-anchor="start" x="8" y="-67.5" font-family="Helvetica,sans-Serif" font-size="10.00">Struktury.Zdarzenie.getMiarę</text>
<text text-anchor="middle" x="71.5" y="-56.5" font-family="Helvetica,sans-Serif" font-size="10.00">Różnicy</text>
</a>
</g>
</g>
<!-- Node2 -->
<g id="node2" class="node">
<title>Node2</title>
<g id="a_node2"><a xlink:href="classStruktury_1_1Zdarzenie.html#aabe9ff88a651b399d084a77e860cc349" target="_top" xlink:title=" ">
<polygon fill="white" stroke="#666666" points="321,-103.5 179,-103.5 179,-73.5 321,-73.5 321,-103.5"/>
<text text-anchor="start" x="187" y="-91.5" font-family="Helvetica,sans-Serif" font-size="10.00">Struktury.Zdarzenie.Różnica</text>
<text text-anchor="middle" x="250" y="-80.5" font-family="Helvetica,sans-Serif" font-size="10.00">Metryczna</text>
</a>
</g>
</g>
<!-- Node1&#45;&gt;Node2 -->
<g id="edge1" class="edge">
<title>Node1&#45;&gt;Node2</title>
<path fill="none" stroke="#63b8ff" d="M143.02,-74.09C151.51,-75.24 160.22,-76.43 168.84,-77.6"/>
<polygon fill="#63b8ff" stroke="#63b8ff" points="168.5,-81.09 178.88,-78.97 169.44,-74.15 168.5,-81.09"/>
</g>
<!-- Node4 -->
<g id="node4" class="node">
<title>Node4</title>
<g id="a_node4"><a xlink:href="classStruktury_1_1Zdarzenie.html#a77bd681c4a6433cf34baf04b3bbc0c56" target="_top" xlink:title=" ">
<polygon fill="white" stroke="#666666" points="321,-55.5 179,-55.5 179,-25.5 321,-25.5 321,-55.5"/>
<text text-anchor="start" x="187" y="-43.5" font-family="Helvetica,sans-Serif" font-size="10.00">Struktury.Zdarzenie.Różnica</text>
<text text-anchor="middle" x="250" y="-32.5" font-family="Helvetica,sans-Serif" font-size="10.00">Interwał</text>
</a>
</g>
</g>
<!-- Node1&#45;&gt;Node4 -->
<g id="edge3" class="edge">
<title>Node1&#45;&gt;Node4</title>
<path fill="none" stroke="#63b8ff" d="M143.02,-54.91C151.51,-53.76 160.22,-52.57 168.84,-51.4"/>
<polygon fill="#63b8ff" stroke="#63b8ff" points="169.44,-54.85 178.88,-50.03 168.5,-47.91 169.44,-54.85"/>
</g>
<!-- Node3 -->
<g id="node3" class="node">
<title>Node3</title>
<g id="a_node3"><a xlink:href="classStruktury_1_1Zdarzenie.html#a2592c833b1455b28718d794f8f1b846f" target="_top" xlink:title=" ">
<polygon fill="white" stroke="#666666" points="513,-98 357,-98 357,-79 513,-79 513,-98"/>
<text text-anchor="middle" x="435" y="-86" font-family="Helvetica,sans-Serif" font-size="10.00">Struktury.Zdarzenie.getDuration</text>
</a>
</g>
</g>
<!-- Node2&#45;&gt;Node3 -->
<g id="edge2" class="edge">
<title>Node2&#45;&gt;Node3</title>
<path fill="none" stroke="#63b8ff" d="M321.23,-88.5C329.63,-88.5 338.29,-88.5 346.9,-88.5"/>
<polygon fill="#63b8ff" stroke="#63b8ff" points="346.96,-92 356.96,-88.5 346.96,-85 346.96,-92"/>
</g>
<!-- Node5 -->
<g id="node5" class="node">
<title>Node5</title>
<g id="a_node5"><a xlink:href="classStruktury_1_1Zdarzenie.html#aa2021baa34312354e2f93f48098a9834" target="_top" xlink:title=" ">
<polygon fill="white" stroke="#666666" points="511,-56 359,-56 359,-37 511,-37 511,-56"/>
<text text-anchor="middle" x="435" y="-44" font-family="Helvetica,sans-Serif" font-size="10.00">Struktury.Zdarzenie.getInterval</text>
</a>
</g>
</g>
<!-- Node4&#45;&gt;Node5 -->
<g id="edge4" class="edge">
<title>Node4&#45;&gt;Node5</title>
<path fill="none" stroke="#63b8ff" d="M321.23,-42.8C330.16,-43.1 339.38,-43.4 348.53,-43.7"/>
<polygon fill="#63b8ff" stroke="#63b8ff" points="348.68,-47.2 358.79,-44.03 348.91,-40.21 348.68,-47.2"/>
</g>
<!-- Node6 -->
<g id="node6" class="node">
<title>Node6</title>
<g id="a_node6"><a xlink:href="classStruktury_1_1Zdarzenie.html#a0d579308bbe6a5400dd6fbfb35d1ea31" target="_top" xlink:title=" ">
<polygon fill="white" stroke="#666666" points="506,-19 364,-19 364,0 506,0 506,-19"/>
<text text-anchor="middle" x="435" y="-7" font-family="Helvetica,sans-Serif" font-size="10.00">Struktury.Zdarzenie.getPitch</text>
</a>
</g>
</g>
<!-- Node4&#45;&gt;Node6 -->
<g id="edge5" class="edge">
<title>Node4&#45;&gt;Node6</title>
<path fill="none" stroke="#63b8ff" d="M321.23,-28.6C336.46,-26.02 352.53,-23.3 367.61,-20.75"/>
<polygon fill="#63b8ff" stroke="#63b8ff" points="368.59,-24.13 377.87,-19.01 367.42,-17.23 368.59,-24.13"/>
</g>
</g>
</svg>
