<?xml version="1.0" encoding="UTF-8" standalone="no"?>
<!DOCTYPE svg PUBLIC "-//W3C//DTD SVG 1.1//EN"
 "http://www.w3.org/Graphics/SVG/1.1/DTD/svg11.dtd">
<!-- Generated by graphviz version 2.49.3 (0)
 -->
<!-- Title: Motywy.Fragmenty.UtwórzListęWątkowo Pages: 1 -->
<svg width="501pt" height="124pt"
 viewBox="0.00 0.00 501.00 124.00" xmlns="http://www.w3.org/2000/svg" xmlns:xlink="http://www.w3.org/1999/xlink">
<g id="graph0" class="graph" transform="scale(1 1) rotate(0) translate(4 120)">
<title>Motywy.Fragmenty.UtwórzListęWątkowo</title>
<!-- Node1 -->
<g id="node1" class="node">
<title>Node1</title>
<g id="a_node1"><a xlink:title=" ">
<polygon fill="#999999" stroke="#666666" points="134,-73 0,-73 0,-43 134,-43 134,-73"/>
<text text-anchor="start" x="8" y="-61" font-family="Helvetica,sans-Serif" font-size="10.00">Motywy.Fragmenty.Utwórz</text>
<text text-anchor="middle" x="67" y="-50" font-family="Helvetica,sans-Serif" font-size="10.00">ListęWątkowo</text>
</a>
</g>
</g>
<!-- Node2 -->
<g id="node2" class="node">
<title>Node2</title>
<g id="a_node2"><a xlink:href="classMotywy_1_1LiczeniePrzedzia_xC5_x82_xC3_xB3wW_xC4_x85tek.html#a9e4d30fe869f96fd4d4e355e758e731d" target="_top" xlink:title=" ">
<polygon fill="white" stroke="#666666" points="313,-116 170,-116 170,-86 313,-86 313,-116"/>
<text text-anchor="start" x="178" y="-104" font-family="Helvetica,sans-Serif" font-size="10.00">Motywy.LiczeniePrzedziałów</text>
<text text-anchor="middle" x="241.5" y="-93" font-family="Helvetica,sans-Serif" font-size="10.00">Wątek.getIndeksKońcowy</text>
</a>
</g>
</g>
<!-- Node1&#45;&gt;Node2 -->
<g id="edge1" class="edge">
<title>Node1&#45;&gt;Node2</title>
<path fill="none" stroke="#63b8ff" d="M128.33,-73.04C141.86,-76.41 156.32,-80.02 170.21,-83.48"/>
<polygon fill="#63b8ff" stroke="#63b8ff" points="169.65,-86.95 180.2,-85.97 171.35,-80.15 169.65,-86.95"/>
</g>
<!-- Node3 -->
<g id="node3" class="node">
<title>Node3</title>
<g id="a_node3"><a xlink:href="classMotywy_1_1LiczeniePrzedzia_xC5_x82_xC3_xB3wW_xC4_x85tek.html#ab90a669aef0c40a05bcbb6b446dd8bf5" target="_top" xlink:title=" ">
<polygon fill="white" stroke="#666666" points="493,-94 349,-94 349,-64 493,-64 493,-94"/>
<text text-anchor="start" x="357" y="-82" font-family="Helvetica,sans-Serif" font-size="10.00">Motywy.LiczeniePrzedziałów</text>
<text text-anchor="middle" x="421" y="-71" font-family="Helvetica,sans-Serif" font-size="10.00">Wątek.getIndeksPoczątkowy</text>
</a>
</g>
</g>
<!-- Node1&#45;&gt;Node3 -->
<g id="edge3" class="edge">
<title>Node1&#45;&gt;Node3</title>
<path fill="none" stroke="#63b8ff" d="M134.21,-61.95C192.22,-65.41 276.72,-70.45 338.8,-74.16"/>
<polygon fill="#63b8ff" stroke="#63b8ff" points="338.76,-77.66 348.95,-74.76 339.18,-70.67 338.76,-77.66"/>
</g>
<!-- Node4 -->
<g id="node4" class="node">
<title>Node4</title>
<g id="a_node4"><a xlink:href="classMotywy_1_1LiczeniePrzedzia_xC5_x82_xC3_xB3wW_xC4_x85tek.html#a256b18e7fbdef9a1665344b200e2ab33" target="_top" xlink:title=" ">
<polygon fill="white" stroke="#666666" points="313,-30 170,-30 170,0 313,0 313,-30"/>
<text text-anchor="start" x="178" y="-18" font-family="Helvetica,sans-Serif" font-size="10.00">Motywy.LiczeniePrzedziałów</text>
<text text-anchor="middle" x="241.5" y="-7" font-family="Helvetica,sans-Serif" font-size="10.00">Wątek.LiczbaRdzeni</text>
</a>
</g>
</g>
<!-- Node1&#45;&gt;Node4 -->
<g id="edge4" class="edge">
<title>Node1&#45;&gt;Node4</title>
<path fill="none" stroke="#63b8ff" d="M128.33,-42.96C141.86,-39.59 156.32,-35.98 170.21,-32.52"/>
<polygon fill="#63b8ff" stroke="#63b8ff" points="171.35,-35.85 180.2,-30.03 169.65,-29.05 171.35,-35.85"/>
</g>
<!-- Node2&#45;&gt;Node3 -->
<g id="edge2" class="edge">
<title>Node2&#45;&gt;Node3</title>
<path fill="none" stroke="#63b8ff" d="M313.16,-92.24C321.57,-91.2 330.2,-90.13 338.75,-89.07"/>
<polygon fill="#63b8ff" stroke="#63b8ff" points="339.22,-92.54 348.71,-87.84 338.36,-85.59 339.22,-92.54"/>
</g>
</g>
</svg>
