<?xml version="1.0" encoding="UTF-8" standalone="no"?>
<!DOCTYPE svg PUBLIC "-//W3C//DTD SVG 1.1//EN"
 "http://www.w3.org/Graphics/SVG/1.1/DTD/svg11.dtd">
<!-- Generated by graphviz version 2.49.3 (0)
 -->
<!-- Title: porownania.AnalizaPorównawcza Pages: 1 -->
<svg width="1257pt" height="676pt"
 viewBox="0.00 0.00 1256.50 676.00" xmlns="http://www.w3.org/2000/svg" xmlns:xlink="http://www.w3.org/1999/xlink">
<g id="graph0" class="graph" transform="scale(1 1) rotate(0) translate(4 672)">
<title>porownania.AnalizaPorównawcza</title>
<!-- Node1 -->
<g id="node1" class="node">
<title>Node1</title>
<g id="a_node1"><a xlink:title=" ">
<polygon fill="#999999" stroke="#666666" points="653,-283 474,-283 474,0 653,0 653,-283"/>
<text text-anchor="middle" x="563.5" y="-271" font-family="Helvetica,sans-Serif" font-size="10.00">{porownania.AnalizaPorównawcza</text>
<text text-anchor="start" x="482" y="-260" font-family="Helvetica,sans-Serif" font-size="10.00">|&#45; PlikWynikowy</text>
<text text-anchor="start" x="482" y="-249" font-family="Helvetica,sans-Serif" font-size="10.00">&#45; TablicaNazwPlików</text>
<text text-anchor="start" x="482" y="-238" font-family="Helvetica,sans-Serif" font-size="10.00">&#45; KodowanieZnaków</text>
<text text-anchor="start" x="482" y="-227" font-family="Helvetica,sans-Serif" font-size="10.00">&#45; MinimalnaDługość</text>
<text text-anchor="start" x="482" y="-216" font-family="Helvetica,sans-Serif" font-size="10.00">&#45; WagaInterwałowa</text>
<text text-anchor="start" x="482" y="-205" font-family="Helvetica,sans-Serif" font-size="10.00">&#45; WagaMetryczna</text>
<text text-anchor="start" x="482" y="-194" font-family="Helvetica,sans-Serif" font-size="10.00">&#45; MaksymalnaRóżnica</text>
<text text-anchor="start" x="482" y="-183" font-family="Helvetica,sans-Serif" font-size="10.00">&#45; StanWątku</text>
<text text-anchor="start" x="482" y="-172" font-family="Helvetica,sans-Serif" font-size="10.00">&#45; TekstPierwotny</text>
<text text-anchor="start" x="482" y="-161" font-family="Helvetica,sans-Serif" font-size="10.00">&#45; WynikiDoZapisu</text>
<text text-anchor="start" x="482" y="-150" font-family="Helvetica,sans-Serif" font-size="10.00">&#45; CzyTylkoJednąDługość</text>
<text text-anchor="start" x="482" y="-139" font-family="Helvetica,sans-Serif" font-size="10.00">&#45; PRZED_OBLICZENIAMI</text>
<text text-anchor="start" x="482" y="-128" font-family="Helvetica,sans-Serif" font-size="10.00">&#45; W_TRAKCIE_OBLICZEŃ</text>
<text text-anchor="start" x="482" y="-117" font-family="Helvetica,sans-Serif" font-size="10.00">&#45; PO_OBLICZENIACH</text>
<text text-anchor="start" x="482" y="-106" font-family="Helvetica,sans-Serif" font-size="10.00">|+ AnalizaPorównawcza()</text>
<text text-anchor="start" x="482" y="-95" font-family="Helvetica,sans-Serif" font-size="10.00">+ getStatusZapisywaczaDoPliku()</text>
<text text-anchor="start" x="482" y="-84" font-family="Helvetica,sans-Serif" font-size="10.00">+ getStanWątkaObliczeniowego()</text>
<text text-anchor="start" x="482" y="-73" font-family="Helvetica,sans-Serif" font-size="10.00">+ run()</text>
<text text-anchor="start" x="482" y="-62" font-family="Helvetica,sans-Serif" font-size="10.00">&#45; Walidacja()</text>
<text text-anchor="start" x="482" y="-51" font-family="Helvetica,sans-Serif" font-size="10.00">&#45; PokażTablicęPlików()</text>
<text text-anchor="start" x="482" y="-40" font-family="Helvetica,sans-Serif" font-size="10.00">&#45; ObliczProcent()</text>
<text text-anchor="start" x="482" y="-29" font-family="Helvetica,sans-Serif" font-size="10.00">&#45; WyprowadźProcentPrzetworzonych</text>
<text text-anchor="start" x="482" y="-18" font-family="Helvetica,sans-Serif" font-size="10.00">Plików()</text>
<text text-anchor="middle" x="563.5" y="-7" font-family="Helvetica,sans-Serif" font-size="10.00">}</text>
</a>
</g>
</g>
<!-- Node2 -->
<g id="node2" class="node">
<title>Node2</title>
<g id="a_node2"><a xlink:title=" ">
<polygon fill="white" stroke="#666666" points="61,-492 0,-492 0,-462 61,-462 61,-492"/>
<text text-anchor="middle" x="30.5" y="-480" font-family="Helvetica,sans-Serif" font-size="10.00">{Runnable</text>
<text text-anchor="middle" x="30.5" y="-469" font-family="Helvetica,sans-Serif" font-size="10.00">||}</text>
</a>
</g>
</g>
<!-- Node2&#45;&gt;Node1 -->
<g id="edge1" class="edge">
<title>Node2&#45;&gt;Node1</title>
<path fill="none" stroke="#63b8ff" d="M35.17,-451.89C44.05,-413.18 67.22,-337.77 118.5,-301 227.47,-222.86 378.76,-179.88 473.87,-159.02"/>
<polygon fill="none" stroke="#63b8ff" points="31.73,-451.26 33.04,-461.78 38.57,-452.74 31.73,-451.26"/>
</g>
<!-- Node3 -->
<g id="node3" class="node">
<title>Node3</title>
<g id="a_node3"><a xlink:title=" ">
<polygon fill="white" stroke="#666666" points="158,-492 79,-492 79,-462 158,-462 158,-492"/>
<text text-anchor="middle" x="118.5" y="-480" font-family="Helvetica,sans-Serif" font-size="10.00">{JProgressBar</text>
<text text-anchor="middle" x="118.5" y="-469" font-family="Helvetica,sans-Serif" font-size="10.00">||}</text>
</a>
</g>
</g>
<!-- Node3&#45;&gt;Node1 -->
<g id="edge2" class="edge">
<title>Node3&#45;&gt;Node1</title>
<path fill="none" stroke="#404040" d="M116.12,-461.9C111.51,-429.56 104.91,-349.12 143.5,-301 221.08,-204.26 364.47,-166.54 461.9,-151.85"/>
<polygon fill="none" stroke="#404040" points="461.96,-151.84 467.33,-147.03 473.84,-150.13 468.47,-154.95 461.96,-151.84"/>
<text text-anchor="middle" x="196.5" y="-331.5" font-family="Helvetica,sans-Serif" font-size="10.00"> &#45;PasekIteracji</text>
<text text-anchor="middle" x="196.5" y="-320.5" font-family="Helvetica,sans-Serif" font-size="10.00">&#45;PasekPostępuAnalizy</text>
<text text-anchor="middle" x="196.5" y="-309.5" font-family="Helvetica,sans-Serif" font-size="10.00">&#45;PasekPostępuWalidacji</text>
</g>
<!-- Node4 -->
<g id="node4" class="node">
<title>Node4</title>
<g id="a_node4"><a xlink:title=" ">
<polygon fill="white" stroke="#666666" points="280,-492 215,-492 215,-462 280,-462 280,-492"/>
<text text-anchor="middle" x="247.5" y="-480" font-family="Helvetica,sans-Serif" font-size="10.00">{JTextField</text>
<text text-anchor="middle" x="247.5" y="-469" font-family="Helvetica,sans-Serif" font-size="10.00">||}</text>
</a>
</g>
</g>
<!-- Node4&#45;&gt;Node1 -->
<g id="edge3" class="edge">
<title>Node4&#45;&gt;Node1</title>
<path fill="none" stroke="#404040" d="M245.54,-461.78C241.92,-429.87 237.49,-351.42 272.5,-301 317.46,-236.25 397.66,-195.41 462.49,-171.43"/>
<polygon fill="none" stroke="#404040" points="462.7,-171.35 467,-165.56 474,-167.29 469.7,-173.09 462.7,-171.35"/>
<text text-anchor="middle" x="340" y="-326" font-family="Helvetica,sans-Serif" font-size="10.00"> &#45;PoleTekstoweAnalizy</text>
<text text-anchor="middle" x="340" y="-315" font-family="Helvetica,sans-Serif" font-size="10.00">~MotyDoWyszukaniaTextField</text>
</g>
<!-- Node5 -->
<g id="node5" class="node">
<title>Node5</title>
<g id="a_node5"><a xlink:title=" ">
<polygon fill="white" stroke="#666666" points="437.5,-492 373.5,-492 373.5,-462 437.5,-462 437.5,-492"/>
<text text-anchor="middle" x="405.5" y="-480" font-family="Helvetica,sans-Serif" font-size="10.00">{JTextArea</text>
<text text-anchor="middle" x="405.5" y="-469" font-family="Helvetica,sans-Serif" font-size="10.00">||}</text>
</a>
</g>
</g>
<!-- Node5&#45;&gt;Node1 -->
<g id="edge4" class="edge">
<title>Node5&#45;&gt;Node1</title>
<path fill="none" stroke="#404040" d="M404.24,-461.65C402.1,-430.79 400.16,-356.4 424.5,-301 434.73,-277.71 449.65,-255.39 465.96,-235.22"/>
<polygon fill="none" stroke="#404040" points="466.12,-235.03 466.89,-227.86 473.8,-225.81 473.04,-232.98 466.12,-235.03"/>
<text text-anchor="middle" x="492" y="-320.5" font-family="Helvetica,sans-Serif" font-size="10.00"> &#45;PoleTekstoweDlaNazwyPliku</text>
</g>
<!-- Node6 -->
<g id="node6" class="node">
<title>Node6</title>
<g id="a_node6"><a xlink:title=" ">
<polygon fill="white" stroke="#666666" points="599,-492 528,-492 528,-462 599,-462 599,-492"/>
<text text-anchor="middle" x="563.5" y="-480" font-family="Helvetica,sans-Serif" font-size="10.00">{JCheckBox</text>
<text text-anchor="middle" x="563.5" y="-469" font-family="Helvetica,sans-Serif" font-size="10.00">||}</text>
</a>
</g>
</g>
<!-- Node6&#45;&gt;Node1 -->
<g id="edge5" class="edge">
<title>Node6&#45;&gt;Node1</title>
<path fill="none" stroke="#404040" d="M563.5,-461.67C563.5,-432.27 563.5,-362.23 563.5,-295.23"/>
<polygon fill="none" stroke="#404040" points="563.5,-295.21 559.5,-289.21 563.5,-283.21 567.5,-289.21 563.5,-295.21"/>
<text text-anchor="middle" x="618" y="-337" font-family="Helvetica,sans-Serif" font-size="10.00"> &#45;JednaDługośćBox</text>
<text text-anchor="middle" x="618" y="-326" font-family="Helvetica,sans-Serif" font-size="10.00">&#45;KrabBox</text>
<text text-anchor="middle" x="618" y="-315" font-family="Helvetica,sans-Serif" font-size="10.00">&#45;TylkoPojedyncze</text>
<text text-anchor="middle" x="618" y="-304" font-family="Helvetica,sans-Serif" font-size="10.00">~CzySzukaćMotywuBox</text>
</g>
<!-- Node7 -->
<g id="node7" class="node">
<title>Node7</title>
<g id="a_node7"><a xlink:title=" ">
<polygon fill="white" stroke="#666666" points="719.5,-492 671.5,-492 671.5,-462 719.5,-462 719.5,-492"/>
<text text-anchor="middle" x="695.5" y="-480" font-family="Helvetica,sans-Serif" font-size="10.00">{JLabel</text>
<text text-anchor="middle" x="695.5" y="-469" font-family="Helvetica,sans-Serif" font-size="10.00">||}</text>
</a>
</g>
</g>
<!-- Node7&#45;&gt;Node1 -->
<g id="edge6" class="edge">
<title>Node7&#45;&gt;Node1</title>
<path fill="none" stroke="#404040" d="M695.96,-461.84C696.49,-431.34 695.19,-357.62 673.5,-301 669.45,-290.44 664.56,-279.9 659.11,-269.57"/>
<polygon fill="none" stroke="#404040" points="659.02,-269.41 652.63,-266.08 653.25,-258.89 659.64,-262.23 659.02,-269.41"/>
<text text-anchor="middle" x="753.5" y="-320.5" font-family="Helvetica,sans-Serif" font-size="10.00"> &#45;EtykietaPodPaskiemPostępu</text>
</g>
<!-- Node8 -->
<g id="node8" class="node">
<title>Node8</title>
<g id="a_node8"><a xlink:href="classporownania_1_1PlikZwalidowany.html" target="_top" xlink:title=" ">
<polygon fill="white" stroke="#666666" points="909.5,-525 765.5,-525 765.5,-429 909.5,-429 909.5,-525"/>
<text text-anchor="middle" x="837.5" y="-513" font-family="Helvetica,sans-Serif" font-size="10.00">{porownania.PlikZwalidowany</text>
<text text-anchor="start" x="773.5" y="-502" font-family="Helvetica,sans-Serif" font-size="10.00">|&#45; PełnaNazwaPliku</text>
<text text-anchor="start" x="773.5" y="-491" font-family="Helvetica,sans-Serif" font-size="10.00">&#45; CzyJestPoprawny</text>
<text text-anchor="start" x="773.5" y="-480" font-family="Helvetica,sans-Serif" font-size="10.00">|+ PlikZwalidowany()</text>
<text text-anchor="start" x="773.5" y="-469" font-family="Helvetica,sans-Serif" font-size="10.00">+ getNazwęPliku()</text>
<text text-anchor="start" x="773.5" y="-458" font-family="Helvetica,sans-Serif" font-size="10.00">+ CzyPoprawny()</text>
<text text-anchor="start" x="773.5" y="-447" font-family="Helvetica,sans-Serif" font-size="10.00">+ toString()</text>
<text text-anchor="middle" x="837.5" y="-436" font-family="Helvetica,sans-Serif" font-size="10.00">}</text>
</a>
</g>
</g>
<!-- Node8&#45;&gt;Node1 -->
<g id="edge7" class="edge">
<title>Node8&#45;&gt;Node1</title>
<path fill="none" stroke="#404040" d="M845.12,-428.99C848.71,-391.58 847.97,-339.32 824.5,-301 788.41,-242.09 721.44,-202.08 664.37,-177"/>
<polygon fill="none" stroke="#404040" points="664.13,-176.9 657.04,-178.22 653.1,-172.18 660.19,-170.86 664.13,-176.9"/>
<text text-anchor="middle" x="874" y="-320.5" font-family="Helvetica,sans-Serif" font-size="10.00"> &#45;TablicaPlików</text>
</g>
<!-- Node9 -->
<g id="node9" class="node">
<title>Node9</title>
<g id="a_node9"><a xlink:title=" ">
<polygon fill="white" stroke="#666666" points="981,-492 928,-492 928,-462 981,-462 981,-492"/>
<text text-anchor="middle" x="954.5" y="-480" font-family="Helvetica,sans-Serif" font-size="10.00">{JButton</text>
<text text-anchor="middle" x="954.5" y="-469" font-family="Helvetica,sans-Serif" font-size="10.00">||}</text>
</a>
</g>
</g>
<!-- Node9&#45;&gt;Node1 -->
<g id="edge8" class="edge">
<title>Node9&#45;&gt;Node1</title>
<path fill="none" stroke="#404040" d="M954.86,-461.94C954.94,-429.68 950.79,-349.39 910.5,-301 848.22,-226.2 743.1,-185.05 664.84,-163.56"/>
<polygon fill="none" stroke="#404040" points="664.61,-163.5 657.78,-165.82 653.01,-160.41 659.84,-158.09 664.61,-163.5"/>
<text text-anchor="middle" x="964" y="-320.5" font-family="Helvetica,sans-Serif" font-size="10.00"> &#45;StartButton</text>
</g>
<!-- Node10 -->
<g id="node10" class="node">
<title>Node10</title>
<g id="a_node10"><a xlink:href="classporownania_1_1ZapisywanieTekstuDoPliku.html" target="_top" xlink:title=" ">
<polygon fill="white" stroke="#666666" points="1154,-591 999,-591 999,-363 1154,-363 1154,-591"/>
<text text-anchor="start" x="1007" y="-579" font-family="Helvetica,sans-Serif" font-size="10.00">{porownania.ZapisywanieTekstu</text>
<text text-anchor="middle" x="1076.5" y="-568" font-family="Helvetica,sans-Serif" font-size="10.00">DoPliku</text>
<text text-anchor="start" x="1007" y="-557" font-family="Helvetica,sans-Serif" font-size="10.00">|+ PRZED_OTWARCIEM</text>
<text text-anchor="start" x="1007" y="-546" font-family="Helvetica,sans-Serif" font-size="10.00">+ PLIK_OTWARTY</text>
<text text-anchor="start" x="1007" y="-535" font-family="Helvetica,sans-Serif" font-size="10.00">+ PLIKU_NIE_UDAŁO_SIĘ</text>
<text text-anchor="start" x="1007" y="-524" font-family="Helvetica,sans-Serif" font-size="10.00">_OTWORZYĆ</text>
<text text-anchor="start" x="1007" y="-513" font-family="Helvetica,sans-Serif" font-size="10.00">+ ZAPIS_UDANY</text>
<text text-anchor="start" x="1007" y="-502" font-family="Helvetica,sans-Serif" font-size="10.00">+ ZAPIS_NIEUDANY</text>
<text text-anchor="start" x="1007" y="-491" font-family="Helvetica,sans-Serif" font-size="10.00">+ PLIK_JUŻ_ISTNIEJE</text>
<text text-anchor="start" x="1007" y="-480" font-family="Helvetica,sans-Serif" font-size="10.00">+ PLIK_ZAMKNIĘTY</text>
<text text-anchor="start" x="1007" y="-469" font-family="Helvetica,sans-Serif" font-size="10.00">+ BŁĄD_ZAMKNIĘCIA</text>
<text text-anchor="start" x="1007" y="-458" font-family="Helvetica,sans-Serif" font-size="10.00">&#45; StatusPliku</text>
<text text-anchor="start" x="1007" y="-447" font-family="Helvetica,sans-Serif" font-size="10.00">&#45; NazwaPliku</text>
<text text-anchor="start" x="1007" y="-436" font-family="Helvetica,sans-Serif" font-size="10.00">|+ ZapisywanieTekstuDoPliku()</text>
<text text-anchor="start" x="1007" y="-425" font-family="Helvetica,sans-Serif" font-size="10.00">+ getStatusPliku()</text>
<text text-anchor="start" x="1007" y="-414" font-family="Helvetica,sans-Serif" font-size="10.00">+ OtwórzPlik()</text>
<text text-anchor="start" x="1007" y="-403" font-family="Helvetica,sans-Serif" font-size="10.00">+ ZapiszTekst()</text>
<text text-anchor="start" x="1007" y="-392" font-family="Helvetica,sans-Serif" font-size="10.00">+ ZamknijPlik()</text>
<text text-anchor="start" x="1007" y="-381" font-family="Helvetica,sans-Serif" font-size="10.00">&#45; UtwórzStrumieńDoZapisu()</text>
<text text-anchor="middle" x="1076.5" y="-370" font-family="Helvetica,sans-Serif" font-size="10.00">}</text>
</a>
</g>
</g>
<!-- Node10&#45;&gt;Node1 -->
<g id="edge9" class="edge">
<title>Node10&#45;&gt;Node1</title>
<path fill="none" stroke="#404040" d="M1040.66,-362.77C1029.37,-340.08 1014.89,-318.01 996.5,-301 903.94,-215.38 761.36,-175.12 665.35,-156.81"/>
<polygon fill="none" stroke="#404040" points="665.09,-156.76 658.47,-159.6 653.29,-154.58 659.92,-151.74 665.09,-156.76"/>
<text text-anchor="middle" x="1076" y="-320.5" font-family="Helvetica,sans-Serif" font-size="10.00"> &#45;ZapisywaczDoPliku</text>
</g>
<!-- Node11 -->
<g id="node11" class="node">
<title>Node11</title>
<g id="a_node11"><a xlink:title=" ">
<polygon fill="white" stroke="#666666" points="1010,-668 975,-668 975,-638 1010,-638 1010,-668"/>
<text text-anchor="middle" x="992.5" y="-656" font-family="Helvetica,sans-Serif" font-size="10.00">{File</text>
<text text-anchor="middle" x="992.5" y="-645" font-family="Helvetica,sans-Serif" font-size="10.00">||}</text>
</a>
</g>
</g>
<!-- Node11&#45;&gt;Node10 -->
<g id="edge10" class="edge">
<title>Node11&#45;&gt;Node10</title>
<path fill="none" stroke="#404040" d="M999.37,-637.76C1003.68,-628.84 1009.7,-616.37 1016.49,-602.31"/>
<polygon fill="none" stroke="#404040" points="1016.6,-602.08 1015.61,-594.93 1021.82,-591.27 1022.81,-598.41 1016.6,-602.08"/>
<text text-anchor="middle" x="1025" y="-612" font-family="Helvetica,sans-Serif" font-size="10.00"> &#45;Plik</text>
</g>
<!-- Node12 -->
<g id="node12" class="node">
<title>Node12</title>
<g id="a_node12"><a xlink:title=" ">
<polygon fill="white" stroke="#666666" points="1124.5,-668 1028.5,-668 1028.5,-638 1124.5,-638 1124.5,-668"/>
<text text-anchor="middle" x="1076.5" y="-656" font-family="Helvetica,sans-Serif" font-size="10.00">{FileOutputStream</text>
<text text-anchor="middle" x="1076.5" y="-645" font-family="Helvetica,sans-Serif" font-size="10.00">||}</text>
</a>
</g>
</g>
<!-- Node12&#45;&gt;Node10 -->
<g id="edge11" class="edge">
<title>Node12&#45;&gt;Node10</title>
<path fill="none" stroke="#404040" d="M1076.5,-637.76C1076.5,-629.1 1076.5,-617.1 1076.5,-603.54"/>
<polygon fill="none" stroke="#404040" points="1076.5,-603.27 1072.5,-597.27 1076.5,-591.27 1080.5,-597.27 1076.5,-603.27"/>
<text text-anchor="middle" x="1117.5" y="-612" font-family="Helvetica,sans-Serif" font-size="10.00"> ~StrumieńPlikowy</text>
</g>
<!-- Node13 -->
<g id="node13" class="node">
<title>Node13</title>
<g id="a_node13"><a xlink:title=" ">
<polygon fill="white" stroke="#666666" points="1248.5,-668 1142.5,-668 1142.5,-638 1248.5,-638 1248.5,-668"/>
<text text-anchor="middle" x="1195.5" y="-656" font-family="Helvetica,sans-Serif" font-size="10.00">{OutputStreamWriter</text>
<text text-anchor="middle" x="1195.5" y="-645" font-family="Helvetica,sans-Serif" font-size="10.00">||}</text>
</a>
</g>
</g>
<!-- Node13&#45;&gt;Node10 -->
<g id="edge12" class="edge">
<title>Node13&#45;&gt;Node10</title>
<path fill="none" stroke="#404040" d="M1185.76,-637.76C1179.54,-628.66 1170.8,-615.88 1160.95,-601.48"/>
<polygon fill="none" stroke="#404040" points="1160.74,-601.17 1154.05,-598.48 1153.97,-591.27 1160.65,-593.96 1160.74,-601.17"/>
<text text-anchor="middle" x="1203" y="-612" font-family="Helvetica,sans-Serif" font-size="10.00"> ~Zapisywacz</text>
</g>
</g>
</svg>
