<?xml version="1.0" encoding="UTF-8" standalone="no"?>
<!DOCTYPE svg PUBLIC "-//W3C//DTD SVG 1.1//EN"
 "http://www.w3.org/Graphics/SVG/1.1/DTD/svg11.dtd">
<!-- Generated by graphviz version 2.49.3 (0)
 -->
<!-- Title: porownania.GłówneOknoProgramu.AnalizaPlików Pages: 1 -->
<svg width="586pt" height="134pt"
 viewBox="0.00 0.00 586.00 134.00" xmlns="http://www.w3.org/2000/svg" xmlns:xlink="http://www.w3.org/1999/xlink">
<g id="graph0" class="graph" transform="scale(1 1) rotate(0) translate(4 130)">
<title>porownania.GłówneOknoProgramu.AnalizaPlików</title>
<!-- Node1 -->
<g id="node1" class="node">
<title>Node1</title>
<g id="a_node1"><a xlink:title=" ">
<polygon fill="#999999" stroke="#666666" points="170,-78 0,-78 0,-48 170,-48 170,-78"/>
<text text-anchor="start" x="8" y="-66" font-family="Helvetica,sans-Serif" font-size="10.00">porownania.GłówneOknoProgramu.</text>
<text text-anchor="middle" x="85" y="-55" font-family="Helvetica,sans-Serif" font-size="10.00">AnalizaPlików</text>
</a>
</g>
</g>
<!-- Node2 -->
<g id="node2" class="node">
<title>Node2</title>
<g id="a_node2"><a xlink:href="classporownania_1_1G_xC5_x82_xC3_xB3wneOknoProgramu.html#a848ba442e991e90c84f8e0d75088abc2" target="_top" xlink:title=" ">
<polygon fill="white" stroke="#666666" points="390,-126 206,-126 206,-96 390,-96 390,-126"/>
<text text-anchor="start" x="214" y="-114" font-family="Helvetica,sans-Serif" font-size="10.00">porownania.GłówneOknoProgramu.get</text>
<text text-anchor="middle" x="298" y="-103" font-family="Helvetica,sans-Serif" font-size="10.00">KodowanieZnakówZMenu</text>
</a>
</g>
</g>
<!-- Node1&#45;&gt;Node2 -->
<g id="edge1" class="edge">
<title>Node1&#45;&gt;Node2</title>
<path fill="none" stroke="#63b8ff" d="M152.18,-78.06C174.08,-83.04 198.62,-88.62 221.18,-93.75"/>
<polygon fill="#63b8ff" stroke="#63b8ff" points="220.52,-97.19 231.05,-96 222.08,-90.37 220.52,-97.19"/>
</g>
<!-- Node3 -->
<g id="node3" class="node">
<title>Node3</title>
<g id="a_node3"><a xlink:href="classporownania_1_1G_xC5_x82_xC3_xB3wneOknoProgramu.html#a2e8d10d9a0385666b9010e1e52088c0a" target="_top" xlink:title=" ">
<polygon fill="white" stroke="#666666" points="390,-78 206,-78 206,-48 390,-48 390,-78"/>
<text text-anchor="start" x="214" y="-66" font-family="Helvetica,sans-Serif" font-size="10.00">porownania.GłówneOknoProgramu.get</text>
<text text-anchor="middle" x="298" y="-55" font-family="Helvetica,sans-Serif" font-size="10.00">Liczbę</text>
</a>
</g>
</g>
<!-- Node1&#45;&gt;Node3 -->
<g id="edge2" class="edge">
<title>Node1&#45;&gt;Node3</title>
<path fill="none" stroke="#63b8ff" d="M170.3,-63C178.72,-63 187.32,-63 195.89,-63"/>
<polygon fill="#63b8ff" stroke="#63b8ff" points="195.91,-66.5 205.91,-63 195.91,-59.5 195.91,-66.5"/>
</g>
<!-- Node4 -->
<g id="node4" class="node">
<title>Node4</title>
<g id="a_node4"><a xlink:href="classporownania_1_1AnalizaPor_xC3_xB3wnawcza.html#ab052496ad6bbfee6626bab9a4259372b" target="_top" xlink:title=" ">
<polygon fill="white" stroke="#666666" points="387.5,-30 208.5,-30 208.5,0 387.5,0 387.5,-30"/>
<text text-anchor="start" x="216.5" y="-18" font-family="Helvetica,sans-Serif" font-size="10.00">porownania.AnalizaPorównawcza.get</text>
<text text-anchor="middle" x="298" y="-7" font-family="Helvetica,sans-Serif" font-size="10.00">StatusZapisywaczaDoPliku</text>
</a>
</g>
</g>
<!-- Node1&#45;&gt;Node4 -->
<g id="edge3" class="edge">
<title>Node1&#45;&gt;Node4</title>
<path fill="none" stroke="#63b8ff" d="M152.18,-47.94C174.08,-42.96 198.62,-37.38 221.18,-32.25"/>
<polygon fill="#63b8ff" stroke="#63b8ff" points="222.08,-35.63 231.05,-30 220.52,-28.81 222.08,-35.63"/>
</g>
<!-- Node5 -->
<g id="node5" class="node">
<title>Node5</title>
<g id="a_node5"><a xlink:href="classporownania_1_1ZapisywanieTekstuDoPliku.html#ab5357ad1811776324917c89b6096cdf0" target="_top" xlink:title=" ">
<polygon fill="white" stroke="#666666" points="578,-30 426,-30 426,0 578,0 578,-30"/>
<text text-anchor="start" x="434" y="-18" font-family="Helvetica,sans-Serif" font-size="10.00">porownania.ZapisywanieTekstu</text>
<text text-anchor="middle" x="502" y="-7" font-family="Helvetica,sans-Serif" font-size="10.00">DoPliku.getStatusPliku</text>
</a>
</g>
</g>
<!-- Node4&#45;&gt;Node5 -->
<g id="edge4" class="edge">
<title>Node4&#45;&gt;Node5</title>
<path fill="none" stroke="#63b8ff" d="M387.6,-15C396.94,-15 406.43,-15 415.73,-15"/>
<polygon fill="#63b8ff" stroke="#63b8ff" points="415.74,-18.5 425.74,-15 415.74,-11.5 415.74,-18.5"/>
</g>
</g>
</svg>
