<?xml version="1.0" encoding="UTF-8" standalone="no"?>
<!DOCTYPE svg PUBLIC "-//W3C//DTD SVG 1.1//EN"
 "http://www.w3.org/Graphics/SVG/1.1/DTD/svg11.dtd">
<!-- Generated by graphviz version 2.49.3 (0)
 -->
<!-- Title: Motywy.Motyw.CzyTaktJestPoprawny Pages: 1 -->
<svg width="342pt" height="76pt"
 viewBox="0.00 0.00 342.00 75.50" xmlns="http://www.w3.org/2000/svg" xmlns:xlink="http://www.w3.org/1999/xlink">
<g id="graph0" class="graph" transform="scale(1 1) rotate(0) translate(4 71.5)">
<title>Motywy.Motyw.CzyTaktJestPoprawny</title>
<!-- Node1 -->
<g id="node1" class="node">
<title>Node1</title>
<g id="a_node1"><a xlink:title=" ">
<polygon fill="#999999" stroke="#666666" points="140,-45.5 0,-45.5 0,-15.5 140,-15.5 140,-45.5"/>
<text text-anchor="start" x="8" y="-33.5" font-family="Helvetica,sans-Serif" font-size="10.00">Motywy.Motyw.CzyTaktJest</text>
<text text-anchor="middle" x="70" y="-22.5" font-family="Helvetica,sans-Serif" font-size="10.00">Poprawny</text>
</a>
</g>
</g>
<!-- Node2 -->
<g id="node2" class="node">
<title>Node2</title>
<g id="a_node2"><a xlink:href="classMotywy_1_1Motyw.html#a27a95910b9b659fd1b4cdbe1085f721e" target="_top" xlink:title=" ">
<polygon fill="white" stroke="#666666" points="328,-67.5 182,-67.5 182,-37.5 328,-37.5 328,-67.5"/>
<text text-anchor="start" x="190" y="-55.5" font-family="Helvetica,sans-Serif" font-size="10.00">Motywy.Motyw.CzyPoprawna</text>
<text text-anchor="middle" x="255" y="-44.5" font-family="Helvetica,sans-Serif" font-size="10.00">Double</text>
</a>
</g>
</g>
<!-- Node1&#45;&gt;Node2 -->
<g id="edge1" class="edge">
<title>Node1&#45;&gt;Node2</title>
<path fill="none" stroke="#63b8ff" d="M140.18,-38.82C150.54,-40.06 161.3,-41.36 171.89,-42.63"/>
<polygon fill="#63b8ff" stroke="#63b8ff" points="171.63,-46.12 181.98,-43.84 172.46,-39.17 171.63,-46.12"/>
</g>
<!-- Node3 -->
<g id="node3" class="node">
<title>Node3</title>
<g id="a_node3"><a xlink:href="classMotywy_1_1Motyw.html#af0f89022bd600a2f2e84887b90a82db7" target="_top" xlink:title=" ">
<polygon fill="white" stroke="#666666" points="334,-19 176,-19 176,0 334,0 334,-19"/>
<text text-anchor="middle" x="255" y="-7" font-family="Helvetica,sans-Serif" font-size="10.00">Motywy.Motyw.CzyPoprawnyInt</text>
</a>
</g>
</g>
<!-- Node1&#45;&gt;Node3 -->
<g id="edge2" class="edge">
<title>Node1&#45;&gt;Node3</title>
<path fill="none" stroke="#63b8ff" d="M140.18,-22.56C148.55,-21.6 157.18,-20.61 165.77,-19.62"/>
<polygon fill="#63b8ff" stroke="#63b8ff" points="166.29,-23.09 175.83,-18.47 165.49,-16.13 166.29,-23.09"/>
</g>
</g>
</svg>
