<?xml version="1.0" encoding="UTF-8" standalone="no"?>
<!DOCTYPE svg PUBLIC "-//W3C//DTD SVG 1.1//EN"
 "http://www.w3.org/Graphics/SVG/1.1/DTD/svg11.dtd">
<!-- Generated by graphviz version 2.49.3 (0)
 -->
<!-- Title: Motywy.Motyw.WykonajKraba Pages: 1 -->
<svg width="512pt" height="70pt"
 viewBox="0.00 0.00 512.00 69.50" xmlns="http://www.w3.org/2000/svg" xmlns:xlink="http://www.w3.org/1999/xlink">
<g id="graph0" class="graph" transform="scale(1 1) rotate(0) translate(4 65.5)">
<title>Motywy.Motyw.WykonajKraba</title>
<!-- Node1 -->
<g id="node1" class="node">
<title>Node1</title>
<g id="a_node1"><a xlink:title=" ">
<polygon fill="#999999" stroke="#666666" points="504,-42.5 356,-42.5 356,-23.5 504,-23.5 504,-42.5"/>
<text text-anchor="middle" x="430" y="-30.5" font-family="Helvetica,sans-Serif" font-size="10.00">Motywy.Motyw.WykonajKraba</text>
</a>
</g>
</g>
<!-- Node2 -->
<g id="node2" class="node">
<title>Node2</title>
<g id="a_node2"><a xlink:href="classMotywy_1_1Motyw.html#aaf6b164d32ae45a3647c86047afb23d3" target="_top" xlink:title=" ">
<polygon fill="white" stroke="#666666" points="304,-61.5 190,-61.5 190,-42.5 304,-42.5 304,-61.5"/>
<text text-anchor="middle" x="247" y="-49.5" font-family="Helvetica,sans-Serif" font-size="10.00">Motywy.Motyw.Motyw</text>
</a>
</g>
</g>
<!-- Node1&#45;&gt;Node2 -->
<g id="edge1" class="edge">
<title>Node1&#45;&gt;Node2</title>
<path fill="none" stroke="#63b8ff" d="M345.7,-41.74C331.61,-43.22 317.29,-44.73 304.11,-46.11"/>
<polygon fill="#63b8ff" stroke="#63b8ff" points="346.32,-45.2 355.9,-40.67 345.59,-38.24 346.32,-45.2"/>
</g>
<!-- Node3 -->
<g id="node3" class="node">
<title>Node3</title>
<g id="a_node3"><a xlink:href="classMotywy_1_1Motyw.html#a7aa0c770a7e49f3fcfe491292039798c" target="_top" xlink:title=" ">
<polygon fill="white" stroke="#666666" points="320,-24.5 174,-24.5 174,-5.5 320,-5.5 320,-24.5"/>
<text text-anchor="middle" x="247" y="-12.5" font-family="Helvetica,sans-Serif" font-size="10.00">Motywy.Motyw.Odkrabowanie</text>
</a>
</g>
</g>
<!-- Node1&#45;&gt;Node3 -->
<g id="edge2" class="edge">
<title>Node1&#45;&gt;Node3</title>
<path fill="none" stroke="#63b8ff" d="M345.89,-24.73C337.31,-23.88 328.64,-23.02 320.19,-22.18"/>
<polygon fill="#63b8ff" stroke="#63b8ff" points="345.6,-28.22 355.9,-25.73 346.3,-21.26 345.6,-28.22"/>
</g>
<!-- Node4 -->
<g id="node4" class="node">
<title>Node4</title>
<g id="a_node4"><a xlink:href="classMotywy_1_1ParaMotyw_xC3_xB3w.html#ab931de0cb5af4fd954d48d91c1de5c24" target="_top" xlink:title=" ">
<polygon fill="white" stroke="#666666" points="138,-30 0,-30 0,0 138,0 138,-30"/>
<text text-anchor="start" x="8" y="-18" font-family="Helvetica,sans-Serif" font-size="10.00">Motywy.ParaMotywów.Para</text>
<text text-anchor="middle" x="69" y="-7" font-family="Helvetica,sans-Serif" font-size="10.00">Motywów</text>
</a>
</g>
</g>
<!-- Node3&#45;&gt;Node4 -->
<g id="edge3" class="edge">
<title>Node3&#45;&gt;Node4</title>
<path fill="none" stroke="#63b8ff" d="M163.82,-15C155.18,-15 146.47,-15 138.01,-15"/>
<polygon fill="#63b8ff" stroke="#63b8ff" points="163.91,-18.5 173.91,-15 163.91,-11.5 163.91,-18.5"/>
</g>
</g>
</svg>
