<?xml version="1.0" encoding="UTF-8" standalone="no"?>
<!DOCTYPE svg PUBLIC "-//W3C//DTD SVG 1.1//EN"
 "http://www.w3.org/Graphics/SVG/1.1/DTD/svg11.dtd">
<!-- Generated by graphviz version 2.49.3 (0)
 -->
<!-- Title: Struktury.Interpreter.WalidacjaLiczb Pages: 1 -->
<svg width="534pt" height="192pt"
 viewBox="0.00 0.00 534.00 192.00" xmlns="http://www.w3.org/2000/svg" xmlns:xlink="http://www.w3.org/1999/xlink">
<g id="graph0" class="graph" transform="scale(1 1) rotate(0) translate(4 188)">
<title>Struktury.Interpreter.WalidacjaLiczb</title>
<!-- Node1 -->
<g id="node1" class="node">
<title>Node1</title>
<g id="a_node1"><a xlink:title=" ">
<polygon fill="#999999" stroke="#666666" points="149,-96 0,-96 0,-66 149,-66 149,-96"/>
<text text-anchor="start" x="8" y="-84" font-family="Helvetica,sans-Serif" font-size="10.00">Struktury.Interpreter.Walidacja</text>
<text text-anchor="middle" x="74.5" y="-73" font-family="Helvetica,sans-Serif" font-size="10.00">Liczb</text>
</a>
</g>
</g>
<!-- Node2 -->
<g id="node2" class="node">
<title>Node2</title>
<g id="a_node2"><a xlink:href="classStruktury_1_1Interpreter.html#a1da1fa6fac2c58bb39c6ddb88ee73391" target="_top" xlink:title=" ">
<polygon fill="white" stroke="#666666" points="324,-184 199,-184 199,-154 324,-154 324,-184"/>
<text text-anchor="start" x="207" y="-172" font-family="Helvetica,sans-Serif" font-size="10.00">Struktury.Interpreter.Czy</text>
<text text-anchor="middle" x="261.5" y="-161" font-family="Helvetica,sans-Serif" font-size="10.00">Liczba</text>
</a>
</g>
</g>
<!-- Node1&#45;&gt;Node2 -->
<g id="edge1" class="edge">
<title>Node1&#45;&gt;Node2</title>
<path fill="none" stroke="#63b8ff" d="M97.79,-96.01C119.38,-110.07 153.41,-130.96 185,-145 189.33,-146.92 193.86,-148.77 198.46,-150.51"/>
<polygon fill="#63b8ff" stroke="#63b8ff" points="197.36,-153.83 207.95,-153.95 199.74,-147.25 197.36,-153.83"/>
</g>
<!-- Node3 -->
<g id="node3" class="node">
<title>Node3</title>
<g id="a_node3"><a xlink:href="classStruktury_1_1Arkusz.html#ae8591575a4713c4b787d850bc4b5b7d7" target="_top" xlink:title=" ">
<polygon fill="white" stroke="#666666" points="330.5,-118 192.5,-118 192.5,-88 330.5,-88 330.5,-118"/>
<text text-anchor="start" x="200.5" y="-106" font-family="Helvetica,sans-Serif" font-size="10.00">Struktury.Arkusz.getNazwę</text>
<text text-anchor="middle" x="261.5" y="-95" font-family="Helvetica,sans-Serif" font-size="10.00">Kolumny</text>
</a>
</g>
</g>
<!-- Node1&#45;&gt;Node3 -->
<g id="edge2" class="edge">
<title>Node1&#45;&gt;Node3</title>
<path fill="none" stroke="#63b8ff" d="M149.15,-89.76C160.03,-91.05 171.27,-92.39 182.23,-93.69"/>
<polygon fill="#63b8ff" stroke="#63b8ff" points="181.87,-97.17 192.21,-94.88 182.69,-90.22 181.87,-97.17"/>
</g>
<!-- Node4 -->
<g id="node4" class="node">
<title>Node4</title>
<g id="a_node4"><a xlink:href="classStruktury_1_1Arkusz.html#a2609006d8beb64d6e213f77f2ebca081" target="_top" xlink:title=" ">
<polygon fill="white" stroke="#666666" points="338,-69.5 185,-69.5 185,-50.5 338,-50.5 338,-69.5"/>
<text text-anchor="middle" x="261.5" y="-57.5" font-family="Helvetica,sans-Serif" font-size="10.00">Struktury.Arkusz.getZawartość</text>
</a>
</g>
</g>
<!-- Node1&#45;&gt;Node4 -->
<g id="edge4" class="edge">
<title>Node1&#45;&gt;Node4</title>
<path fill="none" stroke="#63b8ff" d="M149.15,-72.64C157.62,-71.68 166.32,-70.69 174.93,-69.71"/>
<polygon fill="#63b8ff" stroke="#63b8ff" points="175.44,-73.18 184.99,-68.57 174.65,-66.22 175.44,-73.18"/>
</g>
<!-- Node6 -->
<g id="node6" class="node">
<title>Node6</title>
<g id="a_node6"><a xlink:href="classStruktury_1_1Arkusz.html#a3747bcb1e5e0c4a73035e9578b6bf6d7" target="_top" xlink:title=" ">
<polygon fill="white" stroke="#666666" points="335,-29.5 188,-29.5 188,-10.5 335,-10.5 335,-29.5"/>
<text text-anchor="middle" x="261.5" y="-17.5" font-family="Helvetica,sans-Serif" font-size="10.00">Struktury.Arkusz.setKomórkę</text>
</a>
</g>
</g>
<!-- Node1&#45;&gt;Node6 -->
<g id="edge6" class="edge">
<title>Node1&#45;&gt;Node6</title>
<path fill="none" stroke="#63b8ff" d="M114.26,-65.99C135.09,-58.14 161.3,-48.61 185,-41 194.33,-38 204.38,-35.03 214.01,-32.31"/>
<polygon fill="#63b8ff" stroke="#63b8ff" points="215.15,-35.62 223.85,-29.57 213.27,-28.88 215.15,-35.62"/>
</g>
<!-- Node3&#45;&gt;Node3 -->
<g id="edge3" class="edge">
<title>Node3&#45;&gt;Node3</title>
<path fill="none" stroke="#63b8ff" d="M228.8,-118.28C221.54,-127.41 232.44,-136 261.5,-136 278.76,-136 289.61,-132.97 294.06,-128.6"/>
<polygon fill="#63b8ff" stroke="#63b8ff" points="297.56,-128.32 294.2,-118.28 290.56,-128.23 297.56,-128.32"/>
</g>
<!-- Node5 -->
<g id="node5" class="node">
<title>Node5</title>
<g id="a_node5"><a xlink:href="classStruktury_1_1Kom_xC3_xB3rkaArkusza.html#a42c4136f3d8445665c672404a0cf9b58" target="_top" xlink:title=" ">
<polygon fill="white" stroke="#666666" points="526,-78 374,-78 374,-48 526,-48 526,-78"/>
<text text-anchor="start" x="382" y="-66" font-family="Helvetica,sans-Serif" font-size="10.00">Struktury.KomórkaArkusza.get</text>
<text text-anchor="middle" x="450" y="-55" font-family="Helvetica,sans-Serif" font-size="10.00">Komórkę</text>
</a>
</g>
</g>
<!-- Node4&#45;&gt;Node5 -->
<g id="edge5" class="edge">
<title>Node4&#45;&gt;Node5</title>
<path fill="none" stroke="#63b8ff" d="M338.09,-61.22C346.58,-61.35 355.27,-61.49 363.87,-61.63"/>
<polygon fill="#63b8ff" stroke="#63b8ff" points="363.86,-65.13 373.91,-61.79 363.97,-58.13 363.86,-65.13"/>
</g>
<!-- Node7 -->
<g id="node7" class="node">
<title>Node7</title>
<g id="a_node7"><a xlink:href="classStruktury_1_1Kom_xC3_xB3rkaArkusza.html#a9e8a46a4fc47a0e2863c8f05528825a2" target="_top" xlink:title=" ">
<polygon fill="white" stroke="#666666" points="526,-30 374,-30 374,0 526,0 526,-30"/>
<text text-anchor="start" x="382" y="-18" font-family="Helvetica,sans-Serif" font-size="10.00">Struktury.KomórkaArkusza.set</text>
<text text-anchor="middle" x="450" y="-7" font-family="Helvetica,sans-Serif" font-size="10.00">Wartość</text>
</a>
</g>
</g>
<!-- Node6&#45;&gt;Node7 -->
<g id="edge7" class="edge">
<title>Node6&#45;&gt;Node7</title>
<path fill="none" stroke="#63b8ff" d="M335.14,-18.05C344.45,-17.8 354.06,-17.55 363.55,-17.29"/>
<polygon fill="#63b8ff" stroke="#63b8ff" points="363.89,-20.78 373.79,-17.02 363.7,-13.79 363.89,-20.78"/>
</g>
</g>
</svg>
