<?xml version="1.0" encoding="UTF-8" standalone="no"?>
<!DOCTYPE svg PUBLIC "-//W3C//DTD SVG 1.1//EN"
 "http://www.w3.org/Graphics/SVG/1.1/DTD/svg11.dtd">
<!-- Generated by graphviz version 2.49.3 (0)
 -->
<!-- Title: Struktury.Zdarzenie.RóżnicaInterwał Pages: 1 -->
<svg width="338pt" height="64pt"
 viewBox="0.00 0.00 338.00 64.00" xmlns="http://www.w3.org/2000/svg" xmlns:xlink="http://www.w3.org/1999/xlink">
<g id="graph0" class="graph" transform="scale(1 1) rotate(0) translate(4 60)">
<title>Struktury.Zdarzenie.RóżnicaInterwał</title>
<!-- Node1 -->
<g id="node1" class="node">
<title>Node1</title>
<g id="a_node1"><a xlink:title=" ">
<polygon fill="#999999" stroke="#666666" points="142,-42.5 0,-42.5 0,-12.5 142,-12.5 142,-42.5"/>
<text text-anchor="start" x="8" y="-30.5" font-family="Helvetica,sans-Serif" font-size="10.00">Struktury.Zdarzenie.Różnica</text>
<text text-anchor="middle" x="71" y="-19.5" font-family="Helvetica,sans-Serif" font-size="10.00">Interwał</text>
</a>
</g>
</g>
<!-- Node2 -->
<g id="node2" class="node">
<title>Node2</title>
<g id="a_node2"><a xlink:href="classStruktury_1_1Zdarzenie.html#aa2021baa34312354e2f93f48098a9834" target="_top" xlink:title=" ">
<polygon fill="white" stroke="#666666" points="330,-56 178,-56 178,-37 330,-37 330,-56"/>
<text text-anchor="middle" x="254" y="-44" font-family="Helvetica,sans-Serif" font-size="10.00">Struktury.Zdarzenie.getInterval</text>
</a>
</g>
</g>
<!-- Node1&#45;&gt;Node2 -->
<g id="edge1" class="edge">
<title>Node1&#45;&gt;Node2</title>
<path fill="none" stroke="#63b8ff" d="M142.24,-34.87C150.59,-35.75 159.19,-36.65 167.73,-37.55"/>
<polygon fill="#63b8ff" stroke="#63b8ff" points="167.4,-41.03 177.71,-38.6 168.13,-34.07 167.4,-41.03"/>
</g>
<!-- Node3 -->
<g id="node3" class="node">
<title>Node3</title>
<g id="a_node3"><a xlink:href="classStruktury_1_1Zdarzenie.html#a0d579308bbe6a5400dd6fbfb35d1ea31" target="_top" xlink:title=" ">
<polygon fill="white" stroke="#666666" points="325,-19 183,-19 183,0 325,0 325,-19"/>
<text text-anchor="middle" x="254" y="-7" font-family="Helvetica,sans-Serif" font-size="10.00">Struktury.Zdarzenie.getPitch</text>
</a>
</g>
</g>
<!-- Node1&#45;&gt;Node3 -->
<g id="edge2" class="edge">
<title>Node1&#45;&gt;Node3</title>
<path fill="none" stroke="#63b8ff" d="M142.24,-20.51C152.23,-19.52 162.56,-18.49 172.72,-17.48"/>
<polygon fill="#63b8ff" stroke="#63b8ff" points="173.2,-20.95 182.8,-16.48 172.5,-13.99 173.2,-20.95"/>
</g>
</g>
</svg>
