<?xml version="1.0" encoding="UTF-8" standalone="no"?>
<!DOCTYPE svg PUBLIC "-//W3C//DTD SVG 1.1//EN"
 "http://www.w3.org/Graphics/SVG/1.1/DTD/svg11.dtd">
<!-- Generated by graphviz version 2.49.3 (0)
 -->
<!-- Title: porownania.WynikWyszukiwania.toString Pages: 1 -->
<svg width="378pt" height="86pt"
 viewBox="0.00 0.00 378.00 86.00" xmlns="http://www.w3.org/2000/svg" xmlns:xlink="http://www.w3.org/1999/xlink">
<g id="graph0" class="graph" transform="scale(1 1) rotate(0) translate(4 82)">
<title>porownania.WynikWyszukiwania.toString</title>
<!-- Node1 -->
<g id="node1" class="node">
<title>Node1</title>
<g id="a_node1"><a xlink:title=" ">
<polygon fill="#999999" stroke="#666666" points="171,-54 0,-54 0,-24 171,-24 171,-54"/>
<text text-anchor="start" x="8" y="-42" font-family="Helvetica,sans-Serif" font-size="10.00">porownania.WynikWyszukiwania.to</text>
<text text-anchor="middle" x="85.5" y="-31" font-family="Helvetica,sans-Serif" font-size="10.00">String</text>
</a>
</g>
</g>
<!-- Node2 -->
<g id="node2" class="node">
<title>Node2</title>
<g id="a_node2"><a xlink:href="classporownania_1_1WynikWyszukiwania.html#a33dff672e1283e70cb7decda7c628a05" target="_top" xlink:title=" ">
<polygon fill="white" stroke="#666666" points="370,-78 207,-78 207,-48 370,-48 370,-78"/>
<text text-anchor="start" x="215" y="-66" font-family="Helvetica,sans-Serif" font-size="10.00">porownania.WynikWyszukiwania.</text>
<text text-anchor="middle" x="288.5" y="-55" font-family="Helvetica,sans-Serif" font-size="10.00">GenerujNagłówek</text>
</a>
</g>
</g>
<!-- Node1&#45;&gt;Node2 -->
<g id="edge1" class="edge">
<title>Node1&#45;&gt;Node2</title>
<path fill="none" stroke="#63b8ff" d="M171.16,-49.11C179.64,-50.12 188.28,-51.15 196.82,-52.17"/>
<polygon fill="#63b8ff" stroke="#63b8ff" points="196.44,-55.65 206.79,-53.36 197.27,-48.7 196.44,-55.65"/>
</g>
<!-- Node3 -->
<g id="node3" class="node">
<title>Node3</title>
<g id="a_node3"><a xlink:href="classporownania_1_1WynikWyszukiwania.html#af2bbc9c8c4f81850326651f91f03df18" target="_top" xlink:title=" ">
<polygon fill="white" stroke="#666666" points="370,-30 207,-30 207,0 370,0 370,-30"/>
<text text-anchor="start" x="215" y="-18" font-family="Helvetica,sans-Serif" font-size="10.00">porownania.WynikWyszukiwania.</text>
<text text-anchor="middle" x="288.5" y="-7" font-family="Helvetica,sans-Serif" font-size="10.00">GenerujTabelkę</text>
</a>
</g>
</g>
<!-- Node1&#45;&gt;Node3 -->
<g id="edge2" class="edge">
<title>Node1&#45;&gt;Node3</title>
<path fill="none" stroke="#63b8ff" d="M171.16,-28.89C179.64,-27.88 188.28,-26.85 196.82,-25.83"/>
<polygon fill="#63b8ff" stroke="#63b8ff" points="197.27,-29.3 206.79,-24.64 196.44,-22.35 197.27,-29.3"/>
</g>
</g>
</svg>
