<?xml version="1.0" encoding="UTF-8" standalone="no"?>
<!DOCTYPE svg PUBLIC "-//W3C//DTD SVG 1.1//EN"
 "http://www.w3.org/Graphics/SVG/1.1/DTD/svg11.dtd">
<!-- Generated by graphviz version 2.49.3 (0)
 -->
<!-- Title: Struktury.ArkuszZdarzenie.getNazwęKolumny Pages: 1 -->
<svg width="924pt" height="276pt"
 viewBox="0.00 0.00 924.00 276.00" xmlns="http://www.w3.org/2000/svg" xmlns:xlink="http://www.w3.org/1999/xlink">
<g id="graph0" class="graph" transform="scale(1 1) rotate(0) translate(4 272)">
<title>Struktury.ArkuszZdarzenie.getNazwęKolumny</title>
<!-- Node1 -->
<g id="node1" class="node">
<title>Node1</title>
<g id="a_node1"><a xlink:title=" ">
<polygon fill="#999999" stroke="#666666" points="916,-182.5 765,-182.5 765,-152.5 916,-152.5 916,-182.5"/>
<text text-anchor="start" x="773" y="-170.5" font-family="Helvetica,sans-Serif" font-size="10.00">Struktury.ArkuszZdarzenie.get</text>
<text text-anchor="middle" x="840.5" y="-159.5" font-family="Helvetica,sans-Serif" font-size="10.00">NazwęKolumny</text>
</a>
</g>
</g>
<!-- Node2 -->
<g id="node2" class="node">
<title>Node2</title>
<g id="a_node2"><a xlink:href="classMotywy_1_1ParaMotyw_xC3_xB3w.html#a6aaa007eb7c2926409379ed9ce8c48cf" target="_top" xlink:title=" ">
<polygon fill="white" stroke="#666666" points="729,-268 563,-268 563,-249 729,-249 729,-268"/>
<text text-anchor="middle" x="646" y="-256" font-family="Helvetica,sans-Serif" font-size="10.00">Motywy.ParaMotywów.compareTo</text>
</a>
</g>
</g>
<!-- Node1&#45;&gt;Node2 -->
<g id="edge1" class="edge">
<title>Node1&#45;&gt;Node2</title>
<path fill="none" stroke="#63b8ff" d="M812.72,-188.81C791.23,-204.92 759.69,-226.43 729,-239.5 719.99,-243.34 710.08,-246.47 700.36,-249"/>
<polygon fill="#63b8ff" stroke="#63b8ff" points="814.88,-191.56 820.72,-182.71 810.64,-185.99 814.88,-191.56"/>
</g>
<!-- Node3 -->
<g id="node3" class="node">
<title>Node3</title>
<g id="a_node3"><a xlink:href="classMotywy_1_1Motyw.html#a33ed5bd5d14abe5cb8e0451bb8dbb4c7" target="_top" xlink:title=" ">
<polygon fill="white" stroke="#666666" points="719.5,-230.5 572.5,-230.5 572.5,-200.5 719.5,-200.5 719.5,-230.5"/>
<text text-anchor="start" x="580.5" y="-218.5" font-family="Helvetica,sans-Serif" font-size="10.00">Motywy.Motyw.getLokalizację</text>
<text text-anchor="middle" x="646" y="-207.5" font-family="Helvetica,sans-Serif" font-size="10.00">Końca</text>
</a>
</g>
</g>
<!-- Node1&#45;&gt;Node3 -->
<g id="edge2" class="edge">
<title>Node1&#45;&gt;Node3</title>
<path fill="none" stroke="#63b8ff" d="M769.27,-185.01C748.91,-190.09 726.86,-195.59 707.17,-200.5"/>
<polygon fill="#63b8ff" stroke="#63b8ff" points="770.26,-188.37 779.12,-182.56 768.57,-181.58 770.26,-188.37"/>
</g>
<!-- Node5 -->
<g id="node5" class="node">
<title>Node5</title>
<g id="a_node5"><a xlink:href="classMotywy_1_1Motyw.html#a849761056fc3a98537ebb0089584cfdb" target="_top" xlink:title=" ">
<polygon fill="white" stroke="#666666" points="719.5,-182.5 572.5,-182.5 572.5,-152.5 719.5,-152.5 719.5,-182.5"/>
<text text-anchor="start" x="580.5" y="-170.5" font-family="Helvetica,sans-Serif" font-size="10.00">Motywy.Motyw.getLokalizację</text>
<text text-anchor="middle" x="646" y="-159.5" font-family="Helvetica,sans-Serif" font-size="10.00">Początku</text>
</a>
</g>
</g>
<!-- Node1&#45;&gt;Node5 -->
<g id="edge4" class="edge">
<title>Node1&#45;&gt;Node5</title>
<path fill="none" stroke="#63b8ff" d="M754.65,-167.5C743.01,-167.5 731.15,-167.5 719.76,-167.5"/>
<polygon fill="#63b8ff" stroke="#63b8ff" points="754.8,-171 764.8,-167.5 754.8,-164 754.8,-171"/>
</g>
<!-- Node8 -->
<g id="node8" class="node">
<title>Node8</title>
<g id="a_node8"><a xlink:href="classMotywy_1_1Fragmenty.html#a654558f130a86c40dff29b3955c7e5ce" target="_top" xlink:title=" ">
<polygon fill="white" stroke="#666666" points="714,-115.5 578,-115.5 578,-85.5 714,-85.5 714,-115.5"/>
<text text-anchor="start" x="586" y="-103.5" font-family="Helvetica,sans-Serif" font-size="10.00">Motywy.Fragmenty.getOpis</text>
<text text-anchor="middle" x="646" y="-92.5" font-family="Helvetica,sans-Serif" font-size="10.00">KomórkiArkusza</text>
</a>
</g>
</g>
<!-- Node1&#45;&gt;Node8 -->
<g id="edge8" class="edge">
<title>Node1&#45;&gt;Node8</title>
<path fill="none" stroke="#63b8ff" d="M786.75,-149.14C756.48,-138.6 718.94,-125.54 690.39,-115.6"/>
<polygon fill="#63b8ff" stroke="#63b8ff" points="785.7,-152.48 796.3,-152.46 788.01,-145.87 785.7,-152.48"/>
</g>
<!-- Node13 -->
<g id="node13" class="node">
<title>Node13</title>
<g id="a_node13"><a xlink:href="classMotywy_1_1Por_xC3_xB3wnanieZZadanym.html#a11ff4401b316e36ea9263506ab0eeefa" target="_top" xlink:title=" ">
<polygon fill="white" stroke="#666666" points="723,-46.5 569,-46.5 569,-16.5 723,-16.5 723,-46.5"/>
<text text-anchor="start" x="577" y="-34.5" font-family="Helvetica,sans-Serif" font-size="10.00">Motywy.PorównanieZZadanym.</text>
<text text-anchor="middle" x="646" y="-23.5" font-family="Helvetica,sans-Serif" font-size="10.00">ZrealizujPorównanie</text>
</a>
</g>
</g>
<!-- Node1&#45;&gt;Node13 -->
<g id="edge14" class="edge">
<title>Node1&#45;&gt;Node13</title>
<path fill="none" stroke="#63b8ff" d="M815.6,-145.59C793.88,-126.23 760.52,-97.85 729,-76.5 712.73,-65.48 693.52,-54.82 677.79,-46.65"/>
<polygon fill="#63b8ff" stroke="#63b8ff" points="813.27,-148.2 823.05,-152.28 817.95,-142.99 813.27,-148.2"/>
</g>
<!-- Node4 -->
<g id="node4" class="node">
<title>Node4</title>
<g id="a_node4"><a xlink:href="classMotywy_1_1Fragmenty.html#afd7562817c9b351e1f74c5a4d0531900" target="_top" xlink:title=" ">
<polygon fill="white" stroke="#666666" points="505.5,-249.5 369.5,-249.5 369.5,-219.5 505.5,-219.5 505.5,-249.5"/>
<text text-anchor="start" x="377.5" y="-237.5" font-family="Helvetica,sans-Serif" font-size="10.00">Motywy.Fragmenty.Generuj</text>
<text text-anchor="middle" x="437.5" y="-226.5" font-family="Helvetica,sans-Serif" font-size="10.00">TablicęOpisu</text>
</a>
</g>
</g>
<!-- Node3&#45;&gt;Node4 -->
<g id="edge3" class="edge">
<title>Node3&#45;&gt;Node4</title>
<path fill="none" stroke="#63b8ff" d="M562.43,-223.1C543.58,-224.83 523.77,-226.65 505.65,-228.32"/>
<polygon fill="#63b8ff" stroke="#63b8ff" points="562.85,-226.57 572.49,-222.17 562.21,-219.6 562.85,-226.57"/>
</g>
<!-- Node5&#45;&gt;Node4 -->
<g id="edge5" class="edge">
<title>Node5&#45;&gt;Node4</title>
<path fill="none" stroke="#63b8ff" d="M578.48,-185.73C573.2,-187.55 567.98,-189.48 563,-191.5 546.23,-198.3 543.83,-203.87 527,-210.5 518.71,-213.77 509.8,-216.75 500.96,-219.43"/>
<polygon fill="#63b8ff" stroke="#63b8ff" points="579.64,-189.03 588.03,-182.56 577.44,-182.39 579.64,-189.03"/>
</g>
<!-- Node6 -->
<g id="node6" class="node">
<title>Node6</title>
<g id="a_node6"><a xlink:href="classMotywy_1_1Fragmenty.html#acfa236e2c16528208cbbb131c87212c1" target="_top" xlink:title=" ">
<polygon fill="white" stroke="#666666" points="507.5,-201.5 367.5,-201.5 367.5,-171.5 507.5,-171.5 507.5,-201.5"/>
<text text-anchor="start" x="375.5" y="-189.5" font-family="Helvetica,sans-Serif" font-size="10.00">Motywy.Fragmenty.getMiary</text>
<text text-anchor="middle" x="437.5" y="-178.5" font-family="Helvetica,sans-Serif" font-size="10.00">Motywów</text>
</a>
</g>
</g>
<!-- Node5&#45;&gt;Node6 -->
<g id="edge6" class="edge">
<title>Node5&#45;&gt;Node6</title>
<path fill="none" stroke="#63b8ff" d="M562.5,-175.09C544.34,-176.76 525.29,-178.51 507.72,-180.13"/>
<polygon fill="#63b8ff" stroke="#63b8ff" points="562.85,-178.57 572.49,-174.17 562.21,-171.6 562.85,-178.57"/>
</g>
<!-- Node7 -->
<g id="node7" class="node">
<title>Node7</title>
<g id="a_node7"><a xlink:href="classMotywy_1_1ParaMotyw_xC3_xB3w.html#a550c047510c9b973f12086d4f599f13d" target="_top" xlink:title=" ">
<polygon fill="white" stroke="#666666" points="513.5,-153 361.5,-153 361.5,-134 513.5,-134 513.5,-153"/>
<text text-anchor="middle" x="437.5" y="-141" font-family="Helvetica,sans-Serif" font-size="10.00">Motywy.ParaMotywów.toString</text>
</a>
</g>
</g>
<!-- Node5&#45;&gt;Node7 -->
<g id="edge7" class="edge">
<title>Node5&#45;&gt;Node7</title>
<path fill="none" stroke="#63b8ff" d="M562.54,-157.92C546.39,-156.04 529.53,-154.08 513.64,-152.23"/>
<polygon fill="#63b8ff" stroke="#63b8ff" points="562.15,-161.39 572.49,-159.07 562.96,-154.44 562.15,-161.39"/>
</g>
<!-- Node9 -->
<g id="node9" class="node">
<title>Node9</title>
<g id="a_node9"><a xlink:href="classMotywy_1_1Fragmenty.html#a0980cac3e787436873aefd34d196428f" target="_top" xlink:title=" ">
<polygon fill="white" stroke="#666666" points="519.5,-115.5 355.5,-115.5 355.5,-85.5 519.5,-85.5 519.5,-115.5"/>
<text text-anchor="start" x="363.5" y="-103.5" font-family="Helvetica,sans-Serif" font-size="10.00">Motywy.Fragmenty.TwórzIndeksy</text>
<text text-anchor="middle" x="437.5" y="-92.5" font-family="Helvetica,sans-Serif" font-size="10.00">Liczbowe</text>
</a>
</g>
</g>
<!-- Node8&#45;&gt;Node9 -->
<g id="edge9" class="edge">
<title>Node8&#45;&gt;Node9</title>
<path fill="none" stroke="#63b8ff" d="M567.77,-100.5C552.05,-100.5 535.47,-100.5 519.63,-100.5"/>
<polygon fill="#63b8ff" stroke="#63b8ff" points="567.96,-104 577.96,-100.5 567.96,-97 567.96,-104"/>
</g>
<!-- Node12 -->
<g id="node12" class="node">
<title>Node12</title>
<g id="a_node12"><a xlink:href="classMotywy_1_1Fragmenty.html#a1d32b57c48e3938e88c61779d38cb519" target="_top" xlink:title=" ">
<polygon fill="white" stroke="#666666" points="507,-67.5 368,-67.5 368,-37.5 507,-37.5 507,-67.5"/>
<text text-anchor="start" x="376" y="-55.5" font-family="Helvetica,sans-Serif" font-size="10.00">Motywy.Fragmenty.Wypełnij</text>
<text text-anchor="middle" x="437.5" y="-44.5" font-family="Helvetica,sans-Serif" font-size="10.00">TablicęSkróconą</text>
</a>
</g>
</g>
<!-- Node8&#45;&gt;Node12 -->
<g id="edge12" class="edge">
<title>Node8&#45;&gt;Node12</title>
<path fill="none" stroke="#63b8ff" d="M570.26,-83.13C548.25,-78.01 524.36,-72.46 503.04,-67.5"/>
<polygon fill="#63b8ff" stroke="#63b8ff" points="569.7,-86.59 580.23,-85.44 571.28,-79.77 569.7,-86.59"/>
</g>
<!-- Node10 -->
<g id="node10" class="node">
<title>Node10</title>
<g id="a_node10"><a xlink:href="classMotywy_1_1Fragmenty.html#af142a18268a561dcafe100a07e2b1928" target="_top" xlink:title=" ">
<polygon fill="white" stroke="#666666" points="312,-91.5 178,-91.5 178,-61.5 312,-61.5 312,-91.5"/>
<text text-anchor="start" x="186" y="-79.5" font-family="Helvetica,sans-Serif" font-size="10.00">Motywy.Fragmenty.Utwórz</text>
<text text-anchor="middle" x="245" y="-68.5" font-family="Helvetica,sans-Serif" font-size="10.00">MacierzMotywów</text>
</a>
</g>
</g>
<!-- Node9&#45;&gt;Node10 -->
<g id="edge10" class="edge">
<title>Node9&#45;&gt;Node10</title>
<path fill="none" stroke="#63b8ff" d="M345.2,-89C334.01,-87.59 322.74,-86.17 312.03,-84.82"/>
<polygon fill="#63b8ff" stroke="#63b8ff" points="345.08,-92.51 355.43,-90.29 345.95,-85.56 345.08,-92.51"/>
</g>
<!-- Node11 -->
<g id="node11" class="node">
<title>Node11</title>
<g id="a_node11"><a xlink:href="classporownania_1_1Rezultat.html#abfab722f91bb304108e01333fdbf5cf3" target="_top" xlink:title=" ">
<polygon fill="white" stroke="#666666" points="142,-86 0,-86 0,-67 142,-67 142,-86"/>
<text text-anchor="middle" x="71" y="-74" font-family="Helvetica,sans-Serif" font-size="10.00">porownania.Rezultat.toString</text>
</a>
</g>
</g>
<!-- Node10&#45;&gt;Node11 -->
<g id="edge11" class="edge">
<title>Node10&#45;&gt;Node11</title>
<path fill="none" stroke="#63b8ff" d="M167.98,-76.5C159.37,-76.5 150.64,-76.5 142.11,-76.5"/>
<polygon fill="#63b8ff" stroke="#63b8ff" points="167.99,-80 177.99,-76.5 167.99,-73 167.99,-80"/>
</g>
<!-- Node12&#45;&gt;Node10 -->
<g id="edge13" class="edge">
<title>Node12&#45;&gt;Node10</title>
<path fill="none" stroke="#63b8ff" d="M357.66,-62.43C342.59,-64.33 326.94,-66.3 312.3,-68.15"/>
<polygon fill="#63b8ff" stroke="#63b8ff" points="358.51,-65.85 367.99,-61.13 357.64,-58.91 358.51,-65.85"/>
</g>
<!-- Node14 -->
<g id="node14" class="node">
<title>Node14</title>
<g id="a_node14"><a xlink:href="classporownania_1_1AnalizaPor_xC3_xB3wnawcza.html#a4fb7b99f4ed968c3c62c6fa132b19938" target="_top" xlink:title=" ">
<polygon fill="white" stroke="#666666" points="527,-19 348,-19 348,0 527,0 527,-19"/>
<text text-anchor="middle" x="437.5" y="-7" font-family="Helvetica,sans-Serif" font-size="10.00">porownania.AnalizaPorównawcza.run</text>
</a>
</g>
</g>
<!-- Node13&#45;&gt;Node14 -->
<g id="edge15" class="edge">
<title>Node13&#45;&gt;Node14</title>
<path fill="none" stroke="#63b8ff" d="M559.02,-22.34C548.54,-21.22 537.81,-20.08 527.28,-18.96"/>
<polygon fill="#63b8ff" stroke="#63b8ff" points="558.67,-25.82 568.99,-23.4 559.41,-18.86 558.67,-25.82"/>
</g>
</g>
</svg>
