<?xml version="1.0" encoding="UTF-8" standalone="no"?>
<!DOCTYPE svg PUBLIC "-//W3C//DTD SVG 1.1//EN"
 "http://www.w3.org/Graphics/SVG/1.1/DTD/svg11.dtd">
<!-- Generated by graphviz version 2.49.3 (0)
 -->
<!-- Title: Motywy.PorównanieZZadanym.ObliczRóżnicę Pages: 1 -->
<svg width="555pt" height="105pt"
 viewBox="0.00 0.00 555.00 105.00" xmlns="http://www.w3.org/2000/svg" xmlns:xlink="http://www.w3.org/1999/xlink">
<g id="graph0" class="graph" transform="scale(1 1) rotate(0) translate(4 101)">
<title>Motywy.PorównanieZZadanym.ObliczRóżnicę</title>
<!-- Node1 -->
<g id="node1" class="node">
<title>Node1</title>
<g id="a_node1"><a xlink:title=" ">
<polygon fill="#999999" stroke="#666666" points="154,-75 0,-75 0,-45 154,-45 154,-75"/>
<text text-anchor="start" x="8" y="-63" font-family="Helvetica,sans-Serif" font-size="10.00">Motywy.PorównanieZZadanym.</text>
<text text-anchor="middle" x="77" y="-52" font-family="Helvetica,sans-Serif" font-size="10.00">ObliczRóżnicę</text>
</a>
</g>
</g>
<!-- Node2 -->
<g id="node2" class="node">
<title>Node2</title>
<g id="a_node2"><a xlink:href="classMotywy_1_1Motyw.html#a78e0685f4ff1fb079d1f6230ecff2663" target="_top" xlink:title=" ">
<polygon fill="white" stroke="#666666" points="342,-97 208,-97 208,-67 342,-67 342,-97"/>
<text text-anchor="start" x="216" y="-85" font-family="Helvetica,sans-Serif" font-size="10.00">Motywy.Motyw.getDługość</text>
<text text-anchor="middle" x="275" y="-74" font-family="Helvetica,sans-Serif" font-size="10.00">Motywu</text>
</a>
</g>
</g>
<!-- Node1&#45;&gt;Node2 -->
<g id="edge1" class="edge">
<title>Node1&#45;&gt;Node2</title>
<path fill="none" stroke="#63b8ff" d="M154.06,-68.54C168.35,-70.14 183.29,-71.82 197.59,-73.42"/>
<polygon fill="#63b8ff" stroke="#63b8ff" points="197.54,-76.94 207.87,-74.58 198.32,-69.98 197.54,-76.94"/>
</g>
<!-- Node3 -->
<g id="node3" class="node">
<title>Node3</title>
<g id="a_node3"><a xlink:href="classMotywy_1_1Motyw.html#a37081cad0e58f94556a361efadfae855" target="_top" xlink:title=" ">
<polygon fill="white" stroke="#666666" points="360,-48.5 190,-48.5 190,-29.5 360,-29.5 360,-48.5"/>
<text text-anchor="middle" x="275" y="-36.5" font-family="Helvetica,sans-Serif" font-size="10.00">Motywy.Motyw.OceńPodobieństwo</text>
</a>
</g>
</g>
<!-- Node1&#45;&gt;Node3 -->
<g id="edge2" class="edge">
<title>Node1&#45;&gt;Node3</title>
<path fill="none" stroke="#63b8ff" d="M154.06,-51.85C162.49,-50.95 171.15,-50.02 179.77,-49.1"/>
<polygon fill="#63b8ff" stroke="#63b8ff" points="180.28,-52.56 189.85,-48.02 179.54,-45.6 180.28,-52.56"/>
</g>
<!-- Node4 -->
<g id="node4" class="node">
<title>Node4</title>
<g id="a_node4"><a xlink:href="classMotywy_1_1Motyw.html#a390f9d1acc3c0862c70b71bc7f13f931" target="_top" xlink:title=" ">
<polygon fill="white" stroke="#666666" points="544,-78 399,-78 399,-48 544,-48 544,-78"/>
<text text-anchor="start" x="407" y="-66" font-family="Helvetica,sans-Serif" font-size="10.00">Motywy.Motyw.getReferencję</text>
<text text-anchor="middle" x="471.5" y="-55" font-family="Helvetica,sans-Serif" font-size="10.00">DoMotywu</text>
</a>
</g>
</g>
<!-- Node3&#45;&gt;Node4 -->
<g id="edge3" class="edge">
<title>Node3&#45;&gt;Node4</title>
<path fill="none" stroke="#63b8ff" d="M353.15,-48.52C364.8,-49.96 376.85,-51.44 388.59,-52.89"/>
<polygon fill="#63b8ff" stroke="#63b8ff" points="388.47,-56.4 398.82,-54.16 389.32,-49.46 388.47,-56.4"/>
</g>
<!-- Node5 -->
<g id="node5" class="node">
<title>Node5</title>
<g id="a_node5"><a xlink:href="classStruktury_1_1ArkuszZdarzenie.html#a3e1eb6a41e16bd31dfb9c7525f58b11b" target="_top" xlink:title=" ">
<polygon fill="white" stroke="#666666" points="547,-30 396,-30 396,0 547,0 547,-30"/>
<text text-anchor="start" x="404" y="-18" font-family="Helvetica,sans-Serif" font-size="10.00">Struktury.ArkuszZdarzenie.get</text>
<text text-anchor="middle" x="471.5" y="-7" font-family="Helvetica,sans-Serif" font-size="10.00">Zdarzenie</text>
</a>
</g>
</g>
<!-- Node3&#45;&gt;Node5 -->
<g id="edge4" class="edge">
<title>Node3&#45;&gt;Node5</title>
<path fill="none" stroke="#63b8ff" d="M353.15,-29.48C363.95,-28.15 375.1,-26.77 386.02,-25.42"/>
<polygon fill="#63b8ff" stroke="#63b8ff" points="386.48,-28.89 395.98,-24.2 385.63,-21.95 386.48,-28.89"/>
</g>
</g>
</svg>
