<?xml version="1.0" encoding="UTF-8" standalone="no"?>
<!DOCTYPE svg PUBLIC "-//W3C//DTD SVG 1.1//EN"
 "http://www.w3.org/Graphics/SVG/1.1/DTD/svg11.dtd">
<!-- Generated by graphviz version 2.49.3 (0)
 -->
<!-- Title: porownania.AnalizaPorównawcza.Walidacja Pages: 1 -->
<svg width="375pt" height="86pt"
 viewBox="0.00 0.00 375.00 86.00" xmlns="http://www.w3.org/2000/svg" xmlns:xlink="http://www.w3.org/1999/xlink">
<g id="graph0" class="graph" transform="scale(1 1) rotate(0) translate(4 82)">
<title>porownania.AnalizaPorównawcza.Walidacja</title>
<!-- Node1 -->
<g id="node1" class="node">
<title>Node1</title>
<g id="a_node1"><a xlink:title=" ">
<polygon fill="#999999" stroke="#666666" points="166,-54 0,-54 0,-24 166,-24 166,-54"/>
<text text-anchor="start" x="8" y="-42" font-family="Helvetica,sans-Serif" font-size="10.00">porownania.AnalizaPorównawcza.</text>
<text text-anchor="middle" x="83" y="-31" font-family="Helvetica,sans-Serif" font-size="10.00">Walidacja</text>
</a>
</g>
</g>
<!-- Node2 -->
<g id="node2" class="node">
<title>Node2</title>
<g id="a_node2"><a xlink:href="classporownania_1_1WalidacjaPlik_xC3_xB3wCSV.html#ae6183c486b95548f3fc41992ff2af346" target="_top" xlink:title=" ">
<polygon fill="white" stroke="#666666" points="354.5,-78 214.5,-78 214.5,-48 354.5,-48 354.5,-78"/>
<text text-anchor="start" x="222.5" y="-66" font-family="Helvetica,sans-Serif" font-size="10.00">porownania.WalidacjaPlików</text>
<text text-anchor="middle" x="284.5" y="-55" font-family="Helvetica,sans-Serif" font-size="10.00">CSV.getStatusWątku</text>
</a>
</g>
</g>
<!-- Node1&#45;&gt;Node2 -->
<g id="edge1" class="edge">
<title>Node1&#45;&gt;Node2</title>
<path fill="none" stroke="#63b8ff" d="M166.01,-48.87C178.64,-50.39 191.67,-51.95 204.24,-53.47"/>
<polygon fill="#63b8ff" stroke="#63b8ff" points="203.87,-56.95 214.22,-54.66 204.7,-50 203.87,-56.95"/>
</g>
<!-- Node3 -->
<g id="node3" class="node">
<title>Node3</title>
<g id="a_node3"><a xlink:href="classporownania_1_1WalidacjaPlik_xC3_xB3wCSV.html#a5ce4b813658651ab77ab8f5b94b12a6b" target="_top" xlink:title=" ">
<polygon fill="white" stroke="#666666" points="367,-30 202,-30 202,0 367,0 367,-30"/>
<text text-anchor="start" x="210" y="-18" font-family="Helvetica,sans-Serif" font-size="10.00">porownania.WalidacjaPlików</text>
<text text-anchor="middle" x="284.5" y="-7" font-family="Helvetica,sans-Serif" font-size="10.00">CSV.getTablicęPlikówPoprawnych</text>
</a>
</g>
</g>
<!-- Node1&#45;&gt;Node3 -->
<g id="edge2" class="edge">
<title>Node1&#45;&gt;Node3</title>
<path fill="none" stroke="#63b8ff" d="M166.01,-29.13C174.5,-28.11 183.18,-27.07 191.77,-26.03"/>
<polygon fill="#63b8ff" stroke="#63b8ff" points="192.3,-29.5 201.81,-24.83 191.46,-22.55 192.3,-29.5"/>
</g>
</g>
</svg>
