<?xml version="1.0" encoding="UTF-8" standalone="no"?>
<!DOCTYPE svg PUBLIC "-//W3C//DTD SVG 1.1//EN"
 "http://www.w3.org/Graphics/SVG/1.1/DTD/svg11.dtd">
<!-- Generated by graphviz version 2.49.3 (0)
 -->
<!-- Title: Struktury.ArkuszZdarzenie.ArkuszZdarzenie Pages: 1 -->
<svg width="696pt" height="125pt"
 viewBox="0.00 0.00 696.00 125.00" xmlns="http://www.w3.org/2000/svg" xmlns:xlink="http://www.w3.org/1999/xlink">
<g id="graph0" class="graph" transform="scale(1 1) rotate(0) translate(4 121)">
<title>Struktury.ArkuszZdarzenie.ArkuszZdarzenie</title>
<!-- Node1 -->
<g id="node1" class="node">
<title>Node1</title>
<g id="a_node1"><a xlink:title=" ">
<polygon fill="#999999" stroke="#666666" points="137,-75 0,-75 0,-45 137,-45 137,-75"/>
<text text-anchor="start" x="8" y="-63" font-family="Helvetica,sans-Serif" font-size="10.00">Struktury.ArkuszZdarzenie.</text>
<text text-anchor="middle" x="68.5" y="-52" font-family="Helvetica,sans-Serif" font-size="10.00">ArkuszZdarzenie</text>
</a>
</g>
</g>
<!-- Node2 -->
<g id="node2" class="node">
<title>Node2</title>
<g id="a_node2"><a xlink:href="classStruktury_1_1Arkusz.html#ae8591575a4713c4b787d850bc4b5b7d7" target="_top" xlink:title=" ">
<polygon fill="white" stroke="#666666" points="311,-99 173,-99 173,-69 311,-69 311,-99"/>
<text text-anchor="start" x="181" y="-87" font-family="Helvetica,sans-Serif" font-size="10.00">Struktury.Arkusz.getNazwę</text>
<text text-anchor="middle" x="242" y="-76" font-family="Helvetica,sans-Serif" font-size="10.00">Kolumny</text>
</a>
</g>
</g>
<!-- Node1&#45;&gt;Node2 -->
<g id="edge1" class="edge">
<title>Node1&#45;&gt;Node2</title>
<path fill="none" stroke="#63b8ff" d="M137.28,-69.49C145.69,-70.66 154.35,-71.87 162.9,-73.07"/>
<polygon fill="#63b8ff" stroke="#63b8ff" points="162.48,-76.55 172.87,-74.47 163.45,-69.61 162.48,-76.55"/>
</g>
<!-- Node3 -->
<g id="node3" class="node">
<title>Node3</title>
<g id="a_node3"><a xlink:href="classStruktury_1_1ArkuszZdarzenie.html#a83d6d99268ecdb1f565ccc1cd5efade4" target="_top" xlink:title=" ">
<polygon fill="white" stroke="#666666" points="310.5,-51 173.5,-51 173.5,-21 310.5,-21 310.5,-51"/>
<text text-anchor="start" x="181.5" y="-39" font-family="Helvetica,sans-Serif" font-size="10.00">Struktury.ArkuszZdarzenie.</text>
<text text-anchor="middle" x="242" y="-28" font-family="Helvetica,sans-Serif" font-size="10.00">UtwórzZdarzenie</text>
</a>
</g>
</g>
<!-- Node1&#45;&gt;Node3 -->
<g id="edge3" class="edge">
<title>Node1&#45;&gt;Node3</title>
<path fill="none" stroke="#63b8ff" d="M137.28,-50.51C145.83,-49.32 154.62,-48.09 163.31,-46.87"/>
<polygon fill="#63b8ff" stroke="#63b8ff" points="164.01,-50.31 173.43,-45.46 163.04,-43.38 164.01,-50.31"/>
</g>
<!-- Node2&#45;&gt;Node2 -->
<g id="edge2" class="edge">
<title>Node2&#45;&gt;Node2</title>
<path fill="none" stroke="#63b8ff" d="M211.77,-99.28C205.05,-108.41 215.12,-117 242,-117 257.96,-117 267.99,-113.97 272.11,-109.6"/>
<polygon fill="#63b8ff" stroke="#63b8ff" points="275.61,-109.32 272.23,-99.28 268.61,-109.23 275.61,-109.32"/>
</g>
<!-- Node4 -->
<g id="node4" class="node">
<title>Node4</title>
<g id="a_node4"><a xlink:href="classStruktury_1_1ArkuszZdarzenie.html#a89c238fd4b627a797bc642888144bb92" target="_top" xlink:title=" ">
<polygon fill="white" stroke="#666666" points="492,-73 355,-73 355,-43 492,-43 492,-73"/>
<text text-anchor="start" x="363" y="-61" font-family="Helvetica,sans-Serif" font-size="10.00">Struktury.ArkuszZdarzenie.</text>
<text text-anchor="middle" x="423.5" y="-50" font-family="Helvetica,sans-Serif" font-size="10.00">CzyLiczba</text>
</a>
</g>
</g>
<!-- Node3&#45;&gt;Node4 -->
<g id="edge4" class="edge">
<title>Node3&#45;&gt;Node4</title>
<path fill="none" stroke="#63b8ff" d="M310.61,-44.29C321.83,-45.66 333.54,-47.1 344.99,-48.5"/>
<polygon fill="#63b8ff" stroke="#63b8ff" points="344.6,-51.98 354.96,-49.72 345.46,-45.03 344.6,-51.98"/>
</g>
<!-- Node5 -->
<g id="node5" class="node">
<title>Node5</title>
<g id="a_node5"><a xlink:href="classStruktury_1_1Arkusz.html#a2609006d8beb64d6e213f77f2ebca081" target="_top" xlink:title=" ">
<polygon fill="white" stroke="#666666" points="500,-24.5 347,-24.5 347,-5.5 500,-5.5 500,-24.5"/>
<text text-anchor="middle" x="423.5" y="-12.5" font-family="Helvetica,sans-Serif" font-size="10.00">Struktury.Arkusz.getZawartość</text>
</a>
</g>
</g>
<!-- Node3&#45;&gt;Node5 -->
<g id="edge5" class="edge">
<title>Node3&#45;&gt;Node5</title>
<path fill="none" stroke="#63b8ff" d="M310.61,-28.09C319.11,-27.1 327.89,-26.07 336.62,-25.05"/>
<polygon fill="#63b8ff" stroke="#63b8ff" points="337.31,-28.49 346.83,-23.85 336.49,-21.54 337.31,-28.49"/>
</g>
<!-- Node6 -->
<g id="node6" class="node">
<title>Node6</title>
<g id="a_node6"><a xlink:href="classStruktury_1_1Kom_xC3_xB3rkaArkusza.html#a42c4136f3d8445665c672404a0cf9b58" target="_top" xlink:title=" ">
<polygon fill="white" stroke="#666666" points="688,-30 536,-30 536,0 688,0 688,-30"/>
<text text-anchor="start" x="544" y="-18" font-family="Helvetica,sans-Serif" font-size="10.00">Struktury.KomórkaArkusza.get</text>
<text text-anchor="middle" x="612" y="-7" font-family="Helvetica,sans-Serif" font-size="10.00">Komórkę</text>
</a>
</g>
</g>
<!-- Node5&#45;&gt;Node6 -->
<g id="edge6" class="edge">
<title>Node5&#45;&gt;Node6</title>
<path fill="none" stroke="#63b8ff" d="M500.09,-15C508.58,-15 517.27,-15 525.87,-15"/>
<polygon fill="#63b8ff" stroke="#63b8ff" points="525.91,-18.5 535.91,-15 525.91,-11.5 525.91,-18.5"/>
</g>
</g>
</svg>
