<?xml version="1.0" encoding="UTF-8" standalone="no"?>
<!DOCTYPE svg PUBLIC "-//W3C//DTD SVG 1.1//EN"
 "http://www.w3.org/Graphics/SVG/1.1/DTD/svg11.dtd">
<!-- Generated by graphviz version 2.49.3 (0)
 -->
<!-- Title: porownania.AnalizaPorównawcza.run Pages: 1 -->
<svg width="1440pt" height="1210pt"
 viewBox="0.00 0.00 1440.00 1210.19" xmlns="http://www.w3.org/2000/svg" xmlns:xlink="http://www.w3.org/1999/xlink">
<g id="graph0" class="graph" transform="scale(1 1) rotate(0) translate(4 1206.19)">
<title>porownania.AnalizaPorównawcza.run</title>
<!-- Node1 -->
<g id="node1" class="node">
<title>Node1</title>
<g id="a_node1"><a xlink:title=" ">
<polygon fill="#999999" stroke="#666666" points="179,-674.69 0,-674.69 0,-655.69 179,-655.69 179,-674.69"/>
<text text-anchor="middle" x="89.5" y="-662.69" font-family="Helvetica,sans-Serif" font-size="10.00">porownania.AnalizaPorównawcza.run</text>
</a>
</g>
</g>
<!-- Node2 -->
<g id="node2" class="node">
<title>Node2</title>
<g id="a_node2"><a xlink:href="classMotywy_1_1ZnajdowanieMotyw_xC3_xB3wCa_xC5_x82o_xC5_x9B_xC4_x87.html#a4e9e1535d04dc31fd24faa2f6f7b523b" target="_top" xlink:title=" ">
<polygon fill="white" stroke="#666666" points="390,-1202.19 241,-1202.19 241,-1172.19 390,-1172.19 390,-1202.19"/>
<text text-anchor="start" x="249" y="-1190.19" font-family="Helvetica,sans-Serif" font-size="10.00">Motywy.ZnajdowanieMotywów</text>
<text text-anchor="middle" x="315.5" y="-1179.19" font-family="Helvetica,sans-Serif" font-size="10.00">Całość.DopiszGłos</text>
</a>
</g>
</g>
<!-- Node1&#45;&gt;Node2 -->
<g id="edge1" class="edge">
<title>Node1&#45;&gt;Node2</title>
<path fill="none" stroke="#63b8ff" d="M91.55,-674.76C98.62,-737.52 141.28,-1090.08 215,-1163.19 219.87,-1168.03 225.54,-1171.95 231.66,-1175.12"/>
<polygon fill="#63b8ff" stroke="#63b8ff" points="230.33,-1178.36 240.89,-1179.26 233.19,-1171.98 230.33,-1178.36"/>
</g>
<!-- Node3 -->
<g id="node3" class="node">
<title>Node3</title>
<g id="a_node3"><a xlink:href="classporownania_1_1WynikWyszukiwania.html#a4c56ceaab1680e827ea5fbb7a715913d" target="_top" xlink:title=" ">
<polygon fill="white" stroke="#666666" points="397,-1154.19 234,-1154.19 234,-1124.19 397,-1124.19 397,-1154.19"/>
<text text-anchor="start" x="242" y="-1142.19" font-family="Helvetica,sans-Serif" font-size="10.00">porownania.WynikWyszukiwania.</text>
<text text-anchor="middle" x="315.5" y="-1131.19" font-family="Helvetica,sans-Serif" font-size="10.00">DopiszWyniki</text>
</a>
</g>
</g>
<!-- Node1&#45;&gt;Node3 -->
<g id="edge2" class="edge">
<title>Node1&#45;&gt;Node3</title>
<path fill="none" stroke="#63b8ff" d="M90.04,-674.98C88.11,-727.66 86.08,-979.87 215,-1110.19 218.22,-1113.45 221.78,-1116.34 225.58,-1118.91"/>
<polygon fill="#63b8ff" stroke="#63b8ff" points="223.87,-1121.97 234.26,-1124.05 227.44,-1115.94 223.87,-1121.97"/>
</g>
<!-- Node4 -->
<g id="node4" class="node">
<title>Node4</title>
<g id="a_node4"><a xlink:href="classStruktury_1_1Interpreter.html#a581247ec4c3f64207e3b8001b099be19" target="_top" xlink:title=" ">
<polygon fill="white" stroke="#666666" points="376,-1068.19 255,-1068.19 255,-1038.19 376,-1038.19 376,-1068.19"/>
<text text-anchor="start" x="263" y="-1056.19" font-family="Helvetica,sans-Serif" font-size="10.00">Struktury.Interpreter.get</text>
<text text-anchor="middle" x="315.5" y="-1045.19" font-family="Helvetica,sans-Serif" font-size="10.00">CałośćPołączoną</text>
</a>
</g>
</g>
<!-- Node1&#45;&gt;Node4 -->
<g id="edge3" class="edge">
<title>Node1&#45;&gt;Node4</title>
<path fill="none" stroke="#63b8ff" d="M90.63,-674.83C91.82,-721.68 103.43,-927.53 215,-1029.19 223.48,-1036.92 234.02,-1042.28 245.03,-1045.97"/>
<polygon fill="#63b8ff" stroke="#63b8ff" points="244.21,-1049.37 254.79,-1048.8 246.16,-1042.65 244.21,-1049.37"/>
</g>
<!-- Node5 -->
<g id="node5" class="node">
<title>Node5</title>
<g id="a_node5"><a xlink:href="classStruktury_1_1Interpreter.html#a9cbd4451e21169d9f6186ad5776fcb65" target="_top" xlink:title=" ">
<polygon fill="white" stroke="#666666" points="596,-1089.19 475,-1089.19 475,-1059.19 596,-1059.19 596,-1089.19"/>
<text text-anchor="start" x="483" y="-1077.19" font-family="Helvetica,sans-Serif" font-size="10.00">Struktury.Interpreter.get</text>
<text text-anchor="middle" x="535.5" y="-1066.19" font-family="Helvetica,sans-Serif" font-size="10.00">Głos</text>
</a>
</g>
</g>
<!-- Node1&#45;&gt;Node5 -->
<g id="edge5" class="edge">
<title>Node1&#45;&gt;Node5</title>
<path fill="none" stroke="#63b8ff" d="M91.85,-674.74C100.1,-731.68 145.71,-1025.74 215,-1077.19 293.11,-1135.18 414.14,-1112.31 482.63,-1092.15"/>
<polygon fill="#63b8ff" stroke="#63b8ff" points="483.79,-1095.46 492.34,-1089.21 481.76,-1088.76 483.79,-1095.46"/>
</g>
<!-- Node6 -->
<g id="node6" class="node">
<title>Node6</title>
<g id="a_node6"><a xlink:href="classStruktury_1_1Interpreter.html#afebb0e77422d8662d19db20aca2ce1ef" target="_top" xlink:title=" ">
<polygon fill="white" stroke="#666666" points="376,-1020.19 255,-1020.19 255,-990.19 376,-990.19 376,-1020.19"/>
<text text-anchor="start" x="263" y="-1008.19" font-family="Helvetica,sans-Serif" font-size="10.00">Struktury.Interpreter.get</text>
<text text-anchor="middle" x="315.5" y="-997.19" font-family="Helvetica,sans-Serif" font-size="10.00">LiczbęGłosów</text>
</a>
</g>
</g>
<!-- Node1&#45;&gt;Node6 -->
<g id="edge6" class="edge">
<title>Node1&#45;&gt;Node6</title>
<path fill="none" stroke="#63b8ff" d="M91.18,-674.71C94.77,-717.58 115.36,-894.49 215,-981.19 223.61,-988.68 234.15,-993.92 245.12,-997.57"/>
<polygon fill="#63b8ff" stroke="#63b8ff" points="244.26,-1000.97 254.84,-1000.39 246.21,-994.24 244.26,-1000.97"/>
</g>
<!-- Node7 -->
<g id="node7" class="node">
<title>Node7</title>
<g id="a_node7"><a xlink:href="classporownania_1_1PlikZwalidowany.html#af7643a957c7d9ebb0822fb797073797c" target="_top" xlink:title=" ">
<polygon fill="white" stroke="#666666" points="394,-972.19 237,-972.19 237,-942.19 394,-942.19 394,-972.19"/>
<text text-anchor="start" x="245" y="-960.19" font-family="Helvetica,sans-Serif" font-size="10.00">porownania.PlikZwalidowany.get</text>
<text text-anchor="middle" x="315.5" y="-949.19" font-family="Helvetica,sans-Serif" font-size="10.00">NazwęPliku</text>
</a>
</g>
</g>
<!-- Node1&#45;&gt;Node7 -->
<g id="edge7" class="edge">
<title>Node1&#45;&gt;Node7</title>
<path fill="none" stroke="#63b8ff" d="M91.93,-674.82C98.23,-713.82 127.29,-861.35 215,-933.19 218.98,-936.45 223.33,-939.28 227.92,-941.74"/>
<polygon fill="#63b8ff" stroke="#63b8ff" points="226.46,-944.92 237,-946.01 229.44,-938.58 226.46,-944.92"/>
</g>
<!-- Node8 -->
<g id="node8" class="node">
<title>Node8</title>
<g id="a_node8"><a xlink:href="classStruktury_1_1Interpreter.html#ae89b56a5c7d9f72b34c75499ec3e50d9" target="_top" xlink:title=" ">
<polygon fill="white" stroke="#666666" points="376,-924.19 255,-924.19 255,-894.19 376,-894.19 376,-924.19"/>
<text text-anchor="start" x="263" y="-912.19" font-family="Helvetica,sans-Serif" font-size="10.00">Struktury.Interpreter.get</text>
<text text-anchor="middle" x="315.5" y="-901.19" font-family="Helvetica,sans-Serif" font-size="10.00">OznaczeniaGłosów</text>
</a>
</g>
</g>
<!-- Node1&#45;&gt;Node8 -->
<g id="edge8" class="edge">
<title>Node1&#45;&gt;Node8</title>
<path fill="none" stroke="#63b8ff" d="M93.3,-675.09C103.45,-709.17 141.67,-822.72 215,-880.19 223.93,-887.19 234.49,-892.5 245.34,-896.53"/>
<polygon fill="#63b8ff" stroke="#63b8ff" points="244.33,-899.88 254.92,-899.75 246.56,-893.24 244.33,-899.88"/>
</g>
<!-- Node9 -->
<g id="node9" class="node">
<title>Node9</title>
<g id="a_node9"><a xlink:href="classMotywy_1_1Fragmenty.html#aa880822eb5893336364e80fb3485e953" target="_top" xlink:title=" ">
<polygon fill="white" stroke="#666666" points="604,-862.19 467,-862.19 467,-832.19 604,-832.19 604,-862.19"/>
<text text-anchor="start" x="475" y="-850.19" font-family="Helvetica,sans-Serif" font-size="10.00">Motywy.Fragmenty.getPary</text>
<text text-anchor="middle" x="535.5" y="-839.19" font-family="Helvetica,sans-Serif" font-size="10.00">Motywów</text>
</a>
</g>
</g>
<!-- Node1&#45;&gt;Node9 -->
<g id="edge9" class="edge">
<title>Node1&#45;&gt;Node9</title>
<path fill="none" stroke="#63b8ff" d="M93.46,-674.75C103.87,-706.52 142.2,-808.79 215,-847.19 294.1,-888.92 400.29,-878.09 468.07,-864.35"/>
<polygon fill="#63b8ff" stroke="#63b8ff" points="469.14,-867.7 478.2,-862.22 467.69,-860.85 469.14,-867.7"/>
</g>
<!-- Node10 -->
<g id="node10" class="node">
<title>Node10</title>
<g id="a_node10"><a xlink:href="classMotywy_1_1ZnajdowanieMotyw_xC3_xB3wCa_xC5_x82o_xC5_x9B_xC4_x87.html#a447892564dd792469ff2ae98dff10604" target="_top" xlink:title=" ">
<polygon fill="white" stroke="#666666" points="397.5,-752.19 233.5,-752.19 233.5,-722.19 397.5,-722.19 397.5,-752.19"/>
<text text-anchor="start" x="241.5" y="-740.19" font-family="Helvetica,sans-Serif" font-size="10.00">Motywy.ZnajdowanieMotywów</text>
<text text-anchor="middle" x="315.5" y="-729.19" font-family="Helvetica,sans-Serif" font-size="10.00">Całość.getReferencjęDoSzukania</text>
</a>
</g>
</g>
<!-- Node1&#45;&gt;Node10 -->
<g id="edge10" class="edge">
<title>Node1&#45;&gt;Node10</title>
<path fill="none" stroke="#63b8ff" d="M112.68,-674.76C137.34,-685.16 178.51,-701.81 215,-713.19 222.14,-715.42 229.61,-717.56 237.13,-719.59"/>
<polygon fill="#63b8ff" stroke="#63b8ff" points="236.44,-723.02 247,-722.18 238.22,-716.25 236.44,-723.02"/>
</g>
<!-- Node11 -->
<g id="node11" class="node">
<title>Node11</title>
<g id="a_node11"><a xlink:href="classStruktury_1_1PlikCSV.html#a2d38bbdce3c37712a847d8782b9a275f" target="_top" xlink:title=" ">
<polygon fill="white" stroke="#666666" points="381.5,-704.19 249.5,-704.19 249.5,-674.19 381.5,-674.19 381.5,-704.19"/>
<text text-anchor="start" x="257.5" y="-692.19" font-family="Helvetica,sans-Serif" font-size="10.00">Struktury.PlikCSV.getStan</text>
<text text-anchor="middle" x="315.5" y="-681.19" font-family="Helvetica,sans-Serif" font-size="10.00">Pliku</text>
</a>
</g>
</g>
<!-- Node1&#45;&gt;Node11 -->
<g id="edge11" class="edge">
<title>Node1&#45;&gt;Node11</title>
<path fill="none" stroke="#63b8ff" d="M179.03,-674.68C199.02,-676.82 220.06,-679.07 239.44,-681.15"/>
<polygon fill="#63b8ff" stroke="#63b8ff" points="239.09,-684.63 249.41,-682.22 239.84,-677.67 239.09,-684.63"/>
</g>
<!-- Node12 -->
<g id="node12" class="node">
<title>Node12</title>
<g id="a_node12"><a xlink:href="classporownania_1_1ZapisywanieTekstuDoPliku.html#ab5357ad1811776324917c89b6096cdf0" target="_top" xlink:title=" ">
<polygon fill="white" stroke="#666666" points="391.5,-656.19 239.5,-656.19 239.5,-626.19 391.5,-626.19 391.5,-656.19"/>
<text text-anchor="start" x="247.5" y="-644.19" font-family="Helvetica,sans-Serif" font-size="10.00">porownania.ZapisywanieTekstu</text>
<text text-anchor="middle" x="315.5" y="-633.19" font-family="Helvetica,sans-Serif" font-size="10.00">DoPliku.getStatusPliku</text>
</a>
</g>
</g>
<!-- Node1&#45;&gt;Node12 -->
<g id="edge12" class="edge">
<title>Node1&#45;&gt;Node12</title>
<path fill="none" stroke="#63b8ff" d="M179.03,-655.71C195.54,-653.94 212.76,-652.09 229.17,-650.34"/>
<polygon fill="#63b8ff" stroke="#63b8ff" points="229.69,-653.8 239.26,-649.25 228.95,-646.84 229.69,-653.8"/>
</g>
<!-- Node13 -->
<g id="node13" class="node">
<title>Node13</title>
<g id="a_node13"><a xlink:href="classMotywy_1_1ZnajdowanieMotyw_xC3_xB3wCa_xC5_x82o_xC5_x9B_xC4_x87.html#aaf7a81cebb158f92a3deea3025c5b9ba" target="_top" xlink:title=" ">
<polygon fill="white" stroke="#666666" points="390,-608.19 241,-608.19 241,-578.19 390,-578.19 390,-608.19"/>
<text text-anchor="start" x="249" y="-596.19" font-family="Helvetica,sans-Serif" font-size="10.00">Motywy.ZnajdowanieMotywów</text>
<text text-anchor="middle" x="315.5" y="-585.19" font-family="Helvetica,sans-Serif" font-size="10.00">Całość.getTablicęMotywów</text>
</a>
</g>
</g>
<!-- Node1&#45;&gt;Node13 -->
<g id="edge13" class="edge">
<title>Node1&#45;&gt;Node13</title>
<path fill="none" stroke="#63b8ff" d="M112.68,-655.62C137.34,-645.22 178.51,-628.57 215,-617.19 222.14,-614.97 229.61,-612.82 237.13,-610.8"/>
<polygon fill="#63b8ff" stroke="#63b8ff" points="238.22,-614.13 247,-608.2 236.44,-607.36 238.22,-614.13"/>
</g>
<!-- Node14 -->
<g id="node14" class="node">
<title>Node14</title>
<g id="a_node14"><a xlink:href="classporownania_1_1AnalizaPor_xC3_xB3wnawcza.html#a4afbd6e8809f95cb53e3014c9addcba1" target="_top" xlink:title=" ">
<polygon fill="white" stroke="#666666" points="618.5,-544.19 452.5,-544.19 452.5,-514.19 618.5,-514.19 618.5,-544.19"/>
<text text-anchor="start" x="460.5" y="-532.19" font-family="Helvetica,sans-Serif" font-size="10.00">porownania.AnalizaPorównawcza.</text>
<text text-anchor="middle" x="535.5" y="-521.19" font-family="Helvetica,sans-Serif" font-size="10.00">ObliczProcent</text>
</a>
</g>
</g>
<!-- Node1&#45;&gt;Node14 -->
<g id="edge14" class="edge">
<title>Node1&#45;&gt;Node14</title>
<path fill="none" stroke="#63b8ff" d="M99.37,-655.51C118.36,-635.48 165.28,-589.67 215,-569.19 254.9,-552.76 362.89,-541.6 442.32,-535.33"/>
<polygon fill="#63b8ff" stroke="#63b8ff" points="442.65,-538.81 452.35,-534.55 442.11,-531.83 442.65,-538.81"/>
</g>
<!-- Node15 -->
<g id="node15" class="node">
<title>Node15</title>
<g id="a_node15"><a xlink:href="classporownania_1_1ZapisywanieTekstuDoPliku.html#a08a65c6daaae6c0091d4bcae2c9db52b" target="_top" xlink:title=" ">
<polygon fill="white" stroke="#666666" points="391.5,-474.19 239.5,-474.19 239.5,-444.19 391.5,-444.19 391.5,-474.19"/>
<text text-anchor="start" x="247.5" y="-462.19" font-family="Helvetica,sans-Serif" font-size="10.00">porownania.ZapisywanieTekstu</text>
<text text-anchor="middle" x="315.5" y="-451.19" font-family="Helvetica,sans-Serif" font-size="10.00">DoPliku.OtwórzPlik</text>
</a>
</g>
</g>
<!-- Node1&#45;&gt;Node15 -->
<g id="edge15" class="edge">
<title>Node1&#45;&gt;Node15</title>
<path fill="none" stroke="#63b8ff" d="M94.18,-655.43C106.26,-624.74 147.87,-529.49 215,-483.19 219.62,-480.01 224.61,-477.24 229.81,-474.85"/>
<polygon fill="#63b8ff" stroke="#63b8ff" points="231.45,-477.95 239.37,-470.91 228.79,-471.48 231.45,-477.95"/>
</g>
<!-- Node17 -->
<g id="node17" class="node">
<title>Node17</title>
<g id="a_node17"><a xlink:href="classporownania_1_1PokazywanieProcentaIteracji.html#aa3a89294cc5d3103bdb5758e10d9aeed" target="_top" xlink:title=" ">
<polygon fill="white" stroke="#666666" points="398.5,-426.19 232.5,-426.19 232.5,-396.19 398.5,-396.19 398.5,-426.19"/>
<text text-anchor="start" x="240.5" y="-414.19" font-family="Helvetica,sans-Serif" font-size="10.00">porownania.PokazywanieProcenta</text>
<text text-anchor="middle" x="315.5" y="-403.19" font-family="Helvetica,sans-Serif" font-size="10.00">Iteracji.Stop</text>
</a>
</g>
</g>
<!-- Node1&#45;&gt;Node17 -->
<g id="edge17" class="edge">
<title>Node1&#45;&gt;Node17</title>
<path fill="none" stroke="#63b8ff" d="M92.73,-655.48C101.43,-619.89 136.54,-495.54 215,-435.19 217.52,-433.25 220.18,-431.46 222.94,-429.82"/>
<polygon fill="#63b8ff" stroke="#63b8ff" points="224.84,-432.77 232.08,-425.03 221.59,-426.57 224.84,-432.77"/>
</g>
<!-- Node18 -->
<g id="node18" class="node">
<title>Node18</title>
<g id="a_node18"><a xlink:href="classMotywy_1_1ZnajdowanieMotyw_xC3_xB3wCa_xC5_x82o_xC5_x9B_xC4_x87.html#ac0f3616eb040e84a93afbe0314d293c5" target="_top" xlink:title=" ">
<polygon fill="white" stroke="#666666" points="390,-378.19 241,-378.19 241,-348.19 390,-348.19 390,-378.19"/>
<text text-anchor="start" x="249" y="-366.19" font-family="Helvetica,sans-Serif" font-size="10.00">Motywy.ZnajdowanieMotywów</text>
<text text-anchor="middle" x="315.5" y="-355.19" font-family="Helvetica,sans-Serif" font-size="10.00">Całość.Upakuj</text>
</a>
</g>
</g>
<!-- Node1&#45;&gt;Node18 -->
<g id="edge18" class="edge">
<title>Node1&#45;&gt;Node18</title>
<path fill="none" stroke="#63b8ff" d="M91.76,-655.48C97.51,-615.49 124.9,-462.04 215,-387.19 219.98,-383.06 225.55,-379.61 231.46,-376.75"/>
<polygon fill="#63b8ff" stroke="#63b8ff" points="233.13,-379.84 240.96,-372.7 230.39,-373.4 233.13,-379.84"/>
</g>
<!-- Node19 -->
<g id="node19" class="node">
<title>Node19</title>
<g id="a_node19"><a xlink:href="classMotywy_1_1ZnajdowanieMotyw_xC3_xB3wCa_xC5_x82o_xC5_x9B_xC4_x87.html#a1b547741636351220c77f9921caf0275" target="_top" xlink:title=" ">
<polygon fill="white" stroke="#666666" points="390,-838.19 241,-838.19 241,-808.19 390,-808.19 390,-838.19"/>
<text text-anchor="start" x="249" y="-826.19" font-family="Helvetica,sans-Serif" font-size="10.00">Motywy.ZnajdowanieMotywów</text>
<text text-anchor="middle" x="315.5" y="-815.19" font-family="Helvetica,sans-Serif" font-size="10.00">Całość.UruchomPorównanie</text>
</a>
</g>
</g>
<!-- Node1&#45;&gt;Node19 -->
<g id="edge19" class="edge">
<title>Node1&#45;&gt;Node19</title>
<path fill="none" stroke="#63b8ff" d="M97.1,-674.93C113.86,-698.94 160.65,-761.36 215,-794.19 221.55,-798.15 228.67,-801.59 235.99,-804.58"/>
<polygon fill="#63b8ff" stroke="#63b8ff" points="234.76,-807.86 245.35,-808.13 237.24,-801.31 234.76,-807.86"/>
</g>
<!-- Node20 -->
<g id="node20" class="node">
<title>Node20</title>
<g id="a_node20"><a xlink:href="classMotywy_1_1Fragmenty.html#a850694999d9856c66bdcd8ed2918dda5" target="_top" xlink:title=" ">
<polygon fill="white" stroke="#666666" points="602.5,-804.19 468.5,-804.19 468.5,-774.19 602.5,-774.19 602.5,-804.19"/>
<text text-anchor="start" x="476.5" y="-792.19" font-family="Helvetica,sans-Serif" font-size="10.00">Motywy.Fragmenty.Utwórz</text>
<text text-anchor="middle" x="535.5" y="-781.19" font-family="Helvetica,sans-Serif" font-size="10.00">Listę</text>
</a>
</g>
</g>
<!-- Node1&#45;&gt;Node20 -->
<g id="edge26" class="edge">
<title>Node1&#45;&gt;Node20</title>
<path fill="none" stroke="#63b8ff" d="M99.02,-674.72C117.71,-694.86 164.66,-741.54 215,-761.19 293.78,-791.94 391.53,-796.06 458.03,-794.32"/>
<polygon fill="#63b8ff" stroke="#63b8ff" points="458.54,-797.81 468.42,-794 458.32,-790.81 458.54,-797.81"/>
</g>
<!-- Node24 -->
<g id="node24" class="node">
<title>Node24</title>
<g id="a_node24"><a xlink:href="classMotywy_1_1ZnajdowanieMotyw_xC3_xB3wCa_xC5_x82o_xC5_x9B_xC4_x87.html#a3da86a76d7180be6cf2c5a726c7d9390" target="_top" xlink:title=" ">
<polygon fill="white" stroke="#666666" points="390,-330.19 241,-330.19 241,-300.19 390,-300.19 390,-330.19"/>
<text text-anchor="start" x="249" y="-318.19" font-family="Helvetica,sans-Serif" font-size="10.00">Motywy.ZnajdowanieMotywów</text>
<text text-anchor="middle" x="315.5" y="-307.19" font-family="Helvetica,sans-Serif" font-size="10.00">Całość.UtwórzPorównanie</text>
</a>
</g>
</g>
<!-- Node1&#45;&gt;Node24 -->
<g id="edge25" class="edge">
<title>Node1&#45;&gt;Node24</title>
<path fill="none" stroke="#63b8ff" d="M91.05,-655.68C94.12,-612.01 112.87,-429.01 215,-339.19 219.9,-334.88 225.45,-331.31 231.35,-328.36"/>
<polygon fill="#63b8ff" stroke="#63b8ff" points="233.11,-331.41 240.88,-324.22 230.32,-324.99 233.11,-331.41"/>
</g>
<!-- Node25 -->
<g id="node25" class="node">
<title>Node25</title>
<g id="a_node25"><a xlink:href="classStruktury_1_1PlikCSV.html#af927acf502973c4c1abb99e1d1995ccb" target="_top" xlink:title=" ">
<polygon fill="white" stroke="#666666" points="394.5,-281.69 236.5,-281.69 236.5,-262.69 394.5,-262.69 394.5,-281.69"/>
<text text-anchor="middle" x="315.5" y="-269.69" font-family="Helvetica,sans-Serif" font-size="10.00">Struktury.PlikCSV.WczytajDane</text>
</a>
</g>
</g>
<!-- Node1&#45;&gt;Node25 -->
<g id="edge27" class="edge">
<title>Node1&#45;&gt;Node25</title>
<path fill="none" stroke="#63b8ff" d="M90.43,-655.5C90.66,-607.49 98.37,-393.29 215,-291.19 218.69,-287.96 222.76,-285.21 227.08,-282.87"/>
<polygon fill="#63b8ff" stroke="#63b8ff" points="228.66,-285.99 236.27,-278.62 225.72,-279.64 228.66,-285.99"/>
</g>
<!-- Node35 -->
<g id="node35" class="node">
<title>Node35</title>
<g id="a_node35"><a xlink:href="classporownania_1_1AnalizaPor_xC3_xB3wnawcza.html#a0470a1d1c72fbc7b887927d6bbde548c" target="_top" xlink:title=" ">
<polygon fill="white" stroke="#666666" points="416,-522.19 215,-522.19 215,-492.19 416,-492.19 416,-522.19"/>
<text text-anchor="start" x="223" y="-510.19" font-family="Helvetica,sans-Serif" font-size="10.00">porownania.AnalizaPorównawcza.</text>
<text text-anchor="middle" x="315.5" y="-499.19" font-family="Helvetica,sans-Serif" font-size="10.00">WyprowadźProcentPrzetworzonychPlików</text>
</a>
</g>
</g>
<!-- Node1&#45;&gt;Node35 -->
<g id="edge37" class="edge">
<title>Node1&#45;&gt;Node35</title>
<path fill="none" stroke="#63b8ff" d="M97.1,-655.45C113.86,-631.45 160.65,-569.02 215,-536.19 221.55,-532.23 228.67,-528.79 235.99,-525.8"/>
<polygon fill="#63b8ff" stroke="#63b8ff" points="237.24,-529.07 245.35,-522.25 234.76,-522.53 237.24,-529.07"/>
</g>
<!-- Node36 -->
<g id="node36" class="node">
<title>Node36</title>
<g id="a_node36"><a xlink:href="classporownania_1_1ZapisywanieTekstuDoPliku.html#a14a779032c882f4573b41bb9d5ca50e1" target="_top" xlink:title=" ">
<polygon fill="white" stroke="#666666" points="391.5,-244.19 239.5,-244.19 239.5,-214.19 391.5,-214.19 391.5,-244.19"/>
<text text-anchor="start" x="247.5" y="-232.19" font-family="Helvetica,sans-Serif" font-size="10.00">porownania.ZapisywanieTekstu</text>
<text text-anchor="middle" x="315.5" y="-221.19" font-family="Helvetica,sans-Serif" font-size="10.00">DoPliku.ZamknijPlik</text>
</a>
</g>
</g>
<!-- Node1&#45;&gt;Node36 -->
<g id="edge39" class="edge">
<title>Node1&#45;&gt;Node36</title>
<path fill="none" stroke="#63b8ff" d="M90.22,-655.4C89.34,-604.83 92.22,-371.22 215,-254.19 219.57,-249.84 224.78,-246.21 230.37,-243.19"/>
<polygon fill="#63b8ff" stroke="#63b8ff" points="231.86,-246.35 239.42,-238.93 228.88,-240.02 231.86,-246.35"/>
</g>
<!-- Node37 -->
<g id="node37" class="node">
<title>Node37</title>
<g id="a_node37"><a xlink:href="classporownania_1_1ZapisywanieTekstuDoPliku.html#a70084b69dca274ece37a57d1a80dcf08" target="_top" xlink:title=" ">
<polygon fill="white" stroke="#666666" points="391.5,-196.19 239.5,-196.19 239.5,-166.19 391.5,-166.19 391.5,-196.19"/>
<text text-anchor="start" x="247.5" y="-184.19" font-family="Helvetica,sans-Serif" font-size="10.00">porownania.ZapisywanieTekstu</text>
<text text-anchor="middle" x="315.5" y="-173.19" font-family="Helvetica,sans-Serif" font-size="10.00">DoPliku.ZapiszTekst</text>
</a>
</g>
</g>
<!-- Node1&#45;&gt;Node37 -->
<g id="edge40" class="edge">
<title>Node1&#45;&gt;Node37</title>
<path fill="none" stroke="#63b8ff" d="M91.76,-655.59C99.85,-595.53 146.21,-272.11 215,-205.19 219.41,-200.91 224.44,-197.34 229.85,-194.38"/>
<polygon fill="#63b8ff" stroke="#63b8ff" points="231.71,-197.37 239.26,-189.94 228.72,-191.04 231.71,-197.37"/>
</g>
<!-- Node38 -->
<g id="node38" class="node">
<title>Node38</title>
<g id="a_node38"><a xlink:href="classMotywy_1_1Por_xC3_xB3wnanieZZadanym.html#a11ff4401b316e36ea9263506ab0eeefa" target="_top" xlink:title=" ">
<polygon fill="white" stroke="#666666" points="392.5,-139.19 238.5,-139.19 238.5,-109.19 392.5,-109.19 392.5,-139.19"/>
<text text-anchor="start" x="246.5" y="-127.19" font-family="Helvetica,sans-Serif" font-size="10.00">Motywy.PorównanieZZadanym.</text>
<text text-anchor="middle" x="315.5" y="-116.19" font-family="Helvetica,sans-Serif" font-size="10.00">ZrealizujPorównanie</text>
</a>
</g>
</g>
<!-- Node1&#45;&gt;Node38 -->
<g id="edge41" class="edge">
<title>Node1&#45;&gt;Node38</title>
<path fill="none" stroke="#63b8ff" d="M91.6,-655.51C98.97,-591.98 143.24,-234.92 215,-157.19 219.73,-152.07 225.27,-147.74 231.27,-144.09"/>
<polygon fill="#63b8ff" stroke="#63b8ff" points="233.21,-147.02 240.36,-139.19 229.89,-140.85 233.21,-147.02"/>
</g>
<!-- Node4&#45;&gt;Node5 -->
<g id="edge4" class="edge">
<title>Node4&#45;&gt;Node5</title>
<path fill="none" stroke="#63b8ff" d="M376.07,-1058.93C403.35,-1061.56 435.88,-1064.69 464.34,-1067.43"/>
<polygon fill="#63b8ff" stroke="#63b8ff" points="464.33,-1070.95 474.62,-1068.42 465.01,-1063.98 464.33,-1070.95"/>
</g>
<!-- Node16 -->
<g id="node16" class="node">
<title>Node16</title>
<g id="a_node16"><a xlink:href="classporownania_1_1ZapisywanieTekstuDoPliku.html#af785e3cb040d577a60ca1cfba0afe0eb" target="_top" xlink:title=" ">
<polygon fill="white" stroke="#666666" points="619,-474.19 452,-474.19 452,-444.19 619,-444.19 619,-474.19"/>
<text text-anchor="start" x="460" y="-462.19" font-family="Helvetica,sans-Serif" font-size="10.00">porownania.ZapisywanieTekstu</text>
<text text-anchor="middle" x="535.5" y="-451.19" font-family="Helvetica,sans-Serif" font-size="10.00">DoPliku.UtwórzStrumieńDoZapisu</text>
</a>
</g>
</g>
<!-- Node15&#45;&gt;Node16 -->
<g id="edge16" class="edge">
<title>Node15&#45;&gt;Node16</title>
<path fill="none" stroke="#63b8ff" d="M391.52,-459.19C407.64,-459.19 424.85,-459.19 441.56,-459.19"/>
<polygon fill="#63b8ff" stroke="#63b8ff" points="441.87,-462.69 451.87,-459.19 441.87,-455.69 441.87,-462.69"/>
</g>
<!-- Node19&#45;&gt;Node9 -->
<g id="edge20" class="edge">
<title>Node19&#45;&gt;Node9</title>
<path fill="none" stroke="#63b8ff" d="M390,-831.28C411.45,-833.65 434.96,-836.23 456.66,-838.62"/>
<polygon fill="#63b8ff" stroke="#63b8ff" points="456.5,-842.13 466.83,-839.74 457.27,-835.17 456.5,-842.13"/>
</g>
<!-- Node19&#45;&gt;Node20 -->
<g id="edge21" class="edge">
<title>Node19&#45;&gt;Node20</title>
<path fill="none" stroke="#63b8ff" d="M390,-811.73C411.98,-808.3 436.11,-804.54 458.26,-801.08"/>
<polygon fill="#63b8ff" stroke="#63b8ff" points="458.94,-804.52 468.28,-799.52 457.86,-797.6 458.94,-804.52"/>
</g>
<!-- Node21 -->
<g id="node21" class="node">
<title>Node21</title>
<g id="a_node21"><a xlink:href="classMotywy_1_1ParaMotyw_xC3_xB3w.html#ad6a71562154940909746bf6588b6b84e" target="_top" xlink:title=" ">
<polygon fill="white" stroke="#666666" points="830.5,-798.69 663.5,-798.69 663.5,-779.69 830.5,-779.69 830.5,-798.69"/>
<text text-anchor="middle" x="747" y="-786.69" font-family="Helvetica,sans-Serif" font-size="10.00">Motywy.ParaMotywów.getRóżnicę</text>
</a>
</g>
</g>
<!-- Node20&#45;&gt;Node21 -->
<g id="edge22" class="edge">
<title>Node20&#45;&gt;Node21</title>
<path fill="none" stroke="#63b8ff" d="M602.79,-789.19C618.67,-789.19 635.92,-789.19 652.78,-789.19"/>
<polygon fill="#63b8ff" stroke="#63b8ff" points="653.2,-792.69 663.2,-789.19 653.2,-785.69 653.2,-792.69"/>
</g>
<!-- Node22 -->
<g id="node22" class="node">
<title>Node22</title>
<g id="a_node22"><a xlink:href="classMotywy_1_1Motyw.html#a1bf7b0581400d564daa45e9cba7987f2" target="_top" xlink:title=" ">
<polygon fill="white" stroke="#666666" points="1063,-798.69 875,-798.69 875,-779.69 1063,-779.69 1063,-798.69"/>
<text text-anchor="middle" x="969" y="-786.69" font-family="Helvetica,sans-Serif" font-size="10.00">Motywy.Motyw.CzyMożnaPorównywać</text>
</a>
</g>
</g>
<!-- Node21&#45;&gt;Node22 -->
<g id="edge23" class="edge">
<title>Node21&#45;&gt;Node22</title>
<path fill="none" stroke="#63b8ff" d="M830.55,-789.19C841.67,-789.19 853.2,-789.19 864.63,-789.19"/>
<polygon fill="#63b8ff" stroke="#63b8ff" points="864.64,-792.69 874.64,-789.19 864.64,-785.69 864.64,-792.69"/>
</g>
<!-- Node23 -->
<g id="node23" class="node">
<title>Node23</title>
<g id="a_node23"><a xlink:href="classStruktury_1_1ArkuszZdarzenie.html#add9f4b9b1ae80d624e5f480cda1574ee" target="_top" xlink:title=" ">
<polygon fill="white" stroke="#666666" points="1250,-804.19 1099,-804.19 1099,-774.19 1250,-774.19 1250,-804.19"/>
<text text-anchor="start" x="1107" y="-792.19" font-family="Helvetica,sans-Serif" font-size="10.00">Struktury.ArkuszZdarzenie.get</text>
<text text-anchor="middle" x="1174.5" y="-781.19" font-family="Helvetica,sans-Serif" font-size="10.00">NumerGłosu</text>
</a>
</g>
</g>
<!-- Node22&#45;&gt;Node23 -->
<g id="edge24" class="edge">
<title>Node22&#45;&gt;Node23</title>
<path fill="none" stroke="#63b8ff" d="M1063.11,-789.19C1071.6,-789.19 1080.16,-789.19 1088.56,-789.19"/>
<polygon fill="#63b8ff" stroke="#63b8ff" points="1088.72,-792.69 1098.72,-789.19 1088.72,-785.69 1088.72,-792.69"/>
</g>
<!-- Node26 -->
<g id="node26" class="node">
<title>Node26</title>
<g id="a_node26"><a xlink:href="classStruktury_1_1PlikCSV.html#aede544e061c6a720191a9f5da1127f7d" target="_top" xlink:title=" ">
<polygon fill="white" stroke="#666666" points="601,-363.19 470,-363.19 470,-333.19 601,-333.19 601,-363.19"/>
<text text-anchor="start" x="478" y="-351.19" font-family="Helvetica,sans-Serif" font-size="10.00">Struktury.PlikCSV.Podział</text>
<text text-anchor="middle" x="535.5" y="-340.19" font-family="Helvetica,sans-Serif" font-size="10.00">Linii</text>
</a>
</g>
</g>
<!-- Node25&#45;&gt;Node26 -->
<g id="edge28" class="edge">
<title>Node25&#45;&gt;Node26</title>
<path fill="none" stroke="#63b8ff" d="M391.09,-281.71C399.73,-284.18 408.22,-287.29 416,-291.19 435.4,-300.93 433.08,-313.55 452,-324.19 455.08,-325.93 458.3,-327.55 461.61,-329.06"/>
<polygon fill="#63b8ff" stroke="#63b8ff" points="460.53,-332.4 471.11,-333.03 463.23,-325.94 460.53,-332.4"/>
</g>
<!-- Node27 -->
<g id="node27" class="node">
<title>Node27</title>
<g id="a_node27"><a xlink:href="classStruktury_1_1Arkusz.html#a3747bcb1e5e0c4a73035e9578b6bf6d7" target="_top" xlink:title=" ">
<polygon fill="white" stroke="#666666" points="609,-314.69 462,-314.69 462,-295.69 609,-295.69 609,-314.69"/>
<text text-anchor="middle" x="535.5" y="-302.69" font-family="Helvetica,sans-Serif" font-size="10.00">Struktury.Arkusz.setKomórkę</text>
</a>
</g>
</g>
<!-- Node25&#45;&gt;Node27 -->
<g id="edge29" class="edge">
<title>Node25&#45;&gt;Node27</title>
<path fill="none" stroke="#63b8ff" d="M379.26,-281.69C404.92,-285.58 434.76,-290.09 461.39,-294.13"/>
<polygon fill="#63b8ff" stroke="#63b8ff" points="461.01,-297.61 471.43,-295.64 462.06,-290.69 461.01,-297.61"/>
</g>
<!-- Node29 -->
<g id="node29" class="node">
<title>Node29</title>
<g id="a_node29"><a xlink:href="classStruktury_1_1PlikCSV.html#ad822fb4b09d4b763cefc7b9e59833182" target="_top" xlink:title=" ">
<polygon fill="white" stroke="#666666" points="602.5,-277.19 468.5,-277.19 468.5,-247.19 602.5,-247.19 602.5,-277.19"/>
<text text-anchor="start" x="476.5" y="-265.19" font-family="Helvetica,sans-Serif" font-size="10.00">Struktury.PlikCSV.Wczytaj</text>
<text text-anchor="middle" x="535.5" y="-254.19" font-family="Helvetica,sans-Serif" font-size="10.00">CałyPLik</text>
</a>
</g>
</g>
<!-- Node25&#45;&gt;Node29 -->
<g id="edge31" class="edge">
<title>Node25&#45;&gt;Node29</title>
<path fill="none" stroke="#63b8ff" d="M394.59,-268.61C415.38,-267.66 437.8,-266.63 458.48,-265.68"/>
<polygon fill="#63b8ff" stroke="#63b8ff" points="458.64,-269.18 468.47,-265.22 458.32,-262.18 458.64,-269.18"/>
</g>
<!-- Node28 -->
<g id="node28" class="node">
<title>Node28</title>
<g id="a_node28"><a xlink:href="classStruktury_1_1Kom_xC3_xB3rkaArkusza.html#a9e8a46a4fc47a0e2863c8f05528825a2" target="_top" xlink:title=" ">
<polygon fill="white" stroke="#666666" points="823,-344.19 671,-344.19 671,-314.19 823,-314.19 823,-344.19"/>
<text text-anchor="start" x="679" y="-332.19" font-family="Helvetica,sans-Serif" font-size="10.00">Struktury.KomórkaArkusza.set</text>
<text text-anchor="middle" x="747" y="-321.19" font-family="Helvetica,sans-Serif" font-size="10.00">Wartość</text>
</a>
</g>
</g>
<!-- Node27&#45;&gt;Node28 -->
<g id="edge30" class="edge">
<title>Node27&#45;&gt;Node28</title>
<path fill="none" stroke="#63b8ff" d="M609.18,-313.52C625.88,-315.43 643.78,-317.48 660.95,-319.45"/>
<polygon fill="#63b8ff" stroke="#63b8ff" points="660.62,-322.93 670.95,-320.59 661.42,-315.98 660.62,-322.93"/>
</g>
<!-- Node30 -->
<g id="node30" class="node">
<title>Node30</title>
<g id="a_node30"><a xlink:href="classStruktury_1_1PlikCSV.html#a8997e76c5a473f782c5978ad6ffeeeba" target="_top" xlink:title=" ">
<polygon fill="white" stroke="#666666" points="817,-296.19 677,-296.19 677,-266.19 817,-266.19 817,-296.19"/>
<text text-anchor="start" x="685" y="-284.19" font-family="Helvetica,sans-Serif" font-size="10.00">Struktury.PlikCSV.getKod</text>
<text text-anchor="middle" x="747" y="-273.19" font-family="Helvetica,sans-Serif" font-size="10.00">TekstowyKodowaniaZnaków</text>
</a>
</g>
</g>
<!-- Node29&#45;&gt;Node30 -->
<g id="edge32" class="edge">
<title>Node29&#45;&gt;Node30</title>
<path fill="none" stroke="#63b8ff" d="M602.79,-268.2C623.08,-270.04 645.61,-272.09 666.68,-274"/>
<polygon fill="#63b8ff" stroke="#63b8ff" points="666.62,-277.51 676.89,-274.92 667.25,-270.54 666.62,-277.51"/>
</g>
<!-- Node31 -->
<g id="node31" class="node">
<title>Node31</title>
<g id="a_node31"><a xlink:href="classStruktury_1_1UsuwanieBOM.html#a61ea81daa96a505746289e335f32cbc3" target="_top" xlink:title=" ">
<polygon fill="white" stroke="#666666" points="839,-247.69 655,-247.69 655,-228.69 839,-228.69 839,-247.69"/>
<text text-anchor="middle" x="747" y="-235.69" font-family="Helvetica,sans-Serif" font-size="10.00">Struktury.UsuwanieBOM.KorektaBOM</text>
</a>
</g>
</g>
<!-- Node29&#45;&gt;Node31 -->
<g id="edge33" class="edge">
<title>Node29&#45;&gt;Node31</title>
<path fill="none" stroke="#63b8ff" d="M602.79,-254.6C618.57,-252.79 635.71,-250.83 652.46,-248.91"/>
<polygon fill="#63b8ff" stroke="#63b8ff" points="653.29,-252.34 662.82,-247.72 652.49,-245.38 653.29,-252.34"/>
</g>
<!-- Node32 -->
<g id="node32" class="node">
<title>Node32</title>
<g id="a_node32"><a xlink:href="classStruktury_1_1UsuwanieBOM.html#a0770cffdd0857a04a472c6489e890eeb" target="_top" xlink:title=" ">
<polygon fill="white" stroke="#666666" points="1055.5,-256.69 882.5,-256.69 882.5,-237.69 1055.5,-237.69 1055.5,-256.69"/>
<text text-anchor="middle" x="969" y="-244.69" font-family="Helvetica,sans-Serif" font-size="10.00">Struktury.UsuwanieBOM.UsuńBOM</text>
</a>
</g>
</g>
<!-- Node31&#45;&gt;Node32 -->
<g id="edge34" class="edge">
<title>Node31&#45;&gt;Node32</title>
<path fill="none" stroke="#63b8ff" d="M839.07,-241.92C850.02,-242.37 861.23,-242.82 872.25,-243.27"/>
<polygon fill="#63b8ff" stroke="#63b8ff" points="872.16,-246.77 882.29,-243.69 872.45,-239.78 872.16,-246.77"/>
</g>
<!-- Node33 -->
<g id="node33" class="node">
<title>Node33</title>
<g id="a_node33"><a xlink:href="classStruktury_1_1UsuwanieBOM.html#aef47abe35e6f2a6cd7da2b65ee08e993" target="_top" xlink:title=" ">
<polygon fill="white" stroke="#666666" points="1247.5,-262.19 1101.5,-262.19 1101.5,-232.19 1247.5,-232.19 1247.5,-262.19"/>
<text text-anchor="start" x="1109.5" y="-250.19" font-family="Helvetica,sans-Serif" font-size="10.00">Struktury.UsuwanieBOM.Czy</text>
<text text-anchor="middle" x="1174.5" y="-239.19" font-family="Helvetica,sans-Serif" font-size="10.00">JestJakikolwiekBOM</text>
</a>
</g>
</g>
<!-- Node32&#45;&gt;Node33 -->
<g id="edge35" class="edge">
<title>Node32&#45;&gt;Node33</title>
<path fill="none" stroke="#63b8ff" d="M1055.71,-247.19C1067.47,-247.19 1079.53,-247.19 1091.23,-247.19"/>
<polygon fill="#63b8ff" stroke="#63b8ff" points="1091.4,-250.69 1101.4,-247.19 1091.4,-243.69 1091.4,-250.69"/>
</g>
<!-- Node34 -->
<g id="node34" class="node">
<title>Node34</title>
<g id="a_node34"><a xlink:href="classStruktury_1_1UsuwanieBOM.html#aef702bd0b80f518125bf384dfad72ad5" target="_top" xlink:title=" ">
<polygon fill="white" stroke="#666666" points="1432,-262.19 1286,-262.19 1286,-232.19 1432,-232.19 1432,-262.19"/>
<text text-anchor="start" x="1294" y="-250.19" font-family="Helvetica,sans-Serif" font-size="10.00">Struktury.UsuwanieBOM.Czy</text>
<text text-anchor="middle" x="1359" y="-239.19" font-family="Helvetica,sans-Serif" font-size="10.00">JestBOM</text>
</a>
</g>
</g>
<!-- Node33&#45;&gt;Node34 -->
<g id="edge36" class="edge">
<title>Node33&#45;&gt;Node34</title>
<path fill="none" stroke="#63b8ff" d="M1247.63,-247.19C1256.85,-247.19 1266.34,-247.19 1275.7,-247.19"/>
<polygon fill="#63b8ff" stroke="#63b8ff" points="1275.8,-250.69 1285.8,-247.19 1275.8,-243.69 1275.8,-250.69"/>
</g>
<!-- Node35&#45;&gt;Node14 -->
<g id="edge38" class="edge">
<title>Node35&#45;&gt;Node14</title>
<path fill="none" stroke="#63b8ff" d="M416.25,-517.26C424.95,-518.14 433.73,-519.02 442.37,-519.89"/>
<polygon fill="#63b8ff" stroke="#63b8ff" points="442.13,-523.39 452.43,-520.91 442.83,-516.42 442.13,-523.39"/>
</g>
<!-- Node39 -->
<g id="node39" class="node">
<title>Node39</title>
<g id="a_node39"><a xlink:href="classMotywy_1_1Motyw.html#a78e0685f4ff1fb079d1f6230ecff2663" target="_top" xlink:title=" ">
<polygon fill="white" stroke="#666666" points="814,-58.19 680,-58.19 680,-28.19 814,-28.19 814,-58.19"/>
<text text-anchor="start" x="688" y="-46.19" font-family="Helvetica,sans-Serif" font-size="10.00">Motywy.Motyw.getDługość</text>
<text text-anchor="middle" x="747" y="-35.19" font-family="Helvetica,sans-Serif" font-size="10.00">Motywu</text>
</a>
</g>
</g>
<!-- Node38&#45;&gt;Node39 -->
<g id="edge42" class="edge">
<title>Node38&#45;&gt;Node39</title>
<path fill="none" stroke="#63b8ff" d="M328.74,-109.06C350.4,-83.64 398.31,-33.24 452,-14.19 533.27,14.64 634.61,-6.91 694.6,-25.1"/>
<polygon fill="#63b8ff" stroke="#63b8ff" points="693.63,-28.46 704.22,-28.1 695.72,-21.78 693.63,-28.46"/>
</g>
<!-- Node40 -->
<g id="node40" class="node">
<title>Node40</title>
<g id="a_node40"><a xlink:href="classStruktury_1_1ArkuszZdarzenie.html#a51ecd5710e9e6d740314661d80e9499f" target="_top" xlink:title=" ">
<polygon fill="white" stroke="#666666" points="611,-101.19 460,-101.19 460,-71.19 611,-71.19 611,-101.19"/>
<text text-anchor="start" x="468" y="-89.19" font-family="Helvetica,sans-Serif" font-size="10.00">Struktury.ArkuszZdarzenie.get</text>
<text text-anchor="middle" x="535.5" y="-78.19" font-family="Helvetica,sans-Serif" font-size="10.00">NazwęKolumny</text>
</a>
</g>
</g>
<!-- Node38&#45;&gt;Node40 -->
<g id="edge43" class="edge">
<title>Node38&#45;&gt;Node40</title>
<path fill="none" stroke="#63b8ff" d="M392.75,-110.9C411.17,-107.69 430.97,-104.24 449.75,-100.96"/>
<polygon fill="#63b8ff" stroke="#63b8ff" points="450.52,-104.38 459.77,-99.22 449.31,-97.49 450.52,-104.38"/>
</g>
<!-- Node41 -->
<g id="node41" class="node">
<title>Node41</title>
<g id="a_node41"><a xlink:href="classStruktury_1_1ArkuszZdarzenie.html#aab8a50eda797bd00b06ec5b4c9217724" target="_top" xlink:title=" ">
<polygon fill="white" stroke="#666666" points="611,-53.19 460,-53.19 460,-23.19 611,-23.19 611,-53.19"/>
<text text-anchor="start" x="468" y="-41.19" font-family="Helvetica,sans-Serif" font-size="10.00">Struktury.ArkuszZdarzenie.get</text>
<text text-anchor="middle" x="535.5" y="-30.19" font-family="Helvetica,sans-Serif" font-size="10.00">Wiersz</text>
</a>
</g>
</g>
<!-- Node38&#45;&gt;Node41 -->
<g id="edge44" class="edge">
<title>Node38&#45;&gt;Node41</title>
<path fill="none" stroke="#63b8ff" d="M346.11,-109.12C373.21,-95.7 414.66,-76.08 452,-62.19 457.46,-60.16 463.18,-58.19 468.95,-56.31"/>
<polygon fill="#63b8ff" stroke="#63b8ff" points="470.19,-59.59 478.66,-53.23 468.07,-52.91 470.19,-59.59"/>
</g>
<!-- Node42 -->
<g id="node42" class="node">
<title>Node42</title>
<g id="a_node42"><a xlink:href="classMotywy_1_1Por_xC3_xB3wnanieZZadanym.html#af664f821dfb522abb48d94f4db3a3007" target="_top" xlink:title=" ">
<polygon fill="white" stroke="#666666" points="824,-192.19 670,-192.19 670,-162.19 824,-162.19 824,-192.19"/>
<text text-anchor="start" x="678" y="-180.19" font-family="Helvetica,sans-Serif" font-size="10.00">Motywy.PorównanieZZadanym.</text>
<text text-anchor="middle" x="747" y="-169.19" font-family="Helvetica,sans-Serif" font-size="10.00">NadajWagi</text>
</a>
</g>
</g>
<!-- Node38&#45;&gt;Node42 -->
<g id="edge45" class="edge">
<title>Node38&#45;&gt;Node42</title>
<path fill="none" stroke="#63b8ff" d="M367.2,-139.24C392.46,-146.13 423.6,-153.75 452,-158.19 521.39,-169.05 600.92,-173.72 659.75,-175.73"/>
<polygon fill="#63b8ff" stroke="#63b8ff" points="659.64,-179.23 669.75,-176.05 659.87,-172.23 659.64,-179.23"/>
</g>
<!-- Node46 -->
<g id="node46" class="node">
<title>Node46</title>
<g id="a_node46"><a xlink:href="classMotywy_1_1Por_xC3_xB3wnanieZZadanym.html#afc411b58aadd60fadcab90ad9f76e3d5" target="_top" xlink:title=" ">
<polygon fill="white" stroke="#666666" points="612.5,-149.19 458.5,-149.19 458.5,-119.19 612.5,-119.19 612.5,-149.19"/>
<text text-anchor="start" x="466.5" y="-137.19" font-family="Helvetica,sans-Serif" font-size="10.00">Motywy.PorównanieZZadanym.</text>
<text text-anchor="middle" x="535.5" y="-126.19" font-family="Helvetica,sans-Serif" font-size="10.00">ObliczRóżnicę</text>
</a>
</g>
</g>
<!-- Node38&#45;&gt;Node46 -->
<g id="edge49" class="edge">
<title>Node38&#45;&gt;Node46</title>
<path fill="none" stroke="#63b8ff" d="M392.75,-127.69C410.67,-128.51 429.89,-129.39 448.22,-130.23"/>
<polygon fill="#63b8ff" stroke="#63b8ff" points="448.15,-133.73 458.3,-130.7 448.47,-126.74 448.15,-133.73"/>
</g>
<!-- Node43 -->
<g id="node43" class="node">
<title>Node43</title>
<g id="a_node43"><a xlink:href="classMotywy_1_1Motyw.html#a390f9d1acc3c0862c70b71bc7f13f931" target="_top" xlink:title=" ">
<polygon fill="white" stroke="#666666" points="1041.5,-182.19 896.5,-182.19 896.5,-152.19 1041.5,-152.19 1041.5,-182.19"/>
<text text-anchor="start" x="904.5" y="-170.19" font-family="Helvetica,sans-Serif" font-size="10.00">Motywy.Motyw.getReferencję</text>
<text text-anchor="middle" x="969" y="-159.19" font-family="Helvetica,sans-Serif" font-size="10.00">DoMotywu</text>
</a>
</g>
</g>
<!-- Node42&#45;&gt;Node43 -->
<g id="edge46" class="edge">
<title>Node42&#45;&gt;Node43</title>
<path fill="none" stroke="#63b8ff" d="M824.02,-173.74C844.1,-172.82 865.86,-171.83 886.23,-170.91"/>
<polygon fill="#63b8ff" stroke="#63b8ff" points="886.59,-174.4 896.42,-170.45 886.27,-167.4 886.59,-174.4"/>
</g>
<!-- Node44 -->
<g id="node44" class="node">
<title>Node44</title>
<g id="a_node44"><a xlink:href="classStruktury_1_1ArkuszZdarzenie.html#a3e1eb6a41e16bd31dfb9c7525f58b11b" target="_top" xlink:title=" ">
<polygon fill="white" stroke="#666666" points="1044.5,-134.19 893.5,-134.19 893.5,-104.19 1044.5,-104.19 1044.5,-134.19"/>
<text text-anchor="start" x="901.5" y="-122.19" font-family="Helvetica,sans-Serif" font-size="10.00">Struktury.ArkuszZdarzenie.get</text>
<text text-anchor="middle" x="969" y="-111.19" font-family="Helvetica,sans-Serif" font-size="10.00">Zdarzenie</text>
</a>
</g>
</g>
<!-- Node42&#45;&gt;Node44 -->
<g id="edge47" class="edge">
<title>Node42&#45;&gt;Node44</title>
<path fill="none" stroke="#63b8ff" d="M803.61,-162.19C825.8,-156.23 851.6,-149.34 875,-143.19 883,-141.09 891.39,-138.9 899.72,-136.74"/>
<polygon fill="#63b8ff" stroke="#63b8ff" points="900.64,-140.12 909.44,-134.22 898.88,-133.34 900.64,-140.12"/>
</g>
<!-- Node45 -->
<g id="node45" class="node">
<title>Node45</title>
<g id="a_node45"><a xlink:href="classStruktury_1_1Zdarzenie.html#abfe72b5a3dc76cd1907abdbd9ea38c0f" target="_top" xlink:title=" ">
<polygon fill="white" stroke="#666666" points="1047,-219.69 891,-219.69 891,-200.69 1047,-200.69 1047,-219.69"/>
<text text-anchor="middle" x="969" y="-207.69" font-family="Helvetica,sans-Serif" font-size="10.00">Struktury.Zdarzenie.UstawWagi</text>
</a>
</g>
</g>
<!-- Node42&#45;&gt;Node45 -->
<g id="edge48" class="edge">
<title>Node42&#45;&gt;Node45</title>
<path fill="none" stroke="#63b8ff" d="M824.02,-188.6C846.85,-192.02 871.84,-195.77 894.5,-199.17"/>
<polygon fill="#63b8ff" stroke="#63b8ff" points="893.99,-202.63 904.4,-200.65 895.03,-195.71 893.99,-202.63"/>
</g>
<!-- Node46&#45;&gt;Node39 -->
<g id="edge50" class="edge">
<title>Node46&#45;&gt;Node39</title>
<path fill="none" stroke="#63b8ff" d="M593.82,-119.15C602.36,-116.44 610.98,-113.44 619,-110.19 651.73,-96.96 687.11,-77.86 712.19,-63.44"/>
<polygon fill="#63b8ff" stroke="#63b8ff" points="714.05,-66.41 720.94,-58.36 710.54,-60.36 714.05,-66.41"/>
</g>
<!-- Node47 -->
<g id="node47" class="node">
<title>Node47</title>
<g id="a_node47"><a xlink:href="classMotywy_1_1Motyw.html#a37081cad0e58f94556a361efadfae855" target="_top" xlink:title=" ">
<polygon fill="white" stroke="#666666" points="832,-143.69 662,-143.69 662,-124.69 832,-124.69 832,-143.69"/>
<text text-anchor="middle" x="747" y="-131.69" font-family="Helvetica,sans-Serif" font-size="10.00">Motywy.Motyw.OceńPodobieństwo</text>
</a>
</g>
</g>
<!-- Node46&#45;&gt;Node47 -->
<g id="edge51" class="edge">
<title>Node46&#45;&gt;Node47</title>
<path fill="none" stroke="#63b8ff" d="M612.73,-134.19C625.28,-134.19 638.43,-134.19 651.37,-134.19"/>
<polygon fill="#63b8ff" stroke="#63b8ff" points="651.68,-137.69 661.68,-134.19 651.68,-130.69 651.68,-137.69"/>
</g>
<!-- Node47&#45;&gt;Node43 -->
<g id="edge52" class="edge">
<title>Node47&#45;&gt;Node43</title>
<path fill="none" stroke="#63b8ff" d="M811.34,-143.69C834.66,-147.19 861.41,-151.2 886.13,-154.91"/>
<polygon fill="#63b8ff" stroke="#63b8ff" points="885.81,-158.4 896.21,-156.42 886.84,-151.48 885.81,-158.4"/>
</g>
<!-- Node47&#45;&gt;Node44 -->
<g id="edge53" class="edge">
<title>Node47&#45;&gt;Node44</title>
<path fill="none" stroke="#63b8ff" d="M832.11,-128.46C848.79,-127.32 866.31,-126.13 883.01,-124.99"/>
<polygon fill="#63b8ff" stroke="#63b8ff" points="883.55,-128.46 893.29,-124.29 883.08,-121.47 883.55,-128.46"/>
</g>
</g>
</svg>
