<?xml version="1.0" encoding="UTF-8" standalone="no"?>
<!DOCTYPE svg PUBLIC "-//W3C//DTD SVG 1.1//EN"
 "http://www.w3.org/Graphics/SVG/1.1/DTD/svg11.dtd">
<!-- Generated by graphviz version 2.49.3 (0)
 -->
<!-- Title: Struktury.Arkusz.getLiczbęKolumn Pages: 1 -->
<svg width="515pt" height="182pt"
 viewBox="0.00 0.00 515.00 182.00" xmlns="http://www.w3.org/2000/svg" xmlns:xlink="http://www.w3.org/1999/xlink">
<g id="graph0" class="graph" transform="scale(1 1) rotate(0) translate(4 178)">
<title>Struktury.Arkusz.getLiczbęKolumn</title>
<!-- Node1 -->
<g id="node1" class="node">
<title>Node1</title>
<g id="a_node1"><a xlink:title=" ">
<polygon fill="#999999" stroke="#666666" points="507,-102 371,-102 371,-72 507,-72 507,-102"/>
<text text-anchor="start" x="379" y="-90" font-family="Helvetica,sans-Serif" font-size="10.00">Struktury.Arkusz.getLiczbę</text>
<text text-anchor="middle" x="439" y="-79" font-family="Helvetica,sans-Serif" font-size="10.00">Kolumn</text>
</a>
</g>
</g>
<!-- Node2 -->
<g id="node2" class="node">
<title>Node2</title>
<g id="a_node2"><a xlink:href="classStruktury_1_1Interpreter.html#abfa2bbe5356269e3d3218957bd43ad81" target="_top" xlink:title=" ">
<polygon fill="white" stroke="#666666" points="334.5,-174 188.5,-174 188.5,-144 334.5,-144 334.5,-174"/>
<text text-anchor="start" x="196.5" y="-162" font-family="Helvetica,sans-Serif" font-size="10.00">Struktury.Interpreter.Przepisz</text>
<text text-anchor="middle" x="261.5" y="-151" font-family="Helvetica,sans-Serif" font-size="10.00">Arkusz</text>
</a>
</g>
</g>
<!-- Node1&#45;&gt;Node2 -->
<g id="edge1" class="edge">
<title>Node1&#45;&gt;Node2</title>
<path fill="none" stroke="#63b8ff" d="M399.21,-106.38C380.11,-115.59 356.59,-126.43 335,-135 327.24,-138.08 318.9,-141.1 310.75,-143.9"/>
<polygon fill="#63b8ff" stroke="#63b8ff" points="400.74,-109.53 408.21,-102.01 397.68,-103.23 400.74,-109.53"/>
</g>
<!-- Node4 -->
<g id="node4" class="node">
<title>Node4</title>
<g id="a_node4"><a xlink:href="classStruktury_1_1Interpreter.html#a8d912ec5e4e42eaf2aac5f3f524e0172" target="_top" xlink:title=" ">
<polygon fill="white" stroke="#666666" points="335,-126 188,-126 188,-96 335,-96 335,-126"/>
<text text-anchor="start" x="196" y="-114" font-family="Helvetica,sans-Serif" font-size="10.00">Struktury.Interpreter.Uzupełnij</text>
<text text-anchor="middle" x="261.5" y="-103" font-family="Helvetica,sans-Serif" font-size="10.00">NumeryTaktów</text>
</a>
</g>
</g>
<!-- Node1&#45;&gt;Node4 -->
<g id="edge3" class="edge">
<title>Node1&#45;&gt;Node4</title>
<path fill="none" stroke="#63b8ff" d="M360.92,-97.54C352.34,-98.71 343.63,-99.91 335.11,-101.07"/>
<polygon fill="#63b8ff" stroke="#63b8ff" points="361.47,-101 370.9,-96.18 360.52,-94.06 361.47,-101"/>
</g>
<!-- Node5 -->
<g id="node5" class="node">
<title>Node5</title>
<g id="a_node5"><a xlink:href="classStruktury_1_1Interpreter.html#a3b1b460c28f4b8e6b25366069755ce0d" target="_top" xlink:title=" ">
<polygon fill="white" stroke="#666666" points="330,-78 193,-78 193,-48 330,-48 330,-78"/>
<text text-anchor="start" x="201" y="-66" font-family="Helvetica,sans-Serif" font-size="10.00">Struktury.Interpreter.Znajdź</text>
<text text-anchor="middle" x="261.5" y="-55" font-family="Helvetica,sans-Serif" font-size="10.00">AdresySłowaTakt</text>
</a>
</g>
</g>
<!-- Node1&#45;&gt;Node5 -->
<g id="edge5" class="edge">
<title>Node1&#45;&gt;Node5</title>
<path fill="none" stroke="#63b8ff" d="M360.78,-76.44C350.57,-75.04 340.17,-73.62 330.14,-72.25"/>
<polygon fill="#63b8ff" stroke="#63b8ff" points="360.52,-79.94 370.9,-77.82 361.47,-73 360.52,-79.94"/>
</g>
<!-- Node6 -->
<g id="node6" class="node">
<title>Node6</title>
<g id="a_node6"><a xlink:href="classStruktury_1_1Interpreter.html#a516c744ba909899cdea81e38deeb4526" target="_top" xlink:title=" ">
<polygon fill="white" stroke="#666666" points="330,-30 193,-30 193,0 330,0 330,-30"/>
<text text-anchor="start" x="201" y="-18" font-family="Helvetica,sans-Serif" font-size="10.00">Struktury.Interpreter.Znajdź</text>
<text text-anchor="middle" x="261.5" y="-7" font-family="Helvetica,sans-Serif" font-size="10.00">Systemy</text>
</a>
</g>
</g>
<!-- Node1&#45;&gt;Node6 -->
<g id="edge7" class="edge">
<title>Node1&#45;&gt;Node6</title>
<path fill="none" stroke="#63b8ff" d="M399.21,-67.62C380.11,-58.41 356.59,-47.57 335,-39 327.24,-35.92 318.9,-32.9 310.75,-30.1"/>
<polygon fill="#63b8ff" stroke="#63b8ff" points="397.68,-70.77 408.21,-71.99 400.74,-64.47 397.68,-70.77"/>
</g>
<!-- Node3 -->
<g id="node3" class="node">
<title>Node3</title>
<g id="a_node3"><a xlink:href="classStruktury_1_1Interpreter.html#a4c2426a0220ccfab53ef88b4ef68e5ab" target="_top" xlink:title=" ">
<polygon fill="white" stroke="#666666" points="152,-96.5 0,-96.5 0,-77.5 152,-77.5 152,-96.5"/>
<text text-anchor="middle" x="76" y="-84.5" font-family="Helvetica,sans-Serif" font-size="10.00">Struktury.Interpreter.Interpreter</text>
</a>
</g>
</g>
<!-- Node2&#45;&gt;Node3 -->
<g id="edge2" class="edge">
<title>Node2&#45;&gt;Node3</title>
<path fill="none" stroke="#63b8ff" d="M203.59,-140.69C198.3,-138.83 193.03,-136.92 188,-135 156.02,-122.82 119.76,-106.69 97.64,-96.58"/>
<polygon fill="#63b8ff" stroke="#63b8ff" points="202.5,-144.02 213.1,-143.98 204.79,-137.4 202.5,-144.02"/>
</g>
<!-- Node4&#45;&gt;Node3 -->
<g id="edge4" class="edge">
<title>Node4&#45;&gt;Node3</title>
<path fill="none" stroke="#63b8ff" d="M177.91,-100.2C168.57,-98.98 159.1,-97.74 149.9,-96.53"/>
<polygon fill="#63b8ff" stroke="#63b8ff" points="177.61,-103.69 187.98,-101.51 178.51,-96.75 177.61,-103.69"/>
</g>
<!-- Node5&#45;&gt;Node3 -->
<g id="edge6" class="edge">
<title>Node5&#45;&gt;Node3</title>
<path fill="none" stroke="#63b8ff" d="M182.92,-73.15C171.89,-74.59 160.58,-76.07 149.65,-77.5"/>
<polygon fill="#63b8ff" stroke="#63b8ff" points="183.49,-76.6 192.95,-71.83 182.58,-69.66 183.49,-76.6"/>
</g>
<!-- Node6&#45;&gt;Node3 -->
<g id="edge8" class="edge">
<title>Node6&#45;&gt;Node3</title>
<path fill="none" stroke="#63b8ff" d="M203.59,-33.31C198.3,-35.17 193.03,-37.08 188,-39 156.02,-51.18 119.76,-67.31 97.64,-77.42"/>
<polygon fill="#63b8ff" stroke="#63b8ff" points="204.79,-36.6 213.1,-30.02 202.5,-29.98 204.79,-36.6"/>
</g>
</g>
</svg>
