<?xml version="1.0" encoding="UTF-8" standalone="no"?>
<!DOCTYPE svg PUBLIC "-//W3C//DTD SVG 1.1//EN"
 "http://www.w3.org/Graphics/SVG/1.1/DTD/svg11.dtd">
<!-- Generated by graphviz version 2.49.3 (0)
 -->
<!-- Title: ListaPodobienstw.ElementListy.Dopisz Pages: 1 -->
<svg width="308pt" height="122pt"
 viewBox="0.00 0.00 308.00 122.00" xmlns="http://www.w3.org/2000/svg" xmlns:xlink="http://www.w3.org/1999/xlink">
<g id="graph0" class="graph" transform="scale(1 1) rotate(0) translate(4 118)">
<title>ListaPodobienstw.ElementListy.Dopisz</title>
<!-- Node1 -->
<g id="node1" class="node">
<title>Node1</title>
<g id="a_node1"><a xlink:title=" ">
<polygon fill="#999999" stroke="#666666" points="132,-63 0,-63 0,-33 132,-33 132,-63"/>
<text text-anchor="start" x="8" y="-51" font-family="Helvetica,sans-Serif" font-size="10.00">ListaPodobienstw.Element</text>
<text text-anchor="middle" x="66" y="-40" font-family="Helvetica,sans-Serif" font-size="10.00">Listy.Dopisz</text>
</a>
</g>
</g>
<!-- Node2 -->
<g id="node2" class="node">
<title>Node2</title>
<g id="a_node2"><a xlink:href="classListaPodobienstw_1_1ElementListy.html#ab25ad4be1f8f348de5070ac2bf8f7742" target="_top" xlink:title=" ">
<polygon fill="white" stroke="#666666" points="300,-96 168,-96 168,-66 300,-66 300,-96"/>
<text text-anchor="start" x="176" y="-84" font-family="Helvetica,sans-Serif" font-size="10.00">ListaPodobienstw.Element</text>
<text text-anchor="middle" x="234" y="-73" font-family="Helvetica,sans-Serif" font-size="10.00">Listy.CzyJest</text>
</a>
</g>
</g>
<!-- Node1&#45;&gt;Node2 -->
<g id="edge1" class="edge">
<title>Node1&#45;&gt;Node2</title>
<path fill="none" stroke="#63b8ff" d="M132.13,-60.95C140.55,-62.62 149.23,-64.35 157.8,-66.05"/>
<polygon fill="#63b8ff" stroke="#63b8ff" points="157.29,-69.52 167.78,-68.04 158.66,-62.65 157.29,-69.52"/>
</g>
<!-- Node3 -->
<g id="node3" class="node">
<title>Node3</title>
<g id="a_node3"><a xlink:href="classListaPodobienstw_1_1ElementListy.html#a5e644fc4a4c638eda2ff3985909f0a65" target="_top" xlink:title=" ">
<polygon fill="white" stroke="#666666" points="300,-30 168,-30 168,0 300,0 300,-30"/>
<text text-anchor="start" x="176" y="-18" font-family="Helvetica,sans-Serif" font-size="10.00">ListaPodobienstw.Element</text>
<text text-anchor="middle" x="234" y="-7" font-family="Helvetica,sans-Serif" font-size="10.00">Listy.DopiszDoKońcaListy</text>
</a>
</g>
</g>
<!-- Node1&#45;&gt;Node3 -->
<g id="edge3" class="edge">
<title>Node1&#45;&gt;Node3</title>
<path fill="none" stroke="#63b8ff" d="M132.13,-35.05C140.55,-33.38 149.23,-31.65 157.8,-29.95"/>
<polygon fill="#63b8ff" stroke="#63b8ff" points="158.66,-33.35 167.78,-27.96 157.29,-26.48 158.66,-33.35"/>
</g>
<!-- Node2&#45;&gt;Node2 -->
<g id="edge2" class="edge">
<title>Node2&#45;&gt;Node2</title>
<path fill="none" stroke="#63b8ff" d="M204.47,-96.28C197.91,-105.41 207.75,-114 234,-114 249.59,-114 259.39,-110.97 263.41,-106.6"/>
<polygon fill="#63b8ff" stroke="#63b8ff" points="266.91,-106.32 263.53,-96.28 259.91,-106.23 266.91,-106.32"/>
</g>
<!-- Node3&#45;&gt;Node3 -->
<g id="edge4" class="edge">
<title>Node3&#45;&gt;Node3</title>
<path fill="none" stroke="#63b8ff" d="M204.47,-30.28C197.91,-39.41 207.75,-48 234,-48 249.59,-48 259.39,-44.97 263.41,-40.6"/>
<polygon fill="#63b8ff" stroke="#63b8ff" points="266.91,-40.32 263.53,-30.28 259.91,-40.23 266.91,-40.32"/>
</g>
</g>
</svg>
