<?xml version="1.0" encoding="UTF-8" standalone="no"?>
<!DOCTYPE svg PUBLIC "-//W3C//DTD SVG 1.1//EN"
 "http://www.w3.org/Graphics/SVG/1.1/DTD/svg11.dtd">
<!-- Generated by graphviz version 2.49.3 (0)
 -->
<!-- Title: Struktury.UsuwanieBOM.UsuńBOM Pages: 1 -->
<svg width="545pt" height="38pt"
 viewBox="0.00 0.00 545.00 38.00" xmlns="http://www.w3.org/2000/svg" xmlns:xlink="http://www.w3.org/1999/xlink">
<g id="graph0" class="graph" transform="scale(1 1) rotate(0) translate(4 34)">
<title>Struktury.UsuwanieBOM.UsuńBOM</title>
<!-- Node1 -->
<g id="node1" class="node">
<title>Node1</title>
<g id="a_node1"><a xlink:title=" ">
<polygon fill="#999999" stroke="#666666" points="173,-24.5 0,-24.5 0,-5.5 173,-5.5 173,-24.5"/>
<text text-anchor="middle" x="86.5" y="-12.5" font-family="Helvetica,sans-Serif" font-size="10.00">Struktury.UsuwanieBOM.UsuńBOM</text>
</a>
</g>
</g>
<!-- Node2 -->
<g id="node2" class="node">
<title>Node2</title>
<g id="a_node2"><a xlink:href="classStruktury_1_1UsuwanieBOM.html#aef47abe35e6f2a6cd7da2b65ee08e993" target="_top" xlink:title=" ">
<polygon fill="white" stroke="#666666" points="355,-30 209,-30 209,0 355,0 355,-30"/>
<text text-anchor="start" x="217" y="-18" font-family="Helvetica,sans-Serif" font-size="10.00">Struktury.UsuwanieBOM.Czy</text>
<text text-anchor="middle" x="282" y="-7" font-family="Helvetica,sans-Serif" font-size="10.00">JestJakikolwiekBOM</text>
</a>
</g>
</g>
<!-- Node1&#45;&gt;Node2 -->
<g id="edge1" class="edge">
<title>Node1&#45;&gt;Node2</title>
<path fill="none" stroke="#63b8ff" d="M173.22,-15C181.7,-15 190.29,-15 198.74,-15"/>
<polygon fill="#63b8ff" stroke="#63b8ff" points="198.94,-18.5 208.94,-15 198.94,-11.5 198.94,-18.5"/>
</g>
<!-- Node3 -->
<g id="node3" class="node">
<title>Node3</title>
<g id="a_node3"><a xlink:href="classStruktury_1_1UsuwanieBOM.html#aef702bd0b80f518125bf384dfad72ad5" target="_top" xlink:title=" ">
<polygon fill="white" stroke="#666666" points="537,-30 391,-30 391,0 537,0 537,-30"/>
<text text-anchor="start" x="399" y="-18" font-family="Helvetica,sans-Serif" font-size="10.00">Struktury.UsuwanieBOM.Czy</text>
<text text-anchor="middle" x="464" y="-7" font-family="Helvetica,sans-Serif" font-size="10.00">JestBOM</text>
</a>
</g>
</g>
<!-- Node2&#45;&gt;Node3 -->
<g id="edge2" class="edge">
<title>Node2&#45;&gt;Node3</title>
<path fill="none" stroke="#63b8ff" d="M355.18,-15C363.52,-15 372.08,-15 380.54,-15"/>
<polygon fill="#63b8ff" stroke="#63b8ff" points="380.81,-18.5 390.81,-15 380.81,-11.5 380.81,-18.5"/>
</g>
</g>
</svg>
