<?xml version="1.0" encoding="UTF-8" standalone="no"?>
<!DOCTYPE svg PUBLIC "-//W3C//DTD SVG 1.1//EN"
 "http://www.w3.org/Graphics/SVG/1.1/DTD/svg11.dtd">
<!-- Generated by graphviz version 2.49.3 (0)
 -->
<!-- Title: porownania.WalidacjaPlikówCSV.getTablicęPlikówPoprawnych Pages: 1 -->
<svg width="577pt" height="38pt"
 viewBox="0.00 0.00 577.00 38.00" xmlns="http://www.w3.org/2000/svg" xmlns:xlink="http://www.w3.org/1999/xlink">
<g id="graph0" class="graph" transform="scale(1 1) rotate(0) translate(4 34)">
<title>porownania.WalidacjaPlikówCSV.getTablicęPlikówPoprawnych</title>
<!-- Node1 -->
<g id="node1" class="node">
<title>Node1</title>
<g id="a_node1"><a xlink:title=" ">
<polygon fill="#999999" stroke="#666666" points="569,-30 404,-30 404,0 569,0 569,-30"/>
<text text-anchor="start" x="412" y="-18" font-family="Helvetica,sans-Serif" font-size="10.00">porownania.WalidacjaPlików</text>
<text text-anchor="middle" x="486.5" y="-7" font-family="Helvetica,sans-Serif" font-size="10.00">CSV.getTablicęPlikówPoprawnych</text>
</a>
</g>
</g>
<!-- Node2 -->
<g id="node2" class="node">
<title>Node2</title>
<g id="a_node2"><a xlink:href="classporownania_1_1AnalizaPor_xC3_xB3wnawcza.html#aa4e6553fae95f6909614cbc003dd6ff5" target="_top" xlink:title=" ">
<polygon fill="white" stroke="#666666" points="368,-30 202,-30 202,0 368,0 368,-30"/>
<text text-anchor="start" x="210" y="-18" font-family="Helvetica,sans-Serif" font-size="10.00">porownania.AnalizaPorównawcza.</text>
<text text-anchor="middle" x="285" y="-7" font-family="Helvetica,sans-Serif" font-size="10.00">Walidacja</text>
</a>
</g>
</g>
<!-- Node1&#45;&gt;Node2 -->
<g id="edge1" class="edge">
<title>Node1&#45;&gt;Node2</title>
<path fill="none" stroke="#63b8ff" d="M393.54,-15C385.1,-15 376.58,-15 368.24,-15"/>
<polygon fill="#63b8ff" stroke="#63b8ff" points="393.78,-18.5 403.78,-15 393.78,-11.5 393.78,-18.5"/>
</g>
<!-- Node3 -->
<g id="node3" class="node">
<title>Node3</title>
<g id="a_node3"><a xlink:href="classporownania_1_1AnalizaPor_xC3_xB3wnawcza.html#a6a33bc5ddae3083796fac107cab275d3" target="_top" xlink:title=" ">
<polygon fill="white" stroke="#666666" points="166,-30 0,-30 0,0 166,0 166,-30"/>
<text text-anchor="start" x="8" y="-18" font-family="Helvetica,sans-Serif" font-size="10.00">porownania.AnalizaPorównawcza.</text>
<text text-anchor="middle" x="83" y="-7" font-family="Helvetica,sans-Serif" font-size="10.00">AnalizaPorównawcza</text>
</a>
</g>
</g>
<!-- Node2&#45;&gt;Node3 -->
<g id="edge2" class="edge">
<title>Node2&#45;&gt;Node3</title>
<path fill="none" stroke="#63b8ff" d="M191.53,-15C183.09,-15 174.57,-15 166.22,-15"/>
<polygon fill="#63b8ff" stroke="#63b8ff" points="191.79,-18.5 201.79,-15 191.79,-11.5 191.79,-18.5"/>
</g>
</g>
</svg>
