<?xml version="1.0" encoding="UTF-8" standalone="no"?>
<!DOCTYPE svg PUBLIC "-//W3C//DTD SVG 1.1//EN"
 "http://www.w3.org/Graphics/SVG/1.1/DTD/svg11.dtd">
<!-- Generated by graphviz version 2.49.3 (0)
 -->
<!-- Title: Motywy.PorównanieZZadanym.ZrealizujPorównanie Pages: 1 -->
<svg width="750pt" height="215pt"
 viewBox="0.00 0.00 750.00 215.00" xmlns="http://www.w3.org/2000/svg" xmlns:xlink="http://www.w3.org/1999/xlink">
<g id="graph0" class="graph" transform="scale(1 1) rotate(0) translate(4 211)">
<title>Motywy.PorównanieZZadanym.ZrealizujPorównanie</title>
<!-- Node1 -->
<g id="node1" class="node">
<title>Node1</title>
<g id="a_node1"><a xlink:title=" ">
<polygon fill="#999999" stroke="#666666" points="154,-121 0,-121 0,-91 154,-91 154,-121"/>
<text text-anchor="start" x="8" y="-109" font-family="Helvetica,sans-Serif" font-size="10.00">Motywy.PorównanieZZadanym.</text>
<text text-anchor="middle" x="77" y="-98" font-family="Helvetica,sans-Serif" font-size="10.00">ZrealizujPorównanie</text>
</a>
</g>
</g>
<!-- Node2 -->
<g id="node2" class="node">
<title>Node2</title>
<g id="a_node2"><a xlink:href="classMotywy_1_1Motyw.html#a78e0685f4ff1fb079d1f6230ecff2663" target="_top" xlink:title=" ">
<polygon fill="white" stroke="#666666" points="532,-207 398,-207 398,-177 532,-177 532,-207"/>
<text text-anchor="start" x="406" y="-195" font-family="Helvetica,sans-Serif" font-size="10.00">Motywy.Motyw.getDługość</text>
<text text-anchor="middle" x="465" y="-184" font-family="Helvetica,sans-Serif" font-size="10.00">Motywu</text>
</a>
</g>
</g>
<!-- Node1&#45;&gt;Node2 -->
<g id="edge1" class="edge">
<title>Node1&#45;&gt;Node2</title>
<path fill="none" stroke="#63b8ff" d="M96.87,-121.13C118.11,-137.21 154.33,-161.8 190,-173 254.56,-193.27 331.75,-196.9 387.72,-196.12"/>
<polygon fill="#63b8ff" stroke="#63b8ff" points="387.99,-199.61 397.92,-195.92 387.85,-192.62 387.99,-199.61"/>
</g>
<!-- Node3 -->
<g id="node3" class="node">
<title>Node3</title>
<g id="a_node3"><a xlink:href="classStruktury_1_1ArkuszZdarzenie.html#a51ecd5710e9e6d740314661d80e9499f" target="_top" xlink:title=" ">
<polygon fill="white" stroke="#666666" points="342.5,-78 191.5,-78 191.5,-48 342.5,-48 342.5,-78"/>
<text text-anchor="start" x="199.5" y="-66" font-family="Helvetica,sans-Serif" font-size="10.00">Struktury.ArkuszZdarzenie.get</text>
<text text-anchor="middle" x="267" y="-55" font-family="Helvetica,sans-Serif" font-size="10.00">NazwęKolumny</text>
</a>
</g>
</g>
<!-- Node1&#45;&gt;Node3 -->
<g id="edge2" class="edge">
<title>Node1&#45;&gt;Node3</title>
<path fill="none" stroke="#63b8ff" d="M143.75,-90.96C158.78,-87.52 174.87,-83.84 190.28,-80.32"/>
<polygon fill="#63b8ff" stroke="#63b8ff" points="191.32,-83.67 200.28,-78.03 189.76,-76.85 191.32,-83.67"/>
</g>
<!-- Node4 -->
<g id="node4" class="node">
<title>Node4</title>
<g id="a_node4"><a xlink:href="classStruktury_1_1ArkuszZdarzenie.html#aab8a50eda797bd00b06ec5b4c9217724" target="_top" xlink:title=" ">
<polygon fill="white" stroke="#666666" points="342.5,-30 191.5,-30 191.5,0 342.5,0 342.5,-30"/>
<text text-anchor="start" x="199.5" y="-18" font-family="Helvetica,sans-Serif" font-size="10.00">Struktury.ArkuszZdarzenie.get</text>
<text text-anchor="middle" x="267" y="-7" font-family="Helvetica,sans-Serif" font-size="10.00">Wiersz</text>
</a>
</g>
</g>
<!-- Node1&#45;&gt;Node4 -->
<g id="edge3" class="edge">
<title>Node1&#45;&gt;Node4</title>
<path fill="none" stroke="#63b8ff" d="M99.9,-90.79C121.89,-76.04 157.14,-53.77 190,-39 194.16,-37.13 198.51,-35.34 202.92,-33.65"/>
<polygon fill="#63b8ff" stroke="#63b8ff" points="204.47,-36.81 212.67,-30.1 202.07,-30.24 204.47,-36.81"/>
</g>
<!-- Node5 -->
<g id="node5" class="node">
<title>Node5</title>
<g id="a_node5"><a xlink:href="classMotywy_1_1Por_xC3_xB3wnanieZZadanym.html#af664f821dfb522abb48d94f4db3a3007" target="_top" xlink:title=" ">
<polygon fill="white" stroke="#666666" points="542,-121 388,-121 388,-91 542,-91 542,-121"/>
<text text-anchor="start" x="396" y="-109" font-family="Helvetica,sans-Serif" font-size="10.00">Motywy.PorównanieZZadanym.</text>
<text text-anchor="middle" x="465" y="-98" font-family="Helvetica,sans-Serif" font-size="10.00">NadajWagi</text>
</a>
</g>
</g>
<!-- Node1&#45;&gt;Node5 -->
<g id="edge4" class="edge">
<title>Node1&#45;&gt;Node5</title>
<path fill="none" stroke="#63b8ff" d="M154.26,-106C218.63,-106 310.74,-106 377.78,-106"/>
<polygon fill="#63b8ff" stroke="#63b8ff" points="377.9,-109.5 387.9,-106 377.9,-102.5 377.9,-109.5"/>
</g>
<!-- Node9 -->
<g id="node9" class="node">
<title>Node9</title>
<g id="a_node9"><a xlink:href="classMotywy_1_1Por_xC3_xB3wnanieZZadanym.html#afc411b58aadd60fadcab90ad9f76e3d5" target="_top" xlink:title=" ">
<polygon fill="white" stroke="#666666" points="344,-164 190,-164 190,-134 344,-134 344,-164"/>
<text text-anchor="start" x="198" y="-152" font-family="Helvetica,sans-Serif" font-size="10.00">Motywy.PorównanieZZadanym.</text>
<text text-anchor="middle" x="267" y="-141" font-family="Helvetica,sans-Serif" font-size="10.00">ObliczRóżnicę</text>
</a>
</g>
</g>
<!-- Node1&#45;&gt;Node9 -->
<g id="edge8" class="edge">
<title>Node1&#45;&gt;Node9</title>
<path fill="none" stroke="#63b8ff" d="M143.75,-121.04C158.78,-124.48 174.87,-128.16 190.28,-131.68"/>
<polygon fill="#63b8ff" stroke="#63b8ff" points="189.76,-135.15 200.28,-133.97 191.32,-128.33 189.76,-135.15"/>
</g>
<!-- Node6 -->
<g id="node6" class="node">
<title>Node6</title>
<g id="a_node6"><a xlink:href="classMotywy_1_1Motyw.html#a390f9d1acc3c0862c70b71bc7f13f931" target="_top" xlink:title=" ">
<polygon fill="white" stroke="#666666" points="736.5,-121 591.5,-121 591.5,-91 736.5,-91 736.5,-121"/>
<text text-anchor="start" x="599.5" y="-109" font-family="Helvetica,sans-Serif" font-size="10.00">Motywy.Motyw.getReferencję</text>
<text text-anchor="middle" x="664" y="-98" font-family="Helvetica,sans-Serif" font-size="10.00">DoMotywu</text>
</a>
</g>
</g>
<!-- Node5&#45;&gt;Node6 -->
<g id="edge5" class="edge">
<title>Node5&#45;&gt;Node6</title>
<path fill="none" stroke="#63b8ff" d="M542.17,-106C554.9,-106 568.15,-106 581.02,-106"/>
<polygon fill="#63b8ff" stroke="#63b8ff" points="581.24,-109.5 591.24,-106 581.24,-102.5 581.24,-109.5"/>
</g>
<!-- Node7 -->
<g id="node7" class="node">
<title>Node7</title>
<g id="a_node7"><a xlink:href="classStruktury_1_1ArkuszZdarzenie.html#a3e1eb6a41e16bd31dfb9c7525f58b11b" target="_top" xlink:title=" ">
<polygon fill="white" stroke="#666666" points="739.5,-169 588.5,-169 588.5,-139 739.5,-139 739.5,-169"/>
<text text-anchor="start" x="596.5" y="-157" font-family="Helvetica,sans-Serif" font-size="10.00">Struktury.ArkuszZdarzenie.get</text>
<text text-anchor="middle" x="664" y="-146" font-family="Helvetica,sans-Serif" font-size="10.00">Zdarzenie</text>
</a>
</g>
</g>
<!-- Node5&#45;&gt;Node7 -->
<g id="edge6" class="edge">
<title>Node5&#45;&gt;Node7</title>
<path fill="none" stroke="#63b8ff" d="M527.79,-121.06C548.05,-125.99 570.73,-131.52 591.64,-136.61"/>
<polygon fill="#63b8ff" stroke="#63b8ff" points="590.88,-140.03 601.43,-139 592.54,-133.23 590.88,-140.03"/>
</g>
<!-- Node8 -->
<g id="node8" class="node">
<title>Node8</title>
<g id="a_node8"><a xlink:href="classStruktury_1_1Zdarzenie.html#abfe72b5a3dc76cd1907abdbd9ea38c0f" target="_top" xlink:title=" ">
<polygon fill="white" stroke="#666666" points="742,-72.5 586,-72.5 586,-53.5 742,-53.5 742,-72.5"/>
<text text-anchor="middle" x="664" y="-60.5" font-family="Helvetica,sans-Serif" font-size="10.00">Struktury.Zdarzenie.UstawWagi</text>
</a>
</g>
</g>
<!-- Node5&#45;&gt;Node8 -->
<g id="edge7" class="edge">
<title>Node5&#45;&gt;Node8</title>
<path fill="none" stroke="#63b8ff" d="M534.9,-90.96C559.35,-85.62 586.49,-79.7 609.47,-74.68"/>
<polygon fill="#63b8ff" stroke="#63b8ff" points="610.35,-78.07 619.37,-72.52 608.86,-71.24 610.35,-78.07"/>
</g>
<!-- Node9&#45;&gt;Node2 -->
<g id="edge9" class="edge">
<title>Node9&#45;&gt;Node2</title>
<path fill="none" stroke="#63b8ff" d="M336.55,-164.04C353.16,-167.68 371.02,-171.6 387.95,-175.32"/>
<polygon fill="#63b8ff" stroke="#63b8ff" points="387.28,-178.75 397.8,-177.48 388.78,-171.91 387.28,-178.75"/>
</g>
<!-- Node10 -->
<g id="node10" class="node">
<title>Node10</title>
<g id="a_node10"><a xlink:href="classMotywy_1_1Motyw.html#a37081cad0e58f94556a361efadfae855" target="_top" xlink:title=" ">
<polygon fill="white" stroke="#666666" points="550,-158.5 380,-158.5 380,-139.5 550,-139.5 550,-158.5"/>
<text text-anchor="middle" x="465" y="-146.5" font-family="Helvetica,sans-Serif" font-size="10.00">Motywy.Motyw.OceńPodobieństwo</text>
</a>
</g>
</g>
<!-- Node9&#45;&gt;Node10 -->
<g id="edge10" class="edge">
<title>Node9&#45;&gt;Node10</title>
<path fill="none" stroke="#63b8ff" d="M344.06,-149C352.49,-149 361.15,-149 369.77,-149"/>
<polygon fill="#63b8ff" stroke="#63b8ff" points="369.85,-152.5 379.85,-149 369.85,-145.5 369.85,-152.5"/>
</g>
<!-- Node10&#45;&gt;Node6 -->
<g id="edge11" class="edge">
<title>Node10&#45;&gt;Node6</title>
<path fill="none" stroke="#63b8ff" d="M509.72,-139.46C531.64,-134.67 558.86,-128.73 584.25,-123.19"/>
<polygon fill="#63b8ff" stroke="#63b8ff" points="585.23,-126.56 594.25,-121.01 583.73,-119.72 585.23,-126.56"/>
</g>
<!-- Node10&#45;&gt;Node7 -->
<g id="edge12" class="edge">
<title>Node10&#45;&gt;Node7</title>
<path fill="none" stroke="#63b8ff" d="M550.12,-151.13C559.49,-151.37 569.03,-151.62 578.41,-151.85"/>
<polygon fill="#63b8ff" stroke="#63b8ff" points="578.41,-155.35 588.5,-152.11 578.59,-148.36 578.41,-155.35"/>
</g>
</g>
</svg>
