<?xml version="1.0" encoding="UTF-8" standalone="no"?>
<!DOCTYPE svg PUBLIC "-//W3C//DTD SVG 1.1//EN"
 "http://www.w3.org/Graphics/SVG/1.1/DTD/svg11.dtd">
<!-- Generated by graphviz version 2.49.3 (0)
 -->
<!-- Title: Motywy.Motyw.getReferencjęDoMotywu Pages: 1 -->
<svg width="971pt" height="354pt"
 viewBox="0.00 0.00 971.00 353.50" xmlns="http://www.w3.org/2000/svg" xmlns:xlink="http://www.w3.org/1999/xlink">
<g id="graph0" class="graph" transform="scale(1 1) rotate(0) translate(4 349.5)">
<title>Motywy.Motyw.getReferencjęDoMotywu</title>
<!-- Node1 -->
<g id="node1" class="node">
<title>Node1</title>
<g id="a_node1"><a xlink:title=" ">
<polygon fill="#999999" stroke="#666666" points="963,-212 818,-212 818,-182 963,-182 963,-212"/>
<text text-anchor="start" x="826" y="-200" font-family="Helvetica,sans-Serif" font-size="10.00">Motywy.Motyw.getReferencję</text>
<text text-anchor="middle" x="890.5" y="-189" font-family="Helvetica,sans-Serif" font-size="10.00">DoMotywu</text>
</a>
</g>
</g>
<!-- Node2 -->
<g id="node2" class="node">
<title>Node2</title>
<g id="a_node2"><a xlink:href="classMotywy_1_1ParaMotyw_xC3_xB3w.html#a6aaa007eb7c2926409379ed9ce8c48cf" target="_top" xlink:title=" ">
<polygon fill="white" stroke="#666666" points="780,-345.5 614,-345.5 614,-326.5 780,-326.5 780,-345.5"/>
<text text-anchor="middle" x="697" y="-333.5" font-family="Helvetica,sans-Serif" font-size="10.00">Motywy.ParaMotywów.compareTo</text>
</a>
</g>
</g>
<!-- Node1&#45;&gt;Node2 -->
<g id="edge1" class="edge">
<title>Node1&#45;&gt;Node2</title>
<path fill="none" stroke="#63b8ff" d="M874.78,-220.9C856.51,-248.47 822.73,-293.06 782,-317 775.43,-320.86 768.14,-323.94 760.68,-326.39"/>
<polygon fill="#63b8ff" stroke="#63b8ff" points="877.88,-222.56 880.37,-212.26 872,-218.76 877.88,-222.56"/>
</g>
<!-- Node3 -->
<g id="node3" class="node">
<title>Node3</title>
<g id="a_node3"><a xlink:href="classMotywy_1_1Fragmenty.html#afd7562817c9b351e1f74c5a4d0531900" target="_top" xlink:title=" ">
<polygon fill="white" stroke="#666666" points="765,-308 629,-308 629,-278 765,-278 765,-308"/>
<text text-anchor="start" x="637" y="-296" font-family="Helvetica,sans-Serif" font-size="10.00">Motywy.Fragmenty.Generuj</text>
<text text-anchor="middle" x="697" y="-285" font-family="Helvetica,sans-Serif" font-size="10.00">TablicęOpisu</text>
</a>
</g>
</g>
<!-- Node1&#45;&gt;Node3 -->
<g id="edge2" class="edge">
<title>Node1&#45;&gt;Node3</title>
<path fill="none" stroke="#63b8ff" d="M862.69,-218.42C841.75,-234.27 811.37,-255.38 782,-269 774.85,-272.32 767.13,-275.28 759.38,-277.89"/>
<polygon fill="#63b8ff" stroke="#63b8ff" points="864.98,-221.08 870.78,-212.21 860.71,-215.53 864.98,-221.08"/>
</g>
<!-- Node4 -->
<g id="node4" class="node">
<title>Node4</title>
<g id="a_node4"><a xlink:href="classMotywy_1_1Fragmenty.html#acfa236e2c16528208cbbb131c87212c1" target="_top" xlink:title=" ">
<polygon fill="white" stroke="#666666" points="767,-260 627,-260 627,-230 767,-230 767,-260"/>
<text text-anchor="start" x="635" y="-248" font-family="Helvetica,sans-Serif" font-size="10.00">Motywy.Fragmenty.getMiary</text>
<text text-anchor="middle" x="697" y="-237" font-family="Helvetica,sans-Serif" font-size="10.00">Motywów</text>
</a>
</g>
</g>
<!-- Node1&#45;&gt;Node4 -->
<g id="edge3" class="edge">
<title>Node1&#45;&gt;Node4</title>
<path fill="none" stroke="#63b8ff" d="M819.64,-214.51C799.38,-219.59 777.44,-225.09 757.85,-230"/>
<polygon fill="#63b8ff" stroke="#63b8ff" points="820.58,-217.88 829.43,-212.06 818.88,-211.09 820.58,-217.88"/>
</g>
<!-- Node5 -->
<g id="node5" class="node">
<title>Node5</title>
<g id="a_node5"><a xlink:href="classMotywy_1_1Fragmenty.html#a654558f130a86c40dff29b3955c7e5ce" target="_top" xlink:title=" ">
<polygon fill="white" stroke="#666666" points="765,-212 629,-212 629,-182 765,-182 765,-212"/>
<text text-anchor="start" x="637" y="-200" font-family="Helvetica,sans-Serif" font-size="10.00">Motywy.Fragmenty.getOpis</text>
<text text-anchor="middle" x="697" y="-189" font-family="Helvetica,sans-Serif" font-size="10.00">KomórkiArkusza</text>
</a>
</g>
</g>
<!-- Node1&#45;&gt;Node5 -->
<g id="edge4" class="edge">
<title>Node1&#45;&gt;Node5</title>
<path fill="none" stroke="#63b8ff" d="M807.66,-197C793.45,-197 778.82,-197 765.06,-197"/>
<polygon fill="#63b8ff" stroke="#63b8ff" points="807.92,-200.5 817.92,-197 807.92,-193.5 807.92,-200.5"/>
</g>
<!-- Node10 -->
<g id="node10" class="node">
<title>Node10</title>
<g id="a_node10"><a xlink:href="classMotywy_1_1Fragmenty.html#a625e43ec2c0a7c705a0235fb23e9abc3" target="_top" xlink:title=" ">
<polygon fill="white" stroke="#666666" points="576,-163.5 405,-163.5 405,-144.5 576,-144.5 576,-163.5"/>
<text text-anchor="middle" x="490.5" y="-151.5" font-family="Helvetica,sans-Serif" font-size="10.00">Motywy.Fragmenty.MotywInterwały</text>
</a>
</g>
</g>
<!-- Node1&#45;&gt;Node10 -->
<g id="edge10" class="edge">
<title>Node1&#45;&gt;Node10</title>
<path fill="none" stroke="#63b8ff" d="M819.88,-179.82C807.33,-177.19 794.32,-174.77 782,-173 713.08,-163.11 634.22,-158.37 576.07,-156.09"/>
<polygon fill="#63b8ff" stroke="#63b8ff" points="819.3,-183.27 829.82,-181.96 820.78,-176.43 819.3,-183.27"/>
</g>
<!-- Node11 -->
<g id="node11" class="node">
<title>Node11</title>
<g id="a_node11"><a xlink:href="classMotywy_1_1Por_xC3_xB3wnanieZZadanym.html#af664f821dfb522abb48d94f4db3a3007" target="_top" xlink:title=" ">
<polygon fill="white" stroke="#666666" points="567.5,-126 413.5,-126 413.5,-96 567.5,-96 567.5,-126"/>
<text text-anchor="start" x="421.5" y="-114" font-family="Helvetica,sans-Serif" font-size="10.00">Motywy.PorównanieZZadanym.</text>
<text text-anchor="middle" x="490.5" y="-103" font-family="Helvetica,sans-Serif" font-size="10.00">NadajWagi</text>
</a>
</g>
</g>
<!-- Node1&#45;&gt;Node11 -->
<g id="edge12" class="edge">
<title>Node1&#45;&gt;Node11</title>
<path fill="none" stroke="#63b8ff" d="M848.91,-177.63C829.12,-168.91 804.74,-159.2 782,-153 710.71,-133.57 626.98,-122.68 567.78,-116.88"/>
<polygon fill="#63b8ff" stroke="#63b8ff" points="847.67,-180.91 858.22,-181.81 850.54,-174.52 847.67,-180.91"/>
</g>
<!-- Node14 -->
<g id="node14" class="node">
<title>Node14</title>
<g id="a_node14"><a xlink:href="classMotywy_1_1Motyw.html#a37081cad0e58f94556a361efadfae855" target="_top" xlink:title=" ">
<polygon fill="white" stroke="#666666" points="782,-72.5 612,-72.5 612,-53.5 782,-53.5 782,-72.5"/>
<text text-anchor="middle" x="697" y="-60.5" font-family="Helvetica,sans-Serif" font-size="10.00">Motywy.Motyw.OceńPodobieństwo</text>
</a>
</g>
</g>
<!-- Node1&#45;&gt;Node14 -->
<g id="edge15" class="edge">
<title>Node1&#45;&gt;Node14</title>
<path fill="none" stroke="#63b8ff" d="M868.91,-174.26C848.48,-152.72 815.47,-120.55 782,-99 764.79,-87.92 743.6,-78.87 726.8,-72.61"/>
<polygon fill="#63b8ff" stroke="#63b8ff" points="866.46,-176.76 875.84,-181.68 871.57,-171.98 866.46,-176.76"/>
</g>
<!-- Node6 -->
<g id="node6" class="node">
<title>Node6</title>
<g id="a_node6"><a xlink:href="classMotywy_1_1Fragmenty.html#a0980cac3e787436873aefd34d196428f" target="_top" xlink:title=" ">
<polygon fill="white" stroke="#666666" points="572.5,-260 408.5,-260 408.5,-230 572.5,-230 572.5,-260"/>
<text text-anchor="start" x="416.5" y="-248" font-family="Helvetica,sans-Serif" font-size="10.00">Motywy.Fragmenty.TwórzIndeksy</text>
<text text-anchor="middle" x="490.5" y="-237" font-family="Helvetica,sans-Serif" font-size="10.00">Liczbowe</text>
</a>
</g>
</g>
<!-- Node5&#45;&gt;Node6 -->
<g id="edge5" class="edge">
<title>Node5&#45;&gt;Node6</title>
<path fill="none" stroke="#63b8ff" d="M621.99,-214.37C600.19,-219.49 576.53,-225.04 555.42,-230"/>
<polygon fill="#63b8ff" stroke="#63b8ff" points="622.92,-217.75 631.86,-212.06 621.32,-210.93 622.92,-217.75"/>
</g>
<!-- Node9 -->
<g id="node9" class="node">
<title>Node9</title>
<g id="a_node9"><a xlink:href="classMotywy_1_1Fragmenty.html#a1d32b57c48e3938e88c61779d38cb519" target="_top" xlink:title=" ">
<polygon fill="white" stroke="#666666" points="560,-212 421,-212 421,-182 560,-182 560,-212"/>
<text text-anchor="start" x="429" y="-200" font-family="Helvetica,sans-Serif" font-size="10.00">Motywy.Fragmenty.Wypełnij</text>
<text text-anchor="middle" x="490.5" y="-189" font-family="Helvetica,sans-Serif" font-size="10.00">TablicęSkróconą</text>
</a>
</g>
</g>
<!-- Node5&#45;&gt;Node9 -->
<g id="edge8" class="edge">
<title>Node5&#45;&gt;Node9</title>
<path fill="none" stroke="#63b8ff" d="M618.55,-197C599.36,-197 578.92,-197 560.19,-197"/>
<polygon fill="#63b8ff" stroke="#63b8ff" points="618.76,-200.5 628.76,-197 618.76,-193.5 618.76,-200.5"/>
</g>
<!-- Node7 -->
<g id="node7" class="node">
<title>Node7</title>
<g id="a_node7"><a xlink:href="classMotywy_1_1Fragmenty.html#af142a18268a561dcafe100a07e2b1928" target="_top" xlink:title=" ">
<polygon fill="white" stroke="#666666" points="359,-212 225,-212 225,-182 359,-182 359,-212"/>
<text text-anchor="start" x="233" y="-200" font-family="Helvetica,sans-Serif" font-size="10.00">Motywy.Fragmenty.Utwórz</text>
<text text-anchor="middle" x="292" y="-189" font-family="Helvetica,sans-Serif" font-size="10.00">MacierzMotywów</text>
</a>
</g>
</g>
<!-- Node6&#45;&gt;Node7 -->
<g id="edge6" class="edge">
<title>Node6&#45;&gt;Node7</title>
<path fill="none" stroke="#63b8ff" d="M418.1,-227.56C397.23,-222.46 374.61,-216.93 354.42,-212"/>
<polygon fill="#63b8ff" stroke="#63b8ff" points="417.32,-230.97 427.87,-229.94 418.98,-224.17 417.32,-230.97"/>
</g>
<!-- Node8 -->
<g id="node8" class="node">
<title>Node8</title>
<g id="a_node8"><a xlink:href="classporownania_1_1Rezultat.html#abfab722f91bb304108e01333fdbf5cf3" target="_top" xlink:title=" ">
<polygon fill="white" stroke="#666666" points="160.5,-206.5 18.5,-206.5 18.5,-187.5 160.5,-187.5 160.5,-206.5"/>
<text text-anchor="middle" x="89.5" y="-194.5" font-family="Helvetica,sans-Serif" font-size="10.00">porownania.Rezultat.toString</text>
</a>
</g>
</g>
<!-- Node7&#45;&gt;Node8 -->
<g id="edge7" class="edge">
<title>Node7&#45;&gt;Node8</title>
<path fill="none" stroke="#63b8ff" d="M214.53,-197C196.87,-197 178.16,-197 160.77,-197"/>
<polygon fill="#63b8ff" stroke="#63b8ff" points="214.79,-200.5 224.79,-197 214.79,-193.5 214.79,-200.5"/>
</g>
<!-- Node9&#45;&gt;Node7 -->
<g id="edge9" class="edge">
<title>Node9&#45;&gt;Node7</title>
<path fill="none" stroke="#63b8ff" d="M410.3,-197C393.29,-197 375.49,-197 359.04,-197"/>
<polygon fill="#63b8ff" stroke="#63b8ff" points="410.77,-200.5 420.77,-197 410.77,-193.5 410.77,-200.5"/>
</g>
<!-- Node10&#45;&gt;Node7 -->
<g id="edge11" class="edge">
<title>Node10&#45;&gt;Node7</title>
<path fill="none" stroke="#63b8ff" d="M436.04,-165.7C412.36,-170.88 384.27,-177.03 359.28,-182.5"/>
<polygon fill="#63b8ff" stroke="#63b8ff" points="436.87,-169.1 445.89,-163.54 435.37,-162.26 436.87,-169.1"/>
</g>
<!-- Node12 -->
<g id="node12" class="node">
<title>Node12</title>
<g id="a_node12"><a xlink:href="classMotywy_1_1Por_xC3_xB3wnanieZZadanym.html#a11ff4401b316e36ea9263506ab0eeefa" target="_top" xlink:title=" ">
<polygon fill="white" stroke="#666666" points="369,-102 215,-102 215,-72 369,-72 369,-102"/>
<text text-anchor="start" x="223" y="-90" font-family="Helvetica,sans-Serif" font-size="10.00">Motywy.PorównanieZZadanym.</text>
<text text-anchor="middle" x="292" y="-79" font-family="Helvetica,sans-Serif" font-size="10.00">ZrealizujPorównanie</text>
</a>
</g>
</g>
<!-- Node11&#45;&gt;Node12 -->
<g id="edge13" class="edge">
<title>Node11&#45;&gt;Node12</title>
<path fill="none" stroke="#63b8ff" d="M402.99,-100.43C391.74,-99.06 380.28,-97.66 369.21,-96.31"/>
<polygon fill="#63b8ff" stroke="#63b8ff" points="402.9,-103.95 413.25,-101.69 403.74,-97 402.9,-103.95"/>
</g>
<!-- Node13 -->
<g id="node13" class="node">
<title>Node13</title>
<g id="a_node13"><a xlink:href="classporownania_1_1AnalizaPor_xC3_xB3wnawcza.html#a4fb7b99f4ed968c3c62c6fa132b19938" target="_top" xlink:title=" ">
<polygon fill="white" stroke="#666666" points="179,-96.5 0,-96.5 0,-77.5 179,-77.5 179,-96.5"/>
<text text-anchor="middle" x="89.5" y="-84.5" font-family="Helvetica,sans-Serif" font-size="10.00">porownania.AnalizaPorównawcza.run</text>
</a>
</g>
</g>
<!-- Node12&#45;&gt;Node13 -->
<g id="edge14" class="edge">
<title>Node12&#45;&gt;Node13</title>
<path fill="none" stroke="#63b8ff" d="M204.73,-87C196.31,-87 187.76,-87 179.31,-87"/>
<polygon fill="#63b8ff" stroke="#63b8ff" points="204.91,-90.5 214.91,-87 204.91,-83.5 204.91,-90.5"/>
</g>
<!-- Node15 -->
<g id="node15" class="node">
<title>Node15</title>
<g id="a_node15"><a xlink:href="classMotywy_1_1Por_xC3_xB3wnanieZZadanym.html#afc411b58aadd60fadcab90ad9f76e3d5" target="_top" xlink:title=" ">
<polygon fill="white" stroke="#666666" points="567.5,-78 413.5,-78 413.5,-48 567.5,-48 567.5,-78"/>
<text text-anchor="start" x="421.5" y="-66" font-family="Helvetica,sans-Serif" font-size="10.00">Motywy.PorównanieZZadanym.</text>
<text text-anchor="middle" x="490.5" y="-55" font-family="Helvetica,sans-Serif" font-size="10.00">ObliczRóżnicę</text>
</a>
</g>
</g>
<!-- Node14&#45;&gt;Node15 -->
<g id="edge16" class="edge">
<title>Node14&#45;&gt;Node15</title>
<path fill="none" stroke="#63b8ff" d="M601.91,-63C590.45,-63 578.85,-63 567.69,-63"/>
<polygon fill="#63b8ff" stroke="#63b8ff" points="601.94,-66.5 611.94,-63 601.94,-59.5 601.94,-66.5"/>
</g>
<!-- Node16 -->
<g id="node16" class="node">
<title>Node16</title>
<g id="a_node16"><a xlink:href="classMotywy_1_1ParaMotyw_xC3_xB3w.html#ab931de0cb5af4fd954d48d91c1de5c24" target="_top" xlink:title=" ">
<polygon fill="white" stroke="#666666" points="559.5,-30 421.5,-30 421.5,0 559.5,0 559.5,-30"/>
<text text-anchor="start" x="429.5" y="-18" font-family="Helvetica,sans-Serif" font-size="10.00">Motywy.ParaMotywów.Para</text>
<text text-anchor="middle" x="490.5" y="-7" font-family="Helvetica,sans-Serif" font-size="10.00">Motywów</text>
</a>
</g>
</g>
<!-- Node14&#45;&gt;Node16 -->
<g id="edge18" class="edge">
<title>Node14&#45;&gt;Node16</title>
<path fill="none" stroke="#63b8ff" d="M645.08,-51.05C618.02,-44.7 584.5,-36.83 555.67,-30.06"/>
<polygon fill="#63b8ff" stroke="#63b8ff" points="644.57,-54.52 655.11,-53.4 646.17,-47.71 644.57,-54.52"/>
</g>
<!-- Node15&#45;&gt;Node12 -->
<g id="edge17" class="edge">
<title>Node15&#45;&gt;Node12</title>
<path fill="none" stroke="#63b8ff" d="M402.99,-73.57C391.74,-74.94 380.28,-76.34 369.21,-77.69"/>
<polygon fill="#63b8ff" stroke="#63b8ff" points="403.74,-77 413.25,-72.31 402.9,-70.05 403.74,-77"/>
</g>
</g>
</svg>
