<?xml version="1.0" encoding="UTF-8" standalone="no"?>
<!DOCTYPE svg PUBLIC "-//W3C//DTD SVG 1.1//EN"
 "http://www.w3.org/Graphics/SVG/1.1/DTD/svg11.dtd">
<!-- Generated by graphviz version 2.49.3 (0)
 -->
<!-- Title: Struktury.Interpreter.PrzepiszArkusz Pages: 1 -->
<svg width="531pt" height="174pt"
 viewBox="0.00 0.00 531.00 174.00" xmlns="http://www.w3.org/2000/svg" xmlns:xlink="http://www.w3.org/1999/xlink">
<g id="graph0" class="graph" transform="scale(1 1) rotate(0) translate(4 170)">
<title>Struktury.Interpreter.PrzepiszArkusz</title>
<!-- Node1 -->
<g id="node1" class="node">
<title>Node1</title>
<g id="a_node1"><a xlink:title=" ">
<polygon fill="#999999" stroke="#666666" points="146,-96 0,-96 0,-66 146,-66 146,-96"/>
<text text-anchor="start" x="8" y="-84" font-family="Helvetica,sans-Serif" font-size="10.00">Struktury.Interpreter.Przepisz</text>
<text text-anchor="middle" x="73" y="-73" font-family="Helvetica,sans-Serif" font-size="10.00">Arkusz</text>
</a>
</g>
</g>
<!-- Node2 -->
<g id="node2" class="node">
<title>Node2</title>
<g id="a_node2"><a xlink:href="classStruktury_1_1Arkusz.html#a95b58aa18e3e7c03eac576d325233442" target="_top" xlink:title=" ">
<polygon fill="white" stroke="#666666" points="326.5,-166 190.5,-166 190.5,-136 326.5,-136 326.5,-166"/>
<text text-anchor="start" x="198.5" y="-154" font-family="Helvetica,sans-Serif" font-size="10.00">Struktury.Arkusz.getLiczbę</text>
<text text-anchor="middle" x="258.5" y="-143" font-family="Helvetica,sans-Serif" font-size="10.00">Wierszy</text>
</a>
</g>
</g>
<!-- Node1&#45;&gt;Node2 -->
<g id="edge1" class="edge">
<title>Node1&#45;&gt;Node2</title>
<path fill="none" stroke="#63b8ff" d="M107.24,-96.12C128.43,-105.53 156.59,-117.57 182,-127 187.16,-128.91 192.55,-130.81 197.97,-132.66"/>
<polygon fill="#63b8ff" stroke="#63b8ff" points="197.13,-136.07 207.72,-135.92 199.35,-129.43 197.13,-136.07"/>
</g>
<!-- Node3 -->
<g id="node3" class="node">
<title>Node3</title>
<g id="a_node3"><a xlink:href="classStruktury_1_1Arkusz.html#a79857648540bf4023e641b2aff039798" target="_top" xlink:title=" ">
<polygon fill="white" stroke="#666666" points="326.5,-118 190.5,-118 190.5,-88 326.5,-88 326.5,-118"/>
<text text-anchor="start" x="198.5" y="-106" font-family="Helvetica,sans-Serif" font-size="10.00">Struktury.Arkusz.getLiczbę</text>
<text text-anchor="middle" x="258.5" y="-95" font-family="Helvetica,sans-Serif" font-size="10.00">Kolumn</text>
</a>
</g>
</g>
<!-- Node1&#45;&gt;Node3 -->
<g id="edge2" class="edge">
<title>Node1&#45;&gt;Node3</title>
<path fill="none" stroke="#63b8ff" d="M146.26,-89.66C157.39,-91 168.93,-92.38 180.17,-93.73"/>
<polygon fill="#63b8ff" stroke="#63b8ff" points="180.04,-97.24 190.39,-94.95 180.88,-90.29 180.04,-97.24"/>
</g>
<!-- Node4 -->
<g id="node4" class="node">
<title>Node4</title>
<g id="a_node4"><a xlink:href="classStruktury_1_1Arkusz.html#a2609006d8beb64d6e213f77f2ebca081" target="_top" xlink:title=" ">
<polygon fill="white" stroke="#666666" points="335,-69.5 182,-69.5 182,-50.5 335,-50.5 335,-69.5"/>
<text text-anchor="middle" x="258.5" y="-57.5" font-family="Helvetica,sans-Serif" font-size="10.00">Struktury.Arkusz.getZawartość</text>
</a>
</g>
</g>
<!-- Node1&#45;&gt;Node4 -->
<g id="edge3" class="edge">
<title>Node1&#45;&gt;Node4</title>
<path fill="none" stroke="#63b8ff" d="M146.26,-72.73C154.69,-71.77 163.36,-70.77 171.95,-69.79"/>
<polygon fill="#63b8ff" stroke="#63b8ff" points="172.45,-73.26 181.98,-68.64 171.65,-66.3 172.45,-73.26"/>
</g>
<!-- Node6 -->
<g id="node6" class="node">
<title>Node6</title>
<g id="a_node6"><a xlink:href="classStruktury_1_1Arkusz.html#a3747bcb1e5e0c4a73035e9578b6bf6d7" target="_top" xlink:title=" ">
<polygon fill="white" stroke="#666666" points="332,-29.5 185,-29.5 185,-10.5 332,-10.5 332,-29.5"/>
<text text-anchor="middle" x="258.5" y="-17.5" font-family="Helvetica,sans-Serif" font-size="10.00">Struktury.Arkusz.setKomórkę</text>
</a>
</g>
</g>
<!-- Node1&#45;&gt;Node6 -->
<g id="edge5" class="edge">
<title>Node1&#45;&gt;Node6</title>
<path fill="none" stroke="#63b8ff" d="M112.22,-65.96C132.76,-58.1 158.6,-48.57 182,-41 191.32,-37.98 201.37,-35 211,-32.28"/>
<polygon fill="#63b8ff" stroke="#63b8ff" points="212.14,-35.59 220.83,-29.54 210.26,-28.85 212.14,-35.59"/>
</g>
<!-- Node5 -->
<g id="node5" class="node">
<title>Node5</title>
<g id="a_node5"><a xlink:href="classStruktury_1_1Kom_xC3_xB3rkaArkusza.html#a42c4136f3d8445665c672404a0cf9b58" target="_top" xlink:title=" ">
<polygon fill="white" stroke="#666666" points="523,-78 371,-78 371,-48 523,-48 523,-78"/>
<text text-anchor="start" x="379" y="-66" font-family="Helvetica,sans-Serif" font-size="10.00">Struktury.KomórkaArkusza.get</text>
<text text-anchor="middle" x="447" y="-55" font-family="Helvetica,sans-Serif" font-size="10.00">Komórkę</text>
</a>
</g>
</g>
<!-- Node4&#45;&gt;Node5 -->
<g id="edge4" class="edge">
<title>Node4&#45;&gt;Node5</title>
<path fill="none" stroke="#63b8ff" d="M335.09,-61.22C343.58,-61.35 352.27,-61.49 360.87,-61.63"/>
<polygon fill="#63b8ff" stroke="#63b8ff" points="360.86,-65.13 370.91,-61.79 360.97,-58.13 360.86,-65.13"/>
</g>
<!-- Node7 -->
<g id="node7" class="node">
<title>Node7</title>
<g id="a_node7"><a xlink:href="classStruktury_1_1Kom_xC3_xB3rkaArkusza.html#a9e8a46a4fc47a0e2863c8f05528825a2" target="_top" xlink:title=" ">
<polygon fill="white" stroke="#666666" points="523,-30 371,-30 371,0 523,0 523,-30"/>
<text text-anchor="start" x="379" y="-18" font-family="Helvetica,sans-Serif" font-size="10.00">Struktury.KomórkaArkusza.set</text>
<text text-anchor="middle" x="447" y="-7" font-family="Helvetica,sans-Serif" font-size="10.00">Wartość</text>
</a>
</g>
</g>
<!-- Node6&#45;&gt;Node7 -->
<g id="edge6" class="edge">
<title>Node6&#45;&gt;Node7</title>
<path fill="none" stroke="#63b8ff" d="M332.14,-18.05C341.45,-17.8 351.06,-17.55 360.55,-17.29"/>
<polygon fill="#63b8ff" stroke="#63b8ff" points="360.89,-20.78 370.79,-17.02 360.7,-13.79 360.89,-20.78"/>
</g>
</g>
</svg>
