<?xml version="1.0" encoding="UTF-8" standalone="no"?>
<!DOCTYPE svg PUBLIC "-//W3C//DTD SVG 1.1//EN"
 "http://www.w3.org/Graphics/SVG/1.1/DTD/svg11.dtd">
<!-- Generated by graphviz version 2.49.3 (0)
 -->
<!-- Title: porownania.Rezultat.toString Pages: 1 -->
<svg width="1138pt" height="607pt"
 viewBox="0.00 0.00 1138.00 606.50" xmlns="http://www.w3.org/2000/svg" xmlns:xlink="http://www.w3.org/1999/xlink">
<g id="graph0" class="graph" transform="scale(1 1) rotate(0) translate(4 602.5)">
<title>porownania.Rezultat.toString</title>
<!-- Node1 -->
<g id="node1" class="node">
<title>Node1</title>
<g id="a_node1"><a xlink:title=" ">
<polygon fill="#999999" stroke="#666666" points="142,-131 0,-131 0,-112 142,-112 142,-131"/>
<text text-anchor="middle" x="71" y="-119" font-family="Helvetica,sans-Serif" font-size="10.00">porownania.Rezultat.toString</text>
</a>
</g>
</g>
<!-- Node2 -->
<g id="node2" class="node">
<title>Node2</title>
<g id="a_node2"><a xlink:href="classMotywy_1_1Fragmenty.html#af142a18268a561dcafe100a07e2b1928" target="_top" xlink:title=" ">
<polygon fill="white" stroke="#666666" points="312,-136.5 178,-136.5 178,-106.5 312,-106.5 312,-136.5"/>
<text text-anchor="start" x="186" y="-124.5" font-family="Helvetica,sans-Serif" font-size="10.00">Motywy.Fragmenty.Utwórz</text>
<text text-anchor="middle" x="245" y="-113.5" font-family="Helvetica,sans-Serif" font-size="10.00">MacierzMotywów</text>
</a>
</g>
</g>
<!-- Node1&#45;&gt;Node2 -->
<g id="edge1" class="edge">
<title>Node1&#45;&gt;Node2</title>
<path fill="none" stroke="#63b8ff" d="M142.46,-121.5C150.77,-121.5 159.28,-121.5 167.66,-121.5"/>
<polygon fill="#63b8ff" stroke="#63b8ff" points="167.81,-125 177.81,-121.5 167.81,-118 167.81,-125"/>
</g>
<!-- Node3 -->
<g id="node3" class="node">
<title>Node3</title>
<g id="a_node3"><a xlink:href="classMotywy_1_1ParaMotyw_xC3_xB3w.html#ab847e648dd51f9b94baa11ae764d938b" target="_top" xlink:title=" ">
<polygon fill="white" stroke="#666666" points="932,-111 766,-111 766,-92 932,-92 932,-111"/>
<text text-anchor="middle" x="849" y="-99" font-family="Helvetica,sans-Serif" font-size="10.00">Motywy.ParaMotywów.getMotyw1</text>
</a>
</g>
</g>
<!-- Node2&#45;&gt;Node3 -->
<g id="edge2" class="edge">
<title>Node2&#45;&gt;Node3</title>
<path fill="none" stroke="#63b8ff" d="M312.11,-123.73C324.05,-124.05 336.4,-124.33 348,-124.5 512.93,-126.92 554.51,-126.75 719,-114.5 730.84,-113.62 743.27,-112.55 755.55,-111.4"/>
<polygon fill="#63b8ff" stroke="#63b8ff" points="756.2,-114.86 765.82,-110.43 755.53,-107.89 756.2,-114.86"/>
</g>
<!-- Node4 -->
<g id="node4" class="node">
<title>Node4</title>
<g id="a_node4"><a xlink:href="classMotywy_1_1Fragmenty.html#ad6dbd2d8ea7ecfeca7f68979356f7921" target="_top" xlink:title=" ">
<polygon fill="white" stroke="#666666" points="501.5,-67.5 358.5,-67.5 358.5,-37.5 501.5,-37.5 501.5,-67.5"/>
<text text-anchor="start" x="366.5" y="-55.5" font-family="Helvetica,sans-Serif" font-size="10.00">Motywy.Fragmenty.Inicjalizuj</text>
<text text-anchor="middle" x="430" y="-44.5" font-family="Helvetica,sans-Serif" font-size="10.00">TablicęSkróconą</text>
</a>
</g>
</g>
<!-- Node2&#45;&gt;Node4 -->
<g id="edge3" class="edge">
<title>Node2&#45;&gt;Node4</title>
<path fill="none" stroke="#63b8ff" d="M277.28,-106.46C297.25,-97.17 323.83,-85.37 348,-76.5 353.47,-74.49 359.19,-72.53 364.95,-70.65"/>
<polygon fill="#63b8ff" stroke="#63b8ff" points="366.19,-73.93 374.66,-67.56 364.07,-67.26 366.19,-73.93"/>
</g>
<!-- Node5 -->
<g id="node5" class="node">
<title>Node5</title>
<g id="a_node5"><a xlink:href="classMotywy_1_1Fragmenty.html#a625e43ec2c0a7c705a0235fb23e9abc3" target="_top" xlink:title=" ">
<polygon fill="white" stroke="#666666" points="719,-427 548,-427 548,-408 719,-408 719,-427"/>
<text text-anchor="middle" x="633.5" y="-415" font-family="Helvetica,sans-Serif" font-size="10.00">Motywy.Fragmenty.MotywInterwały</text>
</a>
</g>
</g>
<!-- Node2&#45;&gt;Node5 -->
<g id="edge4" class="edge">
<title>Node2&#45;&gt;Node5</title>
<path fill="none" stroke="#63b8ff" d="M262.58,-136.77C282.44,-154.88 316.95,-185.74 348,-210.5 442.64,-285.97 561.23,-368.64 609.99,-402.14"/>
<polygon fill="#63b8ff" stroke="#63b8ff" points="608.03,-405.04 618.26,-407.8 611.99,-399.26 608.03,-405.04"/>
</g>
<!-- Node14 -->
<g id="node14" class="node">
<title>Node14</title>
<g id="a_node14"><a xlink:href="classMotywy_1_1Motyw.html#acbc1bdf91cad9c5a20f243834dc299e8" target="_top" xlink:title=" ">
<polygon fill="white" stroke="#666666" points="489.5,-19 370.5,-19 370.5,0 489.5,0 489.5,-19"/>
<text text-anchor="middle" x="430" y="-7" font-family="Helvetica,sans-Serif" font-size="10.00">Motywy.Motyw.toString</text>
</a>
</g>
</g>
<!-- Node2&#45;&gt;Node14 -->
<g id="edge13" class="edge">
<title>Node2&#45;&gt;Node14</title>
<path fill="none" stroke="#63b8ff" d="M258.13,-106.4C275.69,-85.58 310.26,-48.38 348,-28.5 352.52,-26.12 357.33,-24.04 362.27,-22.21"/>
<polygon fill="#63b8ff" stroke="#63b8ff" points="363.51,-25.49 371.89,-19.01 361.3,-18.85 363.51,-25.49"/>
</g>
<!-- Node15 -->
<g id="node15" class="node">
<title>Node15</title>
<g id="a_node15"><a xlink:href="classMotywy_1_1Fragmenty.html#a0980cac3e787436873aefd34d196428f" target="_top" xlink:title=" ">
<polygon fill="white" stroke="#666666" points="512,-201.5 348,-201.5 348,-171.5 512,-171.5 512,-201.5"/>
<text text-anchor="start" x="356" y="-189.5" font-family="Helvetica,sans-Serif" font-size="10.00">Motywy.Fragmenty.TwórzIndeksy</text>
<text text-anchor="middle" x="430" y="-178.5" font-family="Helvetica,sans-Serif" font-size="10.00">Liczbowe</text>
</a>
</g>
</g>
<!-- Node2&#45;&gt;Node15 -->
<g id="edge14" class="edge">
<title>Node2&#45;&gt;Node15</title>
<path fill="none" stroke="#63b8ff" d="M288.44,-136.58C314.8,-145.94 348.85,-158.03 376.84,-167.97"/>
<polygon fill="#63b8ff" stroke="#63b8ff" points="375.88,-171.34 386.47,-171.39 378.22,-164.75 375.88,-171.34"/>
</g>
<!-- Node21 -->
<g id="node21" class="node">
<title>Node21</title>
<g id="a_node21"><a xlink:href="classMotywy_1_1Fragmenty.html#a1d32b57c48e3938e88c61779d38cb519" target="_top" xlink:title=" ">
<polygon fill="white" stroke="#666666" points="499.5,-115.5 360.5,-115.5 360.5,-85.5 499.5,-85.5 499.5,-115.5"/>
<text text-anchor="start" x="368.5" y="-103.5" font-family="Helvetica,sans-Serif" font-size="10.00">Motywy.Fragmenty.Wypełnij</text>
<text text-anchor="middle" x="430" y="-92.5" font-family="Helvetica,sans-Serif" font-size="10.00">TablicęSkróconą</text>
</a>
</g>
</g>
<!-- Node2&#45;&gt;Node21 -->
<g id="edge23" class="edge">
<title>Node2&#45;&gt;Node21</title>
<path fill="none" stroke="#63b8ff" d="M312.07,-113.92C324.43,-112.5 337.46,-111 350.16,-109.55"/>
<polygon fill="#63b8ff" stroke="#63b8ff" points="350.72,-113.01 360.26,-108.39 349.92,-106.05 350.72,-113.01"/>
</g>
<!-- Node6 -->
<g id="node6" class="node">
<title>Node6</title>
<g id="a_node6"><a xlink:href="classStruktury_1_1Zdarzenie.html#a66f9cf0ce45f65b56860711d9a5afb13" target="_top" xlink:title=" ">
<polygon fill="white" stroke="#666666" points="917.5,-598.5 780.5,-598.5 780.5,-568.5 917.5,-568.5 917.5,-598.5"/>
<text text-anchor="start" x="788.5" y="-586.5" font-family="Helvetica,sans-Serif" font-size="10.00">Struktury.Zdarzenie.getCzy</text>
<text text-anchor="middle" x="849" y="-575.5" font-family="Helvetica,sans-Serif" font-size="10.00">InterwałJestPoczątkowy</text>
</a>
</g>
</g>
<!-- Node5&#45;&gt;Node6 -->
<g id="edge5" class="edge">
<title>Node5&#45;&gt;Node6</title>
<path fill="none" stroke="#63b8ff" d="M639.82,-427.21C654.5,-453.05 698.29,-523.96 755,-559.5 759.98,-562.62 765.35,-565.34 770.91,-567.7"/>
<polygon fill="#63b8ff" stroke="#63b8ff" points="769.82,-571.03 780.41,-571.35 772.33,-564.5 769.82,-571.03"/>
</g>
<!-- Node7 -->
<g id="node7" class="node">
<title>Node7</title>
<g id="a_node7"><a xlink:href="classStruktury_1_1Zdarzenie.html#a2592c833b1455b28718d794f8f1b846f" target="_top" xlink:title=" ">
<polygon fill="white" stroke="#666666" points="927,-550 771,-550 771,-531 927,-531 927,-550"/>
<text text-anchor="middle" x="849" y="-538" font-family="Helvetica,sans-Serif" font-size="10.00">Struktury.Zdarzenie.getDuration</text>
</a>
</g>
</g>
<!-- Node5&#45;&gt;Node7 -->
<g id="edge6" class="edge">
<title>Node5&#45;&gt;Node7</title>
<path fill="none" stroke="#63b8ff" d="M642.42,-427.06C660.21,-447.86 705.65,-497.25 755,-521.5 759.9,-523.91 765.09,-526.01 770.41,-527.85"/>
<polygon fill="#63b8ff" stroke="#63b8ff" points="769.51,-531.23 780.09,-530.87 771.59,-524.55 769.51,-531.23"/>
</g>
<!-- Node8 -->
<g id="node8" class="node">
<title>Node8</title>
<g id="a_node8"><a xlink:href="classMotywy_1_1Motyw.html#a78e0685f4ff1fb079d1f6230ecff2663" target="_top" xlink:title=" ">
<polygon fill="white" stroke="#666666" points="916,-512.5 782,-512.5 782,-482.5 916,-482.5 916,-512.5"/>
<text text-anchor="start" x="790" y="-500.5" font-family="Helvetica,sans-Serif" font-size="10.00">Motywy.Motyw.getDługość</text>
<text text-anchor="middle" x="849" y="-489.5" font-family="Helvetica,sans-Serif" font-size="10.00">Motywu</text>
</a>
</g>
</g>
<!-- Node5&#45;&gt;Node8 -->
<g id="edge7" class="edge">
<title>Node5&#45;&gt;Node8</title>
<path fill="none" stroke="#63b8ff" d="M652.44,-427.1C675.61,-439.2 717.43,-460.05 755,-473.5 760.98,-475.64 767.23,-477.67 773.55,-479.59"/>
<polygon fill="#63b8ff" stroke="#63b8ff" points="772.92,-483.05 783.5,-482.49 774.88,-476.33 772.92,-483.05"/>
</g>
<!-- Node9 -->
<g id="node9" class="node">
<title>Node9</title>
<g id="a_node9"><a xlink:href="classStruktury_1_1Zdarzenie.html#aa2021baa34312354e2f93f48098a9834" target="_top" xlink:title=" ">
<polygon fill="white" stroke="#666666" points="925,-464 773,-464 773,-445 925,-445 925,-464"/>
<text text-anchor="middle" x="849" y="-452" font-family="Helvetica,sans-Serif" font-size="10.00">Struktury.Zdarzenie.getInterval</text>
</a>
</g>
</g>
<!-- Node5&#45;&gt;Node9 -->
<g id="edge8" class="edge">
<title>Node5&#45;&gt;Node9</title>
<path fill="none" stroke="#63b8ff" d="M689.48,-427.03C718.01,-431.97 753.05,-438.04 782.92,-443.22"/>
<polygon fill="#63b8ff" stroke="#63b8ff" points="782.38,-446.68 792.83,-444.94 783.58,-439.78 782.38,-446.68"/>
</g>
<!-- Node10 -->
<g id="node10" class="node">
<title>Node10</title>
<g id="a_node10"><a xlink:href="classStruktury_1_1Zdarzenie.html#a612182e23a5f9790c9c1801c29717314" target="_top" xlink:title=" ">
<polygon fill="white" stroke="#666666" points="922,-427 776,-427 776,-408 922,-408 922,-427"/>
<text text-anchor="middle" x="849" y="-415" font-family="Helvetica,sans-Serif" font-size="10.00">Struktury.Zdarzenie.getOnset</text>
</a>
</g>
</g>
<!-- Node5&#45;&gt;Node10 -->
<g id="edge9" class="edge">
<title>Node5&#45;&gt;Node10</title>
<path fill="none" stroke="#63b8ff" d="M719.19,-417.5C734.42,-417.5 750.27,-417.5 765.44,-417.5"/>
<polygon fill="#63b8ff" stroke="#63b8ff" points="765.82,-421 775.82,-417.5 765.82,-414 765.82,-421"/>
</g>
<!-- Node11 -->
<g id="node11" class="node">
<title>Node11</title>
<g id="a_node11"><a xlink:href="classMotywy_1_1Motyw.html#a390f9d1acc3c0862c70b71bc7f13f931" target="_top" xlink:title=" ">
<polygon fill="white" stroke="#666666" points="921.5,-341.5 776.5,-341.5 776.5,-311.5 921.5,-311.5 921.5,-341.5"/>
<text text-anchor="start" x="784.5" y="-329.5" font-family="Helvetica,sans-Serif" font-size="10.00">Motywy.Motyw.getReferencję</text>
<text text-anchor="middle" x="849" y="-318.5" font-family="Helvetica,sans-Serif" font-size="10.00">DoMotywu</text>
</a>
</g>
</g>
<!-- Node5&#45;&gt;Node11 -->
<g id="edge10" class="edge">
<title>Node5&#45;&gt;Node11</title>
<path fill="none" stroke="#63b8ff" d="M648.74,-407.99C670.71,-393.71 714.54,-366.66 755,-350.5 760.36,-348.36 765.96,-346.36 771.66,-344.5"/>
<polygon fill="#63b8ff" stroke="#63b8ff" points="772.78,-347.82 781.29,-341.51 770.7,-341.13 772.78,-347.82"/>
</g>
<!-- Node12 -->
<g id="node12" class="node">
<title>Node12</title>
<g id="a_node12"><a xlink:href="classStruktury_1_1Zdarzenie.html#a4df3715be17e01949a2b7d1bc104e2d7" target="_top" xlink:title=" ">
<polygon fill="white" stroke="#666666" points="920.5,-389.5 777.5,-389.5 777.5,-359.5 920.5,-359.5 920.5,-389.5"/>
<text text-anchor="start" x="785.5" y="-377.5" font-family="Helvetica,sans-Serif" font-size="10.00">Struktury.Zdarzenie.getStary</text>
<text text-anchor="middle" x="849" y="-366.5" font-family="Helvetica,sans-Serif" font-size="10.00">Interwał</text>
</a>
</g>
</g>
<!-- Node5&#45;&gt;Node12 -->
<g id="edge11" class="edge">
<title>Node5&#45;&gt;Node12</title>
<path fill="none" stroke="#63b8ff" d="M681.88,-407.96C706.94,-402.91 738.39,-396.58 767.17,-390.78"/>
<polygon fill="#63b8ff" stroke="#63b8ff" points="768.11,-394.16 777.22,-388.75 766.73,-387.3 768.11,-394.16"/>
</g>
<!-- Node13 -->
<g id="node13" class="node">
<title>Node13</title>
<g id="a_node13"><a xlink:href="classStruktury_1_1ArkuszZdarzenie.html#a3e1eb6a41e16bd31dfb9c7525f58b11b" target="_top" xlink:title=" ">
<polygon fill="white" stroke="#666666" points="924.5,-293.5 773.5,-293.5 773.5,-263.5 924.5,-263.5 924.5,-293.5"/>
<text text-anchor="start" x="781.5" y="-281.5" font-family="Helvetica,sans-Serif" font-size="10.00">Struktury.ArkuszZdarzenie.get</text>
<text text-anchor="middle" x="849" y="-270.5" font-family="Helvetica,sans-Serif" font-size="10.00">Zdarzenie</text>
</a>
</g>
</g>
<!-- Node5&#45;&gt;Node13 -->
<g id="edge12" class="edge">
<title>Node5&#45;&gt;Node13</title>
<path fill="none" stroke="#63b8ff" d="M641.76,-407.77C658.88,-385.53 704.19,-330.74 755,-302.5 758.25,-300.69 761.64,-299.02 765.13,-297.47"/>
<polygon fill="#63b8ff" stroke="#63b8ff" points="766.58,-300.65 774.52,-293.64 763.94,-294.17 766.58,-300.65"/>
</g>
<!-- Node16 -->
<g id="node16" class="node">
<title>Node16</title>
<g id="a_node16"><a xlink:href="classMotywy_1_1Fragmenty.html#a654558f130a86c40dff29b3955c7e5ce" target="_top" xlink:title=" ">
<polygon fill="white" stroke="#666666" points="701.5,-201.5 565.5,-201.5 565.5,-171.5 701.5,-171.5 701.5,-201.5"/>
<text text-anchor="start" x="573.5" y="-189.5" font-family="Helvetica,sans-Serif" font-size="10.00">Motywy.Fragmenty.getOpis</text>
<text text-anchor="middle" x="633.5" y="-178.5" font-family="Helvetica,sans-Serif" font-size="10.00">KomórkiArkusza</text>
</a>
</g>
</g>
<!-- Node15&#45;&gt;Node16 -->
<g id="edge15" class="edge">
<title>Node15&#45;&gt;Node16</title>
<path fill="none" stroke="#63b8ff" d="M512.09,-186.5C526.34,-186.5 541.15,-186.5 555.29,-186.5"/>
<polygon fill="#63b8ff" stroke="#63b8ff" points="555.46,-190 565.46,-186.5 555.46,-183 555.46,-190"/>
</g>
<!-- Node16&#45;&gt;Node3 -->
<g id="edge16" class="edge">
<title>Node16&#45;&gt;Node3</title>
<path fill="none" stroke="#63b8ff" d="M690.76,-171.34C700.55,-167.56 710.35,-162.98 719,-157.5 738.38,-145.22 734.87,-131.51 755,-120.5 759.21,-118.2 763.66,-116.18 768.25,-114.4"/>
<polygon fill="#63b8ff" stroke="#63b8ff" points="769.51,-117.66 777.81,-111.08 767.22,-111.05 769.51,-117.66"/>
</g>
<!-- Node16&#45;&gt;Node11 -->
<g id="edge19" class="edge">
<title>Node16&#45;&gt;Node11</title>
<path fill="none" stroke="#63b8ff" d="M646.03,-201.87C665.6,-226.86 707.85,-276.16 755,-302.5 758.87,-304.66 762.94,-306.64 767.13,-308.43"/>
<polygon fill="#63b8ff" stroke="#63b8ff" points="765.86,-311.7 776.45,-312.1 768.42,-305.18 765.86,-311.7"/>
</g>
<!-- Node16&#45;&gt;Node13 -->
<g id="edge22" class="edge">
<title>Node16&#45;&gt;Node13</title>
<path fill="none" stroke="#63b8ff" d="M657.15,-201.67C680.72,-216.87 719.13,-240.04 755,-254.5 760.12,-256.56 765.48,-258.5 770.92,-260.3"/>
<polygon fill="#63b8ff" stroke="#63b8ff" points="770.18,-263.73 780.77,-263.39 772.28,-257.06 770.18,-263.73"/>
</g>
<!-- Node17 -->
<g id="node17" class="node">
<title>Node17</title>
<g id="a_node17"><a xlink:href="classMotywy_1_1ParaMotyw_xC3_xB3w.html#aa11e402d0f891343148eb7c16fc7a1fc" target="_top" xlink:title=" ">
<polygon fill="white" stroke="#666666" points="932,-74 766,-74 766,-55 932,-55 932,-74"/>
<text text-anchor="middle" x="849" y="-62" font-family="Helvetica,sans-Serif" font-size="10.00">Motywy.ParaMotywów.getMotyw2</text>
</a>
</g>
</g>
<!-- Node16&#45;&gt;Node17 -->
<g id="edge17" class="edge">
<title>Node16&#45;&gt;Node17</title>
<path fill="none" stroke="#63b8ff" d="M647.6,-171.17C668.08,-148.27 709.99,-105.48 755,-83.5 760,-81.06 765.29,-78.93 770.72,-77.08"/>
<polygon fill="#63b8ff" stroke="#63b8ff" points="772.08,-80.32 780.6,-74.02 770.02,-73.63 772.08,-80.32"/>
</g>
<!-- Node18 -->
<g id="node18" class="node">
<title>Node18</title>
<g id="a_node18"><a xlink:href="classStruktury_1_1ArkuszZdarzenie.html#a51ecd5710e9e6d740314661d80e9499f" target="_top" xlink:title=" ">
<polygon fill="white" stroke="#666666" points="924.5,-159.5 773.5,-159.5 773.5,-129.5 924.5,-129.5 924.5,-159.5"/>
<text text-anchor="start" x="781.5" y="-147.5" font-family="Helvetica,sans-Serif" font-size="10.00">Struktury.ArkuszZdarzenie.get</text>
<text text-anchor="middle" x="849" y="-136.5" font-family="Helvetica,sans-Serif" font-size="10.00">NazwęKolumny</text>
</a>
</g>
</g>
<!-- Node16&#45;&gt;Node18 -->
<g id="edge18" class="edge">
<title>Node16&#45;&gt;Node18</title>
<path fill="none" stroke="#63b8ff" d="M701.76,-173.27C721.3,-169.43 742.89,-165.18 763.35,-161.15"/>
<polygon fill="#63b8ff" stroke="#63b8ff" points="764.15,-164.56 773.29,-159.2 762.8,-157.69 764.15,-164.56"/>
</g>
<!-- Node19 -->
<g id="node19" class="node">
<title>Node19</title>
<g id="a_node19"><a xlink:href="classStruktury_1_1Zdarzenie.html#a987607d51dcbf215ee1795c3a0122c6e" target="_top" xlink:title=" ">
<polygon fill="white" stroke="#666666" points="918,-245 780,-245 780,-226 918,-226 918,-245"/>
<text text-anchor="middle" x="849" y="-233" font-family="Helvetica,sans-Serif" font-size="10.00">Struktury.Zdarzenie.getTakt</text>
</a>
</g>
</g>
<!-- Node16&#45;&gt;Node19 -->
<g id="edge20" class="edge">
<title>Node16&#45;&gt;Node19</title>
<path fill="none" stroke="#63b8ff" d="M692.91,-201.57C712.59,-206.51 734.71,-211.9 755,-216.5 766.06,-219.01 777.9,-221.54 789.3,-223.9"/>
<polygon fill="#63b8ff" stroke="#63b8ff" points="788.67,-227.34 799.17,-225.93 790.08,-220.49 788.67,-227.34"/>
</g>
<!-- Node20 -->
<g id="node20" class="node">
<title>Node20</title>
<g id="a_node20"><a xlink:href="classStruktury_1_1ArkuszZdarzenie.html#aab8a50eda797bd00b06ec5b4c9217724" target="_top" xlink:title=" ">
<polygon fill="white" stroke="#666666" points="924.5,-207.5 773.5,-207.5 773.5,-177.5 924.5,-177.5 924.5,-207.5"/>
<text text-anchor="start" x="781.5" y="-195.5" font-family="Helvetica,sans-Serif" font-size="10.00">Struktury.ArkuszZdarzenie.get</text>
<text text-anchor="middle" x="849" y="-184.5" font-family="Helvetica,sans-Serif" font-size="10.00">Wiersz</text>
</a>
</g>
</g>
<!-- Node16&#45;&gt;Node20 -->
<g id="edge21" class="edge">
<title>Node16&#45;&gt;Node20</title>
<path fill="none" stroke="#63b8ff" d="M701.76,-188.39C721.21,-188.94 742.69,-189.54 763.07,-190.11"/>
<polygon fill="#63b8ff" stroke="#63b8ff" points="763.19,-193.62 773.29,-190.4 763.39,-186.62 763.19,-193.62"/>
</g>
<!-- Node21&#45;&gt;Node3 -->
<g id="edge24" class="edge">
<title>Node21&#45;&gt;Node3</title>
<path fill="none" stroke="#63b8ff" d="M499.86,-100.67C569.71,-100.83 678.25,-101.09 755.56,-101.28"/>
<polygon fill="#63b8ff" stroke="#63b8ff" points="755.77,-104.78 765.77,-101.3 755.78,-97.78 755.77,-104.78"/>
</g>
<!-- Node21&#45;&gt;Node16 -->
<g id="edge26" class="edge">
<title>Node21&#45;&gt;Node16</title>
<path fill="none" stroke="#63b8ff" d="M466.56,-115.68C500.37,-130.11 551.35,-151.86 587.87,-167.45"/>
<polygon fill="#63b8ff" stroke="#63b8ff" points="586.72,-170.77 597.3,-171.47 589.47,-164.33 586.72,-170.77"/>
</g>
<!-- Node21&#45;&gt;Node17 -->
<g id="edge25" class="edge">
<title>Node21&#45;&gt;Node17</title>
<path fill="none" stroke="#63b8ff" d="M499.86,-94.56C569.71,-88.53 678.25,-79.15 755.56,-72.48"/>
<polygon fill="#63b8ff" stroke="#63b8ff" points="756.11,-75.95 765.77,-71.6 755.51,-68.97 756.11,-75.95"/>
</g>
<!-- Node22 -->
<g id="node22" class="node">
<title>Node22</title>
<g id="a_node22"><a xlink:href="classMotywy_1_1ParaMotyw_xC3_xB3w.html#ad6a71562154940909746bf6588b6b84e" target="_top" xlink:title=" ">
<polygon fill="white" stroke="#666666" points="717,-36 550,-36 550,-17 717,-17 717,-36"/>
<text text-anchor="middle" x="633.5" y="-24" font-family="Helvetica,sans-Serif" font-size="10.00">Motywy.ParaMotywów.getRóżnicę</text>
</a>
</g>
</g>
<!-- Node21&#45;&gt;Node22 -->
<g id="edge27" class="edge">
<title>Node21&#45;&gt;Node22</title>
<path fill="none" stroke="#63b8ff" d="M490.29,-85.48C497.75,-82.85 505.16,-79.86 512,-76.5 529.71,-67.8 530.24,-59.1 548,-50.5 557.46,-45.92 567.96,-42.06 578.25,-38.87"/>
<polygon fill="#63b8ff" stroke="#63b8ff" points="579.39,-42.18 588.01,-36.02 577.43,-35.47 579.39,-42.18"/>
</g>
<!-- Node23 -->
<g id="node23" class="node">
<title>Node23</title>
<g id="a_node23"><a xlink:href="classMotywy_1_1Motyw.html#a1bf7b0581400d564daa45e9cba7987f2" target="_top" xlink:title=" ">
<polygon fill="white" stroke="#666666" points="943,-36 755,-36 755,-17 943,-17 943,-36"/>
<text text-anchor="middle" x="849" y="-24" font-family="Helvetica,sans-Serif" font-size="10.00">Motywy.Motyw.CzyMożnaPorównywać</text>
</a>
</g>
</g>
<!-- Node22&#45;&gt;Node23 -->
<g id="edge28" class="edge">
<title>Node22&#45;&gt;Node23</title>
<path fill="none" stroke="#63b8ff" d="M717.04,-26.5C726.09,-26.5 735.39,-26.5 744.64,-26.5"/>
<polygon fill="#63b8ff" stroke="#63b8ff" points="744.67,-30 754.67,-26.5 744.67,-23 744.67,-30"/>
</g>
<!-- Node24 -->
<g id="node24" class="node">
<title>Node24</title>
<g id="a_node24"><a xlink:href="classStruktury_1_1ArkuszZdarzenie.html#add9f4b9b1ae80d624e5f480cda1574ee" target="_top" xlink:title=" ">
<polygon fill="white" stroke="#666666" points="1130,-41.5 979,-41.5 979,-11.5 1130,-11.5 1130,-41.5"/>
<text text-anchor="start" x="987" y="-29.5" font-family="Helvetica,sans-Serif" font-size="10.00">Struktury.ArkuszZdarzenie.get</text>
<text text-anchor="middle" x="1054.5" y="-18.5" font-family="Helvetica,sans-Serif" font-size="10.00">NumerGłosu</text>
</a>
</g>
</g>
<!-- Node23&#45;&gt;Node24 -->
<g id="edge29" class="edge">
<title>Node23&#45;&gt;Node24</title>
<path fill="none" stroke="#63b8ff" d="M943.11,-26.5C951.6,-26.5 960.16,-26.5 968.56,-26.5"/>
<polygon fill="#63b8ff" stroke="#63b8ff" points="968.72,-30 978.72,-26.5 968.72,-23 968.72,-30"/>
</g>
</g>
</svg>
