<?xml version="1.0" encoding="UTF-8" standalone="no"?>
<!DOCTYPE svg PUBLIC "-//W3C//DTD SVG 1.1//EN"
 "http://www.w3.org/Graphics/SVG/1.1/DTD/svg11.dtd">
<!-- Generated by graphviz version 2.49.3 (0)
 -->
<!-- Title: Struktury.Interpreter.PokażArkusz Pages: 1 -->
<svg width="506pt" height="56pt"
 viewBox="0.00 0.00 506.00 56.00" xmlns="http://www.w3.org/2000/svg" xmlns:xlink="http://www.w3.org/1999/xlink">
<g id="graph0" class="graph" transform="scale(1 1) rotate(0) translate(4 52)">
<title>Struktury.Interpreter.PokażArkusz</title>
<!-- Node1 -->
<g id="node1" class="node">
<title>Node1</title>
<g id="a_node1"><a xlink:title=" ">
<polygon fill="#999999" stroke="#666666" points="135,-30 0,-30 0,0 135,0 135,-30"/>
<text text-anchor="start" x="8" y="-18" font-family="Helvetica,sans-Serif" font-size="10.00">Struktury.Interpreter.Pokaż</text>
<text text-anchor="middle" x="67.5" y="-7" font-family="Helvetica,sans-Serif" font-size="10.00">Arkusz</text>
</a>
</g>
</g>
<!-- Node2 -->
<g id="node2" class="node">
<title>Node2</title>
<g id="a_node2"><a xlink:href="classStruktury_1_1Arkusz.html#a0b4436f9d13f720d8265b005d6db312b" target="_top" xlink:title=" ">
<polygon fill="white" stroke="#666666" points="324,-24.5 171,-24.5 171,-5.5 324,-5.5 324,-24.5"/>
<text text-anchor="middle" x="247.5" y="-12.5" font-family="Helvetica,sans-Serif" font-size="10.00">Struktury.Arkusz.PokażArkusz</text>
</a>
</g>
</g>
<!-- Node1&#45;&gt;Node2 -->
<g id="edge1" class="edge">
<title>Node1&#45;&gt;Node2</title>
<path fill="none" stroke="#63b8ff" d="M135.03,-15C143.41,-15 152.07,-15 160.69,-15"/>
<polygon fill="#63b8ff" stroke="#63b8ff" points="160.77,-18.5 170.77,-15 160.77,-11.5 160.77,-18.5"/>
</g>
<!-- Node3 -->
<g id="node3" class="node">
<title>Node3</title>
<g id="a_node3"><a xlink:href="classStruktury_1_1Arkusz.html#ae8591575a4713c4b787d850bc4b5b7d7" target="_top" xlink:title=" ">
<polygon fill="white" stroke="#666666" points="498,-30 360,-30 360,0 498,0 498,-30"/>
<text text-anchor="start" x="368" y="-18" font-family="Helvetica,sans-Serif" font-size="10.00">Struktury.Arkusz.getNazwę</text>
<text text-anchor="middle" x="429" y="-7" font-family="Helvetica,sans-Serif" font-size="10.00">Kolumny</text>
</a>
</g>
</g>
<!-- Node2&#45;&gt;Node3 -->
<g id="edge2" class="edge">
<title>Node2&#45;&gt;Node3</title>
<path fill="none" stroke="#63b8ff" d="M324.1,-15C332.55,-15 341.17,-15 349.65,-15"/>
<polygon fill="#63b8ff" stroke="#63b8ff" points="349.9,-18.5 359.9,-15 349.9,-11.5 349.9,-18.5"/>
</g>
<!-- Node3&#45;&gt;Node3 -->
<g id="edge3" class="edge">
<title>Node3&#45;&gt;Node3</title>
<path fill="none" stroke="#63b8ff" d="M397.36,-30.28C390.33,-39.41 400.88,-48 429,-48 445.7,-48 456.2,-44.97 460.51,-40.6"/>
<polygon fill="#63b8ff" stroke="#63b8ff" points="464.01,-40.32 460.64,-30.28 457.01,-40.23 464.01,-40.32"/>
</g>
</g>
</svg>
