<?xml version="1.0" encoding="UTF-8" standalone="no"?>
<!DOCTYPE svg PUBLIC "-//W3C//DTD SVG 1.1//EN"
 "http://www.w3.org/Graphics/SVG/1.1/DTD/svg11.dtd">
<!-- Generated by graphviz version 2.49.3 (0)
 -->
<!-- Title: Struktury.Zdarzenie.RóżnicaInterwałowa Pages: 1 -->
<svg width="506pt" height="38pt"
 viewBox="0.00 0.00 506.00 38.00" xmlns="http://www.w3.org/2000/svg" xmlns:xlink="http://www.w3.org/1999/xlink">
<g id="graph0" class="graph" transform="scale(1 1) rotate(0) translate(4 34)">
<title>Struktury.Zdarzenie.RóżnicaInterwałowa</title>
<!-- Node1 -->
<g id="node1" class="node">
<title>Node1</title>
<g id="a_node1"><a xlink:title=" ">
<polygon fill="#999999" stroke="#666666" points="142,-30 0,-30 0,0 142,0 142,-30"/>
<text text-anchor="start" x="8" y="-18" font-family="Helvetica,sans-Serif" font-size="10.00">Struktury.Zdarzenie.Różnica</text>
<text text-anchor="middle" x="71" y="-7" font-family="Helvetica,sans-Serif" font-size="10.00">Interwałowa</text>
</a>
</g>
</g>
<!-- Node2 -->
<g id="node2" class="node">
<title>Node2</title>
<g id="a_node2"><a xlink:href="classStruktury_1_1Zdarzenie.html#aa7f62c2cc58dfd742901faa82a5536ec" target="_top" xlink:title=" ">
<polygon fill="white" stroke="#666666" points="320,-30 178,-30 178,0 320,0 320,-30"/>
<text text-anchor="start" x="186" y="-18" font-family="Helvetica,sans-Serif" font-size="10.00">Struktury.Zdarzenie.Różnica</text>
<text text-anchor="middle" x="249" y="-7" font-family="Helvetica,sans-Serif" font-size="10.00">Półtonowa</text>
</a>
</g>
</g>
<!-- Node1&#45;&gt;Node2 -->
<g id="edge1" class="edge">
<title>Node1&#45;&gt;Node2</title>
<path fill="none" stroke="#63b8ff" d="M142.07,-15C150.54,-15 159.25,-15 167.85,-15"/>
<polygon fill="#63b8ff" stroke="#63b8ff" points="167.89,-18.5 177.89,-15 167.89,-11.5 167.89,-18.5"/>
</g>
<!-- Node3 -->
<g id="node3" class="node">
<title>Node3</title>
<g id="a_node3"><a xlink:href="classStruktury_1_1Zdarzenie.html#a0d579308bbe6a5400dd6fbfb35d1ea31" target="_top" xlink:title=" ">
<polygon fill="white" stroke="#666666" points="498,-24.5 356,-24.5 356,-5.5 498,-5.5 498,-24.5"/>
<text text-anchor="middle" x="427" y="-12.5" font-family="Helvetica,sans-Serif" font-size="10.00">Struktury.Zdarzenie.getPitch</text>
</a>
</g>
</g>
<!-- Node2&#45;&gt;Node3 -->
<g id="edge2" class="edge">
<title>Node2&#45;&gt;Node3</title>
<path fill="none" stroke="#63b8ff" d="M320.07,-15C328.54,-15 337.25,-15 345.85,-15"/>
<polygon fill="#63b8ff" stroke="#63b8ff" points="345.89,-18.5 355.89,-15 345.89,-11.5 345.89,-18.5"/>
</g>
</g>
</svg>
