<?xml version="1.0" encoding="UTF-8" standalone="no"?>
<!DOCTYPE svg PUBLIC "-//W3C//DTD SVG 1.1//EN"
 "http://www.w3.org/Graphics/SVG/1.1/DTD/svg11.dtd">
<!-- Generated by graphviz version 2.49.3 (0)
 -->
<!-- Title: Motywy.Fragmenty.UtwórzListę Pages: 1 -->
<svg width="756pt" height="38pt"
 viewBox="0.00 0.00 756.00 38.00" xmlns="http://www.w3.org/2000/svg" xmlns:xlink="http://www.w3.org/1999/xlink">
<g id="graph0" class="graph" transform="scale(1 1) rotate(0) translate(4 34)">
<title>Motywy.Fragmenty.UtwórzListę</title>
<!-- Node1 -->
<g id="node1" class="node">
<title>Node1</title>
<g id="a_node1"><a xlink:title=" ">
<polygon fill="#999999" stroke="#666666" points="134,-30 0,-30 0,0 134,0 134,-30"/>
<text text-anchor="start" x="8" y="-18" font-family="Helvetica,sans-Serif" font-size="10.00">Motywy.Fragmenty.Utwórz</text>
<text text-anchor="middle" x="67" y="-7" font-family="Helvetica,sans-Serif" font-size="10.00">Listę</text>
</a>
</g>
</g>
<!-- Node2 -->
<g id="node2" class="node">
<title>Node2</title>
<g id="a_node2"><a xlink:href="classMotywy_1_1ParaMotyw_xC3_xB3w.html#ad6a71562154940909746bf6588b6b84e" target="_top" xlink:title=" ">
<polygon fill="white" stroke="#666666" points="337,-24.5 170,-24.5 170,-5.5 337,-5.5 337,-24.5"/>
<text text-anchor="middle" x="253.5" y="-12.5" font-family="Helvetica,sans-Serif" font-size="10.00">Motywy.ParaMotywów.getRóżnicę</text>
</a>
</g>
</g>
<!-- Node1&#45;&gt;Node2 -->
<g id="edge1" class="edge">
<title>Node1&#45;&gt;Node2</title>
<path fill="none" stroke="#63b8ff" d="M134.09,-15C142.41,-15 151.04,-15 159.68,-15"/>
<polygon fill="#63b8ff" stroke="#63b8ff" points="159.81,-18.5 169.81,-15 159.81,-11.5 159.81,-18.5"/>
</g>
<!-- Node3 -->
<g id="node3" class="node">
<title>Node3</title>
<g id="a_node3"><a xlink:href="classMotywy_1_1Motyw.html#a1bf7b0581400d564daa45e9cba7987f2" target="_top" xlink:title=" ">
<polygon fill="white" stroke="#666666" points="561,-24.5 373,-24.5 373,-5.5 561,-5.5 561,-24.5"/>
<text text-anchor="middle" x="467" y="-12.5" font-family="Helvetica,sans-Serif" font-size="10.00">Motywy.Motyw.CzyMożnaPorównywać</text>
</a>
</g>
</g>
<!-- Node2&#45;&gt;Node3 -->
<g id="edge2" class="edge">
<title>Node2&#45;&gt;Node3</title>
<path fill="none" stroke="#63b8ff" d="M337.18,-15C345.59,-15 354.21,-15 362.8,-15"/>
<polygon fill="#63b8ff" stroke="#63b8ff" points="362.86,-18.5 372.86,-15 362.86,-11.5 362.86,-18.5"/>
</g>
<!-- Node4 -->
<g id="node4" class="node">
<title>Node4</title>
<g id="a_node4"><a xlink:href="classStruktury_1_1ArkuszZdarzenie.html#add9f4b9b1ae80d624e5f480cda1574ee" target="_top" xlink:title=" ">
<polygon fill="white" stroke="#666666" points="748,-30 597,-30 597,0 748,0 748,-30"/>
<text text-anchor="start" x="605" y="-18" font-family="Helvetica,sans-Serif" font-size="10.00">Struktury.ArkuszZdarzenie.get</text>
<text text-anchor="middle" x="672.5" y="-7" font-family="Helvetica,sans-Serif" font-size="10.00">NumerGłosu</text>
</a>
</g>
</g>
<!-- Node3&#45;&gt;Node4 -->
<g id="edge3" class="edge">
<title>Node3&#45;&gt;Node4</title>
<path fill="none" stroke="#63b8ff" d="M561.11,-15C569.6,-15 578.16,-15 586.56,-15"/>
<polygon fill="#63b8ff" stroke="#63b8ff" points="586.72,-18.5 596.72,-15 586.72,-11.5 586.72,-18.5"/>
</g>
</g>
</svg>
