<?xml version="1.0" encoding="UTF-8" standalone="no"?>
<!DOCTYPE svg PUBLIC "-//W3C//DTD SVG 1.1//EN"
 "http://www.w3.org/Graphics/SVG/1.1/DTD/svg11.dtd">
<!-- Generated by graphviz version 2.49.3 (0)
 -->
<!-- Title: Struktury.ArkuszZdarzenie.getWiersz Pages: 1 -->
<svg width="912pt" height="258pt"
 viewBox="0.00 0.00 912.00 257.50" xmlns="http://www.w3.org/2000/svg" xmlns:xlink="http://www.w3.org/1999/xlink">
<g id="graph0" class="graph" transform="scale(1 1) rotate(0) translate(4 253.5)">
<title>Struktury.ArkuszZdarzenie.getWiersz</title>
<!-- Node1 -->
<g id="node1" class="node">
<title>Node1</title>
<g id="a_node1"><a xlink:title=" ">
<polygon fill="#999999" stroke="#666666" points="904,-139.5 753,-139.5 753,-109.5 904,-109.5 904,-139.5"/>
<text text-anchor="start" x="761" y="-127.5" font-family="Helvetica,sans-Serif" font-size="10.00">Struktury.ArkuszZdarzenie.get</text>
<text text-anchor="middle" x="828.5" y="-116.5" font-family="Helvetica,sans-Serif" font-size="10.00">Wiersz</text>
</a>
</g>
</g>
<!-- Node2 -->
<g id="node2" class="node">
<title>Node2</title>
<g id="a_node2"><a xlink:href="classMotywy_1_1Motyw.html#a33ed5bd5d14abe5cb8e0451bb8dbb4c7" target="_top" xlink:title=" ">
<polygon fill="white" stroke="#666666" points="713.5,-239.5 566.5,-239.5 566.5,-209.5 713.5,-209.5 713.5,-239.5"/>
<text text-anchor="start" x="574.5" y="-227.5" font-family="Helvetica,sans-Serif" font-size="10.00">Motywy.Motyw.getLokalizację</text>
<text text-anchor="middle" x="640" y="-216.5" font-family="Helvetica,sans-Serif" font-size="10.00">Końca</text>
</a>
</g>
</g>
<!-- Node1&#45;&gt;Node2 -->
<g id="edge1" class="edge">
<title>Node1&#45;&gt;Node2</title>
<path fill="none" stroke="#63b8ff" d="M796.23,-145.02C774.46,-158.92 744.5,-177.28 717,-191.5 704.73,-197.84 690.98,-204.07 678.58,-209.38"/>
<polygon fill="#63b8ff" stroke="#63b8ff" points="798.22,-147.9 804.74,-139.55 794.44,-142.01 798.22,-147.9"/>
</g>
<!-- Node4 -->
<g id="node4" class="node">
<title>Node4</title>
<g id="a_node4"><a xlink:href="classMotywy_1_1Motyw.html#a849761056fc3a98537ebb0089584cfdb" target="_top" xlink:title=" ">
<polygon fill="white" stroke="#666666" points="713.5,-182.5 566.5,-182.5 566.5,-152.5 713.5,-152.5 713.5,-182.5"/>
<text text-anchor="start" x="574.5" y="-170.5" font-family="Helvetica,sans-Serif" font-size="10.00">Motywy.Motyw.getLokalizację</text>
<text text-anchor="middle" x="640" y="-159.5" font-family="Helvetica,sans-Serif" font-size="10.00">Początku</text>
</a>
</g>
</g>
<!-- Node1&#45;&gt;Node4 -->
<g id="edge3" class="edge">
<title>Node1&#45;&gt;Node4</title>
<path fill="none" stroke="#63b8ff" d="M752.34,-141.83C737.06,-145.35 721.1,-149.03 706.19,-152.47"/>
<polygon fill="#63b8ff" stroke="#63b8ff" points="753.31,-145.2 762.27,-139.54 751.74,-138.38 753.31,-145.2"/>
</g>
<!-- Node7 -->
<g id="node7" class="node">
<title>Node7</title>
<g id="a_node7"><a xlink:href="classMotywy_1_1Fragmenty.html#a654558f130a86c40dff29b3955c7e5ce" target="_top" xlink:title=" ">
<polygon fill="white" stroke="#666666" points="708,-115.5 572,-115.5 572,-85.5 708,-85.5 708,-115.5"/>
<text text-anchor="start" x="580" y="-103.5" font-family="Helvetica,sans-Serif" font-size="10.00">Motywy.Fragmenty.getOpis</text>
<text text-anchor="middle" x="640" y="-92.5" font-family="Helvetica,sans-Serif" font-size="10.00">KomórkiArkusza</text>
</a>
</g>
</g>
<!-- Node1&#45;&gt;Node7 -->
<g id="edge7" class="edge">
<title>Node1&#45;&gt;Node7</title>
<path fill="none" stroke="#63b8ff" d="M742.83,-113.6C731.21,-112.11 719.41,-110.59 708.15,-109.14"/>
<polygon fill="#63b8ff" stroke="#63b8ff" points="742.62,-117.11 752.99,-114.91 743.51,-110.16 742.62,-117.11"/>
</g>
<!-- Node12 -->
<g id="node12" class="node">
<title>Node12</title>
<g id="a_node12"><a xlink:href="classMotywy_1_1Por_xC3_xB3wnanieZZadanym.html#a11ff4401b316e36ea9263506ab0eeefa" target="_top" xlink:title=" ">
<polygon fill="white" stroke="#666666" points="717,-46.5 563,-46.5 563,-16.5 717,-16.5 717,-46.5"/>
<text text-anchor="start" x="571" y="-34.5" font-family="Helvetica,sans-Serif" font-size="10.00">Motywy.PorównanieZZadanym.</text>
<text text-anchor="middle" x="640" y="-23.5" font-family="Helvetica,sans-Serif" font-size="10.00">ZrealizujPorównanie</text>
</a>
</g>
</g>
<!-- Node1&#45;&gt;Node12 -->
<g id="edge13" class="edge">
<title>Node1&#45;&gt;Node12</title>
<path fill="none" stroke="#63b8ff" d="M788.17,-104.89C753.33,-87.52 703.2,-62.52 671.37,-46.64"/>
<polygon fill="#63b8ff" stroke="#63b8ff" points="786.61,-108.02 797.12,-109.35 789.73,-101.76 786.61,-108.02"/>
</g>
<!-- Node3 -->
<g id="node3" class="node">
<title>Node3</title>
<g id="a_node3"><a xlink:href="classMotywy_1_1Fragmenty.html#afd7562817c9b351e1f74c5a4d0531900" target="_top" xlink:title=" ">
<polygon fill="white" stroke="#666666" points="505.5,-249.5 369.5,-249.5 369.5,-219.5 505.5,-219.5 505.5,-249.5"/>
<text text-anchor="start" x="377.5" y="-237.5" font-family="Helvetica,sans-Serif" font-size="10.00">Motywy.Fragmenty.Generuj</text>
<text text-anchor="middle" x="437.5" y="-226.5" font-family="Helvetica,sans-Serif" font-size="10.00">TablicęOpisu</text>
</a>
</g>
</g>
<!-- Node2&#45;&gt;Node3 -->
<g id="edge2" class="edge">
<title>Node2&#45;&gt;Node3</title>
<path fill="none" stroke="#63b8ff" d="M555.98,-228.64C539.2,-229.48 521.74,-230.35 505.59,-231.15"/>
<polygon fill="#63b8ff" stroke="#63b8ff" points="556.52,-232.12 566.33,-228.12 556.17,-225.13 556.52,-232.12"/>
</g>
<!-- Node4&#45;&gt;Node3 -->
<g id="edge4" class="edge">
<title>Node4&#45;&gt;Node3</title>
<path fill="none" stroke="#63b8ff" d="M592.98,-186.38C572.89,-194.31 548.95,-203.33 527,-210.5 517.47,-213.61 507.27,-216.65 497.3,-219.45"/>
<polygon fill="#63b8ff" stroke="#63b8ff" points="594.52,-189.54 602.51,-182.59 591.93,-183.03 594.52,-189.54"/>
</g>
<!-- Node5 -->
<g id="node5" class="node">
<title>Node5</title>
<g id="a_node5"><a xlink:href="classMotywy_1_1Fragmenty.html#acfa236e2c16528208cbbb131c87212c1" target="_top" xlink:title=" ">
<polygon fill="white" stroke="#666666" points="507.5,-201.5 367.5,-201.5 367.5,-171.5 507.5,-171.5 507.5,-201.5"/>
<text text-anchor="start" x="375.5" y="-189.5" font-family="Helvetica,sans-Serif" font-size="10.00">Motywy.Fragmenty.getMiary</text>
<text text-anchor="middle" x="437.5" y="-178.5" font-family="Helvetica,sans-Serif" font-size="10.00">Motywów</text>
</a>
</g>
</g>
<!-- Node4&#45;&gt;Node5 -->
<g id="edge5" class="edge">
<title>Node4&#45;&gt;Node5</title>
<path fill="none" stroke="#63b8ff" d="M556.34,-175.33C540.13,-176.87 523.29,-178.47 507.58,-179.95"/>
<polygon fill="#63b8ff" stroke="#63b8ff" points="556.71,-178.81 566.33,-174.39 556.05,-171.85 556.71,-178.81"/>
</g>
<!-- Node6 -->
<g id="node6" class="node">
<title>Node6</title>
<g id="a_node6"><a xlink:href="classMotywy_1_1ParaMotyw_xC3_xB3w.html#a550c047510c9b973f12086d4f599f13d" target="_top" xlink:title=" ">
<polygon fill="white" stroke="#666666" points="513.5,-153 361.5,-153 361.5,-134 513.5,-134 513.5,-153"/>
<text text-anchor="middle" x="437.5" y="-141" font-family="Helvetica,sans-Serif" font-size="10.00">Motywy.ParaMotywów.toString</text>
</a>
</g>
</g>
<!-- Node4&#45;&gt;Node6 -->
<g id="edge6" class="edge">
<title>Node4&#45;&gt;Node6</title>
<path fill="none" stroke="#63b8ff" d="M556.17,-157.58C542.07,-155.9 527.5,-154.15 513.62,-152.49"/>
<polygon fill="#63b8ff" stroke="#63b8ff" points="555.99,-161.09 566.33,-158.8 556.82,-154.14 555.99,-161.09"/>
</g>
<!-- Node8 -->
<g id="node8" class="node">
<title>Node8</title>
<g id="a_node8"><a xlink:href="classMotywy_1_1Fragmenty.html#a0980cac3e787436873aefd34d196428f" target="_top" xlink:title=" ">
<polygon fill="white" stroke="#666666" points="519.5,-115.5 355.5,-115.5 355.5,-85.5 519.5,-85.5 519.5,-115.5"/>
<text text-anchor="start" x="363.5" y="-103.5" font-family="Helvetica,sans-Serif" font-size="10.00">Motywy.Fragmenty.TwórzIndeksy</text>
<text text-anchor="middle" x="437.5" y="-92.5" font-family="Helvetica,sans-Serif" font-size="10.00">Liczbowe</text>
</a>
</g>
</g>
<!-- Node7&#45;&gt;Node8 -->
<g id="edge8" class="edge">
<title>Node7&#45;&gt;Node8</title>
<path fill="none" stroke="#63b8ff" d="M561.61,-100.5C547.89,-100.5 533.57,-100.5 519.76,-100.5"/>
<polygon fill="#63b8ff" stroke="#63b8ff" points="561.96,-104 571.96,-100.5 561.96,-97 561.96,-104"/>
</g>
<!-- Node11 -->
<g id="node11" class="node">
<title>Node11</title>
<g id="a_node11"><a xlink:href="classMotywy_1_1Fragmenty.html#a1d32b57c48e3938e88c61779d38cb519" target="_top" xlink:title=" ">
<polygon fill="white" stroke="#666666" points="507,-67.5 368,-67.5 368,-37.5 507,-37.5 507,-67.5"/>
<text text-anchor="start" x="376" y="-55.5" font-family="Helvetica,sans-Serif" font-size="10.00">Motywy.Fragmenty.Wypełnij</text>
<text text-anchor="middle" x="437.5" y="-44.5" font-family="Helvetica,sans-Serif" font-size="10.00">TablicęSkróconą</text>
</a>
</g>
</g>
<!-- Node7&#45;&gt;Node11 -->
<g id="edge11" class="edge">
<title>Node7&#45;&gt;Node11</title>
<path fill="none" stroke="#63b8ff" d="M566.14,-83.06C544.85,-77.96 521.77,-72.43 501.17,-67.5"/>
<polygon fill="#63b8ff" stroke="#63b8ff" points="565.57,-86.52 576.11,-85.44 567.2,-79.71 565.57,-86.52"/>
</g>
<!-- Node9 -->
<g id="node9" class="node">
<title>Node9</title>
<g id="a_node9"><a xlink:href="classMotywy_1_1Fragmenty.html#af142a18268a561dcafe100a07e2b1928" target="_top" xlink:title=" ">
<polygon fill="white" stroke="#666666" points="312,-91.5 178,-91.5 178,-61.5 312,-61.5 312,-91.5"/>
<text text-anchor="start" x="186" y="-79.5" font-family="Helvetica,sans-Serif" font-size="10.00">Motywy.Fragmenty.Utwórz</text>
<text text-anchor="middle" x="245" y="-68.5" font-family="Helvetica,sans-Serif" font-size="10.00">MacierzMotywów</text>
</a>
</g>
</g>
<!-- Node8&#45;&gt;Node9 -->
<g id="edge9" class="edge">
<title>Node8&#45;&gt;Node9</title>
<path fill="none" stroke="#63b8ff" d="M345.2,-89C334.01,-87.59 322.74,-86.17 312.03,-84.82"/>
<polygon fill="#63b8ff" stroke="#63b8ff" points="345.08,-92.51 355.43,-90.29 345.95,-85.56 345.08,-92.51"/>
</g>
<!-- Node10 -->
<g id="node10" class="node">
<title>Node10</title>
<g id="a_node10"><a xlink:href="classporownania_1_1Rezultat.html#abfab722f91bb304108e01333fdbf5cf3" target="_top" xlink:title=" ">
<polygon fill="white" stroke="#666666" points="142,-86 0,-86 0,-67 142,-67 142,-86"/>
<text text-anchor="middle" x="71" y="-74" font-family="Helvetica,sans-Serif" font-size="10.00">porownania.Rezultat.toString</text>
</a>
</g>
</g>
<!-- Node9&#45;&gt;Node10 -->
<g id="edge10" class="edge">
<title>Node9&#45;&gt;Node10</title>
<path fill="none" stroke="#63b8ff" d="M167.98,-76.5C159.37,-76.5 150.64,-76.5 142.11,-76.5"/>
<polygon fill="#63b8ff" stroke="#63b8ff" points="167.99,-80 177.99,-76.5 167.99,-73 167.99,-80"/>
</g>
<!-- Node11&#45;&gt;Node9 -->
<g id="edge12" class="edge">
<title>Node11&#45;&gt;Node9</title>
<path fill="none" stroke="#63b8ff" d="M357.66,-62.43C342.59,-64.33 326.94,-66.3 312.3,-68.15"/>
<polygon fill="#63b8ff" stroke="#63b8ff" points="358.51,-65.85 367.99,-61.13 357.64,-58.91 358.51,-65.85"/>
</g>
<!-- Node13 -->
<g id="node13" class="node">
<title>Node13</title>
<g id="a_node13"><a xlink:href="classporownania_1_1AnalizaPor_xC3_xB3wnawcza.html#a4fb7b99f4ed968c3c62c6fa132b19938" target="_top" xlink:title=" ">
<polygon fill="white" stroke="#666666" points="527,-19 348,-19 348,0 527,0 527,-19"/>
<text text-anchor="middle" x="437.5" y="-7" font-family="Helvetica,sans-Serif" font-size="10.00">porownania.AnalizaPorównawcza.run</text>
</a>
</g>
</g>
<!-- Node12&#45;&gt;Node13 -->
<g id="edge14" class="edge">
<title>Node12&#45;&gt;Node13</title>
<path fill="none" stroke="#63b8ff" d="M552.73,-22.03C543.63,-21.04 534.38,-20.02 525.28,-19.02"/>
<polygon fill="#63b8ff" stroke="#63b8ff" points="552.59,-25.54 562.91,-23.15 553.36,-18.58 552.59,-25.54"/>
</g>
</g>
</svg>
