<?xml version="1.0" encoding="UTF-8" standalone="no"?>
<!DOCTYPE svg PUBLIC "-//W3C//DTD SVG 1.1//EN"
 "http://www.w3.org/Graphics/SVG/1.1/DTD/svg11.dtd">
<!-- Generated by graphviz version 2.49.3 (0)
 -->
<!-- Title: ListaPodobienstw.ElementListy.PrzepiszObiektyDoTablicy Pages: 1 -->
<svg width="506pt" height="56pt"
 viewBox="0.00 0.00 506.00 56.00" xmlns="http://www.w3.org/2000/svg" xmlns:xlink="http://www.w3.org/1999/xlink">
<g id="graph0" class="graph" transform="scale(1 1) rotate(0) translate(4 52)">
<title>ListaPodobienstw.ElementListy.PrzepiszObiektyDoTablicy</title>
<!-- Node1 -->
<g id="node1" class="node">
<title>Node1</title>
<g id="a_node1"><a xlink:title=" ">
<polygon fill="#999999" stroke="#666666" points="498,-30 343,-30 343,0 498,0 498,-30"/>
<text text-anchor="start" x="351" y="-18" font-family="Helvetica,sans-Serif" font-size="10.00">ListaPodobienstw.Element</text>
<text text-anchor="middle" x="420.5" y="-7" font-family="Helvetica,sans-Serif" font-size="10.00">Listy.PrzepiszObiektyDoTablicy</text>
</a>
</g>
</g>
<!-- Node1&#45;&gt;Node1 -->
<g id="edge3" class="edge">
<title>Node1&#45;&gt;Node1</title>
<path fill="none" stroke="#63b8ff" d="M451.66,-40.6C447.4,-44.97 437.01,-48 420.5,-48 392.69,-48 382.26,-39.41 389.21,-30.28"/>
<polygon fill="#63b8ff" stroke="#63b8ff" points="455.16,-40.32 451.79,-30.28 448.16,-40.23 455.16,-40.32"/>
</g>
<!-- Node2 -->
<g id="node2" class="node">
<title>Node2</title>
<g id="a_node2"><a xlink:href="classListaPodobienstw_1_1ElementListy.html#af91c4fb44e4e56682e7a55de82d992fb" target="_top" xlink:title=" ">
<polygon fill="white" stroke="#666666" points="307,-30 175,-30 175,0 307,0 307,-30"/>
<text text-anchor="start" x="183" y="-18" font-family="Helvetica,sans-Serif" font-size="10.00">ListaPodobienstw.Element</text>
<text text-anchor="middle" x="241" y="-7" font-family="Helvetica,sans-Serif" font-size="10.00">Listy.getTablicę</text>
</a>
</g>
</g>
<!-- Node1&#45;&gt;Node2 -->
<g id="edge1" class="edge">
<title>Node1&#45;&gt;Node2</title>
<path fill="none" stroke="#63b8ff" d="M332.83,-15C324.2,-15 315.53,-15 307.17,-15"/>
<polygon fill="#63b8ff" stroke="#63b8ff" points="332.94,-18.5 342.94,-15 332.94,-11.5 332.94,-18.5"/>
</g>
<!-- Node3 -->
<g id="node3" class="node">
<title>Node3</title>
<g id="a_node3"><a xlink:href="classListaPodobienstw_1_1ListaP.html#a33fa4073ea1479d0570bac1eedee0f9f" target="_top" xlink:title=" ">
<polygon fill="white" stroke="#666666" points="139,-30 0,-30 0,0 139,0 139,-30"/>
<text text-anchor="start" x="8" y="-18" font-family="Helvetica,sans-Serif" font-size="10.00">ListaPodobienstw.ListaP.get</text>
<text text-anchor="middle" x="69.5" y="-7" font-family="Helvetica,sans-Serif" font-size="10.00">Tablicę</text>
</a>
</g>
</g>
<!-- Node2&#45;&gt;Node3 -->
<g id="edge2" class="edge">
<title>Node2&#45;&gt;Node3</title>
<path fill="none" stroke="#63b8ff" d="M164.92,-15C156.3,-15 147.55,-15 139.03,-15"/>
<polygon fill="#63b8ff" stroke="#63b8ff" points="164.95,-18.5 174.95,-15 164.95,-11.5 164.95,-18.5"/>
</g>
</g>
</svg>
