<?xml version="1.0" encoding="UTF-8" standalone="no"?>
<!DOCTYPE svg PUBLIC "-//W3C//DTD SVG 1.1//EN"
 "http://www.w3.org/Graphics/SVG/1.1/DTD/svg11.dtd">
<!-- Generated by graphviz version 2.49.3 (0)
 -->
<!-- Title: Motywy.ParaMotywów.ParaMotywów Pages: 1 -->
<svg width="735pt" height="205pt"
 viewBox="0.00 0.00 735.00 204.50" xmlns="http://www.w3.org/2000/svg" xmlns:xlink="http://www.w3.org/1999/xlink">
<g id="graph0" class="graph" transform="scale(1 1) rotate(0) translate(4 200.5)">
<title>Motywy.ParaMotywów.ParaMotywów</title>
<!-- Node1 -->
<g id="node1" class="node">
<title>Node1</title>
<g id="a_node1"><a xlink:title=" ">
<polygon fill="#999999" stroke="#666666" points="138,-134.5 0,-134.5 0,-104.5 138,-104.5 138,-134.5"/>
<text text-anchor="start" x="8" y="-122.5" font-family="Helvetica,sans-Serif" font-size="10.00">Motywy.ParaMotywów.Para</text>
<text text-anchor="middle" x="69" y="-111.5" font-family="Helvetica,sans-Serif" font-size="10.00">Motywów</text>
</a>
</g>
</g>
<!-- Node2 -->
<g id="node2" class="node">
<title>Node2</title>
<g id="a_node2"><a xlink:href="classMotywy_1_1Motyw.html#a37081cad0e58f94556a361efadfae855" target="_top" xlink:title=" ">
<polygon fill="white" stroke="#666666" points="344,-148 174,-148 174,-129 344,-129 344,-148"/>
<text text-anchor="middle" x="259" y="-136" font-family="Helvetica,sans-Serif" font-size="10.00">Motywy.Motyw.OceńPodobieństwo</text>
</a>
</g>
</g>
<!-- Node1&#45;&gt;Node2 -->
<g id="edge1" class="edge">
<title>Node1&#45;&gt;Node2</title>
<path fill="none" stroke="#63b8ff" d="M138.14,-126.39C146.45,-127.23 155.05,-128.1 163.65,-128.96"/>
<polygon fill="#63b8ff" stroke="#63b8ff" points="163.43,-132.46 173.74,-129.98 164.14,-125.5 163.43,-132.46"/>
</g>
<!-- Node5 -->
<g id="node5" class="node">
<title>Node5</title>
<g id="a_node5"><a xlink:href="classMotywy_1_1Motyw.html#a7aa0c770a7e49f3fcfe491292039798c" target="_top" xlink:title=" ">
<polygon fill="white" stroke="#666666" points="332,-110 186,-110 186,-91 332,-91 332,-110"/>
<text text-anchor="middle" x="259" y="-98" font-family="Helvetica,sans-Serif" font-size="10.00">Motywy.Motyw.Odkrabowanie</text>
</a>
</g>
</g>
<!-- Node1&#45;&gt;Node5 -->
<g id="edge4" class="edge">
<title>Node1&#45;&gt;Node5</title>
<path fill="none" stroke="#63b8ff" d="M138.14,-112.61C150.41,-111.37 163.32,-110.07 175.94,-108.79"/>
<polygon fill="#63b8ff" stroke="#63b8ff" points="176.38,-112.27 185.98,-107.78 175.67,-105.3 176.38,-112.27"/>
</g>
<!-- Node3 -->
<g id="node3" class="node">
<title>Node3</title>
<g id="a_node3"><a xlink:href="classMotywy_1_1Motyw.html#a390f9d1acc3c0862c70b71bc7f13f931" target="_top" xlink:title=" ">
<polygon fill="white" stroke="#666666" points="529,-196.5 384,-196.5 384,-166.5 529,-166.5 529,-196.5"/>
<text text-anchor="start" x="392" y="-184.5" font-family="Helvetica,sans-Serif" font-size="10.00">Motywy.Motyw.getReferencję</text>
<text text-anchor="middle" x="456.5" y="-173.5" font-family="Helvetica,sans-Serif" font-size="10.00">DoMotywu</text>
</a>
</g>
</g>
<!-- Node2&#45;&gt;Node3 -->
<g id="edge2" class="edge">
<title>Node2&#45;&gt;Node3</title>
<path fill="none" stroke="#63b8ff" d="M303.39,-148.04C325.14,-152.83 352.15,-158.77 377.35,-164.31"/>
<polygon fill="#63b8ff" stroke="#63b8ff" points="376.76,-167.76 387.27,-166.49 378.26,-160.93 376.76,-167.76"/>
</g>
<!-- Node4 -->
<g id="node4" class="node">
<title>Node4</title>
<g id="a_node4"><a xlink:href="classStruktury_1_1ArkuszZdarzenie.html#a3e1eb6a41e16bd31dfb9c7525f58b11b" target="_top" xlink:title=" ">
<polygon fill="white" stroke="#666666" points="723.5,-153.5 572.5,-153.5 572.5,-123.5 723.5,-123.5 723.5,-153.5"/>
<text text-anchor="start" x="580.5" y="-141.5" font-family="Helvetica,sans-Serif" font-size="10.00">Struktury.ArkuszZdarzenie.get</text>
<text text-anchor="middle" x="648" y="-130.5" font-family="Helvetica,sans-Serif" font-size="10.00">Zdarzenie</text>
</a>
</g>
</g>
<!-- Node2&#45;&gt;Node4 -->
<g id="edge3" class="edge">
<title>Node2&#45;&gt;Node4</title>
<path fill="none" stroke="#63b8ff" d="M344.45,-138.5C408.94,-138.5 497.44,-138.5 562.05,-138.5"/>
<polygon fill="#63b8ff" stroke="#63b8ff" points="562.21,-142 572.21,-138.5 562.21,-135 562.21,-142"/>
</g>
<!-- Node6 -->
<g id="node6" class="node">
<title>Node6</title>
<g id="a_node6"><a xlink:href="classMotywy_1_1Motyw.html#ac2cdd8da139f329cfc3faf36049f6a6a" target="_top" xlink:title=" ">
<polygon fill="white" stroke="#666666" points="530.5,-110 382.5,-110 382.5,-91 530.5,-91 530.5,-110"/>
<text text-anchor="middle" x="456.5" y="-98" font-family="Helvetica,sans-Serif" font-size="10.00">Motywy.Motyw.WykonajKraba</text>
</a>
</g>
</g>
<!-- Node5&#45;&gt;Node6 -->
<g id="edge5" class="edge">
<title>Node5&#45;&gt;Node6</title>
<path fill="none" stroke="#63b8ff" d="M332.24,-100.5C345.24,-100.5 358.89,-100.5 372.18,-100.5"/>
<polygon fill="#63b8ff" stroke="#63b8ff" points="372.25,-104 382.25,-100.5 372.25,-97 372.25,-104"/>
</g>
<!-- Node7 -->
<g id="node7" class="node">
<title>Node7</title>
<g id="a_node7"><a xlink:href="classMotywy_1_1Motyw.html#a28609ed90ed8f9d585dba34d3bff4800" target="_top" xlink:title=" ">
<polygon fill="white" stroke="#666666" points="533,-72.5 380,-72.5 380,-42.5 533,-42.5 533,-72.5"/>
<text text-anchor="start" x="388" y="-60.5" font-family="Helvetica,sans-Serif" font-size="10.00">Motywy.Motyw.WyliczNaNowo</text>
<text text-anchor="middle" x="456.5" y="-49.5" font-family="Helvetica,sans-Serif" font-size="10.00">Interwały</text>
</a>
</g>
</g>
<!-- Node5&#45;&gt;Node7 -->
<g id="edge6" class="edge">
<title>Node5&#45;&gt;Node7</title>
<path fill="none" stroke="#63b8ff" d="M303.39,-90.96C325.14,-86.17 352.15,-80.23 377.35,-74.69"/>
<polygon fill="#63b8ff" stroke="#63b8ff" points="378.26,-78.07 387.27,-72.51 376.76,-71.24 378.26,-78.07"/>
</g>
<!-- Node7&#45;&gt;Node4 -->
<g id="edge8" class="edge">
<title>Node7&#45;&gt;Node4</title>
<path fill="none" stroke="#63b8ff" d="M513.87,-72.51C520.5,-75.11 527.02,-78.1 533,-81.5 551.61,-92.08 550.41,-102.89 569,-113.5 572.86,-115.7 576.93,-117.73 581.12,-119.61"/>
<polygon fill="#63b8ff" stroke="#63b8ff" points="579.83,-122.87 590.41,-123.47 582.52,-116.4 579.83,-122.87"/>
</g>
<!-- Node8 -->
<g id="node8" class="node">
<title>Node8</title>
<g id="a_node8"><a xlink:href="classStruktury_1_1Zdarzenie.html#a0d579308bbe6a5400dd6fbfb35d1ea31" target="_top" xlink:title=" ">
<polygon fill="white" stroke="#666666" points="719,-105 577,-105 577,-86 719,-86 719,-105"/>
<text text-anchor="middle" x="648" y="-93" font-family="Helvetica,sans-Serif" font-size="10.00">Struktury.Zdarzenie.getPitch</text>
</a>
</g>
</g>
<!-- Node7&#45;&gt;Node8 -->
<g id="edge7" class="edge">
<title>Node7&#45;&gt;Node8</title>
<path fill="none" stroke="#63b8ff" d="M532.4,-72.52C551.42,-76.33 571.57,-80.37 589.58,-83.98"/>
<polygon fill="#63b8ff" stroke="#63b8ff" points="589.13,-87.46 599.62,-86 590.5,-80.6 589.13,-87.46"/>
</g>
<!-- Node9 -->
<g id="node9" class="node">
<title>Node9</title>
<g id="a_node9"><a xlink:href="classMotywy_1_1Motyw.html#ada31b6948fe6606145cd37b4878c320f" target="_top" xlink:title=" ">
<polygon fill="white" stroke="#666666" points="727,-67.5 569,-67.5 569,-37.5 727,-37.5 727,-67.5"/>
<text text-anchor="start" x="577" y="-55.5" font-family="Helvetica,sans-Serif" font-size="10.00">Motywy.Motyw.KorektaInterwału</text>
<text text-anchor="middle" x="648" y="-44.5" font-family="Helvetica,sans-Serif" font-size="10.00">Humdrum</text>
</a>
</g>
</g>
<!-- Node7&#45;&gt;Node9 -->
<g id="edge9" class="edge">
<title>Node7&#45;&gt;Node9</title>
<path fill="none" stroke="#63b8ff" d="M533.21,-55.5C541.66,-55.28 550.32,-55.05 558.9,-54.82"/>
<polygon fill="#63b8ff" stroke="#63b8ff" points="559.02,-58.32 568.93,-54.56 558.84,-51.33 559.02,-58.32"/>
</g>
<!-- Node10 -->
<g id="node10" class="node">
<title>Node10</title>
<g id="a_node10"><a xlink:href="classStruktury_1_1Zdarzenie.html#a7f42568598ee4c3e13733e4f1e888ecf" target="_top" xlink:title=" ">
<polygon fill="white" stroke="#666666" points="724,-19 572,-19 572,0 724,0 724,-19"/>
<text text-anchor="middle" x="648" y="-7" font-family="Helvetica,sans-Serif" font-size="10.00">Struktury.Zdarzenie.setInterval</text>
</a>
</g>
</g>
<!-- Node7&#45;&gt;Node10 -->
<g id="edge10" class="edge">
<title>Node7&#45;&gt;Node10</title>
<path fill="none" stroke="#63b8ff" d="M514.75,-42.43C532.16,-37.89 551.35,-32.94 569,-28.5 578.23,-26.18 588.08,-23.74 597.57,-21.42"/>
<polygon fill="#63b8ff" stroke="#63b8ff" points="598.4,-24.82 607.29,-19.05 596.75,-18.02 598.4,-24.82"/>
</g>
</g>
</svg>
