<?xml version="1.0" encoding="UTF-8" standalone="no"?>
<!DOCTYPE svg PUBLIC "-//W3C//DTD SVG 1.1//EN"
 "http://www.w3.org/Graphics/SVG/1.1/DTD/svg11.dtd">
<!-- Generated by graphviz version 2.49.3 (0)
 -->
<!-- Title: ListaPodobienstw.ListaP.getTablicę Pages: 1 -->
<svg width="506pt" height="122pt"
 viewBox="0.00 0.00 506.00 122.00" xmlns="http://www.w3.org/2000/svg" xmlns:xlink="http://www.w3.org/1999/xlink">
<g id="graph0" class="graph" transform="scale(1 1) rotate(0) translate(4 118)">
<title>ListaPodobienstw.ListaP.getTablicę</title>
<!-- Node1 -->
<g id="node1" class="node">
<title>Node1</title>
<g id="a_node1"><a xlink:title=" ">
<polygon fill="#999999" stroke="#666666" points="139,-63 0,-63 0,-33 139,-33 139,-63"/>
<text text-anchor="start" x="8" y="-51" font-family="Helvetica,sans-Serif" font-size="10.00">ListaPodobienstw.ListaP.get</text>
<text text-anchor="middle" x="69.5" y="-40" font-family="Helvetica,sans-Serif" font-size="10.00">Tablicę</text>
</a>
</g>
</g>
<!-- Node2 -->
<g id="node2" class="node">
<title>Node2</title>
<g id="a_node2"><a xlink:href="classListaPodobienstw_1_1ElementListy.html#af91c4fb44e4e56682e7a55de82d992fb" target="_top" xlink:title=" ">
<polygon fill="white" stroke="#666666" points="307,-63 175,-63 175,-33 307,-33 307,-63"/>
<text text-anchor="start" x="183" y="-51" font-family="Helvetica,sans-Serif" font-size="10.00">ListaPodobienstw.Element</text>
<text text-anchor="middle" x="241" y="-40" font-family="Helvetica,sans-Serif" font-size="10.00">Listy.getTablicę</text>
</a>
</g>
</g>
<!-- Node1&#45;&gt;Node2 -->
<g id="edge1" class="edge">
<title>Node1&#45;&gt;Node2</title>
<path fill="none" stroke="#63b8ff" d="M139.44,-48C147.78,-48 156.33,-48 164.76,-48"/>
<polygon fill="#63b8ff" stroke="#63b8ff" points="164.95,-51.5 174.95,-48 164.95,-44.5 164.95,-51.5"/>
</g>
<!-- Node3 -->
<g id="node3" class="node">
<title>Node3</title>
<g id="a_node3"><a xlink:href="classListaPodobienstw_1_1ElementListy.html#a15491dd7e9fd404e017a02adb005f296" target="_top" xlink:title=" ">
<polygon fill="white" stroke="#666666" points="486.5,-96 354.5,-96 354.5,-66 486.5,-66 486.5,-96"/>
<text text-anchor="start" x="362.5" y="-84" font-family="Helvetica,sans-Serif" font-size="10.00">ListaPodobienstw.Element</text>
<text text-anchor="middle" x="420.5" y="-73" font-family="Helvetica,sans-Serif" font-size="10.00">Listy.PoliczElementy</text>
</a>
</g>
</g>
<!-- Node2&#45;&gt;Node3 -->
<g id="edge2" class="edge">
<title>Node2&#45;&gt;Node3</title>
<path fill="none" stroke="#63b8ff" d="M307.09,-60.1C319.27,-62.36 332.09,-64.75 344.54,-67.06"/>
<polygon fill="#63b8ff" stroke="#63b8ff" points="343.95,-70.51 354.42,-68.9 345.23,-63.63 343.95,-70.51"/>
</g>
<!-- Node4 -->
<g id="node4" class="node">
<title>Node4</title>
<g id="a_node4"><a xlink:href="classListaPodobienstw_1_1ElementListy.html#a84aff532db3f0167eeff2b7822b7888e" target="_top" xlink:title=" ">
<polygon fill="white" stroke="#666666" points="498,-30 343,-30 343,0 498,0 498,-30"/>
<text text-anchor="start" x="351" y="-18" font-family="Helvetica,sans-Serif" font-size="10.00">ListaPodobienstw.Element</text>
<text text-anchor="middle" x="420.5" y="-7" font-family="Helvetica,sans-Serif" font-size="10.00">Listy.PrzepiszObiektyDoTablicy</text>
</a>
</g>
</g>
<!-- Node2&#45;&gt;Node4 -->
<g id="edge4" class="edge">
<title>Node2&#45;&gt;Node4</title>
<path fill="none" stroke="#63b8ff" d="M307.09,-35.9C315.57,-34.32 324.36,-32.69 333.13,-31.06"/>
<polygon fill="#63b8ff" stroke="#63b8ff" points="333.8,-34.49 342.99,-29.22 332.52,-27.61 333.8,-34.49"/>
</g>
<!-- Node3&#45;&gt;Node3 -->
<g id="edge3" class="edge">
<title>Node3&#45;&gt;Node3</title>
<path fill="none" stroke="#63b8ff" d="M389.21,-96.28C382.26,-105.41 392.69,-114 420.5,-114 437.01,-114 447.4,-110.97 451.66,-106.6"/>
<polygon fill="#63b8ff" stroke="#63b8ff" points="455.16,-106.32 451.79,-96.28 448.16,-106.23 455.16,-106.32"/>
</g>
<!-- Node4&#45;&gt;Node4 -->
<g id="edge5" class="edge">
<title>Node4&#45;&gt;Node4</title>
<path fill="none" stroke="#63b8ff" d="M389.21,-30.28C382.26,-39.41 392.69,-48 420.5,-48 437.01,-48 447.4,-44.97 451.66,-40.6"/>
<polygon fill="#63b8ff" stroke="#63b8ff" points="455.16,-40.32 451.79,-30.28 448.16,-40.23 455.16,-40.32"/>
</g>
</g>
</svg>
