<?xml version="1.0" encoding="UTF-8" standalone="no"?>
<!DOCTYPE svg PUBLIC "-//W3C//DTD SVG 1.1//EN"
 "http://www.w3.org/Graphics/SVG/1.1/DTD/svg11.dtd">
<!-- Generated by graphviz version 2.49.3 (0)
 -->
<!-- Title: ListaPodobienstw.ElementListy.DopiszDoKońcaListy Pages: 1 -->
<svg width="469pt" height="56pt"
 viewBox="0.00 0.00 469.00 56.00" xmlns="http://www.w3.org/2000/svg" xmlns:xlink="http://www.w3.org/1999/xlink">
<g id="graph0" class="graph" transform="scale(1 1) rotate(0) translate(4 52)">
<title>ListaPodobienstw.ElementListy.DopiszDoKońcaListy</title>
<!-- Node1 -->
<g id="node1" class="node">
<title>Node1</title>
<g id="a_node1"><a xlink:title=" ">
<polygon fill="#999999" stroke="#666666" points="461,-30 329,-30 329,0 461,0 461,-30"/>
<text text-anchor="start" x="337" y="-18" font-family="Helvetica,sans-Serif" font-size="10.00">ListaPodobienstw.Element</text>
<text text-anchor="middle" x="395" y="-7" font-family="Helvetica,sans-Serif" font-size="10.00">Listy.DopiszDoKońcaListy</text>
</a>
</g>
</g>
<!-- Node1&#45;&gt;Node1 -->
<g id="edge3" class="edge">
<title>Node1&#45;&gt;Node1</title>
<path fill="none" stroke="#63b8ff" d="M424.41,-40.6C420.39,-44.97 410.59,-48 395,-48 368.75,-48 358.91,-39.41 365.47,-30.28"/>
<polygon fill="#63b8ff" stroke="#63b8ff" points="427.91,-40.32 424.53,-30.28 420.91,-40.23 427.91,-40.32"/>
</g>
<!-- Node2 -->
<g id="node2" class="node">
<title>Node2</title>
<g id="a_node2"><a xlink:href="classListaPodobienstw_1_1ElementListy.html#aa7df88c3afa23c0fbbfd3f061764dca0" target="_top" xlink:title=" ">
<polygon fill="white" stroke="#666666" points="293,-30 161,-30 161,0 293,0 293,-30"/>
<text text-anchor="start" x="169" y="-18" font-family="Helvetica,sans-Serif" font-size="10.00">ListaPodobienstw.Element</text>
<text text-anchor="middle" x="227" y="-7" font-family="Helvetica,sans-Serif" font-size="10.00">Listy.Dopisz</text>
</a>
</g>
</g>
<!-- Node1&#45;&gt;Node2 -->
<g id="edge1" class="edge">
<title>Node1&#45;&gt;Node2</title>
<path fill="none" stroke="#63b8ff" d="M318.61,-15C310.13,-15 301.55,-15 293.22,-15"/>
<polygon fill="#63b8ff" stroke="#63b8ff" points="318.87,-18.5 328.87,-15 318.87,-11.5 318.87,-18.5"/>
</g>
<!-- Node3 -->
<g id="node3" class="node">
<title>Node3</title>
<g id="a_node3"><a xlink:href="classListaPodobienstw_1_1ListaP.html#a76aa6c11123c88468889d72100320351" target="_top" xlink:title=" ">
<polygon fill="white" stroke="#666666" points="125,-30 0,-30 0,0 125,0 125,-30"/>
<text text-anchor="start" x="8" y="-18" font-family="Helvetica,sans-Serif" font-size="10.00">ListaPodobienstw.ListaP.</text>
<text text-anchor="middle" x="62.5" y="-7" font-family="Helvetica,sans-Serif" font-size="10.00">Dopisz</text>
</a>
</g>
</g>
<!-- Node2&#45;&gt;Node3 -->
<g id="edge2" class="edge">
<title>Node2&#45;&gt;Node3</title>
<path fill="none" stroke="#63b8ff" d="M150.57,-15C142.09,-15 133.52,-15 125.24,-15"/>
<polygon fill="#63b8ff" stroke="#63b8ff" points="150.84,-18.5 160.84,-15 150.84,-11.5 150.84,-18.5"/>
</g>
</g>
</svg>
