<?xml version="1.0" encoding="UTF-8" standalone="no"?>
<!DOCTYPE svg PUBLIC "-//W3C//DTD SVG 1.1//EN"
 "http://www.w3.org/Graphics/SVG/1.1/DTD/svg11.dtd">
<!-- Generated by graphviz version 2.49.3 (0)
 -->
<!-- Title: Motywy.Fragmenty.WypełnijTablicęSkróconą Pages: 1 -->
<svg width="761pt" height="338pt"
 viewBox="0.00 0.00 761.00 337.50" xmlns="http://www.w3.org/2000/svg" xmlns:xlink="http://www.w3.org/1999/xlink">
<g id="graph0" class="graph" transform="scale(1 1) rotate(0) translate(4 333.5)">
<title>Motywy.Fragmenty.WypełnijTablicęSkróconą</title>
<!-- Node1 -->
<g id="node1" class="node">
<title>Node1</title>
<g id="a_node1"><a xlink:title=" ">
<polygon fill="#999999" stroke="#666666" points="139,-238 0,-238 0,-208 139,-208 139,-238"/>
<text text-anchor="start" x="8" y="-226" font-family="Helvetica,sans-Serif" font-size="10.00">Motywy.Fragmenty.Wypełnij</text>
<text text-anchor="middle" x="69.5" y="-215" font-family="Helvetica,sans-Serif" font-size="10.00">TablicęSkróconą</text>
</a>
</g>
</g>
<!-- Node2 -->
<g id="node2" class="node">
<title>Node2</title>
<g id="a_node2"><a xlink:href="classMotywy_1_1ParaMotyw_xC3_xB3w.html#ab847e648dd51f9b94baa11ae764d938b" target="_top" xlink:title=" ">
<polygon fill="white" stroke="#666666" points="555,-329.5 389,-329.5 389,-310.5 555,-310.5 555,-329.5"/>
<text text-anchor="middle" x="472" y="-317.5" font-family="Helvetica,sans-Serif" font-size="10.00">Motywy.ParaMotywów.getMotyw1</text>
</a>
</g>
</g>
<!-- Node1&#45;&gt;Node2 -->
<g id="edge1" class="edge">
<title>Node1&#45;&gt;Node2</title>
<path fill="none" stroke="#63b8ff" d="M103.32,-238.15C123.62,-247.02 150.4,-257.85 175,-265 245.34,-285.45 327.37,-299.99 387.22,-308.97"/>
<polygon fill="#63b8ff" stroke="#63b8ff" points="386.97,-312.47 397.37,-310.47 387.99,-305.54 386.97,-312.47"/>
</g>
<!-- Node3 -->
<g id="node3" class="node">
<title>Node3</title>
<g id="a_node3"><a xlink:href="classMotywy_1_1ParaMotyw_xC3_xB3w.html#aa11e402d0f891343148eb7c16fc7a1fc" target="_top" xlink:title=" ">
<polygon fill="white" stroke="#666666" points="555,-292.5 389,-292.5 389,-273.5 555,-273.5 555,-292.5"/>
<text text-anchor="middle" x="472" y="-280.5" font-family="Helvetica,sans-Serif" font-size="10.00">Motywy.ParaMotywów.getMotyw2</text>
</a>
</g>
</g>
<!-- Node1&#45;&gt;Node3 -->
<g id="edge2" class="edge">
<title>Node1&#45;&gt;Node3</title>
<path fill="none" stroke="#63b8ff" d="M139.35,-233.31C211.23,-244.08 323.54,-260.91 397.21,-271.95"/>
<polygon fill="#63b8ff" stroke="#63b8ff" points="396.93,-275.44 407.34,-273.46 397.97,-268.52 396.93,-275.44"/>
</g>
<!-- Node4 -->
<g id="node4" class="node">
<title>Node4</title>
<g id="a_node4"><a xlink:href="classMotywy_1_1Fragmenty.html#a654558f130a86c40dff29b3955c7e5ce" target="_top" xlink:title=" ">
<polygon fill="white" stroke="#666666" points="326.5,-217 190.5,-217 190.5,-187 326.5,-187 326.5,-217"/>
<text text-anchor="start" x="198.5" y="-205" font-family="Helvetica,sans-Serif" font-size="10.00">Motywy.Fragmenty.getOpis</text>
<text text-anchor="middle" x="258.5" y="-194" font-family="Helvetica,sans-Serif" font-size="10.00">KomórkiArkusza</text>
</a>
</g>
</g>
<!-- Node1&#45;&gt;Node4 -->
<g id="edge3" class="edge">
<title>Node1&#45;&gt;Node4</title>
<path fill="none" stroke="#63b8ff" d="M139.07,-215.3C152.44,-213.8 166.55,-212.21 180.18,-210.68"/>
<polygon fill="#63b8ff" stroke="#63b8ff" points="180.95,-214.12 190.5,-209.52 180.17,-207.16 180.95,-214.12"/>
</g>
<!-- Node10 -->
<g id="node10" class="node">
<title>Node10</title>
<g id="a_node10"><a xlink:href="classMotywy_1_1ParaMotyw_xC3_xB3w.html#ad6a71562154940909746bf6588b6b84e" target="_top" xlink:title=" ">
<polygon fill="white" stroke="#666666" points="342,-99.5 175,-99.5 175,-80.5 342,-80.5 342,-99.5"/>
<text text-anchor="middle" x="258.5" y="-87.5" font-family="Helvetica,sans-Serif" font-size="10.00">Motywy.ParaMotywów.getRóżnicę</text>
</a>
</g>
</g>
<!-- Node1&#45;&gt;Node10 -->
<g id="edge11" class="edge">
<title>Node1&#45;&gt;Node10</title>
<path fill="none" stroke="#63b8ff" d="M91.95,-207.74C127.68,-182.33 199.03,-131.59 235.27,-105.81"/>
<polygon fill="#63b8ff" stroke="#63b8ff" points="237.56,-108.48 243.68,-99.83 233.51,-102.77 237.56,-108.48"/>
</g>
<!-- Node4&#45;&gt;Node2 -->
<g id="edge4" class="edge">
<title>Node4&#45;&gt;Node2</title>
<path fill="none" stroke="#63b8ff" d="M272.73,-217.31C293.01,-239.69 334.04,-280.98 378,-302 382.12,-303.97 386.43,-305.72 390.86,-307.28"/>
<polygon fill="#63b8ff" stroke="#63b8ff" points="390.1,-310.71 400.69,-310.41 392.22,-304.04 390.1,-310.71"/>
</g>
<!-- Node4&#45;&gt;Node3 -->
<g id="edge5" class="edge">
<title>Node4&#45;&gt;Node3</title>
<path fill="none" stroke="#63b8ff" d="M283.55,-217.16C306.87,-231.23 343.66,-251.78 378,-264 385.62,-266.71 393.73,-269.08 401.87,-271.14"/>
<polygon fill="#63b8ff" stroke="#63b8ff" points="401.24,-274.59 411.78,-273.5 402.86,-267.78 401.24,-274.59"/>
</g>
<!-- Node5 -->
<g id="node5" class="node">
<title>Node5</title>
<g id="a_node5"><a xlink:href="classStruktury_1_1ArkuszZdarzenie.html#a51ecd5710e9e6d740314661d80e9499f" target="_top" xlink:title=" ">
<polygon fill="white" stroke="#666666" points="547.5,-73 396.5,-73 396.5,-43 547.5,-43 547.5,-73"/>
<text text-anchor="start" x="404.5" y="-61" font-family="Helvetica,sans-Serif" font-size="10.00">Struktury.ArkuszZdarzenie.get</text>
<text text-anchor="middle" x="472" y="-50" font-family="Helvetica,sans-Serif" font-size="10.00">NazwęKolumny</text>
</a>
</g>
</g>
<!-- Node4&#45;&gt;Node5 -->
<g id="edge6" class="edge">
<title>Node4&#45;&gt;Node5</title>
<path fill="none" stroke="#63b8ff" d="M272.65,-186.79C298.02,-157.77 353.38,-96.16 378,-82 381.06,-80.24 384.24,-78.61 387.51,-77.1"/>
<polygon fill="#63b8ff" stroke="#63b8ff" points="389.07,-80.24 396.93,-73.14 386.36,-73.79 389.07,-80.24"/>
</g>
<!-- Node6 -->
<g id="node6" class="node">
<title>Node6</title>
<g id="a_node6"><a xlink:href="classMotywy_1_1Motyw.html#a390f9d1acc3c0862c70b71bc7f13f931" target="_top" xlink:title=" ">
<polygon fill="white" stroke="#666666" points="544.5,-255 399.5,-255 399.5,-225 544.5,-225 544.5,-255"/>
<text text-anchor="start" x="407.5" y="-243" font-family="Helvetica,sans-Serif" font-size="10.00">Motywy.Motyw.getReferencję</text>
<text text-anchor="middle" x="472" y="-232" font-family="Helvetica,sans-Serif" font-size="10.00">DoMotywu</text>
</a>
</g>
</g>
<!-- Node4&#45;&gt;Node6 -->
<g id="edge7" class="edge">
<title>Node4&#45;&gt;Node6</title>
<path fill="none" stroke="#63b8ff" d="M326.71,-214.08C346.56,-217.64 368.52,-221.59 389.18,-225.3"/>
<polygon fill="#63b8ff" stroke="#63b8ff" points="388.75,-228.78 399.21,-227.1 389.99,-221.89 388.75,-228.78"/>
</g>
<!-- Node7 -->
<g id="node7" class="node">
<title>Node7</title>
<g id="a_node7"><a xlink:href="classStruktury_1_1Zdarzenie.html#a987607d51dcbf215ee1795c3a0122c6e" target="_top" xlink:title=" ">
<polygon fill="white" stroke="#666666" points="541,-206.5 403,-206.5 403,-187.5 541,-187.5 541,-206.5"/>
<text text-anchor="middle" x="472" y="-194.5" font-family="Helvetica,sans-Serif" font-size="10.00">Struktury.Zdarzenie.getTakt</text>
</a>
</g>
</g>
<!-- Node4&#45;&gt;Node7 -->
<g id="edge8" class="edge">
<title>Node4&#45;&gt;Node7</title>
<path fill="none" stroke="#63b8ff" d="M326.71,-200.41C347.7,-199.91 371.03,-199.36 392.71,-198.85"/>
<polygon fill="#63b8ff" stroke="#63b8ff" points="392.96,-202.35 402.87,-198.61 392.79,-195.35 392.96,-202.35"/>
</g>
<!-- Node8 -->
<g id="node8" class="node">
<title>Node8</title>
<g id="a_node8"><a xlink:href="classStruktury_1_1ArkuszZdarzenie.html#aab8a50eda797bd00b06ec5b4c9217724" target="_top" xlink:title=" ">
<polygon fill="white" stroke="#666666" points="547.5,-169 396.5,-169 396.5,-139 547.5,-139 547.5,-169"/>
<text text-anchor="start" x="404.5" y="-157" font-family="Helvetica,sans-Serif" font-size="10.00">Struktury.ArkuszZdarzenie.get</text>
<text text-anchor="middle" x="472" y="-146" font-family="Helvetica,sans-Serif" font-size="10.00">Wiersz</text>
</a>
</g>
</g>
<!-- Node4&#45;&gt;Node8 -->
<g id="edge9" class="edge">
<title>Node4&#45;&gt;Node8</title>
<path fill="none" stroke="#63b8ff" d="M325.84,-186.94C347.79,-181.96 372.38,-176.38 395,-171.25"/>
<polygon fill="#63b8ff" stroke="#63b8ff" points="395.92,-174.63 404.9,-169 394.37,-167.8 395.92,-174.63"/>
</g>
<!-- Node9 -->
<g id="node9" class="node">
<title>Node9</title>
<g id="a_node9"><a xlink:href="classStruktury_1_1ArkuszZdarzenie.html#a3e1eb6a41e16bd31dfb9c7525f58b11b" target="_top" xlink:title=" ">
<polygon fill="white" stroke="#666666" points="547.5,-121 396.5,-121 396.5,-91 547.5,-91 547.5,-121"/>
<text text-anchor="start" x="404.5" y="-109" font-family="Helvetica,sans-Serif" font-size="10.00">Struktury.ArkuszZdarzenie.get</text>
<text text-anchor="middle" x="472" y="-98" font-family="Helvetica,sans-Serif" font-size="10.00">Zdarzenie</text>
</a>
</g>
</g>
<!-- Node4&#45;&gt;Node9 -->
<g id="edge10" class="edge">
<title>Node4&#45;&gt;Node9</title>
<path fill="none" stroke="#63b8ff" d="M280.32,-186.73C303.22,-170.58 341.63,-145.35 378,-130 382.99,-127.89 388.22,-125.93 393.53,-124.12"/>
<polygon fill="#63b8ff" stroke="#63b8ff" points="394.73,-127.41 403.17,-121.01 392.58,-120.75 394.73,-127.41"/>
</g>
<!-- Node11 -->
<g id="node11" class="node">
<title>Node11</title>
<g id="a_node11"><a xlink:href="classMotywy_1_1Motyw.html#a1bf7b0581400d564daa45e9cba7987f2" target="_top" xlink:title=" ">
<polygon fill="white" stroke="#666666" points="566,-24.5 378,-24.5 378,-5.5 566,-5.5 566,-24.5"/>
<text text-anchor="middle" x="472" y="-12.5" font-family="Helvetica,sans-Serif" font-size="10.00">Motywy.Motyw.CzyMożnaPorównywać</text>
</a>
</g>
</g>
<!-- Node10&#45;&gt;Node11 -->
<g id="edge12" class="edge">
<title>Node10&#45;&gt;Node11</title>
<path fill="none" stroke="#63b8ff" d="M276.62,-80.29C299.19,-67.89 340.44,-46.51 378,-34 386.18,-31.28 394.9,-28.87 403.6,-26.77"/>
<polygon fill="#63b8ff" stroke="#63b8ff" points="404.41,-30.17 413.38,-24.53 402.85,-23.35 404.41,-30.17"/>
</g>
<!-- Node12 -->
<g id="node12" class="node">
<title>Node12</title>
<g id="a_node12"><a xlink:href="classStruktury_1_1ArkuszZdarzenie.html#add9f4b9b1ae80d624e5f480cda1574ee" target="_top" xlink:title=" ">
<polygon fill="white" stroke="#666666" points="753,-30 602,-30 602,0 753,0 753,-30"/>
<text text-anchor="start" x="610" y="-18" font-family="Helvetica,sans-Serif" font-size="10.00">Struktury.ArkuszZdarzenie.get</text>
<text text-anchor="middle" x="677.5" y="-7" font-family="Helvetica,sans-Serif" font-size="10.00">NumerGłosu</text>
</a>
</g>
</g>
<!-- Node11&#45;&gt;Node12 -->
<g id="edge13" class="edge">
<title>Node11&#45;&gt;Node12</title>
<path fill="none" stroke="#63b8ff" d="M566.11,-15C574.6,-15 583.16,-15 591.56,-15"/>
<polygon fill="#63b8ff" stroke="#63b8ff" points="591.72,-18.5 601.72,-15 591.72,-11.5 591.72,-18.5"/>
</g>
</g>
</svg>
