<?xml version="1.0" encoding="UTF-8" standalone="no"?>
<!DOCTYPE svg PUBLIC "-//W3C//DTD SVG 1.1//EN"
 "http://www.w3.org/Graphics/SVG/1.1/DTD/svg11.dtd">
<!-- Generated by graphviz version 2.49.3 (0)
 -->
<!-- Title: Struktury.ArkuszZdarzenie.getZdarzenie Pages: 1 -->
<svg width="977pt" height="360pt"
 viewBox="0.00 0.00 977.00 360.00" xmlns="http://www.w3.org/2000/svg" xmlns:xlink="http://www.w3.org/1999/xlink">
<g id="graph0" class="graph" transform="scale(1 1) rotate(0) translate(4 356)">
<title>Struktury.ArkuszZdarzenie.getZdarzenie</title>
<!-- Node1 -->
<g id="node1" class="node">
<title>Node1</title>
<g id="a_node1"><a xlink:title=" ">
<polygon fill="#999999" stroke="#666666" points="969,-194 818,-194 818,-164 969,-164 969,-194"/>
<text text-anchor="start" x="826" y="-182" font-family="Helvetica,sans-Serif" font-size="10.00">Struktury.ArkuszZdarzenie.get</text>
<text text-anchor="middle" x="893.5" y="-171" font-family="Helvetica,sans-Serif" font-size="10.00">Zdarzenie</text>
</a>
</g>
</g>
<!-- Node2 -->
<g id="node2" class="node">
<title>Node2</title>
<g id="a_node2"><a xlink:href="classMotywy_1_1Fragmenty.html#afd7562817c9b351e1f74c5a4d0531900" target="_top" xlink:title=" ">
<polygon fill="white" stroke="#666666" points="765,-352 629,-352 629,-322 765,-322 765,-352"/>
<text text-anchor="start" x="637" y="-340" font-family="Helvetica,sans-Serif" font-size="10.00">Motywy.Fragmenty.Generuj</text>
<text text-anchor="middle" x="697" y="-329" font-family="Helvetica,sans-Serif" font-size="10.00">TablicęOpisu</text>
</a>
</g>
</g>
<!-- Node1&#45;&gt;Node2 -->
<g id="edge1" class="edge">
<title>Node1&#45;&gt;Node2</title>
<path fill="none" stroke="#63b8ff" d="M878.98,-203.06C860.8,-233.22 825.67,-284.41 782,-313 776.8,-316.41 771.11,-319.34 765.22,-321.86"/>
<polygon fill="#63b8ff" stroke="#63b8ff" points="882,-204.82 884.06,-194.43 875.97,-201.27 882,-204.82"/>
</g>
<!-- Node3 -->
<g id="node3" class="node">
<title>Node3</title>
<g id="a_node3"><a xlink:href="classMotywy_1_1Fragmenty.html#acfa236e2c16528208cbbb131c87212c1" target="_top" xlink:title=" ">
<polygon fill="white" stroke="#666666" points="767,-304 627,-304 627,-274 767,-274 767,-304"/>
<text text-anchor="start" x="635" y="-292" font-family="Helvetica,sans-Serif" font-size="10.00">Motywy.Fragmenty.getMiary</text>
<text text-anchor="middle" x="697" y="-281" font-family="Helvetica,sans-Serif" font-size="10.00">Motywów</text>
</a>
</g>
</g>
<!-- Node1&#45;&gt;Node3 -->
<g id="edge2" class="edge">
<title>Node1&#45;&gt;Node3</title>
<path fill="none" stroke="#63b8ff" d="M869.5,-201.23C848.33,-220.59 815.25,-248.12 782,-265 775.37,-268.36 768.21,-271.32 760.95,-273.9"/>
<polygon fill="#63b8ff" stroke="#63b8ff" points="872.07,-203.63 877.01,-194.25 867.3,-198.5 872.07,-203.63"/>
</g>
<!-- Node4 -->
<g id="node4" class="node">
<title>Node4</title>
<g id="a_node4"><a xlink:href="classMotywy_1_1Fragmenty.html#a654558f130a86c40dff29b3955c7e5ce" target="_top" xlink:title=" ">
<polygon fill="white" stroke="#666666" points="765,-256 629,-256 629,-226 765,-226 765,-256"/>
<text text-anchor="start" x="637" y="-244" font-family="Helvetica,sans-Serif" font-size="10.00">Motywy.Fragmenty.getOpis</text>
<text text-anchor="middle" x="697" y="-233" font-family="Helvetica,sans-Serif" font-size="10.00">KomórkiArkusza</text>
</a>
</g>
</g>
<!-- Node1&#45;&gt;Node4 -->
<g id="edge3" class="edge">
<title>Node1&#45;&gt;Node4</title>
<path fill="none" stroke="#63b8ff" d="M835.53,-197.16C806.86,-206.3 772.52,-217.25 745.32,-225.91"/>
<polygon fill="#63b8ff" stroke="#63b8ff" points="836.95,-200.38 845.42,-194.01 834.83,-193.71 836.95,-200.38"/>
</g>
<!-- Node9 -->
<g id="node9" class="node">
<title>Node9</title>
<g id="a_node9"><a xlink:href="classMotywy_1_1Motyw.html#aaf6b164d32ae45a3647c86047afb23d3" target="_top" xlink:title=" ">
<polygon fill="white" stroke="#666666" points="547.5,-168.5 433.5,-168.5 433.5,-149.5 547.5,-149.5 547.5,-168.5"/>
<text text-anchor="middle" x="490.5" y="-156.5" font-family="Helvetica,sans-Serif" font-size="10.00">Motywy.Motyw.Motyw</text>
</a>
</g>
</g>
<!-- Node1&#45;&gt;Node9 -->
<g id="edge9" class="edge">
<title>Node1&#45;&gt;Node9</title>
<path fill="none" stroke="#63b8ff" d="M807.22,-174.75C728.91,-170.84 615.11,-165.17 547.67,-161.8"/>
<polygon fill="#63b8ff" stroke="#63b8ff" points="807.38,-178.26 817.55,-175.26 807.73,-171.27 807.38,-178.26"/>
</g>
<!-- Node10 -->
<g id="node10" class="node">
<title>Node10</title>
<g id="a_node10"><a xlink:href="classMotywy_1_1Fragmenty.html#a625e43ec2c0a7c705a0235fb23e9abc3" target="_top" xlink:title=" ">
<polygon fill="white" stroke="#666666" points="576,-207.5 405,-207.5 405,-188.5 576,-188.5 576,-207.5"/>
<text text-anchor="middle" x="490.5" y="-195.5" font-family="Helvetica,sans-Serif" font-size="10.00">Motywy.Fragmenty.MotywInterwały</text>
</a>
</g>
</g>
<!-- Node1&#45;&gt;Node10 -->
<g id="edge10" class="edge">
<title>Node1&#45;&gt;Node10</title>
<path fill="none" stroke="#63b8ff" d="M807.27,-183.04C739.15,-186.27 644.13,-190.77 576.15,-193.99"/>
<polygon fill="#63b8ff" stroke="#63b8ff" points="807.72,-186.52 817.55,-182.55 807.39,-179.53 807.72,-186.52"/>
</g>
<!-- Node11 -->
<g id="node11" class="node">
<title>Node11</title>
<g id="a_node11"><a xlink:href="classMotywy_1_1Por_xC3_xB3wnanieZZadanym.html#af664f821dfb522abb48d94f4db3a3007" target="_top" xlink:title=" ">
<polygon fill="white" stroke="#666666" points="774,-30 620,-30 620,0 774,0 774,-30"/>
<text text-anchor="start" x="628" y="-18" font-family="Helvetica,sans-Serif" font-size="10.00">Motywy.PorównanieZZadanym.</text>
<text text-anchor="middle" x="697" y="-7" font-family="Helvetica,sans-Serif" font-size="10.00">NadajWagi</text>
</a>
</g>
</g>
<!-- Node1&#45;&gt;Node11 -->
<g id="edge12" class="edge">
<title>Node1&#45;&gt;Node11</title>
<path fill="none" stroke="#63b8ff" d="M875.63,-155.26C855.68,-128.48 820.29,-84.9 782,-56 768.27,-45.64 751.51,-36.83 736.58,-30.06"/>
<polygon fill="#63b8ff" stroke="#63b8ff" points="873.05,-157.66 881.79,-163.65 878.7,-153.52 873.05,-157.66"/>
</g>
<!-- Node14 -->
<g id="node14" class="node">
<title>Node14</title>
<g id="a_node14"><a xlink:href="classMotywy_1_1Motyw.html#a37081cad0e58f94556a361efadfae855" target="_top" xlink:title=" ">
<polygon fill="white" stroke="#666666" points="782,-83.5 612,-83.5 612,-64.5 782,-64.5 782,-83.5"/>
<text text-anchor="middle" x="697" y="-71.5" font-family="Helvetica,sans-Serif" font-size="10.00">Motywy.Motyw.OceńPodobieństwo</text>
</a>
</g>
</g>
<!-- Node1&#45;&gt;Node14 -->
<g id="edge15" class="edge">
<title>Node1&#45;&gt;Node14</title>
<path fill="none" stroke="#63b8ff" d="M870.09,-156.66C849.08,-136.98 815.9,-109.04 782,-93 773.89,-89.16 764.97,-86.08 756.06,-83.61"/>
<polygon fill="#63b8ff" stroke="#63b8ff" points="867.87,-159.38 877.52,-163.75 872.7,-154.31 867.87,-159.38"/>
</g>
<!-- Node17 -->
<g id="node17" class="node">
<title>Node17</title>
<g id="a_node17"><a xlink:href="classMotywy_1_1Motyw.html#a28609ed90ed8f9d585dba34d3bff4800" target="_top" xlink:title=" ">
<polygon fill="white" stroke="#666666" points="773.5,-132 620.5,-132 620.5,-102 773.5,-102 773.5,-132"/>
<text text-anchor="start" x="628.5" y="-120" font-family="Helvetica,sans-Serif" font-size="10.00">Motywy.Motyw.WyliczNaNowo</text>
<text text-anchor="middle" x="697" y="-109" font-family="Helvetica,sans-Serif" font-size="10.00">Interwały</text>
</a>
</g>
</g>
<!-- Node1&#45;&gt;Node17 -->
<g id="edge19" class="edge">
<title>Node1&#45;&gt;Node17</title>
<path fill="none" stroke="#63b8ff" d="M835.53,-160.84C806.86,-151.7 772.52,-140.75 745.32,-132.09"/>
<polygon fill="#63b8ff" stroke="#63b8ff" points="834.83,-164.29 845.42,-163.99 836.95,-157.62 834.83,-164.29"/>
</g>
<!-- Node5 -->
<g id="node5" class="node">
<title>Node5</title>
<g id="a_node5"><a xlink:href="classMotywy_1_1Fragmenty.html#a0980cac3e787436873aefd34d196428f" target="_top" xlink:title=" ">
<polygon fill="white" stroke="#666666" points="572.5,-304 408.5,-304 408.5,-274 572.5,-274 572.5,-304"/>
<text text-anchor="start" x="416.5" y="-292" font-family="Helvetica,sans-Serif" font-size="10.00">Motywy.Fragmenty.TwórzIndeksy</text>
<text text-anchor="middle" x="490.5" y="-281" font-family="Helvetica,sans-Serif" font-size="10.00">Liczbowe</text>
</a>
</g>
</g>
<!-- Node4&#45;&gt;Node5 -->
<g id="edge4" class="edge">
<title>Node4&#45;&gt;Node5</title>
<path fill="none" stroke="#63b8ff" d="M621.99,-258.37C600.19,-263.49 576.53,-269.04 555.42,-274"/>
<polygon fill="#63b8ff" stroke="#63b8ff" points="622.92,-261.75 631.86,-256.06 621.32,-254.93 622.92,-261.75"/>
</g>
<!-- Node8 -->
<g id="node8" class="node">
<title>Node8</title>
<g id="a_node8"><a xlink:href="classMotywy_1_1Fragmenty.html#a1d32b57c48e3938e88c61779d38cb519" target="_top" xlink:title=" ">
<polygon fill="white" stroke="#666666" points="560,-256 421,-256 421,-226 560,-226 560,-256"/>
<text text-anchor="start" x="429" y="-244" font-family="Helvetica,sans-Serif" font-size="10.00">Motywy.Fragmenty.Wypełnij</text>
<text text-anchor="middle" x="490.5" y="-233" font-family="Helvetica,sans-Serif" font-size="10.00">TablicęSkróconą</text>
</a>
</g>
</g>
<!-- Node4&#45;&gt;Node8 -->
<g id="edge7" class="edge">
<title>Node4&#45;&gt;Node8</title>
<path fill="none" stroke="#63b8ff" d="M618.55,-241C599.36,-241 578.92,-241 560.19,-241"/>
<polygon fill="#63b8ff" stroke="#63b8ff" points="618.76,-244.5 628.76,-241 618.76,-237.5 618.76,-244.5"/>
</g>
<!-- Node6 -->
<g id="node6" class="node">
<title>Node6</title>
<g id="a_node6"><a xlink:href="classMotywy_1_1Fragmenty.html#af142a18268a561dcafe100a07e2b1928" target="_top" xlink:title=" ">
<polygon fill="white" stroke="#666666" points="359,-256 225,-256 225,-226 359,-226 359,-256"/>
<text text-anchor="start" x="233" y="-244" font-family="Helvetica,sans-Serif" font-size="10.00">Motywy.Fragmenty.Utwórz</text>
<text text-anchor="middle" x="292" y="-233" font-family="Helvetica,sans-Serif" font-size="10.00">MacierzMotywów</text>
</a>
</g>
</g>
<!-- Node5&#45;&gt;Node6 -->
<g id="edge5" class="edge">
<title>Node5&#45;&gt;Node6</title>
<path fill="none" stroke="#63b8ff" d="M418.1,-271.56C397.23,-266.46 374.61,-260.93 354.42,-256"/>
<polygon fill="#63b8ff" stroke="#63b8ff" points="417.32,-274.97 427.87,-273.94 418.98,-268.17 417.32,-274.97"/>
</g>
<!-- Node7 -->
<g id="node7" class="node">
<title>Node7</title>
<g id="a_node7"><a xlink:href="classporownania_1_1Rezultat.html#abfab722f91bb304108e01333fdbf5cf3" target="_top" xlink:title=" ">
<polygon fill="white" stroke="#666666" points="160.5,-250.5 18.5,-250.5 18.5,-231.5 160.5,-231.5 160.5,-250.5"/>
<text text-anchor="middle" x="89.5" y="-238.5" font-family="Helvetica,sans-Serif" font-size="10.00">porownania.Rezultat.toString</text>
</a>
</g>
</g>
<!-- Node6&#45;&gt;Node7 -->
<g id="edge6" class="edge">
<title>Node6&#45;&gt;Node7</title>
<path fill="none" stroke="#63b8ff" d="M214.53,-241C196.87,-241 178.16,-241 160.77,-241"/>
<polygon fill="#63b8ff" stroke="#63b8ff" points="214.79,-244.5 224.79,-241 214.79,-237.5 214.79,-244.5"/>
</g>
<!-- Node8&#45;&gt;Node6 -->
<g id="edge8" class="edge">
<title>Node8&#45;&gt;Node6</title>
<path fill="none" stroke="#63b8ff" d="M410.3,-241C393.29,-241 375.49,-241 359.04,-241"/>
<polygon fill="#63b8ff" stroke="#63b8ff" points="410.77,-244.5 420.77,-241 410.77,-237.5 410.77,-244.5"/>
</g>
<!-- Node10&#45;&gt;Node6 -->
<g id="edge11" class="edge">
<title>Node10&#45;&gt;Node6</title>
<path fill="none" stroke="#63b8ff" d="M436.04,-209.7C412.36,-214.88 384.27,-221.03 359.28,-226.5"/>
<polygon fill="#63b8ff" stroke="#63b8ff" points="436.87,-213.1 445.89,-207.54 435.37,-206.26 436.87,-213.1"/>
</g>
<!-- Node12 -->
<g id="node12" class="node">
<title>Node12</title>
<g id="a_node12"><a xlink:href="classMotywy_1_1Por_xC3_xB3wnanieZZadanym.html#a11ff4401b316e36ea9263506ab0eeefa" target="_top" xlink:title=" ">
<polygon fill="white" stroke="#666666" points="369,-32 215,-32 215,-2 369,-2 369,-32"/>
<text text-anchor="start" x="223" y="-20" font-family="Helvetica,sans-Serif" font-size="10.00">Motywy.PorównanieZZadanym.</text>
<text text-anchor="middle" x="292" y="-9" font-family="Helvetica,sans-Serif" font-size="10.00">ZrealizujPorównanie</text>
</a>
</g>
</g>
<!-- Node11&#45;&gt;Node12 -->
<g id="edge13" class="edge">
<title>Node11&#45;&gt;Node12</title>
<path fill="none" stroke="#63b8ff" d="M609.51,-13.94C551.63,-13.42 473.74,-13.08 405,-14 393.43,-14.15 381.18,-14.4 369.21,-14.68"/>
<polygon fill="#63b8ff" stroke="#63b8ff" points="609.68,-17.44 619.72,-14.04 609.75,-10.44 609.68,-17.44"/>
</g>
<!-- Node13 -->
<g id="node13" class="node">
<title>Node13</title>
<g id="a_node13"><a xlink:href="classporownania_1_1AnalizaPor_xC3_xB3wnawcza.html#a4fb7b99f4ed968c3c62c6fa132b19938" target="_top" xlink:title=" ">
<polygon fill="white" stroke="#666666" points="179,-26.5 0,-26.5 0,-7.5 179,-7.5 179,-26.5"/>
<text text-anchor="middle" x="89.5" y="-14.5" font-family="Helvetica,sans-Serif" font-size="10.00">porownania.AnalizaPorównawcza.run</text>
</a>
</g>
</g>
<!-- Node12&#45;&gt;Node13 -->
<g id="edge14" class="edge">
<title>Node12&#45;&gt;Node13</title>
<path fill="none" stroke="#63b8ff" d="M204.73,-17C196.31,-17 187.76,-17 179.31,-17"/>
<polygon fill="#63b8ff" stroke="#63b8ff" points="204.91,-20.5 214.91,-17 204.91,-13.5 204.91,-20.5"/>
</g>
<!-- Node15 -->
<g id="node15" class="node">
<title>Node15</title>
<g id="a_node15"><a xlink:href="classMotywy_1_1Por_xC3_xB3wnanieZZadanym.html#afc411b58aadd60fadcab90ad9f76e3d5" target="_top" xlink:title=" ">
<polygon fill="white" stroke="#666666" points="567.5,-53 413.5,-53 413.5,-23 567.5,-23 567.5,-53"/>
<text text-anchor="start" x="421.5" y="-41" font-family="Helvetica,sans-Serif" font-size="10.00">Motywy.PorównanieZZadanym.</text>
<text text-anchor="middle" x="490.5" y="-30" font-family="Helvetica,sans-Serif" font-size="10.00">ObliczRóżnicę</text>
</a>
</g>
</g>
<!-- Node14&#45;&gt;Node15 -->
<g id="edge16" class="edge">
<title>Node14&#45;&gt;Node15</title>
<path fill="none" stroke="#63b8ff" d="M631.91,-62.72C611.57,-59.14 588.87,-55.14 567.76,-51.42"/>
<polygon fill="#63b8ff" stroke="#63b8ff" points="631.55,-66.21 642,-64.49 632.76,-59.31 631.55,-66.21"/>
</g>
<!-- Node16 -->
<g id="node16" class="node">
<title>Node16</title>
<g id="a_node16"><a xlink:href="classMotywy_1_1ParaMotyw_xC3_xB3w.html#ab931de0cb5af4fd954d48d91c1de5c24" target="_top" xlink:title=" ">
<polygon fill="white" stroke="#666666" points="361,-118 223,-118 223,-88 361,-88 361,-118"/>
<text text-anchor="start" x="231" y="-106" font-family="Helvetica,sans-Serif" font-size="10.00">Motywy.ParaMotywów.Para</text>
<text text-anchor="middle" x="292" y="-95" font-family="Helvetica,sans-Serif" font-size="10.00">Motywów</text>
</a>
</g>
</g>
<!-- Node14&#45;&gt;Node16 -->
<g id="edge18" class="edge">
<title>Node14&#45;&gt;Node16</title>
<path fill="none" stroke="#63b8ff" d="M601.3,-80.81C527.54,-86.12 426.94,-93.36 361.01,-98.11"/>
<polygon fill="#63b8ff" stroke="#63b8ff" points="601.8,-84.29 611.52,-80.08 601.29,-77.31 601.8,-84.29"/>
</g>
<!-- Node15&#45;&gt;Node12 -->
<g id="edge17" class="edge">
<title>Node15&#45;&gt;Node12</title>
<path fill="none" stroke="#63b8ff" d="M402.99,-28.75C391.74,-27.55 380.28,-26.33 369.21,-25.14"/>
<polygon fill="#63b8ff" stroke="#63b8ff" points="402.93,-32.27 413.25,-29.85 403.68,-25.31 402.93,-32.27"/>
</g>
<!-- Node17&#45;&gt;Node9 -->
<g id="edge20" class="edge">
<title>Node17&#45;&gt;Node9</title>
<path fill="none" stroke="#63b8ff" d="M612.68,-134.11C587.14,-139.36 559.96,-144.94 537.83,-149.48"/>
<polygon fill="#63b8ff" stroke="#63b8ff" points="613.66,-137.48 622.75,-132.04 612.25,-130.63 613.66,-137.48"/>
</g>
<!-- Node18 -->
<g id="node18" class="node">
<title>Node18</title>
<g id="a_node18"><a xlink:href="classMotywy_1_1Motyw.html#a7aa0c770a7e49f3fcfe491292039798c" target="_top" xlink:title=" ">
<polygon fill="white" stroke="#666666" points="563.5,-128.5 417.5,-128.5 417.5,-109.5 563.5,-109.5 563.5,-128.5"/>
<text text-anchor="middle" x="490.5" y="-116.5" font-family="Helvetica,sans-Serif" font-size="10.00">Motywy.Motyw.Odkrabowanie</text>
</a>
</g>
</g>
<!-- Node17&#45;&gt;Node18 -->
<g id="edge21" class="edge">
<title>Node17&#45;&gt;Node18</title>
<path fill="none" stroke="#63b8ff" d="M610.33,-117.84C594.82,-117.99 578.78,-118.15 563.7,-118.29"/>
<polygon fill="#63b8ff" stroke="#63b8ff" points="610.47,-121.34 620.43,-117.74 610.4,-114.34 610.47,-121.34"/>
</g>
<!-- Node18&#45;&gt;Node16 -->
<g id="edge22" class="edge">
<title>Node18&#45;&gt;Node16</title>
<path fill="none" stroke="#63b8ff" d="M407.42,-112.32C392.01,-111.06 376.05,-109.76 361.12,-108.55"/>
<polygon fill="#63b8ff" stroke="#63b8ff" points="407.2,-115.81 417.45,-113.13 407.76,-108.83 407.2,-115.81"/>
</g>
</g>
</svg>
