<?xml version="1.0" encoding="UTF-8" standalone="no"?>
<!DOCTYPE svg PUBLIC "-//W3C//DTD SVG 1.1//EN"
 "http://www.w3.org/Graphics/SVG/1.1/DTD/svg11.dtd">
<!-- Generated by graphviz version 2.49.3 (0)
 -->
<!-- Title: Struktury.Interpreter.getGłos Pages: 1 -->
<svg width="501pt" height="60pt"
 viewBox="0.00 0.00 501.00 60.00" xmlns="http://www.w3.org/2000/svg" xmlns:xlink="http://www.w3.org/1999/xlink">
<g id="graph0" class="graph" transform="scale(1 1) rotate(0) translate(4 56)">
<title>Struktury.Interpreter.getGłos</title>
<!-- Node1 -->
<g id="node1" class="node">
<title>Node1</title>
<g id="a_node1"><a xlink:title=" ">
<polygon fill="#999999" stroke="#666666" points="493,-30 372,-30 372,0 493,0 493,-30"/>
<text text-anchor="start" x="380" y="-18" font-family="Helvetica,sans-Serif" font-size="10.00">Struktury.Interpreter.get</text>
<text text-anchor="middle" x="432.5" y="-7" font-family="Helvetica,sans-Serif" font-size="10.00">Głos</text>
</a>
</g>
</g>
<!-- Node2 -->
<g id="node2" class="node">
<title>Node2</title>
<g id="a_node2"><a xlink:href="classStruktury_1_1Interpreter.html#a581247ec4c3f64207e3b8001b099be19" target="_top" xlink:title=" ">
<polygon fill="white" stroke="#666666" points="336,-52 215,-52 215,-22 336,-22 336,-52"/>
<text text-anchor="start" x="223" y="-40" font-family="Helvetica,sans-Serif" font-size="10.00">Struktury.Interpreter.get</text>
<text text-anchor="middle" x="275.5" y="-29" font-family="Helvetica,sans-Serif" font-size="10.00">CałośćPołączoną</text>
</a>
</g>
</g>
<!-- Node1&#45;&gt;Node2 -->
<g id="edge1" class="edge">
<title>Node1&#45;&gt;Node2</title>
<path fill="none" stroke="#63b8ff" d="M361.62,-24.92C353.07,-26.13 344.39,-27.36 336.01,-28.55"/>
<polygon fill="#63b8ff" stroke="#63b8ff" points="362.16,-28.38 371.57,-23.51 361.18,-21.45 362.16,-28.38"/>
</g>
<!-- Node3 -->
<g id="node3" class="node">
<title>Node3</title>
<g id="a_node3"><a xlink:href="classporownania_1_1AnalizaPor_xC3_xB3wnawcza.html#a4fb7b99f4ed968c3c62c6fa132b19938" target="_top" xlink:title=" ">
<polygon fill="white" stroke="#666666" points="179,-24.5 0,-24.5 0,-5.5 179,-5.5 179,-24.5"/>
<text text-anchor="middle" x="89.5" y="-12.5" font-family="Helvetica,sans-Serif" font-size="10.00">porownania.AnalizaPorównawcza.run</text>
</a>
</g>
</g>
<!-- Node1&#45;&gt;Node3 -->
<g id="edge3" class="edge">
<title>Node1&#45;&gt;Node3</title>
<path fill="none" stroke="#63b8ff" d="M361.77,-13.37C353.1,-13.22 344.34,-13.09 336,-13 282.23,-12.44 268.78,-12.57 215,-13 203.44,-13.09 191.27,-13.23 179.25,-13.4"/>
<polygon fill="#63b8ff" stroke="#63b8ff" points="361.84,-16.87 371.9,-13.56 361.97,-9.87 361.84,-16.87"/>
</g>
<!-- Node2&#45;&gt;Node3 -->
<g id="edge2" class="edge">
<title>Node2&#45;&gt;Node3</title>
<path fill="none" stroke="#63b8ff" d="M204.55,-28.64C193.27,-27.29 181.52,-25.88 170.03,-24.51"/>
<polygon fill="#63b8ff" stroke="#63b8ff" points="204.42,-32.15 214.76,-29.86 205.25,-25.19 204.42,-32.15"/>
</g>
</g>
</svg>
