<?xml version="1.0" encoding="UTF-8" standalone="no"?>
<!DOCTYPE svg PUBLIC "-//W3C//DTD SVG 1.1//EN"
 "http://www.w3.org/Graphics/SVG/1.1/DTD/svg11.dtd">
<!-- Generated by graphviz version 2.49.3 (0)
 -->
<!-- Title: ListaPodobienstw.ListaP.UsuńListę Pages: 1 -->
<svg width="301pt" height="56pt"
 viewBox="0.00 0.00 301.00 56.00" xmlns="http://www.w3.org/2000/svg" xmlns:xlink="http://www.w3.org/1999/xlink">
<g id="graph0" class="graph" transform="scale(1 1) rotate(0) translate(4 52)">
<title>ListaPodobienstw.ListaP.UsuńListę</title>
<!-- Node1 -->
<g id="node1" class="node">
<title>Node1</title>
<g id="a_node1"><a xlink:title=" ">
<polygon fill="#999999" stroke="#666666" points="125,-30 0,-30 0,0 125,0 125,-30"/>
<text text-anchor="start" x="8" y="-18" font-family="Helvetica,sans-Serif" font-size="10.00">ListaPodobienstw.ListaP.</text>
<text text-anchor="middle" x="62.5" y="-7" font-family="Helvetica,sans-Serif" font-size="10.00">UsuńListę</text>
</a>
</g>
</g>
<!-- Node2 -->
<g id="node2" class="node">
<title>Node2</title>
<g id="a_node2"><a xlink:href="classListaPodobienstw_1_1ElementListy.html#aaa657488025723816fdd2e631c62688d" target="_top" xlink:title=" ">
<polygon fill="white" stroke="#666666" points="293,-30 161,-30 161,0 293,0 293,-30"/>
<text text-anchor="start" x="169" y="-18" font-family="Helvetica,sans-Serif" font-size="10.00">ListaPodobienstw.Element</text>
<text text-anchor="middle" x="227" y="-7" font-family="Helvetica,sans-Serif" font-size="10.00">Listy.UsuńListę</text>
</a>
</g>
</g>
<!-- Node1&#45;&gt;Node2 -->
<g id="edge1" class="edge">
<title>Node1&#45;&gt;Node2</title>
<path fill="none" stroke="#63b8ff" d="M125.4,-15C133.62,-15 142.13,-15 150.55,-15"/>
<polygon fill="#63b8ff" stroke="#63b8ff" points="150.76,-18.5 160.76,-15 150.76,-11.5 150.76,-18.5"/>
</g>
<!-- Node2&#45;&gt;Node2 -->
<g id="edge2" class="edge">
<title>Node2&#45;&gt;Node2</title>
<path fill="none" stroke="#63b8ff" d="M198.17,-30.28C191.77,-39.41 201.38,-48 227,-48 242.21,-48 251.78,-44.97 255.71,-40.6"/>
<polygon fill="#63b8ff" stroke="#63b8ff" points="259.21,-40.32 255.83,-30.28 252.21,-40.23 259.21,-40.32"/>
</g>
</g>
</svg>
