<?xml version="1.0" encoding="UTF-8" standalone="no"?>
<!DOCTYPE svg PUBLIC "-//W3C//DTD SVG 1.1//EN"
 "http://www.w3.org/Graphics/SVG/1.1/DTD/svg11.dtd">
<!-- Generated by graphviz version 2.49.3 (0)
 -->
<!-- Title: Struktury.Arkusz.PokażArkusz Pages: 1 -->
<svg width="335pt" height="56pt"
 viewBox="0.00 0.00 335.00 56.00" xmlns="http://www.w3.org/2000/svg" xmlns:xlink="http://www.w3.org/1999/xlink">
<g id="graph0" class="graph" transform="scale(1 1) rotate(0) translate(4 52)">
<title>Struktury.Arkusz.PokażArkusz</title>
<!-- Node1 -->
<g id="node1" class="node">
<title>Node1</title>
<g id="a_node1"><a xlink:title=" ">
<polygon fill="#999999" stroke="#666666" points="153,-24.5 0,-24.5 0,-5.5 153,-5.5 153,-24.5"/>
<text text-anchor="middle" x="76.5" y="-12.5" font-family="Helvetica,sans-Serif" font-size="10.00">Struktury.Arkusz.PokażArkusz</text>
</a>
</g>
</g>
<!-- Node2 -->
<g id="node2" class="node">
<title>Node2</title>
<g id="a_node2"><a xlink:href="classStruktury_1_1Arkusz.html#ae8591575a4713c4b787d850bc4b5b7d7" target="_top" xlink:title=" ">
<polygon fill="white" stroke="#666666" points="327,-30 189,-30 189,0 327,0 327,-30"/>
<text text-anchor="start" x="197" y="-18" font-family="Helvetica,sans-Serif" font-size="10.00">Struktury.Arkusz.getNazwę</text>
<text text-anchor="middle" x="258" y="-7" font-family="Helvetica,sans-Serif" font-size="10.00">Kolumny</text>
</a>
</g>
</g>
<!-- Node1&#45;&gt;Node2 -->
<g id="edge1" class="edge">
<title>Node1&#45;&gt;Node2</title>
<path fill="none" stroke="#63b8ff" d="M153.1,-15C161.55,-15 170.17,-15 178.65,-15"/>
<polygon fill="#63b8ff" stroke="#63b8ff" points="178.9,-18.5 188.9,-15 178.9,-11.5 178.9,-18.5"/>
</g>
<!-- Node2&#45;&gt;Node2 -->
<g id="edge2" class="edge">
<title>Node2&#45;&gt;Node2</title>
<path fill="none" stroke="#63b8ff" d="M226.36,-30.28C219.33,-39.41 229.88,-48 258,-48 274.7,-48 285.2,-44.97 289.51,-40.6"/>
<polygon fill="#63b8ff" stroke="#63b8ff" points="293.01,-40.32 289.64,-30.28 286.01,-40.23 293.01,-40.32"/>
</g>
</g>
</svg>
