<?xml version="1.0" encoding="UTF-8" standalone="no"?>
<!DOCTYPE svg PUBLIC "-//W3C//DTD SVG 1.1//EN"
 "http://www.w3.org/Graphics/SVG/1.1/DTD/svg11.dtd">
<!-- Generated by graphviz version 2.49.3 (0)
 -->
<!-- Title: Struktury.Interpreter.Interpreter Pages: 1 -->
<svg width="905pt" height="516pt"
 viewBox="0.00 0.00 905.00 516.01" xmlns="http://www.w3.org/2000/svg" xmlns:xlink="http://www.w3.org/1999/xlink">
<g id="graph0" class="graph" transform="scale(1 1) rotate(0) translate(4 512.01)">
<title>Struktury.Interpreter.Interpreter</title>
<!-- Node1 -->
<g id="node1" class="node">
<title>Node1</title>
<g id="a_node1"><a xlink:title=" ">
<polygon fill="#999999" stroke="#666666" points="152,-340.5 0,-340.5 0,-321.5 152,-321.5 152,-340.5"/>
<text text-anchor="middle" x="76" y="-328.5" font-family="Helvetica,sans-Serif" font-size="10.00">Struktury.Interpreter.Interpreter</text>
</a>
</g>
</g>
<!-- Node2 -->
<g id="node2" class="node">
<title>Node2</title>
<g id="a_node2"><a xlink:href="classStruktury_1_1Interpreter.html#abfa2bbe5356269e3d3218957bd43ad81" target="_top" xlink:title=" ">
<polygon fill="white" stroke="#666666" points="334.5,-322 188.5,-322 188.5,-292 334.5,-292 334.5,-322"/>
<text text-anchor="start" x="196.5" y="-310" font-family="Helvetica,sans-Serif" font-size="10.00">Struktury.Interpreter.Przepisz</text>
<text text-anchor="middle" x="261.5" y="-299" font-family="Helvetica,sans-Serif" font-size="10.00">Arkusz</text>
</a>
</g>
</g>
<!-- Node1&#45;&gt;Node2 -->
<g id="edge1" class="edge">
<title>Node1&#45;&gt;Node2</title>
<path fill="none" stroke="#63b8ff" d="M149.79,-321.48C159.12,-320.26 168.73,-319 178.2,-317.76"/>
<polygon fill="#63b8ff" stroke="#63b8ff" points="178.94,-321.2 188.4,-316.43 178.03,-314.26 178.94,-321.2"/>
</g>
<!-- Node9 -->
<g id="node9" class="node">
<title>Node9</title>
<g id="a_node9"><a xlink:href="classStruktury_1_1Interpreter.html#a8d912ec5e4e42eaf2aac5f3f524e0172" target="_top" xlink:title=" ">
<polygon fill="white" stroke="#666666" points="335,-239 188,-239 188,-209 335,-209 335,-239"/>
<text text-anchor="start" x="196" y="-227" font-family="Helvetica,sans-Serif" font-size="10.00">Struktury.Interpreter.Uzupełnij</text>
<text text-anchor="middle" x="261.5" y="-216" font-family="Helvetica,sans-Serif" font-size="10.00">NumeryTaktów</text>
</a>
</g>
</g>
<!-- Node1&#45;&gt;Node9 -->
<g id="edge8" class="edge">
<title>Node1&#45;&gt;Node9</title>
<path fill="none" stroke="#63b8ff" d="M93.61,-321.32C123.26,-304.03 185.88,-267.51 225.42,-244.45"/>
<polygon fill="#63b8ff" stroke="#63b8ff" points="227.59,-247.24 234.46,-239.18 224.06,-241.2 227.59,-247.24"/>
</g>
<!-- Node14 -->
<g id="node14" class="node">
<title>Node14</title>
<g id="a_node14"><a xlink:href="classStruktury_1_1Interpreter.html#a3b1b460c28f4b8e6b25366069755ce0d" target="_top" xlink:title=" ">
<polygon fill="white" stroke="#666666" points="330,-370 193,-370 193,-340 330,-340 330,-370"/>
<text text-anchor="start" x="201" y="-358" font-family="Helvetica,sans-Serif" font-size="10.00">Struktury.Interpreter.Znajdź</text>
<text text-anchor="middle" x="261.5" y="-347" font-family="Helvetica,sans-Serif" font-size="10.00">AdresySłowaTakt</text>
</a>
</g>
</g>
<!-- Node1&#45;&gt;Node14 -->
<g id="edge19" class="edge">
<title>Node1&#45;&gt;Node14</title>
<path fill="none" stroke="#63b8ff" d="M149.79,-340.52C160.67,-341.94 171.92,-343.41 182.89,-344.85"/>
<polygon fill="#63b8ff" stroke="#63b8ff" points="182.5,-348.33 192.87,-346.16 183.41,-341.39 182.5,-348.33"/>
</g>
<!-- Node15 -->
<g id="node15" class="node">
<title>Node15</title>
<g id="a_node15"><a xlink:href="classStruktury_1_1Interpreter.html#a516c744ba909899cdea81e38deeb4526" target="_top" xlink:title=" ">
<polygon fill="white" stroke="#666666" points="330,-418 193,-418 193,-388 330,-388 330,-418"/>
<text text-anchor="start" x="201" y="-406" font-family="Helvetica,sans-Serif" font-size="10.00">Struktury.Interpreter.Znajdź</text>
<text text-anchor="middle" x="261.5" y="-395" font-family="Helvetica,sans-Serif" font-size="10.00">Systemy</text>
</a>
</g>
</g>
<!-- Node1&#45;&gt;Node15 -->
<g id="edge23" class="edge">
<title>Node1&#45;&gt;Node15</title>
<path fill="none" stroke="#63b8ff" d="M97.64,-340.58C119.76,-350.69 156.02,-366.82 188,-379 193.03,-380.92 198.3,-382.83 203.59,-384.69"/>
<polygon fill="#63b8ff" stroke="#63b8ff" points="202.5,-388.02 213.1,-387.98 204.79,-381.4 202.5,-388.02"/>
</g>
<!-- Node3 -->
<g id="node3" class="node">
<title>Node3</title>
<g id="a_node3"><a xlink:href="classStruktury_1_1Arkusz.html#a95b58aa18e3e7c03eac576d325233442" target="_top" xlink:title=" ">
<polygon fill="white" stroke="#666666" points="513.5,-392 377.5,-392 377.5,-362 513.5,-362 513.5,-392"/>
<text text-anchor="start" x="385.5" y="-380" font-family="Helvetica,sans-Serif" font-size="10.00">Struktury.Arkusz.getLiczbę</text>
<text text-anchor="middle" x="445.5" y="-369" font-family="Helvetica,sans-Serif" font-size="10.00">Wierszy</text>
</a>
</g>
</g>
<!-- Node2&#45;&gt;Node3 -->
<g id="edge2" class="edge">
<title>Node2&#45;&gt;Node3</title>
<path fill="none" stroke="#63b8ff" d="M313,-322.06C320.49,-324.76 328.02,-327.77 335,-331 352.01,-338.89 353.97,-345.15 371,-353 375.09,-354.88 379.37,-356.69 383.71,-358.4"/>
<polygon fill="#63b8ff" stroke="#63b8ff" points="382.7,-361.76 393.3,-361.99 385.16,-355.2 382.7,-361.76"/>
</g>
<!-- Node4 -->
<g id="node4" class="node">
<title>Node4</title>
<g id="a_node4"><a xlink:href="classStruktury_1_1Arkusz.html#a79857648540bf4023e641b2aff039798" target="_top" xlink:title=" ">
<polygon fill="white" stroke="#666666" points="513.5,-344 377.5,-344 377.5,-314 513.5,-314 513.5,-344"/>
<text text-anchor="start" x="385.5" y="-332" font-family="Helvetica,sans-Serif" font-size="10.00">Struktury.Arkusz.getLiczbę</text>
<text text-anchor="middle" x="445.5" y="-321" font-family="Helvetica,sans-Serif" font-size="10.00">Kolumn</text>
</a>
</g>
</g>
<!-- Node2&#45;&gt;Node4 -->
<g id="edge3" class="edge">
<title>Node2&#45;&gt;Node4</title>
<path fill="none" stroke="#63b8ff" d="M334.69,-315.73C345.37,-317.02 356.41,-318.35 367.19,-319.66"/>
<polygon fill="#63b8ff" stroke="#63b8ff" points="367.08,-323.17 377.43,-320.89 367.92,-316.22 367.08,-323.17"/>
</g>
<!-- Node5 -->
<g id="node5" class="node">
<title>Node5</title>
<g id="a_node5"><a xlink:href="classStruktury_1_1Arkusz.html#a2609006d8beb64d6e213f77f2ebca081" target="_top" xlink:title=" ">
<polygon fill="white" stroke="#666666" points="709,-295.5 556,-295.5 556,-276.5 709,-276.5 709,-295.5"/>
<text text-anchor="middle" x="632.5" y="-283.5" font-family="Helvetica,sans-Serif" font-size="10.00">Struktury.Arkusz.getZawartość</text>
</a>
</g>
</g>
<!-- Node2&#45;&gt;Node5 -->
<g id="edge4" class="edge">
<title>Node2&#45;&gt;Node5</title>
<path fill="none" stroke="#63b8ff" d="M334.52,-302.9C395.05,-299.46 481.68,-294.53 545.77,-290.88"/>
<polygon fill="#63b8ff" stroke="#63b8ff" points="546.07,-294.37 555.85,-290.31 545.67,-287.38 546.07,-294.37"/>
</g>
<!-- Node7 -->
<g id="node7" class="node">
<title>Node7</title>
<g id="a_node7"><a xlink:href="classStruktury_1_1Arkusz.html#a3747bcb1e5e0c4a73035e9578b6bf6d7" target="_top" xlink:title=" ">
<polygon fill="white" stroke="#666666" points="706,-133.5 559,-133.5 559,-114.5 706,-114.5 706,-133.5"/>
<text text-anchor="middle" x="632.5" y="-121.5" font-family="Helvetica,sans-Serif" font-size="10.00">Struktury.Arkusz.setKomórkę</text>
</a>
</g>
</g>
<!-- Node2&#45;&gt;Node7 -->
<g id="edge6" class="edge">
<title>Node2&#45;&gt;Node7</title>
<path fill="none" stroke="#63b8ff" d="M299.39,-292C349.98,-271.06 443.33,-231.13 520,-191 551.3,-174.62 585.99,-153.24 608.23,-139.08"/>
<polygon fill="#63b8ff" stroke="#63b8ff" points="610.14,-142.02 616.67,-133.68 606.36,-136.12 610.14,-142.02"/>
</g>
<!-- Node6 -->
<g id="node6" class="node">
<title>Node6</title>
<g id="a_node6"><a xlink:href="classStruktury_1_1Kom_xC3_xB3rkaArkusza.html#a42c4136f3d8445665c672404a0cf9b58" target="_top" xlink:title=" ">
<polygon fill="white" stroke="#666666" points="897,-301 745,-301 745,-271 897,-271 897,-301"/>
<text text-anchor="start" x="753" y="-289" font-family="Helvetica,sans-Serif" font-size="10.00">Struktury.KomórkaArkusza.get</text>
<text text-anchor="middle" x="821" y="-278" font-family="Helvetica,sans-Serif" font-size="10.00">Komórkę</text>
</a>
</g>
</g>
<!-- Node5&#45;&gt;Node6 -->
<g id="edge5" class="edge">
<title>Node5&#45;&gt;Node6</title>
<path fill="none" stroke="#63b8ff" d="M709.09,-286C717.58,-286 726.27,-286 734.87,-286"/>
<polygon fill="#63b8ff" stroke="#63b8ff" points="734.91,-289.5 744.91,-286 734.91,-282.5 734.91,-289.5"/>
</g>
<!-- Node8 -->
<g id="node8" class="node">
<title>Node8</title>
<g id="a_node8"><a xlink:href="classStruktury_1_1Kom_xC3_xB3rkaArkusza.html#a9e8a46a4fc47a0e2863c8f05528825a2" target="_top" xlink:title=" ">
<polygon fill="white" stroke="#666666" points="897,-139 745,-139 745,-109 897,-109 897,-139"/>
<text text-anchor="start" x="753" y="-127" font-family="Helvetica,sans-Serif" font-size="10.00">Struktury.KomórkaArkusza.set</text>
<text text-anchor="middle" x="821" y="-116" font-family="Helvetica,sans-Serif" font-size="10.00">Wartość</text>
</a>
</g>
</g>
<!-- Node7&#45;&gt;Node8 -->
<g id="edge7" class="edge">
<title>Node7&#45;&gt;Node8</title>
<path fill="none" stroke="#63b8ff" d="M706.14,-124C715.45,-124 725.06,-124 734.55,-124"/>
<polygon fill="#63b8ff" stroke="#63b8ff" points="734.79,-127.5 744.79,-124 734.79,-120.5 734.79,-127.5"/>
</g>
<!-- Node9&#45;&gt;Node4 -->
<g id="edge10" class="edge">
<title>Node9&#45;&gt;Node4</title>
<path fill="none" stroke="#63b8ff" d="M288.58,-239.04C320.34,-257.37 374.11,-288.39 409.46,-308.79"/>
<polygon fill="#63b8ff" stroke="#63b8ff" points="408.06,-312.02 418.47,-313.98 411.56,-305.96 408.06,-312.02"/>
</g>
<!-- Node9&#45;&gt;Node5 -->
<g id="edge11" class="edge">
<title>Node9&#45;&gt;Node5</title>
<path fill="none" stroke="#63b8ff" d="M335.4,-236.25C402.09,-247.45 499.94,-263.9 564.65,-274.77"/>
<polygon fill="#63b8ff" stroke="#63b8ff" points="564.3,-278.26 574.75,-276.46 565.46,-271.36 564.3,-278.26"/>
</g>
<!-- Node9&#45;&gt;Node7 -->
<g id="edge12" class="edge">
<title>Node9&#45;&gt;Node7</title>
<path fill="none" stroke="#63b8ff" d="M276.97,-208.79C296.33,-189.58 332.68,-157.3 371,-143 427.76,-121.83 496.22,-117.58 548.71,-118.36"/>
<polygon fill="#63b8ff" stroke="#63b8ff" points="548.92,-121.86 558.99,-118.57 549.07,-114.86 548.92,-121.86"/>
</g>
<!-- Node10 -->
<g id="node10" class="node">
<title>Node10</title>
<g id="a_node10"><a xlink:href="classStruktury_1_1Interpreter.html#a181600cf12a6cf4acdf07540c80cdd4b" target="_top" xlink:title=" ">
<polygon fill="white" stroke="#666666" points="508,-182 383,-182 383,-152 508,-152 508,-182"/>
<text text-anchor="start" x="391" y="-170" font-family="Helvetica,sans-Serif" font-size="10.00">Struktury.Interpreter.Czy</text>
<text text-anchor="middle" x="445.5" y="-159" font-family="Helvetica,sans-Serif" font-size="10.00">WszystkiePuste</text>
</a>
</g>
</g>
<!-- Node9&#45;&gt;Node10 -->
<g id="edge9" class="edge">
<title>Node9&#45;&gt;Node10</title>
<path fill="none" stroke="#63b8ff" d="M310.79,-208.87C334.03,-201.6 362.06,-192.82 386.45,-185.18"/>
<polygon fill="#63b8ff" stroke="#63b8ff" points="387.8,-188.43 396.3,-182.1 385.71,-181.75 387.8,-188.43"/>
</g>
<!-- Node11 -->
<g id="node11" class="node">
<title>Node11</title>
<g id="a_node11"><a xlink:href="classStruktury_1_1Interpreter.html#a25a48e8f946a2b064cbfef8be68e1820" target="_top" xlink:title=" ">
<polygon fill="white" stroke="#666666" points="520,-96 371,-96 371,-66 520,-66 520,-96"/>
<text text-anchor="start" x="379" y="-84" font-family="Helvetica,sans-Serif" font-size="10.00">Struktury.Interpreter.Walidacja</text>
<text text-anchor="middle" x="445.5" y="-73" font-family="Helvetica,sans-Serif" font-size="10.00">Liczb</text>
</a>
</g>
</g>
<!-- Node9&#45;&gt;Node11 -->
<g id="edge13" class="edge">
<title>Node9&#45;&gt;Node11</title>
<path fill="none" stroke="#63b8ff" d="M273.53,-208.69C291.5,-184.7 329.31,-138.09 371,-110 376.3,-106.43 382.11,-103.2 388.06,-100.3"/>
<polygon fill="#63b8ff" stroke="#63b8ff" points="389.82,-103.34 397.48,-96.02 386.93,-96.97 389.82,-103.34"/>
</g>
<!-- Node11&#45;&gt;Node5 -->
<g id="edge17" class="edge">
<title>Node11&#45;&gt;Node5</title>
<path fill="none" stroke="#63b8ff" d="M466.51,-96.02C481.87,-107.98 503.22,-125.56 520,-143 560.01,-184.58 599.88,-239.92 619.31,-268"/>
<polygon fill="#63b8ff" stroke="#63b8ff" points="616.54,-270.16 625.08,-276.42 622.31,-266.2 616.54,-270.16"/>
</g>
<!-- Node11&#45;&gt;Node7 -->
<g id="edge18" class="edge">
<title>Node11&#45;&gt;Node7</title>
<path fill="none" stroke="#63b8ff" d="M511.2,-96.04C533.96,-101.33 559.19,-107.19 580.65,-112.18"/>
<polygon fill="#63b8ff" stroke="#63b8ff" points="580,-115.62 590.53,-114.48 581.58,-108.8 580,-115.62"/>
</g>
<!-- Node12 -->
<g id="node12" class="node">
<title>Node12</title>
<g id="a_node12"><a xlink:href="classStruktury_1_1Interpreter.html#a1da1fa6fac2c58bb39c6ddb88ee73391" target="_top" xlink:title=" ">
<polygon fill="white" stroke="#666666" points="695,-96 570,-96 570,-66 695,-66 695,-96"/>
<text text-anchor="start" x="578" y="-84" font-family="Helvetica,sans-Serif" font-size="10.00">Struktury.Interpreter.Czy</text>
<text text-anchor="middle" x="632.5" y="-73" font-family="Helvetica,sans-Serif" font-size="10.00">Liczba</text>
</a>
</g>
</g>
<!-- Node11&#45;&gt;Node12 -->
<g id="edge14" class="edge">
<title>Node11&#45;&gt;Node12</title>
<path fill="none" stroke="#63b8ff" d="M520.15,-81C533.11,-81 546.58,-81 559.5,-81"/>
<polygon fill="#63b8ff" stroke="#63b8ff" points="559.71,-84.5 569.71,-81 559.71,-77.5 559.71,-84.5"/>
</g>
<!-- Node13 -->
<g id="node13" class="node">
<title>Node13</title>
<g id="a_node13"><a xlink:href="classStruktury_1_1Arkusz.html#ae8591575a4713c4b787d850bc4b5b7d7" target="_top" xlink:title=" ">
<polygon fill="white" stroke="#666666" points="701.5,-30 563.5,-30 563.5,0 701.5,0 701.5,-30"/>
<text text-anchor="start" x="571.5" y="-18" font-family="Helvetica,sans-Serif" font-size="10.00">Struktury.Arkusz.getNazwę</text>
<text text-anchor="middle" x="632.5" y="-7" font-family="Helvetica,sans-Serif" font-size="10.00">Kolumny</text>
</a>
</g>
</g>
<!-- Node11&#45;&gt;Node13 -->
<g id="edge15" class="edge">
<title>Node11&#45;&gt;Node13</title>
<path fill="none" stroke="#63b8ff" d="M488.94,-65.86C515.97,-56.22 551.16,-43.66 579.81,-33.44"/>
<polygon fill="#63b8ff" stroke="#63b8ff" points="581.01,-36.73 589.25,-30.07 578.66,-30.13 581.01,-36.73"/>
</g>
<!-- Node13&#45;&gt;Node13 -->
<g id="edge16" class="edge">
<title>Node13&#45;&gt;Node13</title>
<path fill="none" stroke="#63b8ff" d="M599.8,-30.28C592.54,-39.41 603.44,-48 632.5,-48 649.76,-48 660.61,-44.97 665.06,-40.6"/>
<polygon fill="#63b8ff" stroke="#63b8ff" points="668.56,-40.32 665.2,-30.28 661.56,-40.23 668.56,-40.32"/>
</g>
<!-- Node14&#45;&gt;Node3 -->
<g id="edge22" class="edge">
<title>Node14&#45;&gt;Node3</title>
<path fill="none" stroke="#63b8ff" d="M330.01,-363.16C342.1,-364.62 354.79,-366.16 367.13,-367.65"/>
<polygon fill="#63b8ff" stroke="#63b8ff" points="367.05,-371.16 377.4,-368.89 367.89,-364.21 367.05,-371.16"/>
</g>
<!-- Node14&#45;&gt;Node4 -->
<g id="edge20" class="edge">
<title>Node14&#45;&gt;Node4</title>
<path fill="none" stroke="#63b8ff" d="M330.01,-345.36C342.1,-343.63 354.79,-341.82 367.13,-340.05"/>
<polygon fill="#63b8ff" stroke="#63b8ff" points="368,-343.46 377.4,-338.59 367.01,-336.54 368,-343.46"/>
</g>
<!-- Node14&#45;&gt;Node5 -->
<g id="edge21" class="edge">
<title>Node14&#45;&gt;Node5</title>
<path fill="none" stroke="#63b8ff" d="M313,-370.06C320.49,-372.76 328.02,-375.77 335,-379 352.01,-386.89 352.95,-395.92 371,-401 434.75,-418.94 459.02,-426.81 520,-401 566.73,-381.22 603.5,-331.2 620.76,-304.11"/>
<polygon fill="#63b8ff" stroke="#63b8ff" points="623.76,-305.92 626.03,-295.57 617.8,-302.24 623.76,-305.92"/>
</g>
<!-- Node15&#45;&gt;Node3 -->
<g id="edge26" class="edge">
<title>Node15&#45;&gt;Node3</title>
<path fill="none" stroke="#63b8ff" d="M330.01,-393.36C342.1,-391.63 354.79,-389.82 367.13,-388.05"/>
<polygon fill="#63b8ff" stroke="#63b8ff" points="368,-391.46 377.4,-386.59 367.01,-384.54 368,-391.46"/>
</g>
<!-- Node15&#45;&gt;Node4 -->
<g id="edge25" class="edge">
<title>Node15&#45;&gt;Node4</title>
<path fill="none" stroke="#63b8ff" d="M314.39,-387.99C321.46,-385.32 328.51,-382.32 335,-379 352.57,-370.02 353.41,-361.95 371,-353 374.53,-351.2 378.23,-349.5 382,-347.9"/>
<polygon fill="#63b8ff" stroke="#63b8ff" points="383.51,-351.06 391.5,-344.11 380.91,-344.56 383.51,-351.06"/>
</g>
<!-- Node15&#45;&gt;Node5 -->
<g id="edge27" class="edge">
<title>Node15&#45;&gt;Node5</title>
<path fill="none" stroke="#63b8ff" d="M275.72,-418.16C294.51,-438.43 331.1,-473.36 371,-487 433.66,-508.42 462.94,-520.6 520,-487 588.5,-446.67 617.91,-347.4 627.58,-305.34"/>
<polygon fill="#63b8ff" stroke="#63b8ff" points="631.02,-306.03 629.72,-295.51 624.18,-304.54 631.02,-306.03"/>
</g>
<!-- Node16 -->
<g id="node16" class="node">
<title>Node16</title>
<g id="a_node16"><a xlink:href="classStruktury_1_1SystemG_xC5_x82os.html#a60e4f3a5508b5bb8ef95db68dae93add" target="_top" xlink:title=" ">
<polygon fill="white" stroke="#666666" points="512.5,-478 378.5,-478 378.5,-448 512.5,-448 512.5,-478"/>
<text text-anchor="start" x="386.5" y="-466" font-family="Helvetica,sans-Serif" font-size="10.00">Struktury.SystemGłos.Czy</text>
<text text-anchor="middle" x="445.5" y="-455" font-family="Helvetica,sans-Serif" font-size="10.00">System</text>
</a>
</g>
</g>
<!-- Node15&#45;&gt;Node16 -->
<g id="edge24" class="edge">
<title>Node15&#45;&gt;Node16</title>
<path fill="none" stroke="#63b8ff" d="M308.43,-418.14C332.98,-426.24 363.4,-436.26 389.24,-444.78"/>
<polygon fill="#63b8ff" stroke="#63b8ff" points="388.31,-448.16 398.9,-447.97 390.5,-441.51 388.31,-448.16"/>
</g>
</g>
</svg>
