<?xml version="1.0" encoding="UTF-8" standalone="no"?>
<!DOCTYPE svg PUBLIC "-//W3C//DTD SVG 1.1//EN"
 "http://www.w3.org/Graphics/SVG/1.1/DTD/svg11.dtd">
<!-- Generated by graphviz version 2.49.3 (0)
 -->
<!-- Title: ListaPodobienstw.ListaP.toString Pages: 1 -->
<svg width="310pt" height="56pt"
 viewBox="0.00 0.00 310.00 56.00" xmlns="http://www.w3.org/2000/svg" xmlns:xlink="http://www.w3.org/1999/xlink">
<g id="graph0" class="graph" transform="scale(1 1) rotate(0) translate(4 52)">
<title>ListaPodobienstw.ListaP.toString</title>
<!-- Node1 -->
<g id="node1" class="node">
<title>Node1</title>
<g id="a_node1"><a xlink:title=" ">
<polygon fill="#999999" stroke="#666666" points="134,-30 0,-30 0,0 134,0 134,-30"/>
<text text-anchor="start" x="8" y="-18" font-family="Helvetica,sans-Serif" font-size="10.00">ListaPodobienstw.ListaP.to</text>
<text text-anchor="middle" x="67" y="-7" font-family="Helvetica,sans-Serif" font-size="10.00">String</text>
</a>
</g>
</g>
<!-- Node2 -->
<g id="node2" class="node">
<title>Node2</title>
<g id="a_node2"><a xlink:href="classListaPodobienstw_1_1ElementListy.html#ad0cc40c8d2a5ab7845707bac5752f8e0" target="_top" xlink:title=" ">
<polygon fill="white" stroke="#666666" points="302,-30 170,-30 170,0 302,0 302,-30"/>
<text text-anchor="start" x="178" y="-18" font-family="Helvetica,sans-Serif" font-size="10.00">ListaPodobienstw.Element</text>
<text text-anchor="middle" x="236" y="-7" font-family="Helvetica,sans-Serif" font-size="10.00">Listy.GenerujOpis</text>
</a>
</g>
</g>
<!-- Node1&#45;&gt;Node2 -->
<g id="edge1" class="edge">
<title>Node1&#45;&gt;Node2</title>
<path fill="none" stroke="#63b8ff" d="M134,-15C142.46,-15 151.16,-15 159.75,-15"/>
<polygon fill="#63b8ff" stroke="#63b8ff" points="159.75,-18.5 169.75,-15 159.75,-11.5 159.75,-18.5"/>
</g>
<!-- Node2&#45;&gt;Node2 -->
<g id="edge2" class="edge">
<title>Node2&#45;&gt;Node2</title>
<path fill="none" stroke="#63b8ff" d="M206.47,-30.28C199.91,-39.41 209.75,-48 236,-48 251.59,-48 261.39,-44.97 265.41,-40.6"/>
<polygon fill="#63b8ff" stroke="#63b8ff" points="268.91,-40.32 265.53,-30.28 261.91,-40.23 268.91,-40.32"/>
</g>
</g>
</svg>
