<?xml version="1.0" encoding="UTF-8" standalone="no"?>
<!DOCTYPE svg PUBLIC "-//W3C//DTD SVG 1.1//EN"
 "http://www.w3.org/Graphics/SVG/1.1/DTD/svg11.dtd">
<!-- Generated by graphviz version 2.49.3 (0)
 -->
<!-- Title: Motywy.Fragmenty.UtwórzMacierzMotywów Pages: 1 -->
<svg width="960pt" height="607pt"
 viewBox="0.00 0.00 960.00 606.50" xmlns="http://www.w3.org/2000/svg" xmlns:xlink="http://www.w3.org/1999/xlink">
<g id="graph0" class="graph" transform="scale(1 1) rotate(0) translate(4 602.5)">
<title>Motywy.Fragmenty.UtwórzMacierzMotywów</title>
<!-- Node1 -->
<g id="node1" class="node">
<title>Node1</title>
<g id="a_node1"><a xlink:title=" ">
<polygon fill="#999999" stroke="#666666" points="134,-136.5 0,-136.5 0,-106.5 134,-106.5 134,-136.5"/>
<text text-anchor="start" x="8" y="-124.5" font-family="Helvetica,sans-Serif" font-size="10.00">Motywy.Fragmenty.Utwórz</text>
<text text-anchor="middle" x="67" y="-113.5" font-family="Helvetica,sans-Serif" font-size="10.00">MacierzMotywów</text>
</a>
</g>
</g>
<!-- Node2 -->
<g id="node2" class="node">
<title>Node2</title>
<g id="a_node2"><a xlink:href="classMotywy_1_1ParaMotyw_xC3_xB3w.html#ab847e648dd51f9b94baa11ae764d938b" target="_top" xlink:title=" ">
<polygon fill="white" stroke="#666666" points="754,-111 588,-111 588,-92 754,-92 754,-111"/>
<text text-anchor="middle" x="671" y="-99" font-family="Helvetica,sans-Serif" font-size="10.00">Motywy.ParaMotywów.getMotyw1</text>
</a>
</g>
</g>
<!-- Node1&#45;&gt;Node2 -->
<g id="edge1" class="edge">
<title>Node1&#45;&gt;Node2</title>
<path fill="none" stroke="#63b8ff" d="M134.11,-123.73C146.05,-124.05 158.4,-124.33 170,-124.5 334.93,-126.92 376.51,-126.75 541,-114.5 552.84,-113.62 565.27,-112.55 577.55,-111.4"/>
<polygon fill="#63b8ff" stroke="#63b8ff" points="578.2,-114.86 587.82,-110.43 577.53,-107.89 578.2,-114.86"/>
</g>
<!-- Node3 -->
<g id="node3" class="node">
<title>Node3</title>
<g id="a_node3"><a xlink:href="classMotywy_1_1Fragmenty.html#ad6dbd2d8ea7ecfeca7f68979356f7921" target="_top" xlink:title=" ">
<polygon fill="white" stroke="#666666" points="323.5,-67.5 180.5,-67.5 180.5,-37.5 323.5,-37.5 323.5,-67.5"/>
<text text-anchor="start" x="188.5" y="-55.5" font-family="Helvetica,sans-Serif" font-size="10.00">Motywy.Fragmenty.Inicjalizuj</text>
<text text-anchor="middle" x="252" y="-44.5" font-family="Helvetica,sans-Serif" font-size="10.00">TablicęSkróconą</text>
</a>
</g>
</g>
<!-- Node1&#45;&gt;Node3 -->
<g id="edge2" class="edge">
<title>Node1&#45;&gt;Node3</title>
<path fill="none" stroke="#63b8ff" d="M99.28,-106.46C119.25,-97.17 145.83,-85.37 170,-76.5 175.47,-74.49 181.19,-72.53 186.95,-70.65"/>
<polygon fill="#63b8ff" stroke="#63b8ff" points="188.19,-73.93 196.66,-67.56 186.07,-67.26 188.19,-73.93"/>
</g>
<!-- Node4 -->
<g id="node4" class="node">
<title>Node4</title>
<g id="a_node4"><a xlink:href="classMotywy_1_1Fragmenty.html#a625e43ec2c0a7c705a0235fb23e9abc3" target="_top" xlink:title=" ">
<polygon fill="white" stroke="#666666" points="541,-427 370,-427 370,-408 541,-408 541,-427"/>
<text text-anchor="middle" x="455.5" y="-415" font-family="Helvetica,sans-Serif" font-size="10.00">Motywy.Fragmenty.MotywInterwały</text>
</a>
</g>
</g>
<!-- Node1&#45;&gt;Node4 -->
<g id="edge3" class="edge">
<title>Node1&#45;&gt;Node4</title>
<path fill="none" stroke="#63b8ff" d="M84.58,-136.77C104.44,-154.88 138.95,-185.74 170,-210.5 264.64,-285.97 383.23,-368.64 431.99,-402.14"/>
<polygon fill="#63b8ff" stroke="#63b8ff" points="430.03,-405.04 440.26,-407.8 433.99,-399.26 430.03,-405.04"/>
</g>
<!-- Node13 -->
<g id="node13" class="node">
<title>Node13</title>
<g id="a_node13"><a xlink:href="classMotywy_1_1Motyw.html#acbc1bdf91cad9c5a20f243834dc299e8" target="_top" xlink:title=" ">
<polygon fill="white" stroke="#666666" points="311.5,-19 192.5,-19 192.5,0 311.5,0 311.5,-19"/>
<text text-anchor="middle" x="252" y="-7" font-family="Helvetica,sans-Serif" font-size="10.00">Motywy.Motyw.toString</text>
</a>
</g>
</g>
<!-- Node1&#45;&gt;Node13 -->
<g id="edge12" class="edge">
<title>Node1&#45;&gt;Node13</title>
<path fill="none" stroke="#63b8ff" d="M80.13,-106.4C97.69,-85.58 132.26,-48.38 170,-28.5 174.52,-26.12 179.33,-24.04 184.27,-22.21"/>
<polygon fill="#63b8ff" stroke="#63b8ff" points="185.51,-25.49 193.89,-19.01 183.3,-18.85 185.51,-25.49"/>
</g>
<!-- Node14 -->
<g id="node14" class="node">
<title>Node14</title>
<g id="a_node14"><a xlink:href="classMotywy_1_1Fragmenty.html#a0980cac3e787436873aefd34d196428f" target="_top" xlink:title=" ">
<polygon fill="white" stroke="#666666" points="334,-201.5 170,-201.5 170,-171.5 334,-171.5 334,-201.5"/>
<text text-anchor="start" x="178" y="-189.5" font-family="Helvetica,sans-Serif" font-size="10.00">Motywy.Fragmenty.TwórzIndeksy</text>
<text text-anchor="middle" x="252" y="-178.5" font-family="Helvetica,sans-Serif" font-size="10.00">Liczbowe</text>
</a>
</g>
</g>
<!-- Node1&#45;&gt;Node14 -->
<g id="edge13" class="edge">
<title>Node1&#45;&gt;Node14</title>
<path fill="none" stroke="#63b8ff" d="M110.44,-136.58C136.8,-145.94 170.85,-158.03 198.84,-167.97"/>
<polygon fill="#63b8ff" stroke="#63b8ff" points="197.88,-171.34 208.47,-171.39 200.22,-164.75 197.88,-171.34"/>
</g>
<!-- Node20 -->
<g id="node20" class="node">
<title>Node20</title>
<g id="a_node20"><a xlink:href="classMotywy_1_1Fragmenty.html#a1d32b57c48e3938e88c61779d38cb519" target="_top" xlink:title=" ">
<polygon fill="white" stroke="#666666" points="321.5,-115.5 182.5,-115.5 182.5,-85.5 321.5,-85.5 321.5,-115.5"/>
<text text-anchor="start" x="190.5" y="-103.5" font-family="Helvetica,sans-Serif" font-size="10.00">Motywy.Fragmenty.Wypełnij</text>
<text text-anchor="middle" x="252" y="-92.5" font-family="Helvetica,sans-Serif" font-size="10.00">TablicęSkróconą</text>
</a>
</g>
</g>
<!-- Node1&#45;&gt;Node20 -->
<g id="edge22" class="edge">
<title>Node1&#45;&gt;Node20</title>
<path fill="none" stroke="#63b8ff" d="M134.07,-113.92C146.43,-112.5 159.46,-111 172.16,-109.55"/>
<polygon fill="#63b8ff" stroke="#63b8ff" points="172.72,-113.01 182.26,-108.39 171.92,-106.05 172.72,-113.01"/>
</g>
<!-- Node5 -->
<g id="node5" class="node">
<title>Node5</title>
<g id="a_node5"><a xlink:href="classStruktury_1_1Zdarzenie.html#a66f9cf0ce45f65b56860711d9a5afb13" target="_top" xlink:title=" ">
<polygon fill="white" stroke="#666666" points="739.5,-598.5 602.5,-598.5 602.5,-568.5 739.5,-568.5 739.5,-598.5"/>
<text text-anchor="start" x="610.5" y="-586.5" font-family="Helvetica,sans-Serif" font-size="10.00">Struktury.Zdarzenie.getCzy</text>
<text text-anchor="middle" x="671" y="-575.5" font-family="Helvetica,sans-Serif" font-size="10.00">InterwałJestPoczątkowy</text>
</a>
</g>
</g>
<!-- Node4&#45;&gt;Node5 -->
<g id="edge4" class="edge">
<title>Node4&#45;&gt;Node5</title>
<path fill="none" stroke="#63b8ff" d="M461.82,-427.21C476.5,-453.05 520.29,-523.96 577,-559.5 581.98,-562.62 587.35,-565.34 592.91,-567.7"/>
<polygon fill="#63b8ff" stroke="#63b8ff" points="591.82,-571.03 602.41,-571.35 594.33,-564.5 591.82,-571.03"/>
</g>
<!-- Node6 -->
<g id="node6" class="node">
<title>Node6</title>
<g id="a_node6"><a xlink:href="classStruktury_1_1Zdarzenie.html#a2592c833b1455b28718d794f8f1b846f" target="_top" xlink:title=" ">
<polygon fill="white" stroke="#666666" points="749,-550 593,-550 593,-531 749,-531 749,-550"/>
<text text-anchor="middle" x="671" y="-538" font-family="Helvetica,sans-Serif" font-size="10.00">Struktury.Zdarzenie.getDuration</text>
</a>
</g>
</g>
<!-- Node4&#45;&gt;Node6 -->
<g id="edge5" class="edge">
<title>Node4&#45;&gt;Node6</title>
<path fill="none" stroke="#63b8ff" d="M464.42,-427.06C482.21,-447.86 527.65,-497.25 577,-521.5 581.9,-523.91 587.09,-526.01 592.41,-527.85"/>
<polygon fill="#63b8ff" stroke="#63b8ff" points="591.51,-531.23 602.09,-530.87 593.59,-524.55 591.51,-531.23"/>
</g>
<!-- Node7 -->
<g id="node7" class="node">
<title>Node7</title>
<g id="a_node7"><a xlink:href="classMotywy_1_1Motyw.html#a78e0685f4ff1fb079d1f6230ecff2663" target="_top" xlink:title=" ">
<polygon fill="white" stroke="#666666" points="738,-512.5 604,-512.5 604,-482.5 738,-482.5 738,-512.5"/>
<text text-anchor="start" x="612" y="-500.5" font-family="Helvetica,sans-Serif" font-size="10.00">Motywy.Motyw.getDługość</text>
<text text-anchor="middle" x="671" y="-489.5" font-family="Helvetica,sans-Serif" font-size="10.00">Motywu</text>
</a>
</g>
</g>
<!-- Node4&#45;&gt;Node7 -->
<g id="edge6" class="edge">
<title>Node4&#45;&gt;Node7</title>
<path fill="none" stroke="#63b8ff" d="M474.44,-427.1C497.61,-439.2 539.43,-460.05 577,-473.5 582.98,-475.64 589.23,-477.67 595.55,-479.59"/>
<polygon fill="#63b8ff" stroke="#63b8ff" points="594.92,-483.05 605.5,-482.49 596.88,-476.33 594.92,-483.05"/>
</g>
<!-- Node8 -->
<g id="node8" class="node">
<title>Node8</title>
<g id="a_node8"><a xlink:href="classStruktury_1_1Zdarzenie.html#aa2021baa34312354e2f93f48098a9834" target="_top" xlink:title=" ">
<polygon fill="white" stroke="#666666" points="747,-464 595,-464 595,-445 747,-445 747,-464"/>
<text text-anchor="middle" x="671" y="-452" font-family="Helvetica,sans-Serif" font-size="10.00">Struktury.Zdarzenie.getInterval</text>
</a>
</g>
</g>
<!-- Node4&#45;&gt;Node8 -->
<g id="edge7" class="edge">
<title>Node4&#45;&gt;Node8</title>
<path fill="none" stroke="#63b8ff" d="M511.48,-427.03C540.01,-431.97 575.05,-438.04 604.92,-443.22"/>
<polygon fill="#63b8ff" stroke="#63b8ff" points="604.38,-446.68 614.83,-444.94 605.58,-439.78 604.38,-446.68"/>
</g>
<!-- Node9 -->
<g id="node9" class="node">
<title>Node9</title>
<g id="a_node9"><a xlink:href="classStruktury_1_1Zdarzenie.html#a612182e23a5f9790c9c1801c29717314" target="_top" xlink:title=" ">
<polygon fill="white" stroke="#666666" points="744,-427 598,-427 598,-408 744,-408 744,-427"/>
<text text-anchor="middle" x="671" y="-415" font-family="Helvetica,sans-Serif" font-size="10.00">Struktury.Zdarzenie.getOnset</text>
</a>
</g>
</g>
<!-- Node4&#45;&gt;Node9 -->
<g id="edge8" class="edge">
<title>Node4&#45;&gt;Node9</title>
<path fill="none" stroke="#63b8ff" d="M541.19,-417.5C556.42,-417.5 572.27,-417.5 587.44,-417.5"/>
<polygon fill="#63b8ff" stroke="#63b8ff" points="587.82,-421 597.82,-417.5 587.82,-414 587.82,-421"/>
</g>
<!-- Node10 -->
<g id="node10" class="node">
<title>Node10</title>
<g id="a_node10"><a xlink:href="classMotywy_1_1Motyw.html#a390f9d1acc3c0862c70b71bc7f13f931" target="_top" xlink:title=" ">
<polygon fill="white" stroke="#666666" points="743.5,-341.5 598.5,-341.5 598.5,-311.5 743.5,-311.5 743.5,-341.5"/>
<text text-anchor="start" x="606.5" y="-329.5" font-family="Helvetica,sans-Serif" font-size="10.00">Motywy.Motyw.getReferencję</text>
<text text-anchor="middle" x="671" y="-318.5" font-family="Helvetica,sans-Serif" font-size="10.00">DoMotywu</text>
</a>
</g>
</g>
<!-- Node4&#45;&gt;Node10 -->
<g id="edge9" class="edge">
<title>Node4&#45;&gt;Node10</title>
<path fill="none" stroke="#63b8ff" d="M470.74,-407.99C492.71,-393.71 536.54,-366.66 577,-350.5 582.36,-348.36 587.96,-346.36 593.66,-344.5"/>
<polygon fill="#63b8ff" stroke="#63b8ff" points="594.78,-347.82 603.29,-341.51 592.7,-341.13 594.78,-347.82"/>
</g>
<!-- Node11 -->
<g id="node11" class="node">
<title>Node11</title>
<g id="a_node11"><a xlink:href="classStruktury_1_1Zdarzenie.html#a4df3715be17e01949a2b7d1bc104e2d7" target="_top" xlink:title=" ">
<polygon fill="white" stroke="#666666" points="742.5,-389.5 599.5,-389.5 599.5,-359.5 742.5,-359.5 742.5,-389.5"/>
<text text-anchor="start" x="607.5" y="-377.5" font-family="Helvetica,sans-Serif" font-size="10.00">Struktury.Zdarzenie.getStary</text>
<text text-anchor="middle" x="671" y="-366.5" font-family="Helvetica,sans-Serif" font-size="10.00">Interwał</text>
</a>
</g>
</g>
<!-- Node4&#45;&gt;Node11 -->
<g id="edge10" class="edge">
<title>Node4&#45;&gt;Node11</title>
<path fill="none" stroke="#63b8ff" d="M503.88,-407.96C528.94,-402.91 560.39,-396.58 589.17,-390.78"/>
<polygon fill="#63b8ff" stroke="#63b8ff" points="590.11,-394.16 599.22,-388.75 588.73,-387.3 590.11,-394.16"/>
</g>
<!-- Node12 -->
<g id="node12" class="node">
<title>Node12</title>
<g id="a_node12"><a xlink:href="classStruktury_1_1ArkuszZdarzenie.html#a3e1eb6a41e16bd31dfb9c7525f58b11b" target="_top" xlink:title=" ">
<polygon fill="white" stroke="#666666" points="746.5,-293.5 595.5,-293.5 595.5,-263.5 746.5,-263.5 746.5,-293.5"/>
<text text-anchor="start" x="603.5" y="-281.5" font-family="Helvetica,sans-Serif" font-size="10.00">Struktury.ArkuszZdarzenie.get</text>
<text text-anchor="middle" x="671" y="-270.5" font-family="Helvetica,sans-Serif" font-size="10.00">Zdarzenie</text>
</a>
</g>
</g>
<!-- Node4&#45;&gt;Node12 -->
<g id="edge11" class="edge">
<title>Node4&#45;&gt;Node12</title>
<path fill="none" stroke="#63b8ff" d="M463.76,-407.77C480.88,-385.53 526.19,-330.74 577,-302.5 580.25,-300.69 583.64,-299.02 587.13,-297.47"/>
<polygon fill="#63b8ff" stroke="#63b8ff" points="588.58,-300.65 596.52,-293.64 585.94,-294.17 588.58,-300.65"/>
</g>
<!-- Node15 -->
<g id="node15" class="node">
<title>Node15</title>
<g id="a_node15"><a xlink:href="classMotywy_1_1Fragmenty.html#a654558f130a86c40dff29b3955c7e5ce" target="_top" xlink:title=" ">
<polygon fill="white" stroke="#666666" points="523.5,-201.5 387.5,-201.5 387.5,-171.5 523.5,-171.5 523.5,-201.5"/>
<text text-anchor="start" x="395.5" y="-189.5" font-family="Helvetica,sans-Serif" font-size="10.00">Motywy.Fragmenty.getOpis</text>
<text text-anchor="middle" x="455.5" y="-178.5" font-family="Helvetica,sans-Serif" font-size="10.00">KomórkiArkusza</text>
</a>
</g>
</g>
<!-- Node14&#45;&gt;Node15 -->
<g id="edge14" class="edge">
<title>Node14&#45;&gt;Node15</title>
<path fill="none" stroke="#63b8ff" d="M334.09,-186.5C348.34,-186.5 363.15,-186.5 377.29,-186.5"/>
<polygon fill="#63b8ff" stroke="#63b8ff" points="377.46,-190 387.46,-186.5 377.46,-183 377.46,-190"/>
</g>
<!-- Node15&#45;&gt;Node2 -->
<g id="edge15" class="edge">
<title>Node15&#45;&gt;Node2</title>
<path fill="none" stroke="#63b8ff" d="M512.76,-171.34C522.55,-167.56 532.35,-162.98 541,-157.5 560.38,-145.22 556.87,-131.51 577,-120.5 581.21,-118.2 585.66,-116.18 590.25,-114.4"/>
<polygon fill="#63b8ff" stroke="#63b8ff" points="591.51,-117.66 599.81,-111.08 589.22,-111.05 591.51,-117.66"/>
</g>
<!-- Node15&#45;&gt;Node10 -->
<g id="edge18" class="edge">
<title>Node15&#45;&gt;Node10</title>
<path fill="none" stroke="#63b8ff" d="M468.03,-201.87C487.6,-226.86 529.85,-276.16 577,-302.5 580.87,-304.66 584.94,-306.64 589.13,-308.43"/>
<polygon fill="#63b8ff" stroke="#63b8ff" points="587.86,-311.7 598.45,-312.1 590.42,-305.18 587.86,-311.7"/>
</g>
<!-- Node15&#45;&gt;Node12 -->
<g id="edge21" class="edge">
<title>Node15&#45;&gt;Node12</title>
<path fill="none" stroke="#63b8ff" d="M479.15,-201.67C502.72,-216.87 541.13,-240.04 577,-254.5 582.12,-256.56 587.48,-258.5 592.92,-260.3"/>
<polygon fill="#63b8ff" stroke="#63b8ff" points="592.18,-263.73 602.77,-263.39 594.28,-257.06 592.18,-263.73"/>
</g>
<!-- Node16 -->
<g id="node16" class="node">
<title>Node16</title>
<g id="a_node16"><a xlink:href="classMotywy_1_1ParaMotyw_xC3_xB3w.html#aa11e402d0f891343148eb7c16fc7a1fc" target="_top" xlink:title=" ">
<polygon fill="white" stroke="#666666" points="754,-74 588,-74 588,-55 754,-55 754,-74"/>
<text text-anchor="middle" x="671" y="-62" font-family="Helvetica,sans-Serif" font-size="10.00">Motywy.ParaMotywów.getMotyw2</text>
</a>
</g>
</g>
<!-- Node15&#45;&gt;Node16 -->
<g id="edge16" class="edge">
<title>Node15&#45;&gt;Node16</title>
<path fill="none" stroke="#63b8ff" d="M469.6,-171.17C490.08,-148.27 531.99,-105.48 577,-83.5 582,-81.06 587.29,-78.93 592.72,-77.08"/>
<polygon fill="#63b8ff" stroke="#63b8ff" points="594.08,-80.32 602.6,-74.02 592.02,-73.63 594.08,-80.32"/>
</g>
<!-- Node17 -->
<g id="node17" class="node">
<title>Node17</title>
<g id="a_node17"><a xlink:href="classStruktury_1_1ArkuszZdarzenie.html#a51ecd5710e9e6d740314661d80e9499f" target="_top" xlink:title=" ">
<polygon fill="white" stroke="#666666" points="746.5,-159.5 595.5,-159.5 595.5,-129.5 746.5,-129.5 746.5,-159.5"/>
<text text-anchor="start" x="603.5" y="-147.5" font-family="Helvetica,sans-Serif" font-size="10.00">Struktury.ArkuszZdarzenie.get</text>
<text text-anchor="middle" x="671" y="-136.5" font-family="Helvetica,sans-Serif" font-size="10.00">NazwęKolumny</text>
</a>
</g>
</g>
<!-- Node15&#45;&gt;Node17 -->
<g id="edge17" class="edge">
<title>Node15&#45;&gt;Node17</title>
<path fill="none" stroke="#63b8ff" d="M523.76,-173.27C543.3,-169.43 564.89,-165.18 585.35,-161.15"/>
<polygon fill="#63b8ff" stroke="#63b8ff" points="586.15,-164.56 595.29,-159.2 584.8,-157.69 586.15,-164.56"/>
</g>
<!-- Node18 -->
<g id="node18" class="node">
<title>Node18</title>
<g id="a_node18"><a xlink:href="classStruktury_1_1Zdarzenie.html#a987607d51dcbf215ee1795c3a0122c6e" target="_top" xlink:title=" ">
<polygon fill="white" stroke="#666666" points="740,-245 602,-245 602,-226 740,-226 740,-245"/>
<text text-anchor="middle" x="671" y="-233" font-family="Helvetica,sans-Serif" font-size="10.00">Struktury.Zdarzenie.getTakt</text>
</a>
</g>
</g>
<!-- Node15&#45;&gt;Node18 -->
<g id="edge19" class="edge">
<title>Node15&#45;&gt;Node18</title>
<path fill="none" stroke="#63b8ff" d="M514.91,-201.57C534.59,-206.51 556.71,-211.9 577,-216.5 588.06,-219.01 599.9,-221.54 611.3,-223.9"/>
<polygon fill="#63b8ff" stroke="#63b8ff" points="610.67,-227.34 621.17,-225.93 612.08,-220.49 610.67,-227.34"/>
</g>
<!-- Node19 -->
<g id="node19" class="node">
<title>Node19</title>
<g id="a_node19"><a xlink:href="classStruktury_1_1ArkuszZdarzenie.html#aab8a50eda797bd00b06ec5b4c9217724" target="_top" xlink:title=" ">
<polygon fill="white" stroke="#666666" points="746.5,-207.5 595.5,-207.5 595.5,-177.5 746.5,-177.5 746.5,-207.5"/>
<text text-anchor="start" x="603.5" y="-195.5" font-family="Helvetica,sans-Serif" font-size="10.00">Struktury.ArkuszZdarzenie.get</text>
<text text-anchor="middle" x="671" y="-184.5" font-family="Helvetica,sans-Serif" font-size="10.00">Wiersz</text>
</a>
</g>
</g>
<!-- Node15&#45;&gt;Node19 -->
<g id="edge20" class="edge">
<title>Node15&#45;&gt;Node19</title>
<path fill="none" stroke="#63b8ff" d="M523.76,-188.39C543.21,-188.94 564.69,-189.54 585.07,-190.11"/>
<polygon fill="#63b8ff" stroke="#63b8ff" points="585.19,-193.62 595.29,-190.4 585.39,-186.62 585.19,-193.62"/>
</g>
<!-- Node20&#45;&gt;Node2 -->
<g id="edge23" class="edge">
<title>Node20&#45;&gt;Node2</title>
<path fill="none" stroke="#63b8ff" d="M321.86,-100.67C391.71,-100.83 500.25,-101.09 577.56,-101.28"/>
<polygon fill="#63b8ff" stroke="#63b8ff" points="577.77,-104.78 587.77,-101.3 577.78,-97.78 577.77,-104.78"/>
</g>
<!-- Node20&#45;&gt;Node15 -->
<g id="edge25" class="edge">
<title>Node20&#45;&gt;Node15</title>
<path fill="none" stroke="#63b8ff" d="M288.56,-115.68C322.37,-130.11 373.35,-151.86 409.87,-167.45"/>
<polygon fill="#63b8ff" stroke="#63b8ff" points="408.72,-170.77 419.3,-171.47 411.47,-164.33 408.72,-170.77"/>
</g>
<!-- Node20&#45;&gt;Node16 -->
<g id="edge24" class="edge">
<title>Node20&#45;&gt;Node16</title>
<path fill="none" stroke="#63b8ff" d="M321.86,-94.56C391.71,-88.53 500.25,-79.15 577.56,-72.48"/>
<polygon fill="#63b8ff" stroke="#63b8ff" points="578.11,-75.95 587.77,-71.6 577.51,-68.97 578.11,-75.95"/>
</g>
<!-- Node21 -->
<g id="node21" class="node">
<title>Node21</title>
<g id="a_node21"><a xlink:href="classMotywy_1_1ParaMotyw_xC3_xB3w.html#ad6a71562154940909746bf6588b6b84e" target="_top" xlink:title=" ">
<polygon fill="white" stroke="#666666" points="539,-36 372,-36 372,-17 539,-17 539,-36"/>
<text text-anchor="middle" x="455.5" y="-24" font-family="Helvetica,sans-Serif" font-size="10.00">Motywy.ParaMotywów.getRóżnicę</text>
</a>
</g>
</g>
<!-- Node20&#45;&gt;Node21 -->
<g id="edge26" class="edge">
<title>Node20&#45;&gt;Node21</title>
<path fill="none" stroke="#63b8ff" d="M312.29,-85.48C319.75,-82.85 327.16,-79.86 334,-76.5 351.71,-67.8 352.24,-59.1 370,-50.5 379.46,-45.92 389.96,-42.06 400.25,-38.87"/>
<polygon fill="#63b8ff" stroke="#63b8ff" points="401.39,-42.18 410.01,-36.02 399.43,-35.47 401.39,-42.18"/>
</g>
<!-- Node22 -->
<g id="node22" class="node">
<title>Node22</title>
<g id="a_node22"><a xlink:href="classMotywy_1_1Motyw.html#a1bf7b0581400d564daa45e9cba7987f2" target="_top" xlink:title=" ">
<polygon fill="white" stroke="#666666" points="765,-36 577,-36 577,-17 765,-17 765,-36"/>
<text text-anchor="middle" x="671" y="-24" font-family="Helvetica,sans-Serif" font-size="10.00">Motywy.Motyw.CzyMożnaPorównywać</text>
</a>
</g>
</g>
<!-- Node21&#45;&gt;Node22 -->
<g id="edge27" class="edge">
<title>Node21&#45;&gt;Node22</title>
<path fill="none" stroke="#63b8ff" d="M539.04,-26.5C548.09,-26.5 557.39,-26.5 566.64,-26.5"/>
<polygon fill="#63b8ff" stroke="#63b8ff" points="566.67,-30 576.67,-26.5 566.67,-23 566.67,-30"/>
</g>
<!-- Node23 -->
<g id="node23" class="node">
<title>Node23</title>
<g id="a_node23"><a xlink:href="classStruktury_1_1ArkuszZdarzenie.html#add9f4b9b1ae80d624e5f480cda1574ee" target="_top" xlink:title=" ">
<polygon fill="white" stroke="#666666" points="952,-41.5 801,-41.5 801,-11.5 952,-11.5 952,-41.5"/>
<text text-anchor="start" x="809" y="-29.5" font-family="Helvetica,sans-Serif" font-size="10.00">Struktury.ArkuszZdarzenie.get</text>
<text text-anchor="middle" x="876.5" y="-18.5" font-family="Helvetica,sans-Serif" font-size="10.00">NumerGłosu</text>
</a>
</g>
</g>
<!-- Node22&#45;&gt;Node23 -->
<g id="edge28" class="edge">
<title>Node22&#45;&gt;Node23</title>
<path fill="none" stroke="#63b8ff" d="M765.11,-26.5C773.6,-26.5 782.16,-26.5 790.56,-26.5"/>
<polygon fill="#63b8ff" stroke="#63b8ff" points="790.72,-30 800.72,-26.5 790.72,-23 790.72,-30"/>
</g>
</g>
</svg>
