<?xml version="1.0" encoding="UTF-8" standalone="no"?>
<!DOCTYPE svg PUBLIC "-//W3C//DTD SVG 1.1//EN"
 "http://www.w3.org/Graphics/SVG/1.1/DTD/svg11.dtd">
<!-- Generated by graphviz version 2.49.3 (0)
 -->
<!-- Title: Motywy.Motyw.Odkrabowanie Pages: 1 -->
<svg width="537pt" height="161pt"
 viewBox="0.00 0.00 537.00 161.00" xmlns="http://www.w3.org/2000/svg" xmlns:xlink="http://www.w3.org/1999/xlink">
<g id="graph0" class="graph" transform="scale(1 1) rotate(0) translate(4 157)">
<title>Motywy.Motyw.Odkrabowanie</title>
<!-- Node1 -->
<g id="node1" class="node">
<title>Node1</title>
<g id="a_node1"><a xlink:title=" ">
<polygon fill="#999999" stroke="#666666" points="146,-107 0,-107 0,-88 146,-88 146,-107"/>
<text text-anchor="middle" x="73" y="-95" font-family="Helvetica,sans-Serif" font-size="10.00">Motywy.Motyw.Odkrabowanie</text>
</a>
</g>
</g>
<!-- Node2 -->
<g id="node2" class="node">
<title>Node2</title>
<g id="a_node2"><a xlink:href="classMotywy_1_1Motyw.html#ac2cdd8da139f329cfc3faf36049f6a6a" target="_top" xlink:title=" ">
<polygon fill="white" stroke="#666666" points="332.5,-129 184.5,-129 184.5,-110 332.5,-110 332.5,-129"/>
<text text-anchor="middle" x="258.5" y="-117" font-family="Helvetica,sans-Serif" font-size="10.00">Motywy.Motyw.WykonajKraba</text>
</a>
</g>
</g>
<!-- Node1&#45;&gt;Node2 -->
<g id="edge1" class="edge">
<title>Node1&#45;&gt;Node2</title>
<path fill="none" stroke="#63b8ff" d="M146.26,-106.16C155.47,-107.27 164.95,-108.4 174.31,-109.53"/>
<polygon fill="#63b8ff" stroke="#63b8ff" points="174.06,-113.02 184.4,-110.74 174.89,-106.07 174.06,-113.02"/>
</g>
<!-- Node3 -->
<g id="node3" class="node">
<title>Node3</title>
<g id="a_node3"><a xlink:href="classMotywy_1_1Motyw.html#a28609ed90ed8f9d585dba34d3bff4800" target="_top" xlink:title=" ">
<polygon fill="white" stroke="#666666" points="335,-91.5 182,-91.5 182,-61.5 335,-61.5 335,-91.5"/>
<text text-anchor="start" x="190" y="-79.5" font-family="Helvetica,sans-Serif" font-size="10.00">Motywy.Motyw.WyliczNaNowo</text>
<text text-anchor="middle" x="258.5" y="-68.5" font-family="Helvetica,sans-Serif" font-size="10.00">Interwały</text>
</a>
</g>
</g>
<!-- Node1&#45;&gt;Node3 -->
<g id="edge2" class="edge">
<title>Node1&#45;&gt;Node3</title>
<path fill="none" stroke="#63b8ff" d="M146.26,-89.23C154.69,-88.27 163.36,-87.27 171.95,-86.29"/>
<polygon fill="#63b8ff" stroke="#63b8ff" points="172.45,-89.76 181.98,-85.14 171.65,-82.8 172.45,-89.76"/>
</g>
<!-- Node4 -->
<g id="node4" class="node">
<title>Node4</title>
<g id="a_node4"><a xlink:href="classStruktury_1_1Zdarzenie.html#a0d579308bbe6a5400dd6fbfb35d1ea31" target="_top" xlink:title=" ">
<polygon fill="white" stroke="#666666" points="521,-153 379,-153 379,-134 521,-134 521,-153"/>
<text text-anchor="middle" x="450" y="-141" font-family="Helvetica,sans-Serif" font-size="10.00">Struktury.Zdarzenie.getPitch</text>
</a>
</g>
</g>
<!-- Node3&#45;&gt;Node4 -->
<g id="edge3" class="edge">
<title>Node3&#45;&gt;Node4</title>
<path fill="none" stroke="#63b8ff" d="M310.94,-91.62C319.13,-94.57 327.39,-97.88 335,-101.5 352.14,-109.66 353.54,-117.04 371,-124.5 376.8,-126.98 382.99,-129.18 389.25,-131.11"/>
<polygon fill="#63b8ff" stroke="#63b8ff" points="388.52,-134.54 399.1,-133.94 390.46,-127.82 388.52,-134.54"/>
</g>
<!-- Node5 -->
<g id="node5" class="node">
<title>Node5</title>
<g id="a_node5"><a xlink:href="classStruktury_1_1ArkuszZdarzenie.html#a3e1eb6a41e16bd31dfb9c7525f58b11b" target="_top" xlink:title=" ">
<polygon fill="white" stroke="#666666" points="525.5,-115.5 374.5,-115.5 374.5,-85.5 525.5,-85.5 525.5,-115.5"/>
<text text-anchor="start" x="382.5" y="-103.5" font-family="Helvetica,sans-Serif" font-size="10.00">Struktury.ArkuszZdarzenie.get</text>
<text text-anchor="middle" x="450" y="-92.5" font-family="Helvetica,sans-Serif" font-size="10.00">Zdarzenie</text>
</a>
</g>
</g>
<!-- Node3&#45;&gt;Node5 -->
<g id="edge4" class="edge">
<title>Node3&#45;&gt;Node5</title>
<path fill="none" stroke="#63b8ff" d="M335.21,-86.09C344.78,-87.3 354.61,-88.55 364.3,-89.77"/>
<polygon fill="#63b8ff" stroke="#63b8ff" points="363.97,-93.26 374.33,-91.04 364.85,-86.31 363.97,-93.26"/>
</g>
<!-- Node6 -->
<g id="node6" class="node">
<title>Node6</title>
<g id="a_node6"><a xlink:href="classMotywy_1_1Motyw.html#ada31b6948fe6606145cd37b4878c320f" target="_top" xlink:title=" ">
<polygon fill="white" stroke="#666666" points="529,-67.5 371,-67.5 371,-37.5 529,-37.5 529,-67.5"/>
<text text-anchor="start" x="379" y="-55.5" font-family="Helvetica,sans-Serif" font-size="10.00">Motywy.Motyw.KorektaInterwału</text>
<text text-anchor="middle" x="450" y="-44.5" font-family="Helvetica,sans-Serif" font-size="10.00">Humdrum</text>
</a>
</g>
</g>
<!-- Node3&#45;&gt;Node6 -->
<g id="edge5" class="edge">
<title>Node3&#45;&gt;Node6</title>
<path fill="none" stroke="#63b8ff" d="M335.21,-66.91C343.66,-65.84 352.32,-64.74 360.9,-63.66"/>
<polygon fill="#63b8ff" stroke="#63b8ff" points="361.45,-67.12 370.93,-62.39 360.57,-60.17 361.45,-67.12"/>
</g>
<!-- Node7 -->
<g id="node7" class="node">
<title>Node7</title>
<g id="a_node7"><a xlink:href="classStruktury_1_1Zdarzenie.html#a7f42568598ee4c3e13733e4f1e888ecf" target="_top" xlink:title=" ">
<polygon fill="white" stroke="#666666" points="526,-19 374,-19 374,0 526,0 526,-19"/>
<text text-anchor="middle" x="450" y="-7" font-family="Helvetica,sans-Serif" font-size="10.00">Struktury.Zdarzenie.setInterval</text>
</a>
</g>
</g>
<!-- Node3&#45;&gt;Node7 -->
<g id="edge6" class="edge">
<title>Node3&#45;&gt;Node7</title>
<path fill="none" stroke="#63b8ff" d="M290.67,-61.41C312.73,-51.14 343.22,-37.79 371,-28.5 378.44,-26.01 386.37,-23.7 394.22,-21.61"/>
<polygon fill="#63b8ff" stroke="#63b8ff" points="395.27,-24.95 404.09,-19.08 393.53,-18.17 395.27,-24.95"/>
</g>
</g>
</svg>
