<?xml version="1.0" encoding="UTF-8" standalone="no"?>
<!DOCTYPE svg PUBLIC "-//W3C//DTD SVG 1.1//EN"
 "http://www.w3.org/Graphics/SVG/1.1/DTD/svg11.dtd">
<!-- Generated by graphviz version 2.49.3 (0)
 -->
<!-- Title: Struktury.Arkusz.getZawartość Pages: 1 -->
<svg width="717pt" height="253pt"
 viewBox="0.00 0.00 717.00 253.00" xmlns="http://www.w3.org/2000/svg" xmlns:xlink="http://www.w3.org/1999/xlink">
<g id="graph0" class="graph" transform="scale(1 1) rotate(0) translate(4 249)">
<title>Struktury.Arkusz.getZawartość</title>
<!-- Node1 -->
<g id="node1" class="node">
<title>Node1</title>
<g id="a_node1"><a xlink:title=" ">
<polygon fill="#999999" stroke="#666666" points="709,-131.5 556,-131.5 556,-112.5 709,-112.5 709,-131.5"/>
<text text-anchor="middle" x="632.5" y="-119.5" font-family="Helvetica,sans-Serif" font-size="10.00">Struktury.Arkusz.getZawartość</text>
</a>
</g>
</g>
<!-- Node2 -->
<g id="node2" class="node">
<title>Node2</title>
<g id="a_node2"><a xlink:href="classStruktury_1_1Interpreter.html#abfa2bbe5356269e3d3218957bd43ad81" target="_top" xlink:title=" ">
<polygon fill="white" stroke="#666666" points="334.5,-245 188.5,-245 188.5,-215 334.5,-215 334.5,-245"/>
<text text-anchor="start" x="196.5" y="-233" font-family="Helvetica,sans-Serif" font-size="10.00">Struktury.Interpreter.Przepisz</text>
<text text-anchor="middle" x="261.5" y="-222" font-family="Helvetica,sans-Serif" font-size="10.00">Arkusz</text>
</a>
</g>
</g>
<!-- Node1&#45;&gt;Node2 -->
<g id="edge1" class="edge">
<title>Node1&#45;&gt;Node2</title>
<path fill="none" stroke="#63b8ff" d="M616.23,-139.38C596.42,-160.56 559.7,-195.44 520,-211 460.63,-234.28 387.74,-237.55 334.68,-235.87"/>
<polygon fill="#63b8ff" stroke="#63b8ff" points="619.03,-141.5 623.18,-131.75 613.86,-136.78 619.03,-141.5"/>
</g>
<!-- Node4 -->
<g id="node4" class="node">
<title>Node4</title>
<g id="a_node4"><a xlink:href="classStruktury_1_1ArkuszZdarzenie.html#a83d6d99268ecdb1f565ccc1cd5efade4" target="_top" xlink:title=" ">
<polygon fill="white" stroke="#666666" points="514,-202 377,-202 377,-172 514,-172 514,-202"/>
<text text-anchor="start" x="385" y="-190" font-family="Helvetica,sans-Serif" font-size="10.00">Struktury.ArkuszZdarzenie.</text>
<text text-anchor="middle" x="445.5" y="-179" font-family="Helvetica,sans-Serif" font-size="10.00">UtwórzZdarzenie</text>
</a>
</g>
</g>
<!-- Node1&#45;&gt;Node4 -->
<g id="edge3" class="edge">
<title>Node1&#45;&gt;Node4</title>
<path fill="none" stroke="#63b8ff" d="M594.43,-135.02C564.1,-145.68 521.17,-160.77 489.36,-171.94"/>
<polygon fill="#63b8ff" stroke="#63b8ff" points="595.93,-138.21 604.2,-131.59 593.61,-131.6 595.93,-138.21"/>
</g>
<!-- Node6 -->
<g id="node6" class="node">
<title>Node6</title>
<g id="a_node6"><a xlink:href="classStruktury_1_1Interpreter.html#a8d912ec5e4e42eaf2aac5f3f524e0172" target="_top" xlink:title=" ">
<polygon fill="white" stroke="#666666" points="335,-121 188,-121 188,-91 335,-91 335,-121"/>
<text text-anchor="start" x="196" y="-109" font-family="Helvetica,sans-Serif" font-size="10.00">Struktury.Interpreter.Uzupełnij</text>
<text text-anchor="middle" x="261.5" y="-98" font-family="Helvetica,sans-Serif" font-size="10.00">NumeryTaktów</text>
</a>
</g>
</g>
<!-- Node1&#45;&gt;Node6 -->
<g id="edge5" class="edge">
<title>Node1&#45;&gt;Node6</title>
<path fill="none" stroke="#63b8ff" d="M545.54,-127.22C494.69,-129.25 429.07,-130.05 371,-125 359.38,-123.99 347.13,-122.38 335.23,-120.52"/>
<polygon fill="#63b8ff" stroke="#63b8ff" points="545.99,-130.7 555.83,-126.78 545.69,-123.71 545.99,-130.7"/>
</g>
<!-- Node7 -->
<g id="node7" class="node">
<title>Node7</title>
<g id="a_node7"><a xlink:href="classStruktury_1_1Interpreter.html#a25a48e8f946a2b064cbfef8be68e1820" target="_top" xlink:title=" ">
<polygon fill="white" stroke="#666666" points="520,-116 371,-116 371,-86 520,-86 520,-116"/>
<text text-anchor="start" x="379" y="-104" font-family="Helvetica,sans-Serif" font-size="10.00">Struktury.Interpreter.Walidacja</text>
<text text-anchor="middle" x="445.5" y="-93" font-family="Helvetica,sans-Serif" font-size="10.00">Liczb</text>
</a>
</g>
</g>
<!-- Node1&#45;&gt;Node7 -->
<g id="edge7" class="edge">
<title>Node1&#45;&gt;Node7</title>
<path fill="none" stroke="#63b8ff" d="M545.97,-112.29C537.38,-111.32 528.72,-110.33 520.28,-109.37"/>
<polygon fill="#63b8ff" stroke="#63b8ff" points="545.66,-115.78 555.99,-113.43 546.45,-108.82 545.66,-115.78"/>
</g>
<!-- Node8 -->
<g id="node8" class="node">
<title>Node8</title>
<g id="a_node8"><a xlink:href="classStruktury_1_1Interpreter.html#a3b1b460c28f4b8e6b25366069755ce0d" target="_top" xlink:title=" ">
<polygon fill="white" stroke="#666666" points="330,-73 193,-73 193,-43 330,-43 330,-73"/>
<text text-anchor="start" x="201" y="-61" font-family="Helvetica,sans-Serif" font-size="10.00">Struktury.Interpreter.Znajdź</text>
<text text-anchor="middle" x="261.5" y="-50" font-family="Helvetica,sans-Serif" font-size="10.00">AdresySłowaTakt</text>
</a>
</g>
</g>
<!-- Node1&#45;&gt;Node8 -->
<g id="edge9" class="edge">
<title>Node1&#45;&gt;Node8</title>
<path fill="none" stroke="#63b8ff" d="M603.63,-107.93C581.54,-97.47 549.58,-83.88 520,-77 456.69,-62.27 382.49,-58.13 330.05,-57.31"/>
<polygon fill="#63b8ff" stroke="#63b8ff" points="602.23,-111.13 612.75,-112.33 605.27,-104.83 602.23,-111.13"/>
</g>
<!-- Node9 -->
<g id="node9" class="node">
<title>Node9</title>
<g id="a_node9"><a xlink:href="classStruktury_1_1Interpreter.html#a516c744ba909899cdea81e38deeb4526" target="_top" xlink:title=" ">
<polygon fill="white" stroke="#666666" points="514,-30 377,-30 377,0 514,0 514,-30"/>
<text text-anchor="start" x="385" y="-18" font-family="Helvetica,sans-Serif" font-size="10.00">Struktury.Interpreter.Znajdź</text>
<text text-anchor="middle" x="445.5" y="-7" font-family="Helvetica,sans-Serif" font-size="10.00">Systemy</text>
</a>
</g>
</g>
<!-- Node1&#45;&gt;Node9 -->
<g id="edge11" class="edge">
<title>Node1&#45;&gt;Node9</title>
<path fill="none" stroke="#63b8ff" d="M611.67,-105.96C590.06,-89.02 554.02,-62.28 520,-44 510.45,-38.87 499.8,-34.14 489.63,-30.06"/>
<polygon fill="#63b8ff" stroke="#63b8ff" points="609.72,-108.89 619.73,-112.36 614.07,-103.4 609.72,-108.89"/>
</g>
<!-- Node3 -->
<g id="node3" class="node">
<title>Node3</title>
<g id="a_node3"><a xlink:href="classStruktury_1_1Interpreter.html#a4c2426a0220ccfab53ef88b4ef68e5ab" target="_top" xlink:title=" ">
<polygon fill="white" stroke="#666666" points="152,-91.5 0,-91.5 0,-72.5 152,-72.5 152,-91.5"/>
<text text-anchor="middle" x="76" y="-79.5" font-family="Helvetica,sans-Serif" font-size="10.00">Struktury.Interpreter.Interpreter</text>
</a>
</g>
</g>
<!-- Node2&#45;&gt;Node3 -->
<g id="edge2" class="edge">
<title>Node2&#45;&gt;Node3</title>
<path fill="none" stroke="#63b8ff" d="M195.64,-210.52C193,-209.1 190.44,-207.6 188,-206 138.94,-173.85 97.89,-114.72 83,-91.61"/>
<polygon fill="#63b8ff" stroke="#63b8ff" points="194.33,-213.77 204.86,-214.96 197.37,-207.46 194.33,-213.77"/>
</g>
<!-- Node5 -->
<g id="node5" class="node">
<title>Node5</title>
<g id="a_node5"><a xlink:href="classStruktury_1_1ArkuszZdarzenie.html#acb24856511328e4920ee673ffbe0cc06" target="_top" xlink:title=" ">
<polygon fill="white" stroke="#666666" points="330,-197 193,-197 193,-167 330,-167 330,-197"/>
<text text-anchor="start" x="201" y="-185" font-family="Helvetica,sans-Serif" font-size="10.00">Struktury.ArkuszZdarzenie.</text>
<text text-anchor="middle" x="261.5" y="-174" font-family="Helvetica,sans-Serif" font-size="10.00">ArkuszZdarzenie</text>
</a>
</g>
</g>
<!-- Node4&#45;&gt;Node5 -->
<g id="edge4" class="edge">
<title>Node4&#45;&gt;Node5</title>
<path fill="none" stroke="#63b8ff" d="M366.85,-184.87C354.66,-184.53 342.15,-184.19 330.21,-183.86"/>
<polygon fill="#63b8ff" stroke="#63b8ff" points="366.9,-188.37 376.99,-185.15 367.09,-181.37 366.9,-188.37"/>
</g>
<!-- Node6&#45;&gt;Node3 -->
<g id="edge6" class="edge">
<title>Node6&#45;&gt;Node3</title>
<path fill="none" stroke="#63b8ff" d="M177.91,-95.2C168.57,-93.98 159.1,-92.74 149.9,-91.53"/>
<polygon fill="#63b8ff" stroke="#63b8ff" points="177.61,-98.69 187.98,-96.51 178.51,-91.75 177.61,-98.69"/>
</g>
<!-- Node7&#45;&gt;Node6 -->
<g id="edge8" class="edge">
<title>Node7&#45;&gt;Node6</title>
<path fill="none" stroke="#63b8ff" d="M360.93,-103.3C352.3,-103.53 343.59,-103.77 335.09,-104.01"/>
<polygon fill="#63b8ff" stroke="#63b8ff" points="361.1,-106.79 371,-103.02 360.91,-99.8 361.1,-106.79"/>
</g>
<!-- Node8&#45;&gt;Node3 -->
<g id="edge10" class="edge">
<title>Node8&#45;&gt;Node3</title>
<path fill="none" stroke="#63b8ff" d="M182.92,-68.15C171.89,-69.59 160.58,-71.07 149.65,-72.5"/>
<polygon fill="#63b8ff" stroke="#63b8ff" points="183.49,-71.6 192.95,-66.83 182.58,-64.66 183.49,-71.6"/>
</g>
<!-- Node9&#45;&gt;Node3 -->
<g id="edge12" class="edge">
<title>Node9&#45;&gt;Node3</title>
<path fill="none" stroke="#63b8ff" d="M366.79,-14.06C315.38,-15.07 246.84,-19.53 188,-34 153.14,-42.57 115.32,-61.11 94.05,-72.47"/>
<polygon fill="#63b8ff" stroke="#63b8ff" points="366.9,-17.56 376.84,-13.9 366.79,-10.56 366.9,-17.56"/>
</g>
</g>
</svg>
