<?xml version="1.0" encoding="UTF-8" standalone="no"?>
<!DOCTYPE svg PUBLIC "-//W3C//DTD SVG 1.1//EN"
 "http://www.w3.org/Graphics/SVG/1.1/DTD/svg11.dtd">
<!-- Generated by graphviz version 2.49.3 (0)
 -->
<!-- Title: Motywy.Motyw.getDługośćMotywu Pages: 1 -->
<svg width="754pt" height="210pt"
 viewBox="0.00 0.00 754.00 210.00" xmlns="http://www.w3.org/2000/svg" xmlns:xlink="http://www.w3.org/1999/xlink">
<g id="graph0" class="graph" transform="scale(1 1) rotate(0) translate(4 206)">
<title>Motywy.Motyw.getDługośćMotywu</title>
<!-- Node1 -->
<g id="node1" class="node">
<title>Node1</title>
<g id="a_node1"><a xlink:title=" ">
<polygon fill="#999999" stroke="#666666" points="746,-116 612,-116 612,-86 746,-86 746,-116"/>
<text text-anchor="start" x="620" y="-104" font-family="Helvetica,sans-Serif" font-size="10.00">Motywy.Motyw.getDługość</text>
<text text-anchor="middle" x="679" y="-93" font-family="Helvetica,sans-Serif" font-size="10.00">Motywu</text>
</a>
</g>
</g>
<!-- Node2 -->
<g id="node2" class="node">
<title>Node2</title>
<g id="a_node2"><a xlink:href="classMotywy_1_1Fragmenty.html#afd7562817c9b351e1f74c5a4d0531900" target="_top" xlink:title=" ">
<polygon fill="white" stroke="#666666" points="558.5,-202 422.5,-202 422.5,-172 558.5,-172 558.5,-202"/>
<text text-anchor="start" x="430.5" y="-190" font-family="Helvetica,sans-Serif" font-size="10.00">Motywy.Fragmenty.Generuj</text>
<text text-anchor="middle" x="490.5" y="-179" font-family="Helvetica,sans-Serif" font-size="10.00">TablicęOpisu</text>
</a>
</g>
</g>
<!-- Node1&#45;&gt;Node2 -->
<g id="edge1" class="edge">
<title>Node1&#45;&gt;Node2</title>
<path fill="none" stroke="#63b8ff" d="M648.75,-121.7C628.96,-134.96 601.81,-151.74 576,-163 568.45,-166.29 560.33,-169.27 552.21,-171.91"/>
<polygon fill="#63b8ff" stroke="#63b8ff" points="650.73,-124.59 657.03,-116.07 646.79,-118.8 650.73,-124.59"/>
</g>
<!-- Node3 -->
<g id="node3" class="node">
<title>Node3</title>
<g id="a_node3"><a xlink:href="classMotywy_1_1Fragmenty.html#a625e43ec2c0a7c705a0235fb23e9abc3" target="_top" xlink:title=" ">
<polygon fill="white" stroke="#666666" points="576,-153.5 405,-153.5 405,-134.5 576,-134.5 576,-153.5"/>
<text text-anchor="middle" x="490.5" y="-141.5" font-family="Helvetica,sans-Serif" font-size="10.00">Motywy.Fragmenty.MotywInterwały</text>
</a>
</g>
</g>
<!-- Node1&#45;&gt;Node3 -->
<g id="edge2" class="edge">
<title>Node1&#45;&gt;Node3</title>
<path fill="none" stroke="#63b8ff" d="M604.66,-118.35C595.02,-120.6 585.28,-122.87 576,-125 562.52,-128.1 547.81,-131.43 534.51,-134.42"/>
<polygon fill="#63b8ff" stroke="#63b8ff" points="605.7,-121.7 614.63,-116.01 604.1,-114.89 605.7,-121.7"/>
</g>
<!-- Node6 -->
<g id="node6" class="node">
<title>Node6</title>
<g id="a_node6"><a xlink:href="classMotywy_1_1Por_xC3_xB3wnanieZZadanym.html#afc411b58aadd60fadcab90ad9f76e3d5" target="_top" xlink:title=" ">
<polygon fill="white" stroke="#666666" points="567.5,-116 413.5,-116 413.5,-86 567.5,-86 567.5,-116"/>
<text text-anchor="start" x="421.5" y="-104" font-family="Helvetica,sans-Serif" font-size="10.00">Motywy.PorównanieZZadanym.</text>
<text text-anchor="middle" x="490.5" y="-93" font-family="Helvetica,sans-Serif" font-size="10.00">ObliczRóżnicę</text>
</a>
</g>
</g>
<!-- Node1&#45;&gt;Node6 -->
<g id="edge5" class="edge">
<title>Node1&#45;&gt;Node6</title>
<path fill="none" stroke="#63b8ff" d="M601.75,-101C590.49,-101 578.88,-101 567.62,-101"/>
<polygon fill="#63b8ff" stroke="#63b8ff" points="601.98,-104.5 611.98,-101 601.98,-97.5 601.98,-104.5"/>
</g>
<!-- Node7 -->
<g id="node7" class="node">
<title>Node7</title>
<g id="a_node7"><a xlink:href="classMotywy_1_1Por_xC3_xB3wnanieZZadanym.html#a11ff4401b316e36ea9263506ab0eeefa" target="_top" xlink:title=" ">
<polygon fill="white" stroke="#666666" points="369,-92 215,-92 215,-62 369,-62 369,-92"/>
<text text-anchor="start" x="223" y="-80" font-family="Helvetica,sans-Serif" font-size="10.00">Motywy.PorównanieZZadanym.</text>
<text text-anchor="middle" x="292" y="-69" font-family="Helvetica,sans-Serif" font-size="10.00">ZrealizujPorównanie</text>
</a>
</g>
</g>
<!-- Node1&#45;&gt;Node7 -->
<g id="edge9" class="edge">
<title>Node1&#45;&gt;Node7</title>
<path fill="none" stroke="#63b8ff" d="M614.43,-83.66C601.79,-80.89 588.55,-78.46 576,-77 506.33,-68.91 426.36,-69.85 369.25,-72.25"/>
<polygon fill="#63b8ff" stroke="#63b8ff" points="613.89,-87.13 624.42,-85.94 615.45,-80.3 613.89,-87.13"/>
</g>
<!-- Node9 -->
<g id="node9" class="node">
<title>Node9</title>
<g id="a_node9"><a xlink:href="classMotywy_1_1Por_xC3_xB3wnanieZZadanym.html#a47b03f24ed8ea86856505011cb745a40" target="_top" xlink:title=" ">
<polygon fill="white" stroke="#666666" points="571.5,-30 409.5,-30 409.5,0 571.5,0 571.5,-30"/>
<text text-anchor="start" x="417.5" y="-18" font-family="Helvetica,sans-Serif" font-size="10.00">Motywy.PorównanieZZadanym.to</text>
<text text-anchor="middle" x="490.5" y="-7" font-family="Helvetica,sans-Serif" font-size="10.00">String</text>
</a>
</g>
</g>
<!-- Node1&#45;&gt;Node9 -->
<g id="edge8" class="edge">
<title>Node1&#45;&gt;Node9</title>
<path fill="none" stroke="#63b8ff" d="M645.07,-80.61C625.46,-68.98 599.82,-54.64 576,-44 564.67,-38.94 552.17,-34.21 540.34,-30.1"/>
<polygon fill="#63b8ff" stroke="#63b8ff" points="643.53,-83.77 653.9,-85.91 647.13,-77.77 643.53,-83.77"/>
</g>
<!-- Node4 -->
<g id="node4" class="node">
<title>Node4</title>
<g id="a_node4"><a xlink:href="classMotywy_1_1Fragmenty.html#af142a18268a561dcafe100a07e2b1928" target="_top" xlink:title=" ">
<polygon fill="white" stroke="#666666" points="359,-159 225,-159 225,-129 359,-129 359,-159"/>
<text text-anchor="start" x="233" y="-147" font-family="Helvetica,sans-Serif" font-size="10.00">Motywy.Fragmenty.Utwórz</text>
<text text-anchor="middle" x="292" y="-136" font-family="Helvetica,sans-Serif" font-size="10.00">MacierzMotywów</text>
</a>
</g>
</g>
<!-- Node3&#45;&gt;Node4 -->
<g id="edge3" class="edge">
<title>Node3&#45;&gt;Node4</title>
<path fill="none" stroke="#63b8ff" d="M394.67,-144C382.65,-144 370.56,-144 359.12,-144"/>
<polygon fill="#63b8ff" stroke="#63b8ff" points="394.74,-147.5 404.74,-144 394.74,-140.5 394.74,-147.5"/>
</g>
<!-- Node5 -->
<g id="node5" class="node">
<title>Node5</title>
<g id="a_node5"><a xlink:href="classporownania_1_1Rezultat.html#abfab722f91bb304108e01333fdbf5cf3" target="_top" xlink:title=" ">
<polygon fill="white" stroke="#666666" points="160.5,-153.5 18.5,-153.5 18.5,-134.5 160.5,-134.5 160.5,-153.5"/>
<text text-anchor="middle" x="89.5" y="-141.5" font-family="Helvetica,sans-Serif" font-size="10.00">porownania.Rezultat.toString</text>
</a>
</g>
</g>
<!-- Node4&#45;&gt;Node5 -->
<g id="edge4" class="edge">
<title>Node4&#45;&gt;Node5</title>
<path fill="none" stroke="#63b8ff" d="M214.53,-144C196.87,-144 178.16,-144 160.77,-144"/>
<polygon fill="#63b8ff" stroke="#63b8ff" points="214.79,-147.5 224.79,-144 214.79,-140.5 214.79,-147.5"/>
</g>
<!-- Node6&#45;&gt;Node7 -->
<g id="edge6" class="edge">
<title>Node6&#45;&gt;Node7</title>
<path fill="none" stroke="#63b8ff" d="M402.99,-90.43C391.74,-89.06 380.28,-87.66 369.21,-86.31"/>
<polygon fill="#63b8ff" stroke="#63b8ff" points="402.9,-93.95 413.25,-91.69 403.74,-87 402.9,-93.95"/>
</g>
<!-- Node8 -->
<g id="node8" class="node">
<title>Node8</title>
<g id="a_node8"><a xlink:href="classporownania_1_1AnalizaPor_xC3_xB3wnawcza.html#a4fb7b99f4ed968c3c62c6fa132b19938" target="_top" xlink:title=" ">
<polygon fill="white" stroke="#666666" points="179,-86.5 0,-86.5 0,-67.5 179,-67.5 179,-86.5"/>
<text text-anchor="middle" x="89.5" y="-74.5" font-family="Helvetica,sans-Serif" font-size="10.00">porownania.AnalizaPorównawcza.run</text>
</a>
</g>
</g>
<!-- Node7&#45;&gt;Node8 -->
<g id="edge7" class="edge">
<title>Node7&#45;&gt;Node8</title>
<path fill="none" stroke="#63b8ff" d="M204.73,-77C196.31,-77 187.76,-77 179.31,-77"/>
<polygon fill="#63b8ff" stroke="#63b8ff" points="204.91,-80.5 214.91,-77 204.91,-73.5 204.91,-80.5"/>
</g>
</g>
</svg>
