<?xml version="1.0" encoding="UTF-8" standalone="no"?>
<!DOCTYPE svg PUBLIC "-//W3C//DTD SVG 1.1//EN"
 "http://www.w3.org/Graphics/SVG/1.1/DTD/svg11.dtd">
<!-- Generated by graphviz version 2.49.3 (0)
 -->
<!-- Title: Motywy.Motyw.Motyw Pages: 1 -->
<svg width="505pt" height="321pt"
 viewBox="0.00 0.00 505.00 321.00" xmlns="http://www.w3.org/2000/svg" xmlns:xlink="http://www.w3.org/1999/xlink">
<g id="graph0" class="graph" transform="scale(1 1) rotate(0) translate(4 317)">
<title>Motywy.Motyw.Motyw</title>
<!-- Node1 -->
<g id="node1" class="node">
<title>Node1</title>
<g id="a_node1"><a xlink:title=" ">
<polygon fill="#999999" stroke="#666666" points="114,-172 0,-172 0,-153 114,-153 114,-172"/>
<text text-anchor="middle" x="57" y="-160" font-family="Helvetica,sans-Serif" font-size="10.00">Motywy.Motyw.Motyw</text>
</a>
</g>
</g>
<!-- Node2 -->
<g id="node2" class="node">
<title>Node2</title>
<g id="a_node2"><a xlink:href="classStruktury_1_1Zdarzenie.html#a0d579308bbe6a5400dd6fbfb35d1ea31" target="_top" xlink:title=" ">
<polygon fill="white" stroke="#666666" points="489,-313 347,-313 347,-294 489,-294 489,-313"/>
<text text-anchor="middle" x="418" y="-301" font-family="Helvetica,sans-Serif" font-size="10.00">Struktury.Zdarzenie.getPitch</text>
</a>
</g>
</g>
<!-- Node1&#45;&gt;Node2 -->
<g id="edge1" class="edge">
<title>Node1&#45;&gt;Node2</title>
<path fill="none" stroke="#63b8ff" d="M62.62,-172.03C73.95,-194.25 105.52,-249.47 150,-273.5 207.18,-304.39 281.21,-310.54 336.81,-309.73"/>
<polygon fill="#63b8ff" stroke="#63b8ff" points="337.05,-313.23 346.97,-309.51 336.89,-306.23 337.05,-313.23"/>
</g>
<!-- Node3 -->
<g id="node3" class="node">
<title>Node3</title>
<g id="a_node3"><a xlink:href="classStruktury_1_1ArkuszZdarzenie.html#a3e1eb6a41e16bd31dfb9c7525f58b11b" target="_top" xlink:title=" ">
<polygon fill="white" stroke="#666666" points="493.5,-273.5 342.5,-273.5 342.5,-243.5 493.5,-243.5 493.5,-273.5"/>
<text text-anchor="start" x="350.5" y="-261.5" font-family="Helvetica,sans-Serif" font-size="10.00">Struktury.ArkuszZdarzenie.get</text>
<text text-anchor="middle" x="418" y="-250.5" font-family="Helvetica,sans-Serif" font-size="10.00">Zdarzenie</text>
</a>
</g>
</g>
<!-- Node1&#45;&gt;Node3 -->
<g id="edge2" class="edge">
<title>Node1&#45;&gt;Node3</title>
<path fill="none" stroke="#63b8ff" d="M64.48,-172.03C77.86,-190.79 110.64,-232.11 150,-248.5 207.43,-272.41 277.96,-274.02 332.11,-270.12"/>
<polygon fill="#63b8ff" stroke="#63b8ff" points="332.67,-273.59 342.36,-269.3 332.12,-266.61 332.67,-273.59"/>
</g>
<!-- Node4 -->
<g id="node4" class="node">
<title>Node4</title>
<g id="a_node4"><a xlink:href="classStruktury_1_1ArkuszZdarzenie.html#ae0c2a592c4029801152a9731d3ec62f4" target="_top" xlink:title=" ">
<polygon fill="white" stroke="#666666" points="295,-115.5 158,-115.5 158,-85.5 295,-85.5 295,-115.5"/>
<text text-anchor="start" x="166" y="-103.5" font-family="Helvetica,sans-Serif" font-size="10.00">Struktury.ArkuszZdarzenie.</text>
<text text-anchor="middle" x="226.5" y="-92.5" font-family="Helvetica,sans-Serif" font-size="10.00">Kopiuj</text>
</a>
</g>
</g>
<!-- Node1&#45;&gt;Node4 -->
<g id="edge3" class="edge">
<title>Node1&#45;&gt;Node4</title>
<path fill="none" stroke="#63b8ff" d="M83.8,-152.95C108.07,-143.97 145.05,-130.28 175.16,-119.13"/>
<polygon fill="#63b8ff" stroke="#63b8ff" points="176.5,-122.37 184.66,-115.62 174.07,-115.8 176.5,-122.37"/>
</g>
<!-- Node5 -->
<g id="node5" class="node">
<title>Node5</title>
<g id="a_node5"><a xlink:href="classMotywy_1_1Motyw.html#ada31b6948fe6606145cd37b4878c320f" target="_top" xlink:title=" ">
<polygon fill="white" stroke="#666666" points="497,-222.5 339,-222.5 339,-192.5 497,-192.5 497,-222.5"/>
<text text-anchor="start" x="347" y="-210.5" font-family="Helvetica,sans-Serif" font-size="10.00">Motywy.Motyw.KorektaInterwału</text>
<text text-anchor="middle" x="418" y="-199.5" font-family="Helvetica,sans-Serif" font-size="10.00">Humdrum</text>
</a>
</g>
</g>
<!-- Node1&#45;&gt;Node5 -->
<g id="edge4" class="edge">
<title>Node1&#45;&gt;Node5</title>
<path fill="none" stroke="#63b8ff" d="M114.09,-169.53C171.59,-176.74 261.81,-188.05 328.86,-196.45"/>
<polygon fill="#63b8ff" stroke="#63b8ff" points="328.63,-199.95 338.99,-197.72 329.5,-193.01 328.63,-199.95"/>
</g>
<!-- Node6 -->
<g id="node6" class="node">
<title>Node6</title>
<g id="a_node6"><a xlink:href="classStruktury_1_1Zdarzenie.html#abdaa09775ef9f3dc0874c4579aba2bfd" target="_top" xlink:title=" ">
<polygon fill="white" stroke="#666666" points="296.5,-67.5 156.5,-67.5 156.5,-37.5 296.5,-37.5 296.5,-67.5"/>
<text text-anchor="start" x="164.5" y="-55.5" font-family="Helvetica,sans-Serif" font-size="10.00">Struktury.Zdarzenie.Oznacz</text>
<text text-anchor="middle" x="226.5" y="-44.5" font-family="Helvetica,sans-Serif" font-size="10.00">Początek</text>
</a>
</g>
</g>
<!-- Node1&#45;&gt;Node6 -->
<g id="edge5" class="edge">
<title>Node1&#45;&gt;Node6</title>
<path fill="none" stroke="#63b8ff" d="M65.81,-152.76C80.49,-135.09 113.96,-97.6 150,-76.5 153,-74.74 156.14,-73.1 159.37,-71.57"/>
<polygon fill="#63b8ff" stroke="#63b8ff" points="160.88,-74.73 168.65,-67.52 158.08,-68.31 160.88,-74.73"/>
</g>
<!-- Node7 -->
<g id="node7" class="node">
<title>Node7</title>
<g id="a_node7"><a xlink:href="classStruktury_1_1Zdarzenie.html#a7f42568598ee4c3e13733e4f1e888ecf" target="_top" xlink:title=" ">
<polygon fill="white" stroke="#666666" points="494,-167 342,-167 342,-148 494,-148 494,-167"/>
<text text-anchor="middle" x="418" y="-155" font-family="Helvetica,sans-Serif" font-size="10.00">Struktury.Zdarzenie.setInterval</text>
</a>
</g>
</g>
<!-- Node1&#45;&gt;Node7 -->
<g id="edge6" class="edge">
<title>Node1&#45;&gt;Node7</title>
<path fill="none" stroke="#63b8ff" d="M114.09,-161.72C172.43,-160.91 264.47,-159.62 331.8,-158.69"/>
<polygon fill="#63b8ff" stroke="#63b8ff" points="332.01,-162.18 341.96,-158.55 331.91,-155.18 332.01,-162.18"/>
</g>
<!-- Node8 -->
<g id="node8" class="node">
<title>Node8</title>
<g id="a_node8"><a xlink:href="classMotywy_1_1Motyw.html#ac2cdd8da139f329cfc3faf36049f6a6a" target="_top" xlink:title=" ">
<polygon fill="white" stroke="#666666" points="300.5,-19 152.5,-19 152.5,0 300.5,0 300.5,-19"/>
<text text-anchor="middle" x="226.5" y="-7" font-family="Helvetica,sans-Serif" font-size="10.00">Motywy.Motyw.WykonajKraba</text>
</a>
</g>
</g>
<!-- Node1&#45;&gt;Node8 -->
<g id="edge7" class="edge">
<title>Node1&#45;&gt;Node8</title>
<path fill="none" stroke="#63b8ff" d="M61.7,-152.96C71.79,-128.24 102.28,-61.7 150,-28.5 152.86,-26.51 155.91,-24.73 159.08,-23.13"/>
<polygon fill="#63b8ff" stroke="#63b8ff" points="160.53,-26.32 168.29,-19.11 157.73,-19.91 160.53,-26.32"/>
</g>
<!-- Node9 -->
<g id="node9" class="node">
<title>Node9</title>
<g id="a_node9"><a xlink:href="classMotywy_1_1Motyw.html#a28609ed90ed8f9d585dba34d3bff4800" target="_top" xlink:title=" ">
<polygon fill="white" stroke="#666666" points="303,-239.5 150,-239.5 150,-209.5 303,-209.5 303,-239.5"/>
<text text-anchor="start" x="158" y="-227.5" font-family="Helvetica,sans-Serif" font-size="10.00">Motywy.Motyw.WyliczNaNowo</text>
<text text-anchor="middle" x="226.5" y="-216.5" font-family="Helvetica,sans-Serif" font-size="10.00">Interwały</text>
</a>
</g>
</g>
<!-- Node1&#45;&gt;Node9 -->
<g id="edge8" class="edge">
<title>Node1&#45;&gt;Node9</title>
<path fill="none" stroke="#63b8ff" d="M83.8,-172.05C108.07,-181.03 145.05,-194.72 175.16,-205.87"/>
<polygon fill="#63b8ff" stroke="#63b8ff" points="174.07,-209.2 184.66,-209.38 176.5,-202.63 174.07,-209.2"/>
</g>
<!-- Node9&#45;&gt;Node2 -->
<g id="edge9" class="edge">
<title>Node9&#45;&gt;Node2</title>
<path fill="none" stroke="#63b8ff" d="M252.89,-239.73C275.02,-252.51 308.3,-270.54 339,-282.5 347.26,-285.72 356.2,-288.62 364.97,-291.18"/>
<polygon fill="#63b8ff" stroke="#63b8ff" points="364.19,-294.6 374.77,-293.92 366.08,-287.86 364.19,-294.6"/>
</g>
<!-- Node9&#45;&gt;Node3 -->
<g id="edge10" class="edge">
<title>Node9&#45;&gt;Node3</title>
<path fill="none" stroke="#63b8ff" d="M303.21,-238.08C312.78,-239.8 322.61,-241.56 332.3,-243.3"/>
<polygon fill="#63b8ff" stroke="#63b8ff" points="331.87,-246.78 342.33,-245.1 333.11,-239.89 331.87,-246.78"/>
</g>
<!-- Node9&#45;&gt;Node5 -->
<g id="edge11" class="edge">
<title>Node9&#45;&gt;Node5</title>
<path fill="none" stroke="#63b8ff" d="M303.21,-217.71C311.66,-216.95 320.32,-216.17 328.9,-215.4"/>
<polygon fill="#63b8ff" stroke="#63b8ff" points="329.28,-218.88 338.93,-214.5 328.66,-211.91 329.28,-218.88"/>
</g>
<!-- Node9&#45;&gt;Node7 -->
<g id="edge12" class="edge">
<title>Node9&#45;&gt;Node7</title>
<path fill="none" stroke="#63b8ff" d="M267.39,-209.5C288.6,-201.6 315.16,-191.86 339,-183.5 351.65,-179.07 365.51,-174.39 378,-170.24"/>
<polygon fill="#63b8ff" stroke="#63b8ff" points="379.27,-173.51 387.67,-167.04 377.07,-166.86 379.27,-173.51"/>
</g>
</g>
</svg>
