<?xml version="1.0" encoding="UTF-8" standalone="no"?>
<!DOCTYPE svg PUBLIC "-//W3C//DTD SVG 1.1//EN"
 "http://www.w3.org/Graphics/SVG/1.1/DTD/svg11.dtd">
<!-- Generated by graphviz version 2.49.3 (0)
 -->
<!-- Title: Motywy.ParaMotywów.toString Pages: 1 -->
<svg width="530pt" height="86pt"
 viewBox="0.00 0.00 530.00 86.00" xmlns="http://www.w3.org/2000/svg" xmlns:xlink="http://www.w3.org/1999/xlink">
<g id="graph0" class="graph" transform="scale(1 1) rotate(0) translate(4 82)">
<title>Motywy.ParaMotywów.toString</title>
<!-- Node1 -->
<g id="node1" class="node">
<title>Node1</title>
<g id="a_node1"><a xlink:title=" ">
<polygon fill="#999999" stroke="#666666" points="152,-48.5 0,-48.5 0,-29.5 152,-29.5 152,-48.5"/>
<text text-anchor="middle" x="76" y="-36.5" font-family="Helvetica,sans-Serif" font-size="10.00">Motywy.ParaMotywów.toString</text>
</a>
</g>
</g>
<!-- Node2 -->
<g id="node2" class="node">
<title>Node2</title>
<g id="a_node2"><a xlink:href="classMotywy_1_1Motyw.html#a849761056fc3a98537ebb0089584cfdb" target="_top" xlink:title=" ">
<polygon fill="white" stroke="#666666" points="335,-54 188,-54 188,-24 335,-24 335,-54"/>
<text text-anchor="start" x="196" y="-42" font-family="Helvetica,sans-Serif" font-size="10.00">Motywy.Motyw.getLokalizację</text>
<text text-anchor="middle" x="261.5" y="-31" font-family="Helvetica,sans-Serif" font-size="10.00">Początku</text>
</a>
</g>
</g>
<!-- Node1&#45;&gt;Node2 -->
<g id="edge1" class="edge">
<title>Node1&#45;&gt;Node2</title>
<path fill="none" stroke="#63b8ff" d="M152.17,-39C160.54,-39 169.1,-39 177.57,-39"/>
<polygon fill="#63b8ff" stroke="#63b8ff" points="177.82,-42.5 187.82,-39 177.82,-35.5 177.82,-42.5"/>
</g>
<!-- Node3 -->
<g id="node3" class="node">
<title>Node3</title>
<g id="a_node3"><a xlink:href="classStruktury_1_1ArkuszZdarzenie.html#a51ecd5710e9e6d740314661d80e9499f" target="_top" xlink:title=" ">
<polygon fill="white" stroke="#666666" points="522,-78 371,-78 371,-48 522,-48 522,-78"/>
<text text-anchor="start" x="379" y="-66" font-family="Helvetica,sans-Serif" font-size="10.00">Struktury.ArkuszZdarzenie.get</text>
<text text-anchor="middle" x="446.5" y="-55" font-family="Helvetica,sans-Serif" font-size="10.00">NazwęKolumny</text>
</a>
</g>
</g>
<!-- Node2&#45;&gt;Node3 -->
<g id="edge2" class="edge">
<title>Node2&#45;&gt;Node3</title>
<path fill="none" stroke="#63b8ff" d="M335.09,-48.52C343.55,-49.63 352.24,-50.77 360.85,-51.9"/>
<polygon fill="#63b8ff" stroke="#63b8ff" points="360.53,-55.39 370.9,-53.22 361.44,-48.45 360.53,-55.39"/>
</g>
<!-- Node4 -->
<g id="node4" class="node">
<title>Node4</title>
<g id="a_node4"><a xlink:href="classStruktury_1_1ArkuszZdarzenie.html#aab8a50eda797bd00b06ec5b4c9217724" target="_top" xlink:title=" ">
<polygon fill="white" stroke="#666666" points="522,-30 371,-30 371,0 522,0 522,-30"/>
<text text-anchor="start" x="379" y="-18" font-family="Helvetica,sans-Serif" font-size="10.00">Struktury.ArkuszZdarzenie.get</text>
<text text-anchor="middle" x="446.5" y="-7" font-family="Helvetica,sans-Serif" font-size="10.00">Wiersz</text>
</a>
</g>
</g>
<!-- Node2&#45;&gt;Node4 -->
<g id="edge3" class="edge">
<title>Node2&#45;&gt;Node4</title>
<path fill="none" stroke="#63b8ff" d="M335.09,-29.48C343.55,-28.37 352.24,-27.23 360.85,-26.1"/>
<polygon fill="#63b8ff" stroke="#63b8ff" points="361.44,-29.55 370.9,-24.78 360.53,-22.61 361.44,-29.55"/>
</g>
</g>
</svg>
