<?xml version="1.0" encoding="UTF-8" standalone="no"?>
<!DOCTYPE svg PUBLIC "-//W3C//DTD SVG 1.1//EN"
 "http://www.w3.org/Graphics/SVG/1.1/DTD/svg11.dtd">
<!-- Generated by graphviz version 2.49.3 (0)
 -->
<!-- Title: Motywy.Motyw.KorektaInterwałuHumdrum Pages: 1 -->
<svg width="711pt" height="73pt"
 viewBox="0.00 0.00 711.00 72.50" xmlns="http://www.w3.org/2000/svg" xmlns:xlink="http://www.w3.org/1999/xlink">
<g id="graph0" class="graph" transform="scale(1 1) rotate(0) translate(4 68.5)">
<title>Motywy.Motyw.KorektaInterwałuHumdrum</title>
<!-- Node1 -->
<g id="node1" class="node">
<title>Node1</title>
<g id="a_node1"><a xlink:title=" ">
<polygon fill="#999999" stroke="#666666" points="703,-51 545,-51 545,-21 703,-21 703,-51"/>
<text text-anchor="start" x="553" y="-39" font-family="Helvetica,sans-Serif" font-size="10.00">Motywy.Motyw.KorektaInterwału</text>
<text text-anchor="middle" x="624" y="-28" font-family="Helvetica,sans-Serif" font-size="10.00">Humdrum</text>
</a>
</g>
</g>
<!-- Node2 -->
<g id="node2" class="node">
<title>Node2</title>
<g id="a_node2"><a xlink:href="classMotywy_1_1Motyw.html#aaf6b164d32ae45a3647c86047afb23d3" target="_top" xlink:title=" ">
<polygon fill="white" stroke="#666666" points="304,-64.5 190,-64.5 190,-45.5 304,-45.5 304,-64.5"/>
<text text-anchor="middle" x="247" y="-52.5" font-family="Helvetica,sans-Serif" font-size="10.00">Motywy.Motyw.Motyw</text>
</a>
</g>
</g>
<!-- Node1&#45;&gt;Node2 -->
<g id="edge1" class="edge">
<title>Node1&#45;&gt;Node2</title>
<path fill="none" stroke="#63b8ff" d="M534.52,-40.48C463.19,-44.1 365.05,-49.07 304.12,-52.16"/>
<polygon fill="#63b8ff" stroke="#63b8ff" points="535.03,-43.96 544.84,-39.96 534.68,-36.97 535.03,-43.96"/>
</g>
<!-- Node3 -->
<g id="node3" class="node">
<title>Node3</title>
<g id="a_node3"><a xlink:href="classMotywy_1_1Motyw.html#a28609ed90ed8f9d585dba34d3bff4800" target="_top" xlink:title=" ">
<polygon fill="white" stroke="#666666" points="509,-30 356,-30 356,0 509,0 509,-30"/>
<text text-anchor="start" x="364" y="-18" font-family="Helvetica,sans-Serif" font-size="10.00">Motywy.Motyw.WyliczNaNowo</text>
<text text-anchor="middle" x="432.5" y="-7" font-family="Helvetica,sans-Serif" font-size="10.00">Interwały</text>
</a>
</g>
</g>
<!-- Node1&#45;&gt;Node3 -->
<g id="edge2" class="edge">
<title>Node1&#45;&gt;Node3</title>
<path fill="none" stroke="#63b8ff" d="M534.78,-26.22C526.18,-25.27 517.51,-24.31 509.05,-23.37"/>
<polygon fill="#63b8ff" stroke="#63b8ff" points="534.5,-29.71 544.83,-27.34 535.28,-22.76 534.5,-29.71"/>
</g>
<!-- Node3&#45;&gt;Node2 -->
<g id="edge3" class="edge">
<title>Node3&#45;&gt;Node2</title>
<path fill="none" stroke="#63b8ff" d="M352.78,-32.16C331.83,-36.73 309.96,-41.49 291.65,-45.49"/>
<polygon fill="#63b8ff" stroke="#63b8ff" points="353.62,-35.56 362.65,-30.01 352.13,-28.72 353.62,-35.56"/>
</g>
<!-- Node4 -->
<g id="node4" class="node">
<title>Node4</title>
<g id="a_node4"><a xlink:href="classMotywy_1_1Motyw.html#a7aa0c770a7e49f3fcfe491292039798c" target="_top" xlink:title=" ">
<polygon fill="white" stroke="#666666" points="320,-24.5 174,-24.5 174,-5.5 320,-5.5 320,-24.5"/>
<text text-anchor="middle" x="247" y="-12.5" font-family="Helvetica,sans-Serif" font-size="10.00">Motywy.Motyw.Odkrabowanie</text>
</a>
</g>
</g>
<!-- Node3&#45;&gt;Node4 -->
<g id="edge4" class="edge">
<title>Node3&#45;&gt;Node4</title>
<path fill="none" stroke="#63b8ff" d="M345.54,-15C337.09,-15 328.57,-15 320.28,-15"/>
<polygon fill="#63b8ff" stroke="#63b8ff" points="345.8,-18.5 355.8,-15 345.8,-11.5 345.8,-18.5"/>
</g>
<!-- Node5 -->
<g id="node5" class="node">
<title>Node5</title>
<g id="a_node5"><a xlink:href="classMotywy_1_1ParaMotyw_xC3_xB3w.html#ab931de0cb5af4fd954d48d91c1de5c24" target="_top" xlink:title=" ">
<polygon fill="white" stroke="#666666" points="138,-30 0,-30 0,0 138,0 138,-30"/>
<text text-anchor="start" x="8" y="-18" font-family="Helvetica,sans-Serif" font-size="10.00">Motywy.ParaMotywów.Para</text>
<text text-anchor="middle" x="69" y="-7" font-family="Helvetica,sans-Serif" font-size="10.00">Motywów</text>
</a>
</g>
</g>
<!-- Node4&#45;&gt;Node5 -->
<g id="edge5" class="edge">
<title>Node4&#45;&gt;Node5</title>
<path fill="none" stroke="#63b8ff" d="M163.82,-15C155.18,-15 146.47,-15 138.01,-15"/>
<polygon fill="#63b8ff" stroke="#63b8ff" points="163.91,-18.5 173.91,-15 163.91,-11.5 163.91,-18.5"/>
</g>
</g>
</svg>
