<?xml version="1.0" encoding="UTF-8" standalone="no"?>
<!DOCTYPE svg PUBLIC "-//W3C//DTD SVG 1.1//EN"
 "http://www.w3.org/Graphics/SVG/1.1/DTD/svg11.dtd">
<!-- Generated by graphviz version 2.49.3 (0)
 -->
<!-- Title: Motywy.Fragmenty.TwórzIndeksyLiczbowe Pages: 1 -->
<svg width="546pt" height="295pt"
 viewBox="0.00 0.00 546.00 294.50" xmlns="http://www.w3.org/2000/svg" xmlns:xlink="http://www.w3.org/1999/xlink">
<g id="graph0" class="graph" transform="scale(1 1) rotate(0) translate(4 290.5)">
<title>Motywy.Fragmenty.TwórzIndeksyLiczbowe</title>
<!-- Node1 -->
<g id="node1" class="node">
<title>Node1</title>
<g id="a_node1"><a xlink:title=" ">
<polygon fill="#999999" stroke="#666666" points="164,-164 0,-164 0,-134 164,-134 164,-164"/>
<text text-anchor="start" x="8" y="-152" font-family="Helvetica,sans-Serif" font-size="10.00">Motywy.Fragmenty.TwórzIndeksy</text>
<text text-anchor="middle" x="82" y="-141" font-family="Helvetica,sans-Serif" font-size="10.00">Liczbowe</text>
</a>
</g>
</g>
<!-- Node2 -->
<g id="node2" class="node">
<title>Node2</title>
<g id="a_node2"><a xlink:href="classMotywy_1_1Fragmenty.html#a654558f130a86c40dff29b3955c7e5ce" target="_top" xlink:title=" ">
<polygon fill="white" stroke="#666666" points="336,-164 200,-164 200,-134 336,-134 336,-164"/>
<text text-anchor="start" x="208" y="-152" font-family="Helvetica,sans-Serif" font-size="10.00">Motywy.Fragmenty.getOpis</text>
<text text-anchor="middle" x="268" y="-141" font-family="Helvetica,sans-Serif" font-size="10.00">KomórkiArkusza</text>
</a>
</g>
</g>
<!-- Node1&#45;&gt;Node2 -->
<g id="edge1" class="edge">
<title>Node1&#45;&gt;Node2</title>
<path fill="none" stroke="#63b8ff" d="M164.24,-149C172.73,-149 181.34,-149 189.78,-149"/>
<polygon fill="#63b8ff" stroke="#63b8ff" points="189.97,-152.5 199.97,-149 189.97,-145.5 189.97,-152.5"/>
</g>
<!-- Node3 -->
<g id="node3" class="node">
<title>Node3</title>
<g id="a_node3"><a xlink:href="classMotywy_1_1ParaMotyw_xC3_xB3w.html#ab847e648dd51f9b94baa11ae764d938b" target="_top" xlink:title=" ">
<polygon fill="white" stroke="#666666" points="538,-286.5 372,-286.5 372,-267.5 538,-267.5 538,-286.5"/>
<text text-anchor="middle" x="455" y="-274.5" font-family="Helvetica,sans-Serif" font-size="10.00">Motywy.ParaMotywów.getMotyw1</text>
</a>
</g>
</g>
<!-- Node2&#45;&gt;Node3 -->
<g id="edge2" class="edge">
<title>Node2&#45;&gt;Node3</title>
<path fill="none" stroke="#63b8ff" d="M278.67,-164.17C294.87,-188.28 329.93,-235.07 372,-259 375.07,-260.75 378.29,-262.32 381.61,-263.75"/>
<polygon fill="#63b8ff" stroke="#63b8ff" points="380.59,-267.1 391.18,-267.37 383.07,-260.56 380.59,-267.1"/>
</g>
<!-- Node4 -->
<g id="node4" class="node">
<title>Node4</title>
<g id="a_node4"><a xlink:href="classMotywy_1_1ParaMotyw_xC3_xB3w.html#aa11e402d0f891343148eb7c16fc7a1fc" target="_top" xlink:title=" ">
<polygon fill="white" stroke="#666666" points="538,-249.5 372,-249.5 372,-230.5 538,-230.5 538,-249.5"/>
<text text-anchor="middle" x="455" y="-237.5" font-family="Helvetica,sans-Serif" font-size="10.00">Motywy.ParaMotywów.getMotyw2</text>
</a>
</g>
</g>
<!-- Node2&#45;&gt;Node4 -->
<g id="edge3" class="edge">
<title>Node2&#45;&gt;Node4</title>
<path fill="none" stroke="#63b8ff" d="M286.33,-164.27C305.83,-180.68 339.11,-206.36 372,-221 377.47,-223.44 383.3,-225.58 389.22,-227.46"/>
<polygon fill="#63b8ff" stroke="#63b8ff" points="388.65,-230.94 399.23,-230.39 390.61,-224.22 388.65,-230.94"/>
</g>
<!-- Node5 -->
<g id="node5" class="node">
<title>Node5</title>
<g id="a_node5"><a xlink:href="classStruktury_1_1ArkuszZdarzenie.html#a51ecd5710e9e6d740314661d80e9499f" target="_top" xlink:title=" ">
<polygon fill="white" stroke="#666666" points="530.5,-212 379.5,-212 379.5,-182 530.5,-182 530.5,-212"/>
<text text-anchor="start" x="387.5" y="-200" font-family="Helvetica,sans-Serif" font-size="10.00">Struktury.ArkuszZdarzenie.get</text>
<text text-anchor="middle" x="455" y="-189" font-family="Helvetica,sans-Serif" font-size="10.00">NazwęKolumny</text>
</a>
</g>
</g>
<!-- Node2&#45;&gt;Node5 -->
<g id="edge4" class="edge">
<title>Node2&#45;&gt;Node5</title>
<path fill="none" stroke="#63b8ff" d="M327.03,-164.06C345.88,-168.95 366.97,-174.42 386.46,-179.48"/>
<polygon fill="#63b8ff" stroke="#63b8ff" points="385.62,-182.87 396.18,-182 387.38,-176.1 385.62,-182.87"/>
</g>
<!-- Node6 -->
<g id="node6" class="node">
<title>Node6</title>
<g id="a_node6"><a xlink:href="classMotywy_1_1Motyw.html#a390f9d1acc3c0862c70b71bc7f13f931" target="_top" xlink:title=" ">
<polygon fill="white" stroke="#666666" points="527.5,-164 382.5,-164 382.5,-134 527.5,-134 527.5,-164"/>
<text text-anchor="start" x="390.5" y="-152" font-family="Helvetica,sans-Serif" font-size="10.00">Motywy.Motyw.getReferencję</text>
<text text-anchor="middle" x="455" y="-141" font-family="Helvetica,sans-Serif" font-size="10.00">DoMotywu</text>
</a>
</g>
</g>
<!-- Node2&#45;&gt;Node6 -->
<g id="edge5" class="edge">
<title>Node2&#45;&gt;Node6</title>
<path fill="none" stroke="#63b8ff" d="M336.05,-149C347.85,-149 360.24,-149 372.38,-149"/>
<polygon fill="#63b8ff" stroke="#63b8ff" points="372.5,-152.5 382.5,-149 372.5,-145.5 372.5,-152.5"/>
</g>
<!-- Node7 -->
<g id="node7" class="node">
<title>Node7</title>
<g id="a_node7"><a xlink:href="classStruktury_1_1Zdarzenie.html#a987607d51dcbf215ee1795c3a0122c6e" target="_top" xlink:title=" ">
<polygon fill="white" stroke="#666666" points="524,-115.5 386,-115.5 386,-96.5 524,-96.5 524,-115.5"/>
<text text-anchor="middle" x="455" y="-103.5" font-family="Helvetica,sans-Serif" font-size="10.00">Struktury.Zdarzenie.getTakt</text>
</a>
</g>
</g>
<!-- Node2&#45;&gt;Node7 -->
<g id="edge6" class="edge">
<title>Node2&#45;&gt;Node7</title>
<path fill="none" stroke="#63b8ff" d="M333.56,-133.94C346.3,-130.98 359.57,-127.89 372,-125 381.93,-122.69 392.53,-120.23 402.71,-117.87"/>
<polygon fill="#63b8ff" stroke="#63b8ff" points="403.75,-121.23 412.7,-115.56 402.17,-114.41 403.75,-121.23"/>
</g>
<!-- Node8 -->
<g id="node8" class="node">
<title>Node8</title>
<g id="a_node8"><a xlink:href="classStruktury_1_1ArkuszZdarzenie.html#aab8a50eda797bd00b06ec5b4c9217724" target="_top" xlink:title=" ">
<polygon fill="white" stroke="#666666" points="530.5,-78 379.5,-78 379.5,-48 530.5,-48 530.5,-78"/>
<text text-anchor="start" x="387.5" y="-66" font-family="Helvetica,sans-Serif" font-size="10.00">Struktury.ArkuszZdarzenie.get</text>
<text text-anchor="middle" x="455" y="-55" font-family="Helvetica,sans-Serif" font-size="10.00">Wiersz</text>
</a>
</g>
</g>
<!-- Node2&#45;&gt;Node8 -->
<g id="edge7" class="edge">
<title>Node2&#45;&gt;Node8</title>
<path fill="none" stroke="#63b8ff" d="M291.08,-133.82C311.39,-120.36 342.72,-100.91 372,-88 377.32,-85.65 382.93,-83.44 388.61,-81.38"/>
<polygon fill="#63b8ff" stroke="#63b8ff" points="389.91,-84.63 398.21,-78.04 387.61,-78.02 389.91,-84.63"/>
</g>
<!-- Node9 -->
<g id="node9" class="node">
<title>Node9</title>
<g id="a_node9"><a xlink:href="classStruktury_1_1ArkuszZdarzenie.html#a3e1eb6a41e16bd31dfb9c7525f58b11b" target="_top" xlink:title=" ">
<polygon fill="white" stroke="#666666" points="530.5,-30 379.5,-30 379.5,0 530.5,0 530.5,-30"/>
<text text-anchor="start" x="387.5" y="-18" font-family="Helvetica,sans-Serif" font-size="10.00">Struktury.ArkuszZdarzenie.get</text>
<text text-anchor="middle" x="455" y="-7" font-family="Helvetica,sans-Serif" font-size="10.00">Zdarzenie</text>
</a>
</g>
</g>
<!-- Node2&#45;&gt;Node9 -->
<g id="edge8" class="edge">
<title>Node2&#45;&gt;Node9</title>
<path fill="none" stroke="#63b8ff" d="M279.13,-133.78C295.73,-110.01 331,-64.22 372,-39 374.78,-37.29 377.69,-35.7 380.68,-34.21"/>
<polygon fill="#63b8ff" stroke="#63b8ff" points="382.19,-37.37 389.87,-30.08 379.32,-30.99 382.19,-37.37"/>
</g>
</g>
</svg>
