<?xml version="1.0" encoding="UTF-8" standalone="no"?>
<!DOCTYPE svg PUBLIC "-//W3C//DTD SVG 1.1//EN"
 "http://www.w3.org/Graphics/SVG/1.1/DTD/svg11.dtd">
<!-- Generated by graphviz version 2.49.3 (0)
 -->
<!-- Title: Struktury.SystemGłos.CzySystem Pages: 1 -->
<svg width="512pt" height="86pt"
 viewBox="0.00 0.00 512.00 86.00" xmlns="http://www.w3.org/2000/svg" xmlns:xlink="http://www.w3.org/1999/xlink">
<g id="graph0" class="graph" transform="scale(1 1) rotate(0) translate(4 82)">
<title>Struktury.SystemGłos.CzySystem</title>
<!-- Node1 -->
<g id="node1" class="node">
<title>Node1</title>
<g id="a_node1"><a xlink:title=" ">
<polygon fill="#999999" stroke="#666666" points="504,-54 370,-54 370,-24 504,-24 504,-54"/>
<text text-anchor="start" x="378" y="-42" font-family="Helvetica,sans-Serif" font-size="10.00">Struktury.SystemGłos.Czy</text>
<text text-anchor="middle" x="437" y="-31" font-family="Helvetica,sans-Serif" font-size="10.00">System</text>
</a>
</g>
</g>
<!-- Node2 -->
<g id="node2" class="node">
<title>Node2</title>
<g id="a_node2"><a xlink:href="classStruktury_1_1SystemG_xC5_x82os.html#a153c509cbfecd926d3698c39d165cb74" target="_top" xlink:title=" ">
<polygon fill="white" stroke="#666666" points="334,-78 188,-78 188,-48 334,-48 334,-78"/>
<text text-anchor="start" x="196" y="-66" font-family="Helvetica,sans-Serif" font-size="10.00">Struktury.SystemGłos.Wylicz</text>
<text text-anchor="middle" x="261" y="-55" font-family="Helvetica,sans-Serif" font-size="10.00">Numer</text>
</a>
</g>
</g>
<!-- Node1&#45;&gt;Node2 -->
<g id="edge1" class="edge">
<title>Node1&#45;&gt;Node2</title>
<path fill="none" stroke="#63b8ff" d="M359.81,-49.51C351.3,-50.68 342.65,-51.88 334.18,-53.04"/>
<polygon fill="#63b8ff" stroke="#63b8ff" points="360.29,-52.98 369.72,-48.14 359.34,-46.04 360.29,-52.98"/>
</g>
<!-- Node4 -->
<g id="node4" class="node">
<title>Node4</title>
<g id="a_node4"><a xlink:href="classStruktury_1_1Interpreter.html#a516c744ba909899cdea81e38deeb4526" target="_top" xlink:title=" ">
<polygon fill="white" stroke="#666666" points="329.5,-30 192.5,-30 192.5,0 329.5,0 329.5,-30"/>
<text text-anchor="start" x="200.5" y="-18" font-family="Helvetica,sans-Serif" font-size="10.00">Struktury.Interpreter.Znajdź</text>
<text text-anchor="middle" x="261" y="-7" font-family="Helvetica,sans-Serif" font-size="10.00">Systemy</text>
</a>
</g>
</g>
<!-- Node1&#45;&gt;Node4 -->
<g id="edge3" class="edge">
<title>Node1&#45;&gt;Node4</title>
<path fill="none" stroke="#63b8ff" d="M359.75,-28.48C349.69,-27.1 339.44,-25.68 329.54,-24.32"/>
<polygon fill="#63b8ff" stroke="#63b8ff" points="359.34,-31.96 369.72,-29.86 360.29,-25.02 359.34,-31.96"/>
</g>
<!-- Node3 -->
<g id="node3" class="node">
<title>Node3</title>
<g id="a_node3"><a xlink:href="classStruktury_1_1SystemG_xC5_x82os.html#a618a18bf8e293e0332591dbeea1e9fbb" target="_top" xlink:title=" ">
<polygon fill="white" stroke="#666666" points="151,-78 1,-78 1,-48 151,-48 151,-78"/>
<text text-anchor="start" x="9" y="-66" font-family="Helvetica,sans-Serif" font-size="10.00">Struktury.SystemGłos.System</text>
<text text-anchor="middle" x="76" y="-55" font-family="Helvetica,sans-Serif" font-size="10.00">Głos</text>
</a>
</g>
</g>
<!-- Node2&#45;&gt;Node3 -->
<g id="edge2" class="edge">
<title>Node2&#45;&gt;Node3</title>
<path fill="none" stroke="#63b8ff" d="M177.92,-63C168.99,-63 159.93,-63 151.1,-63"/>
<polygon fill="#63b8ff" stroke="#63b8ff" points="177.94,-66.5 187.94,-63 177.94,-59.5 177.94,-66.5"/>
</g>
<!-- Node5 -->
<g id="node5" class="node">
<title>Node5</title>
<g id="a_node5"><a xlink:href="classStruktury_1_1Interpreter.html#a4c2426a0220ccfab53ef88b4ef68e5ab" target="_top" xlink:title=" ">
<polygon fill="white" stroke="#666666" points="152,-24.5 0,-24.5 0,-5.5 152,-5.5 152,-24.5"/>
<text text-anchor="middle" x="76" y="-12.5" font-family="Helvetica,sans-Serif" font-size="10.00">Struktury.Interpreter.Interpreter</text>
</a>
</g>
</g>
<!-- Node4&#45;&gt;Node5 -->
<g id="edge4" class="edge">
<title>Node4&#45;&gt;Node5</title>
<path fill="none" stroke="#63b8ff" d="M182.1,-15C172.14,-15 161.96,-15 152.05,-15"/>
<polygon fill="#63b8ff" stroke="#63b8ff" points="182.38,-18.5 192.38,-15 182.38,-11.5 182.38,-18.5"/>
</g>
</g>
</svg>
