<?xml version="1.0" encoding="UTF-8" standalone="no"?>
<!DOCTYPE svg PUBLIC "-//W3C//DTD SVG 1.1//EN"
 "http://www.w3.org/Graphics/SVG/1.1/DTD/svg11.dtd">
<!-- Generated by graphviz version 2.49.3 (0)
 -->
<!-- Title: Motywy.ParaMotywów.getMotyw2 Pages: 1 -->
<svg width="898pt" height="177pt"
 viewBox="0.00 0.00 898.00 177.00" xmlns="http://www.w3.org/2000/svg" xmlns:xlink="http://www.w3.org/1999/xlink">
<g id="graph0" class="graph" transform="scale(1 1) rotate(0) translate(4 173)">
<title>Motywy.ParaMotywów.getMotyw2</title>
<!-- Node1 -->
<g id="node1" class="node">
<title>Node1</title>
<g id="a_node1"><a xlink:title=" ">
<polygon fill="#999999" stroke="#666666" points="890,-91.5 724,-91.5 724,-72.5 890,-72.5 890,-91.5"/>
<text text-anchor="middle" x="807" y="-79.5" font-family="Helvetica,sans-Serif" font-size="10.00">Motywy.ParaMotywów.getMotyw2</text>
</a>
</g>
</g>
<!-- Node2 -->
<g id="node2" class="node">
<title>Node2</title>
<g id="a_node2"><a xlink:href="classMotywy_1_1Fragmenty.html#afd7562817c9b351e1f74c5a4d0531900" target="_top" xlink:title=" ">
<polygon fill="white" stroke="#666666" points="686,-169 550,-169 550,-139 686,-139 686,-169"/>
<text text-anchor="start" x="558" y="-157" font-family="Helvetica,sans-Serif" font-size="10.00">Motywy.Fragmenty.Generuj</text>
<text text-anchor="middle" x="618" y="-146" font-family="Helvetica,sans-Serif" font-size="10.00">TablicęOpisu</text>
</a>
</g>
</g>
<!-- Node1&#45;&gt;Node2 -->
<g id="edge1" class="edge">
<title>Node1&#45;&gt;Node2</title>
<path fill="none" stroke="#63b8ff" d="M774,-95.54C750.36,-105.41 717.33,-118.94 688,-130 680.05,-133 671.53,-136.07 663.29,-138.97"/>
<polygon fill="#63b8ff" stroke="#63b8ff" points="775.65,-98.64 783.52,-91.55 772.94,-92.19 775.65,-98.64"/>
</g>
<!-- Node3 -->
<g id="node3" class="node">
<title>Node3</title>
<g id="a_node3"><a xlink:href="classMotywy_1_1Fragmenty.html#acfa236e2c16528208cbbb131c87212c1" target="_top" xlink:title=" ">
<polygon fill="white" stroke="#666666" points="688,-121 548,-121 548,-91 688,-91 688,-121"/>
<text text-anchor="start" x="556" y="-109" font-family="Helvetica,sans-Serif" font-size="10.00">Motywy.Fragmenty.getMiary</text>
<text text-anchor="middle" x="618" y="-98" font-family="Helvetica,sans-Serif" font-size="10.00">Motywów</text>
</a>
</g>
</g>
<!-- Node1&#45;&gt;Node3 -->
<g id="edge2" class="edge">
<title>Node1&#45;&gt;Node3</title>
<path fill="none" stroke="#63b8ff" d="M721.63,-92.83C710.45,-94.26 699.1,-95.72 688.22,-97.12"/>
<polygon fill="#63b8ff" stroke="#63b8ff" points="722.35,-96.26 731.82,-91.52 721.46,-89.32 722.35,-96.26"/>
</g>
<!-- Node4 -->
<g id="node4" class="node">
<title>Node4</title>
<g id="a_node4"><a xlink:href="classMotywy_1_1Fragmenty.html#a654558f130a86c40dff29b3955c7e5ce" target="_top" xlink:title=" ">
<polygon fill="white" stroke="#666666" points="686,-73 550,-73 550,-43 686,-43 686,-73"/>
<text text-anchor="start" x="558" y="-61" font-family="Helvetica,sans-Serif" font-size="10.00">Motywy.Fragmenty.getOpis</text>
<text text-anchor="middle" x="618" y="-50" font-family="Helvetica,sans-Serif" font-size="10.00">KomórkiArkusza</text>
</a>
</g>
</g>
<!-- Node1&#45;&gt;Node4 -->
<g id="edge3" class="edge">
<title>Node1&#45;&gt;Node4</title>
<path fill="none" stroke="#63b8ff" d="M721.84,-71.2C709.87,-69.66 697.69,-68.1 686.11,-66.61"/>
<polygon fill="#63b8ff" stroke="#63b8ff" points="721.46,-74.68 731.82,-72.48 722.35,-67.74 721.46,-74.68"/>
</g>
<!-- Node8 -->
<g id="node8" class="node">
<title>Node8</title>
<g id="a_node8"><a xlink:href="classMotywy_1_1Fragmenty.html#a1d32b57c48e3938e88c61779d38cb519" target="_top" xlink:title=" ">
<polygon fill="white" stroke="#666666" points="499.5,-30 360.5,-30 360.5,0 499.5,0 499.5,-30"/>
<text text-anchor="start" x="368.5" y="-18" font-family="Helvetica,sans-Serif" font-size="10.00">Motywy.Fragmenty.Wypełnij</text>
<text text-anchor="middle" x="430" y="-7" font-family="Helvetica,sans-Serif" font-size="10.00">TablicęSkróconą</text>
</a>
</g>
</g>
<!-- Node1&#45;&gt;Node8 -->
<g id="edge9" class="edge">
<title>Node1&#45;&gt;Node8</title>
<path fill="none" stroke="#63b8ff" d="M778.81,-68.08C755.4,-56.8 720.36,-41.58 688,-34 625.27,-19.31 551.8,-15.13 499.51,-14.29"/>
<polygon fill="#63b8ff" stroke="#63b8ff" points="777.27,-71.23 787.79,-72.49 780.36,-64.94 777.27,-71.23"/>
</g>
<!-- Node5 -->
<g id="node5" class="node">
<title>Node5</title>
<g id="a_node5"><a xlink:href="classMotywy_1_1Fragmenty.html#a0980cac3e787436873aefd34d196428f" target="_top" xlink:title=" ">
<polygon fill="white" stroke="#666666" points="512,-78 348,-78 348,-48 512,-48 512,-78"/>
<text text-anchor="start" x="356" y="-66" font-family="Helvetica,sans-Serif" font-size="10.00">Motywy.Fragmenty.TwórzIndeksy</text>
<text text-anchor="middle" x="430" y="-55" font-family="Helvetica,sans-Serif" font-size="10.00">Liczbowe</text>
</a>
</g>
</g>
<!-- Node4&#45;&gt;Node5 -->
<g id="edge4" class="edge">
<title>Node4&#45;&gt;Node5</title>
<path fill="none" stroke="#63b8ff" d="M539.65,-60.08C530.52,-60.32 521.19,-60.58 512.01,-60.82"/>
<polygon fill="#63b8ff" stroke="#63b8ff" points="539.95,-63.57 549.85,-59.81 539.76,-56.58 539.95,-63.57"/>
</g>
<!-- Node4&#45;&gt;Node8 -->
<g id="edge7" class="edge">
<title>Node4&#45;&gt;Node8</title>
<path fill="none" stroke="#63b8ff" d="M542.04,-40.67C526.8,-37.15 510.88,-33.47 496.02,-30.03"/>
<polygon fill="#63b8ff" stroke="#63b8ff" points="541.41,-44.12 551.95,-42.96 542.99,-37.3 541.41,-44.12"/>
</g>
<!-- Node6 -->
<g id="node6" class="node">
<title>Node6</title>
<g id="a_node6"><a xlink:href="classMotywy_1_1Fragmenty.html#af142a18268a561dcafe100a07e2b1928" target="_top" xlink:title=" ">
<polygon fill="white" stroke="#666666" points="312,-54 178,-54 178,-24 312,-24 312,-54"/>
<text text-anchor="start" x="186" y="-42" font-family="Helvetica,sans-Serif" font-size="10.00">Motywy.Fragmenty.Utwórz</text>
<text text-anchor="middle" x="245" y="-31" font-family="Helvetica,sans-Serif" font-size="10.00">MacierzMotywów</text>
</a>
</g>
</g>
<!-- Node5&#45;&gt;Node6 -->
<g id="edge5" class="edge">
<title>Node5&#45;&gt;Node6</title>
<path fill="none" stroke="#63b8ff" d="M337.81,-51.04C329.17,-49.91 320.53,-48.77 312.19,-47.68"/>
<polygon fill="#63b8ff" stroke="#63b8ff" points="337.56,-54.54 347.93,-52.37 338.47,-47.6 337.56,-54.54"/>
</g>
<!-- Node7 -->
<g id="node7" class="node">
<title>Node7</title>
<g id="a_node7"><a xlink:href="classporownania_1_1Rezultat.html#abfab722f91bb304108e01333fdbf5cf3" target="_top" xlink:title=" ">
<polygon fill="white" stroke="#666666" points="142,-48.5 0,-48.5 0,-29.5 142,-29.5 142,-48.5"/>
<text text-anchor="middle" x="71" y="-36.5" font-family="Helvetica,sans-Serif" font-size="10.00">porownania.Rezultat.toString</text>
</a>
</g>
</g>
<!-- Node6&#45;&gt;Node7 -->
<g id="edge6" class="edge">
<title>Node6&#45;&gt;Node7</title>
<path fill="none" stroke="#63b8ff" d="M167.98,-39C159.37,-39 150.64,-39 142.11,-39"/>
<polygon fill="#63b8ff" stroke="#63b8ff" points="167.99,-42.5 177.99,-39 167.99,-35.5 167.99,-42.5"/>
</g>
<!-- Node8&#45;&gt;Node6 -->
<g id="edge8" class="edge">
<title>Node8&#45;&gt;Node6</title>
<path fill="none" stroke="#63b8ff" d="M350.21,-25.33C337.48,-27 324.41,-28.72 312.01,-30.34"/>
<polygon fill="#63b8ff" stroke="#63b8ff" points="350.88,-28.78 360.34,-24 349.97,-21.84 350.88,-28.78"/>
</g>
</g>
</svg>
