<?xml version="1.0" encoding="UTF-8" standalone="no"?>
<!DOCTYPE svg PUBLIC "-//W3C//DTD SVG 1.1//EN"
 "http://www.w3.org/Graphics/SVG/1.1/DTD/svg11.dtd">
<!-- Generated by graphviz version 2.49.3 (0)
 -->
<!-- Title: Struktury.Interpreter.ZnajdźSystemy Pages: 1 -->
<svg width="522pt" height="177pt"
 viewBox="0.00 0.00 522.00 177.00" xmlns="http://www.w3.org/2000/svg" xmlns:xlink="http://www.w3.org/1999/xlink">
<g id="graph0" class="graph" transform="scale(1 1) rotate(0) translate(4 173)">
<title>Struktury.Interpreter.ZnajdźSystemy</title>
<!-- Node1 -->
<g id="node1" class="node">
<title>Node1</title>
<g id="a_node1"><a xlink:title=" ">
<polygon fill="#999999" stroke="#666666" points="137,-97 0,-97 0,-67 137,-67 137,-97"/>
<text text-anchor="start" x="8" y="-85" font-family="Helvetica,sans-Serif" font-size="10.00">Struktury.Interpreter.Znajdź</text>
<text text-anchor="middle" x="68.5" y="-74" font-family="Helvetica,sans-Serif" font-size="10.00">Systemy</text>
</a>
</g>
</g>
<!-- Node2 -->
<g id="node2" class="node">
<title>Node2</title>
<g id="a_node2"><a xlink:href="classStruktury_1_1SystemG_xC5_x82os.html#a60e4f3a5508b5bb8ef95db68dae93add" target="_top" xlink:title=" ">
<polygon fill="white" stroke="#666666" points="316.5,-169 182.5,-169 182.5,-139 316.5,-139 316.5,-169"/>
<text text-anchor="start" x="190.5" y="-157" font-family="Helvetica,sans-Serif" font-size="10.00">Struktury.SystemGłos.Czy</text>
<text text-anchor="middle" x="249.5" y="-146" font-family="Helvetica,sans-Serif" font-size="10.00">System</text>
</a>
</g>
</g>
<!-- Node1&#45;&gt;Node2 -->
<g id="edge1" class="edge">
<title>Node1&#45;&gt;Node2</title>
<path fill="none" stroke="#63b8ff" d="M99.41,-97.1C119.85,-107.11 147.71,-120.16 173,-130 177.84,-131.88 182.9,-133.73 188,-135.52"/>
<polygon fill="#63b8ff" stroke="#63b8ff" points="187.24,-138.96 197.83,-138.87 189.49,-132.33 187.24,-138.96"/>
</g>
<!-- Node3 -->
<g id="node3" class="node">
<title>Node3</title>
<g id="a_node3"><a xlink:href="classStruktury_1_1Arkusz.html#a79857648540bf4023e641b2aff039798" target="_top" xlink:title=" ">
<polygon fill="white" stroke="#666666" points="317.5,-121 181.5,-121 181.5,-91 317.5,-91 317.5,-121"/>
<text text-anchor="start" x="189.5" y="-109" font-family="Helvetica,sans-Serif" font-size="10.00">Struktury.Arkusz.getLiczbę</text>
<text text-anchor="middle" x="249.5" y="-98" font-family="Helvetica,sans-Serif" font-size="10.00">Kolumn</text>
</a>
</g>
</g>
<!-- Node1&#45;&gt;Node3 -->
<g id="edge2" class="edge">
<title>Node1&#45;&gt;Node3</title>
<path fill="none" stroke="#63b8ff" d="M137.17,-91.07C148.35,-92.57 160.02,-94.14 171.41,-95.66"/>
<polygon fill="#63b8ff" stroke="#63b8ff" points="170.95,-99.13 181.33,-96.99 171.88,-92.2 170.95,-99.13"/>
</g>
<!-- Node4 -->
<g id="node4" class="node">
<title>Node4</title>
<g id="a_node4"><a xlink:href="classStruktury_1_1Arkusz.html#a95b58aa18e3e7c03eac576d325233442" target="_top" xlink:title=" ">
<polygon fill="white" stroke="#666666" points="317.5,-73 181.5,-73 181.5,-43 317.5,-43 317.5,-73"/>
<text text-anchor="start" x="189.5" y="-61" font-family="Helvetica,sans-Serif" font-size="10.00">Struktury.Arkusz.getLiczbę</text>
<text text-anchor="middle" x="249.5" y="-50" font-family="Helvetica,sans-Serif" font-size="10.00">Wierszy</text>
</a>
</g>
</g>
<!-- Node1&#45;&gt;Node4 -->
<g id="edge3" class="edge">
<title>Node1&#45;&gt;Node4</title>
<path fill="none" stroke="#63b8ff" d="M137.17,-72.93C148.35,-71.43 160.02,-69.86 171.41,-68.34"/>
<polygon fill="#63b8ff" stroke="#63b8ff" points="171.88,-71.8 181.33,-67.01 170.95,-64.87 171.88,-71.8"/>
</g>
<!-- Node5 -->
<g id="node5" class="node">
<title>Node5</title>
<g id="a_node5"><a xlink:href="classStruktury_1_1Arkusz.html#a2609006d8beb64d6e213f77f2ebca081" target="_top" xlink:title=" ">
<polygon fill="white" stroke="#666666" points="326,-24.5 173,-24.5 173,-5.5 326,-5.5 326,-24.5"/>
<text text-anchor="middle" x="249.5" y="-12.5" font-family="Helvetica,sans-Serif" font-size="10.00">Struktury.Arkusz.getZawartość</text>
</a>
</g>
</g>
<!-- Node1&#45;&gt;Node5 -->
<g id="edge4" class="edge">
<title>Node1&#45;&gt;Node5</title>
<path fill="none" stroke="#63b8ff" d="M98.33,-66.85C118.76,-56.55 147.05,-43.19 173,-34 179.92,-31.55 187.3,-29.28 194.64,-27.23"/>
<polygon fill="#63b8ff" stroke="#63b8ff" points="195.81,-30.54 204.57,-24.58 194,-23.78 195.81,-30.54"/>
</g>
<!-- Node6 -->
<g id="node6" class="node">
<title>Node6</title>
<g id="a_node6"><a xlink:href="classStruktury_1_1Kom_xC3_xB3rkaArkusza.html#a42c4136f3d8445665c672404a0cf9b58" target="_top" xlink:title=" ">
<polygon fill="white" stroke="#666666" points="514,-30 362,-30 362,0 514,0 514,-30"/>
<text text-anchor="start" x="370" y="-18" font-family="Helvetica,sans-Serif" font-size="10.00">Struktury.KomórkaArkusza.get</text>
<text text-anchor="middle" x="438" y="-7" font-family="Helvetica,sans-Serif" font-size="10.00">Komórkę</text>
</a>
</g>
</g>
<!-- Node5&#45;&gt;Node6 -->
<g id="edge5" class="edge">
<title>Node5&#45;&gt;Node6</title>
<path fill="none" stroke="#63b8ff" d="M326.09,-15C334.58,-15 343.27,-15 351.87,-15"/>
<polygon fill="#63b8ff" stroke="#63b8ff" points="351.91,-18.5 361.91,-15 351.91,-11.5 351.91,-18.5"/>
</g>
</g>
</svg>
