<?xml version="1.0" encoding="UTF-8" standalone="no"?>
<!DOCTYPE svg PUBLIC "-//W3C//DTD SVG 1.1//EN"
 "http://www.w3.org/Graphics/SVG/1.1/DTD/svg11.dtd">
<!-- Generated by graphviz version 2.49.3 (0)
 -->
<!-- Title: Motywy.Fragmenty.GenerujTablicęOpisu Pages: 1 -->
<svg width="758pt" height="380pt"
 viewBox="0.00 0.00 758.00 380.00" xmlns="http://www.w3.org/2000/svg" xmlns:xlink="http://www.w3.org/1999/xlink">
<g id="graph0" class="graph" transform="scale(1 1) rotate(0) translate(4 376)">
<title>Motywy.Fragmenty.GenerujTablicęOpisu</title>
<!-- Node1 -->
<g id="node1" class="node">
<title>Node1</title>
<g id="a_node1"><a xlink:title=" ">
<polygon fill="#999999" stroke="#666666" points="136,-196 0,-196 0,-166 136,-166 136,-196"/>
<text text-anchor="start" x="8" y="-184" font-family="Helvetica,sans-Serif" font-size="10.00">Motywy.Fragmenty.Generuj</text>
<text text-anchor="middle" x="68" y="-173" font-family="Helvetica,sans-Serif" font-size="10.00">TablicęOpisu</text>
</a>
</g>
</g>
<!-- Node2 -->
<g id="node2" class="node">
<title>Node2</title>
<g id="a_node2"><a xlink:href="classMotywy_1_1Motyw.html#a78e0685f4ff1fb079d1f6230ecff2663" target="_top" xlink:title=" ">
<polygon fill="white" stroke="#666666" points="322.5,-372 188.5,-372 188.5,-342 322.5,-342 322.5,-372"/>
<text text-anchor="start" x="196.5" y="-360" font-family="Helvetica,sans-Serif" font-size="10.00">Motywy.Motyw.getDługość</text>
<text text-anchor="middle" x="255.5" y="-349" font-family="Helvetica,sans-Serif" font-size="10.00">Motywu</text>
</a>
</g>
</g>
<!-- Node1&#45;&gt;Node2 -->
<g id="edge1" class="edge">
<title>Node1&#45;&gt;Node2</title>
<path fill="none" stroke="#63b8ff" d="M75,-196.08C87.94,-226.67 121.48,-296.23 172,-333 174.24,-334.63 176.59,-336.15 179.02,-337.57"/>
<polygon fill="#63b8ff" stroke="#63b8ff" points="177.64,-340.79 188.13,-342.27 180.85,-334.57 177.64,-340.79"/>
</g>
<!-- Node3 -->
<g id="node3" class="node">
<title>Node3</title>
<g id="a_node3"><a xlink:href="classMotywy_1_1Motyw.html#a33ed5bd5d14abe5cb8e0451bb8dbb4c7" target="_top" xlink:title=" ">
<polygon fill="white" stroke="#666666" points="329,-276 182,-276 182,-246 329,-246 329,-276"/>
<text text-anchor="start" x="190" y="-264" font-family="Helvetica,sans-Serif" font-size="10.00">Motywy.Motyw.getLokalizację</text>
<text text-anchor="middle" x="255.5" y="-253" font-family="Helvetica,sans-Serif" font-size="10.00">Końca</text>
</a>
</g>
</g>
<!-- Node1&#45;&gt;Node3 -->
<g id="edge2" class="edge">
<title>Node1&#45;&gt;Node3</title>
<path fill="none" stroke="#63b8ff" d="M93.24,-196.12C113.66,-208.38 143.96,-225.45 172,-237 176.79,-238.97 181.8,-240.85 186.88,-242.63"/>
<polygon fill="#63b8ff" stroke="#63b8ff" points="186.11,-246.06 196.7,-245.91 188.33,-239.42 186.11,-246.06"/>
</g>
<!-- Node6 -->
<g id="node6" class="node">
<title>Node6</title>
<g id="a_node6"><a xlink:href="classMotywy_1_1Motyw.html#a849761056fc3a98537ebb0089584cfdb" target="_top" xlink:title=" ">
<polygon fill="white" stroke="#666666" points="329,-324 182,-324 182,-294 329,-294 329,-324"/>
<text text-anchor="start" x="190" y="-312" font-family="Helvetica,sans-Serif" font-size="10.00">Motywy.Motyw.getLokalizację</text>
<text text-anchor="middle" x="255.5" y="-301" font-family="Helvetica,sans-Serif" font-size="10.00">Początku</text>
</a>
</g>
</g>
<!-- Node1&#45;&gt;Node6 -->
<g id="edge5" class="edge">
<title>Node1&#45;&gt;Node6</title>
<path fill="none" stroke="#63b8ff" d="M79.88,-196.12C96.96,-218.76 132.25,-261.35 172,-285 174.97,-286.77 178.09,-288.42 181.29,-289.95"/>
<polygon fill="#63b8ff" stroke="#63b8ff" points="179.94,-293.18 190.51,-293.96 182.74,-286.76 179.94,-293.18"/>
</g>
<!-- Node7 -->
<g id="node7" class="node">
<title>Node7</title>
<g id="a_node7"><a xlink:href="classMotywy_1_1ParaMotyw_xC3_xB3w.html#ab847e648dd51f9b94baa11ae764d938b" target="_top" xlink:title=" ">
<polygon fill="white" stroke="#666666" points="338.5,-227.5 172.5,-227.5 172.5,-208.5 338.5,-208.5 338.5,-227.5"/>
<text text-anchor="middle" x="255.5" y="-215.5" font-family="Helvetica,sans-Serif" font-size="10.00">Motywy.ParaMotywów.getMotyw1</text>
</a>
</g>
</g>
<!-- Node1&#45;&gt;Node7 -->
<g id="edge8" class="edge">
<title>Node1&#45;&gt;Node7</title>
<path fill="none" stroke="#63b8ff" d="M136.23,-194.41C156.01,-198.35 177.46,-202.63 196.6,-206.45"/>
<polygon fill="#63b8ff" stroke="#63b8ff" points="196.18,-209.94 206.67,-208.46 197.55,-203.07 196.18,-209.94"/>
</g>
<!-- Node8 -->
<g id="node8" class="node">
<title>Node8</title>
<g id="a_node8"><a xlink:href="classMotywy_1_1ParaMotyw_xC3_xB3w.html#aa11e402d0f891343148eb7c16fc7a1fc" target="_top" xlink:title=" ">
<polygon fill="white" stroke="#666666" points="338.5,-190.5 172.5,-190.5 172.5,-171.5 338.5,-171.5 338.5,-190.5"/>
<text text-anchor="middle" x="255.5" y="-178.5" font-family="Helvetica,sans-Serif" font-size="10.00">Motywy.ParaMotywów.getMotyw2</text>
</a>
</g>
</g>
<!-- Node1&#45;&gt;Node8 -->
<g id="edge9" class="edge">
<title>Node1&#45;&gt;Node8</title>
<path fill="none" stroke="#63b8ff" d="M136.23,-181C144.65,-181 153.38,-181 162.1,-181"/>
<polygon fill="#63b8ff" stroke="#63b8ff" points="162.32,-184.5 172.32,-181 162.32,-177.5 162.32,-184.5"/>
</g>
<!-- Node9 -->
<g id="node9" class="node">
<title>Node9</title>
<g id="a_node9"><a xlink:href="classMotywy_1_1ParaMotyw_xC3_xB3w.html#ad6a71562154940909746bf6588b6b84e" target="_top" xlink:title=" ">
<polygon fill="white" stroke="#666666" points="339,-153.5 172,-153.5 172,-134.5 339,-134.5 339,-153.5"/>
<text text-anchor="middle" x="255.5" y="-141.5" font-family="Helvetica,sans-Serif" font-size="10.00">Motywy.ParaMotywów.getRóżnicę</text>
</a>
</g>
</g>
<!-- Node1&#45;&gt;Node9 -->
<g id="edge10" class="edge">
<title>Node1&#45;&gt;Node9</title>
<path fill="none" stroke="#63b8ff" d="M136.23,-167.59C156.01,-163.65 177.46,-159.37 196.6,-155.55"/>
<polygon fill="#63b8ff" stroke="#63b8ff" points="197.55,-158.93 206.67,-153.54 196.18,-152.06 197.55,-158.93"/>
</g>
<!-- Node12 -->
<g id="node12" class="node">
<title>Node12</title>
<g id="a_node12"><a xlink:href="classMotywy_1_1Motyw.html#a390f9d1acc3c0862c70b71bc7f13f931" target="_top" xlink:title=" ">
<polygon fill="white" stroke="#666666" points="328,-116 183,-116 183,-86 328,-86 328,-116"/>
<text text-anchor="start" x="191" y="-104" font-family="Helvetica,sans-Serif" font-size="10.00">Motywy.Motyw.getReferencję</text>
<text text-anchor="middle" x="255.5" y="-93" font-family="Helvetica,sans-Serif" font-size="10.00">DoMotywu</text>
</a>
</g>
</g>
<!-- Node1&#45;&gt;Node12 -->
<g id="edge13" class="edge">
<title>Node1&#45;&gt;Node12</title>
<path fill="none" stroke="#63b8ff" d="M93.24,-165.88C113.66,-153.62 143.96,-136.55 172,-125 176.79,-123.03 181.8,-121.15 186.88,-119.37"/>
<polygon fill="#63b8ff" stroke="#63b8ff" points="188.33,-122.58 196.7,-116.09 186.11,-115.94 188.33,-122.58"/>
</g>
<!-- Node13 -->
<g id="node13" class="node">
<title>Node13</title>
<g id="a_node13"><a xlink:href="classStruktury_1_1Zdarzenie.html#a987607d51dcbf215ee1795c3a0122c6e" target="_top" xlink:title=" ">
<polygon fill="white" stroke="#666666" points="324.5,-67.5 186.5,-67.5 186.5,-48.5 324.5,-48.5 324.5,-67.5"/>
<text text-anchor="middle" x="255.5" y="-55.5" font-family="Helvetica,sans-Serif" font-size="10.00">Struktury.Zdarzenie.getTakt</text>
</a>
</g>
</g>
<!-- Node1&#45;&gt;Node13 -->
<g id="edge14" class="edge">
<title>Node1&#45;&gt;Node13</title>
<path fill="none" stroke="#63b8ff" d="M79.44,-165.97C96.2,-143.05 131.38,-99.63 172,-77 176.01,-74.77 180.27,-72.8 184.65,-71.06"/>
<polygon fill="#63b8ff" stroke="#63b8ff" points="186.15,-74.24 194.41,-67.61 183.82,-67.64 186.15,-74.24"/>
</g>
<!-- Node14 -->
<g id="node14" class="node">
<title>Node14</title>
<g id="a_node14"><a xlink:href="classStruktury_1_1ArkuszZdarzenie.html#a3e1eb6a41e16bd31dfb9c7525f58b11b" target="_top" xlink:title=" ">
<polygon fill="white" stroke="#666666" points="331,-30 180,-30 180,0 331,0 331,-30"/>
<text text-anchor="start" x="188" y="-18" font-family="Helvetica,sans-Serif" font-size="10.00">Struktury.ArkuszZdarzenie.get</text>
<text text-anchor="middle" x="255.5" y="-7" font-family="Helvetica,sans-Serif" font-size="10.00">Zdarzenie</text>
</a>
</g>
</g>
<!-- Node1&#45;&gt;Node14 -->
<g id="edge15" class="edge">
<title>Node1&#45;&gt;Node14</title>
<path fill="none" stroke="#63b8ff" d="M75.91,-165.58C89.8,-136.36 123.93,-72.83 172,-39 174.13,-37.5 176.36,-36.09 178.66,-34.77"/>
<polygon fill="#63b8ff" stroke="#63b8ff" points="180.52,-37.75 187.83,-30.09 177.34,-31.52 180.52,-37.75"/>
</g>
<!-- Node4 -->
<g id="node4" class="node">
<title>Node4</title>
<g id="a_node4"><a xlink:href="classStruktury_1_1ArkuszZdarzenie.html#a51ecd5710e9e6d740314661d80e9499f" target="_top" xlink:title=" ">
<polygon fill="white" stroke="#666666" points="544.5,-276 393.5,-276 393.5,-246 544.5,-246 544.5,-276"/>
<text text-anchor="start" x="401.5" y="-264" font-family="Helvetica,sans-Serif" font-size="10.00">Struktury.ArkuszZdarzenie.get</text>
<text text-anchor="middle" x="469" y="-253" font-family="Helvetica,sans-Serif" font-size="10.00">NazwęKolumny</text>
</a>
</g>
</g>
<!-- Node3&#45;&gt;Node4 -->
<g id="edge3" class="edge">
<title>Node3&#45;&gt;Node4</title>
<path fill="none" stroke="#63b8ff" d="M329.29,-261C346.57,-261 365.15,-261 382.93,-261"/>
<polygon fill="#63b8ff" stroke="#63b8ff" points="383.28,-264.5 393.28,-261 383.28,-257.5 383.28,-264.5"/>
</g>
<!-- Node5 -->
<g id="node5" class="node">
<title>Node5</title>
<g id="a_node5"><a xlink:href="classStruktury_1_1ArkuszZdarzenie.html#aab8a50eda797bd00b06ec5b4c9217724" target="_top" xlink:title=" ">
<polygon fill="white" stroke="#666666" points="544.5,-324 393.5,-324 393.5,-294 544.5,-294 544.5,-324"/>
<text text-anchor="start" x="401.5" y="-312" font-family="Helvetica,sans-Serif" font-size="10.00">Struktury.ArkuszZdarzenie.get</text>
<text text-anchor="middle" x="469" y="-301" font-family="Helvetica,sans-Serif" font-size="10.00">Wiersz</text>
</a>
</g>
</g>
<!-- Node3&#45;&gt;Node5 -->
<g id="edge4" class="edge">
<title>Node3&#45;&gt;Node5</title>
<path fill="none" stroke="#63b8ff" d="M322.84,-276.06C344.79,-281.04 369.38,-286.62 392,-291.75"/>
<polygon fill="#63b8ff" stroke="#63b8ff" points="391.37,-295.2 401.9,-294 392.92,-288.37 391.37,-295.2"/>
</g>
<!-- Node6&#45;&gt;Node4 -->
<g id="edge6" class="edge">
<title>Node6&#45;&gt;Node4</title>
<path fill="none" stroke="#63b8ff" d="M322.84,-293.94C344.79,-288.96 369.38,-283.38 392,-278.25"/>
<polygon fill="#63b8ff" stroke="#63b8ff" points="392.92,-281.63 401.9,-276 391.37,-274.8 392.92,-281.63"/>
</g>
<!-- Node6&#45;&gt;Node5 -->
<g id="edge7" class="edge">
<title>Node6&#45;&gt;Node5</title>
<path fill="none" stroke="#63b8ff" d="M329.29,-309C346.57,-309 365.15,-309 382.93,-309"/>
<polygon fill="#63b8ff" stroke="#63b8ff" points="383.28,-312.5 393.28,-309 383.28,-305.5 383.28,-312.5"/>
</g>
<!-- Node10 -->
<g id="node10" class="node">
<title>Node10</title>
<g id="a_node10"><a xlink:href="classMotywy_1_1Motyw.html#a1bf7b0581400d564daa45e9cba7987f2" target="_top" xlink:title=" ">
<polygon fill="white" stroke="#666666" points="563,-153.5 375,-153.5 375,-134.5 563,-134.5 563,-153.5"/>
<text text-anchor="middle" x="469" y="-141.5" font-family="Helvetica,sans-Serif" font-size="10.00">Motywy.Motyw.CzyMożnaPorównywać</text>
</a>
</g>
</g>
<!-- Node9&#45;&gt;Node10 -->
<g id="edge11" class="edge">
<title>Node9&#45;&gt;Node10</title>
<path fill="none" stroke="#63b8ff" d="M339.18,-144C347.59,-144 356.21,-144 364.8,-144"/>
<polygon fill="#63b8ff" stroke="#63b8ff" points="364.86,-147.5 374.86,-144 364.86,-140.5 364.86,-147.5"/>
</g>
<!-- Node11 -->
<g id="node11" class="node">
<title>Node11</title>
<g id="a_node11"><a xlink:href="classStruktury_1_1ArkuszZdarzenie.html#add9f4b9b1ae80d624e5f480cda1574ee" target="_top" xlink:title=" ">
<polygon fill="white" stroke="#666666" points="750,-159 599,-159 599,-129 750,-129 750,-159"/>
<text text-anchor="start" x="607" y="-147" font-family="Helvetica,sans-Serif" font-size="10.00">Struktury.ArkuszZdarzenie.get</text>
<text text-anchor="middle" x="674.5" y="-136" font-family="Helvetica,sans-Serif" font-size="10.00">NumerGłosu</text>
</a>
</g>
</g>
<!-- Node10&#45;&gt;Node11 -->
<g id="edge12" class="edge">
<title>Node10&#45;&gt;Node11</title>
<path fill="none" stroke="#63b8ff" d="M563.11,-144C571.6,-144 580.16,-144 588.56,-144"/>
<polygon fill="#63b8ff" stroke="#63b8ff" points="588.72,-147.5 598.72,-144 588.72,-140.5 588.72,-147.5"/>
</g>
</g>
</svg>
