<?xml version="1.0" encoding="UTF-8" standalone="no"?>
<!DOCTYPE svg PUBLIC "-//W3C//DTD SVG 1.1//EN"
 "http://www.w3.org/Graphics/SVG/1.1/DTD/svg11.dtd">
<!-- Generated by graphviz version 2.49.3 (0)
 -->
<!-- Title: porownania.GłówneOknoProgramu.GłówneOknoProgramu Pages: 1 -->
<svg width="603pt" height="134pt"
 viewBox="0.00 0.00 603.00 134.00" xmlns="http://www.w3.org/2000/svg" xmlns:xlink="http://www.w3.org/1999/xlink">
<g id="graph0" class="graph" transform="scale(1 1) rotate(0) translate(4 130)">
<title>porownania.GłówneOknoProgramu.GłówneOknoProgramu</title>
<!-- Node1 -->
<g id="node1" class="node">
<title>Node1</title>
<g id="a_node1"><a xlink:title=" ">
<polygon fill="#999999" stroke="#666666" points="170,-78 0,-78 0,-48 170,-48 170,-78"/>
<text text-anchor="start" x="8" y="-66" font-family="Helvetica,sans-Serif" font-size="10.00">porownania.GłówneOknoProgramu.</text>
<text text-anchor="middle" x="85" y="-55" font-family="Helvetica,sans-Serif" font-size="10.00">GłówneOknoProgramu</text>
</a>
</g>
</g>
<!-- Node2 -->
<g id="node2" class="node">
<title>Node2</title>
<g id="a_node2"><a xlink:href="classporownania_1_1G_xC5_x82_xC3_xB3wneOknoProgramu.html#ac6224b0f500469c137817884fee998f8" target="_top" xlink:title=" ">
<polygon fill="white" stroke="#666666" points="382.5,-126 212.5,-126 212.5,-96 382.5,-96 382.5,-126"/>
<text text-anchor="start" x="220.5" y="-114" font-family="Helvetica,sans-Serif" font-size="10.00">porownania.GłówneOknoProgramu.</text>
<text text-anchor="middle" x="297.5" y="-103" font-family="Helvetica,sans-Serif" font-size="10.00">InicjalizacjaOkienPlików</text>
</a>
</g>
</g>
<!-- Node1&#45;&gt;Node2 -->
<g id="edge1" class="edge">
<title>Node1&#45;&gt;Node2</title>
<path fill="none" stroke="#63b8ff" d="M152.03,-78.06C173.87,-83.04 198.35,-88.62 220.86,-93.75"/>
<polygon fill="#63b8ff" stroke="#63b8ff" points="220.18,-97.19 230.71,-96 221.74,-90.36 220.18,-97.19"/>
</g>
<!-- Node3 -->
<g id="node3" class="node">
<title>Node3</title>
<g id="a_node3"><a xlink:href="classporownania_1_1G_xC5_x82_xC3_xB3wneOknoProgramu.html#ac3ba41ea74f3bd870c628b9d4fd131a8" target="_top" xlink:title=" ">
<polygon fill="white" stroke="#666666" points="382.5,-78 212.5,-78 212.5,-48 382.5,-48 382.5,-78"/>
<text text-anchor="start" x="220.5" y="-66" font-family="Helvetica,sans-Serif" font-size="10.00">porownania.GłówneOknoProgramu.</text>
<text text-anchor="middle" x="297.5" y="-55" font-family="Helvetica,sans-Serif" font-size="10.00">InicjalizacjaWstępnaMenu</text>
</a>
</g>
</g>
<!-- Node1&#45;&gt;Node3 -->
<g id="edge2" class="edge">
<title>Node1&#45;&gt;Node3</title>
<path fill="none" stroke="#63b8ff" d="M170.1,-63C180.6,-63 191.4,-63 202.04,-63"/>
<polygon fill="#63b8ff" stroke="#63b8ff" points="202.19,-66.5 212.19,-63 202.19,-59.5 202.19,-66.5"/>
</g>
<!-- Node5 -->
<g id="node5" class="node">
<title>Node5</title>
<g id="a_node5"><a xlink:href="classporownania_1_1G_xC5_x82_xC3_xB3wneOknoProgramu.html#affc39cfd33c67de7a029e40427312663" target="_top" xlink:title=" ">
<polygon fill="white" stroke="#666666" points="389,-30 206,-30 206,0 389,0 389,-30"/>
<text text-anchor="start" x="214" y="-18" font-family="Helvetica,sans-Serif" font-size="10.00">porownania.GłówneOknoProgramu.init</text>
<text text-anchor="middle" x="297.5" y="-7" font-family="Helvetica,sans-Serif" font-size="10.00">Components</text>
</a>
</g>
</g>
<!-- Node1&#45;&gt;Node5 -->
<g id="edge4" class="edge">
<title>Node1&#45;&gt;Node5</title>
<path fill="none" stroke="#63b8ff" d="M152.03,-47.94C173.87,-42.96 198.35,-37.38 220.86,-32.25"/>
<polygon fill="#63b8ff" stroke="#63b8ff" points="221.74,-35.64 230.71,-30 220.18,-28.81 221.74,-35.64"/>
</g>
<!-- Node4 -->
<g id="node4" class="node">
<title>Node4</title>
<g id="a_node4"><a xlink:href="classporownania_1_1G_xC5_x82_xC3_xB3wneOknoProgramu.html#a7fcb50577ffad54f885abba8634af204" target="_top" xlink:title=" ">
<polygon fill="white" stroke="#666666" points="595,-78 425,-78 425,-48 595,-48 595,-78"/>
<text text-anchor="start" x="433" y="-66" font-family="Helvetica,sans-Serif" font-size="10.00">porownania.GłówneOknoProgramu.</text>
<text text-anchor="middle" x="510" y="-55" font-family="Helvetica,sans-Serif" font-size="10.00">SterowanieWalidacją</text>
</a>
</g>
</g>
<!-- Node3&#45;&gt;Node4 -->
<g id="edge3" class="edge">
<title>Node3&#45;&gt;Node4</title>
<path fill="none" stroke="#63b8ff" d="M382.6,-63C393.1,-63 403.9,-63 414.54,-63"/>
<polygon fill="#63b8ff" stroke="#63b8ff" points="414.69,-66.5 424.69,-63 414.69,-59.5 414.69,-66.5"/>
</g>
</g>
</svg>
