<?xml version="1.0" encoding="UTF-8" standalone="no"?>
<!DOCTYPE svg PUBLIC "-//W3C//DTD SVG 1.1//EN"
 "http://www.w3.org/Graphics/SVG/1.1/DTD/svg11.dtd">
<!-- Generated by graphviz version 2.49.3 (0)
 -->
<!-- Title: Struktury.Interpreter.UzupełnijNumeryTaktów Pages: 1 -->
<svg width="717pt" height="276pt"
 viewBox="0.00 0.00 717.00 276.00" xmlns="http://www.w3.org/2000/svg" xmlns:xlink="http://www.w3.org/1999/xlink">
<g id="graph0" class="graph" transform="scale(1 1) rotate(0) translate(4 272)">
<title>Struktury.Interpreter.UzupełnijNumeryTaktów</title>
<!-- Node1 -->
<g id="node1" class="node">
<title>Node1</title>
<g id="a_node1"><a xlink:title=" ">
<polygon fill="#999999" stroke="#666666" points="147,-177 0,-177 0,-147 147,-147 147,-177"/>
<text text-anchor="start" x="8" y="-165" font-family="Helvetica,sans-Serif" font-size="10.00">Struktury.Interpreter.Uzupełnij</text>
<text text-anchor="middle" x="73.5" y="-154" font-family="Helvetica,sans-Serif" font-size="10.00">NumeryTaktów</text>
</a>
</g>
</g>
<!-- Node2 -->
<g id="node2" class="node">
<title>Node2</title>
<g id="a_node2"><a xlink:href="classStruktury_1_1Interpreter.html#a181600cf12a6cf4acdf07540c80cdd4b" target="_top" xlink:title=" ">
<polygon fill="white" stroke="#666666" points="320,-268 195,-268 195,-238 320,-238 320,-268"/>
<text text-anchor="start" x="203" y="-256" font-family="Helvetica,sans-Serif" font-size="10.00">Struktury.Interpreter.Czy</text>
<text text-anchor="middle" x="257.5" y="-245" font-family="Helvetica,sans-Serif" font-size="10.00">WszystkiePuste</text>
</a>
</g>
</g>
<!-- Node1&#45;&gt;Node2 -->
<g id="edge1" class="edge">
<title>Node1&#45;&gt;Node2</title>
<path fill="none" stroke="#63b8ff" d="M95.67,-177.19C116.95,-191.93 151.07,-214.19 183,-229 187.01,-230.86 191.21,-232.64 195.48,-234.33"/>
<polygon fill="#63b8ff" stroke="#63b8ff" points="194.3,-237.63 204.89,-237.88 196.77,-231.08 194.3,-237.63"/>
</g>
<!-- Node3 -->
<g id="node3" class="node">
<title>Node3</title>
<g id="a_node3"><a xlink:href="classStruktury_1_1Arkusz.html#a79857648540bf4023e641b2aff039798" target="_top" xlink:title=" ">
<polygon fill="white" stroke="#666666" points="325.5,-220 189.5,-220 189.5,-190 325.5,-190 325.5,-220"/>
<text text-anchor="start" x="197.5" y="-208" font-family="Helvetica,sans-Serif" font-size="10.00">Struktury.Arkusz.getLiczbę</text>
<text text-anchor="middle" x="257.5" y="-197" font-family="Helvetica,sans-Serif" font-size="10.00">Kolumn</text>
</a>
</g>
</g>
<!-- Node1&#45;&gt;Node3 -->
<g id="edge2" class="edge">
<title>Node1&#45;&gt;Node3</title>
<path fill="none" stroke="#63b8ff" d="M138.15,-177.04C152.56,-180.44 167.98,-184.09 182.77,-187.58"/>
<polygon fill="#63b8ff" stroke="#63b8ff" points="182.34,-191.08 192.88,-189.97 183.95,-184.26 182.34,-191.08"/>
</g>
<!-- Node4 -->
<g id="node4" class="node">
<title>Node4</title>
<g id="a_node4"><a xlink:href="classStruktury_1_1Arkusz.html#a2609006d8beb64d6e213f77f2ebca081" target="_top" xlink:title=" ">
<polygon fill="white" stroke="#666666" points="521,-171.5 368,-171.5 368,-152.5 521,-152.5 521,-171.5"/>
<text text-anchor="middle" x="444.5" y="-159.5" font-family="Helvetica,sans-Serif" font-size="10.00">Struktury.Arkusz.getZawartość</text>
</a>
</g>
</g>
<!-- Node1&#45;&gt;Node4 -->
<g id="edge3" class="edge">
<title>Node1&#45;&gt;Node4</title>
<path fill="none" stroke="#63b8ff" d="M147.4,-162C207.91,-162 294.07,-162 357.86,-162"/>
<polygon fill="#63b8ff" stroke="#63b8ff" points="357.9,-165.5 367.9,-162 357.9,-158.5 357.9,-165.5"/>
</g>
<!-- Node6 -->
<g id="node6" class="node">
<title>Node6</title>
<g id="a_node6"><a xlink:href="classStruktury_1_1Arkusz.html#a3747bcb1e5e0c4a73035e9578b6bf6d7" target="_top" xlink:title=" ">
<polygon fill="white" stroke="#666666" points="518,-133.5 371,-133.5 371,-114.5 518,-114.5 518,-133.5"/>
<text text-anchor="middle" x="444.5" y="-121.5" font-family="Helvetica,sans-Serif" font-size="10.00">Struktury.Arkusz.setKomórkę</text>
</a>
</g>
</g>
<!-- Node1&#45;&gt;Node6 -->
<g id="edge5" class="edge">
<title>Node1&#45;&gt;Node6</title>
<path fill="none" stroke="#63b8ff" d="M147.4,-154.49C208.81,-148.17 296.63,-139.12 360.68,-132.53"/>
<polygon fill="#63b8ff" stroke="#63b8ff" points="361.16,-136 370.75,-131.49 360.44,-129.03 361.16,-136"/>
</g>
<!-- Node8 -->
<g id="node8" class="node">
<title>Node8</title>
<g id="a_node8"><a xlink:href="classStruktury_1_1Interpreter.html#a25a48e8f946a2b064cbfef8be68e1820" target="_top" xlink:title=" ">
<polygon fill="white" stroke="#666666" points="332,-96 183,-96 183,-66 332,-66 332,-96"/>
<text text-anchor="start" x="191" y="-84" font-family="Helvetica,sans-Serif" font-size="10.00">Struktury.Interpreter.Walidacja</text>
<text text-anchor="middle" x="257.5" y="-73" font-family="Helvetica,sans-Serif" font-size="10.00">Liczb</text>
</a>
</g>
</g>
<!-- Node1&#45;&gt;Node8 -->
<g id="edge7" class="edge">
<title>Node1&#45;&gt;Node8</title>
<path fill="none" stroke="#63b8ff" d="M104.63,-146.85C126.26,-136.15 156.2,-121.69 183,-110 190.77,-106.61 199.08,-103.17 207.2,-99.89"/>
<polygon fill="#63b8ff" stroke="#63b8ff" points="208.62,-103.09 216.62,-96.14 206.03,-96.59 208.62,-103.09"/>
</g>
<!-- Node5 -->
<g id="node5" class="node">
<title>Node5</title>
<g id="a_node5"><a xlink:href="classStruktury_1_1Kom_xC3_xB3rkaArkusza.html#a42c4136f3d8445665c672404a0cf9b58" target="_top" xlink:title=" ">
<polygon fill="white" stroke="#666666" points="709,-182 557,-182 557,-152 709,-152 709,-182"/>
<text text-anchor="start" x="565" y="-170" font-family="Helvetica,sans-Serif" font-size="10.00">Struktury.KomórkaArkusza.get</text>
<text text-anchor="middle" x="633" y="-159" font-family="Helvetica,sans-Serif" font-size="10.00">Komórkę</text>
</a>
</g>
</g>
<!-- Node4&#45;&gt;Node5 -->
<g id="edge4" class="edge">
<title>Node4&#45;&gt;Node5</title>
<path fill="none" stroke="#63b8ff" d="M521.09,-164.03C529.58,-164.25 538.27,-164.49 546.87,-164.72"/>
<polygon fill="#63b8ff" stroke="#63b8ff" points="546.82,-168.22 556.91,-164.99 547.01,-161.22 546.82,-168.22"/>
</g>
<!-- Node7 -->
<g id="node7" class="node">
<title>Node7</title>
<g id="a_node7"><a xlink:href="classStruktury_1_1Kom_xC3_xB3rkaArkusza.html#a9e8a46a4fc47a0e2863c8f05528825a2" target="_top" xlink:title=" ">
<polygon fill="white" stroke="#666666" points="709,-134 557,-134 557,-104 709,-104 709,-134"/>
<text text-anchor="start" x="565" y="-122" font-family="Helvetica,sans-Serif" font-size="10.00">Struktury.KomórkaArkusza.set</text>
<text text-anchor="middle" x="633" y="-111" font-family="Helvetica,sans-Serif" font-size="10.00">Wartość</text>
</a>
</g>
</g>
<!-- Node6&#45;&gt;Node7 -->
<g id="edge6" class="edge">
<title>Node6&#45;&gt;Node7</title>
<path fill="none" stroke="#63b8ff" d="M518.14,-122.05C527.45,-121.8 537.06,-121.55 546.55,-121.29"/>
<polygon fill="#63b8ff" stroke="#63b8ff" points="546.89,-124.78 556.79,-121.02 546.7,-117.79 546.89,-124.78"/>
</g>
<!-- Node8&#45;&gt;Node4 -->
<g id="edge11" class="edge">
<title>Node8&#45;&gt;Node4</title>
<path fill="none" stroke="#63b8ff" d="M281.58,-96.1C303.18,-109.68 336.72,-129.38 368,-142 374.99,-144.82 382.51,-147.36 390,-149.61"/>
<polygon fill="#63b8ff" stroke="#63b8ff" points="389.2,-153.02 399.77,-152.4 391.12,-146.29 389.2,-153.02"/>
</g>
<!-- Node8&#45;&gt;Node6 -->
<g id="edge12" class="edge">
<title>Node8&#45;&gt;Node6</title>
<path fill="none" stroke="#63b8ff" d="M323.2,-96.04C345.96,-101.33 371.19,-107.19 392.65,-112.18"/>
<polygon fill="#63b8ff" stroke="#63b8ff" points="392,-115.62 402.53,-114.48 393.58,-108.8 392,-115.62"/>
</g>
<!-- Node9 -->
<g id="node9" class="node">
<title>Node9</title>
<g id="a_node9"><a xlink:href="classStruktury_1_1Interpreter.html#a1da1fa6fac2c58bb39c6ddb88ee73391" target="_top" xlink:title=" ">
<polygon fill="white" stroke="#666666" points="507,-96 382,-96 382,-66 507,-66 507,-96"/>
<text text-anchor="start" x="390" y="-84" font-family="Helvetica,sans-Serif" font-size="10.00">Struktury.Interpreter.Czy</text>
<text text-anchor="middle" x="444.5" y="-73" font-family="Helvetica,sans-Serif" font-size="10.00">Liczba</text>
</a>
</g>
</g>
<!-- Node8&#45;&gt;Node9 -->
<g id="edge8" class="edge">
<title>Node8&#45;&gt;Node9</title>
<path fill="none" stroke="#63b8ff" d="M332.15,-81C345.11,-81 358.58,-81 371.5,-81"/>
<polygon fill="#63b8ff" stroke="#63b8ff" points="371.71,-84.5 381.71,-81 371.71,-77.5 371.71,-84.5"/>
</g>
<!-- Node10 -->
<g id="node10" class="node">
<title>Node10</title>
<g id="a_node10"><a xlink:href="classStruktury_1_1Arkusz.html#ae8591575a4713c4b787d850bc4b5b7d7" target="_top" xlink:title=" ">
<polygon fill="white" stroke="#666666" points="513.5,-30 375.5,-30 375.5,0 513.5,0 513.5,-30"/>
<text text-anchor="start" x="383.5" y="-18" font-family="Helvetica,sans-Serif" font-size="10.00">Struktury.Arkusz.getNazwę</text>
<text text-anchor="middle" x="444.5" y="-7" font-family="Helvetica,sans-Serif" font-size="10.00">Kolumny</text>
</a>
</g>
</g>
<!-- Node8&#45;&gt;Node10 -->
<g id="edge9" class="edge">
<title>Node8&#45;&gt;Node10</title>
<path fill="none" stroke="#63b8ff" d="M300.94,-65.86C327.97,-56.22 363.16,-43.66 391.81,-33.44"/>
<polygon fill="#63b8ff" stroke="#63b8ff" points="393.01,-36.73 401.25,-30.07 390.66,-30.13 393.01,-36.73"/>
</g>
<!-- Node10&#45;&gt;Node10 -->
<g id="edge10" class="edge">
<title>Node10&#45;&gt;Node10</title>
<path fill="none" stroke="#63b8ff" d="M411.8,-30.28C404.54,-39.41 415.44,-48 444.5,-48 461.76,-48 472.61,-44.97 477.06,-40.6"/>
<polygon fill="#63b8ff" stroke="#63b8ff" points="480.56,-40.32 477.2,-30.28 473.56,-40.23 480.56,-40.32"/>
</g>
</g>
</svg>
