<?xml version="1.0" encoding="UTF-8" standalone="no"?>
<!DOCTYPE svg PUBLIC "-//W3C//DTD SVG 1.1//EN"
 "http://www.w3.org/Graphics/SVG/1.1/DTD/svg11.dtd">
<!-- Generated by graphviz version 2.49.3 (0)
 -->
<!-- Title: Motywy.Fragmenty.getOpisKomórkiArkusza Pages: 1 -->
<svg width="346pt" height="295pt"
 viewBox="0.00 0.00 346.00 294.50" xmlns="http://www.w3.org/2000/svg" xmlns:xlink="http://www.w3.org/1999/xlink">
<g id="graph0" class="graph" transform="scale(1 1) rotate(0) translate(4 290.5)">
<title>Motywy.Fragmenty.getOpisKomórkiArkusza</title>
<!-- Node1 -->
<g id="node1" class="node">
<title>Node1</title>
<g id="a_node1"><a xlink:title=" ">
<polygon fill="#999999" stroke="#666666" points="136,-164 0,-164 0,-134 136,-134 136,-164"/>
<text text-anchor="start" x="8" y="-152" font-family="Helvetica,sans-Serif" font-size="10.00">Motywy.Fragmenty.getOpis</text>
<text text-anchor="middle" x="68" y="-141" font-family="Helvetica,sans-Serif" font-size="10.00">KomórkiArkusza</text>
</a>
</g>
</g>
<!-- Node2 -->
<g id="node2" class="node">
<title>Node2</title>
<g id="a_node2"><a xlink:href="classMotywy_1_1ParaMotyw_xC3_xB3w.html#ab847e648dd51f9b94baa11ae764d938b" target="_top" xlink:title=" ">
<polygon fill="white" stroke="#666666" points="338,-286.5 172,-286.5 172,-267.5 338,-267.5 338,-286.5"/>
<text text-anchor="middle" x="255" y="-274.5" font-family="Helvetica,sans-Serif" font-size="10.00">Motywy.ParaMotywów.getMotyw1</text>
</a>
</g>
</g>
<!-- Node1&#45;&gt;Node2 -->
<g id="edge1" class="edge">
<title>Node1&#45;&gt;Node2</title>
<path fill="none" stroke="#63b8ff" d="M78.67,-164.17C94.87,-188.28 129.93,-235.07 172,-259 175.07,-260.75 178.29,-262.32 181.61,-263.75"/>
<polygon fill="#63b8ff" stroke="#63b8ff" points="180.59,-267.1 191.18,-267.37 183.07,-260.56 180.59,-267.1"/>
</g>
<!-- Node3 -->
<g id="node3" class="node">
<title>Node3</title>
<g id="a_node3"><a xlink:href="classMotywy_1_1ParaMotyw_xC3_xB3w.html#aa11e402d0f891343148eb7c16fc7a1fc" target="_top" xlink:title=" ">
<polygon fill="white" stroke="#666666" points="338,-249.5 172,-249.5 172,-230.5 338,-230.5 338,-249.5"/>
<text text-anchor="middle" x="255" y="-237.5" font-family="Helvetica,sans-Serif" font-size="10.00">Motywy.ParaMotywów.getMotyw2</text>
</a>
</g>
</g>
<!-- Node1&#45;&gt;Node3 -->
<g id="edge2" class="edge">
<title>Node1&#45;&gt;Node3</title>
<path fill="none" stroke="#63b8ff" d="M86.33,-164.27C105.83,-180.68 139.11,-206.36 172,-221 177.47,-223.44 183.3,-225.58 189.22,-227.46"/>
<polygon fill="#63b8ff" stroke="#63b8ff" points="188.65,-230.94 199.23,-230.39 190.61,-224.22 188.65,-230.94"/>
</g>
<!-- Node4 -->
<g id="node4" class="node">
<title>Node4</title>
<g id="a_node4"><a xlink:href="classStruktury_1_1ArkuszZdarzenie.html#a51ecd5710e9e6d740314661d80e9499f" target="_top" xlink:title=" ">
<polygon fill="white" stroke="#666666" points="330.5,-212 179.5,-212 179.5,-182 330.5,-182 330.5,-212"/>
<text text-anchor="start" x="187.5" y="-200" font-family="Helvetica,sans-Serif" font-size="10.00">Struktury.ArkuszZdarzenie.get</text>
<text text-anchor="middle" x="255" y="-189" font-family="Helvetica,sans-Serif" font-size="10.00">NazwęKolumny</text>
</a>
</g>
</g>
<!-- Node1&#45;&gt;Node4 -->
<g id="edge3" class="edge">
<title>Node1&#45;&gt;Node4</title>
<path fill="none" stroke="#63b8ff" d="M127.03,-164.06C145.88,-168.95 166.97,-174.42 186.46,-179.48"/>
<polygon fill="#63b8ff" stroke="#63b8ff" points="185.62,-182.87 196.18,-182 187.38,-176.1 185.62,-182.87"/>
</g>
<!-- Node5 -->
<g id="node5" class="node">
<title>Node5</title>
<g id="a_node5"><a xlink:href="classMotywy_1_1Motyw.html#a390f9d1acc3c0862c70b71bc7f13f931" target="_top" xlink:title=" ">
<polygon fill="white" stroke="#666666" points="327.5,-164 182.5,-164 182.5,-134 327.5,-134 327.5,-164"/>
<text text-anchor="start" x="190.5" y="-152" font-family="Helvetica,sans-Serif" font-size="10.00">Motywy.Motyw.getReferencję</text>
<text text-anchor="middle" x="255" y="-141" font-family="Helvetica,sans-Serif" font-size="10.00">DoMotywu</text>
</a>
</g>
</g>
<!-- Node1&#45;&gt;Node5 -->
<g id="edge4" class="edge">
<title>Node1&#45;&gt;Node5</title>
<path fill="none" stroke="#63b8ff" d="M136.05,-149C147.85,-149 160.24,-149 172.38,-149"/>
<polygon fill="#63b8ff" stroke="#63b8ff" points="172.5,-152.5 182.5,-149 172.5,-145.5 172.5,-152.5"/>
</g>
<!-- Node6 -->
<g id="node6" class="node">
<title>Node6</title>
<g id="a_node6"><a xlink:href="classStruktury_1_1Zdarzenie.html#a987607d51dcbf215ee1795c3a0122c6e" target="_top" xlink:title=" ">
<polygon fill="white" stroke="#666666" points="324,-115.5 186,-115.5 186,-96.5 324,-96.5 324,-115.5"/>
<text text-anchor="middle" x="255" y="-103.5" font-family="Helvetica,sans-Serif" font-size="10.00">Struktury.Zdarzenie.getTakt</text>
</a>
</g>
</g>
<!-- Node1&#45;&gt;Node6 -->
<g id="edge5" class="edge">
<title>Node1&#45;&gt;Node6</title>
<path fill="none" stroke="#63b8ff" d="M133.56,-133.94C146.3,-130.98 159.57,-127.89 172,-125 181.93,-122.69 192.53,-120.23 202.71,-117.87"/>
<polygon fill="#63b8ff" stroke="#63b8ff" points="203.75,-121.23 212.7,-115.56 202.17,-114.41 203.75,-121.23"/>
</g>
<!-- Node7 -->
<g id="node7" class="node">
<title>Node7</title>
<g id="a_node7"><a xlink:href="classStruktury_1_1ArkuszZdarzenie.html#aab8a50eda797bd00b06ec5b4c9217724" target="_top" xlink:title=" ">
<polygon fill="white" stroke="#666666" points="330.5,-78 179.5,-78 179.5,-48 330.5,-48 330.5,-78"/>
<text text-anchor="start" x="187.5" y="-66" font-family="Helvetica,sans-Serif" font-size="10.00">Struktury.ArkuszZdarzenie.get</text>
<text text-anchor="middle" x="255" y="-55" font-family="Helvetica,sans-Serif" font-size="10.00">Wiersz</text>
</a>
</g>
</g>
<!-- Node1&#45;&gt;Node7 -->
<g id="edge6" class="edge">
<title>Node1&#45;&gt;Node7</title>
<path fill="none" stroke="#63b8ff" d="M91.08,-133.82C111.39,-120.36 142.72,-100.91 172,-88 177.32,-85.65 182.93,-83.44 188.61,-81.38"/>
<polygon fill="#63b8ff" stroke="#63b8ff" points="189.91,-84.63 198.21,-78.04 187.61,-78.02 189.91,-84.63"/>
</g>
<!-- Node8 -->
<g id="node8" class="node">
<title>Node8</title>
<g id="a_node8"><a xlink:href="classStruktury_1_1ArkuszZdarzenie.html#a3e1eb6a41e16bd31dfb9c7525f58b11b" target="_top" xlink:title=" ">
<polygon fill="white" stroke="#666666" points="330.5,-30 179.5,-30 179.5,0 330.5,0 330.5,-30"/>
<text text-anchor="start" x="187.5" y="-18" font-family="Helvetica,sans-Serif" font-size="10.00">Struktury.ArkuszZdarzenie.get</text>
<text text-anchor="middle" x="255" y="-7" font-family="Helvetica,sans-Serif" font-size="10.00">Zdarzenie</text>
</a>
</g>
</g>
<!-- Node1&#45;&gt;Node8 -->
<g id="edge7" class="edge">
<title>Node1&#45;&gt;Node8</title>
<path fill="none" stroke="#63b8ff" d="M79.13,-133.78C95.73,-110.01 131,-64.22 172,-39 174.78,-37.29 177.69,-35.7 180.68,-34.21"/>
<polygon fill="#63b8ff" stroke="#63b8ff" points="182.19,-37.37 189.87,-30.08 179.32,-30.99 182.19,-37.37"/>
</g>
</g>
</svg>
