<?xml version="1.0" encoding="UTF-8" standalone="no"?>
<!DOCTYPE svg PUBLIC "-//W3C//DTD SVG 1.1//EN"
 "http://www.w3.org/Graphics/SVG/1.1/DTD/svg11.dtd">
<!-- Generated by graphviz version 2.49.3 (0)
 -->
<!-- Title: Motywy.Motyw.OceńPodobieństwo Pages: 1 -->
<svg width="773pt" height="86pt"
 viewBox="0.00 0.00 773.00 86.00" xmlns="http://www.w3.org/2000/svg" xmlns:xlink="http://www.w3.org/1999/xlink">
<g id="graph0" class="graph" transform="scale(1 1) rotate(0) translate(4 82)">
<title>Motywy.Motyw.OceńPodobieństwo</title>
<!-- Node1 -->
<g id="node1" class="node">
<title>Node1</title>
<g id="a_node1"><a xlink:title=" ">
<polygon fill="#999999" stroke="#666666" points="765,-48.5 595,-48.5 595,-29.5 765,-29.5 765,-48.5"/>
<text text-anchor="middle" x="680" y="-36.5" font-family="Helvetica,sans-Serif" font-size="10.00">Motywy.Motyw.OceńPodobieństwo</text>
</a>
</g>
</g>
<!-- Node2 -->
<g id="node2" class="node">
<title>Node2</title>
<g id="a_node2"><a xlink:href="classMotywy_1_1Por_xC3_xB3wnanieZZadanym.html#afc411b58aadd60fadcab90ad9f76e3d5" target="_top" xlink:title=" ">
<polygon fill="white" stroke="#666666" points="559,-78 405,-78 405,-48 559,-48 559,-78"/>
<text text-anchor="start" x="413" y="-66" font-family="Helvetica,sans-Serif" font-size="10.00">Motywy.PorównanieZZadanym.</text>
<text text-anchor="middle" x="482" y="-55" font-family="Helvetica,sans-Serif" font-size="10.00">ObliczRóżnicę</text>
</a>
</g>
</g>
<!-- Node1&#45;&gt;Node2 -->
<g id="edge1" class="edge">
<title>Node1&#45;&gt;Node2</title>
<path fill="none" stroke="#63b8ff" d="M591.08,-49.77C580.39,-51.07 569.54,-52.4 559.05,-53.69"/>
<polygon fill="#63b8ff" stroke="#63b8ff" points="591.75,-53.21 601.25,-48.52 590.9,-46.26 591.75,-53.21"/>
</g>
<!-- Node5 -->
<g id="node5" class="node">
<title>Node5</title>
<g id="a_node5"><a xlink:href="classMotywy_1_1ParaMotyw_xC3_xB3w.html#ab931de0cb5af4fd954d48d91c1de5c24" target="_top" xlink:title=" ">
<polygon fill="white" stroke="#666666" points="551,-30 413,-30 413,0 551,0 551,-30"/>
<text text-anchor="start" x="421" y="-18" font-family="Helvetica,sans-Serif" font-size="10.00">Motywy.ParaMotywów.Para</text>
<text text-anchor="middle" x="482" y="-7" font-family="Helvetica,sans-Serif" font-size="10.00">Motywów</text>
</a>
</g>
</g>
<!-- Node1&#45;&gt;Node5 -->
<g id="edge4" class="edge">
<title>Node1&#45;&gt;Node5</title>
<path fill="none" stroke="#63b8ff" d="M591.08,-28.23C577.68,-26.59 564.03,-24.92 551.14,-23.34"/>
<polygon fill="#63b8ff" stroke="#63b8ff" points="590.9,-31.74 601.25,-29.48 591.75,-24.79 590.9,-31.74"/>
</g>
<!-- Node3 -->
<g id="node3" class="node">
<title>Node3</title>
<g id="a_node3"><a xlink:href="classMotywy_1_1Por_xC3_xB3wnanieZZadanym.html#a11ff4401b316e36ea9263506ab0eeefa" target="_top" xlink:title=" ">
<polygon fill="white" stroke="#666666" points="369,-78 215,-78 215,-48 369,-48 369,-78"/>
<text text-anchor="start" x="223" y="-66" font-family="Helvetica,sans-Serif" font-size="10.00">Motywy.PorównanieZZadanym.</text>
<text text-anchor="middle" x="292" y="-55" font-family="Helvetica,sans-Serif" font-size="10.00">ZrealizujPorównanie</text>
</a>
</g>
</g>
<!-- Node2&#45;&gt;Node3 -->
<g id="edge2" class="edge">
<title>Node2&#45;&gt;Node3</title>
<path fill="none" stroke="#63b8ff" d="M394.58,-63C386.14,-63 377.63,-63 369.3,-63"/>
<polygon fill="#63b8ff" stroke="#63b8ff" points="394.8,-66.5 404.8,-63 394.8,-59.5 394.8,-66.5"/>
</g>
<!-- Node4 -->
<g id="node4" class="node">
<title>Node4</title>
<g id="a_node4"><a xlink:href="classporownania_1_1AnalizaPor_xC3_xB3wnawcza.html#a4fb7b99f4ed968c3c62c6fa132b19938" target="_top" xlink:title=" ">
<polygon fill="white" stroke="#666666" points="179,-72.5 0,-72.5 0,-53.5 179,-53.5 179,-72.5"/>
<text text-anchor="middle" x="89.5" y="-60.5" font-family="Helvetica,sans-Serif" font-size="10.00">porownania.AnalizaPorównawcza.run</text>
</a>
</g>
</g>
<!-- Node3&#45;&gt;Node4 -->
<g id="edge3" class="edge">
<title>Node3&#45;&gt;Node4</title>
<path fill="none" stroke="#63b8ff" d="M204.73,-63C196.31,-63 187.76,-63 179.31,-63"/>
<polygon fill="#63b8ff" stroke="#63b8ff" points="204.91,-66.5 214.91,-63 204.91,-59.5 204.91,-66.5"/>
</g>
</g>
</svg>
