<?xml version="1.0" encoding="UTF-8" standalone="no"?>
<!DOCTYPE svg PUBLIC "-//W3C//DTD SVG 1.1//EN"
 "http://www.w3.org/Graphics/SVG/1.1/DTD/svg11.dtd">
<!-- Generated by graphviz version 2.49.3 (0)
 -->
<!-- Title: Struktury.UsuwanieBOM.KorektaBOM Pages: 1 -->
<svg width="765pt" height="38pt"
 viewBox="0.00 0.00 765.00 38.00" xmlns="http://www.w3.org/2000/svg" xmlns:xlink="http://www.w3.org/1999/xlink">
<g id="graph0" class="graph" transform="scale(1 1) rotate(0) translate(4 34)">
<title>Struktury.UsuwanieBOM.KorektaBOM</title>
<!-- Node1 -->
<g id="node1" class="node">
<title>Node1</title>
<g id="a_node1"><a xlink:title=" ">
<polygon fill="#999999" stroke="#666666" points="184,-24.5 0,-24.5 0,-5.5 184,-5.5 184,-24.5"/>
<text text-anchor="middle" x="92" y="-12.5" font-family="Helvetica,sans-Serif" font-size="10.00">Struktury.UsuwanieBOM.KorektaBOM</text>
</a>
</g>
</g>
<!-- Node2 -->
<g id="node2" class="node">
<title>Node2</title>
<g id="a_node2"><a xlink:href="classStruktury_1_1UsuwanieBOM.html#a0770cffdd0857a04a472c6489e890eeb" target="_top" xlink:title=" ">
<polygon fill="white" stroke="#666666" points="393,-24.5 220,-24.5 220,-5.5 393,-5.5 393,-24.5"/>
<text text-anchor="middle" x="306.5" y="-12.5" font-family="Helvetica,sans-Serif" font-size="10.00">Struktury.UsuwanieBOM.UsuńBOM</text>
</a>
</g>
</g>
<!-- Node1&#45;&gt;Node2 -->
<g id="edge1" class="edge">
<title>Node1&#45;&gt;Node2</title>
<path fill="none" stroke="#63b8ff" d="M184.04,-15C192.45,-15 200.99,-15 209.44,-15"/>
<polygon fill="#63b8ff" stroke="#63b8ff" points="209.7,-18.5 219.7,-15 209.7,-11.5 209.7,-18.5"/>
</g>
<!-- Node3 -->
<g id="node3" class="node">
<title>Node3</title>
<g id="a_node3"><a xlink:href="classStruktury_1_1UsuwanieBOM.html#aef47abe35e6f2a6cd7da2b65ee08e993" target="_top" xlink:title=" ">
<polygon fill="white" stroke="#666666" points="575,-30 429,-30 429,0 575,0 575,-30"/>
<text text-anchor="start" x="437" y="-18" font-family="Helvetica,sans-Serif" font-size="10.00">Struktury.UsuwanieBOM.Czy</text>
<text text-anchor="middle" x="502" y="-7" font-family="Helvetica,sans-Serif" font-size="10.00">JestJakikolwiekBOM</text>
</a>
</g>
</g>
<!-- Node2&#45;&gt;Node3 -->
<g id="edge2" class="edge">
<title>Node2&#45;&gt;Node3</title>
<path fill="none" stroke="#63b8ff" d="M393.22,-15C401.7,-15 410.29,-15 418.74,-15"/>
<polygon fill="#63b8ff" stroke="#63b8ff" points="418.94,-18.5 428.94,-15 418.94,-11.5 418.94,-18.5"/>
</g>
<!-- Node4 -->
<g id="node4" class="node">
<title>Node4</title>
<g id="a_node4"><a xlink:href="classStruktury_1_1UsuwanieBOM.html#aef702bd0b80f518125bf384dfad72ad5" target="_top" xlink:title=" ">
<polygon fill="white" stroke="#666666" points="757,-30 611,-30 611,0 757,0 757,-30"/>
<text text-anchor="start" x="619" y="-18" font-family="Helvetica,sans-Serif" font-size="10.00">Struktury.UsuwanieBOM.Czy</text>
<text text-anchor="middle" x="684" y="-7" font-family="Helvetica,sans-Serif" font-size="10.00">JestBOM</text>
</a>
</g>
</g>
<!-- Node3&#45;&gt;Node4 -->
<g id="edge3" class="edge">
<title>Node3&#45;&gt;Node4</title>
<path fill="none" stroke="#63b8ff" d="M575.18,-15C583.52,-15 592.08,-15 600.54,-15"/>
<polygon fill="#63b8ff" stroke="#63b8ff" points="600.81,-18.5 610.81,-15 600.81,-11.5 600.81,-18.5"/>
</g>
</g>
</svg>
