<?xml version="1.0" encoding="UTF-8" standalone="no"?>
<!DOCTYPE svg PUBLIC "-//W3C//DTD SVG 1.1//EN"
 "http://www.w3.org/Graphics/SVG/1.1/DTD/svg11.dtd">
<!-- Generated by graphviz version 2.49.3 (0)
 -->
<!-- Title: Motywy.Motyw.OceńPodobieństwo Pages: 1 -->
<svg width="365pt" height="86pt"
 viewBox="0.00 0.00 365.00 86.00" xmlns="http://www.w3.org/2000/svg" xmlns:xlink="http://www.w3.org/1999/xlink">
<g id="graph0" class="graph" transform="scale(1 1) rotate(0) translate(4 82)">
<title>Motywy.Motyw.OceńPodobieństwo</title>
<!-- Node1 -->
<g id="node1" class="node">
<title>Node1</title>
<g id="a_node1"><a xlink:title=" ">
<polygon fill="#999999" stroke="#666666" points="170,-48.5 0,-48.5 0,-29.5 170,-29.5 170,-48.5"/>
<text text-anchor="middle" x="85" y="-36.5" font-family="Helvetica,sans-Serif" font-size="10.00">Motywy.Motyw.OceńPodobieństwo</text>
</a>
</g>
</g>
<!-- Node2 -->
<g id="node2" class="node">
<title>Node2</title>
<g id="a_node2"><a xlink:href="classMotywy_1_1Motyw.html#a390f9d1acc3c0862c70b71bc7f13f931" target="_top" xlink:title=" ">
<polygon fill="white" stroke="#666666" points="354,-78 209,-78 209,-48 354,-48 354,-78"/>
<text text-anchor="start" x="217" y="-66" font-family="Helvetica,sans-Serif" font-size="10.00">Motywy.Motyw.getReferencję</text>
<text text-anchor="middle" x="281.5" y="-55" font-family="Helvetica,sans-Serif" font-size="10.00">DoMotywu</text>
</a>
</g>
</g>
<!-- Node1&#45;&gt;Node2 -->
<g id="edge1" class="edge">
<title>Node1&#45;&gt;Node2</title>
<path fill="none" stroke="#63b8ff" d="M163.15,-48.52C174.8,-49.96 186.85,-51.44 198.59,-52.89"/>
<polygon fill="#63b8ff" stroke="#63b8ff" points="198.47,-56.4 208.82,-54.16 199.32,-49.46 198.47,-56.4"/>
</g>
<!-- Node3 -->
<g id="node3" class="node">
<title>Node3</title>
<g id="a_node3"><a xlink:href="classStruktury_1_1ArkuszZdarzenie.html#a3e1eb6a41e16bd31dfb9c7525f58b11b" target="_top" xlink:title=" ">
<polygon fill="white" stroke="#666666" points="357,-30 206,-30 206,0 357,0 357,-30"/>
<text text-anchor="start" x="214" y="-18" font-family="Helvetica,sans-Serif" font-size="10.00">Struktury.ArkuszZdarzenie.get</text>
<text text-anchor="middle" x="281.5" y="-7" font-family="Helvetica,sans-Serif" font-size="10.00">Zdarzenie</text>
</a>
</g>
</g>
<!-- Node1&#45;&gt;Node3 -->
<g id="edge2" class="edge">
<title>Node1&#45;&gt;Node3</title>
<path fill="none" stroke="#63b8ff" d="M163.15,-29.48C173.95,-28.15 185.1,-26.77 196.02,-25.42"/>
<polygon fill="#63b8ff" stroke="#63b8ff" points="196.48,-28.89 205.98,-24.2 195.63,-21.95 196.48,-28.89"/>
</g>
</g>
</svg>
