<?xml version="1.0" encoding="UTF-8" standalone="no"?>
<!DOCTYPE svg PUBLIC "-//W3C//DTD SVG 1.1//EN"
 "http://www.w3.org/Graphics/SVG/1.1/DTD/svg11.dtd">
<!-- Generated by graphviz version 2.49.3 (0)
 -->
<!-- Title: Struktury.Interpreter.ZnajdźAdresySłowaTakt Pages: 1 -->
<svg width="522pt" height="124pt"
 viewBox="0.00 0.00 522.00 124.00" xmlns="http://www.w3.org/2000/svg" xmlns:xlink="http://www.w3.org/1999/xlink">
<g id="graph0" class="graph" transform="scale(1 1) rotate(0) translate(4 120)">
<title>Struktury.Interpreter.ZnajdźAdresySłowaTakt</title>
<!-- Node1 -->
<g id="node1" class="node">
<title>Node1</title>
<g id="a_node1"><a xlink:title=" ">
<polygon fill="#999999" stroke="#666666" points="137,-73 0,-73 0,-43 137,-43 137,-73"/>
<text text-anchor="start" x="8" y="-61" font-family="Helvetica,sans-Serif" font-size="10.00">Struktury.Interpreter.Znajdź</text>
<text text-anchor="middle" x="68.5" y="-50" font-family="Helvetica,sans-Serif" font-size="10.00">AdresySłowaTakt</text>
</a>
</g>
</g>
<!-- Node2 -->
<g id="node2" class="node">
<title>Node2</title>
<g id="a_node2"><a xlink:href="classStruktury_1_1Arkusz.html#a79857648540bf4023e641b2aff039798" target="_top" xlink:title=" ">
<polygon fill="white" stroke="#666666" points="317.5,-116 181.5,-116 181.5,-86 317.5,-86 317.5,-116"/>
<text text-anchor="start" x="189.5" y="-104" font-family="Helvetica,sans-Serif" font-size="10.00">Struktury.Arkusz.getLiczbę</text>
<text text-anchor="middle" x="249.5" y="-93" font-family="Helvetica,sans-Serif" font-size="10.00">Kolumn</text>
</a>
</g>
</g>
<!-- Node1&#45;&gt;Node2 -->
<g id="edge1" class="edge">
<title>Node1&#45;&gt;Node2</title>
<path fill="none" stroke="#63b8ff" d="M132.11,-73.04C146.28,-76.44 161.44,-80.09 175.98,-83.58"/>
<polygon fill="#63b8ff" stroke="#63b8ff" points="175.39,-87.04 185.93,-85.97 177.02,-80.23 175.39,-87.04"/>
</g>
<!-- Node3 -->
<g id="node3" class="node">
<title>Node3</title>
<g id="a_node3"><a xlink:href="classStruktury_1_1Arkusz.html#a2609006d8beb64d6e213f77f2ebca081" target="_top" xlink:title=" ">
<polygon fill="white" stroke="#666666" points="326,-67.5 173,-67.5 173,-48.5 326,-48.5 326,-67.5"/>
<text text-anchor="middle" x="249.5" y="-55.5" font-family="Helvetica,sans-Serif" font-size="10.00">Struktury.Arkusz.getZawartość</text>
</a>
</g>
</g>
<!-- Node1&#45;&gt;Node3 -->
<g id="edge2" class="edge">
<title>Node1&#45;&gt;Node3</title>
<path fill="none" stroke="#63b8ff" d="M137.17,-58C145.57,-58 154.24,-58 162.86,-58"/>
<polygon fill="#63b8ff" stroke="#63b8ff" points="162.94,-61.5 172.94,-58 162.94,-54.5 162.94,-61.5"/>
</g>
<!-- Node5 -->
<g id="node5" class="node">
<title>Node5</title>
<g id="a_node5"><a xlink:href="classStruktury_1_1Arkusz.html#a95b58aa18e3e7c03eac576d325233442" target="_top" xlink:title=" ">
<polygon fill="white" stroke="#666666" points="317.5,-30 181.5,-30 181.5,0 317.5,0 317.5,-30"/>
<text text-anchor="start" x="189.5" y="-18" font-family="Helvetica,sans-Serif" font-size="10.00">Struktury.Arkusz.getLiczbę</text>
<text text-anchor="middle" x="249.5" y="-7" font-family="Helvetica,sans-Serif" font-size="10.00">Wierszy</text>
</a>
</g>
</g>
<!-- Node1&#45;&gt;Node5 -->
<g id="edge4" class="edge">
<title>Node1&#45;&gt;Node5</title>
<path fill="none" stroke="#63b8ff" d="M132.11,-42.96C146.28,-39.56 161.44,-35.91 175.98,-32.42"/>
<polygon fill="#63b8ff" stroke="#63b8ff" points="177.02,-35.77 185.93,-30.03 175.39,-28.96 177.02,-35.77"/>
</g>
<!-- Node4 -->
<g id="node4" class="node">
<title>Node4</title>
<g id="a_node4"><a xlink:href="classStruktury_1_1Kom_xC3_xB3rkaArkusza.html#a42c4136f3d8445665c672404a0cf9b58" target="_top" xlink:title=" ">
<polygon fill="white" stroke="#666666" points="514,-73 362,-73 362,-43 514,-43 514,-73"/>
<text text-anchor="start" x="370" y="-61" font-family="Helvetica,sans-Serif" font-size="10.00">Struktury.KomórkaArkusza.get</text>
<text text-anchor="middle" x="438" y="-50" font-family="Helvetica,sans-Serif" font-size="10.00">Komórkę</text>
</a>
</g>
</g>
<!-- Node3&#45;&gt;Node4 -->
<g id="edge3" class="edge">
<title>Node3&#45;&gt;Node4</title>
<path fill="none" stroke="#63b8ff" d="M326.09,-58C334.58,-58 343.27,-58 351.87,-58"/>
<polygon fill="#63b8ff" stroke="#63b8ff" points="351.91,-61.5 361.91,-58 351.91,-54.5 351.91,-61.5"/>
</g>
</g>
</svg>
