<?xml version="1.0" encoding="UTF-8" standalone="no"?>
<!DOCTYPE svg PUBLIC "-//W3C//DTD SVG 1.1//EN"
 "http://www.w3.org/Graphics/SVG/1.1/DTD/svg11.dtd">
<!-- Generated by graphviz version 2.49.3 (0)
 -->
<!-- Title: porownania.GłówneOknoProgramu.WalidacjaPlików Pages: 1 -->
<svg width="398pt" height="86pt"
 viewBox="0.00 0.00 398.00 86.00" xmlns="http://www.w3.org/2000/svg" xmlns:xlink="http://www.w3.org/1999/xlink">
<g id="graph0" class="graph" transform="scale(1 1) rotate(0) translate(4 82)">
<title>porownania.GłówneOknoProgramu.WalidacjaPlików</title>
<!-- Node1 -->
<g id="node1" class="node">
<title>Node1</title>
<g id="a_node1"><a xlink:title=" ">
<polygon fill="#999999" stroke="#666666" points="170,-54 0,-54 0,-24 170,-24 170,-54"/>
<text text-anchor="start" x="8" y="-42" font-family="Helvetica,sans-Serif" font-size="10.00">porownania.GłówneOknoProgramu.</text>
<text text-anchor="middle" x="85" y="-31" font-family="Helvetica,sans-Serif" font-size="10.00">WalidacjaPlików</text>
</a>
</g>
</g>
<!-- Node2 -->
<g id="node2" class="node">
<title>Node2</title>
<g id="a_node2"><a xlink:href="classporownania_1_1G_xC5_x82_xC3_xB3wneOknoProgramu.html#a848ba442e991e90c84f8e0d75088abc2" target="_top" xlink:title=" ">
<polygon fill="white" stroke="#666666" points="390,-78 206,-78 206,-48 390,-48 390,-78"/>
<text text-anchor="start" x="214" y="-66" font-family="Helvetica,sans-Serif" font-size="10.00">porownania.GłówneOknoProgramu.get</text>
<text text-anchor="middle" x="298" y="-55" font-family="Helvetica,sans-Serif" font-size="10.00">KodowanieZnakówZMenu</text>
</a>
</g>
</g>
<!-- Node1&#45;&gt;Node2 -->
<g id="edge1" class="edge">
<title>Node1&#45;&gt;Node2</title>
<path fill="none" stroke="#63b8ff" d="M170.3,-48.59C178.72,-49.55 187.32,-50.52 195.89,-51.5"/>
<polygon fill="#63b8ff" stroke="#63b8ff" points="195.58,-54.99 205.91,-52.64 196.37,-48.03 195.58,-54.99"/>
</g>
<!-- Node3 -->
<g id="node3" class="node">
<title>Node3</title>
<g id="a_node3"><a xlink:href="classporownania_1_1WalidacjaPlik_xC3_xB3wCSV.html#a082954eced190e91418d589e48cfae20" target="_top" xlink:title=" ">
<polygon fill="white" stroke="#666666" points="368,-30 228,-30 228,0 368,0 368,-30"/>
<text text-anchor="start" x="236" y="-18" font-family="Helvetica,sans-Serif" font-size="10.00">porownania.WalidacjaPlików</text>
<text text-anchor="middle" x="298" y="-7" font-family="Helvetica,sans-Serif" font-size="10.00">CSV.getStatusZapisu</text>
</a>
</g>
</g>
<!-- Node1&#45;&gt;Node3 -->
<g id="edge2" class="edge">
<title>Node1&#45;&gt;Node3</title>
<path fill="none" stroke="#63b8ff" d="M170.3,-29.41C185.93,-27.63 202.21,-25.78 217.69,-24.02"/>
<polygon fill="#63b8ff" stroke="#63b8ff" points="218.19,-27.49 227.73,-22.88 217.4,-20.53 218.19,-27.49"/>
</g>
</g>
</svg>
