<?xml version="1.0" encoding="UTF-8" standalone="no"?>
<!DOCTYPE svg PUBLIC "-//W3C//DTD SVG 1.1//EN"
 "http://www.w3.org/Graphics/SVG/1.1/DTD/svg11.dtd">
<!-- Generated by graphviz version 2.49.3 (0)
 -->
<!-- Title: Motywy.ParaMotywów.getRóżnicę Pages: 1 -->
<svg width="784pt" height="370pt"
 viewBox="0.00 0.00 784.00 369.50" xmlns="http://www.w3.org/2000/svg" xmlns:xlink="http://www.w3.org/1999/xlink">
<g id="graph0" class="graph" transform="scale(1 1) rotate(0) translate(4 365.5)">
<title>Motywy.ParaMotywów.getRóżnicę</title>
<!-- Node1 -->
<g id="node1" class="node">
<title>Node1</title>
<g id="a_node1"><a xlink:title=" ">
<polygon fill="#999999" stroke="#666666" points="776,-200.5 609,-200.5 609,-181.5 776,-181.5 776,-200.5"/>
<text text-anchor="middle" x="692.5" y="-188.5" font-family="Helvetica,sans-Serif" font-size="10.00">Motywy.ParaMotywów.getRóżnicę</text>
</a>
</g>
</g>
<!-- Node2 -->
<g id="node2" class="node">
<title>Node2</title>
<g id="a_node2"><a xlink:href="classMotywy_1_1ParaMotyw_xC3_xB3w.html#a6aaa007eb7c2926409379ed9ce8c48cf" target="_top" xlink:title=" ">
<polygon fill="white" stroke="#666666" points="571,-361.5 405,-361.5 405,-342.5 571,-342.5 571,-361.5"/>
<text text-anchor="middle" x="488" y="-349.5" font-family="Helvetica,sans-Serif" font-size="10.00">Motywy.ParaMotywów.compareTo</text>
</a>
</g>
</g>
<!-- Node1&#45;&gt;Node2 -->
<g id="edge1" class="edge">
<title>Node1&#45;&gt;Node2</title>
<path fill="none" stroke="#63b8ff" d="M681.42,-209.67C663.75,-240.48 624.16,-301.71 573,-333 566.62,-336.9 559.53,-340 552.25,-342.47"/>
<polygon fill="#63b8ff" stroke="#63b8ff" points="684.55,-211.24 686.37,-200.8 678.44,-207.83 684.55,-211.24"/>
</g>
<!-- Node3 -->
<g id="node3" class="node">
<title>Node3</title>
<g id="a_node3"><a xlink:href="classMotywy_1_1ZnajdowanieMotyw_xC3_xB3w.html#a24f96b3a4e870a42b142b07476044571" target="_top" xlink:title=" ">
<polygon fill="white" stroke="#666666" points="564,-324 412,-324 412,-294 564,-294 564,-324"/>
<text text-anchor="start" x="420" y="-312" font-family="Helvetica,sans-Serif" font-size="10.00">Motywy.ZnajdowanieMotywów.</text>
<text text-anchor="middle" x="488" y="-301" font-family="Helvetica,sans-Serif" font-size="10.00">CzyJestZero</text>
</a>
</g>
</g>
<!-- Node1&#45;&gt;Node3 -->
<g id="edge2" class="edge">
<title>Node1&#45;&gt;Node3</title>
<path fill="none" stroke="#63b8ff" d="M674.58,-208.05C652.87,-229.02 613.18,-264.36 573,-285 566.39,-288.4 559.23,-291.37 551.98,-293.96"/>
<polygon fill="#63b8ff" stroke="#63b8ff" points="677.31,-210.28 681.99,-200.77 672.4,-205.28 677.31,-210.28"/>
</g>
<!-- Node5 -->
<g id="node5" class="node">
<title>Node5</title>
<g id="a_node5"><a xlink:href="classMotywy_1_1Fragmenty.html#afd7562817c9b351e1f74c5a4d0531900" target="_top" xlink:title=" ">
<polygon fill="white" stroke="#666666" points="556,-276 420,-276 420,-246 556,-246 556,-276"/>
<text text-anchor="start" x="428" y="-264" font-family="Helvetica,sans-Serif" font-size="10.00">Motywy.Fragmenty.Generuj</text>
<text text-anchor="middle" x="488" y="-253" font-family="Helvetica,sans-Serif" font-size="10.00">TablicęOpisu</text>
</a>
</g>
</g>
<!-- Node1&#45;&gt;Node5 -->
<g id="edge4" class="edge">
<title>Node1&#45;&gt;Node5</title>
<path fill="none" stroke="#63b8ff" d="M659.04,-204.53C635.39,-214.16 602.47,-227.09 573,-237 563.8,-240.09 553.95,-243.14 544.35,-245.97"/>
<polygon fill="#63b8ff" stroke="#63b8ff" points="660.64,-207.66 668.57,-200.63 657.99,-201.18 660.64,-207.66"/>
</g>
<!-- Node6 -->
<g id="node6" class="node">
<title>Node6</title>
<g id="a_node6"><a xlink:href="classMotywy_1_1Fragmenty.html#acfa236e2c16528208cbbb131c87212c1" target="_top" xlink:title=" ">
<polygon fill="white" stroke="#666666" points="558,-228 418,-228 418,-198 558,-198 558,-228"/>
<text text-anchor="start" x="426" y="-216" font-family="Helvetica,sans-Serif" font-size="10.00">Motywy.Fragmenty.getMiary</text>
<text text-anchor="middle" x="488" y="-205" font-family="Helvetica,sans-Serif" font-size="10.00">Motywów</text>
</a>
</g>
</g>
<!-- Node1&#45;&gt;Node6 -->
<g id="edge5" class="edge">
<title>Node1&#45;&gt;Node6</title>
<path fill="none" stroke="#63b8ff" d="M598.51,-201.1C584.92,-202.58 571.14,-204.08 558.14,-205.49"/>
<polygon fill="#63b8ff" stroke="#63b8ff" points="599.28,-204.54 608.84,-199.98 598.52,-197.58 599.28,-204.54"/>
</g>
<!-- Node7 -->
<g id="node7" class="node">
<title>Node7</title>
<g id="a_node7"><a xlink:href="classMotywy_1_1TworzenieParW_xC4_x85tkowe.html#a05fd8523bde67670e0095c2985e84435" target="_top" xlink:title=" ">
<polygon fill="white" stroke="#666666" points="573,-179.5 403,-179.5 403,-160.5 573,-160.5 573,-179.5"/>
<text text-anchor="middle" x="488" y="-167.5" font-family="Helvetica,sans-Serif" font-size="10.00">Motywy.TworzenieParWątkowe.run</text>
</a>
</g>
</g>
<!-- Node1&#45;&gt;Node7 -->
<g id="edge6" class="edge">
<title>Node1&#45;&gt;Node7</title>
<path fill="none" stroke="#63b8ff" d="M598.81,-181.39C590.22,-180.5 581.54,-179.6 573.03,-178.71"/>
<polygon fill="#63b8ff" stroke="#63b8ff" points="598.54,-184.88 608.84,-182.43 599.26,-177.92 598.54,-184.88"/>
</g>
<!-- Node8 -->
<g id="node8" class="node">
<title>Node8</title>
<g id="a_node8"><a xlink:href="classporownania_1_1Rezultat.html#a6a2d33ef3dc30fc0e471292bc16ae0e3" target="_top" xlink:title=" ">
<polygon fill="white" stroke="#666666" points="558,-142 418,-142 418,-112 558,-112 558,-142"/>
<text text-anchor="start" x="426" y="-130" font-family="Helvetica,sans-Serif" font-size="10.00">porownania.Rezultat.Utwórz</text>
<text text-anchor="middle" x="488" y="-119" font-family="Helvetica,sans-Serif" font-size="10.00">ListęZerowychRóżnic</text>
</a>
</g>
</g>
<!-- Node1&#45;&gt;Node8 -->
<g id="edge7" class="edge">
<title>Node1&#45;&gt;Node8</title>
<path fill="none" stroke="#63b8ff" d="M653.83,-178.3C630.59,-170.53 600.13,-160.5 573,-152 562.55,-148.72 551.33,-145.31 540.6,-142.1"/>
<polygon fill="#63b8ff" stroke="#63b8ff" points="652.73,-181.62 663.32,-181.47 654.95,-174.98 652.73,-181.62"/>
</g>
<!-- Node10 -->
<g id="node10" class="node">
<title>Node10</title>
<g id="a_node10"><a xlink:href="classMotywy_1_1Fragmenty.html#a850694999d9856c66bdcd8ed2918dda5" target="_top" xlink:title=" ">
<polygon fill="white" stroke="#666666" points="555,-94 421,-94 421,-64 555,-64 555,-94"/>
<text text-anchor="start" x="429" y="-82" font-family="Helvetica,sans-Serif" font-size="10.00">Motywy.Fragmenty.Utwórz</text>
<text text-anchor="middle" x="488" y="-71" font-family="Helvetica,sans-Serif" font-size="10.00">Listę</text>
</a>
</g>
</g>
<!-- Node1&#45;&gt;Node10 -->
<g id="edge9" class="edge">
<title>Node1&#45;&gt;Node10</title>
<path fill="none" stroke="#63b8ff" d="M673.69,-174.49C651.62,-154.86 612.12,-122.31 573,-103 566.2,-99.64 558.85,-96.68 551.43,-94.09"/>
<polygon fill="#63b8ff" stroke="#63b8ff" points="671.49,-177.23 681.26,-181.33 676.18,-172.03 671.49,-177.23"/>
</g>
<!-- Node13 -->
<g id="node13" class="node">
<title>Node13</title>
<g id="a_node13"><a xlink:href="classMotywy_1_1Fragmenty.html#a1d32b57c48e3938e88c61779d38cb519" target="_top" xlink:title=" ">
<polygon fill="white" stroke="#666666" points="557.5,-46 418.5,-46 418.5,-16 557.5,-16 557.5,-46"/>
<text text-anchor="start" x="426.5" y="-34" font-family="Helvetica,sans-Serif" font-size="10.00">Motywy.Fragmenty.Wypełnij</text>
<text text-anchor="middle" x="488" y="-23" font-family="Helvetica,sans-Serif" font-size="10.00">TablicęSkróconą</text>
</a>
</g>
</g>
<!-- Node1&#45;&gt;Node13 -->
<g id="edge13" class="edge">
<title>Node1&#45;&gt;Node13</title>
<path fill="none" stroke="#63b8ff" d="M680.52,-172.63C662.04,-143.31 621.92,-86.09 573,-55 567.62,-51.58 561.75,-48.64 555.69,-46.11"/>
<polygon fill="#63b8ff" stroke="#63b8ff" points="677.71,-174.74 685.94,-181.42 683.67,-171.07 677.71,-174.74"/>
</g>
<!-- Node4 -->
<g id="node4" class="node">
<title>Node4</title>
<g id="a_node4"><a xlink:href="classMotywy_1_1ZnajdowanieMotyw_xC3_xB3w.html#acf3d94705bc30e2a361821e081fd43dc" target="_top" xlink:title=" ">
<polygon fill="white" stroke="#666666" points="367,-324 215,-324 215,-294 367,-294 367,-324"/>
<text text-anchor="start" x="223" y="-312" font-family="Helvetica,sans-Serif" font-size="10.00">Motywy.ZnajdowanieMotywów.</text>
<text text-anchor="middle" x="291" y="-301" font-family="Helvetica,sans-Serif" font-size="10.00">Szukaj</text>
</a>
</g>
</g>
<!-- Node3&#45;&gt;Node4 -->
<g id="edge3" class="edge">
<title>Node3&#45;&gt;Node4</title>
<path fill="none" stroke="#63b8ff" d="M401.8,-309C390.24,-309 378.44,-309 367.07,-309"/>
<polygon fill="#63b8ff" stroke="#63b8ff" points="401.89,-312.5 411.89,-309 401.89,-305.5 401.89,-312.5"/>
</g>
<!-- Node9 -->
<g id="node9" class="node">
<title>Node9</title>
<g id="a_node9"><a xlink:href="classporownania_1_1Rezultat.html#ad3ba358a5764505a8358158d29ac299f" target="_top" xlink:title=" ">
<polygon fill="white" stroke="#666666" points="363,-153.5 219,-153.5 219,-134.5 363,-134.5 363,-153.5"/>
<text text-anchor="middle" x="291" y="-141.5" font-family="Helvetica,sans-Serif" font-size="10.00">porownania.Rezultat.Rezultat</text>
</a>
</g>
</g>
<!-- Node8&#45;&gt;Node9 -->
<g id="edge8" class="edge">
<title>Node8&#45;&gt;Node9</title>
<path fill="none" stroke="#63b8ff" d="M407.86,-133.9C393.1,-135.19 377.75,-136.52 363.24,-137.79"/>
<polygon fill="#63b8ff" stroke="#63b8ff" points="408.32,-137.37 417.98,-133.02 407.71,-130.4 408.32,-137.37"/>
</g>
<!-- Node11 -->
<g id="node11" class="node">
<title>Node11</title>
<g id="a_node11"><a xlink:href="classporownania_1_1AnalizaPor_xC3_xB3wnawcza.html#a4fb7b99f4ed968c3c62c6fa132b19938" target="_top" xlink:title=" ">
<polygon fill="white" stroke="#666666" points="179,-93.5 0,-93.5 0,-74.5 179,-74.5 179,-93.5"/>
<text text-anchor="middle" x="89.5" y="-81.5" font-family="Helvetica,sans-Serif" font-size="10.00">porownania.AnalizaPorównawcza.run</text>
</a>
</g>
</g>
<!-- Node10&#45;&gt;Node11 -->
<g id="edge10" class="edge">
<title>Node10&#45;&gt;Node11</title>
<path fill="none" stroke="#63b8ff" d="M410.34,-84.87C395.95,-85.76 381.02,-86.53 367,-87 304.27,-89.09 233.49,-88.26 179.25,-86.95"/>
<polygon fill="#63b8ff" stroke="#63b8ff" points="410.95,-88.34 420.71,-84.21 410.5,-81.36 410.95,-88.34"/>
</g>
<!-- Node12 -->
<g id="node12" class="node">
<title>Node12</title>
<g id="a_node12"><a xlink:href="classMotywy_1_1ZnajdowanieMotyw_xC3_xB3wCa_xC5_x82o_xC5_x9B_xC4_x87.html#a1b547741636351220c77f9921caf0275" target="_top" xlink:title=" ">
<polygon fill="white" stroke="#666666" points="365.5,-78 216.5,-78 216.5,-48 365.5,-48 365.5,-78"/>
<text text-anchor="start" x="224.5" y="-66" font-family="Helvetica,sans-Serif" font-size="10.00">Motywy.ZnajdowanieMotywów</text>
<text text-anchor="middle" x="291" y="-55" font-family="Helvetica,sans-Serif" font-size="10.00">Całość.UruchomPorównanie</text>
</a>
</g>
</g>
<!-- Node10&#45;&gt;Node12 -->
<g id="edge11" class="edge">
<title>Node10&#45;&gt;Node12</title>
<path fill="none" stroke="#63b8ff" d="M410.83,-72.75C395.98,-71.53 380.43,-70.26 365.66,-69.04"/>
<polygon fill="#63b8ff" stroke="#63b8ff" points="410.73,-76.25 420.98,-73.58 411.3,-69.28 410.73,-76.25"/>
</g>
<!-- Node12&#45;&gt;Node11 -->
<g id="edge12" class="edge">
<title>Node12&#45;&gt;Node11</title>
<path fill="none" stroke="#63b8ff" d="M206.25,-71.82C197.28,-72.76 188.14,-73.72 179.12,-74.67"/>
<polygon fill="#63b8ff" stroke="#63b8ff" points="206.7,-75.29 216.28,-70.76 205.97,-68.33 206.7,-75.29"/>
</g>
<!-- Node14 -->
<g id="node14" class="node">
<title>Node14</title>
<g id="a_node14"><a xlink:href="classMotywy_1_1Fragmenty.html#af142a18268a561dcafe100a07e2b1928" target="_top" xlink:title=" ">
<polygon fill="white" stroke="#666666" points="358,-30 224,-30 224,0 358,0 358,-30"/>
<text text-anchor="start" x="232" y="-18" font-family="Helvetica,sans-Serif" font-size="10.00">Motywy.Fragmenty.Utwórz</text>
<text text-anchor="middle" x="291" y="-7" font-family="Helvetica,sans-Serif" font-size="10.00">MacierzMotywów</text>
</a>
</g>
</g>
<!-- Node13&#45;&gt;Node14 -->
<g id="edge14" class="edge">
<title>Node13&#45;&gt;Node14</title>
<path fill="none" stroke="#63b8ff" d="M408.05,-24.52C391.5,-23.16 374.2,-21.74 358.16,-20.43"/>
<polygon fill="#63b8ff" stroke="#63b8ff" points="408,-28.03 418.25,-25.36 408.57,-21.05 408,-28.03"/>
</g>
<!-- Node15 -->
<g id="node15" class="node">
<title>Node15</title>
<g id="a_node15"><a xlink:href="classporownania_1_1Rezultat.html#abfab722f91bb304108e01333fdbf5cf3" target="_top" xlink:title=" ">
<polygon fill="white" stroke="#666666" points="160.5,-24.5 18.5,-24.5 18.5,-5.5 160.5,-5.5 160.5,-24.5"/>
<text text-anchor="middle" x="89.5" y="-12.5" font-family="Helvetica,sans-Serif" font-size="10.00">porownania.Rezultat.toString</text>
</a>
</g>
</g>
<!-- Node14&#45;&gt;Node15 -->
<g id="edge15" class="edge">
<title>Node14&#45;&gt;Node15</title>
<path fill="none" stroke="#63b8ff" d="M213.7,-15C196.24,-15 177.77,-15 160.58,-15"/>
<polygon fill="#63b8ff" stroke="#63b8ff" points="213.85,-18.5 223.85,-15 213.85,-11.5 213.85,-18.5"/>
</g>
</g>
</svg>
