<?xml version="1.0" encoding="UTF-8" standalone="no"?>
<!DOCTYPE svg PUBLIC "-//W3C//DTD SVG 1.1//EN"
 "http://www.w3.org/Graphics/SVG/1.1/DTD/svg11.dtd">
<!-- Generated by graphviz version 2.49.3 (0)
 -->
<!-- Title: Motywy.Motyw.Motyw Pages: 1 -->
<svg width="700pt" height="375pt"
 viewBox="0.00 0.00 700.00 375.00" xmlns="http://www.w3.org/2000/svg" xmlns:xlink="http://www.w3.org/1999/xlink">
<g id="graph0" class="graph" transform="scale(1 1) rotate(0) translate(4 371)">
<title>Motywy.Motyw.Motyw</title>
<!-- Node1 -->
<g id="node1" class="node">
<title>Node1</title>
<g id="a_node1"><a xlink:title=" ">
<polygon fill="#999999" stroke="#666666" points="114,-182.5 0,-182.5 0,-163.5 114,-163.5 114,-182.5"/>
<text text-anchor="middle" x="57" y="-170.5" font-family="Helvetica,sans-Serif" font-size="10.00">Motywy.Motyw.Motyw</text>
</a>
</g>
</g>
<!-- Node2 -->
<g id="node2" class="node">
<title>Node2</title>
<g id="a_node2"><a xlink:href="classMotywy_1_1Motyw.html#adf3c38db21d989a421a1ce090c1504b0" target="_top" xlink:title=" ">
<polygon fill="white" stroke="#666666" points="300,-346 160,-346 160,-316 300,-316 300,-346"/>
<text text-anchor="start" x="168" y="-334" font-family="Helvetica,sans-Serif" font-size="10.00">Motywy.Motyw.CzyTaktJest</text>
<text text-anchor="middle" x="230" y="-323" font-family="Helvetica,sans-Serif" font-size="10.00">Poprawny</text>
</a>
</g>
</g>
<!-- Node1&#45;&gt;Node2 -->
<g id="edge1" class="edge">
<title>Node1&#45;&gt;Node2</title>
<path fill="none" stroke="#63b8ff" d="M61.94,-182.77C72.41,-207.46 103.33,-272.82 150,-307 152.07,-308.52 154.25,-309.94 156.49,-311.28"/>
<polygon fill="#63b8ff" stroke="#63b8ff" points="154.98,-314.44 165.46,-316 158.24,-308.24 154.98,-314.44"/>
</g>
<!-- Node5 -->
<g id="node5" class="node">
<title>Node5</title>
<g id="a_node5"><a xlink:href="classStruktury_1_1Zdarzenie.html#a0d579308bbe6a5400dd6fbfb35d1ea31" target="_top" xlink:title=" ">
<polygon fill="white" stroke="#666666" points="301,-297.5 159,-297.5 159,-278.5 301,-278.5 301,-297.5"/>
<text text-anchor="middle" x="230" y="-285.5" font-family="Helvetica,sans-Serif" font-size="10.00">Struktury.Zdarzenie.getPitch</text>
</a>
</g>
</g>
<!-- Node1&#45;&gt;Node5 -->
<g id="edge4" class="edge">
<title>Node1&#45;&gt;Node5</title>
<path fill="none" stroke="#63b8ff" d="M64.33,-182.63C77.68,-202.16 110.77,-246.47 150,-269 153.89,-271.23 158.03,-273.21 162.3,-274.95"/>
<polygon fill="#63b8ff" stroke="#63b8ff" points="161.22,-278.28 171.81,-278.4 163.61,-271.7 161.22,-278.28"/>
</g>
<!-- Node6 -->
<g id="node6" class="node">
<title>Node6</title>
<g id="a_node6"><a xlink:href="classStruktury_1_1ArkuszZdarzenie.html#a3e1eb6a41e16bd31dfb9c7525f58b11b" target="_top" xlink:title=" ">
<polygon fill="white" stroke="#666666" points="305.5,-260 154.5,-260 154.5,-230 305.5,-230 305.5,-260"/>
<text text-anchor="start" x="162.5" y="-248" font-family="Helvetica,sans-Serif" font-size="10.00">Struktury.ArkuszZdarzenie.get</text>
<text text-anchor="middle" x="230" y="-237" font-family="Helvetica,sans-Serif" font-size="10.00">Zdarzenie</text>
</a>
</g>
</g>
<!-- Node1&#45;&gt;Node6 -->
<g id="edge5" class="edge">
<title>Node1&#45;&gt;Node6</title>
<path fill="none" stroke="#63b8ff" d="M74.18,-182.62C92.22,-193.07 122.48,-209.76 150,-221 154.77,-222.95 159.76,-224.82 164.81,-226.61"/>
<polygon fill="#63b8ff" stroke="#63b8ff" points="163.97,-230.02 174.56,-229.92 166.22,-223.39 163.97,-230.02"/>
</g>
<!-- Node7 -->
<g id="node7" class="node">
<title>Node7</title>
<g id="a_node7"><a xlink:href="classMotywy_1_1Motyw.html#ada31b6948fe6606145cd37b4878c320f" target="_top" xlink:title=" ">
<polygon fill="white" stroke="#666666" points="309,-212 151,-212 151,-182 309,-182 309,-212"/>
<text text-anchor="start" x="159" y="-200" font-family="Helvetica,sans-Serif" font-size="10.00">Motywy.Motyw.KorektaInterwału</text>
<text text-anchor="middle" x="230" y="-189" font-family="Helvetica,sans-Serif" font-size="10.00">Humdrum</text>
</a>
</g>
</g>
<!-- Node1&#45;&gt;Node7 -->
<g id="edge6" class="edge">
<title>Node1&#45;&gt;Node7</title>
<path fill="none" stroke="#63b8ff" d="M114.47,-180.93C122.95,-182.12 131.86,-183.37 140.82,-184.62"/>
<polygon fill="#63b8ff" stroke="#63b8ff" points="140.53,-188.12 150.92,-186.04 141.5,-181.19 140.53,-188.12"/>
</g>
<!-- Node8 -->
<g id="node8" class="node">
<title>Node8</title>
<g id="a_node8"><a xlink:href="classStruktury_1_1Zdarzenie.html#abdaa09775ef9f3dc0874c4579aba2bfd" target="_top" xlink:title=" ">
<polygon fill="white" stroke="#666666" points="300,-164 160,-164 160,-134 300,-134 300,-164"/>
<text text-anchor="start" x="168" y="-152" font-family="Helvetica,sans-Serif" font-size="10.00">Struktury.Zdarzenie.Oznacz</text>
<text text-anchor="middle" x="230" y="-141" font-family="Helvetica,sans-Serif" font-size="10.00">Początek</text>
</a>
</g>
</g>
<!-- Node1&#45;&gt;Node8 -->
<g id="edge7" class="edge">
<title>Node1&#45;&gt;Node8</title>
<path fill="none" stroke="#63b8ff" d="M114.47,-165.07C125.79,-163.49 137.89,-161.79 149.82,-160.11"/>
<polygon fill="#63b8ff" stroke="#63b8ff" points="150.36,-163.57 159.78,-158.72 149.39,-156.64 150.36,-163.57"/>
</g>
<!-- Node9 -->
<g id="node9" class="node">
<title>Node9</title>
<g id="a_node9"><a xlink:href="classStruktury_1_1Zdarzenie.html#a7f42568598ee4c3e13733e4f1e888ecf" target="_top" xlink:title=" ">
<polygon fill="white" stroke="#666666" points="306,-115.5 154,-115.5 154,-96.5 306,-96.5 306,-115.5"/>
<text text-anchor="middle" x="230" y="-103.5" font-family="Helvetica,sans-Serif" font-size="10.00">Struktury.Zdarzenie.setInterval</text>
</a>
</g>
</g>
<!-- Node1&#45;&gt;Node9 -->
<g id="edge8" class="edge">
<title>Node1&#45;&gt;Node9</title>
<path fill="none" stroke="#63b8ff" d="M73.41,-163.46C91.26,-152.77 121.83,-135.55 150,-125 156.72,-122.48 163.89,-120.21 171.06,-118.2"/>
<polygon fill="#63b8ff" stroke="#63b8ff" points="172.05,-121.56 180.81,-115.6 170.25,-114.79 172.05,-121.56"/>
</g>
<!-- Node10 -->
<g id="node10" class="node">
<title>Node10</title>
<g id="a_node10"><a xlink:href="classMotywy_1_1Motyw.html#a55de8318b53ff34ad9e675a6d89dd711" target="_top" xlink:title=" ">
<polygon fill="white" stroke="#666666" points="304.5,-78 155.5,-78 155.5,-48 304.5,-48 304.5,-78"/>
<text text-anchor="start" x="163.5" y="-66" font-family="Helvetica,sans-Serif" font-size="10.00">Motywy.Motyw.UtwórzArkusz</text>
<text text-anchor="middle" x="230" y="-55" font-family="Helvetica,sans-Serif" font-size="10.00">DoMotywu</text>
</a>
</g>
</g>
<!-- Node1&#45;&gt;Node10 -->
<g id="edge9" class="edge">
<title>Node1&#45;&gt;Node10</title>
<path fill="none" stroke="#63b8ff" d="M65.56,-163.5C80.07,-145.86 113.64,-107.98 150,-87 153.01,-85.26 156.16,-83.64 159.39,-82.13"/>
<polygon fill="#63b8ff" stroke="#63b8ff" points="160.87,-85.3 168.68,-78.14 158.11,-78.87 160.87,-85.3"/>
</g>
<!-- Node13 -->
<g id="node13" class="node">
<title>Node13</title>
<g id="a_node13"><a xlink:href="classMotywy_1_1Motyw.html#ab4409e50ae15d078d4842463314dbab2" target="_top" xlink:title=" ">
<polygon fill="white" stroke="#666666" points="310,-30 150,-30 150,0 310,0 310,-30"/>
<text text-anchor="start" x="158" y="-18" font-family="Helvetica,sans-Serif" font-size="10.00">Motywy.Motyw.ZwróćPodzielony</text>
<text text-anchor="middle" x="230" y="-7" font-family="Helvetica,sans-Serif" font-size="10.00">WierszMotywu</text>
</a>
</g>
</g>
<!-- Node1&#45;&gt;Node13 -->
<g id="edge12" class="edge">
<title>Node1&#45;&gt;Node13</title>
<path fill="none" stroke="#63b8ff" d="M61.94,-163.23C72.41,-138.54 103.33,-73.18 150,-39 152.07,-37.48 154.25,-36.06 156.49,-34.72"/>
<polygon fill="#63b8ff" stroke="#63b8ff" points="158.24,-37.76 165.46,-30 154.98,-31.56 158.24,-37.76"/>
</g>
<!-- Node3 -->
<g id="node3" class="node">
<title>Node3</title>
<g id="a_node3"><a xlink:href="classMotywy_1_1Motyw.html#a27a95910b9b659fd1b4cdbe1085f721e" target="_top" xlink:title=" ">
<polygon fill="white" stroke="#666666" points="498,-367 352,-367 352,-337 498,-337 498,-367"/>
<text text-anchor="start" x="360" y="-355" font-family="Helvetica,sans-Serif" font-size="10.00">Motywy.Motyw.CzyPoprawna</text>
<text text-anchor="middle" x="425" y="-344" font-family="Helvetica,sans-Serif" font-size="10.00">Double</text>
</a>
</g>
</g>
<!-- Node2&#45;&gt;Node3 -->
<g id="edge2" class="edge">
<title>Node2&#45;&gt;Node3</title>
<path fill="none" stroke="#63b8ff" d="M300.13,-338.52C313.62,-339.99 327.89,-341.54 341.76,-343.05"/>
<polygon fill="#63b8ff" stroke="#63b8ff" points="341.45,-346.54 351.77,-344.14 342.21,-339.58 341.45,-346.54"/>
</g>
<!-- Node4 -->
<g id="node4" class="node">
<title>Node4</title>
<g id="a_node4"><a xlink:href="classMotywy_1_1Motyw.html#af0f89022bd600a2f2e84887b90a82db7" target="_top" xlink:title=" ">
<polygon fill="white" stroke="#666666" points="504,-318.5 346,-318.5 346,-299.5 504,-299.5 504,-318.5"/>
<text text-anchor="middle" x="425" y="-306.5" font-family="Helvetica,sans-Serif" font-size="10.00">Motywy.Motyw.CzyPoprawnyInt</text>
</a>
</g>
</g>
<!-- Node2&#45;&gt;Node4 -->
<g id="edge3" class="edge">
<title>Node2&#45;&gt;Node4</title>
<path fill="none" stroke="#63b8ff" d="M300.13,-323.12C311.71,-321.8 323.86,-320.42 335.84,-319.05"/>
<polygon fill="#63b8ff" stroke="#63b8ff" points="336.3,-322.52 345.84,-317.91 335.51,-315.56 336.3,-322.52"/>
</g>
<!-- Node11 -->
<g id="node11" class="node">
<title>Node11</title>
<g id="a_node11"><a xlink:href="classStruktury_1_1Arkusz.html#a3747bcb1e5e0c4a73035e9578b6bf6d7" target="_top" xlink:title=" ">
<polygon fill="white" stroke="#666666" points="498.5,-72.5 351.5,-72.5 351.5,-53.5 498.5,-53.5 498.5,-72.5"/>
<text text-anchor="middle" x="425" y="-60.5" font-family="Helvetica,sans-Serif" font-size="10.00">Struktury.Arkusz.setKomórkę</text>
</a>
</g>
</g>
<!-- Node10&#45;&gt;Node11 -->
<g id="edge10" class="edge">
<title>Node10&#45;&gt;Node11</title>
<path fill="none" stroke="#63b8ff" d="M304.52,-63C316.5,-63 328.99,-63 341.18,-63"/>
<polygon fill="#63b8ff" stroke="#63b8ff" points="341.33,-66.5 351.33,-63 341.33,-59.5 341.33,-66.5"/>
</g>
<!-- Node12 -->
<g id="node12" class="node">
<title>Node12</title>
<g id="a_node12"><a xlink:href="classStruktury_1_1Kom_xC3_xB3rkaArkusza.html#a9e8a46a4fc47a0e2863c8f05528825a2" target="_top" xlink:title=" ">
<polygon fill="white" stroke="#666666" points="692,-78 540,-78 540,-48 692,-48 692,-78"/>
<text text-anchor="start" x="548" y="-66" font-family="Helvetica,sans-Serif" font-size="10.00">Struktury.KomórkaArkusza.set</text>
<text text-anchor="middle" x="616" y="-55" font-family="Helvetica,sans-Serif" font-size="10.00">Wartość</text>
</a>
</g>
</g>
<!-- Node11&#45;&gt;Node12 -->
<g id="edge11" class="edge">
<title>Node11&#45;&gt;Node12</title>
<path fill="none" stroke="#63b8ff" d="M498.53,-63C508.68,-63 519.19,-63 529.55,-63"/>
<polygon fill="#63b8ff" stroke="#63b8ff" points="529.84,-66.5 539.84,-63 529.84,-59.5 529.84,-66.5"/>
</g>
</g>
</svg>
