<?xml version="1.0" encoding="UTF-8" standalone="no"?>
<!DOCTYPE svg PUBLIC "-//W3C//DTD SVG 1.1//EN"
 "http://www.w3.org/Graphics/SVG/1.1/DTD/svg11.dtd">
<!-- Generated by graphviz version 2.49.3 (0)
 -->
<!-- Title: Struktury.Zdarzenie.getTakt Pages: 1 -->
<svg width="870pt" height="158pt"
 viewBox="0.00 0.00 870.00 158.00" xmlns="http://www.w3.org/2000/svg" xmlns:xlink="http://www.w3.org/1999/xlink">
<g id="graph0" class="graph" transform="scale(1 1) rotate(0) translate(4 154)">
<title>Struktury.Zdarzenie.getTakt</title>
<!-- Node1 -->
<g id="node1" class="node">
<title>Node1</title>
<g id="a_node1"><a xlink:title=" ">
<polygon fill="#999999" stroke="#666666" points="862,-96.5 724,-96.5 724,-77.5 862,-77.5 862,-96.5"/>
<text text-anchor="middle" x="793" y="-84.5" font-family="Helvetica,sans-Serif" font-size="10.00">Struktury.Zdarzenie.getTakt</text>
</a>
</g>
</g>
<!-- Node2 -->
<g id="node2" class="node">
<title>Node2</title>
<g id="a_node2"><a xlink:href="classMotywy_1_1Fragmenty.html#afd7562817c9b351e1f74c5a4d0531900" target="_top" xlink:title=" ">
<polygon fill="white" stroke="#666666" points="686,-150 550,-150 550,-120 686,-120 686,-150"/>
<text text-anchor="start" x="558" y="-138" font-family="Helvetica,sans-Serif" font-size="10.00">Motywy.Fragmenty.Generuj</text>
<text text-anchor="middle" x="618" y="-127" font-family="Helvetica,sans-Serif" font-size="10.00">TablicęOpisu</text>
</a>
</g>
</g>
<!-- Node1&#45;&gt;Node2 -->
<g id="edge1" class="edge">
<title>Node1&#45;&gt;Node2</title>
<path fill="none" stroke="#63b8ff" d="M747.71,-99.29C725.04,-105.58 697.24,-113.29 673.29,-119.94"/>
<polygon fill="#63b8ff" stroke="#63b8ff" points="748.71,-102.64 757.41,-96.6 746.83,-95.9 748.71,-102.64"/>
</g>
<!-- Node3 -->
<g id="node3" class="node">
<title>Node3</title>
<g id="a_node3"><a xlink:href="classMotywy_1_1Fragmenty.html#acfa236e2c16528208cbbb131c87212c1" target="_top" xlink:title=" ">
<polygon fill="white" stroke="#666666" points="688,-102 548,-102 548,-72 688,-72 688,-102"/>
<text text-anchor="start" x="556" y="-90" font-family="Helvetica,sans-Serif" font-size="10.00">Motywy.Fragmenty.getMiary</text>
<text text-anchor="middle" x="618" y="-79" font-family="Helvetica,sans-Serif" font-size="10.00">Motywów</text>
</a>
</g>
</g>
<!-- Node1&#45;&gt;Node3 -->
<g id="edge2" class="edge">
<title>Node1&#45;&gt;Node3</title>
<path fill="none" stroke="#63b8ff" d="M713.38,-87C704.91,-87 696.35,-87 688.01,-87"/>
<polygon fill="#63b8ff" stroke="#63b8ff" points="713.63,-90.5 723.63,-87 713.63,-83.5 713.63,-90.5"/>
</g>
<!-- Node4 -->
<g id="node4" class="node">
<title>Node4</title>
<g id="a_node4"><a xlink:href="classMotywy_1_1Fragmenty.html#a654558f130a86c40dff29b3955c7e5ce" target="_top" xlink:title=" ">
<polygon fill="white" stroke="#666666" points="686,-54 550,-54 550,-24 686,-24 686,-54"/>
<text text-anchor="start" x="558" y="-42" font-family="Helvetica,sans-Serif" font-size="10.00">Motywy.Fragmenty.getOpis</text>
<text text-anchor="middle" x="618" y="-31" font-family="Helvetica,sans-Serif" font-size="10.00">KomórkiArkusza</text>
</a>
</g>
</g>
<!-- Node1&#45;&gt;Node4 -->
<g id="edge3" class="edge">
<title>Node1&#45;&gt;Node4</title>
<path fill="none" stroke="#63b8ff" d="M747.71,-74.71C725.04,-68.42 697.24,-60.71 673.29,-54.06"/>
<polygon fill="#63b8ff" stroke="#63b8ff" points="746.83,-78.1 757.41,-77.4 748.71,-71.36 746.83,-78.1"/>
</g>
<!-- Node5 -->
<g id="node5" class="node">
<title>Node5</title>
<g id="a_node5"><a xlink:href="classMotywy_1_1Fragmenty.html#a0980cac3e787436873aefd34d196428f" target="_top" xlink:title=" ">
<polygon fill="white" stroke="#666666" points="512,-78 348,-78 348,-48 512,-48 512,-78"/>
<text text-anchor="start" x="356" y="-66" font-family="Helvetica,sans-Serif" font-size="10.00">Motywy.Fragmenty.TwórzIndeksy</text>
<text text-anchor="middle" x="430" y="-55" font-family="Helvetica,sans-Serif" font-size="10.00">Liczbowe</text>
</a>
</g>
</g>
<!-- Node4&#45;&gt;Node5 -->
<g id="edge4" class="edge">
<title>Node4&#45;&gt;Node5</title>
<path fill="none" stroke="#63b8ff" d="M539.65,-48.98C530.52,-50.16 521.19,-51.36 512.01,-52.55"/>
<polygon fill="#63b8ff" stroke="#63b8ff" points="540.38,-52.42 549.85,-47.66 539.48,-45.47 540.38,-52.42"/>
</g>
<!-- Node8 -->
<g id="node8" class="node">
<title>Node8</title>
<g id="a_node8"><a xlink:href="classMotywy_1_1Fragmenty.html#a1d32b57c48e3938e88c61779d38cb519" target="_top" xlink:title=" ">
<polygon fill="white" stroke="#666666" points="499.5,-30 360.5,-30 360.5,0 499.5,0 499.5,-30"/>
<text text-anchor="start" x="368.5" y="-18" font-family="Helvetica,sans-Serif" font-size="10.00">Motywy.Fragmenty.Wypełnij</text>
<text text-anchor="middle" x="430" y="-7" font-family="Helvetica,sans-Serif" font-size="10.00">TablicęSkróconą</text>
</a>
</g>
</g>
<!-- Node4&#45;&gt;Node8 -->
<g id="edge7" class="edge">
<title>Node4&#45;&gt;Node8</title>
<path fill="none" stroke="#63b8ff" d="M539.77,-29.03C526.45,-27.32 512.69,-25.54 499.62,-23.85"/>
<polygon fill="#63b8ff" stroke="#63b8ff" points="539.48,-32.53 549.85,-30.34 540.38,-25.58 539.48,-32.53"/>
</g>
<!-- Node6 -->
<g id="node6" class="node">
<title>Node6</title>
<g id="a_node6"><a xlink:href="classMotywy_1_1Fragmenty.html#af142a18268a561dcafe100a07e2b1928" target="_top" xlink:title=" ">
<polygon fill="white" stroke="#666666" points="312,-54 178,-54 178,-24 312,-24 312,-54"/>
<text text-anchor="start" x="186" y="-42" font-family="Helvetica,sans-Serif" font-size="10.00">Motywy.Fragmenty.Utwórz</text>
<text text-anchor="middle" x="245" y="-31" font-family="Helvetica,sans-Serif" font-size="10.00">MacierzMotywów</text>
</a>
</g>
</g>
<!-- Node5&#45;&gt;Node6 -->
<g id="edge5" class="edge">
<title>Node5&#45;&gt;Node6</title>
<path fill="none" stroke="#63b8ff" d="M337.81,-51.04C329.17,-49.91 320.53,-48.77 312.19,-47.68"/>
<polygon fill="#63b8ff" stroke="#63b8ff" points="337.56,-54.54 347.93,-52.37 338.47,-47.6 337.56,-54.54"/>
</g>
<!-- Node7 -->
<g id="node7" class="node">
<title>Node7</title>
<g id="a_node7"><a xlink:href="classporownania_1_1Rezultat.html#abfab722f91bb304108e01333fdbf5cf3" target="_top" xlink:title=" ">
<polygon fill="white" stroke="#666666" points="142,-48.5 0,-48.5 0,-29.5 142,-29.5 142,-48.5"/>
<text text-anchor="middle" x="71" y="-36.5" font-family="Helvetica,sans-Serif" font-size="10.00">porownania.Rezultat.toString</text>
</a>
</g>
</g>
<!-- Node6&#45;&gt;Node7 -->
<g id="edge6" class="edge">
<title>Node6&#45;&gt;Node7</title>
<path fill="none" stroke="#63b8ff" d="M167.98,-39C159.37,-39 150.64,-39 142.11,-39"/>
<polygon fill="#63b8ff" stroke="#63b8ff" points="167.99,-42.5 177.99,-39 167.99,-35.5 167.99,-42.5"/>
</g>
<!-- Node8&#45;&gt;Node6 -->
<g id="edge8" class="edge">
<title>Node8&#45;&gt;Node6</title>
<path fill="none" stroke="#63b8ff" d="M350.21,-25.33C337.48,-27 324.41,-28.72 312.01,-30.34"/>
<polygon fill="#63b8ff" stroke="#63b8ff" points="350.88,-28.78 360.34,-24 349.97,-21.84 350.88,-28.78"/>
</g>
</g>
</svg>
