<?xml version="1.0" encoding="UTF-8" standalone="no"?>
<!DOCTYPE svg PUBLIC "-//W3C//DTD SVG 1.1//EN"
 "http://www.w3.org/Graphics/SVG/1.1/DTD/svg11.dtd">
<!-- Generated by graphviz version 2.49.3 (0)
 -->
<!-- Title: Motywy.ParaMotywów.getRóżnicę Pages: 1 -->
<svg width="586pt" height="38pt"
 viewBox="0.00 0.00 586.00 38.00" xmlns="http://www.w3.org/2000/svg" xmlns:xlink="http://www.w3.org/1999/xlink">
<g id="graph0" class="graph" transform="scale(1 1) rotate(0) translate(4 34)">
<title>Motywy.ParaMotywów.getRóżnicę</title>
<!-- Node1 -->
<g id="node1" class="node">
<title>Node1</title>
<g id="a_node1"><a xlink:title=" ">
<polygon fill="#999999" stroke="#666666" points="167,-24.5 0,-24.5 0,-5.5 167,-5.5 167,-24.5"/>
<text text-anchor="middle" x="83.5" y="-12.5" font-family="Helvetica,sans-Serif" font-size="10.00">Motywy.ParaMotywów.getRóżnicę</text>
</a>
</g>
</g>
<!-- Node2 -->
<g id="node2" class="node">
<title>Node2</title>
<g id="a_node2"><a xlink:href="classMotywy_1_1Motyw.html#a1bf7b0581400d564daa45e9cba7987f2" target="_top" xlink:title=" ">
<polygon fill="white" stroke="#666666" points="391,-24.5 203,-24.5 203,-5.5 391,-5.5 391,-24.5"/>
<text text-anchor="middle" x="297" y="-12.5" font-family="Helvetica,sans-Serif" font-size="10.00">Motywy.Motyw.CzyMożnaPorównywać</text>
</a>
</g>
</g>
<!-- Node1&#45;&gt;Node2 -->
<g id="edge1" class="edge">
<title>Node1&#45;&gt;Node2</title>
<path fill="none" stroke="#63b8ff" d="M167.18,-15C175.59,-15 184.21,-15 192.8,-15"/>
<polygon fill="#63b8ff" stroke="#63b8ff" points="192.86,-18.5 202.86,-15 192.86,-11.5 192.86,-18.5"/>
</g>
<!-- Node3 -->
<g id="node3" class="node">
<title>Node3</title>
<g id="a_node3"><a xlink:href="classStruktury_1_1ArkuszZdarzenie.html#add9f4b9b1ae80d624e5f480cda1574ee" target="_top" xlink:title=" ">
<polygon fill="white" stroke="#666666" points="578,-30 427,-30 427,0 578,0 578,-30"/>
<text text-anchor="start" x="435" y="-18" font-family="Helvetica,sans-Serif" font-size="10.00">Struktury.ArkuszZdarzenie.get</text>
<text text-anchor="middle" x="502.5" y="-7" font-family="Helvetica,sans-Serif" font-size="10.00">NumerGłosu</text>
</a>
</g>
</g>
<!-- Node2&#45;&gt;Node3 -->
<g id="edge2" class="edge">
<title>Node2&#45;&gt;Node3</title>
<path fill="none" stroke="#63b8ff" d="M391.11,-15C399.6,-15 408.16,-15 416.56,-15"/>
<polygon fill="#63b8ff" stroke="#63b8ff" points="416.72,-18.5 426.72,-15 416.72,-11.5 416.72,-18.5"/>
</g>
</g>
</svg>
