<?xml version="1.0" encoding="UTF-8" standalone="no"?>
<!DOCTYPE svg PUBLIC "-//W3C//DTD SVG 1.1//EN"
 "http://www.w3.org/Graphics/SVG/1.1/DTD/svg11.dtd">
<!-- Generated by graphviz version 2.49.3 (0)
 -->
<!-- Title: porownania.ListaPlików.ListaPlików Pages: 1 -->
<svg width="295pt" height="86pt"
 viewBox="0.00 0.00 295.00 86.00" xmlns="http://www.w3.org/2000/svg" xmlns:xlink="http://www.w3.org/1999/xlink">
<g id="graph0" class="graph" transform="scale(1 1) rotate(0) translate(4 82)">
<title>porownania.ListaPlików.ListaPlików</title>
<!-- Node1 -->
<g id="node1" class="node">
<title>Node1</title>
<g id="a_node1"><a xlink:title=" ">
<polygon fill="#999999" stroke="#666666" points="121,-54 0,-54 0,-24 121,-24 121,-54"/>
<text text-anchor="start" x="8" y="-42" font-family="Helvetica,sans-Serif" font-size="10.00">porownania.ListaPlików.</text>
<text text-anchor="middle" x="60.5" y="-31" font-family="Helvetica,sans-Serif" font-size="10.00">ListaPlików</text>
</a>
</g>
</g>
<!-- Node2 -->
<g id="node2" class="node">
<title>Node2</title>
<g id="a_node2"><a xlink:href="classporownania_1_1ListaPlik_xC3_xB3w.html#a7dfa2bcd3feaf06b20bdc479bb428943" target="_top" xlink:title=" ">
<polygon fill="white" stroke="#666666" points="287,-78 157,-78 157,-48 287,-48 287,-78"/>
<text text-anchor="start" x="165" y="-66" font-family="Helvetica,sans-Serif" font-size="10.00">porownania.ListaPlików.</text>
<text text-anchor="middle" x="222" y="-55" font-family="Helvetica,sans-Serif" font-size="10.00">PobierzTablicęPlikówCSV</text>
</a>
</g>
</g>
<!-- Node1&#45;&gt;Node2 -->
<g id="edge1" class="edge">
<title>Node1&#45;&gt;Node2</title>
<path fill="none" stroke="#63b8ff" d="M121.35,-48C129.67,-49.26 138.3,-50.56 146.85,-51.84"/>
<polygon fill="#63b8ff" stroke="#63b8ff" points="146.41,-55.32 156.82,-53.34 147.45,-48.39 146.41,-55.32"/>
</g>
<!-- Node3 -->
<g id="node3" class="node">
<title>Node3</title>
<g id="a_node3"><a xlink:href="classporownania_1_1ListaPlik_xC3_xB3w.html#aa6ea096ee025be3789c3d5d10c3165a5" target="_top" xlink:title=" ">
<polygon fill="white" stroke="#666666" points="282.5,-30 161.5,-30 161.5,0 282.5,0 282.5,-30"/>
<text text-anchor="start" x="169.5" y="-18" font-family="Helvetica,sans-Serif" font-size="10.00">porownania.ListaPlików.</text>
<text text-anchor="middle" x="222" y="-7" font-family="Helvetica,sans-Serif" font-size="10.00">SprawdzanieKatalogu</text>
</a>
</g>
</g>
<!-- Node1&#45;&gt;Node3 -->
<g id="edge2" class="edge">
<title>Node1&#45;&gt;Node3</title>
<path fill="none" stroke="#63b8ff" d="M121.35,-30C131.16,-28.52 141.4,-26.98 151.42,-25.47"/>
<polygon fill="#63b8ff" stroke="#63b8ff" points="151.98,-28.92 161.35,-23.98 150.94,-22 151.98,-28.92"/>
</g>
</g>
</svg>
