<?xml version="1.0" encoding="UTF-8" standalone="no"?>
<!DOCTYPE svg PUBLIC "-//W3C//DTD SVG 1.1//EN"
 "http://www.w3.org/Graphics/SVG/1.1/DTD/svg11.dtd">
<!-- Generated by graphviz version 2.49.3 (0)
 -->
<!-- Title: Struktury.PlikCSV.WczytajDane Pages: 1 -->
<svg width="1142pt" height="169pt"
 viewBox="0.00 0.00 1142.00 169.00" xmlns="http://www.w3.org/2000/svg" xmlns:xlink="http://www.w3.org/1999/xlink">
<g id="graph0" class="graph" transform="scale(1 1) rotate(0) translate(4 165)">
<title>Struktury.PlikCSV.WczytajDane</title>
<!-- Node1 -->
<g id="node1" class="node">
<title>Node1</title>
<g id="a_node1"><a xlink:title=" ">
<polygon fill="#999999" stroke="#666666" points="158,-112.5 0,-112.5 0,-93.5 158,-93.5 158,-112.5"/>
<text text-anchor="middle" x="79" y="-100.5" font-family="Helvetica,sans-Serif" font-size="10.00">Struktury.PlikCSV.WczytajDane</text>
</a>
</g>
</g>
<!-- Node2 -->
<g id="node2" class="node">
<title>Node2</title>
<g id="a_node2"><a xlink:href="classStruktury_1_1PlikCSV.html#aede544e061c6a720191a9f5da1127f7d" target="_top" xlink:title=" ">
<polygon fill="white" stroke="#666666" points="333,-161 202,-161 202,-131 333,-131 333,-161"/>
<text text-anchor="start" x="210" y="-149" font-family="Helvetica,sans-Serif" font-size="10.00">Struktury.PlikCSV.Podział</text>
<text text-anchor="middle" x="267.5" y="-138" font-family="Helvetica,sans-Serif" font-size="10.00">Linii</text>
</a>
</g>
</g>
<!-- Node1&#45;&gt;Node2 -->
<g id="edge1" class="edge">
<title>Node1&#45;&gt;Node2</title>
<path fill="none" stroke="#63b8ff" d="M121.39,-112.54C142.14,-117.33 167.91,-123.27 191.96,-128.81"/>
<polygon fill="#63b8ff" stroke="#63b8ff" points="191.25,-132.24 201.78,-131.08 192.82,-125.42 191.25,-132.24"/>
</g>
<!-- Node3 -->
<g id="node3" class="node">
<title>Node3</title>
<g id="a_node3"><a xlink:href="classStruktury_1_1Arkusz.html#a3747bcb1e5e0c4a73035e9578b6bf6d7" target="_top" xlink:title=" ">
<polygon fill="white" stroke="#666666" points="341,-112.5 194,-112.5 194,-93.5 341,-93.5 341,-112.5"/>
<text text-anchor="middle" x="267.5" y="-100.5" font-family="Helvetica,sans-Serif" font-size="10.00">Struktury.Arkusz.setKomórkę</text>
</a>
</g>
</g>
<!-- Node1&#45;&gt;Node3 -->
<g id="edge2" class="edge">
<title>Node1&#45;&gt;Node3</title>
<path fill="none" stroke="#63b8ff" d="M158.01,-103C166.55,-103 175.26,-103 183.85,-103"/>
<polygon fill="#63b8ff" stroke="#63b8ff" points="183.86,-106.5 193.86,-103 183.86,-99.5 183.86,-106.5"/>
</g>
<!-- Node5 -->
<g id="node5" class="node">
<title>Node5</title>
<g id="a_node5"><a xlink:href="classStruktury_1_1PlikCSV.html#ad822fb4b09d4b763cefc7b9e59833182" target="_top" xlink:title=" ">
<polygon fill="white" stroke="#666666" points="334.5,-73 200.5,-73 200.5,-43 334.5,-43 334.5,-73"/>
<text text-anchor="start" x="208.5" y="-61" font-family="Helvetica,sans-Serif" font-size="10.00">Struktury.PlikCSV.Wczytaj</text>
<text text-anchor="middle" x="267.5" y="-50" font-family="Helvetica,sans-Serif" font-size="10.00">CałyPLik</text>
</a>
</g>
</g>
<!-- Node1&#45;&gt;Node5 -->
<g id="edge4" class="edge">
<title>Node1&#45;&gt;Node5</title>
<path fill="none" stroke="#63b8ff" d="M119.55,-93.46C141.26,-88.22 168.86,-81.56 194.27,-75.43"/>
<polygon fill="#63b8ff" stroke="#63b8ff" points="195.35,-78.77 204.25,-73.02 193.71,-71.96 195.35,-78.77"/>
</g>
<!-- Node4 -->
<g id="node4" class="node">
<title>Node4</title>
<g id="a_node4"><a xlink:href="classStruktury_1_1Kom_xC3_xB3rkaArkusza.html#a9e8a46a4fc47a0e2863c8f05528825a2" target="_top" xlink:title=" ">
<polygon fill="white" stroke="#666666" points="545,-121 393,-121 393,-91 545,-91 545,-121"/>
<text text-anchor="start" x="401" y="-109" font-family="Helvetica,sans-Serif" font-size="10.00">Struktury.KomórkaArkusza.set</text>
<text text-anchor="middle" x="469" y="-98" font-family="Helvetica,sans-Serif" font-size="10.00">Wartość</text>
</a>
</g>
</g>
<!-- Node3&#45;&gt;Node4 -->
<g id="edge3" class="edge">
<title>Node3&#45;&gt;Node4</title>
<path fill="none" stroke="#63b8ff" d="M341.09,-104.09C354.63,-104.3 368.89,-104.51 382.76,-104.72"/>
<polygon fill="#63b8ff" stroke="#63b8ff" points="382.73,-108.22 392.78,-104.87 382.84,-101.22 382.73,-108.22"/>
</g>
<!-- Node6 -->
<g id="node6" class="node">
<title>Node6</title>
<g id="a_node6"><a xlink:href="classStruktury_1_1PlikCSV.html#a8997e76c5a473f782c5978ad6ffeeeba" target="_top" xlink:title=" ">
<polygon fill="white" stroke="#666666" points="539,-73 399,-73 399,-43 539,-43 539,-73"/>
<text text-anchor="start" x="407" y="-61" font-family="Helvetica,sans-Serif" font-size="10.00">Struktury.PlikCSV.getKod</text>
<text text-anchor="middle" x="469" y="-50" font-family="Helvetica,sans-Serif" font-size="10.00">TekstowyKodowaniaZnaków</text>
</a>
</g>
</g>
<!-- Node5&#45;&gt;Node6 -->
<g id="edge5" class="edge">
<title>Node5&#45;&gt;Node6</title>
<path fill="none" stroke="#63b8ff" d="M334.65,-58C351.99,-58 370.86,-58 388.8,-58"/>
<polygon fill="#63b8ff" stroke="#63b8ff" points="388.95,-61.5 398.95,-58 388.95,-54.5 388.95,-61.5"/>
</g>
<!-- Node7 -->
<g id="node7" class="node">
<title>Node7</title>
<g id="a_node7"><a xlink:href="classStruktury_1_1UsuwanieBOM.html#a61ea81daa96a505746289e335f32cbc3" target="_top" xlink:title=" ">
<polygon fill="white" stroke="#666666" points="561,-24.5 377,-24.5 377,-5.5 561,-5.5 561,-24.5"/>
<text text-anchor="middle" x="469" y="-12.5" font-family="Helvetica,sans-Serif" font-size="10.00">Struktury.UsuwanieBOM.KorektaBOM</text>
</a>
</g>
</g>
<!-- Node5&#45;&gt;Node7 -->
<g id="edge6" class="edge">
<title>Node5&#45;&gt;Node7</title>
<path fill="none" stroke="#63b8ff" d="M334.74,-43.22C348.69,-40.14 363.33,-36.94 377,-34 388.23,-31.59 400.24,-29.05 411.74,-26.64"/>
<polygon fill="#63b8ff" stroke="#63b8ff" points="412.61,-30.03 421.68,-24.56 411.18,-23.18 412.61,-30.03"/>
</g>
<!-- Node8 -->
<g id="node8" class="node">
<title>Node8</title>
<g id="a_node8"><a xlink:href="classStruktury_1_1UsuwanieBOM.html#a0770cffdd0857a04a472c6489e890eeb" target="_top" xlink:title=" ">
<polygon fill="white" stroke="#666666" points="770,-24.5 597,-24.5 597,-5.5 770,-5.5 770,-24.5"/>
<text text-anchor="middle" x="683.5" y="-12.5" font-family="Helvetica,sans-Serif" font-size="10.00">Struktury.UsuwanieBOM.UsuńBOM</text>
</a>
</g>
</g>
<!-- Node7&#45;&gt;Node8 -->
<g id="edge7" class="edge">
<title>Node7&#45;&gt;Node8</title>
<path fill="none" stroke="#63b8ff" d="M561.04,-15C569.45,-15 577.99,-15 586.44,-15"/>
<polygon fill="#63b8ff" stroke="#63b8ff" points="586.7,-18.5 596.7,-15 586.7,-11.5 586.7,-18.5"/>
</g>
<!-- Node9 -->
<g id="node9" class="node">
<title>Node9</title>
<g id="a_node9"><a xlink:href="classStruktury_1_1UsuwanieBOM.html#aef47abe35e6f2a6cd7da2b65ee08e993" target="_top" xlink:title=" ">
<polygon fill="white" stroke="#666666" points="952,-30 806,-30 806,0 952,0 952,-30"/>
<text text-anchor="start" x="814" y="-18" font-family="Helvetica,sans-Serif" font-size="10.00">Struktury.UsuwanieBOM.Czy</text>
<text text-anchor="middle" x="879" y="-7" font-family="Helvetica,sans-Serif" font-size="10.00">JestJakikolwiekBOM</text>
</a>
</g>
</g>
<!-- Node8&#45;&gt;Node9 -->
<g id="edge8" class="edge">
<title>Node8&#45;&gt;Node9</title>
<path fill="none" stroke="#63b8ff" d="M770.22,-15C778.7,-15 787.29,-15 795.74,-15"/>
<polygon fill="#63b8ff" stroke="#63b8ff" points="795.94,-18.5 805.94,-15 795.94,-11.5 795.94,-18.5"/>
</g>
<!-- Node10 -->
<g id="node10" class="node">
<title>Node10</title>
<g id="a_node10"><a xlink:href="classStruktury_1_1UsuwanieBOM.html#aef702bd0b80f518125bf384dfad72ad5" target="_top" xlink:title=" ">
<polygon fill="white" stroke="#666666" points="1134,-30 988,-30 988,0 1134,0 1134,-30"/>
<text text-anchor="start" x="996" y="-18" font-family="Helvetica,sans-Serif" font-size="10.00">Struktury.UsuwanieBOM.Czy</text>
<text text-anchor="middle" x="1061" y="-7" font-family="Helvetica,sans-Serif" font-size="10.00">JestBOM</text>
</a>
</g>
</g>
<!-- Node9&#45;&gt;Node10 -->
<g id="edge9" class="edge">
<title>Node9&#45;&gt;Node10</title>
<path fill="none" stroke="#63b8ff" d="M952.18,-15C960.52,-15 969.08,-15 977.54,-15"/>
<polygon fill="#63b8ff" stroke="#63b8ff" points="977.81,-18.5 987.81,-15 977.81,-11.5 977.81,-18.5"/>
</g>
</g>
</svg>
