<?xml version="1.0" encoding="UTF-8" standalone="no"?>
<!DOCTYPE svg PUBLIC "-//W3C//DTD SVG 1.1//EN"
 "http://www.w3.org/Graphics/SVG/1.1/DTD/svg11.dtd">
<!-- Generated by graphviz version 2.49.3 (0)
 -->
<!-- Title: porownania.AnalizaPorównawcza.ObliczProcent Pages: 1 -->
<svg width="626pt" height="59pt"
 viewBox="0.00 0.00 626.00 59.00" xmlns="http://www.w3.org/2000/svg" xmlns:xlink="http://www.w3.org/1999/xlink">
<g id="graph0" class="graph" transform="scale(1 1) rotate(0) translate(4 55)">
<title>porownania.AnalizaPorównawcza.ObliczProcent</title>
<!-- Node1 -->
<g id="node1" class="node">
<title>Node1</title>
<g id="a_node1"><a xlink:title=" ">
<polygon fill="#999999" stroke="#666666" points="618,-51 452,-51 452,-21 618,-21 618,-51"/>
<text text-anchor="start" x="460" y="-39" font-family="Helvetica,sans-Serif" font-size="10.00">porownania.AnalizaPorównawcza.</text>
<text text-anchor="middle" x="535" y="-28" font-family="Helvetica,sans-Serif" font-size="10.00">ObliczProcent</text>
</a>
</g>
</g>
<!-- Node2 -->
<g id="node2" class="node">
<title>Node2</title>
<g id="a_node2"><a xlink:href="classporownania_1_1AnalizaPor_xC3_xB3wnawcza.html#a4fb7b99f4ed968c3c62c6fa132b19938" target="_top" xlink:title=" ">
<polygon fill="white" stroke="#666666" points="179,-45.5 0,-45.5 0,-26.5 179,-26.5 179,-45.5"/>
<text text-anchor="middle" x="89.5" y="-33.5" font-family="Helvetica,sans-Serif" font-size="10.00">porownania.AnalizaPorównawcza.run</text>
</a>
</g>
</g>
<!-- Node1&#45;&gt;Node2 -->
<g id="edge1" class="edge">
<title>Node1&#45;&gt;Node2</title>
<path fill="none" stroke="#63b8ff" d="M441.64,-38.57C432.97,-38.75 424.32,-38.89 416,-39 326.67,-40.14 304.33,-40.08 215,-39 203.43,-38.86 191.26,-38.65 179.25,-38.4"/>
<polygon fill="#63b8ff" stroke="#63b8ff" points="441.88,-42.07 451.8,-38.36 441.73,-35.07 441.88,-42.07"/>
</g>
<!-- Node3 -->
<g id="node3" class="node">
<title>Node3</title>
<g id="a_node3"><a xlink:href="classporownania_1_1AnalizaPor_xC3_xB3wnawcza.html#a0470a1d1c72fbc7b887927d6bbde548c" target="_top" xlink:title=" ">
<polygon fill="white" stroke="#666666" points="416,-30 215,-30 215,0 416,0 416,-30"/>
<text text-anchor="start" x="223" y="-18" font-family="Helvetica,sans-Serif" font-size="10.00">porownania.AnalizaPorównawcza.</text>
<text text-anchor="middle" x="315.5" y="-7" font-family="Helvetica,sans-Serif" font-size="10.00">WyprowadźProcentPrzetworzonychPlików</text>
</a>
</g>
</g>
<!-- Node1&#45;&gt;Node3 -->
<g id="edge2" class="edge">
<title>Node1&#45;&gt;Node3</title>
<path fill="none" stroke="#63b8ff" d="M441.56,-27.07C433.12,-26.26 424.55,-25.43 416.05,-24.61"/>
<polygon fill="#63b8ff" stroke="#63b8ff" points="441.48,-30.58 451.77,-28.06 442.16,-23.62 441.48,-30.58"/>
</g>
<!-- Node3&#45;&gt;Node2 -->
<g id="edge3" class="edge">
<title>Node3&#45;&gt;Node2</title>
<path fill="none" stroke="#63b8ff" d="M204.86,-25.28C196.24,-26.09 187.61,-26.9 179.17,-27.69"/>
<polygon fill="#63b8ff" stroke="#63b8ff" points="205.32,-28.75 214.95,-24.33 204.66,-21.78 205.32,-28.75"/>
</g>
</g>
</svg>
