<?xml version="1.0" encoding="UTF-8" standalone="no"?>
<!DOCTYPE svg PUBLIC "-//W3C//DTD SVG 1.1//EN"
 "http://www.w3.org/Graphics/SVG/1.1/DTD/svg11.dtd">
<!-- Generated by graphviz version 2.49.3 (0)
 -->
<!-- Title: Motywy.ParaMotywów.getMotyw1 Pages: 1 -->
<svg width="924pt" height="238pt"
 viewBox="0.00 0.00 924.00 237.59" xmlns="http://www.w3.org/2000/svg" xmlns:xlink="http://www.w3.org/1999/xlink">
<g id="graph0" class="graph" transform="scale(1 1) rotate(0) translate(4 233.59)">
<title>Motywy.ParaMotywów.getMotyw1</title>
<!-- Node1 -->
<g id="node1" class="node">
<title>Node1</title>
<g id="a_node1"><a xlink:title=" ">
<polygon fill="#999999" stroke="#666666" points="916,-114.59 750,-114.59 750,-95.59 916,-95.59 916,-114.59"/>
<text text-anchor="middle" x="833" y="-102.59" font-family="Helvetica,sans-Serif" font-size="10.00">Motywy.ParaMotywów.getMotyw1</text>
</a>
</g>
</g>
<!-- Node2 -->
<g id="node2" class="node">
<title>Node2</title>
<g id="a_node2"><a xlink:href="classMotywy_1_1ParaMotyw_xC3_xB3w.html#a6aaa007eb7c2926409379ed9ce8c48cf" target="_top" xlink:title=" ">
<polygon fill="white" stroke="#666666" points="714,-229.59 548,-229.59 548,-210.59 714,-210.59 714,-229.59"/>
<text text-anchor="middle" x="631" y="-217.59" font-family="Helvetica,sans-Serif" font-size="10.00">Motywy.ParaMotywów.compareTo</text>
</a>
</g>
</g>
<!-- Node1&#45;&gt;Node2 -->
<g id="edge1" class="edge">
<title>Node1&#45;&gt;Node2</title>
<path fill="none" stroke="#63b8ff" d="M816.06,-122.19C794.86,-143.89 755.22,-180.91 714,-201.09 706.13,-204.95 697.44,-208.04 688.75,-210.52"/>
<polygon fill="#63b8ff" stroke="#63b8ff" points="818.86,-124.33 823.25,-114.69 813.81,-119.49 818.86,-124.33"/>
</g>
<!-- Node3 -->
<g id="node3" class="node">
<title>Node3</title>
<g id="a_node3"><a xlink:href="classMotywy_1_1Fragmenty.html#afd7562817c9b351e1f74c5a4d0531900" target="_top" xlink:title=" ">
<polygon fill="white" stroke="#666666" points="699,-192.09 563,-192.09 563,-162.09 699,-162.09 699,-192.09"/>
<text text-anchor="start" x="571" y="-180.09" font-family="Helvetica,sans-Serif" font-size="10.00">Motywy.Fragmenty.Generuj</text>
<text text-anchor="middle" x="631" y="-169.09" font-family="Helvetica,sans-Serif" font-size="10.00">TablicęOpisu</text>
</a>
</g>
</g>
<!-- Node1&#45;&gt;Node3 -->
<g id="edge2" class="edge">
<title>Node1&#45;&gt;Node3</title>
<path fill="none" stroke="#63b8ff" d="M801.03,-118.7C777.42,-128.83 743.97,-142.64 714,-153.09 705.18,-156.17 695.73,-159.19 686.5,-161.99"/>
<polygon fill="#63b8ff" stroke="#63b8ff" points="802.71,-121.79 810.5,-114.61 799.94,-115.36 802.71,-121.79"/>
</g>
<!-- Node4 -->
<g id="node4" class="node">
<title>Node4</title>
<g id="a_node4"><a xlink:href="classMotywy_1_1Fragmenty.html#acfa236e2c16528208cbbb131c87212c1" target="_top" xlink:title=" ">
<polygon fill="white" stroke="#666666" points="701,-144.09 561,-144.09 561,-114.09 701,-114.09 701,-144.09"/>
<text text-anchor="start" x="569" y="-132.09" font-family="Helvetica,sans-Serif" font-size="10.00">Motywy.Fragmenty.getMiary</text>
<text text-anchor="middle" x="631" y="-121.09" font-family="Helvetica,sans-Serif" font-size="10.00">Motywów</text>
</a>
</g>
</g>
<!-- Node1&#45;&gt;Node4 -->
<g id="edge3" class="edge">
<title>Node1&#45;&gt;Node4</title>
<path fill="none" stroke="#63b8ff" d="M742.62,-115.82C728.73,-117.49 714.57,-119.19 701.21,-120.79"/>
<polygon fill="#63b8ff" stroke="#63b8ff" points="743.16,-119.28 752.67,-114.61 742.32,-112.33 743.16,-119.28"/>
</g>
<!-- Node5 -->
<g id="node5" class="node">
<title>Node5</title>
<g id="a_node5"><a xlink:href="classMotywy_1_1Fragmenty.html#a654558f130a86c40dff29b3955c7e5ce" target="_top" xlink:title=" ">
<polygon fill="white" stroke="#666666" points="699,-96.09 563,-96.09 563,-66.09 699,-66.09 699,-96.09"/>
<text text-anchor="start" x="571" y="-84.09" font-family="Helvetica,sans-Serif" font-size="10.00">Motywy.Fragmenty.getOpis</text>
<text text-anchor="middle" x="631" y="-73.09" font-family="Helvetica,sans-Serif" font-size="10.00">KomórkiArkusza</text>
</a>
</g>
</g>
<!-- Node1&#45;&gt;Node5 -->
<g id="edge4" class="edge">
<title>Node1&#45;&gt;Node5</title>
<path fill="none" stroke="#63b8ff" d="M742.65,-94.37C728.09,-92.63 713.22,-90.84 699.3,-89.17"/>
<polygon fill="#63b8ff" stroke="#63b8ff" points="742.32,-97.86 752.67,-95.57 743.16,-90.91 742.32,-97.86"/>
</g>
<!-- Node7 -->
<g id="node7" class="node">
<title>Node7</title>
<g id="a_node7"><a xlink:href="classMotywy_1_1Fragmenty.html#af142a18268a561dcafe100a07e2b1928" target="_top" xlink:title=" ">
<polygon fill="white" stroke="#666666" points="312,-56.09 178,-56.09 178,-26.09 312,-26.09 312,-56.09"/>
<text text-anchor="start" x="186" y="-44.09" font-family="Helvetica,sans-Serif" font-size="10.00">Motywy.Fragmenty.Utwórz</text>
<text text-anchor="middle" x="245" y="-33.09" font-family="Helvetica,sans-Serif" font-size="10.00">MacierzMotywów</text>
</a>
</g>
</g>
<!-- Node1&#45;&gt;Node7 -->
<g id="edge10" class="edge">
<title>Node1&#45;&gt;Node7</title>
<path fill="none" stroke="#63b8ff" d="M812.08,-89.45C789.65,-72.78 751.42,-47.17 714,-35.09 559.01,14.92 509.78,1.68 348,-17.09 332.1,-18.94 315.08,-22.35 299.58,-26.04"/>
<polygon fill="#63b8ff" stroke="#63b8ff" points="810.06,-92.31 820.14,-95.56 814.29,-86.73 810.06,-92.31"/>
</g>
<!-- Node9 -->
<g id="node9" class="node">
<title>Node9</title>
<g id="a_node9"><a xlink:href="classMotywy_1_1Fragmenty.html#a1d32b57c48e3938e88c61779d38cb519" target="_top" xlink:title=" ">
<polygon fill="white" stroke="#666666" points="499.5,-56.09 360.5,-56.09 360.5,-26.09 499.5,-26.09 499.5,-56.09"/>
<text text-anchor="start" x="368.5" y="-44.09" font-family="Helvetica,sans-Serif" font-size="10.00">Motywy.Fragmenty.Wypełnij</text>
<text text-anchor="middle" x="430" y="-33.09" font-family="Helvetica,sans-Serif" font-size="10.00">TablicęSkróconą</text>
</a>
</g>
</g>
<!-- Node1&#45;&gt;Node9 -->
<g id="edge11" class="edge">
<title>Node1&#45;&gt;Node9</title>
<path fill="none" stroke="#63b8ff" d="M804.84,-91.03C781.45,-79.67 746.43,-64.39 714,-57.09 642.11,-40.91 557.49,-38.19 499.63,-38.71"/>
<polygon fill="#63b8ff" stroke="#63b8ff" points="803.3,-94.18 813.81,-95.48 806.41,-87.9 803.3,-94.18"/>
</g>
<!-- Node6 -->
<g id="node6" class="node">
<title>Node6</title>
<g id="a_node6"><a xlink:href="classMotywy_1_1Fragmenty.html#a0980cac3e787436873aefd34d196428f" target="_top" xlink:title=" ">
<polygon fill="white" stroke="#666666" points="512,-104.09 348,-104.09 348,-74.09 512,-74.09 512,-104.09"/>
<text text-anchor="start" x="356" y="-92.09" font-family="Helvetica,sans-Serif" font-size="10.00">Motywy.Fragmenty.TwórzIndeksy</text>
<text text-anchor="middle" x="430" y="-81.09" font-family="Helvetica,sans-Serif" font-size="10.00">Liczbowe</text>
</a>
</g>
</g>
<!-- Node5&#45;&gt;Node6 -->
<g id="edge5" class="edge">
<title>Node5&#45;&gt;Node6</title>
<path fill="none" stroke="#63b8ff" d="M552.86,-84.2C539.56,-84.73 525.7,-85.29 512.29,-85.83"/>
<polygon fill="#63b8ff" stroke="#63b8ff" points="553.05,-87.69 562.91,-83.79 552.77,-80.7 553.05,-87.69"/>
</g>
<!-- Node5&#45;&gt;Node9 -->
<g id="edge8" class="edge">
<title>Node5&#45;&gt;Node9</title>
<path fill="none" stroke="#63b8ff" d="M552.76,-65.57C535.32,-62.06 516.91,-58.36 499.84,-54.93"/>
<polygon fill="#63b8ff" stroke="#63b8ff" points="552.41,-69.07 562.91,-67.61 553.79,-62.21 552.41,-69.07"/>
</g>
<!-- Node6&#45;&gt;Node7 -->
<g id="edge6" class="edge">
<title>Node6&#45;&gt;Node7</title>
<path fill="none" stroke="#63b8ff" d="M361.71,-71.45C342.5,-66.41 321.75,-60.96 303.2,-56.1"/>
<polygon fill="#63b8ff" stroke="#63b8ff" points="361.04,-74.89 371.6,-74.04 362.81,-68.12 361.04,-74.89"/>
</g>
<!-- Node8 -->
<g id="node8" class="node">
<title>Node8</title>
<g id="a_node8"><a xlink:href="classporownania_1_1Rezultat.html#abfab722f91bb304108e01333fdbf5cf3" target="_top" xlink:title=" ">
<polygon fill="white" stroke="#666666" points="142,-50.59 0,-50.59 0,-31.59 142,-31.59 142,-50.59"/>
<text text-anchor="middle" x="71" y="-38.59" font-family="Helvetica,sans-Serif" font-size="10.00">porownania.Rezultat.toString</text>
</a>
</g>
</g>
<!-- Node7&#45;&gt;Node8 -->
<g id="edge7" class="edge">
<title>Node7&#45;&gt;Node8</title>
<path fill="none" stroke="#63b8ff" d="M167.98,-41.09C159.37,-41.09 150.64,-41.09 142.11,-41.09"/>
<polygon fill="#63b8ff" stroke="#63b8ff" points="167.99,-44.59 177.99,-41.09 167.99,-37.59 167.99,-44.59"/>
</g>
<!-- Node9&#45;&gt;Node7 -->
<g id="edge9" class="edge">
<title>Node9&#45;&gt;Node7</title>
<path fill="none" stroke="#63b8ff" d="M350.21,-41.09C337.48,-41.09 324.41,-41.09 312.01,-41.09"/>
<polygon fill="#63b8ff" stroke="#63b8ff" points="350.34,-44.59 360.34,-41.09 350.34,-37.59 350.34,-44.59"/>
</g>
</g>
</svg>
