<?xml version="1.0" encoding="UTF-8" standalone="no"?>
<!DOCTYPE svg PUBLIC "-//W3C//DTD SVG 1.1//EN"
 "http://www.w3.org/Graphics/SVG/1.1/DTD/svg11.dtd">
<!-- Generated by graphviz version 2.49.3 (0)
 -->
<!-- Title: Struktury.UsuwanieBOM.CzyJestJakikolwiekBOM Pages: 1 -->
<svg width="1162pt" height="76pt"
 viewBox="0.00 0.00 1162.00 75.50" xmlns="http://www.w3.org/2000/svg" xmlns:xlink="http://www.w3.org/1999/xlink">
<g id="graph0" class="graph" transform="scale(1 1) rotate(0) translate(4 71.5)">
<title>Struktury.UsuwanieBOM.CzyJestJakikolwiekBOM</title>
<!-- Node1 -->
<g id="node1" class="node">
<title>Node1</title>
<g id="a_node1"><a xlink:title=" ">
<polygon fill="#999999" stroke="#666666" points="1154,-51 1008,-51 1008,-21 1154,-21 1154,-51"/>
<text text-anchor="start" x="1016" y="-39" font-family="Helvetica,sans-Serif" font-size="10.00">Struktury.UsuwanieBOM.Czy</text>
<text text-anchor="middle" x="1081" y="-28" font-family="Helvetica,sans-Serif" font-size="10.00">JestJakikolwiekBOM</text>
</a>
</g>
</g>
<!-- Node2 -->
<g id="node2" class="node">
<title>Node2</title>
<g id="a_node2"><a xlink:href="classStruktury_1_1UsuwanieBOM.html#a0770cffdd0857a04a472c6489e890eeb" target="_top" xlink:title=" ">
<polygon fill="white" stroke="#666666" points="972,-45.5 799,-45.5 799,-26.5 972,-26.5 972,-45.5"/>
<text text-anchor="middle" x="885.5" y="-33.5" font-family="Helvetica,sans-Serif" font-size="10.00">Struktury.UsuwanieBOM.UsuńBOM</text>
</a>
</g>
</g>
<!-- Node1&#45;&gt;Node2 -->
<g id="edge1" class="edge">
<title>Node1&#45;&gt;Node2</title>
<path fill="none" stroke="#63b8ff" d="M997.68,-36C989.18,-36 980.54,-36 972.01,-36"/>
<polygon fill="#63b8ff" stroke="#63b8ff" points="997.95,-39.5 1007.95,-36 997.95,-32.5 997.95,-39.5"/>
</g>
<!-- Node3 -->
<g id="node3" class="node">
<title>Node3</title>
<g id="a_node3"><a xlink:href="classStruktury_1_1UsuwanieBOM.html#a61ea81daa96a505746289e335f32cbc3" target="_top" xlink:title=" ">
<polygon fill="white" stroke="#666666" points="763,-45.5 579,-45.5 579,-26.5 763,-26.5 763,-45.5"/>
<text text-anchor="middle" x="671" y="-33.5" font-family="Helvetica,sans-Serif" font-size="10.00">Struktury.UsuwanieBOM.KorektaBOM</text>
</a>
</g>
</g>
<!-- Node2&#45;&gt;Node3 -->
<g id="edge2" class="edge">
<title>Node2&#45;&gt;Node3</title>
<path fill="none" stroke="#63b8ff" d="M788.71,-36C780.24,-36 771.68,-36 763.25,-36"/>
<polygon fill="#63b8ff" stroke="#63b8ff" points="788.99,-39.5 798.99,-36 788.99,-32.5 788.99,-39.5"/>
</g>
<!-- Node4 -->
<g id="node4" class="node">
<title>Node4</title>
<g id="a_node4"><a xlink:href="classStruktury_1_1PlikCSV.html#ad822fb4b09d4b763cefc7b9e59833182" target="_top" xlink:title=" ">
<polygon fill="white" stroke="#666666" points="543,-51 409,-51 409,-21 543,-21 543,-51"/>
<text text-anchor="start" x="417" y="-39" font-family="Helvetica,sans-Serif" font-size="10.00">Struktury.PlikCSV.Wczytaj</text>
<text text-anchor="middle" x="476" y="-28" font-family="Helvetica,sans-Serif" font-size="10.00">CałyPLik</text>
</a>
</g>
</g>
<!-- Node3&#45;&gt;Node4 -->
<g id="edge3" class="edge">
<title>Node3&#45;&gt;Node4</title>
<path fill="none" stroke="#63b8ff" d="M568.73,-36C560.1,-36 551.52,-36 543.27,-36"/>
<polygon fill="#63b8ff" stroke="#63b8ff" points="568.87,-39.5 578.87,-36 568.87,-32.5 568.87,-39.5"/>
</g>
<!-- Node5 -->
<g id="node5" class="node">
<title>Node5</title>
<g id="a_node5"><a xlink:href="classStruktury_1_1PlikCSV.html#af927acf502973c4c1abb99e1d1995ccb" target="_top" xlink:title=" ">
<polygon fill="white" stroke="#666666" points="373,-45.5 215,-45.5 215,-26.5 373,-26.5 373,-45.5"/>
<text text-anchor="middle" x="294" y="-33.5" font-family="Helvetica,sans-Serif" font-size="10.00">Struktury.PlikCSV.WczytajDane</text>
</a>
</g>
</g>
<!-- Node4&#45;&gt;Node5 -->
<g id="edge4" class="edge">
<title>Node4&#45;&gt;Node5</title>
<path fill="none" stroke="#63b8ff" d="M398.78,-36C390.32,-36 381.69,-36 373.21,-36"/>
<polygon fill="#63b8ff" stroke="#63b8ff" points="399,-39.5 409,-36 399,-32.5 399,-39.5"/>
</g>
<!-- Node6 -->
<g id="node6" class="node">
<title>Node6</title>
<g id="a_node6"><a xlink:href="classporownania_1_1AnalizaPor_xC3_xB3wnawcza.html#a4fb7b99f4ed968c3c62c6fa132b19938" target="_top" xlink:title=" ">
<polygon fill="white" stroke="#666666" points="179,-67.5 0,-67.5 0,-48.5 179,-48.5 179,-67.5"/>
<text text-anchor="middle" x="89.5" y="-55.5" font-family="Helvetica,sans-Serif" font-size="10.00">porownania.AnalizaPorównawcza.run</text>
</a>
</g>
</g>
<!-- Node5&#45;&gt;Node6 -->
<g id="edge5" class="edge">
<title>Node5&#45;&gt;Node6</title>
<path fill="none" stroke="#63b8ff" d="M205.04,-45.56C196.15,-46.52 187.13,-47.5 178.24,-48.47"/>
<polygon fill="#63b8ff" stroke="#63b8ff" points="205.43,-49.03 215,-44.47 204.68,-42.07 205.43,-49.03"/>
</g>
<!-- Node7 -->
<g id="node7" class="node">
<title>Node7</title>
<g id="a_node7"><a xlink:href="classporownania_1_1WalidacjaPlik_xC3_xB3wCSV.html#a06f04fa5de0447a788775285f24793d1" target="_top" xlink:title=" ">
<polygon fill="white" stroke="#666666" points="159.5,-30 19.5,-30 19.5,0 159.5,0 159.5,-30"/>
<text text-anchor="start" x="27.5" y="-18" font-family="Helvetica,sans-Serif" font-size="10.00">porownania.WalidacjaPlików</text>
<text text-anchor="middle" x="89.5" y="-7" font-family="Helvetica,sans-Serif" font-size="10.00">CSV.run</text>
</a>
</g>
</g>
<!-- Node5&#45;&gt;Node7 -->
<g id="edge6" class="edge">
<title>Node5&#45;&gt;Node7</title>
<path fill="none" stroke="#63b8ff" d="M204.62,-26.84C189.53,-25.27 174.04,-23.66 159.54,-22.16"/>
<polygon fill="#63b8ff" stroke="#63b8ff" points="204.69,-30.36 215,-27.91 205.41,-23.4 204.69,-30.36"/>
</g>
</g>
</svg>
