<?xml version="1.0" encoding="UTF-8" standalone="no"?>
<!DOCTYPE svg PUBLIC "-//W3C//DTD SVG 1.1//EN"
 "http://www.w3.org/Graphics/SVG/1.1/DTD/svg11.dtd">
<!-- Generated by graphviz version 2.49.3 (0)
 -->
<!-- Title: Motywy.Motyw.getLokalizacjęPoczątku Pages: 1 -->
<svg width="342pt" height="86pt"
 viewBox="0.00 0.00 342.00 86.00" xmlns="http://www.w3.org/2000/svg" xmlns:xlink="http://www.w3.org/1999/xlink">
<g id="graph0" class="graph" transform="scale(1 1) rotate(0) translate(4 82)">
<title>Motywy.Motyw.getLokalizacjęPoczątku</title>
<!-- Node1 -->
<g id="node1" class="node">
<title>Node1</title>
<g id="a_node1"><a xlink:title=" ">
<polygon fill="#999999" stroke="#666666" points="147,-54 0,-54 0,-24 147,-24 147,-54"/>
<text text-anchor="start" x="8" y="-42" font-family="Helvetica,sans-Serif" font-size="10.00">Motywy.Motyw.getLokalizację</text>
<text text-anchor="middle" x="73.5" y="-31" font-family="Helvetica,sans-Serif" font-size="10.00">Początku</text>
</a>
</g>
</g>
<!-- Node2 -->
<g id="node2" class="node">
<title>Node2</title>
<g id="a_node2"><a xlink:href="classStruktury_1_1ArkuszZdarzenie.html#a51ecd5710e9e6d740314661d80e9499f" target="_top" xlink:title=" ">
<polygon fill="white" stroke="#666666" points="334,-78 183,-78 183,-48 334,-48 334,-78"/>
<text text-anchor="start" x="191" y="-66" font-family="Helvetica,sans-Serif" font-size="10.00">Struktury.ArkuszZdarzenie.get</text>
<text text-anchor="middle" x="258.5" y="-55" font-family="Helvetica,sans-Serif" font-size="10.00">NazwęKolumny</text>
</a>
</g>
</g>
<!-- Node1&#45;&gt;Node2 -->
<g id="edge1" class="edge">
<title>Node1&#45;&gt;Node2</title>
<path fill="none" stroke="#63b8ff" d="M147.09,-48.52C155.55,-49.63 164.24,-50.77 172.85,-51.9"/>
<polygon fill="#63b8ff" stroke="#63b8ff" points="172.53,-55.39 182.9,-53.22 173.44,-48.45 172.53,-55.39"/>
</g>
<!-- Node3 -->
<g id="node3" class="node">
<title>Node3</title>
<g id="a_node3"><a xlink:href="classStruktury_1_1ArkuszZdarzenie.html#aab8a50eda797bd00b06ec5b4c9217724" target="_top" xlink:title=" ">
<polygon fill="white" stroke="#666666" points="334,-30 183,-30 183,0 334,0 334,-30"/>
<text text-anchor="start" x="191" y="-18" font-family="Helvetica,sans-Serif" font-size="10.00">Struktury.ArkuszZdarzenie.get</text>
<text text-anchor="middle" x="258.5" y="-7" font-family="Helvetica,sans-Serif" font-size="10.00">Wiersz</text>
</a>
</g>
</g>
<!-- Node1&#45;&gt;Node3 -->
<g id="edge2" class="edge">
<title>Node1&#45;&gt;Node3</title>
<path fill="none" stroke="#63b8ff" d="M147.09,-29.48C155.55,-28.37 164.24,-27.23 172.85,-26.1"/>
<polygon fill="#63b8ff" stroke="#63b8ff" points="173.44,-29.55 182.9,-24.78 172.53,-22.61 173.44,-29.55"/>
</g>
</g>
</svg>
