<?xml version="1.0" encoding="UTF-8" standalone="no"?>
<!DOCTYPE svg PUBLIC "-//W3C//DTD SVG 1.1//EN"
 "http://www.w3.org/Graphics/SVG/1.1/DTD/svg11.dtd">
<!-- Generated by graphviz version 2.49.3 (0)
 -->
<!-- Title: Motywy.Fragmenty.UtwórzListę Pages: 1 -->
<svg width="542pt" height="59pt"
 viewBox="0.00 0.00 542.00 59.00" xmlns="http://www.w3.org/2000/svg" xmlns:xlink="http://www.w3.org/1999/xlink">
<g id="graph0" class="graph" transform="scale(1 1) rotate(0) translate(4 55)">
<title>Motywy.Fragmenty.UtwórzListę</title>
<!-- Node1 -->
<g id="node1" class="node">
<title>Node1</title>
<g id="a_node1"><a xlink:title=" ">
<polygon fill="#999999" stroke="#666666" points="534,-51 400,-51 400,-21 534,-21 534,-51"/>
<text text-anchor="start" x="408" y="-39" font-family="Helvetica,sans-Serif" font-size="10.00">Motywy.Fragmenty.Utwórz</text>
<text text-anchor="middle" x="467" y="-28" font-family="Helvetica,sans-Serif" font-size="10.00">Listę</text>
</a>
</g>
</g>
<!-- Node2 -->
<g id="node2" class="node">
<title>Node2</title>
<g id="a_node2"><a xlink:href="classporownania_1_1AnalizaPor_xC3_xB3wnawcza.html#a4fb7b99f4ed968c3c62c6fa132b19938" target="_top" xlink:title=" ">
<polygon fill="white" stroke="#666666" points="179,-45.5 0,-45.5 0,-26.5 179,-26.5 179,-45.5"/>
<text text-anchor="middle" x="89.5" y="-33.5" font-family="Helvetica,sans-Serif" font-size="10.00">porownania.AnalizaPorównawcza.run</text>
</a>
</g>
</g>
<!-- Node1&#45;&gt;Node2 -->
<g id="edge1" class="edge">
<title>Node1&#45;&gt;Node2</title>
<path fill="none" stroke="#63b8ff" d="M389.74,-38.49C381.06,-38.7 372.34,-38.88 364,-39 297.78,-39.97 281.22,-39.8 215,-39 203.43,-38.86 191.26,-38.65 179.25,-38.4"/>
<polygon fill="#63b8ff" stroke="#63b8ff" points="389.98,-41.98 399.89,-38.23 389.8,-34.99 389.98,-41.98"/>
</g>
<!-- Node3 -->
<g id="node3" class="node">
<title>Node3</title>
<g id="a_node3"><a xlink:href="classMotywy_1_1ZnajdowanieMotyw_xC3_xB3wCa_xC5_x82o_xC5_x9B_xC4_x87.html#a1b547741636351220c77f9921caf0275" target="_top" xlink:title=" ">
<polygon fill="white" stroke="#666666" points="364,-30 215,-30 215,0 364,0 364,-30"/>
<text text-anchor="start" x="223" y="-18" font-family="Helvetica,sans-Serif" font-size="10.00">Motywy.ZnajdowanieMotywów</text>
<text text-anchor="middle" x="289.5" y="-7" font-family="Helvetica,sans-Serif" font-size="10.00">Całość.UruchomPorównanie</text>
</a>
</g>
</g>
<!-- Node1&#45;&gt;Node3 -->
<g id="edge2" class="edge">
<title>Node1&#45;&gt;Node3</title>
<path fill="none" stroke="#63b8ff" d="M389.52,-26.85C381.15,-25.85 372.63,-24.83 364.29,-23.83"/>
<polygon fill="#63b8ff" stroke="#63b8ff" points="389.31,-30.35 399.65,-28.06 390.14,-23.4 389.31,-30.35"/>
</g>
<!-- Node3&#45;&gt;Node2 -->
<g id="edge3" class="edge">
<title>Node3&#45;&gt;Node2</title>
<path fill="none" stroke="#63b8ff" d="M204.56,-23.9C196.11,-24.8 187.51,-25.71 179.01,-26.61"/>
<polygon fill="#63b8ff" stroke="#63b8ff" points="205.2,-27.35 214.77,-22.82 204.46,-20.39 205.2,-27.35"/>
</g>
</g>
</svg>
