<?xml version="1.0" encoding="UTF-8" standalone="no"?>
<!DOCTYPE svg PUBLIC "-//W3C//DTD SVG 1.1//EN"
 "http://www.w3.org/Graphics/SVG/1.1/DTD/svg11.dtd">
<!-- Generated by graphviz version 2.49.3 (0)
 -->
<!-- Title: Struktury.Zdarzenie.getPitch Pages: 1 -->
<svg width="695pt" height="172pt"
 viewBox="0.00 0.00 695.00 172.00" xmlns="http://www.w3.org/2000/svg" xmlns:xlink="http://www.w3.org/1999/xlink">
<g id="graph0" class="graph" transform="scale(1 1) rotate(0) translate(4 168)">
<title>Struktury.Zdarzenie.getPitch</title>
<!-- Node1 -->
<g id="node1" class="node">
<title>Node1</title>
<g id="a_node1"><a xlink:title=" ">
<polygon fill="#999999" stroke="#666666" points="687,-93.5 545,-93.5 545,-74.5 687,-74.5 687,-93.5"/>
<text text-anchor="middle" x="616" y="-81.5" font-family="Helvetica,sans-Serif" font-size="10.00">Struktury.Zdarzenie.getPitch</text>
</a>
</g>
</g>
<!-- Node2 -->
<g id="node2" class="node">
<title>Node2</title>
<g id="a_node2"><a xlink:href="classMotywy_1_1Motyw.html#aaf6b164d32ae45a3647c86047afb23d3" target="_top" xlink:title=" ">
<polygon fill="white" stroke="#666666" points="304,-112.5 190,-112.5 190,-93.5 304,-93.5 304,-112.5"/>
<text text-anchor="middle" x="247" y="-100.5" font-family="Helvetica,sans-Serif" font-size="10.00">Motywy.Motyw.Motyw</text>
</a>
</g>
</g>
<!-- Node1&#45;&gt;Node2 -->
<g id="edge1" class="edge">
<title>Node1&#45;&gt;Node2</title>
<path fill="none" stroke="#63b8ff" d="M534.61,-88.16C464.9,-91.77 365.8,-96.9 304.28,-100.09"/>
<polygon fill="#63b8ff" stroke="#63b8ff" points="534.87,-91.65 544.67,-87.64 534.51,-84.66 534.87,-91.65"/>
</g>
<!-- Node3 -->
<g id="node3" class="node">
<title>Node3</title>
<g id="a_node3"><a xlink:href="classStruktury_1_1Zdarzenie.html#a77bd681c4a6433cf34baf04b3bbc0c56" target="_top" xlink:title=" ">
<polygon fill="white" stroke="#666666" points="503.5,-164 361.5,-164 361.5,-134 503.5,-134 503.5,-164"/>
<text text-anchor="start" x="369.5" y="-152" font-family="Helvetica,sans-Serif" font-size="10.00">Struktury.Zdarzenie.Różnica</text>
<text text-anchor="middle" x="432.5" y="-141" font-family="Helvetica,sans-Serif" font-size="10.00">Interwał</text>
</a>
</g>
</g>
<!-- Node1&#45;&gt;Node3 -->
<g id="edge2" class="edge">
<title>Node1&#45;&gt;Node3</title>
<path fill="none" stroke="#63b8ff" d="M578.63,-97.02C548.88,-107.68 506.75,-122.77 475.55,-133.94"/>
<polygon fill="#63b8ff" stroke="#63b8ff" points="579.98,-100.26 588.22,-93.59 577.62,-93.67 579.98,-100.26"/>
</g>
<!-- Node5 -->
<g id="node5" class="node">
<title>Node5</title>
<g id="a_node5"><a xlink:href="classStruktury_1_1Zdarzenie.html#aa7f62c2cc58dfd742901faa82a5536ec" target="_top" xlink:title=" ">
<polygon fill="white" stroke="#666666" points="503.5,-30 361.5,-30 361.5,0 503.5,0 503.5,-30"/>
<text text-anchor="start" x="369.5" y="-18" font-family="Helvetica,sans-Serif" font-size="10.00">Struktury.Zdarzenie.Różnica</text>
<text text-anchor="middle" x="432.5" y="-7" font-family="Helvetica,sans-Serif" font-size="10.00">Półtonowa</text>
</a>
</g>
</g>
<!-- Node1&#45;&gt;Node5 -->
<g id="edge4" class="edge">
<title>Node1&#45;&gt;Node5</title>
<path fill="none" stroke="#63b8ff" d="M584.75,-70.26C563.71,-60.93 534.9,-48.59 509,-39 500.75,-35.94 491.9,-32.92 483.27,-30.09"/>
<polygon fill="#63b8ff" stroke="#63b8ff" points="583.56,-73.57 594.12,-74.45 586.41,-67.17 583.56,-73.57"/>
</g>
<!-- Node7 -->
<g id="node7" class="node">
<title>Node7</title>
<g id="a_node7"><a xlink:href="classMotywy_1_1Motyw.html#a28609ed90ed8f9d585dba34d3bff4800" target="_top" xlink:title=" ">
<polygon fill="white" stroke="#666666" points="509,-78 356,-78 356,-48 509,-48 509,-78"/>
<text text-anchor="start" x="364" y="-66" font-family="Helvetica,sans-Serif" font-size="10.00">Motywy.Motyw.WyliczNaNowo</text>
<text text-anchor="middle" x="432.5" y="-55" font-family="Helvetica,sans-Serif" font-size="10.00">Interwały</text>
</a>
</g>
</g>
<!-- Node1&#45;&gt;Node7 -->
<g id="edge6" class="edge">
<title>Node1&#45;&gt;Node7</title>
<path fill="none" stroke="#63b8ff" d="M534.88,-74.73C526.35,-73.74 517.69,-72.74 509.2,-71.76"/>
<polygon fill="#63b8ff" stroke="#63b8ff" points="534.49,-78.21 544.83,-75.88 535.3,-71.25 534.49,-78.21"/>
</g>
<!-- Node4 -->
<g id="node4" class="node">
<title>Node4</title>
<g id="a_node4"><a xlink:href="classStruktury_1_1Zdarzenie.html#aca10ea59105918d18ac2b9b60fc9febe" target="_top" xlink:title=" ">
<polygon fill="white" stroke="#666666" points="318.5,-164 175.5,-164 175.5,-134 318.5,-134 318.5,-164"/>
<text text-anchor="start" x="183.5" y="-152" font-family="Helvetica,sans-Serif" font-size="10.00">Struktury.Zdarzenie.getMiarę</text>
<text text-anchor="middle" x="247" y="-141" font-family="Helvetica,sans-Serif" font-size="10.00">Różnicy</text>
</a>
</g>
</g>
<!-- Node3&#45;&gt;Node4 -->
<g id="edge3" class="edge">
<title>Node3&#45;&gt;Node4</title>
<path fill="none" stroke="#63b8ff" d="M351.09,-149C340.31,-149 329.32,-149 318.73,-149"/>
<polygon fill="#63b8ff" stroke="#63b8ff" points="351.34,-152.5 361.34,-149 351.34,-145.5 351.34,-152.5"/>
</g>
<!-- Node6 -->
<g id="node6" class="node">
<title>Node6</title>
<g id="a_node6"><a xlink:href="classStruktury_1_1Zdarzenie.html#a3ce7d1f7c57e73902451e5b194c70b98" target="_top" xlink:title=" ">
<polygon fill="white" stroke="#666666" points="318,-30 176,-30 176,0 318,0 318,-30"/>
<text text-anchor="start" x="184" y="-18" font-family="Helvetica,sans-Serif" font-size="10.00">Struktury.Zdarzenie.Różnica</text>
<text text-anchor="middle" x="247" y="-7" font-family="Helvetica,sans-Serif" font-size="10.00">Interwałowa</text>
</a>
</g>
</g>
<!-- Node5&#45;&gt;Node6 -->
<g id="edge5" class="edge">
<title>Node5&#45;&gt;Node6</title>
<path fill="none" stroke="#63b8ff" d="M351.28,-15C340.24,-15 328.96,-15 318.12,-15"/>
<polygon fill="#63b8ff" stroke="#63b8ff" points="351.34,-18.5 361.34,-15 351.34,-11.5 351.34,-18.5"/>
</g>
<!-- Node7&#45;&gt;Node2 -->
<g id="edge7" class="edge">
<title>Node7&#45;&gt;Node2</title>
<path fill="none" stroke="#63b8ff" d="M352.78,-80.16C331.83,-84.73 309.96,-89.49 291.65,-93.49"/>
<polygon fill="#63b8ff" stroke="#63b8ff" points="353.62,-83.56 362.65,-78.01 352.13,-76.72 353.62,-83.56"/>
</g>
<!-- Node8 -->
<g id="node8" class="node">
<title>Node8</title>
<g id="a_node8"><a xlink:href="classMotywy_1_1Motyw.html#a7aa0c770a7e49f3fcfe491292039798c" target="_top" xlink:title=" ">
<polygon fill="white" stroke="#666666" points="320,-72.5 174,-72.5 174,-53.5 320,-53.5 320,-72.5"/>
<text text-anchor="middle" x="247" y="-60.5" font-family="Helvetica,sans-Serif" font-size="10.00">Motywy.Motyw.Odkrabowanie</text>
</a>
</g>
</g>
<!-- Node7&#45;&gt;Node8 -->
<g id="edge8" class="edge">
<title>Node7&#45;&gt;Node8</title>
<path fill="none" stroke="#63b8ff" d="M345.54,-63C337.09,-63 328.57,-63 320.28,-63"/>
<polygon fill="#63b8ff" stroke="#63b8ff" points="345.8,-66.5 355.8,-63 345.8,-59.5 345.8,-66.5"/>
</g>
<!-- Node9 -->
<g id="node9" class="node">
<title>Node9</title>
<g id="a_node9"><a xlink:href="classMotywy_1_1ParaMotyw_xC3_xB3w.html#ab931de0cb5af4fd954d48d91c1de5c24" target="_top" xlink:title=" ">
<polygon fill="white" stroke="#666666" points="138,-78 0,-78 0,-48 138,-48 138,-78"/>
<text text-anchor="start" x="8" y="-66" font-family="Helvetica,sans-Serif" font-size="10.00">Motywy.ParaMotywów.Para</text>
<text text-anchor="middle" x="69" y="-55" font-family="Helvetica,sans-Serif" font-size="10.00">Motywów</text>
</a>
</g>
</g>
<!-- Node8&#45;&gt;Node9 -->
<g id="edge9" class="edge">
<title>Node8&#45;&gt;Node9</title>
<path fill="none" stroke="#63b8ff" d="M163.82,-63C155.18,-63 146.47,-63 138.01,-63"/>
<polygon fill="#63b8ff" stroke="#63b8ff" points="163.91,-66.5 173.91,-63 163.91,-59.5 163.91,-66.5"/>
</g>
</g>
</svg>
