<?xml version="1.0" encoding="UTF-8" standalone="no"?>
<!DOCTYPE svg PUBLIC "-//W3C//DTD SVG 1.1//EN"
 "http://www.w3.org/Graphics/SVG/1.1/DTD/svg11.dtd">
<!-- Generated by graphviz version 2.49.3 (0)
 -->
<!-- Title: Motywy.Motyw.WyliczNaNowoInterwały Pages: 1 -->
<svg width="355pt" height="161pt"
 viewBox="0.00 0.00 355.00 161.00" xmlns="http://www.w3.org/2000/svg" xmlns:xlink="http://www.w3.org/1999/xlink">
<g id="graph0" class="graph" transform="scale(1 1) rotate(0) translate(4 157)">
<title>Motywy.Motyw.WyliczNaNowoInterwały</title>
<!-- Node1 -->
<g id="node1" class="node">
<title>Node1</title>
<g id="a_node1"><a xlink:title=" ">
<polygon fill="#999999" stroke="#666666" points="153,-91.5 0,-91.5 0,-61.5 153,-61.5 153,-91.5"/>
<text text-anchor="start" x="8" y="-79.5" font-family="Helvetica,sans-Serif" font-size="10.00">Motywy.Motyw.WyliczNaNowo</text>
<text text-anchor="middle" x="76.5" y="-68.5" font-family="Helvetica,sans-Serif" font-size="10.00">Interwały</text>
</a>
</g>
</g>
<!-- Node2 -->
<g id="node2" class="node">
<title>Node2</title>
<g id="a_node2"><a xlink:href="classStruktury_1_1Zdarzenie.html#a0d579308bbe6a5400dd6fbfb35d1ea31" target="_top" xlink:title=" ">
<polygon fill="white" stroke="#666666" points="339,-153 197,-153 197,-134 339,-134 339,-153"/>
<text text-anchor="middle" x="268" y="-141" font-family="Helvetica,sans-Serif" font-size="10.00">Struktury.Zdarzenie.getPitch</text>
</a>
</g>
</g>
<!-- Node1&#45;&gt;Node2 -->
<g id="edge1" class="edge">
<title>Node1&#45;&gt;Node2</title>
<path fill="none" stroke="#63b8ff" d="M108.67,-91.59C130.73,-101.86 161.22,-115.21 189,-124.5 196.44,-126.99 204.37,-129.3 212.22,-131.39"/>
<polygon fill="#63b8ff" stroke="#63b8ff" points="211.53,-134.83 222.09,-133.92 213.27,-128.05 211.53,-134.83"/>
</g>
<!-- Node3 -->
<g id="node3" class="node">
<title>Node3</title>
<g id="a_node3"><a xlink:href="classStruktury_1_1ArkuszZdarzenie.html#a3e1eb6a41e16bd31dfb9c7525f58b11b" target="_top" xlink:title=" ">
<polygon fill="white" stroke="#666666" points="343.5,-115.5 192.5,-115.5 192.5,-85.5 343.5,-85.5 343.5,-115.5"/>
<text text-anchor="start" x="200.5" y="-103.5" font-family="Helvetica,sans-Serif" font-size="10.00">Struktury.ArkuszZdarzenie.get</text>
<text text-anchor="middle" x="268" y="-92.5" font-family="Helvetica,sans-Serif" font-size="10.00">Zdarzenie</text>
</a>
</g>
</g>
<!-- Node1&#45;&gt;Node3 -->
<g id="edge2" class="edge">
<title>Node1&#45;&gt;Node3</title>
<path fill="none" stroke="#63b8ff" d="M153.21,-86.09C162.78,-87.3 172.61,-88.55 182.3,-89.77"/>
<polygon fill="#63b8ff" stroke="#63b8ff" points="181.97,-93.26 192.33,-91.04 182.85,-86.31 181.97,-93.26"/>
</g>
<!-- Node4 -->
<g id="node4" class="node">
<title>Node4</title>
<g id="a_node4"><a xlink:href="classMotywy_1_1Motyw.html#ada31b6948fe6606145cd37b4878c320f" target="_top" xlink:title=" ">
<polygon fill="white" stroke="#666666" points="347,-67.5 189,-67.5 189,-37.5 347,-37.5 347,-67.5"/>
<text text-anchor="start" x="197" y="-55.5" font-family="Helvetica,sans-Serif" font-size="10.00">Motywy.Motyw.KorektaInterwału</text>
<text text-anchor="middle" x="268" y="-44.5" font-family="Helvetica,sans-Serif" font-size="10.00">Humdrum</text>
</a>
</g>
</g>
<!-- Node1&#45;&gt;Node4 -->
<g id="edge3" class="edge">
<title>Node1&#45;&gt;Node4</title>
<path fill="none" stroke="#63b8ff" d="M153.21,-66.91C161.66,-65.84 170.32,-64.74 178.9,-63.66"/>
<polygon fill="#63b8ff" stroke="#63b8ff" points="179.45,-67.12 188.93,-62.39 178.57,-60.17 179.45,-67.12"/>
</g>
<!-- Node5 -->
<g id="node5" class="node">
<title>Node5</title>
<g id="a_node5"><a xlink:href="classStruktury_1_1Zdarzenie.html#a7f42568598ee4c3e13733e4f1e888ecf" target="_top" xlink:title=" ">
<polygon fill="white" stroke="#666666" points="344,-19 192,-19 192,0 344,0 344,-19"/>
<text text-anchor="middle" x="268" y="-7" font-family="Helvetica,sans-Serif" font-size="10.00">Struktury.Zdarzenie.setInterval</text>
</a>
</g>
</g>
<!-- Node1&#45;&gt;Node5 -->
<g id="edge4" class="edge">
<title>Node1&#45;&gt;Node5</title>
<path fill="none" stroke="#63b8ff" d="M108.67,-61.41C130.73,-51.14 161.22,-37.79 189,-28.5 196.44,-26.01 204.37,-23.7 212.22,-21.61"/>
<polygon fill="#63b8ff" stroke="#63b8ff" points="213.27,-24.95 222.09,-19.08 211.53,-18.17 213.27,-24.95"/>
</g>
</g>
</svg>
