<?xml version="1.0" encoding="UTF-8" standalone="no"?>
<!DOCTYPE svg PUBLIC "-//W3C//DTD SVG 1.1//EN"
 "http://www.w3.org/Graphics/SVG/1.1/DTD/svg11.dtd">
<!-- Generated by graphviz version 2.49.3 (0)
 -->
<!-- Title: Struktury.Interpreter.CzyLiczba Pages: 1 -->
<svg width="689pt" height="38pt"
 viewBox="0.00 0.00 689.00 38.00" xmlns="http://www.w3.org/2000/svg" xmlns:xlink="http://www.w3.org/1999/xlink">
<g id="graph0" class="graph" transform="scale(1 1) rotate(0) translate(4 34)">
<title>Struktury.Interpreter.CzyLiczba</title>
<!-- Node1 -->
<g id="node1" class="node">
<title>Node1</title>
<g id="a_node1"><a xlink:title=" ">
<polygon fill="#999999" stroke="#666666" points="681,-30 556,-30 556,0 681,0 681,-30"/>
<text text-anchor="start" x="564" y="-18" font-family="Helvetica,sans-Serif" font-size="10.00">Struktury.Interpreter.Czy</text>
<text text-anchor="middle" x="618.5" y="-7" font-family="Helvetica,sans-Serif" font-size="10.00">Liczba</text>
</a>
</g>
</g>
<!-- Node2 -->
<g id="node2" class="node">
<title>Node2</title>
<g id="a_node2"><a xlink:href="classStruktury_1_1Interpreter.html#a25a48e8f946a2b064cbfef8be68e1820" target="_top" xlink:title=" ">
<polygon fill="white" stroke="#666666" points="520,-30 371,-30 371,0 520,0 520,-30"/>
<text text-anchor="start" x="379" y="-18" font-family="Helvetica,sans-Serif" font-size="10.00">Struktury.Interpreter.Walidacja</text>
<text text-anchor="middle" x="445.5" y="-7" font-family="Helvetica,sans-Serif" font-size="10.00">Liczb</text>
</a>
</g>
</g>
<!-- Node1&#45;&gt;Node2 -->
<g id="edge1" class="edge">
<title>Node1&#45;&gt;Node2</title>
<path fill="none" stroke="#63b8ff" d="M545.59,-15C537.16,-15 528.54,-15 520.09,-15"/>
<polygon fill="#63b8ff" stroke="#63b8ff" points="545.77,-18.5 555.77,-15 545.77,-11.5 545.77,-18.5"/>
</g>
<!-- Node3 -->
<g id="node3" class="node">
<title>Node3</title>
<g id="a_node3"><a xlink:href="classStruktury_1_1Interpreter.html#a8d912ec5e4e42eaf2aac5f3f524e0172" target="_top" xlink:title=" ">
<polygon fill="white" stroke="#666666" points="335,-30 188,-30 188,0 335,0 335,-30"/>
<text text-anchor="start" x="196" y="-18" font-family="Helvetica,sans-Serif" font-size="10.00">Struktury.Interpreter.Uzupełnij</text>
<text text-anchor="middle" x="261.5" y="-7" font-family="Helvetica,sans-Serif" font-size="10.00">NumeryTaktów</text>
</a>
</g>
</g>
<!-- Node2&#45;&gt;Node3 -->
<g id="edge2" class="edge">
<title>Node2&#45;&gt;Node3</title>
<path fill="none" stroke="#63b8ff" d="M360.93,-15C352.3,-15 343.59,-15 335.09,-15"/>
<polygon fill="#63b8ff" stroke="#63b8ff" points="361,-18.5 371,-15 361,-11.5 361,-18.5"/>
</g>
<!-- Node4 -->
<g id="node4" class="node">
<title>Node4</title>
<g id="a_node4"><a xlink:href="classStruktury_1_1Interpreter.html#a4c2426a0220ccfab53ef88b4ef68e5ab" target="_top" xlink:title=" ">
<polygon fill="white" stroke="#666666" points="152,-24.5 0,-24.5 0,-5.5 152,-5.5 152,-24.5"/>
<text text-anchor="middle" x="76" y="-12.5" font-family="Helvetica,sans-Serif" font-size="10.00">Struktury.Interpreter.Interpreter</text>
</a>
</g>
</g>
<!-- Node3&#45;&gt;Node4 -->
<g id="edge3" class="edge">
<title>Node3&#45;&gt;Node4</title>
<path fill="none" stroke="#63b8ff" d="M177.91,-15C169.29,-15 160.55,-15 152.01,-15"/>
<polygon fill="#63b8ff" stroke="#63b8ff" points="177.98,-18.5 187.98,-15 177.98,-11.5 177.98,-18.5"/>
</g>
</g>
</svg>
