<?xml version="1.0" encoding="UTF-8" standalone="no"?>
<!DOCTYPE svg PUBLIC "-//W3C//DTD SVG 1.1//EN"
 "http://www.w3.org/Graphics/SVG/1.1/DTD/svg11.dtd">
<!-- Generated by graphviz version 2.49.3 (0)
 -->
<!-- Title: Struktury.PlikCSV.PodziałLinii Pages: 1 -->
<svg width="548pt" height="76pt"
 viewBox="0.00 0.00 548.00 75.50" xmlns="http://www.w3.org/2000/svg" xmlns:xlink="http://www.w3.org/1999/xlink">
<g id="graph0" class="graph" transform="scale(1 1) rotate(0) translate(4 71.5)">
<title>Struktury.PlikCSV.PodziałLinii</title>
<!-- Node1 -->
<g id="node1" class="node">
<title>Node1</title>
<g id="a_node1"><a xlink:title=" ">
<polygon fill="#999999" stroke="#666666" points="540,-51 409,-51 409,-21 540,-21 540,-51"/>
<text text-anchor="start" x="417" y="-39" font-family="Helvetica,sans-Serif" font-size="10.00">Struktury.PlikCSV.Podział</text>
<text text-anchor="middle" x="474.5" y="-28" font-family="Helvetica,sans-Serif" font-size="10.00">Linii</text>
</a>
</g>
</g>
<!-- Node2 -->
<g id="node2" class="node">
<title>Node2</title>
<g id="a_node2"><a xlink:href="classStruktury_1_1PlikCSV.html#af927acf502973c4c1abb99e1d1995ccb" target="_top" xlink:title=" ">
<polygon fill="white" stroke="#666666" points="373,-45.5 215,-45.5 215,-26.5 373,-26.5 373,-45.5"/>
<text text-anchor="middle" x="294" y="-33.5" font-family="Helvetica,sans-Serif" font-size="10.00">Struktury.PlikCSV.WczytajDane</text>
</a>
</g>
</g>
<!-- Node1&#45;&gt;Node2 -->
<g id="edge1" class="edge">
<title>Node1&#45;&gt;Node2</title>
<path fill="none" stroke="#63b8ff" d="M398.64,-36C390.22,-36 381.62,-36 373.16,-36"/>
<polygon fill="#63b8ff" stroke="#63b8ff" points="398.81,-39.5 408.81,-36 398.8,-32.5 398.81,-39.5"/>
</g>
<!-- Node3 -->
<g id="node3" class="node">
<title>Node3</title>
<g id="a_node3"><a xlink:href="classporownania_1_1AnalizaPor_xC3_xB3wnawcza.html#a4fb7b99f4ed968c3c62c6fa132b19938" target="_top" xlink:title=" ">
<polygon fill="white" stroke="#666666" points="179,-67.5 0,-67.5 0,-48.5 179,-48.5 179,-67.5"/>
<text text-anchor="middle" x="89.5" y="-55.5" font-family="Helvetica,sans-Serif" font-size="10.00">porownania.AnalizaPorównawcza.run</text>
</a>
</g>
</g>
<!-- Node2&#45;&gt;Node3 -->
<g id="edge2" class="edge">
<title>Node2&#45;&gt;Node3</title>
<path fill="none" stroke="#63b8ff" d="M205.04,-45.56C196.15,-46.52 187.13,-47.5 178.24,-48.47"/>
<polygon fill="#63b8ff" stroke="#63b8ff" points="205.43,-49.03 215,-44.47 204.68,-42.07 205.43,-49.03"/>
</g>
<!-- Node4 -->
<g id="node4" class="node">
<title>Node4</title>
<g id="a_node4"><a xlink:href="classporownania_1_1WalidacjaPlik_xC3_xB3wCSV.html#a06f04fa5de0447a788775285f24793d1" target="_top" xlink:title=" ">
<polygon fill="white" stroke="#666666" points="159.5,-30 19.5,-30 19.5,0 159.5,0 159.5,-30"/>
<text text-anchor="start" x="27.5" y="-18" font-family="Helvetica,sans-Serif" font-size="10.00">porownania.WalidacjaPlików</text>
<text text-anchor="middle" x="89.5" y="-7" font-family="Helvetica,sans-Serif" font-size="10.00">CSV.run</text>
</a>
</g>
</g>
<!-- Node2&#45;&gt;Node4 -->
<g id="edge3" class="edge">
<title>Node2&#45;&gt;Node4</title>
<path fill="none" stroke="#63b8ff" d="M204.62,-26.84C189.53,-25.27 174.04,-23.66 159.54,-22.16"/>
<polygon fill="#63b8ff" stroke="#63b8ff" points="204.69,-30.36 215,-27.91 205.41,-23.4 204.69,-30.36"/>
</g>
</g>
</svg>
