<?xml version="1.0" encoding="UTF-8" standalone="no"?>
<!DOCTYPE svg PUBLIC "-//W3C//DTD SVG 1.1//EN"
 "http://www.w3.org/Graphics/SVG/1.1/DTD/svg11.dtd">
<!-- Generated by graphviz version 2.49.3 (0)
 -->
<!-- Title: Motywy.LiczeniePrzedziałówWątek.getIndeksPoczątkowy Pages: 1 -->
<svg width="689pt" height="60pt"
 viewBox="0.00 0.00 689.00 60.00" xmlns="http://www.w3.org/2000/svg" xmlns:xlink="http://www.w3.org/1999/xlink">
<g id="graph0" class="graph" transform="scale(1 1) rotate(0) translate(4 56)">
<title>Motywy.LiczeniePrzedziałówWątek.getIndeksPoczątkowy</title>
<!-- Node1 -->
<g id="node1" class="node">
<title>Node1</title>
<g id="a_node1"><a xlink:title=" ">
<polygon fill="#999999" stroke="#666666" points="681,-30 537,-30 537,0 681,0 681,-30"/>
<text text-anchor="start" x="545" y="-18" font-family="Helvetica,sans-Serif" font-size="10.00">Motywy.LiczeniePrzedziałów</text>
<text text-anchor="middle" x="609" y="-7" font-family="Helvetica,sans-Serif" font-size="10.00">Wątek.getIndeksPoczątkowy</text>
</a>
</g>
</g>
<!-- Node2 -->
<g id="node2" class="node">
<title>Node2</title>
<g id="a_node2"><a xlink:href="classMotywy_1_1LiczeniePrzedzia_xC5_x82_xC3_xB3wW_xC4_x85tek.html#a9e4d30fe869f96fd4d4e355e758e731d" target="_top" xlink:title=" ">
<polygon fill="white" stroke="#666666" points="501,-52 358,-52 358,-22 501,-22 501,-52"/>
<text text-anchor="start" x="366" y="-40" font-family="Helvetica,sans-Serif" font-size="10.00">Motywy.LiczeniePrzedziałów</text>
<text text-anchor="middle" x="429.5" y="-29" font-family="Helvetica,sans-Serif" font-size="10.00">Wątek.getIndeksKońcowy</text>
</a>
</g>
</g>
<!-- Node1&#45;&gt;Node2 -->
<g id="edge1" class="edge">
<title>Node1&#45;&gt;Node2</title>
<path fill="none" stroke="#63b8ff" d="M526.82,-25.06C518.23,-26.13 509.56,-27.2 501.11,-28.25"/>
<polygon fill="#63b8ff" stroke="#63b8ff" points="527.33,-28.53 536.83,-23.82 526.47,-21.58 527.33,-28.53"/>
</g>
<!-- Node3 -->
<g id="node3" class="node">
<title>Node3</title>
<g id="a_node3"><a xlink:href="classMotywy_1_1Fragmenty.html#ae37d302041ec467552554a8c838a42c4" target="_top" xlink:title=" ">
<polygon fill="white" stroke="#666666" points="322,-30 188,-30 188,0 322,0 322,-30"/>
<text text-anchor="start" x="196" y="-18" font-family="Helvetica,sans-Serif" font-size="10.00">Motywy.Fragmenty.Utwórz</text>
<text text-anchor="middle" x="255" y="-7" font-family="Helvetica,sans-Serif" font-size="10.00">ListęWątkowo</text>
</a>
</g>
</g>
<!-- Node1&#45;&gt;Node3 -->
<g id="edge4" class="edge">
<title>Node1&#45;&gt;Node3</title>
<path fill="none" stroke="#63b8ff" d="M526.75,-13.32C518.06,-13.19 509.35,-13.08 501,-13 437.45,-12.41 421.55,-12.38 358,-13 346.4,-13.11 334.06,-13.3 322.11,-13.51"/>
<polygon fill="#63b8ff" stroke="#63b8ff" points="526.87,-16.82 536.92,-13.49 526.98,-9.83 526.87,-16.82"/>
</g>
<!-- Node2&#45;&gt;Node3 -->
<g id="edge2" class="edge">
<title>Node2&#45;&gt;Node3</title>
<path fill="none" stroke="#63b8ff" d="M347.79,-26.71C339.19,-25.61 330.51,-24.5 322.11,-23.43"/>
<polygon fill="#63b8ff" stroke="#63b8ff" points="347.48,-30.19 357.84,-27.99 348.36,-23.25 347.48,-30.19"/>
</g>
<!-- Node4 -->
<g id="node4" class="node">
<title>Node4</title>
<g id="a_node4"><a xlink:href="classMotywy_1_1ZnajdowanieMotyw_xC3_xB3w.html#acf3d94705bc30e2a361821e081fd43dc" target="_top" xlink:title=" ">
<polygon fill="white" stroke="#666666" points="152,-30 0,-30 0,0 152,0 152,-30"/>
<text text-anchor="start" x="8" y="-18" font-family="Helvetica,sans-Serif" font-size="10.00">Motywy.ZnajdowanieMotywów.</text>
<text text-anchor="middle" x="76" y="-7" font-family="Helvetica,sans-Serif" font-size="10.00">Szukaj</text>
</a>
</g>
</g>
<!-- Node3&#45;&gt;Node4 -->
<g id="edge3" class="edge">
<title>Node3&#45;&gt;Node4</title>
<path fill="none" stroke="#63b8ff" d="M177.59,-15C169.11,-15 160.47,-15 152.01,-15"/>
<polygon fill="#63b8ff" stroke="#63b8ff" points="177.84,-18.5 187.84,-15 177.84,-11.5 177.84,-18.5"/>
</g>
</g>
</svg>
