<?xml version="1.0" encoding="UTF-8" standalone="no"?>
<!DOCTYPE svg PUBLIC "-//W3C//DTD SVG 1.1//EN"
 "http://www.w3.org/Graphics/SVG/1.1/DTD/svg11.dtd">
<!-- Generated by graphviz version 2.49.3 (0)
 -->
<!-- Title: Motywy.ZnajdowanieMotywówCałość.UruchomPorównanie Pages: 1 -->
<svg width="944pt" height="86pt"
 viewBox="0.00 0.00 944.00 86.00" xmlns="http://www.w3.org/2000/svg" xmlns:xlink="http://www.w3.org/1999/xlink">
<g id="graph0" class="graph" transform="scale(1 1) rotate(0) translate(4 82)">
<title>Motywy.ZnajdowanieMotywówCałość.UruchomPorównanie</title>
<!-- Node1 -->
<g id="node1" class="node">
<title>Node1</title>
<g id="a_node1"><a xlink:title=" ">
<polygon fill="#999999" stroke="#666666" points="149,-54 0,-54 0,-24 149,-24 149,-54"/>
<text text-anchor="start" x="8" y="-42" font-family="Helvetica,sans-Serif" font-size="10.00">Motywy.ZnajdowanieMotywów</text>
<text text-anchor="middle" x="74.5" y="-31" font-family="Helvetica,sans-Serif" font-size="10.00">Całość.UruchomPorównanie</text>
</a>
</g>
</g>
<!-- Node2 -->
<g id="node2" class="node">
<title>Node2</title>
<g id="a_node2"><a xlink:href="classMotywy_1_1Fragmenty.html#aa880822eb5893336364e80fb3485e953" target="_top" xlink:title=" ">
<polygon fill="white" stroke="#666666" points="322,-78 185,-78 185,-48 322,-48 322,-78"/>
<text text-anchor="start" x="193" y="-66" font-family="Helvetica,sans-Serif" font-size="10.00">Motywy.Fragmenty.getPary</text>
<text text-anchor="middle" x="253.5" y="-55" font-family="Helvetica,sans-Serif" font-size="10.00">Motywów</text>
</a>
</g>
</g>
<!-- Node1&#45;&gt;Node2 -->
<g id="edge1" class="edge">
<title>Node1&#45;&gt;Node2</title>
<path fill="none" stroke="#63b8ff" d="M149.03,-48.97C157.56,-50.13 166.28,-51.31 174.87,-52.47"/>
<polygon fill="#63b8ff" stroke="#63b8ff" points="174.49,-55.95 184.87,-53.83 175.43,-49.02 174.49,-55.95"/>
</g>
<!-- Node3 -->
<g id="node3" class="node">
<title>Node3</title>
<g id="a_node3"><a xlink:href="classMotywy_1_1Fragmenty.html#a850694999d9856c66bdcd8ed2918dda5" target="_top" xlink:title=" ">
<polygon fill="white" stroke="#666666" points="320.5,-30 186.5,-30 186.5,0 320.5,0 320.5,-30"/>
<text text-anchor="start" x="194.5" y="-18" font-family="Helvetica,sans-Serif" font-size="10.00">Motywy.Fragmenty.Utwórz</text>
<text text-anchor="middle" x="253.5" y="-7" font-family="Helvetica,sans-Serif" font-size="10.00">Listę</text>
</a>
</g>
</g>
<!-- Node1&#45;&gt;Node3 -->
<g id="edge2" class="edge">
<title>Node1&#45;&gt;Node3</title>
<path fill="none" stroke="#63b8ff" d="M149.03,-29.03C158,-27.81 167.18,-26.57 176.19,-25.35"/>
<polygon fill="#63b8ff" stroke="#63b8ff" points="176.83,-28.79 186.27,-23.98 175.89,-21.86 176.83,-28.79"/>
</g>
<!-- Node4 -->
<g id="node4" class="node">
<title>Node4</title>
<g id="a_node4"><a xlink:href="classMotywy_1_1ParaMotyw_xC3_xB3w.html#ad6a71562154940909746bf6588b6b84e" target="_top" xlink:title=" ">
<polygon fill="white" stroke="#666666" points="525,-24.5 358,-24.5 358,-5.5 525,-5.5 525,-24.5"/>
<text text-anchor="middle" x="441.5" y="-12.5" font-family="Helvetica,sans-Serif" font-size="10.00">Motywy.ParaMotywów.getRóżnicę</text>
</a>
</g>
</g>
<!-- Node3&#45;&gt;Node4 -->
<g id="edge3" class="edge">
<title>Node3&#45;&gt;Node4</title>
<path fill="none" stroke="#63b8ff" d="M320.6,-15C329.32,-15 338.4,-15 347.47,-15"/>
<polygon fill="#63b8ff" stroke="#63b8ff" points="347.69,-18.5 357.69,-15 347.69,-11.5 347.69,-18.5"/>
</g>
<!-- Node5 -->
<g id="node5" class="node">
<title>Node5</title>
<g id="a_node5"><a xlink:href="classMotywy_1_1Motyw.html#a1bf7b0581400d564daa45e9cba7987f2" target="_top" xlink:title=" ">
<polygon fill="white" stroke="#666666" points="749,-24.5 561,-24.5 561,-5.5 749,-5.5 749,-24.5"/>
<text text-anchor="middle" x="655" y="-12.5" font-family="Helvetica,sans-Serif" font-size="10.00">Motywy.Motyw.CzyMożnaPorównywać</text>
</a>
</g>
</g>
<!-- Node4&#45;&gt;Node5 -->
<g id="edge4" class="edge">
<title>Node4&#45;&gt;Node5</title>
<path fill="none" stroke="#63b8ff" d="M525.18,-15C533.59,-15 542.21,-15 550.8,-15"/>
<polygon fill="#63b8ff" stroke="#63b8ff" points="550.86,-18.5 560.86,-15 550.86,-11.5 550.86,-18.5"/>
</g>
<!-- Node6 -->
<g id="node6" class="node">
<title>Node6</title>
<g id="a_node6"><a xlink:href="classStruktury_1_1ArkuszZdarzenie.html#add9f4b9b1ae80d624e5f480cda1574ee" target="_top" xlink:title=" ">
<polygon fill="white" stroke="#666666" points="936,-30 785,-30 785,0 936,0 936,-30"/>
<text text-anchor="start" x="793" y="-18" font-family="Helvetica,sans-Serif" font-size="10.00">Struktury.ArkuszZdarzenie.get</text>
<text text-anchor="middle" x="860.5" y="-7" font-family="Helvetica,sans-Serif" font-size="10.00">NumerGłosu</text>
</a>
</g>
</g>
<!-- Node5&#45;&gt;Node6 -->
<g id="edge5" class="edge">
<title>Node5&#45;&gt;Node6</title>
<path fill="none" stroke="#63b8ff" d="M749.11,-15C757.6,-15 766.16,-15 774.56,-15"/>
<polygon fill="#63b8ff" stroke="#63b8ff" points="774.72,-18.5 784.72,-15 774.72,-11.5 774.72,-18.5"/>
</g>
</g>
</svg>
