<?xml version="1.0" encoding="UTF-8" standalone="no"?>
<!DOCTYPE svg PUBLIC "-//W3C//DTD SVG 1.1//EN"
 "http://www.w3.org/Graphics/SVG/1.1/DTD/svg11.dtd">
<!-- Generated by graphviz version 2.49.3 (0)
 -->
<!-- Title: porownania.WalidacjaPlikówCSV.run Pages: 1 -->
<svg width="1318pt" height="342pt"
 viewBox="0.00 0.00 1318.00 342.00" xmlns="http://www.w3.org/2000/svg" xmlns:xlink="http://www.w3.org/1999/xlink">
<g id="graph0" class="graph" transform="scale(1 1) rotate(0) translate(4 338)">
<title>porownania.WalidacjaPlikówCSV.run</title>
<!-- Node1 -->
<g id="node1" class="node">
<title>Node1</title>
<g id="a_node1"><a xlink:title=" ">
<polygon fill="#999999" stroke="#666666" points="140,-190 0,-190 0,-160 140,-160 140,-190"/>
<text text-anchor="start" x="8" y="-178" font-family="Helvetica,sans-Serif" font-size="10.00">porownania.WalidacjaPlików</text>
<text text-anchor="middle" x="70" y="-167" font-family="Helvetica,sans-Serif" font-size="10.00">CSV.run</text>
</a>
</g>
</g>
<!-- Node2 -->
<g id="node2" class="node">
<title>Node2</title>
<g id="a_node2"><a xlink:href="classporownania_1_1WalidacjaPlik_xC3_xB3wCSV.html#a97f858ca18636d9afd56d3e135eb4e9a" target="_top" xlink:title=" ">
<polygon fill="white" stroke="#666666" points="325,-334 185,-334 185,-304 325,-304 325,-334"/>
<text text-anchor="start" x="193" y="-322" font-family="Helvetica,sans-Serif" font-size="10.00">porownania.WalidacjaPlików</text>
<text text-anchor="middle" x="255" y="-311" font-family="Helvetica,sans-Serif" font-size="10.00">CSV.GenerujOpisWalidacji</text>
</a>
</g>
</g>
<!-- Node1&#45;&gt;Node2 -->
<g id="edge1" class="edge">
<title>Node1&#45;&gt;Node2</title>
<path fill="none" stroke="#63b8ff" d="M80.31,-190.32C96.56,-215.79 132.56,-266.84 176,-295 178.45,-296.59 181.02,-298.08 183.66,-299.47"/>
<polygon fill="#63b8ff" stroke="#63b8ff" points="182.35,-302.73 192.88,-303.86 185.35,-296.41 182.35,-302.73"/>
</g>
<!-- Node3 -->
<g id="node3" class="node">
<title>Node3</title>
<g id="a_node3"><a xlink:href="classStruktury_1_1Interpreter.html#a03dcbfd5f2fa3dd4585d86838fa6e3d4" target="_top" xlink:title=" ">
<polygon fill="white" stroke="#666666" points="315.5,-286 194.5,-286 194.5,-256 315.5,-256 315.5,-286"/>
<text text-anchor="start" x="202.5" y="-274" font-family="Helvetica,sans-Serif" font-size="10.00">Struktury.Interpreter.get</text>
<text text-anchor="middle" x="255" y="-263" font-family="Helvetica,sans-Serif" font-size="10.00">ListęBłędów</text>
</a>
</g>
</g>
<!-- Node1&#45;&gt;Node3 -->
<g id="edge2" class="edge">
<title>Node1&#45;&gt;Node3</title>
<path fill="none" stroke="#63b8ff" d="M89.29,-190.11C109.45,-206.12 143.36,-231.24 176,-247 179.98,-248.92 184.15,-250.73 188.41,-252.43"/>
<polygon fill="#63b8ff" stroke="#63b8ff" points="187.22,-255.73 197.82,-255.97 189.69,-249.17 187.22,-255.73"/>
</g>
<!-- Node4 -->
<g id="node4" class="node">
<title>Node4</title>
<g id="a_node4"><a xlink:href="classStruktury_1_1PlikCSV.html#aba7d68cdb2d1c48aa043540c5d784e15" target="_top" xlink:title=" ">
<polygon fill="white" stroke="#666666" points="321,-238 189,-238 189,-208 321,-208 321,-238"/>
<text text-anchor="start" x="197" y="-226" font-family="Helvetica,sans-Serif" font-size="10.00">Struktury.PlikCSV.getOpis</text>
<text text-anchor="middle" x="255" y="-215" font-family="Helvetica,sans-Serif" font-size="10.00">StanuPliku</text>
</a>
</g>
</g>
<!-- Node1&#45;&gt;Node4 -->
<g id="edge3" class="edge">
<title>Node1&#45;&gt;Node4</title>
<path fill="none" stroke="#63b8ff" d="M128.4,-190.06C146.97,-194.93 167.72,-200.37 186.92,-205.41"/>
<polygon fill="#63b8ff" stroke="#63b8ff" points="186.24,-208.85 196.8,-208 188.02,-202.07 186.24,-208.85"/>
</g>
<!-- Node5 -->
<g id="node5" class="node">
<title>Node5</title>
<g id="a_node5"><a xlink:href="classporownania_1_1WalidacjaPlik_xC3_xB3wCSV.html#a14cf12c9a8f460eb715d4e9798dedafc" target="_top" xlink:title=" ">
<polygon fill="white" stroke="#666666" points="325,-190 185,-190 185,-160 325,-160 325,-190"/>
<text text-anchor="start" x="193" y="-178" font-family="Helvetica,sans-Serif" font-size="10.00">porownania.WalidacjaPlików</text>
<text text-anchor="middle" x="255" y="-167" font-family="Helvetica,sans-Serif" font-size="10.00">CSV.getProcent</text>
</a>
</g>
</g>
<!-- Node1&#45;&gt;Node5 -->
<g id="edge4" class="edge">
<title>Node1&#45;&gt;Node5</title>
<path fill="none" stroke="#63b8ff" d="M140.18,-175C151.46,-175 163.21,-175 174.7,-175"/>
<polygon fill="#63b8ff" stroke="#63b8ff" points="174.72,-178.5 184.72,-175 174.72,-171.5 174.72,-178.5"/>
</g>
<!-- Node6 -->
<g id="node6" class="node">
<title>Node6</title>
<g id="a_node6"><a xlink:href="classStruktury_1_1PlikCSV.html#a2d38bbdce3c37712a847d8782b9a275f" target="_top" xlink:title=" ">
<polygon fill="white" stroke="#666666" points="321,-142 189,-142 189,-112 321,-112 321,-142"/>
<text text-anchor="start" x="197" y="-130" font-family="Helvetica,sans-Serif" font-size="10.00">Struktury.PlikCSV.getStan</text>
<text text-anchor="middle" x="255" y="-119" font-family="Helvetica,sans-Serif" font-size="10.00">Pliku</text>
</a>
</g>
</g>
<!-- Node1&#45;&gt;Node6 -->
<g id="edge5" class="edge">
<title>Node1&#45;&gt;Node6</title>
<path fill="none" stroke="#63b8ff" d="M128.4,-159.94C146.97,-155.07 167.72,-149.63 186.92,-144.59"/>
<polygon fill="#63b8ff" stroke="#63b8ff" points="188.02,-147.93 196.8,-142 186.24,-141.15 188.02,-147.93"/>
</g>
<!-- Node7 -->
<g id="node7" class="node">
<title>Node7</title>
<g id="a_node7"><a xlink:href="classStruktury_1_1PlikCSV.html#af927acf502973c4c1abb99e1d1995ccb" target="_top" xlink:title=" ">
<polygon fill="white" stroke="#666666" points="334,-93.5 176,-93.5 176,-74.5 334,-74.5 334,-93.5"/>
<text text-anchor="middle" x="255" y="-81.5" font-family="Helvetica,sans-Serif" font-size="10.00">Struktury.PlikCSV.WczytajDane</text>
</a>
</g>
</g>
<!-- Node1&#45;&gt;Node7 -->
<g id="edge6" class="edge">
<title>Node1&#45;&gt;Node7</title>
<path fill="none" stroke="#63b8ff" d="M88.75,-159.81C108.71,-143.48 142.7,-117.87 176,-103 181.46,-100.56 187.29,-98.41 193.2,-96.51"/>
<polygon fill="#63b8ff" stroke="#63b8ff" points="194.58,-99.75 203.17,-93.55 192.59,-93.04 194.58,-99.75"/>
</g>
<!-- Node17 -->
<g id="node17" class="node">
<title>Node17</title>
<g id="a_node17"><a xlink:href="classporownania_1_1WalidacjaPlik_xC3_xB3wCSV.html#a8b4be03b632ca1f032e85c29b20328fc" target="_top" xlink:title=" ">
<polygon fill="white" stroke="#666666" points="325,-54 185,-54 185,-24 325,-24 325,-54"/>
<text text-anchor="start" x="193" y="-42" font-family="Helvetica,sans-Serif" font-size="10.00">porownania.WalidacjaPlików</text>
<text text-anchor="middle" x="255" y="-31" font-family="Helvetica,sans-Serif" font-size="10.00">CSV.ZapiszWyniki</text>
</a>
</g>
</g>
<!-- Node1&#45;&gt;Node17 -->
<g id="edge16" class="edge">
<title>Node1&#45;&gt;Node17</title>
<path fill="none" stroke="#63b8ff" d="M81.86,-159.78C99.24,-136.47 135.48,-91.89 176,-66 180.41,-63.18 185.16,-60.61 190.05,-58.29"/>
<polygon fill="#63b8ff" stroke="#63b8ff" points="191.83,-61.33 199.59,-54.1 189.02,-54.91 191.83,-61.33"/>
</g>
<!-- Node8 -->
<g id="node8" class="node">
<title>Node8</title>
<g id="a_node8"><a xlink:href="classStruktury_1_1PlikCSV.html#aede544e061c6a720191a9f5da1127f7d" target="_top" xlink:title=" ">
<polygon fill="white" stroke="#666666" points="509,-164 378,-164 378,-134 509,-134 509,-164"/>
<text text-anchor="start" x="386" y="-152" font-family="Helvetica,sans-Serif" font-size="10.00">Struktury.PlikCSV.Podział</text>
<text text-anchor="middle" x="443.5" y="-141" font-family="Helvetica,sans-Serif" font-size="10.00">Linii</text>
</a>
</g>
</g>
<!-- Node7&#45;&gt;Node8 -->
<g id="edge7" class="edge">
<title>Node7&#45;&gt;Node8</title>
<path fill="none" stroke="#63b8ff" d="M305.42,-93.59C315.08,-96.14 324.99,-99.26 334,-103 351.32,-110.19 352.99,-117.11 370,-125 374.03,-126.87 378.25,-128.66 382.54,-130.36"/>
<polygon fill="#63b8ff" stroke="#63b8ff" points="381.41,-133.68 392,-133.94 383.88,-127.13 381.41,-133.68"/>
</g>
<!-- Node9 -->
<g id="node9" class="node">
<title>Node9</title>
<g id="a_node9"><a xlink:href="classStruktury_1_1Arkusz.html#a3747bcb1e5e0c4a73035e9578b6bf6d7" target="_top" xlink:title=" ">
<polygon fill="white" stroke="#666666" points="517,-115.5 370,-115.5 370,-96.5 517,-96.5 517,-115.5"/>
<text text-anchor="middle" x="443.5" y="-103.5" font-family="Helvetica,sans-Serif" font-size="10.00">Struktury.Arkusz.setKomórkę</text>
</a>
</g>
</g>
<!-- Node7&#45;&gt;Node9 -->
<g id="edge8" class="edge">
<title>Node7&#45;&gt;Node9</title>
<path fill="none" stroke="#63b8ff" d="M334.01,-93.2C342.55,-94.21 351.26,-95.24 359.85,-96.25"/>
<polygon fill="#63b8ff" stroke="#63b8ff" points="359.52,-99.74 369.86,-97.43 360.34,-92.78 359.52,-99.74"/>
</g>
<!-- Node11 -->
<g id="node11" class="node">
<title>Node11</title>
<g id="a_node11"><a xlink:href="classStruktury_1_1PlikCSV.html#ad822fb4b09d4b763cefc7b9e59833182" target="_top" xlink:title=" ">
<polygon fill="white" stroke="#666666" points="510.5,-78 376.5,-78 376.5,-48 510.5,-48 510.5,-78"/>
<text text-anchor="start" x="384.5" y="-66" font-family="Helvetica,sans-Serif" font-size="10.00">Struktury.PlikCSV.Wczytaj</text>
<text text-anchor="middle" x="443.5" y="-55" font-family="Helvetica,sans-Serif" font-size="10.00">CałyPLik</text>
</a>
</g>
</g>
<!-- Node7&#45;&gt;Node11 -->
<g id="edge10" class="edge">
<title>Node7&#45;&gt;Node11</title>
<path fill="none" stroke="#63b8ff" d="M334.01,-75.22C344.68,-74.01 355.62,-72.78 366.25,-71.59"/>
<polygon fill="#63b8ff" stroke="#63b8ff" points="366.79,-75.05 376.33,-70.45 366,-68.09 366.79,-75.05"/>
</g>
<!-- Node10 -->
<g id="node10" class="node">
<title>Node10</title>
<g id="a_node10"><a xlink:href="classStruktury_1_1Kom_xC3_xB3rkaArkusza.html#a9e8a46a4fc47a0e2863c8f05528825a2" target="_top" xlink:title=" ">
<polygon fill="white" stroke="#666666" points="721,-126 569,-126 569,-96 721,-96 721,-126"/>
<text text-anchor="start" x="577" y="-114" font-family="Helvetica,sans-Serif" font-size="10.00">Struktury.KomórkaArkusza.set</text>
<text text-anchor="middle" x="645" y="-103" font-family="Helvetica,sans-Serif" font-size="10.00">Wartość</text>
</a>
</g>
</g>
<!-- Node9&#45;&gt;Node10 -->
<g id="edge9" class="edge">
<title>Node9&#45;&gt;Node10</title>
<path fill="none" stroke="#63b8ff" d="M517.09,-107.82C530.63,-108.16 544.89,-108.52 558.76,-108.86"/>
<polygon fill="#63b8ff" stroke="#63b8ff" points="558.7,-112.36 568.78,-109.11 558.87,-105.37 558.7,-112.36"/>
</g>
<!-- Node12 -->
<g id="node12" class="node">
<title>Node12</title>
<g id="a_node12"><a xlink:href="classStruktury_1_1PlikCSV.html#a8997e76c5a473f782c5978ad6ffeeeba" target="_top" xlink:title=" ">
<polygon fill="white" stroke="#666666" points="715,-78 575,-78 575,-48 715,-48 715,-78"/>
<text text-anchor="start" x="583" y="-66" font-family="Helvetica,sans-Serif" font-size="10.00">Struktury.PlikCSV.getKod</text>
<text text-anchor="middle" x="645" y="-55" font-family="Helvetica,sans-Serif" font-size="10.00">TekstowyKodowaniaZnaków</text>
</a>
</g>
</g>
<!-- Node11&#45;&gt;Node12 -->
<g id="edge11" class="edge">
<title>Node11&#45;&gt;Node12</title>
<path fill="none" stroke="#63b8ff" d="M510.65,-63C527.99,-63 546.86,-63 564.8,-63"/>
<polygon fill="#63b8ff" stroke="#63b8ff" points="564.95,-66.5 574.95,-63 564.95,-59.5 564.95,-66.5"/>
</g>
<!-- Node13 -->
<g id="node13" class="node">
<title>Node13</title>
<g id="a_node13"><a xlink:href="classStruktury_1_1UsuwanieBOM.html#a61ea81daa96a505746289e335f32cbc3" target="_top" xlink:title=" ">
<polygon fill="white" stroke="#666666" points="737,-29.5 553,-29.5 553,-10.5 737,-10.5 737,-29.5"/>
<text text-anchor="middle" x="645" y="-17.5" font-family="Helvetica,sans-Serif" font-size="10.00">Struktury.UsuwanieBOM.KorektaBOM</text>
</a>
</g>
</g>
<!-- Node11&#45;&gt;Node13 -->
<g id="edge12" class="edge">
<title>Node11&#45;&gt;Node13</title>
<path fill="none" stroke="#63b8ff" d="M510.74,-48.22C524.69,-45.14 539.33,-41.94 553,-39 564.23,-36.59 576.24,-34.05 587.74,-31.64"/>
<polygon fill="#63b8ff" stroke="#63b8ff" points="588.61,-35.03 597.68,-29.56 587.18,-28.18 588.61,-35.03"/>
</g>
<!-- Node14 -->
<g id="node14" class="node">
<title>Node14</title>
<g id="a_node14"><a xlink:href="classStruktury_1_1UsuwanieBOM.html#a0770cffdd0857a04a472c6489e890eeb" target="_top" xlink:title=" ">
<polygon fill="white" stroke="#666666" points="946,-29.5 773,-29.5 773,-10.5 946,-10.5 946,-29.5"/>
<text text-anchor="middle" x="859.5" y="-17.5" font-family="Helvetica,sans-Serif" font-size="10.00">Struktury.UsuwanieBOM.UsuńBOM</text>
</a>
</g>
</g>
<!-- Node13&#45;&gt;Node14 -->
<g id="edge13" class="edge">
<title>Node13&#45;&gt;Node14</title>
<path fill="none" stroke="#63b8ff" d="M737.04,-20C745.45,-20 753.99,-20 762.44,-20"/>
<polygon fill="#63b8ff" stroke="#63b8ff" points="762.7,-23.5 772.7,-20 762.7,-16.5 762.7,-23.5"/>
</g>
<!-- Node15 -->
<g id="node15" class="node">
<title>Node15</title>
<g id="a_node15"><a xlink:href="classStruktury_1_1UsuwanieBOM.html#aef47abe35e6f2a6cd7da2b65ee08e993" target="_top" xlink:title=" ">
<polygon fill="white" stroke="#666666" points="1128,-35 982,-35 982,-5 1128,-5 1128,-35"/>
<text text-anchor="start" x="990" y="-23" font-family="Helvetica,sans-Serif" font-size="10.00">Struktury.UsuwanieBOM.Czy</text>
<text text-anchor="middle" x="1055" y="-12" font-family="Helvetica,sans-Serif" font-size="10.00">JestJakikolwiekBOM</text>
</a>
</g>
</g>
<!-- Node14&#45;&gt;Node15 -->
<g id="edge14" class="edge">
<title>Node14&#45;&gt;Node15</title>
<path fill="none" stroke="#63b8ff" d="M946.22,-20C954.7,-20 963.29,-20 971.74,-20"/>
<polygon fill="#63b8ff" stroke="#63b8ff" points="971.94,-23.5 981.94,-20 971.94,-16.5 971.94,-23.5"/>
</g>
<!-- Node16 -->
<g id="node16" class="node">
<title>Node16</title>
<g id="a_node16"><a xlink:href="classStruktury_1_1UsuwanieBOM.html#aef702bd0b80f518125bf384dfad72ad5" target="_top" xlink:title=" ">
<polygon fill="white" stroke="#666666" points="1310,-35 1164,-35 1164,-5 1310,-5 1310,-35"/>
<text text-anchor="start" x="1172" y="-23" font-family="Helvetica,sans-Serif" font-size="10.00">Struktury.UsuwanieBOM.Czy</text>
<text text-anchor="middle" x="1237" y="-12" font-family="Helvetica,sans-Serif" font-size="10.00">JestBOM</text>
</a>
</g>
</g>
<!-- Node15&#45;&gt;Node16 -->
<g id="edge15" class="edge">
<title>Node15&#45;&gt;Node16</title>
<path fill="none" stroke="#63b8ff" d="M1128.18,-20C1136.52,-20 1145.08,-20 1153.54,-20"/>
<polygon fill="#63b8ff" stroke="#63b8ff" points="1153.81,-23.5 1163.81,-20 1153.81,-16.5 1153.81,-23.5"/>
</g>
<!-- Node18 -->
<g id="node18" class="node">
<title>Node18</title>
<g id="a_node18"><a xlink:href="classporownania_1_1WalidacjaPlik_xC3_xB3wCSV.html#ad812ef71b9e6e96509e8f09aa17e6198" target="_top" xlink:title=" ">
<polygon fill="white" stroke="#666666" points="513.5,-30 373.5,-30 373.5,0 513.5,0 513.5,-30"/>
<text text-anchor="start" x="381.5" y="-18" font-family="Helvetica,sans-Serif" font-size="10.00">porownania.WalidacjaPlików</text>
<text text-anchor="middle" x="443.5" y="-7" font-family="Helvetica,sans-Serif" font-size="10.00">CSV.UtwórzKomunikat</text>
</a>
</g>
</g>
<!-- Node17&#45;&gt;Node18 -->
<g id="edge17" class="edge">
<title>Node17&#45;&gt;Node18</title>
<path fill="none" stroke="#63b8ff" d="M325.18,-30.1C337.61,-28.5 350.66,-26.82 363.35,-25.19"/>
<polygon fill="#63b8ff" stroke="#63b8ff" points="363.96,-28.64 373.43,-23.89 363.07,-21.69 363.96,-28.64"/>
</g>
</g>
</svg>
