<?xml version="1.0" encoding="UTF-8" standalone="no"?>
<!DOCTYPE svg PUBLIC "-//W3C//DTD SVG 1.1//EN"
 "http://www.w3.org/Graphics/SVG/1.1/DTD/svg11.dtd">
<!-- Generated by graphviz version 2.49.3 (0)
 -->
<!-- Title: Motywy.Fragmenty.getOpisKomórkiArkusza Pages: 1 -->
<svg width="692pt" height="86pt"
 viewBox="0.00 0.00 692.00 86.00" xmlns="http://www.w3.org/2000/svg" xmlns:xlink="http://www.w3.org/1999/xlink">
<g id="graph0" class="graph" transform="scale(1 1) rotate(0) translate(4 82)">
<title>Motywy.Fragmenty.getOpisKomórkiArkusza</title>
<!-- Node1 -->
<g id="node1" class="node">
<title>Node1</title>
<g id="a_node1"><a xlink:title=" ">
<polygon fill="#999999" stroke="#666666" points="684,-54 548,-54 548,-24 684,-24 684,-54"/>
<text text-anchor="start" x="556" y="-42" font-family="Helvetica,sans-Serif" font-size="10.00">Motywy.Fragmenty.getOpis</text>
<text text-anchor="middle" x="616" y="-31" font-family="Helvetica,sans-Serif" font-size="10.00">KomórkiArkusza</text>
</a>
</g>
</g>
<!-- Node2 -->
<g id="node2" class="node">
<title>Node2</title>
<g id="a_node2"><a xlink:href="classMotywy_1_1Fragmenty.html#a0980cac3e787436873aefd34d196428f" target="_top" xlink:title=" ">
<polygon fill="white" stroke="#666666" points="512,-78 348,-78 348,-48 512,-48 512,-78"/>
<text text-anchor="start" x="356" y="-66" font-family="Helvetica,sans-Serif" font-size="10.00">Motywy.Fragmenty.TwórzIndeksy</text>
<text text-anchor="middle" x="430" y="-55" font-family="Helvetica,sans-Serif" font-size="10.00">Liczbowe</text>
</a>
</g>
</g>
<!-- Node1&#45;&gt;Node2 -->
<g id="edge1" class="edge">
<title>Node1&#45;&gt;Node2</title>
<path fill="none" stroke="#63b8ff" d="M537.61,-49.09C529.18,-50.19 520.58,-51.32 512.1,-52.42"/>
<polygon fill="#63b8ff" stroke="#63b8ff" points="538.33,-52.53 547.79,-47.77 537.42,-45.59 538.33,-52.53"/>
</g>
<!-- Node5 -->
<g id="node5" class="node">
<title>Node5</title>
<g id="a_node5"><a xlink:href="classMotywy_1_1Fragmenty.html#a1d32b57c48e3938e88c61779d38cb519" target="_top" xlink:title=" ">
<polygon fill="white" stroke="#666666" points="499.5,-30 360.5,-30 360.5,0 499.5,0 499.5,-30"/>
<text text-anchor="start" x="368.5" y="-18" font-family="Helvetica,sans-Serif" font-size="10.00">Motywy.Fragmenty.Wypełnij</text>
<text text-anchor="middle" x="430" y="-7" font-family="Helvetica,sans-Serif" font-size="10.00">TablicęSkróconą</text>
</a>
</g>
</g>
<!-- Node1&#45;&gt;Node5 -->
<g id="edge4" class="edge">
<title>Node1&#45;&gt;Node5</title>
<path fill="none" stroke="#63b8ff" d="M537.73,-28.92C525.06,-27.27 512.01,-25.57 499.57,-23.94"/>
<polygon fill="#63b8ff" stroke="#63b8ff" points="537.42,-32.41 547.79,-30.23 538.33,-25.47 537.42,-32.41"/>
</g>
<!-- Node3 -->
<g id="node3" class="node">
<title>Node3</title>
<g id="a_node3"><a xlink:href="classMotywy_1_1Fragmenty.html#af142a18268a561dcafe100a07e2b1928" target="_top" xlink:title=" ">
<polygon fill="white" stroke="#666666" points="312,-54 178,-54 178,-24 312,-24 312,-54"/>
<text text-anchor="start" x="186" y="-42" font-family="Helvetica,sans-Serif" font-size="10.00">Motywy.Fragmenty.Utwórz</text>
<text text-anchor="middle" x="245" y="-31" font-family="Helvetica,sans-Serif" font-size="10.00">MacierzMotywów</text>
</a>
</g>
</g>
<!-- Node2&#45;&gt;Node3 -->
<g id="edge2" class="edge">
<title>Node2&#45;&gt;Node3</title>
<path fill="none" stroke="#63b8ff" d="M337.81,-51.04C329.17,-49.91 320.53,-48.77 312.19,-47.68"/>
<polygon fill="#63b8ff" stroke="#63b8ff" points="337.56,-54.54 347.93,-52.37 338.47,-47.6 337.56,-54.54"/>
</g>
<!-- Node4 -->
<g id="node4" class="node">
<title>Node4</title>
<g id="a_node4"><a xlink:href="classporownania_1_1Rezultat.html#abfab722f91bb304108e01333fdbf5cf3" target="_top" xlink:title=" ">
<polygon fill="white" stroke="#666666" points="142,-48.5 0,-48.5 0,-29.5 142,-29.5 142,-48.5"/>
<text text-anchor="middle" x="71" y="-36.5" font-family="Helvetica,sans-Serif" font-size="10.00">porownania.Rezultat.toString</text>
</a>
</g>
</g>
<!-- Node3&#45;&gt;Node4 -->
<g id="edge3" class="edge">
<title>Node3&#45;&gt;Node4</title>
<path fill="none" stroke="#63b8ff" d="M167.98,-39C159.37,-39 150.64,-39 142.11,-39"/>
<polygon fill="#63b8ff" stroke="#63b8ff" points="167.99,-42.5 177.99,-39 167.99,-35.5 167.99,-42.5"/>
</g>
<!-- Node5&#45;&gt;Node3 -->
<g id="edge5" class="edge">
<title>Node5&#45;&gt;Node3</title>
<path fill="none" stroke="#63b8ff" d="M350.21,-25.33C337.48,-27 324.41,-28.72 312.01,-30.34"/>
<polygon fill="#63b8ff" stroke="#63b8ff" points="350.88,-28.78 360.34,-24 349.97,-21.84 350.88,-28.78"/>
</g>
</g>
</svg>
