<?xml version="1.0" encoding="UTF-8" standalone="no"?>
<!DOCTYPE svg PUBLIC "-//W3C//DTD SVG 1.1//EN"
 "http://www.w3.org/Graphics/SVG/1.1/DTD/svg11.dtd">
<!-- Generated by graphviz version 2.49.3 (0)
 -->
<!-- Title: Graficzna hierarchia klas Pages: 1 -->
<svg width="268pt" height="150pt"
 viewBox="0.00 0.00 268.00 150.00" xmlns="http://www.w3.org/2000/svg" xmlns:xlink="http://www.w3.org/1999/xlink">
<g id="graph0" class="graph" transform="scale(1 1) rotate(0) translate(4 146)">
<title>Graficzna hierarchia klas</title>
<!-- Node0 -->
<g id="node1" class="node">
<title>Node0</title>
<g id="a_node1"><a xlink:title=" ">
<polygon fill="#e0e0e0" stroke="#999999" points="58,-83 0,-83 0,-64 58,-64 58,-83"/>
<text text-anchor="middle" x="29" y="-71" font-family="Helvetica,sans-Serif" font-size="10.00">Runnable</text>
</a>
</g>
</g>
<!-- Node1 -->
<g id="node2" class="node">
<title>Node1</title>
<g id="a_node2"><a xlink:href="classMotywy_1_1TworzenieParW_xC4_x85tkowe.html" target="_top" xlink:title=" ">
<polygon fill="white" stroke="#666666" points="253.5,-142 100.5,-142 100.5,-123 253.5,-123 253.5,-142"/>
<text text-anchor="middle" x="177" y="-130" font-family="Helvetica,sans-Serif" font-size="10.00">Motywy.TworzenieParWątkowe</text>
</a>
</g>
</g>
<!-- Node0&#45;&gt;Node1 -->
<g id="edge1" class="edge">
<title>Node0&#45;&gt;Node1</title>
<path fill="none" stroke="#63b8ff" d="M50.09,-89C62.21,-97.66 78.31,-107.99 94,-114.5 102.08,-117.85 110.87,-120.62 119.61,-122.89"/>
<polygon fill="#63b8ff" stroke="#63b8ff" points="52.15,-86.17 42.02,-83.06 48,-91.81 52.15,-86.17"/>
</g>
<!-- Node2 -->
<g id="node3" class="node">
<title>Node2</title>
<g id="a_node3"><a xlink:href="classporownania_1_1AnalizaPor_xC3_xB3wnawcza.html" target="_top" xlink:title=" ">
<polygon fill="white" stroke="#666666" points="258.5,-105 95.5,-105 95.5,-86 258.5,-86 258.5,-105"/>
<text text-anchor="middle" x="177" y="-93" font-family="Helvetica,sans-Serif" font-size="10.00">porownania.AnalizaPorównawcza</text>
</a>
</g>
</g>
<!-- Node0&#45;&gt;Node2 -->
<g id="edge2" class="edge">
<title>Node0&#45;&gt;Node2</title>
<path fill="none" stroke="#63b8ff" d="M68.15,-79.25C81.83,-81.31 97.64,-83.69 112.86,-85.99"/>
<polygon fill="#63b8ff" stroke="#63b8ff" points="68.56,-75.77 58.15,-77.74 67.52,-82.69 68.56,-75.77"/>
</g>
<!-- Node3 -->
<g id="node4" class="node">
<title>Node3</title>
<g id="a_node4"><a xlink:href="classporownania_1_1PokazywanieProcentaIteracji.html" target="_top" xlink:title=" ">
<polygon fill="white" stroke="#666666" points="260,-67.5 94,-67.5 94,-37.5 260,-37.5 260,-67.5"/>
<text text-anchor="start" x="102" y="-55.5" font-family="Helvetica,sans-Serif" font-size="10.00">porownania.PokazywanieProcenta</text>
<text text-anchor="middle" x="177" y="-44.5" font-family="Helvetica,sans-Serif" font-size="10.00">Iteracji</text>
</a>
</g>
</g>
<!-- Node0&#45;&gt;Node3 -->
<g id="edge3" class="edge">
<title>Node0&#45;&gt;Node3</title>
<path fill="none" stroke="#63b8ff" d="M68.2,-68C76.21,-66.85 84.94,-65.6 93.85,-64.32"/>
<polygon fill="#63b8ff" stroke="#63b8ff" points="67.55,-64.56 58.15,-69.45 68.55,-71.49 67.55,-64.56"/>
</g>
<!-- Node4 -->
<g id="node5" class="node">
<title>Node4</title>
<g id="a_node5"><a xlink:href="classporownania_1_1WalidacjaPlik_xC3_xB3wCSV.html" target="_top" xlink:title=" ">
<polygon fill="white" stroke="#666666" points="257,-19 97,-19 97,0 257,0 257,-19"/>
<text text-anchor="middle" x="177" y="-7" font-family="Helvetica,sans-Serif" font-size="10.00">porownania.WalidacjaPlikówCSV</text>
</a>
</g>
</g>
<!-- Node0&#45;&gt;Node4 -->
<g id="edge4" class="edge">
<title>Node0&#45;&gt;Node4</title>
<path fill="none" stroke="#63b8ff" d="M48.99,-57.2C61.13,-47.54 77.63,-35.81 94,-28.5 102.54,-24.68 111.93,-21.59 121.22,-19.09"/>
<polygon fill="#63b8ff" stroke="#63b8ff" points="46.49,-54.72 40.98,-63.76 50.93,-60.13 46.49,-54.72"/>
</g>
</g>
</svg>
