<?xml version="1.0" encoding="UTF-8" standalone="no"?>
<!DOCTYPE svg PUBLIC "-//W3C//DTD SVG 1.1//EN"
 "http://www.w3.org/Graphics/SVG/1.1/DTD/svg11.dtd">
<!-- Generated by graphviz version 2.49.3 (0)
 -->
<!-- Title: Graficzna hierarchia klas Pages: 1 -->
<svg width="229pt" height="64pt"
 viewBox="0.00 0.00 229.00 64.00" xmlns="http://www.w3.org/2000/svg" xmlns:xlink="http://www.w3.org/1999/xlink">
<g id="graph0" class="graph" transform="scale(1 1) rotate(0) translate(4 60)">
<title>Graficzna hierarchia klas</title>
<!-- Node0 -->
<g id="node1" class="node">
<title>Node0</title>
<g id="a_node1"><a xlink:title=" ">
<polygon fill="#e0e0e0" stroke="#999999" points="54,-37 0,-37 0,-18 54,-18 54,-37"/>
<text text-anchor="middle" x="27" y="-25" font-family="Helvetica,sans-Serif" font-size="10.00">FileFilter</text>
</a>
</g>
</g>
<!-- Node1 -->
<g id="node2" class="node">
<title>Node1</title>
<g id="a_node2"><a xlink:href="classporownania_1_1FiltrKatalog_xC3_xB3w.html" target="_top" xlink:title=" ">
<polygon fill="white" stroke="#666666" points="221,-56 90,-56 90,-37 221,-37 221,-56"/>
<text text-anchor="middle" x="155.5" y="-44" font-family="Helvetica,sans-Serif" font-size="10.00">porownania.FiltrKatalogów</text>
</a>
</g>
</g>
<!-- Node0&#45;&gt;Node1 -->
<g id="edge1" class="edge">
<title>Node0&#45;&gt;Node1</title>
<path fill="none" stroke="#63b8ff" d="M64.34,-32.96C72.71,-34.22 81.86,-35.59 91.01,-36.96"/>
<polygon fill="#63b8ff" stroke="#63b8ff" points="64.62,-29.46 54.21,-31.44 63.58,-36.38 64.62,-29.46"/>
</g>
<!-- Node2 -->
<g id="node3" class="node">
<title>Node2</title>
<g id="a_node3"><a xlink:href="classporownania_1_1FiltrPlik_xC3_xB3w.html" target="_top" xlink:title=" ">
<polygon fill="white" stroke="#666666" points="212.5,-19 98.5,-19 98.5,0 212.5,0 212.5,-19"/>
<text text-anchor="middle" x="155.5" y="-7" font-family="Helvetica,sans-Serif" font-size="10.00">porownania.FiltrPlików</text>
</a>
</g>
</g>
<!-- Node0&#45;&gt;Node2 -->
<g id="edge2" class="edge">
<title>Node0&#45;&gt;Node2</title>
<path fill="none" stroke="#63b8ff" d="M64.35,-22.33C74.95,-20.82 86.8,-19.13 98.33,-17.49"/>
<polygon fill="#63b8ff" stroke="#63b8ff" points="63.62,-18.9 54.21,-23.77 64.6,-25.83 63.62,-18.9"/>
</g>
</g>
</svg>
